<?xml version="1.0" encoding="utf-8"?>
<svg xmlns="http://www.w3.org/2000/svg" xmlns:xlink="http://www.w3.org/1999/xlink" width="600" height="400" viewBox="0 0 2400 1600">
<defs>
  <clipPath id="clip450">
    <rect x="0" y="0" width="2400" height="1600"/>
  </clipPath>
</defs>
<path clip-path="url(#clip450)" d="M0 1600 L2400 1600 L2400 0 L0 0  Z" fill="#ffffff" fill-rule="evenodd" fill-opacity="1"/>
<defs>
  <clipPath id="clip451">
    <rect x="178" y="47" width="2175" height="1440"/>
  </clipPath>
</defs>
<path clip-path="url(#clip450)" d="M178.867 1486.45 L2352.76 1486.45 L2352.76 47.2441 L178.867 47.2441  Z" fill="#ffffff" fill-rule="evenodd" fill-opacity="1"/>
<polyline clip-path="url(#clip451)" style="stroke:#000000; stroke-linecap:round; stroke-linejoin:round; stroke-width:2; stroke-opacity:0.1; fill:none" points="240.392,1486.45 240.392,47.2441 "/>
<polyline clip-path="url(#clip451)" style="stroke:#000000; stroke-linecap:round; stroke-linejoin:round; stroke-width:2; stroke-opacity:0.1; fill:none" points="754.937,1486.45 754.937,47.2441 "/>
<polyline clip-path="url(#clip451)" style="stroke:#000000; stroke-linecap:round; stroke-linejoin:round; stroke-width:2; stroke-opacity:0.1; fill:none" points="1269.48,1486.45 1269.48,47.2441 "/>
<polyline clip-path="url(#clip451)" style="stroke:#000000; stroke-linecap:round; stroke-linejoin:round; stroke-width:2; stroke-opacity:0.1; fill:none" points="1784.03,1486.45 1784.03,47.2441 "/>
<polyline clip-path="url(#clip451)" style="stroke:#000000; stroke-linecap:round; stroke-linejoin:round; stroke-width:2; stroke-opacity:0.1; fill:none" points="2298.57,1486.45 2298.57,47.2441 "/>
<polyline clip-path="url(#clip451)" style="stroke:#000000; stroke-linecap:round; stroke-linejoin:round; stroke-width:2; stroke-opacity:0.1; fill:none" points="178.867,1240 2352.76,1240 "/>
<polyline clip-path="url(#clip451)" style="stroke:#000000; stroke-linecap:round; stroke-linejoin:round; stroke-width:2; stroke-opacity:0.1; fill:none" points="178.867,884.545 2352.76,884.545 "/>
<polyline clip-path="url(#clip451)" style="stroke:#000000; stroke-linecap:round; stroke-linejoin:round; stroke-width:2; stroke-opacity:0.1; fill:none" points="178.867,529.086 2352.76,529.086 "/>
<polyline clip-path="url(#clip451)" style="stroke:#000000; stroke-linecap:round; stroke-linejoin:round; stroke-width:2; stroke-opacity:0.1; fill:none" points="178.867,173.628 2352.76,173.628 "/>
<polyline clip-path="url(#clip450)" style="stroke:#000000; stroke-linecap:round; stroke-linejoin:round; stroke-width:4; stroke-opacity:1; fill:none" points="178.867,1486.45 2352.76,1486.45 "/>
<polyline clip-path="url(#clip450)" style="stroke:#000000; stroke-linecap:round; stroke-linejoin:round; stroke-width:4; stroke-opacity:1; fill:none" points="240.392,1486.45 240.392,1467.55 "/>
<polyline clip-path="url(#clip450)" style="stroke:#000000; stroke-linecap:round; stroke-linejoin:round; stroke-width:4; stroke-opacity:1; fill:none" points="754.937,1486.45 754.937,1467.55 "/>
<polyline clip-path="url(#clip450)" style="stroke:#000000; stroke-linecap:round; stroke-linejoin:round; stroke-width:4; stroke-opacity:1; fill:none" points="1269.48,1486.45 1269.48,1467.55 "/>
<polyline clip-path="url(#clip450)" style="stroke:#000000; stroke-linecap:round; stroke-linejoin:round; stroke-width:4; stroke-opacity:1; fill:none" points="1784.03,1486.45 1784.03,1467.55 "/>
<polyline clip-path="url(#clip450)" style="stroke:#000000; stroke-linecap:round; stroke-linejoin:round; stroke-width:4; stroke-opacity:1; fill:none" points="2298.57,1486.45 2298.57,1467.55 "/>
<path clip-path="url(#clip450)" d="M240.392 1517.37 Q236.781 1517.37 234.952 1520.93 Q233.146 1524.47 233.146 1531.6 Q233.146 1538.71 234.952 1542.27 Q236.781 1545.82 240.392 1545.82 Q244.026 1545.82 245.832 1542.27 Q247.66 1538.71 247.66 1531.6 Q247.66 1524.47 245.832 1520.93 Q244.026 1517.37 240.392 1517.37 M240.392 1513.66 Q246.202 1513.66 249.257 1518.27 Q252.336 1522.85 252.336 1531.6 Q252.336 1540.33 249.257 1544.94 Q246.202 1549.52 240.392 1549.52 Q234.582 1549.52 231.503 1544.94 Q228.447 1540.33 228.447 1531.6 Q228.447 1522.85 231.503 1518.27 Q234.582 1513.66 240.392 1513.66 Z" fill="#000000" fill-rule="nonzero" fill-opacity="1" /><path clip-path="url(#clip450)" d="M749.59 1544.91 L765.909 1544.91 L765.909 1548.85 L743.965 1548.85 L743.965 1544.91 Q746.627 1542.16 751.21 1537.53 Q755.817 1532.88 756.997 1531.53 Q759.243 1529.01 760.122 1527.27 Q761.025 1525.51 761.025 1523.82 Q761.025 1521.07 759.081 1519.33 Q757.159 1517.6 754.057 1517.6 Q751.858 1517.6 749.405 1518.36 Q746.974 1519.13 744.196 1520.68 L744.196 1515.95 Q747.02 1514.82 749.474 1514.24 Q751.928 1513.66 753.965 1513.66 Q759.335 1513.66 762.53 1516.35 Q765.724 1519.03 765.724 1523.52 Q765.724 1525.65 764.914 1527.57 Q764.127 1529.47 762.02 1532.07 Q761.442 1532.74 758.34 1535.95 Q755.238 1539.15 749.59 1544.91 Z" fill="#000000" fill-rule="nonzero" fill-opacity="1" /><path clip-path="url(#clip450)" d="M1272.49 1518.36 L1260.69 1536.81 L1272.49 1536.81 L1272.49 1518.36 M1271.26 1514.29 L1277.14 1514.29 L1277.14 1536.81 L1282.07 1536.81 L1282.07 1540.7 L1277.14 1540.7 L1277.14 1548.85 L1272.49 1548.85 L1272.49 1540.7 L1256.89 1540.7 L1256.89 1536.19 L1271.26 1514.29 Z" fill="#000000" fill-rule="nonzero" fill-opacity="1" /><path clip-path="url(#clip450)" d="M1784.43 1529.7 Q1781.28 1529.7 1779.43 1531.86 Q1777.6 1534.01 1777.6 1537.76 Q1777.6 1541.49 1779.43 1543.66 Q1781.28 1545.82 1784.43 1545.82 Q1787.58 1545.82 1789.41 1543.66 Q1791.26 1541.49 1791.26 1537.76 Q1791.26 1534.01 1789.41 1531.86 Q1787.58 1529.7 1784.43 1529.7 M1793.72 1515.05 L1793.72 1519.31 Q1791.96 1518.48 1790.15 1518.04 Q1788.37 1517.6 1786.61 1517.6 Q1781.98 1517.6 1779.53 1520.72 Q1777.09 1523.85 1776.75 1530.17 Q1778.11 1528.15 1780.17 1527.09 Q1782.23 1526 1784.71 1526 Q1789.92 1526 1792.93 1529.17 Q1795.96 1532.32 1795.96 1537.76 Q1795.96 1543.08 1792.81 1546.3 Q1789.66 1549.52 1784.43 1549.52 Q1778.44 1549.52 1775.27 1544.94 Q1772.09 1540.33 1772.09 1531.6 Q1772.09 1523.41 1775.98 1518.55 Q1779.87 1513.66 1786.42 1513.66 Q1788.18 1513.66 1789.97 1514.01 Q1791.77 1514.36 1793.72 1515.05 Z" fill="#000000" fill-rule="nonzero" fill-opacity="1" /><path clip-path="url(#clip450)" d="M2298.57 1532.44 Q2295.24 1532.44 2293.32 1534.22 Q2291.42 1536 2291.42 1539.13 Q2291.42 1542.25 2293.32 1544.03 Q2295.24 1545.82 2298.57 1545.82 Q2301.91 1545.82 2303.83 1544.03 Q2305.75 1542.23 2305.75 1539.13 Q2305.75 1536 2303.83 1534.22 Q2301.93 1532.44 2298.57 1532.44 M2293.9 1530.45 Q2290.89 1529.7 2289.2 1527.64 Q2287.53 1525.58 2287.53 1522.62 Q2287.53 1518.48 2290.47 1516.07 Q2293.43 1513.66 2298.57 1513.66 Q2303.73 1513.66 2306.67 1516.07 Q2309.61 1518.48 2309.61 1522.62 Q2309.61 1525.58 2307.92 1527.64 Q2306.26 1529.7 2303.27 1530.45 Q2306.65 1531.23 2308.53 1533.52 Q2310.42 1535.82 2310.42 1539.13 Q2310.42 1544.15 2307.35 1546.83 Q2304.29 1549.52 2298.57 1549.52 Q2292.86 1549.52 2289.78 1546.83 Q2286.72 1544.15 2286.72 1539.13 Q2286.72 1535.82 2288.62 1533.52 Q2290.52 1531.23 2293.9 1530.45 M2292.18 1523.06 Q2292.18 1525.75 2293.85 1527.25 Q2295.54 1528.76 2298.57 1528.76 Q2301.58 1528.76 2303.27 1527.25 Q2304.98 1525.75 2304.98 1523.06 Q2304.98 1520.38 2303.27 1518.87 Q2301.58 1517.37 2298.57 1517.37 Q2295.54 1517.37 2293.85 1518.87 Q2292.18 1520.38 2292.18 1523.06 Z" fill="#000000" fill-rule="nonzero" fill-opacity="1" /><polyline clip-path="url(#clip450)" style="stroke:#000000; stroke-linecap:round; stroke-linejoin:round; stroke-width:4; stroke-opacity:1; fill:none" points="178.867,1486.45 178.867,47.2441 "/>
<polyline clip-path="url(#clip450)" style="stroke:#000000; stroke-linecap:round; stroke-linejoin:round; stroke-width:4; stroke-opacity:1; fill:none" points="178.867,1240 197.764,1240 "/>
<polyline clip-path="url(#clip450)" style="stroke:#000000; stroke-linecap:round; stroke-linejoin:round; stroke-width:4; stroke-opacity:1; fill:none" points="178.867,884.545 197.764,884.545 "/>
<polyline clip-path="url(#clip450)" style="stroke:#000000; stroke-linecap:round; stroke-linejoin:round; stroke-width:4; stroke-opacity:1; fill:none" points="178.867,529.086 197.764,529.086 "/>
<polyline clip-path="url(#clip450)" style="stroke:#000000; stroke-linecap:round; stroke-linejoin:round; stroke-width:4; stroke-opacity:1; fill:none" points="178.867,173.628 197.764,173.628 "/>
<path clip-path="url(#clip450)" d="M50.9921 1240.46 L80.6679 1240.46 L80.6679 1244.39 L50.9921 1244.39 L50.9921 1240.46 Z" fill="#000000" fill-rule="nonzero" fill-opacity="1" /><path clip-path="url(#clip450)" d="M94.7882 1253.35 L111.108 1253.35 L111.108 1257.28 L89.1632 1257.28 L89.1632 1253.35 Q91.8252 1250.59 96.4085 1245.96 Q101.015 1241.31 102.196 1239.97 Q104.441 1237.45 105.321 1235.71 Q106.223 1233.95 106.223 1232.26 Q106.223 1229.51 104.279 1227.77 Q102.358 1226.03 99.2558 1226.03 Q97.0567 1226.03 94.603 1226.8 Q92.1725 1227.56 89.3947 1229.11 L89.3947 1224.39 Q92.2188 1223.26 94.6724 1222.68 Q97.1261 1222.1 99.1632 1222.1 Q104.534 1222.1 107.728 1224.78 Q110.922 1227.47 110.922 1231.96 Q110.922 1234.09 110.112 1236.01 Q109.325 1237.91 107.219 1240.5 Q106.64 1241.17 103.538 1244.39 Q100.436 1247.58 94.7882 1253.35 Z" fill="#000000" fill-rule="nonzero" fill-opacity="1" /><path clip-path="url(#clip450)" d="M130.922 1225.8 Q127.311 1225.8 125.482 1229.37 Q123.677 1232.91 123.677 1240.04 Q123.677 1247.14 125.482 1250.71 Q127.311 1254.25 130.922 1254.25 Q134.556 1254.25 136.362 1250.71 Q138.191 1247.14 138.191 1240.04 Q138.191 1232.91 136.362 1229.37 Q134.556 1225.8 130.922 1225.8 M130.922 1222.1 Q136.732 1222.1 139.788 1226.71 Q142.867 1231.29 142.867 1240.04 Q142.867 1248.77 139.788 1253.37 Q136.732 1257.95 130.922 1257.95 Q125.112 1257.95 122.033 1253.37 Q118.978 1248.77 118.978 1240.04 Q118.978 1231.29 122.033 1226.71 Q125.112 1222.1 130.922 1222.1 Z" fill="#000000" fill-rule="nonzero" fill-opacity="1" /><path clip-path="url(#clip450)" d="M130.922 870.344 Q127.311 870.344 125.482 873.908 Q123.677 877.45 123.677 884.58 Q123.677 891.686 125.482 895.251 Q127.311 898.793 130.922 898.793 Q134.556 898.793 136.362 895.251 Q138.191 891.686 138.191 884.58 Q138.191 877.45 136.362 873.908 Q134.556 870.344 130.922 870.344 M130.922 866.64 Q136.732 866.64 139.788 871.246 Q142.867 875.83 142.867 884.58 Q142.867 893.307 139.788 897.913 Q136.732 902.496 130.922 902.496 Q125.112 902.496 122.033 897.913 Q118.978 893.307 118.978 884.58 Q118.978 875.83 122.033 871.246 Q125.112 866.64 130.922 866.64 Z" fill="#000000" fill-rule="nonzero" fill-opacity="1" /><path clip-path="url(#clip450)" d="M94.7882 542.431 L111.108 542.431 L111.108 546.366 L89.1632 546.366 L89.1632 542.431 Q91.8252 539.677 96.4085 535.047 Q101.015 530.394 102.196 529.052 Q104.441 526.528 105.321 524.792 Q106.223 523.033 106.223 521.343 Q106.223 518.589 104.279 516.853 Q102.358 515.116 99.2558 515.116 Q97.0567 515.116 94.603 515.88 Q92.1725 516.644 89.3947 518.195 L89.3947 513.473 Q92.2188 512.339 94.6724 511.76 Q97.1261 511.181 99.1632 511.181 Q104.534 511.181 107.728 513.867 Q110.922 516.552 110.922 521.042 Q110.922 523.172 110.112 525.093 Q109.325 526.991 107.219 529.584 Q106.64 530.255 103.538 533.473 Q100.436 536.667 94.7882 542.431 Z" fill="#000000" fill-rule="nonzero" fill-opacity="1" /><path clip-path="url(#clip450)" d="M130.922 514.885 Q127.311 514.885 125.482 518.45 Q123.677 521.991 123.677 529.121 Q123.677 536.227 125.482 539.792 Q127.311 543.334 130.922 543.334 Q134.556 543.334 136.362 539.792 Q138.191 536.227 138.191 529.121 Q138.191 521.991 136.362 518.45 Q134.556 514.885 130.922 514.885 M130.922 511.181 Q136.732 511.181 139.788 515.788 Q142.867 520.371 142.867 529.121 Q142.867 537.848 139.788 542.454 Q136.732 547.038 130.922 547.038 Q125.112 547.038 122.033 542.454 Q118.978 537.848 118.978 529.121 Q118.978 520.371 122.033 515.788 Q125.112 511.181 130.922 511.181 Z" fill="#000000" fill-rule="nonzero" fill-opacity="1" /><path clip-path="url(#clip450)" d="M103.608 160.422 L91.8021 178.871 L103.608 178.871 L103.608 160.422 M102.381 156.348 L108.26 156.348 L108.26 178.871 L113.191 178.871 L113.191 182.76 L108.26 182.76 L108.26 190.908 L103.608 190.908 L103.608 182.76 L88.0058 182.76 L88.0058 178.246 L102.381 156.348 Z" fill="#000000" fill-rule="nonzero" fill-opacity="1" /><path clip-path="url(#clip450)" d="M130.922 159.426 Q127.311 159.426 125.482 162.991 Q123.677 166.533 123.677 173.662 Q123.677 180.769 125.482 184.334 Q127.311 187.875 130.922 187.875 Q134.556 187.875 136.362 184.334 Q138.191 180.769 138.191 173.662 Q138.191 166.533 136.362 162.991 Q134.556 159.426 130.922 159.426 M130.922 155.723 Q136.732 155.723 139.788 160.329 Q142.867 164.912 142.867 173.662 Q142.867 182.389 139.788 186.996 Q136.732 191.579 130.922 191.579 Q125.112 191.579 122.033 186.996 Q118.978 182.389 118.978 173.662 Q118.978 164.912 122.033 160.329 Q125.112 155.723 130.922 155.723 Z" fill="#000000" fill-rule="nonzero" fill-opacity="1" /><polyline clip-path="url(#clip451)" style="stroke:#009af9; stroke-linecap:round; stroke-linejoin:round; stroke-width:4; stroke-opacity:1; fill:none" points="240.392,1164.33 245.685,1152.91 250.978,1141.72 256.271,1130.78 261.564,1120.07 269.314,1104.84 277.065,1090.12 284.815,1075.91 292.565,1062.22 300.315,1049.05 308.066,1036.39 315.816,1024.25 323.566,1012.63 331.316,1001.52 339.067,990.93 346.817,980.854 354.567,971.294 362.317,962.25 370.068,953.723 377.818,945.712 385.568,938.216 392.779,931.706 399.99,925.643 407.201,920.027 414.411,914.857 421.622,910.134 428.833,905.858 436.044,902.028 443.255,898.646 452.92,894.813 462.585,891.782 472.25,889.554 481.915,888.129 486.748,887.668 491.581,886.491 496.413,885.262 501.246,883.726 503.662,883.469 506.078,884.318 508.495,885.167 510.911,886.015 513.327,885.226 515.744,884.296 518.16,883.366 520.576,883.457 522.573,884.292 524.569,885.126 526.566,885.96 528.563,885.878 530.559,884.978 532.556,884.077 534.553,883.176 536.549,883.057 538.546,884.025 540.542,884.991 542.539,885.957 544.536,886.302 546.532,885.271 548.529,884.239 550.525,883.207 552.522,882.604 554.519,883.701 556.515,884.798 558.512,885.893 560.508,886.778 562.505,885.619 564.502,884.459 566.498,883.299 568.495,882.138 570.492,883.324 572.488,884.546 574.485,885.767 576.481,886.988 578.478,886.017 580.475,884.735 582.471,883.453 584.468,882.17 586.324,882.821 588.181,884.086 590.038,885.351 591.894,886.614 593.751,887.01 595.608,885.657 597.464,884.304 599.321,882.949 601.178,881.594 603.034,882.715 604.891,884.073 606.748,885.432 608.604,886.792 610.461,886.846 612.318,885.566 614.174,884.288 616.031,883.01 617.887,881.928 619.744,883.201 621.601,884.473 623.457,885.744 625.314,887.014 627.171,886.568 629.027,885.229 630.884,883.89 632.741,882.55 634.597,881.852 636.454,883.196 638.311,884.54 640.167,885.886 642.024,887.231 643.881,886.414 645.046,885.606 646.211,884.797 647.377,883.989 648.542,883.182 649.707,882.375 650.873,882.001 652.038,882.805 653.203,883.61 655.534,885.218 657.865,886.825 660.196,886.42 662.526,884.754 664.857,883.088 667.188,881.739 669.519,883.41 671.849,885.082 674.18,886.755 676.511,886.529 678.842,884.902 681.172,883.277 682.338,882.464 683.503,881.833 684.668,882.644 685.834,883.454 688.164,885.074 690.495,886.694 692.826,886.557 695.157,884.901 697.487,883.244 699.818,881.642 702.149,883.302 704.48,884.963 706.81,886.623 709.141,886.647 711.472,885.015 713.802,883.383 714.968,882.567 716.133,881.752 717.299,882.492 718.464,883.306 720.555,884.767 722.645,886.227 724.736,887.2 726.827,885.72 728.917,884.24 731.008,882.76 733.099,881.996 735.189,883.478 737.28,884.96 739.371,886.442 741.461,886.986 743.552,885.519 745.643,884.052 747.733,882.586 749.824,882.275 751.915,883.74 754.006,885.205 756.096,886.669 758.187,886.75 760.278,885.273 762.368,883.797 764.459,882.321 766.55,882.459 768.64,883.937 770.731,885.414 772.822,886.892 774.912,886.534 777.003,885.065 779.094,883.597 781.184,882.129 783.275,882.713 785.366,884.18 786.562,885.02 787.759,885.859 788.955,886.699 790.152,887.348 792.545,885.661 794.938,883.974 797.331,882.287 799.724,882.721 802.117,884.409 804.51,886.096 805.707,886.94 806.903,887.108 808.1,886.267 809.296,885.427 811.689,883.745 814.082,882.064 816.476,882.98 818.869,884.66 821.262,886.341 823.655,886.861 826.048,885.176 828.441,883.491 829.637,882.648 830.834,881.806 832.03,882.367 833.227,883.21 835.62,884.896 838.013,886.581 840.406,886.621 842.799,884.939 845.192,883.258 847.585,881.78 849.978,883.461 852.371,885.142 854.765,886.823 857.158,886.375 859.551,884.691 861.944,883.007 863.733,881.749 865.521,882.847 867.31,884.106 869.099,885.364 870.888,886.623 872.677,887 874.465,885.743 876.254,884.486 878.043,883.229 879.832,881.973 881.621,882.637 883.41,883.893 885.198,885.15 886.987,886.407 888.776,887.215 890.565,885.957 892.354,884.699 894.142,883.441 895.931,882.183 897.72,882.416 899.509,883.674 901.298,884.931 903.086,886.189 904.875,887.431 906.664,886.174 908.453,884.917 910.242,883.66 912.031,882.403 913.819,882.204 915.608,883.46 916.503,884.089 917.397,884.717 918.291,885.345 919.186,885.973 920.33,886.777 921.474,887.295 922.618,886.49 923.762,885.686 926.05,884.078 928.338,882.47 930.625,882.481 932.913,884.089 935.201,885.697 937.489,887.305 939.777,885.962 942.065,884.355 944.353,882.748 946.641,882.209 948.929,883.816 951.217,885.423 952.361,886.226 953.505,887.03 954.649,887.039 955.793,886.236 958.081,884.628 960.369,883.021 961.513,882.217 962.656,881.932 963.8,882.736 964.944,883.54 967.232,885.147 969.52,886.755 971.808,886.511 974.096,884.904 976.384,883.297 978.672,881.69 980.96,883.266 983.248,884.873 985.536,886.479 987.824,886.785 988.968,885.981 990.112,885.177 991.256,884.374 992.4,883.57 994.488,882.104 996.576,882.71 998.664,884.176 1000.75,885.643 1002.84,887.11 1004.93,886.294 1007.02,884.828 1009.11,883.361 1011.19,881.895 1013.28,882.92 1015.37,884.387 1017.46,885.853 1018.5,886.586 1019.55,887.319 1020.59,886.817 1021.63,886.084 1022.68,885.35 1023.72,884.617 1024.77,883.884 1025.81,883.151 1026.85,882.417 1027.9,881.684 1028.94,882.396 1029.99,883.13 1032.08,884.596 1034.16,886.062 1035.21,886.796 1036.25,887.34 1037.3,886.607 1038.34,885.874 1040.43,884.407 1042.52,882.941 1044.6,881.874 1046.69,883.34 1048.78,884.806 1050.87,886.272 1052.96,887.13 1055.05,885.663 1057.13,884.197 1059.22,882.731 1060.41,881.897 1061.6,882.286 1062.79,883.12 1063.98,883.954 1066.35,885.623 1068.73,887.292 1071.11,885.907 1073.48,884.239 1075.86,882.57 1078.24,882.447 1080.61,884.116 1082.99,885.784 1084.18,886.619 1085.36,887.414 1086.55,886.58 1087.74,885.746 1090.12,884.077 1092.49,882.408 1094.87,882.608 1097.25,884.277 1099.62,885.946 1102,887.253 1104.38,885.584 1106.75,883.916 1109.13,882.247 1111.51,882.77 1113.88,884.438 1116.26,886.107 1117.45,886.941 1118.64,887.092 1119.83,886.257 1121.01,885.423 1123.39,883.755 1125.77,882.086 1128.14,882.931 1130.52,884.599 1132.9,886.268 1135.27,886.93 1137.16,885.608 1139.04,884.285 1140.93,882.962 1142.81,881.709 1144.69,883.032 1146.58,884.354 1148.46,885.677 1150.35,887 1152.23,886.545 1154.11,885.222 1156,883.899 1157.88,882.577 1159.77,882.094 1161.65,883.417 1163.53,884.74 1165.42,886.063 1167.3,887.385 1169.19,886.159 1171.07,884.836 1172.95,883.514 1174.84,882.191 1176.72,882.48 1178.61,883.803 1180.49,885.126 1182.37,886.449 1184.26,887.096 1186.14,885.773 1188.03,884.451 1189.91,883.128 1191.79,881.805 1193.68,882.866 1195.56,884.189 1196.73,885.01 1197.9,885.832 1199.07,886.654 1200.24,887.392 1202.58,885.749 1204.93,884.105 1207.27,882.462 1209.61,882.53 1211.95,884.173 1214.29,885.817 1215.46,886.639 1216.63,887.408 1217.8,886.586 1218.97,885.765 1221.31,884.121 1223.65,882.478 1225.99,882.514 1228.33,884.158 1230.67,885.801 1233.01,887.424 1235.35,885.78 1237.69,884.137 1240.03,882.493 1242.38,882.498 1244.72,884.142 1247.06,885.786 1248.23,886.608 1249.4,887.43 1250.57,886.618 1251.74,885.796 1254.08,884.153 1256.42,882.509 1258.76,882.483 1261.1,884.127 1263.44,885.771 1265.78,887.415 1268.12,885.812 1270.46,884.168 1272.26,882.909 1274.05,881.697 1275.84,882.956 1277.63,884.215 1279.43,885.474 1281.22,886.734 1283.01,886.879 1284.8,885.62 1286.6,884.361 1288.39,883.102 1290.18,881.842 1291.97,882.764 1293.77,884.023 1295.56,885.282 1297.35,886.542 1299.14,887.072 1300.94,885.813 1302.73,884.553 1304.52,883.294 1306.31,882.035 1308.11,882.572 1309.9,883.831 1311.69,885.09 1313.48,886.35 1315.28,887.265 1317.07,886.005 1318.86,884.746 1320.65,883.486 1322.45,882.227 1324.24,882.379 1325.14,883.009 1326.03,883.639 1326.93,884.269 1327.82,884.898 1330.35,886.674 1332.88,886.425 1335.41,884.649 1337.93,882.873 1339.2,881.985 1340.46,882.249 1341.72,883.137 1342.99,884.025 1345.52,885.801 1348.04,887.299 1350.57,885.523 1353.1,883.747 1354.36,882.859 1355.62,881.971 1356.89,882.263 1358.15,883.151 1360.68,884.928 1363.21,886.704 1365.73,886.398 1368.26,884.621 1370.79,882.845 1373.32,882.278 1375.84,884.054 1378.37,885.831 1379.63,886.719 1380.9,887.272 1382.16,886.384 1383.42,885.496 1385.95,883.719 1388.48,881.942 1391.01,883.18 1393.53,884.957 1394.8,885.846 1396.06,886.734 1397.32,887.259 1398.59,886.37 1401.11,884.593 1403.64,882.816 1404.91,881.928 1406.17,882.306 1407.43,883.195 1408.7,884.083 1410.59,885.411 1412.47,886.74 1414.36,886.816 1416.25,885.488 1418.14,884.159 1420.03,882.831 1421.92,881.842 1423.8,883.17 1425.69,884.499 1427.58,885.827 1429.47,887.156 1431.36,886.401 1433.25,885.073 1435.14,883.744 1437.02,882.416 1438.91,882.257 1440.8,883.586 1442.69,884.914 1444.58,886.243 1446.47,887.315 1448.36,885.987 1450.24,884.658 1452.13,883.329 1454.02,882.001 1455.91,882.673 1457.8,884.002 1459.69,885.331 1461.58,886.66 1463.46,886.901 1465.35,885.572 1467.24,884.243 1469.13,882.914 1471.28,881.941 1473.43,883.453 1475.57,884.964 1477.72,886.476 1479.87,886.904 1482.02,885.392 1484.16,883.881 1486.31,882.369 1488.46,882.487 1490.61,883.999 1492.76,885.511 1494.9,887.023 1497.05,886.359 1499.2,884.847 1501.35,883.335 1503.49,881.822 1505.64,883.032 1507.79,884.545 1509.94,886.057 1512.08,887.327 1514.23,885.815 1516.38,884.302 1518.53,882.79 1520.68,882.066 1522.82,883.579 1524.97,885.092 1527.12,886.605 1529.27,886.783 1531.41,885.269 1533.56,883.756 1535.71,882.242 1537.86,882.611 1554.87,883.042 1571.89,883.469 1588.9,883.902 1605.92,884.329 1680.8,884.062 1738,884.911 1810.18,885.421 1876.93,884.663 1894.15,884.348 1911.36,884.14 1919.96,885.098 1928.57,887.165 1937.18,887.974 1945.78,889.06 1954.51,890.81 1963.23,893.215 1971.95,896.272 1980.68,899.984 1989.4,904.35 1998.12,909.369 2006.85,915.043 2015.57,921.37 2024.68,928.675 2033.79,936.692 2042.89,945.422 2052,954.866 2061.11,965.022 2070.22,975.891 2079.33,987.473 2088.44,999.768 2095.61,1009.96 2102.79,1020.58 2109.96,1031.66 2117.14,1043.17 2124.31,1055.13 2131.49,1067.53 2138.66,1080.37 2145.84,1093.65 2154.01,1109.32 2162.18,1125.56 2170.35,1142.37 2178.52,1159.75 2186.69,1177.71 2194.86,1196.24 2203.03,1215.35 2211.2,1235.03 2219.37,1255.28 2227.54,1276.11 2235.71,1297.51 2243.88,1319.48 2252.05,1342.03 2260.22,1365.15 2268.39,1388.85 2276.56,1413.12 2278.4,1418.64 2280.23,1424.19 2281.15,1426.98 2282.06,1429.78 2282.98,1432.58 2283.9,1433.43 2285.73,1434.91 2287.56,1436.4 2289.4,1437.89 2291.23,1439.38 "/>
<polyline clip-path="url(#clip451)" style="stroke:#e26f46; stroke-linecap:round; stroke-linejoin:round; stroke-width:4; stroke-opacity:1; fill:none" points="240.392,601.361 245.685,612.786 250.978,623.97 256.271,634.913 261.564,645.616 269.314,660.853 277.065,675.574 284.815,689.779 292.565,703.468 300.315,716.64 308.066,729.297 315.816,741.437 323.566,753.061 331.316,764.169 339.067,774.761 346.817,784.837 354.567,794.397 362.317,803.44 370.068,811.968 377.818,819.979 385.568,827.474 392.779,833.985 399.99,840.048 407.201,845.664 414.411,850.834 421.622,855.557 428.833,859.833 436.044,863.663 443.255,867.045 452.92,870.878 462.585,873.909 472.25,876.137 481.915,877.562 486.748,878.083 491.581,880.402 496.413,882.995 501.246,886.299 502.454,887.125 503.662,886.853 504.87,885.939 506.078,885.026 508.495,883.2 510.911,881.375 513.327,883.072 515.744,885.073 516.952,886.074 518.16,887.075 519.368,887.968 520.576,886.88 522.573,885.083 524.569,883.287 525.568,882.389 526.566,881.492 527.564,880.697 528.563,881.667 530.559,883.606 532.556,885.546 533.554,886.516 534.553,887.486 535.551,888.456 536.549,887.741 538.546,885.659 540.542,883.578 541.541,882.537 542.539,881.497 543.537,880.457 544.536,880.752 546.532,882.975 548.529,885.197 550.525,887.42 552.522,888.718 553.52,887.537 554.519,886.356 555.517,885.175 556.515,883.994 558.512,881.633 560.508,879.725 562.505,882.224 564.502,884.724 566.498,887.224 568.495,889.725 570.492,887.17 572.488,884.536 574.485,881.903 576.481,879.271 577.48,879.982 578.478,881.364 579.476,882.746 580.475,884.128 582.471,886.892 584.468,889.657 585.396,889.62 586.324,888.255 587.253,886.891 588.181,885.527 590.038,882.8 591.894,880.074 592.823,878.711 593.751,879.218 594.679,880.678 595.608,882.138 597.464,885.059 599.321,887.98 600.249,889.441 601.178,890.902 602.106,889.948 603.034,888.484 604.891,885.555 606.748,882.626 607.676,881.161 608.604,879.696 609.068,878.963 609.533,878.23 609.997,878.888 610.461,879.578 612.318,882.336 614.174,885.093 615.102,886.471 616.031,887.848 616.959,889.226 617.887,890.184 619.744,887.439 621.601,884.694 623.457,881.95 625.314,879.208 626.242,878.725 627.171,880.17 628.099,881.616 629.027,883.062 630.884,885.953 632.741,888.846 633.669,890.292 634.597,890.352 635.526,888.901 636.454,887.45 638.311,884.548 640.167,881.645 641.096,880.194 642.024,878.742 642.952,879.115 643.881,880.505 646.211,883.994 648.542,887.481 649.707,889.224 650.873,890.032 652.038,888.295 653.203,886.558 655.534,883.085 657.865,879.613 658.448,878.745 659.03,878.688 659.613,879.588 660.196,880.487 661.361,882.287 662.526,884.086 663.692,885.886 664.857,887.686 666.022,889.485 667.188,890.6 668.353,888.795 669.519,886.989 670.684,885.184 671.849,883.378 673.015,881.572 674.18,879.766 674.763,878.863 675.345,878.498 675.928,879.376 676.511,880.254 678.842,883.767 681.172,887.278 682.338,889.034 683.503,890.398 684.668,888.647 685.834,886.896 688.164,883.395 690.495,879.894 691.078,879.019 691.661,878.4 692.243,879.295 692.826,880.19 693.991,881.98 695.157,883.77 696.322,885.56 697.487,887.35 698.653,889.14 699.818,890.812 700.983,889.018 702.149,887.224 703.314,885.43 704.48,883.636 705.645,881.842 706.81,880.047 707.393,879.15 707.976,878.253 708.558,879.113 709.141,879.995 711.472,883.523 713.802,887.051 714.968,888.814 716.133,890.577 717.299,888.978 718.464,887.217 720.555,884.059 722.645,880.901 723.691,879.322 724.736,878.796 725.781,880.397 726.827,881.997 728.917,885.198 731.008,888.399 732.053,890 733.099,890.051 734.144,888.448 735.189,886.846 737.28,883.64 739.371,880.435 740.416,878.832 741.461,879.258 742.507,880.845 743.552,882.432 745.643,885.604 747.733,888.777 748.256,889.57 748.779,890.363 749.301,890.241 749.824,889.449 750.869,887.864 751.915,886.28 754.006,883.111 756.096,879.942 756.619,879.15 757.142,878.358 757.664,878.969 758.187,879.768 759.232,881.365 760.278,882.962 762.368,886.157 764.459,889.351 764.982,890.15 765.504,890.65 766.027,889.851 766.55,889.052 767.595,887.453 768.64,885.854 770.731,882.657 772.822,879.46 773.344,878.661 773.867,878.645 774.39,879.44 774.912,880.234 775.958,881.823 777.003,883.412 779.094,886.59 781.184,889.767 781.707,890.562 782.23,890.091 782.752,889.297 783.275,888.503 784.32,886.915 785.366,885.328 786.562,883.51 787.759,881.693 788.357,880.785 788.955,879.876 789.554,878.968 790.152,878.471 792.545,882.123 794.938,885.775 796.134,887.601 797.331,889.427 797.929,890.34 798.528,890.314 799.126,889.401 799.724,888.487 802.117,884.834 804.51,881.18 805.707,879.353 806.903,878.989 808.1,880.809 809.296,882.63 811.689,886.27 814.082,889.911 814.681,890.657 815.279,889.747 815.877,888.837 816.476,887.927 817.672,886.108 818.869,884.288 820.065,882.469 821.262,880.65 821.86,879.74 822.458,878.83 823.056,878.61 823.655,879.523 826.048,883.172 828.441,886.822 829.637,888.646 830.834,890.471 832.03,889.254 833.227,887.429 835.62,883.779 838.013,880.129 838.611,879.216 839.21,878.303 839.808,879.131 840.406,880.042 841.603,881.863 842.799,883.685 843.996,885.506 845.192,887.327 846.389,889.148 847.585,890.527 848.782,888.707 849.978,886.886 851.175,885.065 852.371,883.245 853.568,881.424 854.765,879.603 855.363,878.693 855.961,878.75 856.559,879.662 857.158,880.574 859.551,884.222 861.944,887.87 862.838,889.233 863.733,890.596 864.627,889.581 865.521,888.218 867.31,885.491 869.099,882.764 869.993,881.4 870.888,880.037 871.782,878.673 872.677,879.218 874.465,881.942 876.254,884.666 878.043,887.389 879.832,890.113 880.726,890.035 881.621,888.673 882.515,887.312 883.41,885.95 885.198,883.227 886.987,880.504 887.882,879.143 888.776,878.753 889.67,880.116 890.565,881.479 892.354,884.205 894.142,886.931 895.037,888.294 895.931,889.657 896.826,890.516 897.72,889.153 899.509,886.427 901.298,883.701 903.086,880.975 904.875,878.284 906.664,881.009 908.453,883.733 910.242,886.457 912.031,889.18 912.925,890.542 913.819,889.613 914.714,888.251 915.608,886.889 917.397,884.166 919.186,881.442 920.33,879.7 921.474,878.578 922.618,880.321 923.762,882.064 926.05,885.55 928.338,889.036 928.91,889.907 929.482,890.755 930.054,889.883 930.625,889.012 931.769,887.269 932.913,885.526 934.057,883.783 935.201,882.04 936.345,880.297 937.489,878.554 938.633,879.724 939.777,881.467 940.921,883.209 942.065,884.951 943.209,886.693 944.353,888.435 944.925,889.306 945.497,890.178 946.069,890.474 946.641,889.603 948.929,886.119 951.217,882.635 952.361,880.893 953.505,879.151 954.649,879.13 955.793,880.873 958.081,884.358 960.369,887.844 961.513,889.586 962.656,890.204 963.8,888.461 964.944,886.718 967.232,883.233 969.52,879.747 970.092,878.876 970.664,878.534 971.236,879.405 971.808,880.276 972.952,882.019 974.096,883.761 975.24,885.503 976.384,887.246 977.528,888.988 978.672,890.73 979.816,889.054 980.96,887.312 982.104,885.57 983.248,883.828 984.392,882.086 985.536,880.344 986.108,879.473 986.68,878.601 987.252,878.81 987.824,879.682 988.968,881.424 990.112,883.167 991.256,884.91 992.4,886.652 993.444,888.243 994.488,889.833 995.532,890.109 996.576,888.519 998.664,885.338 1000.75,882.157 1001.8,880.567 1002.84,878.976 1003.88,879.155 1004.93,880.745 1007.02,883.926 1009.11,887.106 1010.15,888.696 1011.19,890.286 1012.24,889.652 1013.28,888.062 1015.37,884.882 1017.46,881.702 1018.5,880.112 1019.55,878.521 1020.59,879.611 1021.63,881.201 1023.72,884.382 1025.81,887.563 1026.85,889.153 1027.9,890.744 1028.94,889.199 1029.99,887.609 1032.08,884.428 1034.16,881.247 1035.21,879.657 1036.25,878.476 1037.3,880.066 1038.34,881.657 1040.43,884.837 1042.52,888.017 1043.56,889.608 1044.6,890.333 1045.65,888.743 1046.69,887.153 1048.78,883.972 1050.87,880.792 1051.91,879.202 1052.96,878.932 1054,880.522 1055.05,882.112 1057.13,885.293 1059.22,888.474 1059.82,889.379 1060.41,890.284 1061,890.344 1061.6,889.439 1062.79,887.63 1063.98,885.82 1065.16,884.01 1066.35,882.2 1067.54,880.39 1068.73,878.58 1069.92,879.774 1071.11,881.584 1072.29,883.393 1073.48,885.203 1074.67,887.013 1075.86,888.823 1076.45,889.728 1077.05,890.633 1077.64,889.994 1078.24,889.089 1080.61,885.469 1082.99,881.85 1084.18,880.04 1085.36,878.314 1086.55,880.124 1087.74,881.934 1090.12,885.554 1092.49,889.174 1093.09,890.079 1093.68,890.55 1094.28,889.645 1094.87,888.74 1096.06,886.93 1097.25,885.12 1098.44,883.31 1099.62,881.5 1100.81,879.69 1102,878.664 1103.19,880.474 1104.38,882.284 1105.57,884.093 1106.75,885.903 1107.94,887.713 1109.13,889.523 1109.73,890.428 1110.32,890.2 1110.91,889.295 1111.51,888.39 1113.88,884.77 1116.26,881.15 1117.45,879.34 1118.64,879.014 1119.83,880.824 1121.01,882.634 1123.39,886.253 1125.77,889.873 1126.36,890.755 1126.96,889.85 1127.55,888.945 1128.14,888.04 1129.33,886.23 1130.52,884.42 1131.71,882.61 1132.9,880.801 1133.49,879.896 1134.09,878.991 1134.68,878.459 1135.27,879.364 1137.16,882.233 1139.04,885.103 1139.98,886.537 1140.93,887.972 1141.87,889.407 1142.81,890.691 1143.75,889.256 1144.69,887.822 1145.64,886.387 1146.58,884.952 1148.46,882.083 1150.35,879.213 1151.29,878.766 1152.23,880.2 1153.17,881.635 1154.11,883.07 1156,885.939 1157.88,888.809 1158.82,890.244 1159.77,889.855 1160.71,888.42 1161.65,886.985 1163.53,884.116 1165.42,881.246 1166.36,879.811 1167.3,878.376 1168.24,879.602 1169.19,881.037 1171.07,883.906 1172.95,886.776 1173.9,888.211 1174.84,889.645 1175.78,890.452 1176.72,889.018 1178.61,886.148 1180.49,883.279 1181.43,881.844 1182.37,880.409 1183.32,878.974 1184.26,879.004 1186.14,881.874 1188.03,884.743 1189.91,887.613 1191.79,890.482 1192.74,889.616 1193.68,888.181 1194.62,886.746 1195.56,885.311 1196.73,883.529 1197.9,881.746 1199.07,879.964 1200.24,878.362 1201.41,880.145 1202.58,881.927 1203.75,883.71 1204.93,885.492 1206.1,887.274 1207.27,889.057 1207.85,889.948 1208.44,890.692 1209.02,889.801 1209.61,888.91 1211.95,885.345 1214.29,881.78 1215.46,879.997 1216.63,878.328 1217.8,880.111 1218.97,881.893 1221.31,885.458 1223.65,889.023 1224.24,889.914 1224.82,890.726 1225.41,889.835 1225.99,888.944 1227.16,887.161 1228.33,885.379 1229.5,883.596 1230.67,881.814 1231.84,880.031 1233.01,878.294 1234.18,880.076 1235.35,881.859 1236.52,883.641 1237.69,885.424 1238.86,887.206 1240.03,888.989 1240.62,889.88 1241.21,890.76 1241.79,889.868 1242.38,888.977 1244.72,885.412 1247.06,881.847 1248.23,880.064 1249.4,878.282 1250.57,880.042 1251.74,881.825 1254.08,885.39 1256.42,888.955 1257,889.846 1257.59,890.737 1258.17,889.902 1258.76,889.011 1259.93,887.228 1261.1,885.446 1262.27,883.663 1263.44,881.881 1264.61,880.098 1265.78,878.315 1266.95,880.008 1268.12,881.79 1269.29,883.573 1270.46,885.355 1272.26,888.086 1274.05,890.714 1275.84,887.984 1277.63,885.253 1279.43,882.523 1281.22,879.793 1282.11,878.427 1283.01,879.478 1283.91,880.843 1284.8,882.208 1286.6,884.938 1288.39,887.668 1289.28,889.033 1290.18,890.399 1291.08,889.765 1291.97,888.4 1293.77,885.67 1295.56,882.939 1296.46,881.574 1297.35,880.209 1298.25,878.844 1299.14,879.06 1300.94,881.79 1302.73,884.521 1304.52,887.251 1306.31,889.981 1307.21,890.182 1308.11,888.817 1309,887.452 1309.9,886.086 1311.69,883.356 1313.48,880.625 1314.38,879.26 1315.28,878.643 1316.17,880.008 1317.07,881.373 1318.86,884.103 1320.65,886.833 1321.55,888.199 1322.45,889.564 1323.34,890.598 1324.24,889.233 1325.14,887.868 1326.03,886.503 1326.93,885.138 1327.82,883.772 1329.09,881.848 1330.35,879.923 1330.98,878.96 1331.62,878.538 1332.25,879.501 1332.88,880.463 1334.14,882.388 1335.41,884.312 1336.67,886.237 1337.93,888.162 1338.57,889.124 1339.2,890.087 1339.83,890.477 1340.46,889.515 1341.72,887.59 1342.99,885.666 1344.25,883.741 1345.52,881.816 1346.78,879.891 1348.04,878.569 1349.31,880.493 1350.57,882.418 1351.83,884.343 1353.1,886.267 1354.36,888.192 1355.62,890.117 1356.89,889.483 1358.15,887.559 1359.42,885.634 1360.68,883.709 1361.94,881.784 1363.21,879.859 1363.84,878.897 1364.47,878.599 1365.1,879.561 1365.73,880.524 1367,882.448 1368.26,884.373 1369.52,886.298 1370.79,888.223 1371.42,889.185 1372.05,890.148 1372.68,890.414 1373.32,889.452 1374.58,887.527 1375.84,885.602 1377.11,883.677 1378.37,881.752 1379.63,879.827 1380.9,878.629 1382.16,880.554 1383.42,882.478 1384.69,884.403 1385.95,886.328 1387.21,888.253 1388.48,890.178 1389.74,889.42 1391.01,887.495 1392.27,885.57 1393.53,883.645 1394.8,881.721 1396.06,879.796 1396.69,878.833 1397.32,878.659 1397.96,879.622 1398.59,880.584 1399.85,882.509 1401.11,884.434 1402.38,886.358 1403.64,888.283 1404.27,889.246 1404.91,890.208 1405.54,890.351 1406.17,889.389 1407.43,887.464 1408.7,885.539 1410.59,882.662 1412.47,879.785 1412.95,879.065 1413.42,878.346 1413.89,878.901 1414.36,879.62 1415.31,881.059 1416.25,882.497 1418.14,885.374 1420.03,888.25 1420.97,889.689 1421.92,890.392 1422.86,888.954 1423.8,887.515 1425.69,884.638 1427.58,881.761 1428.53,880.323 1429.47,878.884 1430.41,879.08 1431.36,880.519 1433.25,883.395 1435.14,886.272 1436.08,887.711 1437.02,889.149 1437.97,890.588 1438.91,889.493 1439.86,888.054 1440.8,886.616 1441.75,885.177 1442.69,883.738 1443.63,882.3 1444.58,880.861 1445.52,879.423 1446.47,878.54 1448.36,881.417 1450.24,884.293 1452.13,887.17 1454.02,890.047 1454.97,890.03 1455.91,888.592 1456.85,887.153 1457.8,885.715 1459.69,882.838 1461.58,879.96 1462.52,878.522 1463.46,879.438 1464.41,880.877 1465.35,882.315 1467.24,885.192 1469.13,888.069 1470.2,889.705 1471.28,890.175 1472.35,888.539 1473.43,886.903 1475.57,883.631 1477.72,880.358 1478.26,879.54 1478.8,878.722 1479.33,878.615 1479.87,879.433 1480.94,881.069 1482.02,882.705 1484.16,885.976 1486.31,889.248 1486.85,890.066 1487.39,890.627 1487.92,889.81 1488.46,888.992 1489.53,887.356 1490.61,885.72 1492.76,882.448 1494.9,879.176 1495.44,878.358 1495.98,878.977 1496.51,879.795 1497.05,880.613 1498.12,882.249 1499.2,883.885 1500.27,885.521 1501.35,887.157 1502.42,888.793 1503.49,890.43 1504.57,889.448 1505.64,887.812 1506.72,886.175 1507.79,884.539 1508.86,882.903 1509.94,881.267 1511.01,879.63 1512.08,878.52 1513.16,880.156 1514.23,881.792 1515.31,883.427 1516.38,885.063 1517.45,886.699 1518.53,888.335 1519.06,889.153 1519.6,889.971 1520.14,890.717 1520.68,889.899 1522.82,886.628 1524.97,883.356 1526.04,881.72 1527.12,880.084 1527.66,879.265 1528.19,878.447 1528.73,878.882 1529.27,879.7 1531.41,882.972 1533.56,886.245 1534.64,887.881 1535.71,889.517 1536.25,890.336 1536.78,890.357 1537.32,889.539 1537.86,888.72 1539.98,885.479 1542.11,882.238 1543.17,880.617 1544.24,878.997 1545.3,879.132 1546.37,880.752 1548.49,883.992 1550.62,887.232 1551.68,888.852 1552.75,890.472 1553.81,889.408 1554.87,887.788 1557,884.547 1559.13,881.307 1560.19,879.687 1561.25,878.438 1562.32,880.059 1563.38,881.68 1565.51,884.921 1567.64,888.163 1568.7,889.784 1569.76,890.104 1570.83,888.483 1571.89,886.863 1572.95,885.242 1574.02,883.621 1575.08,882 1576.14,880.379 1577.21,878.758 1578.27,879.365 1579.33,880.984 1580.4,882.604 1582.52,885.844 1584.65,889.083 1585.18,889.893 1585.71,890.703 1586.25,889.978 1586.78,889.168 1587.84,887.548 1588.9,885.928 1591.03,882.688 1593.16,879.447 1593.69,878.637 1594.22,878.671 1594.75,879.481 1595.29,880.292 1596.35,881.913 1597.41,883.534 1599.54,886.776 1601.67,890.019 1602.2,890.678 1602.73,889.868 1603.26,889.057 1603.79,888.247 1604.86,886.625 1605.92,885.004 1606.51,884.112 1607.09,883.22 1607.68,882.329 1608.26,881.437 1609.43,879.653 1610.6,878.627 1611.77,880.408 1612.94,882.19 1614.11,883.971 1615.28,885.753 1616.45,887.535 1617.62,889.317 1618.21,890.208 1618.79,890.381 1619.38,889.49 1619.96,888.599 1622.3,885.035 1624.64,881.471 1625.81,879.688 1626.98,878.584 1628.15,880.368 1629.32,882.152 1631.66,885.72 1634,889.289 1634.59,890.182 1635.17,890.436 1635.76,889.544 1636.34,888.652 1637.51,886.867 1638.68,885.083 1639.85,883.299 1641.02,881.514 1642.19,879.73 1643.36,878.543 1644.53,880.324 1645.7,882.105 1646.87,883.886 1648.04,885.667 1649.21,887.448 1650.38,889.23 1650.97,890.12 1651.55,890.453 1652.14,889.563 1652.72,888.672 1655.06,885.109 1657.4,881.545 1658.57,879.763 1659.74,878.499 1660.91,880.284 1662.08,882.07 1664.42,885.64 1666.76,889.212 1667.35,890.104 1667.93,890.519 1668.52,889.626 1669.1,888.734 1670.27,886.949 1671.44,885.164 1672.61,883.378 1673.78,881.593 1674.95,879.807 1676.12,878.46 1677.29,880.239 1678.46,882.019 1679.63,883.799 1680.8,885.579 1681.7,886.939 1682.59,888.298 1683.48,889.658 1684.38,890.423 1686.17,887.703 1687.95,884.983 1689.74,882.262 1691.53,879.541 1692.42,878.288 1693.31,879.653 1694.21,881.018 1695.1,882.383 1696.89,885.113 1698.68,887.844 1699.57,889.209 1700.46,890.575 1701.36,889.591 1702.25,888.227 1704.04,885.498 1705.83,882.768 1706.72,881.403 1707.61,880.038 1708.51,878.673 1709.4,879.163 1711.19,881.879 1712.98,884.595 1714.76,887.311 1716.55,890.027 1717.44,890.02 1718.34,888.661 1719.23,887.302 1720.13,885.944 1721.91,883.225 1723.7,880.507 1724.59,879.148 1725.49,878.67 1726.38,880.037 1727.28,881.404 1729.06,884.139 1730.85,886.874 1731.74,888.242 1732.64,889.609 1733.53,890.583 1734.43,889.217 1735.32,887.85 1736.21,886.484 1737.11,885.117 1738,883.751 1739.13,882.026 1740.26,880.301 1740.82,879.438 1741.38,878.576 1741.95,878.753 1742.51,879.608 1744.77,883.028 1747.02,886.448 1748.15,888.158 1749.28,889.868 1750.41,889.769 1751.53,888.057 1753.79,884.633 1756.04,881.209 1757.17,879.496 1758.3,878.661 1759.43,880.391 1760.56,882.121 1762.81,885.582 1765.07,889.043 1765.63,889.909 1766.19,890.774 1766.76,889.977 1767.32,889.113 1768.45,887.385 1769.58,885.656 1771.83,882.199 1774.09,878.741 1774.65,878.587 1775.22,879.439 1775.78,880.291 1776.34,881.142 1777.47,882.846 1778.6,884.55 1779.73,886.254 1780.86,887.958 1781.42,888.81 1781.98,889.662 1782.55,890.514 1783.11,889.889 1785.37,886.475 1787.62,883.06 1788.75,881.353 1789.88,879.646 1790.44,878.792 1791.01,878.487 1791.57,879.356 1792.13,880.224 1794.39,883.701 1796.64,887.178 1797.77,888.917 1798.9,890.656 1800.03,889.321 1801.16,887.586 1803.41,884.117 1805.67,880.646 1806.79,878.91 1807.92,879.271 1808.49,880.117 1809.05,880.964 1809.61,881.811 1810.18,882.658 1812.26,885.79 1814.35,888.922 1814.87,889.705 1815.39,890.488 1815.91,889.858 1816.44,889.1 1817.48,887.584 1818.52,886.068 1820.61,883.035 1822.69,880.001 1823.22,879.243 1823.74,878.763 1824.26,879.49 1824.78,880.217 1825.82,881.67 1826.87,883.123 1828.95,886.029 1831.04,888.934 1832.08,889.736 1833.13,888.35 1834.17,886.964 1835.21,885.577 1837.3,882.804 1839.38,880.029 1840.43,879.628 1841.47,880.945 1842.51,882.261 1843.56,883.577 1845.64,886.209 1847.73,888.84 1848.77,888.875 1849.81,887.631 1850.86,886.387 1851.9,885.142 1853.99,882.652 1856.07,880.161 1857.12,880.453 1858.16,881.625 1859.2,882.796 1860.25,883.968 1862.33,886.312 1864.42,888.655 1866.5,886.978 1868.59,884.781 1870.68,882.583 1872.76,880.384 1874.85,882.235 1876.93,884.284 1878.01,885.341 1879.09,886.397 1880.16,887.454 1881.24,888.18 1883.39,886.22 1885.54,884.259 1887.69,882.298 1889.84,881.346 1892,883.153 1894.15,884.959 1895.22,885.862 1896.3,886.765 1897.37,887.668 1898.45,886.997 1900.6,885.345 1902.75,883.692 1904.9,882.038 1907.06,882.409 1909.21,883.907 1911.36,885.404 1912.43,886.152 1913.51,886.9 1914.59,886.713 1915.66,886.042 1917.81,884.699 1919.96,883.356 1924.27,881.009 1928.57,878.956 1937.18,877.717 1945.78,876.631 1954.51,874.881 1963.23,872.476 1971.95,869.418 1980.68,865.707 1989.4,861.341 1998.12,856.321 2006.85,850.648 2015.57,844.321 2024.68,837.016 2033.79,828.999 2042.89,820.269 2052,810.825 2061.11,800.669 2070.22,789.8 2079.33,778.218 2088.44,765.923 2095.61,755.736 2102.79,745.106 2109.96,734.034 2117.14,722.52 2124.31,710.563 2131.49,698.164 2138.66,685.322 2145.84,672.038 2154.01,656.374 2162.18,640.135 2170.35,623.324 2178.52,605.938 2186.69,587.979 2194.86,569.447 2203.03,550.341 2211.2,530.661 2219.37,510.408 2227.54,489.581 2235.71,468.181 2243.88,446.207 2252.05,423.659 2260.22,400.538 2268.39,376.843 2276.56,352.575 2278.4,347.051 2280.23,341.497 2281.15,338.71 2282.06,335.915 2282.98,333.113 2283.9,332.986 2285.73,333.018 2287.56,333.05 2289.4,333.083 2291.23,333.115 "/>
<polyline clip-path="url(#clip451)" style="stroke:#3da44d; stroke-linecap:round; stroke-linejoin:round; stroke-width:4; stroke-opacity:1; fill:none" points="240.392,1445.72 250.978,1422.31 261.564,1398.91 323.566,1261.85 385.568,1124.79 414.411,1061.02 443.255,997.261 452.92,975.895 462.585,954.529 472.25,933.163 481.915,911.797 486.748,901.194 491.581,892.036 493.997,887.456 496.413,885.364 498.83,884.284 501.246,883.204 506.078,884.047 510.911,886.451 515.744,883.984 520.576,882.782 536.549,882.162 552.522,881.458 568.495,880.729 584.468,880.743 599.321,881.816 614.174,884.324 621.601,884.153 629.027,885.262 630.884,883.264 632.741,881.267 634.597,880.274 636.454,882.474 638.311,884.674 640.167,886.873 642.024,889.073 643.881,887.738 646.211,885.094 648.542,882.45 650.873,880.489 653.203,882.92 655.534,885.352 657.865,887.783 660.196,887.168 662.526,884.643 664.857,882.117 667.188,880.088 669.519,882.784 671.849,885.48 674.18,888.176 676.511,887.813 678.842,885.193 681.172,882.572 682.338,881.262 683.503,880.236 684.668,881.479 685.834,882.721 688.164,885.207 690.495,887.692 692.826,887.481 695.157,884.938 697.487,882.395 699.818,879.937 702.149,882.586 704.48,885.236 706.81,887.885 709.141,887.925 711.472,885.322 713.802,882.719 714.968,881.417 716.133,880.115 717.299,881.259 718.464,882.519 735.189,882.852 751.915,883.211 768.64,883.569 785.366,883.913 804.51,886.966 823.655,888.12 842.799,885.14 861.944,882.095 865.521,881.849 869.099,885.806 870.888,887.784 872.677,888.377 874.465,886.402 876.254,884.427 878.043,882.453 879.832,880.478 881.621,881.518 883.41,883.488 886.987,887.428 890.565,886.723 892.354,884.751 894.142,882.78 895.931,880.808 897.72,881.175 901.298,885.126 904.875,889.051 908.453,885.104 912.031,881.157 913.819,880.843 915.608,882.813 917.397,884.784 919.186,886.754 921.474,888.826 923.762,886.305 926.05,883.783 928.338,881.262 930.625,881.281 932.913,883.805 935.201,886.33 937.489,888.854 939.777,886.745 942.065,884.223 944.353,881.7 946.641,880.854 948.929,883.374 951.217,885.895 953.505,888.415 955.793,887.17 974.096,885.086 992.4,882.994 1025.81,882.338 1059.22,881.683 1097.25,884.109 1135.27,888.269 1165.42,886.91 1195.56,883.976 1270.46,883.948 1327.82,885.091 1408.7,883.822 1469.13,882.004 1537.86,881.542 1605.92,884.216 1680.8,883.812 1738,885.153 1756.04,886.852 1774.09,888.808 1792.13,887.488 1810.18,886.026 1843.56,885.427 1876.93,884.866 1894.15,884.325 1911.36,883.947 1915.66,883.451 1919.96,885.577 1924.27,884.01 1928.57,878.874 1932.87,871.103 1937.18,861.591 1941.48,852.078 1945.78,842.566 1963.23,803.998 1980.68,765.431 1998.12,726.864 2015.57,688.296 2088.44,527.209 2145.84,400.314 2276.56,111.332 2291.23,87.9763 "/>
<path clip-path="url(#clip450)" d="M251.33 302.578 L768.046 302.578 L768.046 95.2176 L251.33 95.2176  Z" fill="#ffffff" fill-rule="evenodd" fill-opacity="1"/>
<polyline clip-path="url(#clip450)" style="stroke:#000000; stroke-linecap:round; stroke-linejoin:round; stroke-width:4; stroke-opacity:1; fill:none" points="251.33,302.578 768.046,302.578 768.046,95.2176 251.33,95.2176 251.33,302.578 "/>
<polyline clip-path="url(#clip450)" style="stroke:#009af9; stroke-linecap:round; stroke-linejoin:round; stroke-width:4; stroke-opacity:1; fill:none" points="275.484,147.058 420.41,147.058 "/>
<path clip-path="url(#clip450)" d="M444.564 129.778 L449.24 129.778 L449.24 143.944 L466.231 143.944 L466.231 129.778 L470.907 129.778 L470.907 164.338 L466.231 164.338 L466.231 147.879 L449.24 147.879 L449.24 164.338 L444.564 164.338 L444.564 129.778 Z" fill="#000000" fill-rule="nonzero" fill-opacity="1" /><path clip-path="url(#clip450)" d="M488.754 148.666 Q487.596 146.676 485.258 146.676 Q482.92 146.676 481.763 148.666 Q480.583 150.657 480.583 154.639 Q480.583 158.643 481.763 160.634 Q482.92 162.625 485.258 162.625 Q487.596 162.625 488.754 160.634 Q489.934 158.643 489.934 154.639 Q489.934 150.657 488.754 148.666 M485.258 144.615 Q488.985 144.615 490.953 147.185 Q492.92 149.754 492.92 154.639 Q492.92 159.546 490.953 162.115 Q488.985 164.685 485.258 164.685 Q481.508 164.685 479.541 162.115 Q477.573 159.546 477.573 154.639 Q477.573 149.754 479.541 147.185 Q481.508 144.615 485.258 144.615 Z" fill="#000000" fill-rule="nonzero" fill-opacity="1" /><path clip-path="url(#clip450)" d="M509.263 128.366 Q506.161 133.69 504.656 138.898 Q503.152 144.106 503.152 149.453 Q503.152 154.801 504.656 160.055 Q506.184 165.287 509.263 170.588 L505.559 170.588 Q502.087 165.148 500.351 159.893 Q498.638 154.639 498.638 149.453 Q498.638 144.291 500.351 139.06 Q502.064 133.828 505.559 128.366 L509.263 128.366 Z" fill="#000000" fill-rule="nonzero" fill-opacity="1" /><path clip-path="url(#clip450)" d="M539.078 138.412 L529.703 151.027 L539.564 164.338 L534.541 164.338 L526.994 154.152 L519.448 164.338 L514.425 164.338 L524.494 150.773 L515.281 138.412 L520.305 138.412 L527.18 147.648 L534.054 138.412 L539.078 138.412 Z" fill="#000000" fill-rule="nonzero" fill-opacity="1" /><path clip-path="url(#clip450)" d="M555.814 128.366 Q552.712 133.69 551.207 138.898 Q549.703 144.106 549.703 149.453 Q549.703 154.801 551.207 160.055 Q552.735 165.287 555.814 170.588 L552.11 170.588 Q548.638 165.148 546.902 159.893 Q545.189 154.639 545.189 149.453 Q545.189 144.291 546.902 139.06 Q548.615 133.828 552.11 128.366 L555.814 128.366 Z" fill="#000000" fill-rule="nonzero" fill-opacity="1" /><path clip-path="url(#clip450)" d="M568.29 131.051 L568.29 138.412 L577.064 138.412 L577.064 141.722 L568.29 141.722 L568.29 155.796 Q568.29 158.967 569.147 159.87 Q570.027 160.773 572.689 160.773 L577.064 160.773 L577.064 164.338 L572.689 164.338 Q567.758 164.338 565.883 162.509 Q564.008 160.657 564.008 155.796 L564.008 141.722 L560.883 141.722 L560.883 138.412 L564.008 138.412 L564.008 131.051 L568.29 131.051 Z" fill="#000000" fill-rule="nonzero" fill-opacity="1" /><path clip-path="url(#clip450)" d="M581.994 128.366 L585.698 128.366 Q589.17 133.828 590.883 139.06 Q592.619 144.291 592.619 149.453 Q592.619 154.639 590.883 159.893 Q589.17 165.148 585.698 170.588 L581.994 170.588 Q585.073 165.287 586.577 160.055 Q588.105 154.801 588.105 149.453 Q588.105 144.106 586.577 138.898 Q585.073 133.69 581.994 128.366 Z" fill="#000000" fill-rule="nonzero" fill-opacity="1" /><path clip-path="url(#clip450)" d="M602.249 158.458 L607.133 158.458 L607.133 162.439 L603.337 169.847 L600.35 169.847 L602.249 162.439 L602.249 158.458 Z" fill="#000000" fill-rule="nonzero" fill-opacity="1" /><path clip-path="url(#clip450)" d="M641.508 132.37 L653.475 164.338 L648.961 164.338 L641.693 145.171 L632.758 164.338 L628.244 164.338 L639.609 139.477 L637.897 134.893 Q636.809 131.977 634.332 131.977 L632.11 131.977 L632.11 128.319 L634.818 128.366 Q640.049 128.435 641.508 132.37 Z" fill="#000000" fill-rule="nonzero" fill-opacity="1" /><path clip-path="url(#clip450)" d="M669.586 128.366 Q666.484 133.69 664.98 138.898 Q663.475 144.106 663.475 149.453 Q663.475 154.801 664.98 160.055 Q666.507 165.287 669.586 170.588 L665.882 170.588 Q662.41 165.148 660.674 159.893 Q658.961 154.639 658.961 149.453 Q658.961 144.291 660.674 139.06 Q662.387 133.828 665.882 128.366 L669.586 128.366 Z" fill="#000000" fill-rule="nonzero" fill-opacity="1" /><path clip-path="url(#clip450)" d="M682.063 131.051 L682.063 138.412 L690.836 138.412 L690.836 141.722 L682.063 141.722 L682.063 155.796 Q682.063 158.967 682.919 159.87 Q683.799 160.773 686.461 160.773 L690.836 160.773 L690.836 164.338 L686.461 164.338 Q681.531 164.338 679.656 162.509 Q677.781 160.657 677.781 155.796 L677.781 141.722 L674.656 141.722 L674.656 138.412 L677.781 138.412 L677.781 131.051 L682.063 131.051 Z" fill="#000000" fill-rule="nonzero" fill-opacity="1" /><path clip-path="url(#clip450)" d="M695.767 128.366 L699.47 128.366 Q702.942 133.828 704.655 139.06 Q706.392 144.291 706.392 149.453 Q706.392 154.639 704.655 159.893 Q702.942 165.148 699.47 170.588 L695.767 170.588 Q698.845 165.287 700.35 160.055 Q701.878 154.801 701.878 149.453 Q701.878 144.106 700.35 138.898 Q698.845 133.69 695.767 128.366 Z" fill="#000000" fill-rule="nonzero" fill-opacity="1" /><path clip-path="url(#clip450)" d="M714.262 128.366 L717.966 128.366 Q721.438 133.828 723.151 139.06 Q724.887 144.291 724.887 149.453 Q724.887 154.639 723.151 159.893 Q721.438 165.148 717.966 170.588 L714.262 170.588 Q717.341 165.287 718.845 160.055 Q720.373 154.801 720.373 149.453 Q720.373 144.106 718.845 138.898 Q717.341 133.69 714.262 128.366 Z" fill="#000000" fill-rule="nonzero" fill-opacity="1" /><polyline clip-path="url(#clip450)" style="stroke:#e26f46; stroke-linecap:round; stroke-linejoin:round; stroke-width:4; stroke-opacity:1; fill:none" points="275.484,198.898 420.41,198.898 "/>
<path clip-path="url(#clip450)" d="M444.564 181.618 L449.24 181.618 L449.24 195.784 L466.231 195.784 L466.231 181.618 L470.907 181.618 L470.907 216.178 L466.231 216.178 L466.231 199.719 L449.24 199.719 L449.24 216.178 L444.564 216.178 L444.564 181.618 Z" fill="#000000" fill-rule="nonzero" fill-opacity="1" /><path clip-path="url(#clip450)" d="M479.171 213.631 L483.893 213.631 L483.893 199.488 L478.731 200.437 L478.731 197.752 L484.055 196.849 L487.226 196.849 L487.226 213.631 L491.971 213.631 L491.971 216.178 L479.171 216.178 L479.171 213.631 Z" fill="#000000" fill-rule="nonzero" fill-opacity="1" /><path clip-path="url(#clip450)" d="M509.263 180.206 Q506.161 185.53 504.656 190.738 Q503.152 195.946 503.152 201.293 Q503.152 206.641 504.656 211.895 Q506.184 217.127 509.263 222.428 L505.559 222.428 Q502.087 216.988 500.351 211.733 Q498.638 206.479 498.638 201.293 Q498.638 196.131 500.351 190.9 Q502.064 185.668 505.559 180.206 L509.263 180.206 Z" fill="#000000" fill-rule="nonzero" fill-opacity="1" /><path clip-path="url(#clip450)" d="M539.078 190.252 L529.703 202.867 L539.564 216.178 L534.541 216.178 L526.994 205.992 L519.448 216.178 L514.425 216.178 L524.494 202.613 L515.281 190.252 L520.305 190.252 L527.18 199.488 L534.054 190.252 L539.078 190.252 Z" fill="#000000" fill-rule="nonzero" fill-opacity="1" /><path clip-path="url(#clip450)" d="M555.814 180.206 Q552.712 185.53 551.207 190.738 Q549.703 195.946 549.703 201.293 Q549.703 206.641 551.207 211.895 Q552.735 217.127 555.814 222.428 L552.11 222.428 Q548.638 216.988 546.902 211.733 Q545.189 206.479 545.189 201.293 Q545.189 196.131 546.902 190.9 Q548.615 185.668 552.11 180.206 L555.814 180.206 Z" fill="#000000" fill-rule="nonzero" fill-opacity="1" /><path clip-path="url(#clip450)" d="M568.29 182.891 L568.29 190.252 L577.064 190.252 L577.064 193.562 L568.29 193.562 L568.29 207.636 Q568.29 210.807 569.147 211.71 Q570.027 212.613 572.689 212.613 L577.064 212.613 L577.064 216.178 L572.689 216.178 Q567.758 216.178 565.883 214.349 Q564.008 212.497 564.008 207.636 L564.008 193.562 L560.883 193.562 L560.883 190.252 L564.008 190.252 L564.008 182.891 L568.29 182.891 Z" fill="#000000" fill-rule="nonzero" fill-opacity="1" /><path clip-path="url(#clip450)" d="M581.994 180.206 L585.698 180.206 Q589.17 185.668 590.883 190.9 Q592.619 196.131 592.619 201.293 Q592.619 206.479 590.883 211.733 Q589.17 216.988 585.698 222.428 L581.994 222.428 Q585.073 217.127 586.577 211.895 Q588.105 206.641 588.105 201.293 Q588.105 195.946 586.577 190.738 Q585.073 185.53 581.994 180.206 Z" fill="#000000" fill-rule="nonzero" fill-opacity="1" /><path clip-path="url(#clip450)" d="M602.249 210.298 L607.133 210.298 L607.133 214.279 L603.337 221.687 L600.35 221.687 L602.249 214.279 L602.249 210.298 Z" fill="#000000" fill-rule="nonzero" fill-opacity="1" /><path clip-path="url(#clip450)" d="M641.508 184.21 L653.475 216.178 L648.961 216.178 L641.693 197.011 L632.758 216.178 L628.244 216.178 L639.609 191.317 L637.897 186.733 Q636.809 183.817 634.332 183.817 L632.11 183.817 L632.11 180.159 L634.818 180.206 Q640.049 180.275 641.508 184.21 Z" fill="#000000" fill-rule="nonzero" fill-opacity="1" /><path clip-path="url(#clip450)" d="M669.586 180.206 Q666.484 185.53 664.98 190.738 Q663.475 195.946 663.475 201.293 Q663.475 206.641 664.98 211.895 Q666.507 217.127 669.586 222.428 L665.882 222.428 Q662.41 216.988 660.674 211.733 Q658.961 206.479 658.961 201.293 Q658.961 196.131 660.674 190.9 Q662.387 185.668 665.882 180.206 L669.586 180.206 Z" fill="#000000" fill-rule="nonzero" fill-opacity="1" /><path clip-path="url(#clip450)" d="M682.063 182.891 L682.063 190.252 L690.836 190.252 L690.836 193.562 L682.063 193.562 L682.063 207.636 Q682.063 210.807 682.919 211.71 Q683.799 212.613 686.461 212.613 L690.836 212.613 L690.836 216.178 L686.461 216.178 Q681.531 216.178 679.656 214.349 Q677.781 212.497 677.781 207.636 L677.781 193.562 L674.656 193.562 L674.656 190.252 L677.781 190.252 L677.781 182.891 L682.063 182.891 Z" fill="#000000" fill-rule="nonzero" fill-opacity="1" /><path clip-path="url(#clip450)" d="M695.767 180.206 L699.47 180.206 Q702.942 185.668 704.655 190.9 Q706.392 196.131 706.392 201.293 Q706.392 206.479 704.655 211.733 Q702.942 216.988 699.47 222.428 L695.767 222.428 Q698.845 217.127 700.35 211.895 Q701.878 206.641 701.878 201.293 Q701.878 195.946 700.35 190.738 Q698.845 185.53 695.767 180.206 Z" fill="#000000" fill-rule="nonzero" fill-opacity="1" /><path clip-path="url(#clip450)" d="M714.262 180.206 L717.966 180.206 Q721.438 185.668 723.151 190.9 Q724.887 196.131 724.887 201.293 Q724.887 206.479 723.151 211.733 Q721.438 216.988 717.966 222.428 L714.262 222.428 Q717.341 217.127 718.845 211.895 Q720.373 206.641 720.373 201.293 Q720.373 195.946 718.845 190.738 Q717.341 185.53 714.262 180.206 Z" fill="#000000" fill-rule="nonzero" fill-opacity="1" /><polyline clip-path="url(#clip450)" style="stroke:#3da44d; stroke-linecap:round; stroke-linejoin:round; stroke-width:4; stroke-opacity:1; fill:none" points="275.484,250.738 420.41,250.738 "/>
<path clip-path="url(#clip450)" d="M444.564 233.458 L449.24 233.458 L449.24 247.624 L466.231 247.624 L466.231 233.458 L470.907 233.458 L470.907 268.018 L466.231 268.018 L466.231 251.559 L449.24 251.559 L449.24 268.018 L444.564 268.018 L444.564 233.458 Z" fill="#000000" fill-rule="nonzero" fill-opacity="1" /><path clip-path="url(#clip450)" d="M488.754 252.346 Q487.596 250.356 485.258 250.356 Q482.92 250.356 481.763 252.346 Q480.583 254.337 480.583 258.319 Q480.583 262.323 481.763 264.314 Q482.92 266.305 485.258 266.305 Q487.596 266.305 488.754 264.314 Q489.934 262.323 489.934 258.319 Q489.934 254.337 488.754 252.346 M485.258 248.295 Q488.985 248.295 490.953 250.865 Q492.92 253.434 492.92 258.319 Q492.92 263.226 490.953 265.795 Q488.985 268.365 485.258 268.365 Q481.508 268.365 479.541 265.795 Q477.573 263.226 477.573 258.319 Q477.573 253.434 479.541 250.865 Q481.508 248.295 485.258 248.295 Z" fill="#000000" fill-rule="nonzero" fill-opacity="1" /><path clip-path="url(#clip450)" d="M498.175 265.471 L502.897 265.471 L502.897 251.328 L497.735 252.277 L497.735 249.592 L503.059 248.689 L506.231 248.689 L506.231 265.471 L510.976 265.471 L510.976 268.018 L498.175 268.018 L498.175 265.471 Z" fill="#000000" fill-rule="nonzero" fill-opacity="1" /><path clip-path="url(#clip450)" d="M528.267 232.046 Q525.166 237.37 523.661 242.578 Q522.156 247.786 522.156 253.133 Q522.156 258.481 523.661 263.735 Q525.189 268.967 528.267 274.268 L524.564 274.268 Q521.092 268.828 519.355 263.573 Q517.643 258.319 517.643 253.133 Q517.643 247.971 519.355 242.74 Q521.068 237.508 524.564 232.046 L528.267 232.046 Z" fill="#000000" fill-rule="nonzero" fill-opacity="1" /><path clip-path="url(#clip450)" d="M558.082 242.092 L548.707 254.707 L558.568 268.018 L553.545 268.018 L545.999 257.832 L538.453 268.018 L533.429 268.018 L543.499 254.453 L534.286 242.092 L539.309 242.092 L546.184 251.328 L553.059 242.092 L558.082 242.092 Z" fill="#000000" fill-rule="nonzero" fill-opacity="1" /><path clip-path="url(#clip450)" d="M574.818 232.046 Q571.716 237.37 570.212 242.578 Q568.707 247.786 568.707 253.133 Q568.707 258.481 570.212 263.735 Q571.739 268.967 574.818 274.268 L571.114 274.268 Q567.642 268.828 565.906 263.573 Q564.193 258.319 564.193 253.133 Q564.193 247.971 565.906 242.74 Q567.619 237.508 571.114 232.046 L574.818 232.046 Z" fill="#000000" fill-rule="nonzero" fill-opacity="1" /><path clip-path="url(#clip450)" d="M587.295 234.731 L587.295 242.092 L596.068 242.092 L596.068 245.402 L587.295 245.402 L587.295 259.476 Q587.295 262.647 588.151 263.55 Q589.031 264.453 591.693 264.453 L596.068 264.453 L596.068 268.018 L591.693 268.018 Q586.763 268.018 584.888 266.189 Q583.013 264.337 583.013 259.476 L583.013 245.402 L579.888 245.402 L579.888 242.092 L583.013 242.092 L583.013 234.731 L587.295 234.731 Z" fill="#000000" fill-rule="nonzero" fill-opacity="1" /><path clip-path="url(#clip450)" d="M600.999 232.046 L604.702 232.046 Q608.174 237.508 609.887 242.74 Q611.624 247.971 611.624 253.133 Q611.624 258.319 609.887 263.573 Q608.174 268.828 604.702 274.268 L600.999 274.268 Q604.077 268.967 605.582 263.735 Q607.11 258.481 607.11 253.133 Q607.11 247.786 605.582 242.578 Q604.077 237.37 600.999 232.046 Z" fill="#000000" fill-rule="nonzero" fill-opacity="1" /><path clip-path="url(#clip450)" d="M621.253 262.138 L626.137 262.138 L626.137 266.119 L622.341 273.527 L619.355 273.527 L621.253 266.119 L621.253 262.138 Z" fill="#000000" fill-rule="nonzero" fill-opacity="1" /><path clip-path="url(#clip450)" d="M660.512 236.05 L672.48 268.018 L667.966 268.018 L660.697 248.851 L651.762 268.018 L647.248 268.018 L658.614 243.157 L656.901 238.573 Q655.813 235.657 653.336 235.657 L651.114 235.657 L651.114 231.999 L653.822 232.046 Q659.054 232.115 660.512 236.05 Z" fill="#000000" fill-rule="nonzero" fill-opacity="1" /><path clip-path="url(#clip450)" d="M688.591 232.046 Q685.489 237.37 683.984 242.578 Q682.48 247.786 682.48 253.133 Q682.48 258.481 683.984 263.735 Q685.512 268.967 688.591 274.268 L684.887 274.268 Q681.415 268.828 679.679 263.573 Q677.966 258.319 677.966 253.133 Q677.966 247.971 679.679 242.74 Q681.392 237.508 684.887 232.046 L688.591 232.046 Z" fill="#000000" fill-rule="nonzero" fill-opacity="1" /><path clip-path="url(#clip450)" d="M701.067 234.731 L701.067 242.092 L709.841 242.092 L709.841 245.402 L701.067 245.402 L701.067 259.476 Q701.067 262.647 701.924 263.55 Q702.804 264.453 705.466 264.453 L709.841 264.453 L709.841 268.018 L705.466 268.018 Q700.535 268.018 698.66 266.189 Q696.785 264.337 696.785 259.476 L696.785 245.402 L693.66 245.402 L693.66 242.092 L696.785 242.092 L696.785 234.731 L701.067 234.731 Z" fill="#000000" fill-rule="nonzero" fill-opacity="1" /><path clip-path="url(#clip450)" d="M714.771 232.046 L718.475 232.046 Q721.947 237.508 723.66 242.74 Q725.396 247.971 725.396 253.133 Q725.396 258.319 723.66 263.573 Q721.947 268.828 718.475 274.268 L714.771 274.268 Q717.85 268.967 719.354 263.735 Q720.882 258.481 720.882 253.133 Q720.882 247.786 719.354 242.578 Q717.85 237.37 714.771 232.046 Z" fill="#000000" fill-rule="nonzero" fill-opacity="1" /><path clip-path="url(#clip450)" d="M733.266 232.046 L736.97 232.046 Q740.442 237.508 742.155 242.74 Q743.891 247.971 743.891 253.133 Q743.891 258.319 742.155 263.573 Q740.442 268.828 736.97 274.268 L733.266 274.268 Q736.345 268.967 737.85 263.735 Q739.377 258.481 739.377 253.133 Q739.377 247.786 737.85 242.578 Q736.345 237.37 733.266 232.046 Z" fill="#000000" fill-rule="nonzero" fill-opacity="1" /></svg>
