<?xml version="1.0" encoding="utf-8"?>
<svg xmlns="http://www.w3.org/2000/svg" xmlns:xlink="http://www.w3.org/1999/xlink" width="600" height="400" viewBox="0 0 2400 1600">
<defs>
  <clipPath id="clip890">
    <rect x="0" y="0" width="2400" height="1600"/>
  </clipPath>
</defs>
<path clip-path="url(#clip890)" d="M0 1600 L2400 1600 L2400 0 L0 0  Z" fill="#ffffff" fill-rule="evenodd" fill-opacity="1"/>
<defs>
  <clipPath id="clip891">
    <rect x="480" y="0" width="1681" height="1600"/>
  </clipPath>
</defs>
<path clip-path="url(#clip890)" d="M178.867 1486.45 L2352.76 1486.45 L2352.76 47.2441 L178.867 47.2441  Z" fill="#ffffff" fill-rule="evenodd" fill-opacity="1"/>
<defs>
  <clipPath id="clip892">
    <rect x="178" y="47" width="2175" height="1440"/>
  </clipPath>
</defs>
<polyline clip-path="url(#clip892)" style="stroke:#000000; stroke-linecap:round; stroke-linejoin:round; stroke-width:2; stroke-opacity:0.1; fill:none" points="240.392,1486.45 240.392,47.2441 "/>
<polyline clip-path="url(#clip892)" style="stroke:#000000; stroke-linecap:round; stroke-linejoin:round; stroke-width:2; stroke-opacity:0.1; fill:none" points="754.936,1486.45 754.936,47.2441 "/>
<polyline clip-path="url(#clip892)" style="stroke:#000000; stroke-linecap:round; stroke-linejoin:round; stroke-width:2; stroke-opacity:0.1; fill:none" points="1269.48,1486.45 1269.48,47.2441 "/>
<polyline clip-path="url(#clip892)" style="stroke:#000000; stroke-linecap:round; stroke-linejoin:round; stroke-width:2; stroke-opacity:0.1; fill:none" points="1784.03,1486.45 1784.03,47.2441 "/>
<polyline clip-path="url(#clip892)" style="stroke:#000000; stroke-linecap:round; stroke-linejoin:round; stroke-width:2; stroke-opacity:0.1; fill:none" points="2298.57,1486.45 2298.57,47.2441 "/>
<polyline clip-path="url(#clip892)" style="stroke:#000000; stroke-linecap:round; stroke-linejoin:round; stroke-width:2; stroke-opacity:0.1; fill:none" points="178.867,1231 2352.76,1231 "/>
<polyline clip-path="url(#clip892)" style="stroke:#000000; stroke-linecap:round; stroke-linejoin:round; stroke-width:2; stroke-opacity:0.1; fill:none" points="178.867,881.07 2352.76,881.07 "/>
<polyline clip-path="url(#clip892)" style="stroke:#000000; stroke-linecap:round; stroke-linejoin:round; stroke-width:2; stroke-opacity:0.1; fill:none" points="178.867,531.145 2352.76,531.145 "/>
<polyline clip-path="url(#clip892)" style="stroke:#000000; stroke-linecap:round; stroke-linejoin:round; stroke-width:2; stroke-opacity:0.1; fill:none" points="178.867,181.22 2352.76,181.22 "/>
<polyline clip-path="url(#clip890)" style="stroke:#000000; stroke-linecap:round; stroke-linejoin:round; stroke-width:4; stroke-opacity:1; fill:none" points="178.867,1486.45 2352.76,1486.45 "/>
<polyline clip-path="url(#clip890)" style="stroke:#000000; stroke-linecap:round; stroke-linejoin:round; stroke-width:4; stroke-opacity:1; fill:none" points="240.392,1486.45 240.392,1467.55 "/>
<polyline clip-path="url(#clip890)" style="stroke:#000000; stroke-linecap:round; stroke-linejoin:round; stroke-width:4; stroke-opacity:1; fill:none" points="754.936,1486.45 754.936,1467.55 "/>
<polyline clip-path="url(#clip890)" style="stroke:#000000; stroke-linecap:round; stroke-linejoin:round; stroke-width:4; stroke-opacity:1; fill:none" points="1269.48,1486.45 1269.48,1467.55 "/>
<polyline clip-path="url(#clip890)" style="stroke:#000000; stroke-linecap:round; stroke-linejoin:round; stroke-width:4; stroke-opacity:1; fill:none" points="1784.03,1486.45 1784.03,1467.55 "/>
<polyline clip-path="url(#clip890)" style="stroke:#000000; stroke-linecap:round; stroke-linejoin:round; stroke-width:4; stroke-opacity:1; fill:none" points="2298.57,1486.45 2298.57,1467.55 "/>
<path clip-path="url(#clip890)" d="M240.392 1517.37 Q236.781 1517.37 234.952 1520.93 Q233.146 1524.47 233.146 1531.6 Q233.146 1538.71 234.952 1542.27 Q236.781 1545.82 240.392 1545.82 Q244.026 1545.82 245.832 1542.27 Q247.66 1538.71 247.66 1531.6 Q247.66 1524.47 245.832 1520.93 Q244.026 1517.37 240.392 1517.37 M240.392 1513.66 Q246.202 1513.66 249.257 1518.27 Q252.336 1522.85 252.336 1531.6 Q252.336 1540.33 249.257 1544.94 Q246.202 1549.52 240.392 1549.52 Q234.582 1549.52 231.503 1544.94 Q228.447 1540.33 228.447 1531.6 Q228.447 1522.85 231.503 1518.27 Q234.582 1513.66 240.392 1513.66 Z" fill="#000000" fill-rule="nonzero" fill-opacity="1" /><path clip-path="url(#clip890)" d="M749.589 1544.91 L765.908 1544.91 L765.908 1548.85 L743.964 1548.85 L743.964 1544.91 Q746.626 1542.16 751.209 1537.53 Q755.816 1532.88 756.996 1531.53 Q759.242 1529.01 760.121 1527.27 Q761.024 1525.51 761.024 1523.82 Q761.024 1521.07 759.08 1519.33 Q757.159 1517.6 754.057 1517.6 Q751.858 1517.6 749.404 1518.36 Q746.973 1519.13 744.196 1520.68 L744.196 1515.95 Q747.02 1514.82 749.473 1514.24 Q751.927 1513.66 753.964 1513.66 Q759.334 1513.66 762.529 1516.35 Q765.723 1519.03 765.723 1523.52 Q765.723 1525.65 764.913 1527.57 Q764.126 1529.47 762.02 1532.07 Q761.441 1532.74 758.339 1535.95 Q755.237 1539.15 749.589 1544.91 Z" fill="#000000" fill-rule="nonzero" fill-opacity="1" /><path clip-path="url(#clip890)" d="M1272.49 1518.36 L1260.68 1536.81 L1272.49 1536.81 L1272.49 1518.36 M1271.26 1514.29 L1277.14 1514.29 L1277.14 1536.81 L1282.07 1536.81 L1282.07 1540.7 L1277.14 1540.7 L1277.14 1548.85 L1272.49 1548.85 L1272.49 1540.7 L1256.89 1540.7 L1256.89 1536.19 L1271.26 1514.29 Z" fill="#000000" fill-rule="nonzero" fill-opacity="1" /><path clip-path="url(#clip890)" d="M1784.43 1529.7 Q1781.28 1529.7 1779.43 1531.86 Q1777.6 1534.01 1777.6 1537.76 Q1777.6 1541.49 1779.43 1543.66 Q1781.28 1545.82 1784.43 1545.82 Q1787.58 1545.82 1789.41 1543.66 Q1791.26 1541.49 1791.26 1537.76 Q1791.26 1534.01 1789.41 1531.86 Q1787.58 1529.7 1784.43 1529.7 M1793.71 1515.05 L1793.71 1519.31 Q1791.95 1518.48 1790.15 1518.04 Q1788.37 1517.6 1786.61 1517.6 Q1781.98 1517.6 1779.52 1520.72 Q1777.09 1523.85 1776.75 1530.17 Q1778.11 1528.15 1780.17 1527.09 Q1782.23 1526 1784.71 1526 Q1789.92 1526 1792.93 1529.17 Q1795.96 1532.32 1795.96 1537.76 Q1795.96 1543.08 1792.81 1546.3 Q1789.66 1549.52 1784.43 1549.52 Q1778.44 1549.52 1775.26 1544.94 Q1772.09 1540.33 1772.09 1531.6 Q1772.09 1523.41 1775.98 1518.55 Q1779.87 1513.66 1786.42 1513.66 Q1788.18 1513.66 1789.96 1514.01 Q1791.77 1514.36 1793.71 1515.05 Z" fill="#000000" fill-rule="nonzero" fill-opacity="1" /><path clip-path="url(#clip890)" d="M2298.57 1532.44 Q2295.24 1532.44 2293.32 1534.22 Q2291.42 1536 2291.42 1539.13 Q2291.42 1542.25 2293.32 1544.03 Q2295.24 1545.82 2298.57 1545.82 Q2301.9 1545.82 2303.82 1544.03 Q2305.75 1542.23 2305.75 1539.13 Q2305.75 1536 2303.82 1534.22 Q2301.93 1532.44 2298.57 1532.44 M2293.89 1530.45 Q2290.88 1529.7 2289.19 1527.64 Q2287.53 1525.58 2287.53 1522.62 Q2287.53 1518.48 2290.47 1516.07 Q2293.43 1513.66 2298.57 1513.66 Q2303.73 1513.66 2306.67 1516.07 Q2309.61 1518.48 2309.61 1522.62 Q2309.61 1525.58 2307.92 1527.64 Q2306.25 1529.7 2303.27 1530.45 Q2306.65 1531.23 2308.52 1533.52 Q2310.42 1535.82 2310.42 1539.13 Q2310.42 1544.15 2307.34 1546.83 Q2304.29 1549.52 2298.57 1549.52 Q2292.85 1549.52 2289.77 1546.83 Q2286.72 1544.15 2286.72 1539.13 Q2286.72 1535.82 2288.62 1533.52 Q2290.51 1531.23 2293.89 1530.45 M2292.18 1523.06 Q2292.18 1525.75 2293.85 1527.25 Q2295.54 1528.76 2298.57 1528.76 Q2301.58 1528.76 2303.27 1527.25 Q2304.98 1525.75 2304.98 1523.06 Q2304.98 1520.38 2303.27 1518.87 Q2301.58 1517.37 2298.57 1517.37 Q2295.54 1517.37 2293.85 1518.87 Q2292.18 1520.38 2292.18 1523.06 Z" fill="#000000" fill-rule="nonzero" fill-opacity="1" /><polyline clip-path="url(#clip890)" style="stroke:#000000; stroke-linecap:round; stroke-linejoin:round; stroke-width:4; stroke-opacity:1; fill:none" points="178.867,1486.45 178.867,47.2441 "/>
<polyline clip-path="url(#clip890)" style="stroke:#000000; stroke-linecap:round; stroke-linejoin:round; stroke-width:4; stroke-opacity:1; fill:none" points="178.867,1231 197.764,1231 "/>
<polyline clip-path="url(#clip890)" style="stroke:#000000; stroke-linecap:round; stroke-linejoin:round; stroke-width:4; stroke-opacity:1; fill:none" points="178.867,881.07 197.764,881.07 "/>
<polyline clip-path="url(#clip890)" style="stroke:#000000; stroke-linecap:round; stroke-linejoin:round; stroke-width:4; stroke-opacity:1; fill:none" points="178.867,531.145 197.764,531.145 "/>
<polyline clip-path="url(#clip890)" style="stroke:#000000; stroke-linecap:round; stroke-linejoin:round; stroke-width:4; stroke-opacity:1; fill:none" points="178.867,181.22 197.764,181.22 "/>
<path clip-path="url(#clip890)" d="M50.9921 1231.45 L80.6679 1231.45 L80.6679 1235.38 L50.9921 1235.38 L50.9921 1231.45 Z" fill="#000000" fill-rule="nonzero" fill-opacity="1" /><path clip-path="url(#clip890)" d="M94.7882 1244.34 L111.108 1244.34 L111.108 1248.28 L89.1632 1248.28 L89.1632 1244.34 Q91.8252 1241.59 96.4085 1236.96 Q101.015 1232.3 102.196 1230.96 Q104.441 1228.44 105.321 1226.7 Q106.223 1224.94 106.223 1223.25 Q106.223 1220.5 104.279 1218.76 Q102.358 1217.03 99.2558 1217.03 Q97.0567 1217.03 94.603 1217.79 Q92.1725 1218.55 89.3947 1220.1 L89.3947 1215.38 Q92.2188 1214.25 94.6724 1213.67 Q97.1261 1213.09 99.1632 1213.09 Q104.534 1213.09 107.728 1215.78 Q110.922 1218.46 110.922 1222.95 Q110.922 1225.08 110.112 1227 Q109.325 1228.9 107.219 1231.49 Q106.64 1232.16 103.538 1235.38 Q100.436 1238.58 94.7882 1244.34 Z" fill="#000000" fill-rule="nonzero" fill-opacity="1" /><path clip-path="url(#clip890)" d="M130.922 1216.79 Q127.311 1216.79 125.482 1220.36 Q123.677 1223.9 123.677 1231.03 Q123.677 1238.14 125.482 1241.7 Q127.311 1245.24 130.922 1245.24 Q134.556 1245.24 136.362 1241.7 Q138.191 1238.14 138.191 1231.03 Q138.191 1223.9 136.362 1220.36 Q134.556 1216.79 130.922 1216.79 M130.922 1213.09 Q136.732 1213.09 139.788 1217.7 Q142.867 1222.28 142.867 1231.03 Q142.867 1239.76 139.788 1244.36 Q136.732 1248.95 130.922 1248.95 Q125.112 1248.95 122.033 1244.36 Q118.978 1239.76 118.978 1231.03 Q118.978 1222.28 122.033 1217.7 Q125.112 1213.09 130.922 1213.09 Z" fill="#000000" fill-rule="nonzero" fill-opacity="1" /><path clip-path="url(#clip890)" d="M130.922 866.869 Q127.311 866.869 125.482 870.434 Q123.677 873.975 123.677 881.105 Q123.677 888.211 125.482 891.776 Q127.311 895.318 130.922 895.318 Q134.556 895.318 136.362 891.776 Q138.191 888.211 138.191 881.105 Q138.191 873.975 136.362 870.434 Q134.556 866.869 130.922 866.869 M130.922 863.165 Q136.732 863.165 139.788 867.772 Q142.867 872.355 142.867 881.105 Q142.867 889.832 139.788 894.438 Q136.732 899.021 130.922 899.021 Q125.112 899.021 122.033 894.438 Q118.978 889.832 118.978 881.105 Q118.978 872.355 122.033 867.772 Q125.112 863.165 130.922 863.165 Z" fill="#000000" fill-rule="nonzero" fill-opacity="1" /><path clip-path="url(#clip890)" d="M94.7882 544.49 L111.108 544.49 L111.108 548.425 L89.1632 548.425 L89.1632 544.49 Q91.8252 541.735 96.4085 537.106 Q101.015 532.453 102.196 531.11 Q104.441 528.587 105.321 526.851 Q106.223 525.092 106.223 523.402 Q106.223 520.647 104.279 518.911 Q102.358 517.175 99.2558 517.175 Q97.0567 517.175 94.603 517.939 Q92.1725 518.703 89.3947 520.254 L89.3947 515.532 Q92.2188 514.397 94.6724 513.819 Q97.1261 513.24 99.1632 513.24 Q104.534 513.24 107.728 515.925 Q110.922 518.61 110.922 523.101 Q110.922 525.231 110.112 527.152 Q109.325 529.05 107.219 531.643 Q106.64 532.314 103.538 535.532 Q100.436 538.726 94.7882 544.49 Z" fill="#000000" fill-rule="nonzero" fill-opacity="1" /><path clip-path="url(#clip890)" d="M130.922 516.944 Q127.311 516.944 125.482 520.509 Q123.677 524.05 123.677 531.18 Q123.677 538.286 125.482 541.851 Q127.311 545.393 130.922 545.393 Q134.556 545.393 136.362 541.851 Q138.191 538.286 138.191 531.18 Q138.191 524.05 136.362 520.509 Q134.556 516.944 130.922 516.944 M130.922 513.24 Q136.732 513.24 139.788 517.847 Q142.867 522.43 142.867 531.18 Q142.867 539.907 139.788 544.513 Q136.732 549.096 130.922 549.096 Q125.112 549.096 122.033 544.513 Q118.978 539.907 118.978 531.18 Q118.978 522.43 122.033 517.847 Q125.112 513.24 130.922 513.24 Z" fill="#000000" fill-rule="nonzero" fill-opacity="1" /><path clip-path="url(#clip890)" d="M103.608 168.014 L91.8021 186.463 L103.608 186.463 L103.608 168.014 M102.381 163.94 L108.26 163.94 L108.26 186.463 L113.191 186.463 L113.191 190.352 L108.26 190.352 L108.26 198.5 L103.608 198.5 L103.608 190.352 L88.0058 190.352 L88.0058 185.838 L102.381 163.94 Z" fill="#000000" fill-rule="nonzero" fill-opacity="1" /><path clip-path="url(#clip890)" d="M130.922 167.019 Q127.311 167.019 125.482 170.583 Q123.677 174.125 123.677 181.255 Q123.677 188.361 125.482 191.926 Q127.311 195.468 130.922 195.468 Q134.556 195.468 136.362 191.926 Q138.191 188.361 138.191 181.255 Q138.191 174.125 136.362 170.583 Q134.556 167.019 130.922 167.019 M130.922 163.315 Q136.732 163.315 139.788 167.921 Q142.867 172.505 142.867 181.255 Q142.867 189.982 139.788 194.588 Q136.732 199.171 130.922 199.171 Q125.112 199.171 122.033 194.588 Q118.978 189.982 118.978 181.255 Q118.978 172.505 122.033 167.921 Q125.112 163.315 130.922 163.315 Z" fill="#000000" fill-rule="nonzero" fill-opacity="1" /><polyline clip-path="url(#clip892)" style="stroke:#009af9; stroke-linecap:round; stroke-linejoin:round; stroke-width:4; stroke-opacity:1; fill:none" points="240.392,1156.5 245.685,1145.25 250.978,1134.24 256.271,1123.47 261.564,1112.93 269.314,1097.93 277.065,1083.44 284.815,1069.46 292.565,1055.98 300.315,1043.01 308.066,1030.55 315.816,1018.6 323.566,1007.16 331.316,996.226 339.067,985.799 346.817,975.88 354.567,966.469 362.317,957.566 370.068,949.172 377.818,941.285 385.568,933.907 392.779,927.498 399.99,921.529 407.201,916 414.411,910.911 421.622,906.262 428.833,902.053 436.044,898.283 443.255,894.953 452.92,891.18 462.585,888.197 472.25,886.004 481.915,884.601 486.748,884.196 491.581,883.988 493.997,883.958 496.413,882.992 498.83,881.627 501.246,880.257 503.662,879.66 506.078,880.746 508.495,881.833 510.911,882.92 513.327,881.937 515.744,880.776 518.16,879.617 520.576,879.715 522.573,880.733 524.569,881.751 526.566,882.769 528.563,882.681 530.559,881.603 532.556,880.526 534.553,879.45 536.549,879.3 538.546,880.433 540.542,881.567 542.539,882.702 544.536,883.115 546.532,881.924 548.529,880.733 550.525,879.544 552.522,878.846 554.519,880.087 556.515,881.329 558.512,882.571 560.508,883.578 562.505,882.285 564.502,880.994 566.498,879.703 568.495,878.413 570.492,879.703 572.488,881.034 574.485,882.365 576.481,883.696 578.478,882.667 580.475,881.303 582.471,879.941 584.468,878.579 586.324,879.222 588.181,880.501 590.038,881.781 591.894,883.06 593.751,883.492 595.608,882.215 597.464,880.939 599.321,879.662 601.178,878.386 603.034,879.439 604.891,880.715 606.748,881.99 608.604,883.265 610.461,883.278 612.318,882.002 614.174,880.725 616.031,879.449 617.887,878.368 619.744,879.644 621.601,880.92 623.457,882.197 625.314,883.472 627.171,883.07 629.027,881.794 630.884,880.518 632.741,879.242 634.597,878.578 636.454,879.853 638.311,881.129 640.167,882.404 642.024,883.679 643.881,882.859 645.046,882.059 646.211,881.258 647.377,880.458 648.542,879.658 649.707,878.857 650.873,878.487 652.038,879.288 653.203,880.088 655.534,881.688 657.865,883.289 660.196,882.921 662.526,881.321 664.857,879.72 667.188,878.425 669.519,880.025 671.849,881.625 674.18,883.224 676.511,882.983 678.842,881.383 681.172,879.783 682.338,878.983 683.503,878.362 684.668,879.162 685.834,879.962 688.164,881.561 690.495,883.16 692.826,883.044 695.157,881.445 697.487,879.846 699.818,878.3 702.149,879.899 704.48,881.497 706.81,883.096 709.141,883.106 711.472,881.507 713.802,879.908 714.968,879.109 716.133,878.31 717.299,879.036 718.464,879.836 720.555,881.269 722.645,882.703 724.736,883.661 726.827,882.227 728.917,880.794 731.008,879.36 733.099,878.62 735.189,880.054 737.28,881.487 739.371,882.92 741.461,883.441 743.552,882.008 745.643,880.575 747.733,879.142 749.824,878.839 751.915,880.272 754.006,881.705 756.096,883.137 758.187,883.222 760.278,881.789 762.368,880.356 764.459,878.923 766.55,879.057 768.64,880.49 770.731,881.922 772.822,883.355 774.912,883.002 777.003,881.57 779.094,880.137 781.184,878.705 783.275,879.276 785.366,880.708 786.562,881.528 787.759,882.347 788.955,883.167 790.152,883.801 792.545,882.161 794.938,880.522 797.331,878.883 799.724,879.305 802.117,880.944 804.51,882.582 805.707,883.402 806.903,883.564 808.1,882.744 809.296,881.925 811.689,880.286 814.082,878.647 816.476,879.541 818.869,881.179 821.262,882.818 823.655,883.327 826.048,881.688 828.441,880.05 829.637,879.231 830.834,878.411 832.03,878.958 833.227,879.777 835.62,881.415 838.013,883.053 840.406,883.09 842.799,881.452 845.192,879.814 847.585,878.375 849.978,880.013 852.371,881.65 854.765,883.288 857.158,882.853 859.551,881.215 861.944,879.577 863.733,878.353 865.521,879.421 867.31,880.645 869.099,881.869 870.888,883.093 872.677,883.46 874.465,882.236 876.254,881.012 878.043,879.788 879.832,878.564 881.621,879.211 883.41,880.435 885.198,881.659 886.987,882.883 888.776,883.67 890.565,882.445 892.354,881.221 894.142,879.997 895.931,878.773 897.72,878.999 899.509,880.223 901.298,881.447 903.086,882.67 904.875,883.878 906.664,882.655 908.453,881.432 910.242,880.21 912.031,878.988 913.819,878.794 915.608,880.017 916.503,880.629 917.397,881.24 918.291,881.852 919.186,882.463 920.33,883.245 921.474,883.749 922.618,882.965 923.762,882.181 926.05,880.614 928.338,879.046 930.625,879.049 932.913,880.6 935.201,882.15 937.489,883.699 939.777,882.438 942.065,880.925 944.353,879.412 946.641,878.889 948.929,880.356 951.217,881.821 953.505,883.286 955.793,882.605 958.081,881.197 960.369,879.789 962.656,878.825 964.944,880.173 967.232,881.52 969.52,882.866 971.808,882.699 974.096,881.418 976.384,880.135 978.672,878.853 980.96,880.245 983.248,881.668 985.536,883.096 987.824,883.227 988.968,882.338 990.112,881.451 991.256,880.566 992.4,879.682 994.488,878.072 996.576,878.741 998.664,880.351 1000.75,881.957 1002.84,883.559 1004.93,882.922 1007.02,881.645 1009.11,880.365 1011.19,879.082 1013.28,879.977 1015.37,881.263 1017.46,882.553 1019.55,883.847 1021.63,882.441 1023.72,880.81 1025.81,879.185 1026.85,878.375 1027.9,877.565 1028.94,878.355 1029.99,879.167 1032.08,880.788 1034.16,882.405 1036.25,883.832 1038.34,882.569 1040.43,881.302 1042.52,880.033 1044.6,879.106 1046.69,880.377 1048.78,881.652 1050.87,882.932 1052.96,883.607 1055.05,881.961 1057.13,880.32 1059.22,878.685 1060.41,877.757 1061.6,878.194 1062.79,879.124 1063.98,880.053 1066.35,881.907 1068.73,883.755 1071.11,882.609 1073.48,881.18 1075.86,879.746 1078.24,879.639 1080.61,881.075 1082.99,882.518 1084.18,883.242 1085.36,883.929 1086.55,882.984 1087.74,882.041 1090.12,880.162 1092.49,878.291 1094.87,878.52 1097.25,880.391 1098.44,881.324 1099.62,882.255 1100.81,883.184 1102,883.759 1104.38,882.345 1106.75,880.926 1109.13,879.503 1111.51,879.946 1113.88,881.374 1116.26,882.807 1117.45,883.527 1118.64,883.562 1119.83,882.613 1121.01,881.665 1123.39,879.777 1125.77,877.897 1128.14,878.854 1130.52,880.734 1132.9,882.607 1135.27,883.489 1137.16,882.375 1139.04,881.259 1140.93,880.139 1142.81,879.075 1144.69,880.195 1146.58,881.32 1148.46,882.448 1150.35,883.581 1152.23,882.936 1154.11,881.425 1156,879.921 1157.88,878.422 1159.77,877.881 1161.65,879.381 1163.53,880.878 1165.42,882.37 1166.36,883.114 1167.3,883.857 1168.24,883.399 1169.19,882.846 1171.07,881.737 1172.95,880.626 1174.84,879.511 1176.72,879.752 1178.61,880.869 1180.49,881.989 1182.37,883.114 1184.26,883.566 1186.14,882.047 1188.03,880.534 1189.91,879.027 1191.79,877.525 1192.74,877.982 1193.68,878.736 1194.62,879.489 1195.56,880.24 1197.9,882.103 1200.24,883.877 1202.58,882.51 1204.93,881.137 1207.27,879.76 1209.61,879.814 1211.95,881.195 1214.29,882.583 1215.46,883.28 1216.63,883.926 1217.8,882.977 1218.97,882.031 1221.31,880.146 1223.65,878.27 1225.99,878.317 1228.33,880.193 1230.67,882.062 1233.01,883.904 1235.35,882.541 1237.69,881.174 1240.03,879.801 1242.38,879.803 1244.72,881.179 1247.06,882.562 1248.23,883.257 1249.4,883.953 1250.57,883.012 1251.74,882.063 1254.08,880.173 1256.42,878.292 1258.76,878.269 1261.1,880.15 1263.44,882.023 1265.78,883.89 1268.12,882.571 1270.46,881.207 1272.26,880.159 1274.05,879.147 1275.84,880.195 1277.63,881.247 1279.43,882.304 1281.22,883.365 1283.01,883.313 1284.8,881.857 1286.6,880.407 1288.39,878.962 1290.18,877.524 1291.97,878.584 1293.77,880.026 1295.56,881.464 1297.35,882.898 1299.14,883.613 1300.94,882.573 1302.73,881.53 1304.52,880.484 1306.31,879.435 1308.11,879.88 1309.9,880.93 1311.69,881.984 1313.48,883.043 1315.28,883.76 1317.07,882.301 1318.86,880.848 1320.65,879.401 1322.45,877.959 1324.24,878.139 1326.03,879.584 1327.82,881.025 1330.35,883.048 1332.88,883.08 1335.41,881.61 1337.93,880.134 1340.46,879.611 1342.99,881.092 1345.52,882.581 1348.04,883.8 1350.57,881.745 1353.1,879.702 1354.36,878.685 1355.62,877.67 1356.89,878.009 1358.15,879.028 1360.68,881.059 1363.21,883.082 1365.73,883.056 1368.26,881.584 1370.79,880.105 1373.32,879.63 1375.84,881.112 1378.37,882.604 1379.63,883.353 1380.9,883.768 1382.16,882.741 1383.42,881.716 1385.95,879.675 1388.48,877.646 1391.01,879.067 1393.53,881.097 1396.06,883.118 1398.59,883.032 1401.11,881.555 1403.64,880.072 1406.17,879.643 1408.7,881.13 1410.59,882.247 1412.47,883.368 1414.36,883.24 1416.25,881.711 1418.14,880.189 1420.03,878.672 1421.92,877.548 1423.8,879.067 1425.69,880.581 1427.58,882.091 1429.47,883.596 1431.36,883.055 1433.25,881.947 1435.14,880.836 1437.02,879.721 1438.91,879.586 1440.8,880.701 1442.69,881.82 1444.58,882.945 1446.47,883.816 1448.36,882.29 1450.24,880.769 1452.13,879.255 1454.02,877.746 1455.91,878.515 1457.8,880.027 1459.69,881.534 1461.58,883.038 1463.46,883.469 1465.35,882.356 1467.24,881.24 1469.13,880.121 1471.28,879.262 1473.43,880.327 1475.57,881.392 1477.72,882.458 1479.87,883.227 1482.02,883.489 1484.16,883.785 1486.31,884.114 1488.46,882.643 1490.61,879.682 1492.76,876.814 1494.9,874.037 1495.98,873.907 1497.05,875.34 1498.12,876.764 1499.2,878.179 1501.35,880.985 1503.49,883.758 1507.79,883.568 1512.08,883.207 1514.23,883.448 1516.38,883.723 1518.53,884.032 1520.68,883.485 1522.82,880.492 1524.97,877.592 1526.04,876.176 1527.12,874.784 1528.19,873.415 1529.27,874.527 1531.41,877.382 1533.56,880.203 1534.64,881.601 1535.71,882.991 1536.78,884.005 1537.86,883.876 1542.11,883.43 1546.37,883.381 1548.49,883.639 1550.62,883.931 1551.68,884.09 1552.75,884.256 1553.81,883.035 1554.87,881.545 1557,878.635 1559.13,875.816 1560.19,874.44 1561.25,873.406 1562.32,874.833 1563.38,876.251 1565.51,879.063 1567.64,881.843 1569.76,883.989 1571.89,883.745 1576.14,883.332 1580.4,883.535 1582.52,883.81 1584.65,884.119 1586.78,882.818 1588.9,879.863 1591.03,877 1593.16,874.228 1594.22,873.6 1595.29,875.028 1596.35,876.447 1597.41,877.859 1599.54,880.657 1601.67,883.423 1603.79,883.852 1605.92,883.625 1610.6,883.257 1615.28,883.811 1616.45,883.975 1617.62,884.149 1618.79,883.958 1619.96,882.299 1622.3,879.064 1624.64,875.941 1625.81,874.42 1626.98,873.51 1628.15,875.084 1629.32,876.649 1631.66,879.747 1634,882.806 1636.34,883.889 1638.68,883.639 1641.02,883.421 1643.36,883.267 1645.7,883.52 1648.04,883.813 1649.21,883.975 1650.38,884.147 1651.55,884.038 1652.72,882.374 1655.06,879.13 1657.4,875.998 1658.57,874.473 1659.74,873.423 1660.91,875 1662.08,876.568 1664.42,879.674 1666.76,882.74 1669.1,883.9 1671.44,883.65 1673.78,883.432 1676.12,883.268 1678.46,883.519 1680.8,883.811 1682.59,884.061 1684.38,884.024 1686.17,881.494 1687.95,879.029 1689.74,876.628 1691.53,874.293 1692.42,873.242 1693.31,874.449 1694.21,875.651 1695.1,876.846 1696.89,879.22 1698.68,881.57 1700.46,883.898 1702.25,883.854 1705.83,883.462 1709.4,883.254 1712.98,883.691 1716.55,884.222 1718.34,882.409 1720.13,879.952 1721.91,877.558 1723.7,875.226 1724.59,874.083 1725.49,873.705 1726.38,874.896 1727.28,876.081 1729.06,878.435 1730.85,880.767 1732.64,883.075 1734.43,883.907 1736.21,883.658 1738,883.423 1742.51,883.113 1747.02,883.785 1748.15,883.975 1749.28,884.174 1750.41,883.454 1751.53,881.925 1753.79,878.935 1756.04,876.034 1757.17,874.618 1758.3,873.951 1759.43,875.415 1760.56,876.871 1762.81,879.756 1765.07,882.607 1767.32,883.85 1769.58,883.462 1771.83,883.093 1774.09,882.742 1778.6,881.173 1783.11,879.862 1785.37,880.576 1787.62,881.289 1789.88,882.003 1792.13,881.951 1796.64,880.735 1801.16,880.567 1805.67,881.575 1810.18,881.403 1843.56,881.197 1876.93,881.198 1894.15,881.424 1911.36,881.807 1928.57,883.035 1945.78,885.515 1954.51,887.238 1963.23,889.605 1971.95,892.615 1980.68,896.269 1989.4,900.567 1998.12,905.508 2006.85,911.093 2015.57,917.322 2024.68,924.513 2033.79,932.405 2042.89,941 2052,950.296 2061.11,960.294 2070.22,970.994 2079.33,982.395 2088.44,994.499 2102.79,1014.99 2117.14,1037.23 2124.31,1049 2131.49,1061.2 2138.66,1073.85 2145.84,1086.92 2154.01,1102.34 2162.18,1118.33 2170.35,1134.88 2178.52,1151.99 2186.69,1169.67 2194.86,1187.92 2203.03,1206.73 2211.2,1226.1 2219.37,1246.04 2227.54,1266.54 2235.71,1287.61 2243.88,1309.24 2252.05,1331.43 2260.22,1354.2 2268.39,1377.52 2276.56,1401.41 2280.23,1412.32 2283.9,1423.34 2287.56,1434.47 2291.23,1445.72 "/>
<polyline clip-path="url(#clip892)" style="stroke:#e26f46; stroke-linecap:round; stroke-linejoin:round; stroke-width:4; stroke-opacity:1; fill:none" points="240.392,602.293 245.685,613.54 250.978,624.551 256.271,635.324 261.564,645.86 269.314,660.86 277.065,675.351 284.815,689.335 292.565,702.81 300.315,715.778 308.066,728.237 315.816,740.188 323.566,751.631 331.316,762.566 339.067,772.993 346.817,782.912 354.567,792.323 362.317,801.226 370.068,809.62 377.818,817.507 385.568,824.885 392.779,831.294 399.99,837.262 407.201,842.791 414.411,847.881 428.833,856.739 443.255,863.839 452.92,867.612 462.585,870.595 472.25,872.788 481.915,874.191 486.748,874.596 491.581,874.804 493.997,874.835 496.413,876.923 498.83,879.866 501.246,882.814 502.454,884.29 503.662,884.097 504.87,882.929 506.078,881.761 508.495,879.424 510.911,877.086 513.327,879.2 515.744,881.696 516.952,882.944 518.16,884.191 519.368,885.306 520.576,883.98 522.573,881.79 524.569,879.6 525.568,878.505 526.566,877.409 527.564,876.438 528.563,877.598 530.559,879.917 532.556,882.235 533.554,883.393 534.553,884.552 535.551,885.71 536.549,884.875 538.546,882.435 540.542,879.994 541.541,878.773 542.539,877.552 543.537,876.331 544.536,876.664 546.532,879.227 548.529,881.789 549.527,883.07 550.525,884.351 551.025,884.991 551.524,885.631 552.023,886.271 552.522,885.855 554.519,883.181 556.515,880.507 557.514,879.169 558.512,877.832 559.51,876.494 560.508,875.664 562.505,878.447 564.502,881.229 566.498,884.01 568.495,886.79 570.492,884.011 572.488,881.143 574.485,878.275 576.481,875.407 577.48,876.155 578.478,877.624 579.476,879.093 580.475,880.561 581.473,882.03 582.471,883.498 583.469,884.966 584.468,886.434 585.396,886.429 586.324,885.049 587.253,883.67 588.181,882.291 590.038,879.532 591.894,876.774 592.823,875.395 593.751,875.841 594.679,877.218 595.608,878.595 597.464,881.348 599.321,884.101 600.249,885.477 601.178,886.853 602.106,885.957 603.034,884.582 604.891,881.831 606.748,879.08 607.676,877.705 608.604,876.33 609.533,874.954 610.461,876.301 612.318,879.055 614.174,881.808 615.102,883.185 616.031,884.561 616.959,885.938 617.887,886.895 619.744,884.141 621.601,881.387 623.457,878.634 625.314,875.88 626.242,875.373 627.171,876.749 628.099,878.126 629.027,879.503 630.884,882.256 632.741,885.009 633.669,886.385 634.597,886.444 635.526,885.067 636.454,883.691 638.311,880.938 640.167,878.186 641.096,876.81 642.024,875.434 642.952,875.825 643.881,877.202 645.046,878.93 646.211,880.658 647.377,882.386 648.542,884.114 649.707,885.842 650.873,886.641 652.038,884.913 653.203,883.185 655.534,879.729 657.865,876.274 658.448,875.41 659.03,875.339 659.613,876.203 660.196,877.067 661.361,878.795 662.526,880.523 663.692,882.251 664.857,883.979 666.022,885.707 667.188,886.778 668.353,885.05 669.519,883.322 670.684,881.594 671.849,879.866 673.015,878.139 674.18,876.411 674.763,875.547 675.345,875.205 675.928,876.069 676.511,876.933 678.842,880.389 681.172,883.845 682.338,885.573 683.503,886.915 684.668,885.187 685.834,883.459 688.164,880.004 690.495,876.548 691.078,875.685 691.661,875.07 692.243,875.935 692.826,876.799 693.991,878.527 695.157,880.255 696.322,881.983 697.487,883.711 698.653,885.438 699.818,887.052 700.983,885.324 702.149,883.597 703.314,881.869 704.48,880.141 705.645,878.413 706.81,876.686 707.393,875.822 707.976,874.958 708.558,875.8 709.141,876.664 711.472,880.12 713.802,883.576 714.968,885.304 716.133,887.032 717.299,885.461 718.464,883.734 720.555,880.634 722.645,877.535 723.691,875.985 724.736,875.462 725.781,877.012 726.827,878.562 728.917,881.662 731.008,884.762 732.053,886.312 733.099,886.362 734.144,884.812 735.189,883.262 737.28,880.163 739.371,877.063 740.416,875.514 741.461,875.936 742.507,877.486 743.552,879.036 745.643,882.136 747.733,885.235 748.779,886.785 749.824,885.891 750.869,884.341 751.915,882.791 754.006,879.692 756.096,876.592 756.619,875.817 757.142,875.043 757.664,875.635 758.187,876.41 759.232,877.96 760.278,879.51 762.368,882.609 764.459,885.709 764.982,886.484 765.504,886.969 766.027,886.194 766.55,885.419 767.595,883.869 768.64,882.32 770.731,879.22 772.822,876.121 773.867,875.333 774.912,876.884 775.958,878.433 777.003,879.983 779.094,883.083 781.184,886.183 782.23,886.498 783.275,884.948 784.32,883.398 785.366,881.848 785.964,880.961 786.562,880.074 787.16,879.187 787.759,878.301 788.955,876.527 790.152,875.154 792.545,878.702 794.938,882.25 796.134,884.024 797.331,885.798 797.929,886.685 798.528,886.66 799.126,885.773 799.724,884.886 802.117,881.338 804.51,877.791 805.707,876.017 806.903,875.666 808.1,877.44 809.296,879.214 811.689,882.762 814.082,886.31 814.681,887.037 815.279,886.15 815.877,885.263 816.476,884.376 817.672,882.602 818.869,880.828 820.065,879.054 821.262,877.281 821.86,876.394 822.458,875.507 823.056,875.291 823.655,876.178 826.048,879.726 828.441,883.274 829.637,885.048 830.834,886.822 832.03,885.64 833.227,883.866 835.62,880.318 838.013,876.771 838.611,875.884 839.21,874.997 839.808,875.803 840.406,876.69 841.603,878.464 842.799,880.238 843.996,882.012 845.192,883.786 846.389,885.56 847.585,886.903 848.782,885.129 849.978,883.355 851.175,881.581 852.371,879.808 853.568,878.034 854.765,876.26 855.363,875.373 855.961,875.428 856.559,876.315 857.158,877.202 859.551,880.751 861.944,884.298 862.838,885.624 863.733,886.95 864.627,885.963 865.521,884.637 867.31,881.985 869.099,879.333 869.993,878.008 870.888,876.682 871.782,875.356 872.677,875.887 874.465,878.539 876.254,881.191 878.043,883.842 879.832,886.494 880.726,886.418 881.621,885.092 882.515,883.766 883.41,882.44 885.198,879.789 886.987,877.137 887.882,875.811 888.776,875.431 889.67,876.758 890.565,878.084 892.354,880.737 894.142,883.39 895.037,884.716 895.931,886.043 896.826,886.878 897.72,885.552 899.509,882.9 901.298,880.249 903.086,877.597 904.875,874.98 906.664,877.629 908.453,880.279 910.242,882.929 912.031,885.578 912.925,886.903 913.819,885.998 914.714,884.673 915.608,883.347 917.397,880.696 919.186,878.045 920.33,876.35 921.474,875.258 922.618,876.957 923.762,878.656 926.05,882.054 928.338,885.452 928.91,886.301 929.482,887.127 930.054,886.287 930.625,885.446 931.769,883.766 932.913,882.085 935.201,878.724 937.489,875.363 938.633,876.458 939.777,878.098 940.921,879.739 942.065,881.379 943.209,883.019 944.353,884.659 944.925,885.48 945.497,886.3 946.069,886.588 946.641,885.793 948.929,882.614 951.217,879.436 952.361,877.847 953.505,876.259 954.649,876.209 955.793,877.735 958.081,880.789 960.369,883.843 961.513,885.37 962.656,885.932 963.8,884.471 964.944,883.01 967.232,880.089 969.52,877.168 970.664,876.141 971.808,877.531 972.952,878.921 974.096,880.311 976.384,883.091 978.672,885.873 979.816,884.391 980.96,882.852 982.104,881.312 983.248,879.771 984.392,878.229 985.536,876.685 986.108,875.913 986.68,875.14 987.252,875.442 987.824,876.403 988.968,878.323 990.112,880.241 991.256,882.158 992.4,884.073 993.444,885.82 994.488,887.565 995.532,887.867 996.576,886.119 998.664,882.627 1000.75,879.139 1001.8,877.397 1002.84,875.656 1003.88,875.655 1004.93,877.041 1007.02,879.817 1009.11,882.596 1010.15,883.986 1011.19,885.378 1012.24,884.824 1013.28,883.433 1015.37,880.648 1017.46,877.859 1018.5,876.463 1019.55,875.066 1020.59,876.334 1021.63,878.1 1023.72,881.628 1025.81,885.15 1026.85,886.909 1027.9,888.667 1028.94,886.956 1029.99,885.196 1032.08,881.679 1034.16,878.166 1035.21,876.411 1036.25,875.061 1037.3,876.434 1038.34,877.809 1040.43,880.561 1042.52,883.316 1043.56,884.695 1044.6,885.325 1045.65,883.947 1046.69,882.568 1048.78,879.806 1050.87,877.04 1051.91,875.655 1052.96,875.583 1054,877.362 1055.05,879.14 1057.13,882.691 1059.22,886.236 1059.82,887.243 1060.41,888.25 1061,888.317 1061.6,887.307 1062.79,885.29 1063.98,883.274 1065.16,881.26 1066.35,879.247 1067.54,877.235 1068.73,875.226 1069.92,876.17 1071.11,877.722 1072.29,879.274 1073.48,880.828 1074.67,882.382 1075.86,883.938 1076.45,884.716 1077.05,885.495 1077.64,884.946 1078.24,884.169 1080.61,881.054 1082.99,877.934 1084.18,876.371 1085.36,874.89 1086.55,876.929 1087.74,878.965 1090.12,883.032 1092.49,887.091 1093.09,888.104 1093.68,888.631 1094.28,887.615 1094.87,886.6 1096.06,884.57 1097.25,882.542 1098.44,880.516 1099.62,878.491 1100.81,876.468 1102,875.217 1104.38,878.295 1106.75,881.378 1107.94,882.922 1109.13,884.466 1110.32,885.045 1111.51,883.501 1113.88,880.409 1116.26,877.31 1117.45,875.758 1118.64,875.682 1119.83,877.732 1121.01,879.779 1123.39,883.868 1125.77,887.947 1126.36,888.94 1126.96,887.918 1127.55,886.897 1128.14,885.876 1129.33,883.835 1130.52,881.797 1131.71,879.76 1132.9,877.724 1133.49,876.707 1134.09,875.691 1134.68,875.041 1135.27,875.805 1137.16,878.229 1139.04,880.656 1140.93,883.086 1142.81,885.392 1144.69,882.961 1146.58,880.526 1148.46,878.087 1150.35,875.643 1151.29,875.403 1152.23,877.036 1153.17,878.668 1154.11,880.298 1156,883.555 1157.88,886.806 1158.82,888.429 1159.77,887.986 1160.71,886.359 1161.65,884.733 1163.53,881.485 1165.42,878.241 1166.36,876.621 1167.3,875.001 1168.24,876 1169.19,877.204 1171.07,879.616 1172.95,882.031 1173.9,883.239 1174.84,884.448 1175.78,885.129 1176.72,883.922 1178.61,881.502 1180.49,879.079 1181.43,877.865 1182.37,876.651 1183.32,875.435 1184.26,875.677 1186.14,878.955 1188.03,882.227 1189.91,885.494 1191.79,888.754 1192.74,887.766 1193.68,886.133 1194.62,884.501 1195.56,882.87 1196.73,880.845 1197.9,878.822 1199.07,876.8 1200.24,874.959 1201.41,876.447 1202.58,877.937 1203.75,879.428 1204.93,880.92 1206.1,882.414 1207.27,883.909 1207.85,884.656 1208.44,885.281 1209.02,884.535 1209.61,883.788 1211.95,880.796 1214.29,877.796 1215.46,876.294 1216.63,874.903 1217.8,876.948 1218.97,878.99 1221.31,883.068 1223.65,887.136 1224.24,888.152 1224.82,889.076 1225.41,888.057 1225.99,887.039 1227.16,885.004 1228.33,882.971 1229.5,880.94 1230.67,878.91 1231.84,876.883 1233.01,874.901 1234.18,876.384 1235.35,877.869 1236.52,879.354 1237.69,880.841 1238.86,882.329 1240.03,883.818 1240.62,884.563 1241.21,885.299 1241.79,884.555 1242.38,883.811 1244.72,880.83 1247.06,877.842 1248.23,876.345 1249.4,874.846 1250.57,876.874 1251.74,878.921 1254.08,883.008 1256.42,887.086 1257,888.104 1257.59,889.121 1258.17,888.164 1258.76,887.144 1259.93,885.104 1261.1,883.066 1262.27,881.03 1263.44,878.996 1264.61,876.963 1265.78,874.933 1266.95,876.323 1268.12,877.804 1269.29,879.286 1270.46,880.769 1272.26,883.043 1274.05,885.235 1275.84,882.961 1277.63,880.683 1279.43,878.4 1281.22,876.113 1282.11,874.968 1283.01,876.226 1283.91,877.797 1284.8,879.367 1286.6,882.502 1288.39,885.631 1289.28,887.193 1290.18,888.754 1291.08,888.026 1291.97,886.461 1293.77,883.334 1295.56,880.211 1296.46,878.652 1297.35,877.093 1298.25,875.535 1299.14,875.536 1300.94,877.8 1302.73,880.068 1304.52,882.338 1306.31,884.611 1307.21,884.78 1308.11,883.644 1309,882.508 1309.9,881.37 1311.69,879.091 1313.48,876.808 1314.38,875.665 1315.28,875.265 1316.17,876.838 1317.07,878.409 1318.86,881.547 1320.65,884.679 1321.55,886.243 1322.45,887.806 1322.9,888.586 1323.34,888.988 1323.79,888.205 1324.24,887.421 1326.03,884.292 1327.82,881.166 1329.09,878.966 1330.35,876.767 1330.98,875.668 1331.62,875.103 1332.25,875.901 1332.88,876.699 1335.41,879.894 1337.93,883.096 1339.2,884.699 1340.46,884.225 1341.72,882.623 1342.99,881.019 1344.25,879.413 1345.52,877.804 1346.78,876.194 1348.04,875.181 1349.31,877.396 1350.57,879.609 1351.83,881.819 1353.1,884.026 1354.36,886.23 1355.62,888.432 1356.26,888.806 1356.89,887.703 1357.52,886.599 1358.15,885.497 1360.68,881.091 1363.21,876.694 1363.84,875.596 1364.47,875.153 1365.1,875.952 1365.73,876.751 1367,878.35 1368.26,879.951 1369.52,881.554 1370.79,883.157 1371.42,883.96 1372.05,884.763 1372.68,884.986 1373.32,884.185 1375.84,880.974 1378.37,877.755 1379.63,876.142 1380.9,875.25 1382.16,877.463 1383.42,879.672 1384.69,881.879 1385.95,884.083 1387.21,886.284 1388.48,888.483 1389.74,887.612 1391.01,885.41 1392.27,883.209 1393.53,881.01 1394.8,878.813 1396.06,876.619 1396.69,875.522 1397.32,875.203 1397.96,876.004 1398.59,876.806 1401.11,880.014 1403.64,883.229 1404.91,884.839 1406.17,884.156 1407.43,882.547 1408.7,880.937 1410.59,878.526 1412.47,876.11 1413.42,874.9 1414.36,876.387 1415.31,878.036 1416.25,879.683 1418.14,882.972 1420.03,886.255 1420.97,887.895 1421.92,888.694 1422.86,887.051 1423.8,885.408 1425.69,882.127 1427.58,878.851 1428.53,877.214 1429.47,875.579 1430.41,875.556 1431.36,876.758 1433.25,879.164 1435.14,881.574 1436.08,882.78 1437.02,883.987 1437.97,885.195 1438.91,884.278 1440.8,881.864 1442.69,879.446 1443.63,878.235 1444.58,877.023 1445.52,875.81 1446.47,875.149 1448.36,878.435 1450.24,881.716 1452.13,884.991 1454.02,888.26 1454.97,888.238 1455.91,886.6 1456.85,884.963 1457.8,883.328 1459.69,880.06 1461.58,876.796 1462.52,875.166 1463.46,875.859 1464.41,877.067 1465.35,878.276 1467.24,880.697 1469.13,883.121 1470.2,884.501 1471.28,884.978 1472.35,883.826 1473.43,882.673 1475.57,880.368 1477.72,878.062 1479.87,876.41 1482.02,875.904 1484.16,875.364 1486.31,874.791 1486.85,874.642 1487.39,874.762 1487.92,876.335 1488.46,877.902 1489.53,881.019 1490.61,884.113 1492.76,890.231 1494.9,896.257 1495.44,897.749 1495.98,896.585 1496.51,895.055 1497.05,893.528 1498.12,890.479 1499.2,887.438 1500.27,884.406 1501.35,881.382 1502.42,878.367 1503.49,875.36 1505.64,875.198 1507.79,875.661 1509.94,876.099 1512.08,876.444 1514.23,875.973 1516.38,875.469 1517.45,875.204 1518.53,874.931 1519.06,874.791 1519.6,874.649 1520.14,874.58 1520.68,876.156 1522.82,882.403 1524.97,888.557 1526.04,891.599 1527.12,894.618 1527.66,896.119 1528.19,897.614 1528.73,896.789 1529.27,895.257 1530.34,892.199 1531.41,889.149 1532.49,886.107 1533.56,883.074 1534.64,880.049 1535.71,877.032 1536.78,874.816 1537.86,875.057 1542.11,875.95 1546.37,876.101 1548.49,875.62 1550.62,875.104 1551.68,874.834 1552.75,874.556 1553.81,877.094 1554.87,880.195 1557,886.329 1559.13,892.372 1559.66,893.868 1560.19,895.359 1560.72,896.844 1561.25,897.635 1562.32,894.596 1563.38,891.566 1565.51,885.53 1567.64,879.527 1568.7,876.538 1569.76,874.848 1570.83,875.083 1571.89,875.312 1574.02,875.752 1576.14,876.166 1578.27,876.273 1580.4,875.811 1582.52,875.316 1584.65,874.787 1585.18,874.65 1585.71,874.51 1586.25,875.986 1586.78,877.546 1587.84,880.647 1588.9,883.726 1589.97,886.782 1591.03,889.814 1592.1,892.825 1593.16,895.812 1593.69,897.297 1594.22,897.214 1594.75,895.692 1595.29,894.173 1596.35,891.14 1597.41,888.116 1599.54,882.092 1601.67,876.101 1602.73,874.877 1603.79,875.108 1604.86,875.333 1605.92,875.552 1608.26,876.011 1610.6,876.346 1612.94,875.851 1615.28,875.315 1616.45,875.032 1617.62,874.739 1618.21,874.589 1618.79,875.193 1619.38,876.913 1619.96,878.627 1622.3,885.412 1624.64,892.087 1625.23,893.738 1625.81,895.382 1626.4,897.019 1626.98,897.393 1628.15,894.043 1629.32,890.704 1631.66,884.054 1634,877.445 1634.59,875.799 1635.17,874.789 1635.76,874.917 1636.34,875.043 1637.51,875.288 1638.68,875.526 1641.02,875.979 1643.36,876.328 1645.7,875.84 1648.04,875.313 1649.21,875.034 1650.38,874.744 1650.97,874.596 1651.55,875.033 1652.14,876.757 1652.72,878.473 1655.06,885.27 1657.4,891.955 1657.99,893.609 1658.57,895.255 1659.16,896.895 1659.74,897.567 1660.91,894.212 1662.08,890.868 1664.42,884.21 1666.76,877.592 1667.35,875.943 1667.93,874.773 1668.52,874.9 1669.1,875.025 1670.27,875.27 1671.44,875.508 1673.78,875.959 1676.12,876.327 1678.46,875.843 1680.8,875.319 1681.7,875.107 1682.59,874.89 1683.48,874.667 1684.38,875.065 1686.17,880.305 1687.95,885.48 1689.74,890.591 1691.53,895.636 1691.97,896.887 1692.42,897.935 1692.87,896.653 1693.31,895.373 1694.21,892.816 1695.1,890.266 1696.89,885.182 1698.68,880.121 1699.57,877.6 1700.46,875.084 1701.36,874.914 1702.25,875.12 1704.04,875.519 1705.83,875.902 1707.61,876.267 1709.4,876.367 1711.19,875.965 1712.98,875.54 1714.76,875.092 1716.55,874.62 1717.44,875.805 1718.34,878.394 1719.23,880.968 1720.13,883.526 1721.91,888.595 1723.7,893.602 1724.15,894.844 1724.59,896.083 1725.04,897.317 1725.49,896.934 1726.38,894.405 1727.28,891.882 1729.06,886.852 1730.85,881.846 1731.74,879.351 1732.64,876.861 1733.53,874.772 1734.43,875.025 1736.21,875.519 1738,875.997 1740.26,876.581 1742.51,876.678 1744.77,876.052 1747.02,875.39 1748.15,875.046 1749.28,874.692 1750.41,876.209 1751.53,879.383 1753.79,885.662 1756.04,891.852 1756.61,893.385 1757.17,894.912 1757.74,896.434 1758.3,896.386 1759.43,893.277 1760.56,890.177 1762.81,884.002 1765.07,877.861 1765.63,876.331 1766.19,874.803 1766.76,874.939 1767.32,875.14 1768.45,875.539 1769.58,875.934 1771.83,876.709 1774.09,877.466 1776.34,879.08 1778.6,880.844 1780.86,882.609 1783.11,883.66 1785.37,882.126 1787.62,880.593 1789.88,879.06 1792.13,879.171 1794.39,880.477 1796.64,881.783 1798.9,883.089 1801.16,882.144 1803.41,881.061 1805.67,879.979 1806.79,879.438 1807.92,879.49 1809.05,879.92 1810.18,880.35 1826.87,880.627 1843.56,880.792 1860.25,880.846 1876.93,880.789 1894.15,880.307 1911.36,879.488 1928.57,876.885 1945.78,873.279 1954.51,871.556 1963.23,869.19 1971.95,866.179 1980.68,862.525 1989.4,858.228 1998.12,853.286 2006.85,847.701 2015.57,841.473 2024.68,834.282 2033.79,826.389 2042.89,817.795 2052,808.499 2061.11,798.501 2070.22,787.801 2079.33,776.399 2088.44,764.296 2095.61,754.267 2102.79,743.803 2109.96,732.903 2117.14,721.568 2124.31,709.797 2131.49,697.591 2138.66,684.949 2145.84,671.872 2154.01,656.452 2162.18,640.466 2170.35,623.916 2178.52,606.801 2186.69,589.122 2194.86,570.878 2203.03,552.069 2211.2,532.696 2219.37,512.758 2227.54,492.256 2235.71,471.188 2243.88,449.556 2252.05,427.36 2260.22,404.599 2268.39,381.273 2276.56,357.382 2280.23,346.477 2283.9,335.458 2287.56,324.325 2291.23,313.079 "/>
<polyline clip-path="url(#clip892)" style="stroke:#3da44d; stroke-linecap:round; stroke-linejoin:round; stroke-width:4; stroke-opacity:1; fill:none" points="240.392,1433.5 250.978,1410.46 261.564,1387.43 323.566,1252.5 385.568,1117.57 414.411,1054.8 443.255,992.027 452.92,970.994 462.585,949.96 472.25,928.927 481.915,907.893 486.748,897.377 491.581,886.862 493.997,881.604 496.413,880.869 498.83,881.974 501.246,883.079 503.662,883.271 506.078,881.486 508.495,879.7 510.911,877.914 513.327,879.517 515.744,881.411 518.16,883.305 520.576,883.148 536.549,883.794 552.522,884.501 568.495,885.172 584.468,884.901 614.174,881.599 643.881,878.3 662.526,880.682 681.172,883.065 699.818,885.368 718.464,882.987 751.915,882.312 785.366,881.636 804.51,878.719 823.655,877.559 842.799,880.48 861.944,883.402 865.521,883.646 869.099,879.829 870.888,877.921 872.677,877.349 874.465,879.258 876.254,881.166 878.043,883.075 879.832,884.984 881.621,883.974 883.41,882.064 886.987,878.245 890.565,878.927 892.354,880.838 894.142,882.749 895.931,884.66 897.72,884.308 901.298,880.492 904.875,876.701 908.453,880.514 912.031,884.328 915.608,882.714 919.186,878.887 921.474,876.876 923.762,879.329 926.05,881.782 928.338,884.235 930.625,884.262 932.913,881.898 935.201,879.533 937.489,877.169 939.777,879.09 942.065,881.394 944.353,883.699 946.641,884.505 948.929,882.302 951.217,880.099 953.505,877.897 955.793,878.915 958.081,881.024 960.369,883.134 962.656,884.579 964.944,882.572 967.232,880.566 969.52,878.559 971.808,878.803 974.096,880.704 976.384,882.604 978.672,884.505 980.96,881.799 983.248,879.05 985.536,876.3 987.824,876.005 990.112,879.315 992.4,882.626 993.444,884.137 994.488,885.648 995.532,886.119 996.576,885.112 998.664,883.099 1000.75,881.085 1002.84,879.071 1004.93,879.779 1007.02,881.262 1009.11,882.746 1011.19,884.229 1013.28,882.303 1015.37,879.773 1017.46,877.243 1019.55,874.714 1021.63,877.351 1023.72,880.431 1025.81,883.51 1026.85,885.049 1027.9,886.589 1028.94,885.627 1029.99,884.629 1032.08,882.633 1034.16,880.636 1036.25,878.86 1038.34,880.291 1040.43,881.721 1042.52,883.151 1044.6,884.04 1046.69,881.492 1048.78,878.943 1050.87,876.395 1052.96,875.025 1055.05,878.158 1057.13,881.29 1059.22,884.423 1059.82,885.315 1060.41,886.206 1061,886.419 1061.6,885.855 1062.79,884.728 1063.98,883.601 1066.35,881.347 1068.73,879.094 1071.11,880.34 1073.48,881.912 1075.86,883.484 1078.24,882.974 1080.61,880.054 1082.99,877.133 1085.36,874.289 1087.74,877.91 1090.12,881.531 1092.49,885.152 1094.87,885.493 1097.25,883.256 1099.62,881.019 1102,879.188 1104.38,880.71 1106.75,882.231 1109.13,883.752 1111.51,882.345 1113.88,879.406 1116.26,876.468 1118.64,874.883 1121.01,878.554 1123.39,882.226 1125.77,885.897 1128.14,885.129 1130.52,882.907 1132.9,880.684 1135.27,879.578 1137.16,880.748 1139.04,881.919 1140.93,883.089 1142.81,884.168 1144.69,881.825 1146.58,879.483 1148.46,877.141 1150.35,874.799 1152.23,876.009 1154.11,878.954 1156,881.898 1157.88,884.843 1159.77,886.295 1161.65,884.544 1163.53,882.793 1165.42,881.041 1169.19,880.325 1172.95,882.606 1174.84,883.746 1176.72,882.757 1178.61,880.404 1180.49,878.051 1182.37,875.698 1184.26,874.704 1186.14,877.678 1188.03,880.651 1189.91,883.625 1191.79,886.599 1193.68,885.323 1195.56,883.58 1197.9,881.414 1200.24,879.339 1202.58,880.725 1204.93,882.112 1207.27,883.498 1209.61,882.635 1211.95,879.7 1214.29,876.765 1216.63,873.936 1218.97,877.659 1221.31,881.382 1223.65,885.106 1225.99,885.823 1228.33,883.666 1230.67,881.508 1233.01,879.373 1235.35,880.737 1237.69,882.1 1240.03,883.463 1242.38,882.666 1244.72,879.722 1247.06,876.779 1249.4,873.835 1251.74,877.559 1254.08,881.303 1256.42,885.048 1258.76,885.89 1261.1,883.738 1263.44,881.587 1265.78,879.435 1268.12,880.739 1270.46,882.087 1274.05,884.09 1277.63,879.572 1279.43,877.313 1281.22,875.054 1283.01,875.067 1284.8,877.945 1286.6,880.822 1288.39,883.7 1290.18,886.578 1291.97,885.538 1295.56,882.247 1299.14,879.729 1302.73,881.783 1306.31,883.837 1309.9,880.256 1313.48,875.733 1315.28,874.175 1317.07,877.057 1318.86,879.939 1320.65,882.82 1322.45,885.702 1324.24,886.046 1326.03,884.4 1327.82,882.754 1330.35,880.434 1332.88,880.263 1335.41,881.712 1337.93,883.161 1340.46,883.106 1342.99,879.916 1345.52,876.727 1348.04,874.104 1350.57,878.164 1353.1,882.223 1355.62,886.283 1358.15,885.03 1360.68,882.707 1363.21,880.384 1365.73,880.278 1368.26,881.737 1370.79,883.196 1373.32,883.074 1375.84,879.886 1378.37,876.699 1379.63,875.105 1380.9,874.194 1382.16,876.218 1383.42,878.241 1385.95,882.289 1388.48,886.336 1391.01,884.974 1393.53,882.645 1396.06,880.316 1398.59,880.28 1401.11,881.758 1403.64,883.236 1406.17,883.052 1408.7,879.869 1410.59,877.491 1412.47,875.113 1414.36,875.275 1416.25,878.284 1418.14,881.293 1420.03,884.302 1421.92,886.703 1423.8,884.956 1427.58,881.462 1431.36,880.22 1435.14,882.469 1438.91,883.179 1440.8,880.806 1442.69,878.434 1444.58,876.061 1446.47,874.207 1448.36,877.194 1450.24,880.182 1452.13,883.169 1454.02,886.156 1455.91,885.572 1457.8,883.816 1459.69,882.061 1461.58,880.305 1465.35,880.891 1469.13,883.194 1473.43,882.258 1477.72,878.842 1479.87,876.188 1482.02,871.84 1484.16,867.492 1486.31,863.144 1487.39,861.471 1488.46,865.687 1489.53,869.904 1490.61,874.12 1492.76,882.553 1494.9,890.986 1497.05,893.112 1499.2,892.781 1501.35,892.449 1503.49,892.117 1507.79,884.962 1512.08,877.416 1514.23,873.049 1516.38,868.682 1517.45,866.498 1518.53,864.315 1519.6,862.131 1520.68,863.293 1522.82,871.748 1524.97,880.203 1527.12,888.657 1529.27,893.236 1531.41,892.909 1533.56,892.581 1535.71,892.254 1537.86,889.79 1542.11,882.336 1546.37,874.417 1548.49,870.087 1550.62,865.756 1551.68,863.591 1552.75,861.426 1553.81,864.529 1554.87,868.723 1557,877.111 1559.13,885.499 1560.19,889.693 1561.25,893.387 1562.32,893.226 1563.38,893.065 1565.51,892.742 1567.64,892.42 1569.76,891.412 1571.89,887.672 1576.14,880.193 1580.4,871.914 1582.52,867.579 1584.65,863.245 1585.71,861.077 1586.78,865.113 1587.84,869.315 1588.9,873.517 1591.03,881.921 1593.16,890.325 1595.29,893.231 1597.41,892.91 1599.54,892.589 1601.67,892.269 1603.79,889.293 1605.92,885.54 1608.26,881.411 1610.6,877.213 1612.94,872.438 1615.28,867.664 1616.45,865.277 1617.62,862.89 1618.79,861.916 1619.96,866.549 1622.3,875.813 1624.64,885.078 1625.81,889.71 1626.98,893.429 1628.15,893.253 1629.32,893.078 1631.66,892.728 1634,892.377 1638.68,885.644 1643.36,877.301 1645.7,872.521 1648.04,867.741 1649.21,865.352 1650.38,862.962 1651.55,861.672 1652.72,866.314 1655.06,875.598 1657.4,884.881 1658.57,889.523 1659.74,893.465 1660.91,893.291 1662.08,893.117 1664.42,892.769 1666.76,892.42 1669.1,889.916 1671.44,885.767 1676.12,877.43 1680.8,867.867 1682.59,864.215 1684.38,861.736 1686.17,868.822 1687.95,875.908 1689.74,882.994 1691.53,890.08 1693.31,893.343 1695.1,893.071 1698.68,892.529 1702.25,889.355 1705.83,883.155 1709.4,876.774 1711.19,873.144 1712.98,869.514 1714.76,865.885 1716.55,862.255 1718.34,866.576 1720.13,873.532 1721.91,880.487 1723.7,887.443 1725.49,893.223 1727.28,892.905 1729.06,892.587 1730.85,892.27 1734.43,890.157 1738,884.359 1742.51,876.705 1747.02,867.71 1748.15,865.461 1749.28,863.212 1750.41,864.383 1751.53,868.603 1753.79,877.043 1756.04,885.483 1757.17,889.703 1758.3,892.782 1759.43,892.523 1760.56,892.265 1762.81,891.748 1765.07,891.232 1767.32,889.368 1769.58,886.104 1771.83,882.84 1774.09,879.576 1778.6,881.157 1783.11,882.931 1787.62,881.014 1792.13,880.107 1801.16,881.908 1810.18,880.806 1843.56,881.019 1876.93,880.909 1894.15,880.458 1911.36,879.748 1915.66,879.394 1919.96,882.57 1922.12,884.084 1924.27,881.289 1926.42,878.494 1928.57,875.699 1937.18,858.474 1945.78,839.746 1963.23,801.779 1980.68,763.812 1998.12,725.845 2015.57,687.878 2088.44,529.299 2145.84,404.378 2276.56,119.894 2291.23,87.9763 "/>
<path clip-path="url(#clip890)" d="M251.33 302.578 L768.046 302.578 L768.046 95.2176 L251.33 95.2176  Z" fill="#ffffff" fill-rule="evenodd" fill-opacity="1"/>
<polyline clip-path="url(#clip890)" style="stroke:#000000; stroke-linecap:round; stroke-linejoin:round; stroke-width:4; stroke-opacity:1; fill:none" points="251.33,302.578 768.046,302.578 768.046,95.2176 251.33,95.2176 251.33,302.578 "/>
<polyline clip-path="url(#clip890)" style="stroke:#009af9; stroke-linecap:round; stroke-linejoin:round; stroke-width:4; stroke-opacity:1; fill:none" points="275.484,147.058 420.41,147.058 "/>
<path clip-path="url(#clip890)" d="M444.564 129.778 L449.24 129.778 L449.24 143.944 L466.231 143.944 L466.231 129.778 L470.907 129.778 L470.907 164.338 L466.231 164.338 L466.231 147.879 L449.24 147.879 L449.24 164.338 L444.564 164.338 L444.564 129.778 Z" fill="#000000" fill-rule="nonzero" fill-opacity="1" /><path clip-path="url(#clip890)" d="M488.754 148.666 Q487.596 146.676 485.258 146.676 Q482.92 146.676 481.763 148.666 Q480.583 150.657 480.583 154.639 Q480.583 158.643 481.763 160.634 Q482.92 162.625 485.258 162.625 Q487.596 162.625 488.754 160.634 Q489.934 158.643 489.934 154.639 Q489.934 150.657 488.754 148.666 M485.258 144.615 Q488.985 144.615 490.953 147.185 Q492.92 149.754 492.92 154.639 Q492.92 159.546 490.953 162.115 Q488.985 164.685 485.258 164.685 Q481.508 164.685 479.541 162.115 Q477.573 159.546 477.573 154.639 Q477.573 149.754 479.541 147.185 Q481.508 144.615 485.258 144.615 Z" fill="#000000" fill-rule="nonzero" fill-opacity="1" /><path clip-path="url(#clip890)" d="M509.263 128.366 Q506.161 133.69 504.656 138.898 Q503.152 144.106 503.152 149.453 Q503.152 154.801 504.656 160.055 Q506.184 165.287 509.263 170.588 L505.559 170.588 Q502.087 165.148 500.351 159.893 Q498.638 154.639 498.638 149.453 Q498.638 144.291 500.351 139.06 Q502.064 133.828 505.559 128.366 L509.263 128.366 Z" fill="#000000" fill-rule="nonzero" fill-opacity="1" /><path clip-path="url(#clip890)" d="M539.078 138.412 L529.703 151.027 L539.564 164.338 L534.541 164.338 L526.994 154.152 L519.448 164.338 L514.425 164.338 L524.494 150.773 L515.281 138.412 L520.305 138.412 L527.18 147.648 L534.054 138.412 L539.078 138.412 Z" fill="#000000" fill-rule="nonzero" fill-opacity="1" /><path clip-path="url(#clip890)" d="M555.814 128.366 Q552.712 133.69 551.207 138.898 Q549.703 144.106 549.703 149.453 Q549.703 154.801 551.207 160.055 Q552.735 165.287 555.814 170.588 L552.11 170.588 Q548.638 165.148 546.902 159.893 Q545.189 154.639 545.189 149.453 Q545.189 144.291 546.902 139.06 Q548.615 133.828 552.11 128.366 L555.814 128.366 Z" fill="#000000" fill-rule="nonzero" fill-opacity="1" /><path clip-path="url(#clip890)" d="M568.29 131.051 L568.29 138.412 L577.064 138.412 L577.064 141.722 L568.29 141.722 L568.29 155.796 Q568.29 158.967 569.147 159.87 Q570.027 160.773 572.689 160.773 L577.064 160.773 L577.064 164.338 L572.689 164.338 Q567.758 164.338 565.883 162.509 Q564.008 160.657 564.008 155.796 L564.008 141.722 L560.883 141.722 L560.883 138.412 L564.008 138.412 L564.008 131.051 L568.29 131.051 Z" fill="#000000" fill-rule="nonzero" fill-opacity="1" /><path clip-path="url(#clip890)" d="M581.994 128.366 L585.698 128.366 Q589.17 133.828 590.883 139.06 Q592.619 144.291 592.619 149.453 Q592.619 154.639 590.883 159.893 Q589.17 165.148 585.698 170.588 L581.994 170.588 Q585.073 165.287 586.577 160.055 Q588.105 154.801 588.105 149.453 Q588.105 144.106 586.577 138.898 Q585.073 133.69 581.994 128.366 Z" fill="#000000" fill-rule="nonzero" fill-opacity="1" /><path clip-path="url(#clip890)" d="M602.249 158.458 L607.133 158.458 L607.133 162.439 L603.337 169.847 L600.35 169.847 L602.249 162.439 L602.249 158.458 Z" fill="#000000" fill-rule="nonzero" fill-opacity="1" /><path clip-path="url(#clip890)" d="M641.508 132.37 L653.475 164.338 L648.961 164.338 L641.693 145.171 L632.758 164.338 L628.244 164.338 L639.609 139.477 L637.897 134.893 Q636.809 131.977 634.332 131.977 L632.11 131.977 L632.11 128.319 L634.818 128.366 Q640.049 128.435 641.508 132.37 Z" fill="#000000" fill-rule="nonzero" fill-opacity="1" /><path clip-path="url(#clip890)" d="M669.586 128.366 Q666.484 133.69 664.98 138.898 Q663.475 144.106 663.475 149.453 Q663.475 154.801 664.98 160.055 Q666.507 165.287 669.586 170.588 L665.882 170.588 Q662.41 165.148 660.674 159.893 Q658.961 154.639 658.961 149.453 Q658.961 144.291 660.674 139.06 Q662.387 133.828 665.882 128.366 L669.586 128.366 Z" fill="#000000" fill-rule="nonzero" fill-opacity="1" /><path clip-path="url(#clip890)" d="M682.063 131.051 L682.063 138.412 L690.836 138.412 L690.836 141.722 L682.063 141.722 L682.063 155.796 Q682.063 158.967 682.919 159.87 Q683.799 160.773 686.461 160.773 L690.836 160.773 L690.836 164.338 L686.461 164.338 Q681.531 164.338 679.656 162.509 Q677.781 160.657 677.781 155.796 L677.781 141.722 L674.656 141.722 L674.656 138.412 L677.781 138.412 L677.781 131.051 L682.063 131.051 Z" fill="#000000" fill-rule="nonzero" fill-opacity="1" /><path clip-path="url(#clip890)" d="M695.767 128.366 L699.47 128.366 Q702.942 133.828 704.655 139.06 Q706.392 144.291 706.392 149.453 Q706.392 154.639 704.655 159.893 Q702.942 165.148 699.47 170.588 L695.767 170.588 Q698.845 165.287 700.35 160.055 Q701.878 154.801 701.878 149.453 Q701.878 144.106 700.35 138.898 Q698.845 133.69 695.767 128.366 Z" fill="#000000" fill-rule="nonzero" fill-opacity="1" /><path clip-path="url(#clip890)" d="M714.262 128.366 L717.966 128.366 Q721.438 133.828 723.151 139.06 Q724.887 144.291 724.887 149.453 Q724.887 154.639 723.151 159.893 Q721.438 165.148 717.966 170.588 L714.262 170.588 Q717.341 165.287 718.845 160.055 Q720.373 154.801 720.373 149.453 Q720.373 144.106 718.845 138.898 Q717.341 133.69 714.262 128.366 Z" fill="#000000" fill-rule="nonzero" fill-opacity="1" /><polyline clip-path="url(#clip890)" style="stroke:#e26f46; stroke-linecap:round; stroke-linejoin:round; stroke-width:4; stroke-opacity:1; fill:none" points="275.484,198.898 420.41,198.898 "/>
<path clip-path="url(#clip890)" d="M444.564 181.618 L449.24 181.618 L449.24 195.784 L466.231 195.784 L466.231 181.618 L470.907 181.618 L470.907 216.178 L466.231 216.178 L466.231 199.719 L449.24 199.719 L449.24 216.178 L444.564 216.178 L444.564 181.618 Z" fill="#000000" fill-rule="nonzero" fill-opacity="1" /><path clip-path="url(#clip890)" d="M479.171 213.631 L483.893 213.631 L483.893 199.488 L478.731 200.437 L478.731 197.752 L484.055 196.849 L487.226 196.849 L487.226 213.631 L491.971 213.631 L491.971 216.178 L479.171 216.178 L479.171 213.631 Z" fill="#000000" fill-rule="nonzero" fill-opacity="1" /><path clip-path="url(#clip890)" d="M509.263 180.206 Q506.161 185.53 504.656 190.738 Q503.152 195.946 503.152 201.293 Q503.152 206.641 504.656 211.895 Q506.184 217.127 509.263 222.428 L505.559 222.428 Q502.087 216.988 500.351 211.733 Q498.638 206.479 498.638 201.293 Q498.638 196.131 500.351 190.9 Q502.064 185.668 505.559 180.206 L509.263 180.206 Z" fill="#000000" fill-rule="nonzero" fill-opacity="1" /><path clip-path="url(#clip890)" d="M539.078 190.252 L529.703 202.867 L539.564 216.178 L534.541 216.178 L526.994 205.992 L519.448 216.178 L514.425 216.178 L524.494 202.613 L515.281 190.252 L520.305 190.252 L527.18 199.488 L534.054 190.252 L539.078 190.252 Z" fill="#000000" fill-rule="nonzero" fill-opacity="1" /><path clip-path="url(#clip890)" d="M555.814 180.206 Q552.712 185.53 551.207 190.738 Q549.703 195.946 549.703 201.293 Q549.703 206.641 551.207 211.895 Q552.735 217.127 555.814 222.428 L552.11 222.428 Q548.638 216.988 546.902 211.733 Q545.189 206.479 545.189 201.293 Q545.189 196.131 546.902 190.9 Q548.615 185.668 552.11 180.206 L555.814 180.206 Z" fill="#000000" fill-rule="nonzero" fill-opacity="1" /><path clip-path="url(#clip890)" d="M568.29 182.891 L568.29 190.252 L577.064 190.252 L577.064 193.562 L568.29 193.562 L568.29 207.636 Q568.29 210.807 569.147 211.71 Q570.027 212.613 572.689 212.613 L577.064 212.613 L577.064 216.178 L572.689 216.178 Q567.758 216.178 565.883 214.349 Q564.008 212.497 564.008 207.636 L564.008 193.562 L560.883 193.562 L560.883 190.252 L564.008 190.252 L564.008 182.891 L568.29 182.891 Z" fill="#000000" fill-rule="nonzero" fill-opacity="1" /><path clip-path="url(#clip890)" d="M581.994 180.206 L585.698 180.206 Q589.17 185.668 590.883 190.9 Q592.619 196.131 592.619 201.293 Q592.619 206.479 590.883 211.733 Q589.17 216.988 585.698 222.428 L581.994 222.428 Q585.073 217.127 586.577 211.895 Q588.105 206.641 588.105 201.293 Q588.105 195.946 586.577 190.738 Q585.073 185.53 581.994 180.206 Z" fill="#000000" fill-rule="nonzero" fill-opacity="1" /><path clip-path="url(#clip890)" d="M602.249 210.298 L607.133 210.298 L607.133 214.279 L603.337 221.687 L600.35 221.687 L602.249 214.279 L602.249 210.298 Z" fill="#000000" fill-rule="nonzero" fill-opacity="1" /><path clip-path="url(#clip890)" d="M641.508 184.21 L653.475 216.178 L648.961 216.178 L641.693 197.011 L632.758 216.178 L628.244 216.178 L639.609 191.317 L637.897 186.733 Q636.809 183.817 634.332 183.817 L632.11 183.817 L632.11 180.159 L634.818 180.206 Q640.049 180.275 641.508 184.21 Z" fill="#000000" fill-rule="nonzero" fill-opacity="1" /><path clip-path="url(#clip890)" d="M669.586 180.206 Q666.484 185.53 664.98 190.738 Q663.475 195.946 663.475 201.293 Q663.475 206.641 664.98 211.895 Q666.507 217.127 669.586 222.428 L665.882 222.428 Q662.41 216.988 660.674 211.733 Q658.961 206.479 658.961 201.293 Q658.961 196.131 660.674 190.9 Q662.387 185.668 665.882 180.206 L669.586 180.206 Z" fill="#000000" fill-rule="nonzero" fill-opacity="1" /><path clip-path="url(#clip890)" d="M682.063 182.891 L682.063 190.252 L690.836 190.252 L690.836 193.562 L682.063 193.562 L682.063 207.636 Q682.063 210.807 682.919 211.71 Q683.799 212.613 686.461 212.613 L690.836 212.613 L690.836 216.178 L686.461 216.178 Q681.531 216.178 679.656 214.349 Q677.781 212.497 677.781 207.636 L677.781 193.562 L674.656 193.562 L674.656 190.252 L677.781 190.252 L677.781 182.891 L682.063 182.891 Z" fill="#000000" fill-rule="nonzero" fill-opacity="1" /><path clip-path="url(#clip890)" d="M695.767 180.206 L699.47 180.206 Q702.942 185.668 704.655 190.9 Q706.392 196.131 706.392 201.293 Q706.392 206.479 704.655 211.733 Q702.942 216.988 699.47 222.428 L695.767 222.428 Q698.845 217.127 700.35 211.895 Q701.878 206.641 701.878 201.293 Q701.878 195.946 700.35 190.738 Q698.845 185.53 695.767 180.206 Z" fill="#000000" fill-rule="nonzero" fill-opacity="1" /><path clip-path="url(#clip890)" d="M714.262 180.206 L717.966 180.206 Q721.438 185.668 723.151 190.9 Q724.887 196.131 724.887 201.293 Q724.887 206.479 723.151 211.733 Q721.438 216.988 717.966 222.428 L714.262 222.428 Q717.341 217.127 718.845 211.895 Q720.373 206.641 720.373 201.293 Q720.373 195.946 718.845 190.738 Q717.341 185.53 714.262 180.206 Z" fill="#000000" fill-rule="nonzero" fill-opacity="1" /><polyline clip-path="url(#clip890)" style="stroke:#3da44d; stroke-linecap:round; stroke-linejoin:round; stroke-width:4; stroke-opacity:1; fill:none" points="275.484,250.738 420.41,250.738 "/>
<path clip-path="url(#clip890)" d="M444.564 233.458 L449.24 233.458 L449.24 247.624 L466.231 247.624 L466.231 233.458 L470.907 233.458 L470.907 268.018 L466.231 268.018 L466.231 251.559 L449.24 251.559 L449.24 268.018 L444.564 268.018 L444.564 233.458 Z" fill="#000000" fill-rule="nonzero" fill-opacity="1" /><path clip-path="url(#clip890)" d="M488.754 252.346 Q487.596 250.356 485.258 250.356 Q482.92 250.356 481.763 252.346 Q480.583 254.337 480.583 258.319 Q480.583 262.323 481.763 264.314 Q482.92 266.305 485.258 266.305 Q487.596 266.305 488.754 264.314 Q489.934 262.323 489.934 258.319 Q489.934 254.337 488.754 252.346 M485.258 248.295 Q488.985 248.295 490.953 250.865 Q492.92 253.434 492.92 258.319 Q492.92 263.226 490.953 265.795 Q488.985 268.365 485.258 268.365 Q481.508 268.365 479.541 265.795 Q477.573 263.226 477.573 258.319 Q477.573 253.434 479.541 250.865 Q481.508 248.295 485.258 248.295 Z" fill="#000000" fill-rule="nonzero" fill-opacity="1" /><path clip-path="url(#clip890)" d="M498.175 265.471 L502.897 265.471 L502.897 251.328 L497.735 252.277 L497.735 249.592 L503.059 248.689 L506.231 248.689 L506.231 265.471 L510.976 265.471 L510.976 268.018 L498.175 268.018 L498.175 265.471 Z" fill="#000000" fill-rule="nonzero" fill-opacity="1" /><path clip-path="url(#clip890)" d="M528.267 232.046 Q525.166 237.37 523.661 242.578 Q522.156 247.786 522.156 253.133 Q522.156 258.481 523.661 263.735 Q525.189 268.967 528.267 274.268 L524.564 274.268 Q521.092 268.828 519.355 263.573 Q517.643 258.319 517.643 253.133 Q517.643 247.971 519.355 242.74 Q521.068 237.508 524.564 232.046 L528.267 232.046 Z" fill="#000000" fill-rule="nonzero" fill-opacity="1" /><path clip-path="url(#clip890)" d="M558.082 242.092 L548.707 254.707 L558.568 268.018 L553.545 268.018 L545.999 257.832 L538.453 268.018 L533.429 268.018 L543.499 254.453 L534.286 242.092 L539.309 242.092 L546.184 251.328 L553.059 242.092 L558.082 242.092 Z" fill="#000000" fill-rule="nonzero" fill-opacity="1" /><path clip-path="url(#clip890)" d="M574.818 232.046 Q571.716 237.37 570.212 242.578 Q568.707 247.786 568.707 253.133 Q568.707 258.481 570.212 263.735 Q571.739 268.967 574.818 274.268 L571.114 274.268 Q567.642 268.828 565.906 263.573 Q564.193 258.319 564.193 253.133 Q564.193 247.971 565.906 242.74 Q567.619 237.508 571.114 232.046 L574.818 232.046 Z" fill="#000000" fill-rule="nonzero" fill-opacity="1" /><path clip-path="url(#clip890)" d="M587.295 234.731 L587.295 242.092 L596.068 242.092 L596.068 245.402 L587.295 245.402 L587.295 259.476 Q587.295 262.647 588.151 263.55 Q589.031 264.453 591.693 264.453 L596.068 264.453 L596.068 268.018 L591.693 268.018 Q586.763 268.018 584.888 266.189 Q583.013 264.337 583.013 259.476 L583.013 245.402 L579.888 245.402 L579.888 242.092 L583.013 242.092 L583.013 234.731 L587.295 234.731 Z" fill="#000000" fill-rule="nonzero" fill-opacity="1" /><path clip-path="url(#clip890)" d="M600.999 232.046 L604.702 232.046 Q608.174 237.508 609.887 242.74 Q611.624 247.971 611.624 253.133 Q611.624 258.319 609.887 263.573 Q608.174 268.828 604.702 274.268 L600.999 274.268 Q604.077 268.967 605.582 263.735 Q607.11 258.481 607.11 253.133 Q607.11 247.786 605.582 242.578 Q604.077 237.37 600.999 232.046 Z" fill="#000000" fill-rule="nonzero" fill-opacity="1" /><path clip-path="url(#clip890)" d="M621.253 262.138 L626.137 262.138 L626.137 266.119 L622.341 273.527 L619.355 273.527 L621.253 266.119 L621.253 262.138 Z" fill="#000000" fill-rule="nonzero" fill-opacity="1" /><path clip-path="url(#clip890)" d="M660.512 236.05 L672.48 268.018 L667.966 268.018 L660.697 248.851 L651.762 268.018 L647.248 268.018 L658.614 243.157 L656.901 238.573 Q655.813 235.657 653.336 235.657 L651.114 235.657 L651.114 231.999 L653.822 232.046 Q659.054 232.115 660.512 236.05 Z" fill="#000000" fill-rule="nonzero" fill-opacity="1" /><path clip-path="url(#clip890)" d="M688.591 232.046 Q685.489 237.37 683.984 242.578 Q682.48 247.786 682.48 253.133 Q682.48 258.481 683.984 263.735 Q685.512 268.967 688.591 274.268 L684.887 274.268 Q681.415 268.828 679.679 263.573 Q677.966 258.319 677.966 253.133 Q677.966 247.971 679.679 242.74 Q681.392 237.508 684.887 232.046 L688.591 232.046 Z" fill="#000000" fill-rule="nonzero" fill-opacity="1" /><path clip-path="url(#clip890)" d="M701.067 234.731 L701.067 242.092 L709.841 242.092 L709.841 245.402 L701.067 245.402 L701.067 259.476 Q701.067 262.647 701.924 263.55 Q702.804 264.453 705.466 264.453 L709.841 264.453 L709.841 268.018 L705.466 268.018 Q700.535 268.018 698.66 266.189 Q696.785 264.337 696.785 259.476 L696.785 245.402 L693.66 245.402 L693.66 242.092 L696.785 242.092 L696.785 234.731 L701.067 234.731 Z" fill="#000000" fill-rule="nonzero" fill-opacity="1" /><path clip-path="url(#clip890)" d="M714.771 232.046 L718.475 232.046 Q721.947 237.508 723.66 242.74 Q725.396 247.971 725.396 253.133 Q725.396 258.319 723.66 263.573 Q721.947 268.828 718.475 274.268 L714.771 274.268 Q717.85 268.967 719.354 263.735 Q720.882 258.481 720.882 253.133 Q720.882 247.786 719.354 242.578 Q717.85 237.37 714.771 232.046 Z" fill="#000000" fill-rule="nonzero" fill-opacity="1" /><path clip-path="url(#clip890)" d="M733.266 232.046 L736.97 232.046 Q740.442 237.508 742.155 242.74 Q743.891 247.971 743.891 253.133 Q743.891 258.319 742.155 263.573 Q740.442 268.828 736.97 274.268 L733.266 274.268 Q736.345 268.967 737.85 263.735 Q739.377 258.481 739.377 253.133 Q739.377 247.786 737.85 242.578 Q736.345 237.37 733.266 232.046 Z" fill="#000000" fill-rule="nonzero" fill-opacity="1" /></svg>
