<?xml version="1.0" encoding="utf-8"?>
<svg xmlns="http://www.w3.org/2000/svg" xmlns:xlink="http://www.w3.org/1999/xlink" width="600" height="400" viewBox="0 0 2400 1600">
<defs>
  <clipPath id="clip600">
    <rect x="0" y="0" width="2400" height="1600"/>
  </clipPath>
</defs>
<path clip-path="url(#clip600)" d="M0 1600 L2400 1600 L2400 0 L0 0  Z" fill="#ffffff" fill-rule="evenodd" fill-opacity="1"/>
<defs>
  <clipPath id="clip601">
    <rect x="480" y="0" width="1681" height="1600"/>
  </clipPath>
</defs>
<path clip-path="url(#clip600)" d="M194.422 1486.45 L2352.76 1486.45 L2352.76 47.2441 L194.422 47.2441  Z" fill="#ffffff" fill-rule="evenodd" fill-opacity="1"/>
<defs>
  <clipPath id="clip602">
    <rect x="194" y="47" width="2159" height="1440"/>
  </clipPath>
</defs>
<polyline clip-path="url(#clip602)" style="stroke:#000000; stroke-linecap:round; stroke-linejoin:round; stroke-width:2; stroke-opacity:0.1; fill:none" points="255.507,1486.45 255.507,47.2441 "/>
<polyline clip-path="url(#clip602)" style="stroke:#000000; stroke-linecap:round; stroke-linejoin:round; stroke-width:2; stroke-opacity:0.1; fill:none" points="764.548,1486.45 764.548,47.2441 "/>
<polyline clip-path="url(#clip602)" style="stroke:#000000; stroke-linecap:round; stroke-linejoin:round; stroke-width:2; stroke-opacity:0.1; fill:none" points="1273.59,1486.45 1273.59,47.2441 "/>
<polyline clip-path="url(#clip602)" style="stroke:#000000; stroke-linecap:round; stroke-linejoin:round; stroke-width:2; stroke-opacity:0.1; fill:none" points="1782.63,1486.45 1782.63,47.2441 "/>
<polyline clip-path="url(#clip602)" style="stroke:#000000; stroke-linecap:round; stroke-linejoin:round; stroke-width:2; stroke-opacity:0.1; fill:none" points="2291.67,1486.45 2291.67,47.2441 "/>
<polyline clip-path="url(#clip602)" style="stroke:#000000; stroke-linecap:round; stroke-linejoin:round; stroke-width:2; stroke-opacity:0.1; fill:none" points="194.422,1231.04 2352.76,1231.04 "/>
<polyline clip-path="url(#clip602)" style="stroke:#000000; stroke-linecap:round; stroke-linejoin:round; stroke-width:2; stroke-opacity:0.1; fill:none" points="194.422,944.813 2352.76,944.813 "/>
<polyline clip-path="url(#clip602)" style="stroke:#000000; stroke-linecap:round; stroke-linejoin:round; stroke-width:2; stroke-opacity:0.1; fill:none" points="194.422,658.584 2352.76,658.584 "/>
<polyline clip-path="url(#clip602)" style="stroke:#000000; stroke-linecap:round; stroke-linejoin:round; stroke-width:2; stroke-opacity:0.1; fill:none" points="194.422,372.354 2352.76,372.354 "/>
<polyline clip-path="url(#clip602)" style="stroke:#000000; stroke-linecap:round; stroke-linejoin:round; stroke-width:2; stroke-opacity:0.1; fill:none" points="194.422,86.1239 2352.76,86.1239 "/>
<polyline clip-path="url(#clip600)" style="stroke:#000000; stroke-linecap:round; stroke-linejoin:round; stroke-width:4; stroke-opacity:1; fill:none" points="194.422,1486.45 2352.76,1486.45 "/>
<polyline clip-path="url(#clip600)" style="stroke:#000000; stroke-linecap:round; stroke-linejoin:round; stroke-width:4; stroke-opacity:1; fill:none" points="255.507,1486.45 255.507,1467.55 "/>
<polyline clip-path="url(#clip600)" style="stroke:#000000; stroke-linecap:round; stroke-linejoin:round; stroke-width:4; stroke-opacity:1; fill:none" points="764.548,1486.45 764.548,1467.55 "/>
<polyline clip-path="url(#clip600)" style="stroke:#000000; stroke-linecap:round; stroke-linejoin:round; stroke-width:4; stroke-opacity:1; fill:none" points="1273.59,1486.45 1273.59,1467.55 "/>
<polyline clip-path="url(#clip600)" style="stroke:#000000; stroke-linecap:round; stroke-linejoin:round; stroke-width:4; stroke-opacity:1; fill:none" points="1782.63,1486.45 1782.63,1467.55 "/>
<polyline clip-path="url(#clip600)" style="stroke:#000000; stroke-linecap:round; stroke-linejoin:round; stroke-width:4; stroke-opacity:1; fill:none" points="2291.67,1486.45 2291.67,1467.55 "/>
<path clip-path="url(#clip600)" d="M232.891 1517.37 Q229.28 1517.37 227.452 1520.93 Q225.646 1524.47 225.646 1531.6 Q225.646 1538.71 227.452 1542.27 Q229.28 1545.82 232.891 1545.82 Q236.526 1545.82 238.331 1542.27 Q240.16 1538.71 240.16 1531.6 Q240.16 1524.47 238.331 1520.93 Q236.526 1517.37 232.891 1517.37 M232.891 1513.66 Q238.702 1513.66 241.757 1518.27 Q244.836 1522.85 244.836 1531.6 Q244.836 1540.33 241.757 1544.94 Q238.702 1549.52 232.891 1549.52 Q227.081 1549.52 224.003 1544.94 Q220.947 1540.33 220.947 1531.6 Q220.947 1522.85 224.003 1518.27 Q227.081 1513.66 232.891 1513.66 Z" fill="#000000" fill-rule="nonzero" fill-opacity="1" /><path clip-path="url(#clip600)" d="M253.053 1542.97 L257.938 1542.97 L257.938 1548.85 L253.053 1548.85 L253.053 1542.97 Z" fill="#000000" fill-rule="nonzero" fill-opacity="1" /><path clip-path="url(#clip600)" d="M278.123 1517.37 Q274.512 1517.37 272.683 1520.93 Q270.877 1524.47 270.877 1531.6 Q270.877 1538.71 272.683 1542.27 Q274.512 1545.82 278.123 1545.82 Q281.757 1545.82 283.562 1542.27 Q285.391 1538.71 285.391 1531.6 Q285.391 1524.47 283.562 1520.93 Q281.757 1517.37 278.123 1517.37 M278.123 1513.66 Q283.933 1513.66 286.988 1518.27 Q290.067 1522.85 290.067 1531.6 Q290.067 1540.33 286.988 1544.94 Q283.933 1549.52 278.123 1549.52 Q272.312 1549.52 269.234 1544.94 Q266.178 1540.33 266.178 1531.6 Q266.178 1522.85 269.234 1518.27 Q272.312 1513.66 278.123 1513.66 Z" fill="#000000" fill-rule="nonzero" fill-opacity="1" /><path clip-path="url(#clip600)" d="M736.284 1544.91 L752.604 1544.91 L752.604 1548.85 L730.659 1548.85 L730.659 1544.91 Q733.321 1542.16 737.905 1537.53 Q742.511 1532.88 743.692 1531.53 Q745.937 1529.01 746.817 1527.27 Q747.719 1525.51 747.719 1523.82 Q747.719 1521.07 745.775 1519.33 Q743.854 1517.6 740.752 1517.6 Q738.553 1517.6 736.099 1518.36 Q733.669 1519.13 730.891 1520.68 L730.891 1515.95 Q733.715 1514.82 736.169 1514.24 Q738.622 1513.66 740.659 1513.66 Q746.03 1513.66 749.224 1516.35 Q752.418 1519.03 752.418 1523.52 Q752.418 1525.65 751.608 1527.57 Q750.821 1529.47 748.715 1532.07 Q748.136 1532.74 745.034 1535.95 Q741.932 1539.15 736.284 1544.91 Z" fill="#000000" fill-rule="nonzero" fill-opacity="1" /><path clip-path="url(#clip600)" d="M762.418 1542.97 L767.303 1542.97 L767.303 1548.85 L762.418 1548.85 L762.418 1542.97 Z" fill="#000000" fill-rule="nonzero" fill-opacity="1" /><path clip-path="url(#clip600)" d="M777.534 1514.29 L795.89 1514.29 L795.89 1518.22 L781.816 1518.22 L781.816 1526.7 Q782.835 1526.35 783.853 1526.19 Q784.872 1526 785.89 1526 Q791.677 1526 795.057 1529.17 Q798.437 1532.34 798.437 1537.76 Q798.437 1543.34 794.965 1546.44 Q791.492 1549.52 785.173 1549.52 Q782.997 1549.52 780.728 1549.15 Q778.483 1548.78 776.076 1548.04 L776.076 1543.34 Q778.159 1544.47 780.381 1545.03 Q782.603 1545.58 785.08 1545.58 Q789.085 1545.58 791.423 1543.48 Q793.761 1541.37 793.761 1537.76 Q793.761 1534.15 791.423 1532.04 Q789.085 1529.94 785.08 1529.94 Q783.205 1529.94 781.33 1530.35 Q779.478 1530.77 777.534 1531.65 L777.534 1514.29 Z" fill="#000000" fill-rule="nonzero" fill-opacity="1" /><path clip-path="url(#clip600)" d="M1240.75 1514.29 L1259.11 1514.29 L1259.11 1518.22 L1245.04 1518.22 L1245.04 1526.7 Q1246.05 1526.35 1247.07 1526.19 Q1248.09 1526 1249.11 1526 Q1254.9 1526 1258.28 1529.17 Q1261.66 1532.34 1261.66 1537.76 Q1261.66 1543.34 1258.18 1546.44 Q1254.71 1549.52 1248.39 1549.52 Q1246.22 1549.52 1243.95 1549.15 Q1241.7 1548.78 1239.3 1548.04 L1239.3 1543.34 Q1241.38 1544.47 1243.6 1545.03 Q1245.82 1545.58 1248.3 1545.58 Q1252.3 1545.58 1254.64 1543.48 Q1256.98 1541.37 1256.98 1537.76 Q1256.98 1534.15 1254.64 1532.04 Q1252.3 1529.94 1248.3 1529.94 Q1246.42 1529.94 1244.55 1530.35 Q1242.7 1530.77 1240.75 1531.65 L1240.75 1514.29 Z" fill="#000000" fill-rule="nonzero" fill-opacity="1" /><path clip-path="url(#clip600)" d="M1270.87 1542.97 L1275.75 1542.97 L1275.75 1548.85 L1270.87 1548.85 L1270.87 1542.97 Z" fill="#000000" fill-rule="nonzero" fill-opacity="1" /><path clip-path="url(#clip600)" d="M1295.94 1517.37 Q1292.33 1517.37 1290.5 1520.93 Q1288.69 1524.47 1288.69 1531.6 Q1288.69 1538.71 1290.5 1542.27 Q1292.33 1545.82 1295.94 1545.82 Q1299.57 1545.82 1301.38 1542.27 Q1303.21 1538.71 1303.21 1531.6 Q1303.21 1524.47 1301.38 1520.93 Q1299.57 1517.37 1295.94 1517.37 M1295.94 1513.66 Q1301.75 1513.66 1304.8 1518.27 Q1307.88 1522.85 1307.88 1531.6 Q1307.88 1540.33 1304.8 1544.94 Q1301.75 1549.52 1295.94 1549.52 Q1290.13 1549.52 1287.05 1544.94 Q1283.99 1540.33 1283.99 1531.6 Q1283.99 1522.85 1287.05 1518.27 Q1290.13 1513.66 1295.94 1513.66 Z" fill="#000000" fill-rule="nonzero" fill-opacity="1" /><path clip-path="url(#clip600)" d="M1748.95 1514.29 L1771.17 1514.29 L1771.17 1516.28 L1758.63 1548.85 L1753.74 1548.85 L1765.55 1518.22 L1748.95 1518.22 L1748.95 1514.29 Z" fill="#000000" fill-rule="nonzero" fill-opacity="1" /><path clip-path="url(#clip600)" d="M1780.29 1542.97 L1785.18 1542.97 L1785.18 1548.85 L1780.29 1548.85 L1780.29 1542.97 Z" fill="#000000" fill-rule="nonzero" fill-opacity="1" /><path clip-path="url(#clip600)" d="M1795.41 1514.29 L1813.76 1514.29 L1813.76 1518.22 L1799.69 1518.22 L1799.69 1526.7 Q1800.71 1526.35 1801.73 1526.19 Q1802.75 1526 1803.76 1526 Q1809.55 1526 1812.93 1529.17 Q1816.31 1532.34 1816.31 1537.76 Q1816.31 1543.34 1812.84 1546.44 Q1809.37 1549.52 1803.05 1549.52 Q1800.87 1549.52 1798.6 1549.15 Q1796.36 1548.78 1793.95 1548.04 L1793.95 1543.34 Q1796.03 1544.47 1798.25 1545.03 Q1800.48 1545.58 1802.95 1545.58 Q1806.96 1545.58 1809.3 1543.48 Q1811.63 1541.37 1811.63 1537.76 Q1811.63 1534.15 1809.3 1532.04 Q1806.96 1529.94 1802.95 1529.94 Q1801.08 1529.94 1799.2 1530.35 Q1797.35 1530.77 1795.41 1531.65 L1795.41 1514.29 Z" fill="#000000" fill-rule="nonzero" fill-opacity="1" /><path clip-path="url(#clip600)" d="M2243.74 1544.91 L2251.38 1544.91 L2251.38 1518.55 L2243.07 1520.21 L2243.07 1515.95 L2251.34 1514.29 L2256.01 1514.29 L2256.01 1544.91 L2263.65 1544.91 L2263.65 1548.85 L2243.74 1548.85 L2243.74 1544.91 Z" fill="#000000" fill-rule="nonzero" fill-opacity="1" /><path clip-path="url(#clip600)" d="M2283.09 1517.37 Q2279.48 1517.37 2277.65 1520.93 Q2275.85 1524.47 2275.85 1531.6 Q2275.85 1538.71 2277.65 1542.27 Q2279.48 1545.82 2283.09 1545.82 Q2286.73 1545.82 2288.53 1542.27 Q2290.36 1538.71 2290.36 1531.6 Q2290.36 1524.47 2288.53 1520.93 Q2286.73 1517.37 2283.09 1517.37 M2283.09 1513.66 Q2288.9 1513.66 2291.96 1518.27 Q2295.04 1522.85 2295.04 1531.6 Q2295.04 1540.33 2291.96 1544.94 Q2288.9 1549.52 2283.09 1549.52 Q2277.28 1549.52 2274.21 1544.94 Q2271.15 1540.33 2271.15 1531.6 Q2271.15 1522.85 2274.21 1518.27 Q2277.28 1513.66 2283.09 1513.66 Z" fill="#000000" fill-rule="nonzero" fill-opacity="1" /><path clip-path="url(#clip600)" d="M2303.26 1542.97 L2308.14 1542.97 L2308.14 1548.85 L2303.26 1548.85 L2303.26 1542.97 Z" fill="#000000" fill-rule="nonzero" fill-opacity="1" /><path clip-path="url(#clip600)" d="M2328.33 1517.37 Q2324.71 1517.37 2322.89 1520.93 Q2321.08 1524.47 2321.08 1531.6 Q2321.08 1538.71 2322.89 1542.27 Q2324.71 1545.82 2328.33 1545.82 Q2331.96 1545.82 2333.77 1542.27 Q2335.59 1538.71 2335.59 1531.6 Q2335.59 1524.47 2333.77 1520.93 Q2331.96 1517.37 2328.33 1517.37 M2328.33 1513.66 Q2334.14 1513.66 2337.19 1518.27 Q2340.27 1522.85 2340.27 1531.6 Q2340.27 1540.33 2337.19 1544.94 Q2334.14 1549.52 2328.33 1549.52 Q2322.52 1549.52 2319.44 1544.94 Q2316.38 1540.33 2316.38 1531.6 Q2316.38 1522.85 2319.44 1518.27 Q2322.52 1513.66 2328.33 1513.66 Z" fill="#000000" fill-rule="nonzero" fill-opacity="1" /><polyline clip-path="url(#clip600)" style="stroke:#000000; stroke-linecap:round; stroke-linejoin:round; stroke-width:4; stroke-opacity:1; fill:none" points="194.422,1486.45 194.422,47.2441 "/>
<polyline clip-path="url(#clip600)" style="stroke:#000000; stroke-linecap:round; stroke-linejoin:round; stroke-width:4; stroke-opacity:1; fill:none" points="194.422,1231.04 213.32,1231.04 "/>
<polyline clip-path="url(#clip600)" style="stroke:#000000; stroke-linecap:round; stroke-linejoin:round; stroke-width:4; stroke-opacity:1; fill:none" points="194.422,944.813 213.32,944.813 "/>
<polyline clip-path="url(#clip600)" style="stroke:#000000; stroke-linecap:round; stroke-linejoin:round; stroke-width:4; stroke-opacity:1; fill:none" points="194.422,658.584 213.32,658.584 "/>
<polyline clip-path="url(#clip600)" style="stroke:#000000; stroke-linecap:round; stroke-linejoin:round; stroke-width:4; stroke-opacity:1; fill:none" points="194.422,372.354 213.32,372.354 "/>
<polyline clip-path="url(#clip600)" style="stroke:#000000; stroke-linecap:round; stroke-linejoin:round; stroke-width:4; stroke-opacity:1; fill:none" points="194.422,86.1239 213.32,86.1239 "/>
<path clip-path="url(#clip600)" d="M51.3162 1231.49 L80.992 1231.49 L80.992 1235.43 L51.3162 1235.43 L51.3162 1231.49 Z" fill="#000000" fill-rule="nonzero" fill-opacity="1" /><path clip-path="url(#clip600)" d="M101.084 1216.84 Q97.4734 1216.84 95.6447 1220.41 Q93.8391 1223.95 93.8391 1231.08 Q93.8391 1238.18 95.6447 1241.75 Q97.4734 1245.29 101.084 1245.29 Q104.719 1245.29 106.524 1241.75 Q108.353 1238.18 108.353 1231.08 Q108.353 1223.95 106.524 1220.41 Q104.719 1216.84 101.084 1216.84 M101.084 1213.14 Q106.895 1213.14 109.95 1217.74 Q113.029 1222.33 113.029 1231.08 Q113.029 1239.8 109.95 1244.41 Q106.895 1248.99 101.084 1248.99 Q95.2743 1248.99 92.1956 1244.41 Q89.1401 1239.8 89.1401 1231.08 Q89.1401 1222.33 92.1956 1217.74 Q95.2743 1213.14 101.084 1213.14 Z" fill="#000000" fill-rule="nonzero" fill-opacity="1" /><path clip-path="url(#clip600)" d="M121.246 1242.44 L126.131 1242.44 L126.131 1248.32 L121.246 1248.32 L121.246 1242.44 Z" fill="#000000" fill-rule="nonzero" fill-opacity="1" /><path clip-path="url(#clip600)" d="M146.894 1229.18 Q143.746 1229.18 141.894 1231.33 Q140.066 1233.49 140.066 1237.24 Q140.066 1240.96 141.894 1243.14 Q143.746 1245.29 146.894 1245.29 Q150.043 1245.29 151.871 1243.14 Q153.723 1240.96 153.723 1237.24 Q153.723 1233.49 151.871 1231.33 Q150.043 1229.18 146.894 1229.18 M156.177 1214.53 L156.177 1218.79 Q154.417 1217.95 152.612 1217.51 Q150.83 1217.07 149.07 1217.07 Q144.441 1217.07 141.987 1220.2 Q139.556 1223.32 139.209 1229.64 Q140.575 1227.63 142.635 1226.56 Q144.695 1225.48 147.172 1225.48 Q152.38 1225.48 155.39 1228.65 Q158.422 1231.8 158.422 1237.24 Q158.422 1242.56 155.274 1245.78 Q152.126 1248.99 146.894 1248.99 Q140.899 1248.99 137.728 1244.41 Q134.556 1239.8 134.556 1231.08 Q134.556 1222.88 138.445 1218.02 Q142.334 1213.14 148.885 1213.14 Q150.644 1213.14 152.427 1213.49 Q154.232 1213.83 156.177 1214.53 Z" fill="#000000" fill-rule="nonzero" fill-opacity="1" /><path clip-path="url(#clip600)" d="M50.9921 945.265 L80.6679 945.265 L80.6679 949.2 L50.9921 949.2 L50.9921 945.265 Z" fill="#000000" fill-rule="nonzero" fill-opacity="1" /><path clip-path="url(#clip600)" d="M100.76 930.612 Q97.1493 930.612 95.3206 934.177 Q93.515 937.719 93.515 944.848 Q93.515 951.955 95.3206 955.519 Q97.1493 959.061 100.76 959.061 Q104.395 959.061 106.2 955.519 Q108.029 951.955 108.029 944.848 Q108.029 937.719 106.2 934.177 Q104.395 930.612 100.76 930.612 M100.76 926.908 Q106.571 926.908 109.626 931.515 Q112.705 936.098 112.705 944.848 Q112.705 953.575 109.626 958.181 Q106.571 962.765 100.76 962.765 Q94.9502 962.765 91.8715 958.181 Q88.816 953.575 88.816 944.848 Q88.816 936.098 91.8715 931.515 Q94.9502 926.908 100.76 926.908 Z" fill="#000000" fill-rule="nonzero" fill-opacity="1" /><path clip-path="url(#clip600)" d="M120.922 956.214 L125.807 956.214 L125.807 962.093 L120.922 962.093 L120.922 956.214 Z" fill="#000000" fill-rule="nonzero" fill-opacity="1" /><path clip-path="url(#clip600)" d="M148.839 931.608 L137.033 950.056 L148.839 950.056 L148.839 931.608 M147.612 927.533 L153.492 927.533 L153.492 950.056 L158.422 950.056 L158.422 953.945 L153.492 953.945 L153.492 962.093 L148.839 962.093 L148.839 953.945 L133.237 953.945 L133.237 949.431 L147.612 927.533 Z" fill="#000000" fill-rule="nonzero" fill-opacity="1" /><path clip-path="url(#clip600)" d="M53.0754 659.035 L82.7512 659.035 L82.7512 662.97 L53.0754 662.97 L53.0754 659.035 Z" fill="#000000" fill-rule="nonzero" fill-opacity="1" /><path clip-path="url(#clip600)" d="M102.844 644.382 Q99.2326 644.382 97.4039 647.947 Q95.5984 651.489 95.5984 658.618 Q95.5984 665.725 97.4039 669.29 Q99.2326 672.831 102.844 672.831 Q106.478 672.831 108.283 669.29 Q110.112 665.725 110.112 658.618 Q110.112 651.489 108.283 647.947 Q106.478 644.382 102.844 644.382 M102.844 640.679 Q108.654 640.679 111.709 645.285 Q114.788 649.868 114.788 658.618 Q114.788 667.345 111.709 671.952 Q108.654 676.535 102.844 676.535 Q97.0335 676.535 93.9549 671.952 Q90.8993 667.345 90.8993 658.618 Q90.8993 649.868 93.9549 645.285 Q97.0335 640.679 102.844 640.679 Z" fill="#000000" fill-rule="nonzero" fill-opacity="1" /><path clip-path="url(#clip600)" d="M123.006 669.984 L127.89 669.984 L127.89 675.864 L123.006 675.864 L123.006 669.984 Z" fill="#000000" fill-rule="nonzero" fill-opacity="1" /><path clip-path="url(#clip600)" d="M142.103 671.928 L158.422 671.928 L158.422 675.864 L136.478 675.864 L136.478 671.928 Q139.14 669.174 143.723 664.544 Q148.33 659.891 149.51 658.549 Q151.755 656.026 152.635 654.29 Q153.538 652.53 153.538 650.841 Q153.538 648.086 151.593 646.35 Q149.672 644.614 146.57 644.614 Q144.371 644.614 141.918 645.378 Q139.487 646.142 136.709 647.692 L136.709 642.97 Q139.533 641.836 141.987 641.257 Q144.441 640.679 146.478 640.679 Q151.848 640.679 155.042 643.364 Q158.237 646.049 158.237 650.54 Q158.237 652.669 157.427 654.591 Q156.64 656.489 154.533 659.081 Q153.955 659.753 150.853 662.97 Q147.751 666.165 142.103 671.928 Z" fill="#000000" fill-rule="nonzero" fill-opacity="1" /><path clip-path="url(#clip600)" d="M101.246 358.152 Q97.6354 358.152 95.8067 361.717 Q94.0012 365.259 94.0012 372.388 Q94.0012 379.495 95.8067 383.06 Q97.6354 386.601 101.246 386.601 Q104.881 386.601 106.686 383.06 Q108.515 379.495 108.515 372.388 Q108.515 365.259 106.686 361.717 Q104.881 358.152 101.246 358.152 M101.246 354.449 Q107.057 354.449 110.112 359.055 Q113.191 363.639 113.191 372.388 Q113.191 381.115 110.112 385.722 Q107.057 390.305 101.246 390.305 Q95.4363 390.305 92.3576 385.722 Q89.3021 381.115 89.3021 372.388 Q89.3021 363.639 92.3576 359.055 Q95.4363 354.449 101.246 354.449 Z" fill="#000000" fill-rule="nonzero" fill-opacity="1" /><path clip-path="url(#clip600)" d="M121.408 383.754 L126.293 383.754 L126.293 389.634 L121.408 389.634 L121.408 383.754 Z" fill="#000000" fill-rule="nonzero" fill-opacity="1" /><path clip-path="url(#clip600)" d="M146.478 358.152 Q142.867 358.152 141.038 361.717 Q139.232 365.259 139.232 372.388 Q139.232 379.495 141.038 383.06 Q142.867 386.601 146.478 386.601 Q150.112 386.601 151.918 383.06 Q153.746 379.495 153.746 372.388 Q153.746 365.259 151.918 361.717 Q150.112 358.152 146.478 358.152 M146.478 354.449 Q152.288 354.449 155.343 359.055 Q158.422 363.639 158.422 372.388 Q158.422 381.115 155.343 385.722 Q152.288 390.305 146.478 390.305 Q140.668 390.305 137.589 385.722 Q134.533 381.115 134.533 372.388 Q134.533 363.639 137.589 359.055 Q140.668 354.449 146.478 354.449 Z" fill="#000000" fill-rule="nonzero" fill-opacity="1" /><path clip-path="url(#clip600)" d="M102.844 71.9226 Q99.2326 71.9226 97.4039 75.4874 Q95.5984 79.0291 95.5984 86.1586 Q95.5984 93.2651 97.4039 96.8299 Q99.2326 100.372 102.844 100.372 Q106.478 100.372 108.283 96.8299 Q110.112 93.2651 110.112 86.1586 Q110.112 79.0291 108.283 75.4874 Q106.478 71.9226 102.844 71.9226 M102.844 68.2189 Q108.654 68.2189 111.709 72.8254 Q114.788 77.4087 114.788 86.1586 Q114.788 94.8855 111.709 99.4919 Q108.654 104.075 102.844 104.075 Q97.0335 104.075 93.9549 99.4919 Q90.8993 94.8855 90.8993 86.1586 Q90.8993 77.4087 93.9549 72.8254 Q97.0335 68.2189 102.844 68.2189 Z" fill="#000000" fill-rule="nonzero" fill-opacity="1" /><path clip-path="url(#clip600)" d="M123.006 97.5243 L127.89 97.5243 L127.89 103.404 L123.006 103.404 L123.006 97.5243 Z" fill="#000000" fill-rule="nonzero" fill-opacity="1" /><path clip-path="url(#clip600)" d="M142.103 99.4688 L158.422 99.4688 L158.422 103.404 L136.478 103.404 L136.478 99.4688 Q139.14 96.7141 143.723 92.0845 Q148.33 87.4318 149.51 86.0892 Q151.755 83.5661 152.635 81.83 Q153.538 80.0707 153.538 78.3809 Q153.538 75.6263 151.593 73.8902 Q149.672 72.1541 146.57 72.1541 Q144.371 72.1541 141.918 72.918 Q139.487 73.6819 136.709 75.2328 L136.709 70.5106 Q139.533 69.3763 141.987 68.7976 Q144.441 68.2189 146.478 68.2189 Q151.848 68.2189 155.042 70.9041 Q158.237 73.5893 158.237 78.08 Q158.237 80.2096 157.427 82.1309 Q156.64 84.029 154.533 86.6216 Q153.955 87.2929 150.853 90.5105 Q147.751 93.7049 142.103 99.4688 Z" fill="#000000" fill-rule="nonzero" fill-opacity="1" /><polyline clip-path="url(#clip602)" style="stroke:#009af9; stroke-linecap:round; stroke-linejoin:round; stroke-width:4; stroke-opacity:1; fill:none" points="255.507,1445.72 276.074,1257.28 296.642,1112.13 317.209,996.575 337.776,902.241 358.344,823.704 378.911,757.281 399.478,700.37 420.046,651.078 440.613,607.988 461.18,570.017 481.747,536.319 502.315,506.228 522.882,479.207 543.449,454.821 564.017,432.714 584.584,412.587 605.151,394.195 625.719,377.329 646.286,361.812 666.853,347.494 687.421,334.244 707.988,321.951 728.555,310.518 749.123,299.861 769.69,289.905 790.257,280.586 810.824,271.846 831.392,263.635 851.959,255.906 872.526,248.621 893.094,241.742 913.661,235.239 934.228,229.081 954.796,223.243 975.363,217.701 995.93,212.434 1016.5,207.422 1037.06,202.648 1057.63,198.095 1078.2,193.749 1098.77,189.597 1119.33,185.626 1139.9,181.825 1160.47,178.183 1181.04,174.691 1201.6,171.339 1222.17,168.121 1242.74,165.028 1263.31,162.053 1283.87,159.19 1304.44,156.432 1325.01,153.775 1345.57,151.212 1366.14,148.739 1386.71,146.352 1407.28,144.046 1427.84,141.817 1448.41,139.661 1468.98,137.575 1489.55,135.556 1510.11,133.6 1530.68,131.705 1551.25,129.868 1571.82,128.086 1592.38,126.357 1612.95,124.679 1633.52,123.05 1654.08,121.466 1674.65,119.928 1695.22,118.431 1715.79,116.976 1736.35,115.561 1756.92,114.183 1777.49,112.841 1798.06,111.534 1818.62,110.261 1839.19,109.021 1859.76,107.811 1880.32,106.631 1900.89,105.481 1921.46,104.358 1942.03,103.262 1962.59,102.192 1983.16,101.147 2003.73,100.127 2024.3,99.1292 2044.86,98.1545 2065.43,97.2016 2086,96.2698 2106.57,95.3585 2127.13,94.4669 2147.7,93.5945 2168.27,92.7406 2188.83,91.9048 2209.4,91.0863 2229.97,90.2847 2250.54,89.4995 2271.1,88.7302 2291.67,87.9763 "/>
<circle clip-path="url(#clip602)" cx="632.132" cy="372.354" r="14.4" fill="#e26f46" fill-rule="evenodd" fill-opacity="1" stroke="#000000" stroke-opacity="1" stroke-width="3.2"/>
<path clip-path="url(#clip600)" d="M2007.92 1438.47 L2280.81 1438.47 L2280.81 1282.95 L2007.92 1282.95  Z" fill="#ffffff" fill-rule="evenodd" fill-opacity="1"/>
<polyline clip-path="url(#clip600)" style="stroke:#000000; stroke-linecap:round; stroke-linejoin:round; stroke-width:4; stroke-opacity:1; fill:none" points="2007.92,1438.47 2280.81,1438.47 2280.81,1282.95 2007.92,1282.95 2007.92,1438.47 "/>
<polyline clip-path="url(#clip600)" style="stroke:#009af9; stroke-linecap:round; stroke-linejoin:round; stroke-width:4; stroke-opacity:1; fill:none" points="2031.9,1334.79 2175.79,1334.79 "/>
<path clip-path="url(#clip600)" d="M2210.63 1352.65 Q2205.28 1351.8 2202.8 1349.55 Q2199.77 1346.8 2199.77 1341.17 L2199.77 1326.15 L2204.08 1326.15 L2204.08 1341.01 Q2204.08 1345.25 2206.04 1347 Q2207.76 1348.53 2210.63 1348.86 L2210.63 1326.15 L2214.86 1326.15 L2214.86 1348.83 Q2217.89 1348.51 2219.45 1346.98 Q2221.41 1345.04 2221.41 1340.99 L2221.41 1326.15 L2225.72 1326.15 L2225.72 1341.15 Q2225.72 1346.98 2222.69 1349.53 Q2219.96 1351.82 2214.86 1352.63 L2214.86 1361.94 L2210.63 1361.94 L2210.63 1352.65 Z" fill="#000000" fill-rule="nonzero" fill-opacity="1" /><circle clip-path="url(#clip600)" cx="2103.84" cy="1386.63" r="20.48" fill="#e26f46" fill-rule="evenodd" fill-opacity="1" stroke="#000000" stroke-opacity="1" stroke-width="4.55111"/>
<path clip-path="url(#clip600)" d="M2220.12 1382.97 Q2221.71 1380.1 2223.94 1378.73 Q2226.16 1377.36 2229.17 1377.36 Q2233.22 1377.36 2235.42 1380.21 Q2237.62 1383.03 2237.62 1388.27 L2237.62 1403.91 L2233.33 1403.91 L2233.33 1388.41 Q2233.33 1384.68 2232.02 1382.87 Q2230.7 1381.07 2227.99 1381.07 Q2224.68 1381.07 2222.76 1383.27 Q2220.83 1385.47 2220.83 1389.26 L2220.83 1403.91 L2216.55 1403.91 L2216.55 1388.41 Q2216.55 1384.66 2215.23 1382.87 Q2213.91 1381.07 2211.16 1381.07 Q2207.9 1381.07 2205.97 1383.29 Q2204.05 1385.49 2204.05 1389.26 L2204.05 1403.91 L2199.77 1403.91 L2199.77 1377.99 L2204.05 1377.99 L2204.05 1382.02 Q2205.51 1379.63 2207.55 1378.5 Q2209.58 1377.36 2212.39 1377.36 Q2215.21 1377.36 2217.18 1378.8 Q2219.17 1380.23 2220.12 1382.97 Z" fill="#000000" fill-rule="nonzero" fill-opacity="1" /><path clip-path="url(#clip600)" d="M2255.95 1389.45 L2255.95 1391.69 Q2254.82 1391.18 2253.59 1390.93 Q2252.39 1390.67 2251.07 1390.67 Q2249.05 1390.67 2248.06 1391.21 Q2247.06 1391.76 2247.06 1392.85 Q2247.06 1393.68 2247.78 1394.15 Q2248.5 1394.63 2250.65 1395.05 L2251.58 1395.23 Q2254.47 1395.79 2255.63 1396.76 Q2256.83 1397.76 2256.83 1399.54 Q2256.83 1401.55 2255.02 1402.73 Q2253.24 1403.91 2250.09 1403.91 Q2248.77 1403.91 2247.34 1403.68 Q2245.93 1403.45 2244.35 1403.01 L2244.35 1400.53 Q2245.83 1401.23 2247.29 1401.58 Q2248.73 1401.92 2250.14 1401.92 Q2252.04 1401.92 2253.06 1401.34 Q2254.08 1400.77 2254.08 1399.72 Q2254.08 1398.75 2253.33 1398.22 Q2252.69 1397.76 2250.12 1397.22 L2249.19 1397.04 Q2246.69 1396.55 2245.58 1395.6 Q2244.47 1394.63 2244.47 1392.94 Q2244.47 1390.91 2246.11 1389.79 Q2247.73 1388.66 2250.74 1388.66 Q2252.22 1388.66 2253.54 1388.87 Q2254.86 1389.05 2255.95 1389.45 Z" fill="#000000" fill-rule="nonzero" fill-opacity="1" /></svg>
