<?xml version="1.0" encoding="utf-8"?>
<svg xmlns="http://www.w3.org/2000/svg" xmlns:xlink="http://www.w3.org/1999/xlink" width="600" height="400" viewBox="0 0 2400 1600">
<defs>
  <clipPath id="clip480">
    <rect x="0" y="0" width="2400" height="1600"/>
  </clipPath>
</defs>
<path clip-path="url(#clip480)" d="M0 1600 L2400 1600 L2400 0 L0 0  Z" fill="#ffffff" fill-rule="evenodd" fill-opacity="1"/>
<defs>
  <clipPath id="clip481">
    <rect x="202" y="47" width="2152" height="1377"/>
  </clipPath>
</defs>
<path clip-path="url(#clip480)" d="M202.227 1423.18 L2352.76 1423.18 L2352.76 47.2441 L202.227 47.2441  Z" fill="#ffffff" fill-rule="evenodd" fill-opacity="1"/>
<polyline clip-path="url(#clip481)" style="stroke:#000000; stroke-linecap:round; stroke-linejoin:round; stroke-width:2; stroke-opacity:0.1; fill:none" points="202.227,1423.18 202.227,47.2441 "/>
<polyline clip-path="url(#clip481)" style="stroke:#000000; stroke-linecap:round; stroke-linejoin:round; stroke-width:2; stroke-opacity:0.1; fill:none" points="632.333,1423.18 632.333,47.2441 "/>
<polyline clip-path="url(#clip481)" style="stroke:#000000; stroke-linecap:round; stroke-linejoin:round; stroke-width:2; stroke-opacity:0.1; fill:none" points="1062.44,1423.18 1062.44,47.2441 "/>
<polyline clip-path="url(#clip481)" style="stroke:#000000; stroke-linecap:round; stroke-linejoin:round; stroke-width:2; stroke-opacity:0.1; fill:none" points="1492.54,1423.18 1492.54,47.2441 "/>
<polyline clip-path="url(#clip481)" style="stroke:#000000; stroke-linecap:round; stroke-linejoin:round; stroke-width:2; stroke-opacity:0.1; fill:none" points="1922.65,1423.18 1922.65,47.2441 "/>
<polyline clip-path="url(#clip481)" style="stroke:#000000; stroke-linecap:round; stroke-linejoin:round; stroke-width:2; stroke-opacity:0.1; fill:none" points="2352.76,1423.18 2352.76,47.2441 "/>
<polyline clip-path="url(#clip481)" style="stroke:#000000; stroke-linecap:round; stroke-linejoin:round; stroke-width:2; stroke-opacity:0.1; fill:none" points="202.227,1423.18 2352.76,1423.18 "/>
<polyline clip-path="url(#clip481)" style="stroke:#000000; stroke-linecap:round; stroke-linejoin:round; stroke-width:2; stroke-opacity:0.1; fill:none" points="202.227,1147.99 2352.76,1147.99 "/>
<polyline clip-path="url(#clip481)" style="stroke:#000000; stroke-linecap:round; stroke-linejoin:round; stroke-width:2; stroke-opacity:0.1; fill:none" points="202.227,872.806 2352.76,872.806 "/>
<polyline clip-path="url(#clip481)" style="stroke:#000000; stroke-linecap:round; stroke-linejoin:round; stroke-width:2; stroke-opacity:0.1; fill:none" points="202.227,597.618 2352.76,597.618 "/>
<polyline clip-path="url(#clip481)" style="stroke:#000000; stroke-linecap:round; stroke-linejoin:round; stroke-width:2; stroke-opacity:0.1; fill:none" points="202.227,322.431 2352.76,322.431 "/>
<polyline clip-path="url(#clip481)" style="stroke:#000000; stroke-linecap:round; stroke-linejoin:round; stroke-width:2; stroke-opacity:0.1; fill:none" points="202.227,47.2441 2352.76,47.2441 "/>
<polyline clip-path="url(#clip480)" style="stroke:#000000; stroke-linecap:round; stroke-linejoin:round; stroke-width:4; stroke-opacity:1; fill:none" points="202.227,1423.18 2352.76,1423.18 "/>
<polyline clip-path="url(#clip480)" style="stroke:#000000; stroke-linecap:round; stroke-linejoin:round; stroke-width:4; stroke-opacity:1; fill:none" points="202.227,1423.18 202.227,1404.28 "/>
<polyline clip-path="url(#clip480)" style="stroke:#000000; stroke-linecap:round; stroke-linejoin:round; stroke-width:4; stroke-opacity:1; fill:none" points="632.333,1423.18 632.333,1404.28 "/>
<polyline clip-path="url(#clip480)" style="stroke:#000000; stroke-linecap:round; stroke-linejoin:round; stroke-width:4; stroke-opacity:1; fill:none" points="1062.44,1423.18 1062.44,1404.28 "/>
<polyline clip-path="url(#clip480)" style="stroke:#000000; stroke-linecap:round; stroke-linejoin:round; stroke-width:4; stroke-opacity:1; fill:none" points="1492.54,1423.18 1492.54,1404.28 "/>
<polyline clip-path="url(#clip480)" style="stroke:#000000; stroke-linecap:round; stroke-linejoin:round; stroke-width:4; stroke-opacity:1; fill:none" points="1922.65,1423.18 1922.65,1404.28 "/>
<polyline clip-path="url(#clip480)" style="stroke:#000000; stroke-linecap:round; stroke-linejoin:round; stroke-width:4; stroke-opacity:1; fill:none" points="2352.76,1423.18 2352.76,1404.28 "/>
<path clip-path="url(#clip480)" d="M202.227 1454.1 Q198.616 1454.1 196.788 1457.66 Q194.982 1461.2 194.982 1468.33 Q194.982 1475.44 196.788 1479.01 Q198.616 1482.55 202.227 1482.55 Q205.862 1482.55 207.667 1479.01 Q209.496 1475.44 209.496 1468.33 Q209.496 1461.2 207.667 1457.66 Q205.862 1454.1 202.227 1454.1 M202.227 1450.39 Q208.038 1450.39 211.093 1455 Q214.172 1459.58 214.172 1468.33 Q214.172 1477.06 211.093 1481.67 Q208.038 1486.25 202.227 1486.25 Q196.417 1486.25 193.339 1481.67 Q190.283 1477.06 190.283 1468.33 Q190.283 1459.58 193.339 1455 Q196.417 1450.39 202.227 1450.39 Z" fill="#000000" fill-rule="nonzero" fill-opacity="1" /><path clip-path="url(#clip480)" d="M607.021 1481.64 L614.66 1481.64 L614.66 1455.28 L606.35 1456.95 L606.35 1452.69 L614.613 1451.02 L619.289 1451.02 L619.289 1481.64 L626.928 1481.64 L626.928 1485.58 L607.021 1485.58 L607.021 1481.64 Z" fill="#000000" fill-rule="nonzero" fill-opacity="1" /><path clip-path="url(#clip480)" d="M646.372 1454.1 Q642.761 1454.1 640.933 1457.66 Q639.127 1461.2 639.127 1468.33 Q639.127 1475.44 640.933 1479.01 Q642.761 1482.55 646.372 1482.55 Q650.007 1482.55 651.812 1479.01 Q653.641 1475.44 653.641 1468.33 Q653.641 1461.2 651.812 1457.66 Q650.007 1454.1 646.372 1454.1 M646.372 1450.39 Q652.183 1450.39 655.238 1455 Q658.317 1459.58 658.317 1468.33 Q658.317 1477.06 655.238 1481.67 Q652.183 1486.25 646.372 1486.25 Q640.562 1486.25 637.484 1481.67 Q634.428 1477.06 634.428 1468.33 Q634.428 1459.58 637.484 1455 Q640.562 1450.39 646.372 1450.39 Z" fill="#000000" fill-rule="nonzero" fill-opacity="1" /><path clip-path="url(#clip480)" d="M1041.21 1481.64 L1057.53 1481.64 L1057.53 1485.58 L1035.59 1485.58 L1035.59 1481.64 Q1038.25 1478.89 1042.83 1474.26 Q1047.44 1469.61 1048.62 1468.27 Q1050.86 1465.74 1051.74 1464.01 Q1052.65 1462.25 1052.65 1460.56 Q1052.65 1457.8 1050.7 1456.07 Q1048.78 1454.33 1045.68 1454.33 Q1043.48 1454.33 1041.03 1455.09 Q1038.6 1455.86 1035.82 1457.41 L1035.82 1452.69 Q1038.64 1451.55 1041.1 1450.97 Q1043.55 1450.39 1045.59 1450.39 Q1050.96 1450.39 1054.15 1453.08 Q1057.35 1455.77 1057.35 1460.26 Q1057.35 1462.39 1056.54 1464.31 Q1055.75 1466.2 1053.64 1468.8 Q1053.06 1469.47 1049.96 1472.69 Q1046.86 1475.88 1041.21 1481.64 Z" fill="#000000" fill-rule="nonzero" fill-opacity="1" /><path clip-path="url(#clip480)" d="M1077.35 1454.1 Q1073.74 1454.1 1071.91 1457.66 Q1070.1 1461.2 1070.1 1468.33 Q1070.1 1475.44 1071.91 1479.01 Q1073.74 1482.55 1077.35 1482.55 Q1080.98 1482.55 1082.79 1479.01 Q1084.61 1475.44 1084.61 1468.33 Q1084.61 1461.2 1082.79 1457.66 Q1080.98 1454.1 1077.35 1454.1 M1077.35 1450.39 Q1083.16 1450.39 1086.21 1455 Q1089.29 1459.58 1089.29 1468.33 Q1089.29 1477.06 1086.21 1481.67 Q1083.16 1486.25 1077.35 1486.25 Q1071.54 1486.25 1068.46 1481.67 Q1065.4 1477.06 1065.4 1468.33 Q1065.4 1459.58 1068.46 1455 Q1071.54 1450.39 1077.35 1450.39 Z" fill="#000000" fill-rule="nonzero" fill-opacity="1" /><path clip-path="url(#clip480)" d="M1481.39 1466.95 Q1484.74 1467.66 1486.62 1469.93 Q1488.52 1472.2 1488.52 1475.53 Q1488.52 1480.65 1485 1483.45 Q1481.48 1486.25 1475 1486.25 Q1472.82 1486.25 1470.51 1485.81 Q1468.22 1485.39 1465.76 1484.54 L1465.76 1480.02 Q1467.71 1481.16 1470.02 1481.74 Q1472.34 1482.32 1474.86 1482.32 Q1479.26 1482.32 1481.55 1480.58 Q1483.86 1478.84 1483.86 1475.53 Q1483.86 1472.48 1481.71 1470.77 Q1479.58 1469.03 1475.76 1469.03 L1471.73 1469.03 L1471.73 1465.19 L1475.95 1465.19 Q1479.4 1465.19 1481.23 1463.82 Q1483.05 1462.43 1483.05 1459.84 Q1483.05 1457.18 1481.16 1455.77 Q1479.28 1454.33 1475.76 1454.33 Q1473.84 1454.33 1471.64 1454.75 Q1469.44 1455.16 1466.8 1456.04 L1466.8 1451.88 Q1469.47 1451.14 1471.78 1450.77 Q1474.12 1450.39 1476.18 1450.39 Q1481.5 1450.39 1484.6 1452.83 Q1487.71 1455.23 1487.71 1459.35 Q1487.71 1462.22 1486.06 1464.21 Q1484.42 1466.18 1481.39 1466.95 Z" fill="#000000" fill-rule="nonzero" fill-opacity="1" /><path clip-path="url(#clip480)" d="M1507.38 1454.1 Q1503.77 1454.1 1501.94 1457.66 Q1500.14 1461.2 1500.14 1468.33 Q1500.14 1475.44 1501.94 1479.01 Q1503.77 1482.55 1507.38 1482.55 Q1511.02 1482.55 1512.82 1479.01 Q1514.65 1475.44 1514.65 1468.33 Q1514.65 1461.2 1512.82 1457.66 Q1511.02 1454.1 1507.38 1454.1 M1507.38 1450.39 Q1513.19 1450.39 1516.25 1455 Q1519.33 1459.58 1519.33 1468.33 Q1519.33 1477.06 1516.25 1481.67 Q1513.19 1486.25 1507.38 1486.25 Q1501.57 1486.25 1498.49 1481.67 Q1495.44 1477.06 1495.44 1468.33 Q1495.44 1459.58 1498.49 1455 Q1501.57 1450.39 1507.38 1450.39 Z" fill="#000000" fill-rule="nonzero" fill-opacity="1" /><path clip-path="url(#clip480)" d="M1910.82 1455.09 L1899.02 1473.54 L1910.82 1473.54 L1910.82 1455.09 M1909.59 1451.02 L1915.47 1451.02 L1915.47 1473.54 L1920.4 1473.54 L1920.4 1477.43 L1915.47 1477.43 L1915.47 1485.58 L1910.82 1485.58 L1910.82 1477.43 L1895.22 1477.43 L1895.22 1472.92 L1909.59 1451.02 Z" fill="#000000" fill-rule="nonzero" fill-opacity="1" /><path clip-path="url(#clip480)" d="M1938.14 1454.1 Q1934.53 1454.1 1932.7 1457.66 Q1930.89 1461.2 1930.89 1468.33 Q1930.89 1475.44 1932.7 1479.01 Q1934.53 1482.55 1938.14 1482.55 Q1941.77 1482.55 1943.58 1479.01 Q1945.4 1475.44 1945.4 1468.33 Q1945.4 1461.2 1943.58 1457.66 Q1941.77 1454.1 1938.14 1454.1 M1938.14 1450.39 Q1943.95 1450.39 1947 1455 Q1950.08 1459.58 1950.08 1468.33 Q1950.08 1477.06 1947 1481.67 Q1943.95 1486.25 1938.14 1486.25 Q1932.33 1486.25 1929.25 1481.67 Q1926.19 1477.06 1926.19 1468.33 Q1926.19 1459.58 1929.25 1455 Q1932.33 1450.39 1938.14 1450.39 Z" fill="#000000" fill-rule="nonzero" fill-opacity="1" /><path clip-path="url(#clip480)" d="M2327.46 1451.02 L2345.81 1451.02 L2345.81 1454.96 L2331.74 1454.96 L2331.74 1463.43 Q2332.76 1463.08 2333.77 1462.92 Q2334.79 1462.73 2335.81 1462.73 Q2341.6 1462.73 2344.98 1465.9 Q2348.36 1469.08 2348.36 1474.49 Q2348.36 1480.07 2344.89 1483.17 Q2341.41 1486.25 2335.09 1486.25 Q2332.92 1486.25 2330.65 1485.88 Q2328.4 1485.51 2326 1484.77 L2326 1480.07 Q2328.08 1481.2 2330.3 1481.76 Q2332.52 1482.32 2335 1482.32 Q2339.01 1482.32 2341.34 1480.21 Q2343.68 1478.1 2343.68 1474.49 Q2343.68 1470.88 2341.34 1468.77 Q2339.01 1466.67 2335 1466.67 Q2333.13 1466.67 2331.25 1467.08 Q2329.4 1467.5 2327.46 1468.38 L2327.46 1451.02 Z" fill="#000000" fill-rule="nonzero" fill-opacity="1" /><path clip-path="url(#clip480)" d="M2367.57 1454.1 Q2363.96 1454.1 2362.13 1457.66 Q2360.33 1461.2 2360.33 1468.33 Q2360.33 1475.44 2362.13 1479.01 Q2363.96 1482.55 2367.57 1482.55 Q2371.2 1482.55 2373.01 1479.01 Q2374.84 1475.44 2374.84 1468.33 Q2374.84 1461.2 2373.01 1457.66 Q2371.2 1454.1 2367.57 1454.1 M2367.57 1450.39 Q2373.38 1450.39 2376.44 1455 Q2379.52 1459.58 2379.52 1468.33 Q2379.52 1477.06 2376.44 1481.67 Q2373.38 1486.25 2367.57 1486.25 Q2361.76 1486.25 2358.68 1481.67 Q2355.63 1477.06 2355.63 1468.33 Q2355.63 1459.58 2358.68 1455 Q2361.76 1450.39 2367.57 1450.39 Z" fill="#000000" fill-rule="nonzero" fill-opacity="1" /><path clip-path="url(#clip480)" d="M1279.18 1571.35 Q1276.7 1577.72 1274.34 1579.66 Q1271.99 1581.6 1268.04 1581.6 L1263.36 1581.6 L1263.36 1576.7 L1266.8 1576.7 Q1269.22 1576.7 1270.55 1575.56 Q1271.89 1574.41 1273.51 1570.14 L1274.56 1567.47 L1260.15 1532.4 L1266.35 1532.4 L1277.49 1560.28 L1288.63 1532.4 L1294.84 1532.4 L1279.18 1571.35 Z" fill="#000000" fill-rule="nonzero" fill-opacity="1" /><polyline clip-path="url(#clip480)" style="stroke:#000000; stroke-linecap:round; stroke-linejoin:round; stroke-width:4; stroke-opacity:1; fill:none" points="202.227,1423.18 202.227,47.2441 "/>
<polyline clip-path="url(#clip480)" style="stroke:#000000; stroke-linecap:round; stroke-linejoin:round; stroke-width:4; stroke-opacity:1; fill:none" points="202.227,1423.18 221.125,1423.18 "/>
<polyline clip-path="url(#clip480)" style="stroke:#000000; stroke-linecap:round; stroke-linejoin:round; stroke-width:4; stroke-opacity:1; fill:none" points="202.227,1147.99 221.125,1147.99 "/>
<polyline clip-path="url(#clip480)" style="stroke:#000000; stroke-linecap:round; stroke-linejoin:round; stroke-width:4; stroke-opacity:1; fill:none" points="202.227,872.806 221.125,872.806 "/>
<polyline clip-path="url(#clip480)" style="stroke:#000000; stroke-linecap:round; stroke-linejoin:round; stroke-width:4; stroke-opacity:1; fill:none" points="202.227,597.618 221.125,597.618 "/>
<polyline clip-path="url(#clip480)" style="stroke:#000000; stroke-linecap:round; stroke-linejoin:round; stroke-width:4; stroke-opacity:1; fill:none" points="202.227,322.431 221.125,322.431 "/>
<polyline clip-path="url(#clip480)" style="stroke:#000000; stroke-linecap:round; stroke-linejoin:round; stroke-width:4; stroke-opacity:1; fill:none" points="202.227,47.2441 221.125,47.2441 "/>
<path clip-path="url(#clip480)" d="M154.283 1408.98 Q150.672 1408.98 148.843 1412.54 Q147.038 1416.08 147.038 1423.21 Q147.038 1430.32 148.843 1433.89 Q150.672 1437.43 154.283 1437.43 Q157.917 1437.43 159.723 1433.89 Q161.552 1430.32 161.552 1423.21 Q161.552 1416.08 159.723 1412.54 Q157.917 1408.98 154.283 1408.98 M154.283 1405.27 Q160.093 1405.27 163.149 1409.88 Q166.227 1414.46 166.227 1423.21 Q166.227 1431.94 163.149 1436.55 Q160.093 1441.13 154.283 1441.13 Q148.473 1441.13 145.394 1436.55 Q142.339 1431.94 142.339 1423.21 Q142.339 1414.46 145.394 1409.88 Q148.473 1405.27 154.283 1405.27 Z" fill="#000000" fill-rule="nonzero" fill-opacity="1" /><path clip-path="url(#clip480)" d="M149.908 1161.34 L166.227 1161.34 L166.227 1165.27 L144.283 1165.27 L144.283 1161.34 Q146.945 1158.58 151.528 1153.95 Q156.135 1149.3 157.315 1147.96 Q159.561 1145.43 160.44 1143.7 Q161.343 1141.94 161.343 1140.25 Q161.343 1137.5 159.399 1135.76 Q157.478 1134.02 154.376 1134.02 Q152.177 1134.02 149.723 1134.79 Q147.292 1135.55 144.515 1137.1 L144.515 1132.38 Q147.339 1131.25 149.792 1130.67 Q152.246 1130.09 154.283 1130.09 Q159.653 1130.09 162.848 1132.77 Q166.042 1135.46 166.042 1139.95 Q166.042 1142.08 165.232 1144 Q164.445 1145.9 162.339 1148.49 Q161.76 1149.16 158.658 1152.38 Q155.556 1155.57 149.908 1161.34 Z" fill="#000000" fill-rule="nonzero" fill-opacity="1" /><path clip-path="url(#clip480)" d="M156.644 859.6 L144.839 878.049 L156.644 878.049 L156.644 859.6 M155.417 855.526 L161.297 855.526 L161.297 878.049 L166.227 878.049 L166.227 881.937 L161.297 881.937 L161.297 890.086 L156.644 890.086 L156.644 881.937 L141.042 881.937 L141.042 877.424 L155.417 855.526 Z" fill="#000000" fill-rule="nonzero" fill-opacity="1" /><path clip-path="url(#clip480)" d="M154.7 595.755 Q151.552 595.755 149.7 597.908 Q147.871 600.061 147.871 603.81 Q147.871 607.537 149.7 609.713 Q151.552 611.866 154.7 611.866 Q157.848 611.866 159.677 609.713 Q161.528 607.537 161.528 603.81 Q161.528 600.061 159.677 597.908 Q157.848 595.755 154.7 595.755 M163.982 581.102 L163.982 585.362 Q162.223 584.528 160.417 584.088 Q158.635 583.649 156.876 583.649 Q152.246 583.649 149.792 586.774 Q147.362 589.899 147.015 596.218 Q148.38 594.204 150.441 593.139 Q152.501 592.051 154.978 592.051 Q160.186 592.051 163.195 595.223 Q166.227 598.371 166.227 603.81 Q166.227 609.135 163.079 612.352 Q159.931 615.57 154.7 615.57 Q148.704 615.57 145.533 610.986 Q142.362 606.38 142.362 597.653 Q142.362 589.459 146.251 584.598 Q150.14 579.713 156.69 579.713 Q158.45 579.713 160.232 580.061 Q162.038 580.408 163.982 581.102 Z" fill="#000000" fill-rule="nonzero" fill-opacity="1" /><path clip-path="url(#clip480)" d="M154.376 323.299 Q151.042 323.299 149.121 325.082 Q147.223 326.864 147.223 329.989 Q147.223 333.114 149.121 334.896 Q151.042 336.679 154.376 336.679 Q157.709 336.679 159.63 334.896 Q161.552 333.091 161.552 329.989 Q161.552 326.864 159.63 325.082 Q157.732 323.299 154.376 323.299 M149.7 321.309 Q146.691 320.568 145.001 318.508 Q143.334 316.447 143.334 313.485 Q143.334 309.341 146.274 306.934 Q149.237 304.526 154.376 304.526 Q159.538 304.526 162.477 306.934 Q165.417 309.341 165.417 313.485 Q165.417 316.447 163.727 318.508 Q162.061 320.568 159.075 321.309 Q162.454 322.096 164.329 324.387 Q166.227 326.679 166.227 329.989 Q166.227 335.012 163.149 337.697 Q160.093 340.383 154.376 340.383 Q148.658 340.383 145.579 337.697 Q142.524 335.012 142.524 329.989 Q142.524 326.679 144.422 324.387 Q146.32 322.096 149.7 321.309 M147.987 313.924 Q147.987 316.61 149.653 318.114 Q151.343 319.619 154.376 319.619 Q157.385 319.619 159.075 318.114 Q160.788 316.61 160.788 313.924 Q160.788 311.239 159.075 309.735 Q157.385 308.23 154.376 308.23 Q151.343 308.23 149.653 309.735 Q147.987 311.239 147.987 313.924 Z" fill="#000000" fill-rule="nonzero" fill-opacity="1" /><path clip-path="url(#clip480)" d="M114.931 60.5889 L122.57 60.5889 L122.57 34.2233 L114.26 35.89 L114.26 31.6308 L122.524 29.9641 L127.2 29.9641 L127.2 60.5889 L134.839 60.5889 L134.839 64.5241 L114.931 64.5241 L114.931 60.5889 Z" fill="#000000" fill-rule="nonzero" fill-opacity="1" /><path clip-path="url(#clip480)" d="M154.283 33.0428 Q150.672 33.0428 148.843 36.6076 Q147.038 40.1492 147.038 47.2788 Q147.038 54.3853 148.843 57.9501 Q150.672 61.4917 154.283 61.4917 Q157.917 61.4917 159.723 57.9501 Q161.552 54.3853 161.552 47.2788 Q161.552 40.1492 159.723 36.6076 Q157.917 33.0428 154.283 33.0428 M154.283 29.3391 Q160.093 29.3391 163.149 33.9456 Q166.227 38.5289 166.227 47.2788 Q166.227 56.0056 163.149 60.6121 Q160.093 65.1954 154.283 65.1954 Q148.473 65.1954 145.394 60.6121 Q142.339 56.0056 142.339 47.2788 Q142.339 38.5289 145.394 33.9456 Q148.473 29.3391 154.283 29.3391 Z" fill="#000000" fill-rule="nonzero" fill-opacity="1" /><path clip-path="url(#clip480)" d="M28.3562 718.597 L45.7028 731.488 L64.0042 717.929 L64.0042 724.836 L49.9996 735.212 L64.0042 745.588 L64.0042 752.495 L45.3526 738.649 L28.3562 751.317 L28.3562 744.41 L41.0558 734.957 L28.3562 725.504 L28.3562 718.597 Z" fill="#000000" fill-rule="nonzero" fill-opacity="1" /><path clip-path="url(#clip481)" d="M202.227 1010.4 L1320.5 1010.4 L1320.5 1010.4 L1340.7 992.314 L1372.51 950.607 L1396.68 875.166 L1393.31 776.879 L1355.51 636.488 L1350.02 621.235 L1350.02 621.235 L1350.02 621.235 L1326.35 557.458 L1302.2 493.682 L1277.71 429.905 L1252.93 366.128 L1227.95 302.351 L1202.82 238.574 L1177.61 174.798 L1152.33 111.021 L1127 47.2441 L202.227 47.2441 L202.227 1010.4  Z" fill="#0000ff" fill-rule="evenodd" fill-opacity="0.35"/>
<polyline clip-path="url(#clip481)" style="stroke:#000000; stroke-linecap:round; stroke-linejoin:round; stroke-width:4; stroke-opacity:0; fill:none" points="202.227,1010.4 1320.5,1010.4 1340.7,992.314 1372.51,950.607 1396.68,875.166 1393.31,776.879 1355.51,636.488 1350.02,621.235 1350.02,621.235 1326.35,557.458 1302.2,493.682 1277.71,429.905 1252.93,366.128 1227.95,302.351 1202.82,238.574 1177.61,174.798 1152.33,111.021 1127,47.2441 202.227,47.2441 202.227,1010.4 "/>
<path clip-path="url(#clip481)" d="M202.227 1010.4 L1320.5 1010.4 L1320.5 1010.4 L1340.7 992.314 L1372.51 950.607 L1396.68 875.166 L1393.31 776.879 L1355.51 636.488 L1350.02 621.235 L1350.02 621.235 L1350.02 621.235 L1326.35 557.458 L1302.2 493.682 L1277.71 429.905 L1252.93 366.128 L1227.95 302.351 L1202.82 238.574 L1177.61 174.798 L1152.33 111.021 L1127 47.2441 L2352.76 47.2441 L2352.76 1423.18 L202.227 1423.18 L202.227 1010.4  Z" fill="#ff0000" fill-rule="evenodd" fill-opacity="0.35"/>
<polyline clip-path="url(#clip481)" style="stroke:#000000; stroke-linecap:round; stroke-linejoin:round; stroke-width:4; stroke-opacity:0; fill:none" points="202.227,1010.4 1320.5,1010.4 1340.7,992.314 1372.51,950.607 1396.68,875.166 1393.31,776.879 1355.51,636.488 1350.02,621.235 1350.02,621.235 1326.35,557.458 1302.2,493.682 1277.71,429.905 1252.93,366.128 1227.95,302.351 1202.82,238.574 1177.61,174.798 1152.33,111.021 1127,47.2441 2352.76,47.2441 2352.76,1423.18 202.227,1423.18 202.227,1010.4 "/>
<polyline clip-path="url(#clip481)" style="stroke:#008000; stroke-linecap:round; stroke-linejoin:round; stroke-width:12; stroke-opacity:1; fill:none" points="202.227,1010.4 1320.5,1010.4 "/>
<polyline clip-path="url(#clip481)" style="stroke:#ffd700; stroke-linecap:round; stroke-linejoin:round; stroke-width:12; stroke-opacity:1; fill:none" points="1320.5,1010.4 1340.7,992.314 1372.51,950.607 1396.68,875.166 1393.31,776.879 1355.51,636.488 1350.02,621.235 "/>
<polyline clip-path="url(#clip481)" style="stroke:#333333; stroke-linecap:round; stroke-linejoin:round; stroke-width:12; stroke-opacity:1; fill:none" points="1350.02,621.235 1326.35,557.458 1302.2,493.682 1277.71,429.905 1252.93,366.128 1227.95,302.351 1202.82,238.574 1177.61,174.798 1152.33,111.021 1127,47.2441 "/>
<path clip-path="url(#clip480)" d="M1708.2 404.149 L2281.07 404.149 L2281.07 93.1086 L1708.2 93.1086  Z" fill="#ffffff" fill-rule="evenodd" fill-opacity="1"/>
<polyline clip-path="url(#clip480)" style="stroke:#000000; stroke-linecap:round; stroke-linejoin:round; stroke-width:4; stroke-opacity:1; fill:none" points="1708.2,404.149 2281.07,404.149 2281.07,93.1086 1708.2,93.1086 1708.2,404.149 "/>
<path clip-path="url(#clip480)" d="M1732.09 165.685 L1875.46 165.685 L1875.46 124.213 L1732.09 124.213 L1732.09 165.685  Z" fill="#0000ff" fill-rule="evenodd" fill-opacity="0.35"/>
<polyline clip-path="url(#clip480)" style="stroke:#000000; stroke-linecap:round; stroke-linejoin:round; stroke-width:4; stroke-opacity:0; fill:none" points="1732.09,165.685 1875.46,165.685 1875.46,124.213 1732.09,124.213 1732.09,165.685 "/>
<path clip-path="url(#clip480)" d="M1899.35 151.997 L1899.35 136.303 L1903.61 136.303 L1903.61 151.835 Q1903.61 155.516 1905.05 157.368 Q1906.48 159.196 1909.35 159.196 Q1912.8 159.196 1914.79 156.997 Q1916.81 154.798 1916.81 151.002 L1916.81 136.303 L1921.07 136.303 L1921.07 162.229 L1916.81 162.229 L1916.81 158.247 Q1915.26 160.608 1913.2 161.766 Q1911.16 162.9 1908.45 162.9 Q1903.98 162.9 1901.67 160.122 Q1899.35 157.344 1899.35 151.997 M1910.07 135.678 L1910.07 135.678 Z" fill="#000000" fill-rule="nonzero" fill-opacity="1" /><path clip-path="url(#clip480)" d="M1928.54 152.807 L1947.22 152.807 L1947.22 155.006 L1928.54 155.006 L1928.54 152.807 Z" fill="#000000" fill-rule="nonzero" fill-opacity="1" /><path clip-path="url(#clip480)" d="M1732.09 217.525 L1875.46 217.525 L1875.46 176.053 L1732.09 176.053 L1732.09 217.525  Z" fill="#ff0000" fill-rule="evenodd" fill-opacity="0.35"/>
<polyline clip-path="url(#clip480)" style="stroke:#000000; stroke-linecap:round; stroke-linejoin:round; stroke-width:4; stroke-opacity:0; fill:none" points="1732.09,217.525 1875.46,217.525 1875.46,176.053 1732.09,176.053 1732.09,217.525 "/>
<path clip-path="url(#clip480)" d="M1899.35 203.837 L1899.35 188.143 L1903.61 188.143 L1903.61 203.675 Q1903.61 207.356 1905.05 209.208 Q1906.48 211.036 1909.35 211.036 Q1912.8 211.036 1914.79 208.837 Q1916.81 206.638 1916.81 202.842 L1916.81 188.143 L1921.07 188.143 L1921.07 214.069 L1916.81 214.069 L1916.81 210.087 Q1915.26 212.448 1913.2 213.606 Q1911.16 214.74 1908.45 214.74 Q1903.98 214.74 1901.67 211.962 Q1899.35 209.184 1899.35 203.837 M1910.07 187.518 L1910.07 187.518 Z" fill="#000000" fill-rule="nonzero" fill-opacity="1" /><path clip-path="url(#clip480)" d="M1939.1 197.425 L1939.1 204.647 L1947.22 204.647 L1947.22 206.846 L1939.1 206.846 L1939.1 214.069 L1936.67 214.069 L1936.67 206.846 L1928.54 206.846 L1928.54 204.647 L1936.67 204.647 L1936.67 197.425 L1939.1 197.425 Z" fill="#000000" fill-rule="nonzero" fill-opacity="1" /><polyline clip-path="url(#clip480)" style="stroke:#008000; stroke-linecap:round; stroke-linejoin:round; stroke-width:12; stroke-opacity:1; fill:none" points="1732.09,248.629 1875.46,248.629 "/>
<path clip-path="url(#clip480)" d="M1899.35 255.677 L1899.35 239.983 L1903.61 239.983 L1903.61 255.515 Q1903.61 259.196 1905.05 261.048 Q1906.48 262.876 1909.35 262.876 Q1912.8 262.876 1914.79 260.677 Q1916.81 258.478 1916.81 254.682 L1916.81 239.983 L1921.07 239.983 L1921.07 265.909 L1916.81 265.909 L1916.81 261.927 Q1915.26 264.288 1913.2 265.446 Q1911.16 266.58 1908.45 266.58 Q1903.98 266.58 1901.67 263.802 Q1899.35 261.024 1899.35 255.677 M1910.07 239.358 L1910.07 239.358 Z" fill="#000000" fill-rule="nonzero" fill-opacity="1" /><path clip-path="url(#clip480)" d="M1939.68 251.441 L1939.68 253.686 Q1938.54 253.177 1937.32 252.923 Q1936.11 252.668 1934.79 252.668 Q1932.78 252.668 1931.79 253.2 Q1930.79 253.756 1930.79 254.844 Q1930.79 255.677 1931.51 256.14 Q1932.22 256.626 1934.38 257.043 L1935.3 257.228 Q1938.2 257.784 1939.35 258.756 Q1940.56 259.751 1940.56 261.534 Q1940.56 263.548 1938.75 264.728 Q1936.97 265.909 1933.82 265.909 Q1932.5 265.909 1931.07 265.677 Q1929.66 265.446 1928.08 265.006 L1928.08 262.529 Q1929.56 263.223 1931.02 263.571 Q1932.46 263.918 1933.87 263.918 Q1935.77 263.918 1936.79 263.339 Q1937.8 262.76 1937.8 261.719 Q1937.8 260.747 1937.06 260.214 Q1936.41 259.751 1933.85 259.219 L1932.92 259.034 Q1930.42 258.548 1929.31 257.598 Q1928.2 256.626 1928.2 254.936 Q1928.2 252.899 1929.84 251.788 Q1931.46 250.654 1934.47 250.654 Q1935.95 250.654 1937.27 250.862 Q1938.59 251.048 1939.68 251.441 Z" fill="#000000" fill-rule="nonzero" fill-opacity="1" /><polyline clip-path="url(#clip480)" style="stroke:#ffd700; stroke-linecap:round; stroke-linejoin:round; stroke-width:12; stroke-opacity:1; fill:none" points="1732.09,300.469 1875.46,300.469 "/>
<path clip-path="url(#clip480)" d="M1917.78 292.587 L1917.78 296.614 Q1915.97 295.689 1914.03 295.226 Q1912.09 294.763 1910 294.763 Q1906.83 294.763 1905.23 295.735 Q1903.66 296.707 1903.66 298.651 Q1903.66 300.133 1904.79 300.989 Q1905.93 301.823 1909.35 302.587 L1910.81 302.911 Q1915.35 303.883 1917.25 305.665 Q1919.17 307.425 1919.17 310.596 Q1919.17 314.207 1916.3 316.313 Q1913.45 318.42 1908.45 318.42 Q1906.37 318.42 1904.1 318.003 Q1901.85 317.61 1899.35 316.8 L1899.35 312.401 Q1901.72 313.628 1904.01 314.253 Q1906.3 314.855 1908.54 314.855 Q1911.55 314.855 1913.17 313.837 Q1914.79 312.795 1914.79 310.92 Q1914.79 309.184 1913.61 308.258 Q1912.46 307.332 1908.5 306.476 L1907.02 306.128 Q1903.06 305.295 1901.3 303.582 Q1899.54 301.846 1899.54 298.837 Q1899.54 295.179 1902.13 293.189 Q1904.73 291.198 1909.49 291.198 Q1911.85 291.198 1913.94 291.545 Q1916.02 291.892 1917.78 292.587 Z" fill="#000000" fill-rule="nonzero" fill-opacity="1" /><path clip-path="url(#clip480)" d="M1923.47 291.823 L1927.73 291.823 L1933.06 312.054 L1938.36 291.823 L1943.38 291.823 L1948.71 312.054 L1954.01 291.823 L1958.27 291.823 L1951.48 317.749 L1946.46 317.749 L1940.88 296.499 L1935.28 317.749 L1930.26 317.749 L1923.47 291.823 Z" fill="#000000" fill-rule="nonzero" fill-opacity="1" /><path clip-path="url(#clip480)" d="M1964.72 291.823 L1968.98 291.823 L1968.98 317.749 L1964.72 317.749 L1964.72 291.823 M1964.72 281.73 L1968.98 281.73 L1968.98 287.124 L1964.72 287.124 L1964.72 281.73 Z" fill="#000000" fill-rule="nonzero" fill-opacity="1" /><path clip-path="url(#clip480)" d="M1982.11 284.462 L1982.11 291.823 L1990.88 291.823 L1990.88 295.133 L1982.11 295.133 L1982.11 309.207 Q1982.11 312.378 1982.97 313.281 Q1983.84 314.184 1986.51 314.184 L1990.88 314.184 L1990.88 317.749 L1986.51 317.749 Q1981.58 317.749 1979.7 315.92 Q1977.83 314.068 1977.83 309.207 L1977.83 295.133 L1974.7 295.133 L1974.7 291.823 L1977.83 291.823 L1977.83 284.462 L1982.11 284.462 Z" fill="#000000" fill-rule="nonzero" fill-opacity="1" /><path clip-path="url(#clip480)" d="M2015.14 292.818 L2015.14 296.8 Q2013.34 295.804 2011.51 295.318 Q2009.7 294.809 2007.85 294.809 Q2003.71 294.809 2001.41 297.448 Q1999.12 300.064 1999.12 304.809 Q1999.12 309.554 2001.41 312.193 Q2003.71 314.809 2007.85 314.809 Q2009.7 314.809 2011.51 314.323 Q2013.34 313.813 2015.14 312.818 L2015.14 316.753 Q2013.36 317.587 2011.44 318.003 Q2009.54 318.42 2007.39 318.42 Q2001.53 318.42 1998.08 314.739 Q1994.63 311.059 1994.63 304.809 Q1994.63 298.466 1998.1 294.832 Q2001.6 291.198 2007.66 291.198 Q2009.63 291.198 2011.51 291.615 Q2013.38 292.008 2015.14 292.818 Z" fill="#000000" fill-rule="nonzero" fill-opacity="1" /><path clip-path="url(#clip480)" d="M2044.1 302.101 L2044.1 317.749 L2039.84 317.749 L2039.84 302.239 Q2039.84 298.559 2038.4 296.73 Q2036.97 294.902 2034.1 294.902 Q2030.65 294.902 2028.66 297.101 Q2026.67 299.3 2026.67 303.096 L2026.67 317.749 L2022.39 317.749 L2022.39 281.73 L2026.67 281.73 L2026.67 295.851 Q2028.2 293.513 2030.26 292.355 Q2032.34 291.198 2035.05 291.198 Q2039.52 291.198 2041.81 293.976 Q2044.1 296.73 2044.1 302.101 Z" fill="#000000" fill-rule="nonzero" fill-opacity="1" /><path clip-path="url(#clip480)" d="M2052.59 291.823 L2056.85 291.823 L2056.85 317.749 L2052.59 317.749 L2052.59 291.823 M2052.59 281.73 L2056.85 281.73 L2056.85 287.124 L2052.59 287.124 L2052.59 281.73 Z" fill="#000000" fill-rule="nonzero" fill-opacity="1" /><path clip-path="url(#clip480)" d="M2087.32 302.101 L2087.32 317.749 L2083.06 317.749 L2083.06 302.239 Q2083.06 298.559 2081.62 296.73 Q2080.19 294.902 2077.32 294.902 Q2073.87 294.902 2071.88 297.101 Q2069.89 299.3 2069.89 303.096 L2069.89 317.749 L2065.6 317.749 L2065.6 291.823 L2069.89 291.823 L2069.89 295.851 Q2071.41 293.513 2073.47 292.355 Q2075.56 291.198 2078.27 291.198 Q2082.73 291.198 2085.03 293.976 Q2087.32 296.73 2087.32 302.101 Z" fill="#000000" fill-rule="nonzero" fill-opacity="1" /><path clip-path="url(#clip480)" d="M2112.87 304.485 Q2112.87 299.855 2110.95 297.309 Q2109.05 294.763 2105.6 294.763 Q2102.18 294.763 2100.26 297.309 Q2098.36 299.855 2098.36 304.485 Q2098.36 309.091 2100.26 311.638 Q2102.18 314.184 2105.6 314.184 Q2109.05 314.184 2110.95 311.638 Q2112.87 309.091 2112.87 304.485 M2117.13 314.531 Q2117.13 321.151 2114.19 324.369 Q2111.25 327.61 2105.19 327.61 Q2102.94 327.61 2100.95 327.262 Q2098.96 326.938 2097.09 326.244 L2097.09 322.1 Q2098.96 323.119 2100.79 323.605 Q2102.62 324.091 2104.52 324.091 Q2108.71 324.091 2110.79 321.892 Q2112.87 319.716 2112.87 315.295 L2112.87 313.188 Q2111.55 315.48 2109.49 316.614 Q2107.43 317.749 2104.56 317.749 Q2099.79 317.749 2096.88 314.114 Q2093.96 310.48 2093.96 304.485 Q2093.96 298.466 2096.88 294.832 Q2099.79 291.198 2104.56 291.198 Q2107.43 291.198 2109.49 292.332 Q2111.55 293.466 2112.87 295.758 L2112.87 291.823 L2117.13 291.823 L2117.13 314.531 Z" fill="#000000" fill-rule="nonzero" fill-opacity="1" /><path clip-path="url(#clip480)" d="M2140.97 281.73 L2145.23 281.73 L2145.23 317.749 L2140.97 317.749 L2140.97 281.73 Z" fill="#000000" fill-rule="nonzero" fill-opacity="1" /><path clip-path="url(#clip480)" d="M2164.19 294.809 Q2160.77 294.809 2158.77 297.494 Q2156.78 300.156 2156.78 304.809 Q2156.78 309.462 2158.75 312.147 Q2160.74 314.809 2164.19 314.809 Q2167.59 314.809 2169.58 312.124 Q2171.58 309.438 2171.58 304.809 Q2171.58 300.202 2169.58 297.517 Q2167.59 294.809 2164.19 294.809 M2164.19 291.198 Q2169.75 291.198 2172.92 294.809 Q2176.09 298.42 2176.09 304.809 Q2176.09 311.175 2172.92 314.809 Q2169.75 318.42 2164.19 318.42 Q2158.61 318.42 2155.44 314.809 Q2152.29 311.175 2152.29 304.809 Q2152.29 298.42 2155.44 294.809 Q2158.61 291.198 2164.19 291.198 Z" fill="#000000" fill-rule="nonzero" fill-opacity="1" /><path clip-path="url(#clip480)" d="M2201.81 292.818 L2201.81 296.8 Q2200 295.804 2198.17 295.318 Q2196.37 294.809 2194.52 294.809 Q2190.37 294.809 2188.08 297.448 Q2185.79 300.064 2185.79 304.809 Q2185.79 309.554 2188.08 312.193 Q2190.37 314.809 2194.52 314.809 Q2196.37 314.809 2198.17 314.323 Q2200 313.813 2201.81 312.818 L2201.81 316.753 Q2200.02 317.587 2198.1 318.003 Q2196.2 318.42 2194.05 318.42 Q2188.2 318.42 2184.75 314.739 Q2181.3 311.059 2181.3 304.809 Q2181.3 298.466 2184.77 294.832 Q2188.27 291.198 2194.33 291.198 Q2196.3 291.198 2198.17 291.615 Q2200.05 292.008 2201.81 292.818 Z" fill="#000000" fill-rule="nonzero" fill-opacity="1" /><path clip-path="url(#clip480)" d="M2208.77 307.517 L2208.77 291.823 L2213.03 291.823 L2213.03 307.355 Q2213.03 311.036 2214.47 312.888 Q2215.9 314.716 2218.77 314.716 Q2222.22 314.716 2224.21 312.517 Q2226.23 310.318 2226.23 306.522 L2226.23 291.823 L2230.49 291.823 L2230.49 317.749 L2226.23 317.749 L2226.23 313.767 Q2224.68 316.128 2222.62 317.286 Q2220.58 318.42 2217.87 318.42 Q2213.4 318.42 2211.09 315.642 Q2208.77 312.864 2208.77 307.517 M2219.49 291.198 L2219.49 291.198 Z" fill="#000000" fill-rule="nonzero" fill-opacity="1" /><path clip-path="url(#clip480)" d="M2255.79 292.587 L2255.79 296.614 Q2253.98 295.689 2252.04 295.226 Q2250.09 294.763 2248.01 294.763 Q2244.84 294.763 2243.24 295.735 Q2241.67 296.707 2241.67 298.651 Q2241.67 300.133 2242.8 300.989 Q2243.94 301.823 2247.36 302.587 L2248.82 302.911 Q2253.36 303.883 2255.26 305.665 Q2257.18 307.425 2257.18 310.596 Q2257.18 314.207 2254.31 316.313 Q2251.46 318.42 2246.46 318.42 Q2244.38 318.42 2242.11 318.003 Q2239.86 317.61 2237.36 316.8 L2237.36 312.401 Q2239.72 313.628 2242.01 314.253 Q2244.31 314.855 2246.55 314.855 Q2249.56 314.855 2251.18 313.837 Q2252.8 312.795 2252.8 310.92 Q2252.8 309.184 2251.62 308.258 Q2250.46 307.332 2246.51 306.476 L2245.02 306.128 Q2241.07 305.295 2239.31 303.582 Q2237.55 301.846 2237.55 298.837 Q2237.55 295.179 2240.14 293.189 Q2242.73 291.198 2247.5 291.198 Q2249.86 291.198 2251.95 291.545 Q2254.03 291.892 2255.79 292.587 Z" fill="#000000" fill-rule="nonzero" fill-opacity="1" /><polyline clip-path="url(#clip480)" style="stroke:#333333; stroke-linecap:round; stroke-linejoin:round; stroke-width:12; stroke-opacity:1; fill:none" points="1732.09,352.309 1875.46,352.309 "/>
<path clip-path="url(#clip480)" d="M1918.27 347.598 L1918.27 333.57 L1922.53 333.57 L1922.53 369.589 L1918.27 369.589 L1918.27 365.7 Q1916.92 368.015 1914.86 369.149 Q1912.83 370.26 1909.96 370.26 Q1905.26 370.26 1902.29 366.51 Q1899.35 362.76 1899.35 356.649 Q1899.35 350.538 1902.29 346.788 Q1905.26 343.038 1909.96 343.038 Q1912.83 343.038 1914.86 344.172 Q1916.92 345.283 1918.27 347.598 M1903.75 356.649 Q1903.75 361.348 1905.67 364.033 Q1907.62 366.695 1911 366.695 Q1914.38 366.695 1916.32 364.033 Q1918.27 361.348 1918.27 356.649 Q1918.27 351.95 1916.32 349.288 Q1914.38 346.603 1911 346.603 Q1907.62 346.603 1905.67 349.288 Q1903.75 351.95 1903.75 356.649 Z" fill="#000000" fill-rule="nonzero" fill-opacity="1" /><path clip-path="url(#clip480)" d="M1931.3 343.663 L1935.56 343.663 L1935.56 369.589 L1931.3 369.589 L1931.3 343.663 M1931.3 333.57 L1935.56 333.57 L1935.56 338.964 L1931.3 338.964 L1931.3 333.57 Z" fill="#000000" fill-rule="nonzero" fill-opacity="1" /><path clip-path="url(#clip480)" d="M1961 344.427 L1961 348.454 Q1959.19 347.529 1957.25 347.066 Q1955.3 346.603 1953.22 346.603 Q1950.05 346.603 1948.45 347.575 Q1946.88 348.547 1946.88 350.491 Q1946.88 351.973 1948.01 352.829 Q1949.15 353.663 1952.57 354.427 L1954.03 354.751 Q1958.57 355.723 1960.47 357.505 Q1962.39 359.265 1962.39 362.436 Q1962.39 366.047 1959.52 368.153 Q1956.67 370.26 1951.67 370.26 Q1949.59 370.26 1947.32 369.843 Q1945.07 369.45 1942.57 368.64 L1942.57 364.241 Q1944.93 365.468 1947.22 366.093 Q1949.52 366.695 1951.76 366.695 Q1954.77 366.695 1956.39 365.677 Q1958.01 364.635 1958.01 362.76 Q1958.01 361.024 1956.83 360.098 Q1955.67 359.172 1951.72 358.316 L1950.23 357.968 Q1946.28 357.135 1944.52 355.422 Q1942.76 353.686 1942.76 350.677 Q1942.76 347.019 1945.35 345.029 Q1947.94 343.038 1952.71 343.038 Q1955.07 343.038 1957.16 343.385 Q1959.24 343.732 1961 344.427 Z" fill="#000000" fill-rule="nonzero" fill-opacity="1" /><path clip-path="url(#clip480)" d="M1973.29 365.7 L1973.29 379.45 L1969.01 379.45 L1969.01 343.663 L1973.29 343.663 L1973.29 347.598 Q1974.63 345.283 1976.67 344.172 Q1978.73 343.038 1981.58 343.038 Q1986.3 343.038 1989.24 346.788 Q1992.2 350.538 1992.2 356.649 Q1992.2 362.76 1989.24 366.51 Q1986.3 370.26 1981.58 370.26 Q1978.73 370.26 1976.67 369.149 Q1974.63 368.015 1973.29 365.7 M1987.78 356.649 Q1987.78 351.95 1985.84 349.288 Q1983.91 346.603 1980.53 346.603 Q1977.16 346.603 1975.21 349.288 Q1973.29 351.95 1973.29 356.649 Q1973.29 361.348 1975.21 364.033 Q1977.16 366.695 1980.53 366.695 Q1983.91 366.695 1985.84 364.033 Q1987.78 361.348 1987.78 356.649 Z" fill="#000000" fill-rule="nonzero" fill-opacity="1" /><path clip-path="url(#clip480)" d="M2021.44 355.561 L2021.44 357.644 L2001.85 357.644 Q2002.13 362.042 2004.49 364.357 Q2006.88 366.649 2011.11 366.649 Q2013.57 366.649 2015.86 366.047 Q2018.17 365.445 2020.44 364.241 L2020.44 368.269 Q2018.15 369.241 2015.74 369.751 Q2013.34 370.26 2010.86 370.26 Q2004.66 370.26 2001.02 366.649 Q1997.41 363.038 1997.41 356.88 Q1997.41 350.515 2000.84 346.788 Q2004.28 343.038 2010.12 343.038 Q2015.35 343.038 2018.38 346.417 Q2021.44 349.774 2021.44 355.561 M2017.18 354.311 Q2017.13 350.816 2015.21 348.732 Q2013.31 346.649 2010.16 346.649 Q2006.6 346.649 2004.45 348.663 Q2002.32 350.677 2001.99 354.334 L2017.18 354.311 Z" fill="#000000" fill-rule="nonzero" fill-opacity="1" /><path clip-path="url(#clip480)" d="M2043.45 347.644 Q2042.73 347.228 2041.88 347.042 Q2041.04 346.834 2040.03 346.834 Q2036.41 346.834 2034.47 349.195 Q2032.55 351.533 2032.55 355.931 L2032.55 369.589 L2028.27 369.589 L2028.27 343.663 L2032.55 343.663 L2032.55 347.691 Q2033.89 345.329 2036.04 344.195 Q2038.2 343.038 2041.28 343.038 Q2041.72 343.038 2042.25 343.107 Q2042.78 343.154 2043.43 343.269 L2043.45 347.644 Z" fill="#000000" fill-rule="nonzero" fill-opacity="1" /><path clip-path="url(#clip480)" d="M2064.45 344.427 L2064.45 348.454 Q2062.64 347.529 2060.7 347.066 Q2058.75 346.603 2056.67 346.603 Q2053.5 346.603 2051.9 347.575 Q2050.33 348.547 2050.33 350.491 Q2050.33 351.973 2051.46 352.829 Q2052.59 353.663 2056.02 354.427 L2057.48 354.751 Q2062.02 355.723 2063.91 357.505 Q2065.84 359.265 2065.84 362.436 Q2065.84 366.047 2062.96 368.153 Q2060.12 370.26 2055.12 370.26 Q2053.03 370.26 2050.77 369.843 Q2048.52 369.45 2046.02 368.64 L2046.02 364.241 Q2048.38 365.468 2050.67 366.093 Q2052.96 366.695 2055.21 366.695 Q2058.22 366.695 2059.84 365.677 Q2061.46 364.635 2061.46 362.76 Q2061.46 361.024 2060.28 360.098 Q2059.12 359.172 2055.16 358.316 L2053.68 357.968 Q2049.72 357.135 2047.97 355.422 Q2046.21 353.686 2046.21 350.677 Q2046.21 347.019 2048.8 345.029 Q2051.39 343.038 2056.16 343.038 Q2058.52 343.038 2060.6 343.385 Q2062.69 343.732 2064.45 344.427 Z" fill="#000000" fill-rule="nonzero" fill-opacity="1" /><path clip-path="url(#clip480)" d="M2084.4 356.556 Q2079.24 356.556 2077.25 357.737 Q2075.26 358.917 2075.26 361.765 Q2075.26 364.033 2076.74 365.376 Q2078.24 366.695 2080.81 366.695 Q2084.35 366.695 2086.48 364.195 Q2088.64 361.672 2088.64 357.505 L2088.64 356.556 L2084.4 356.556 M2092.9 354.797 L2092.9 369.589 L2088.64 369.589 L2088.64 365.653 Q2087.18 368.015 2085 369.149 Q2082.83 370.26 2079.68 370.26 Q2075.7 370.26 2073.34 368.038 Q2071 365.792 2071 362.042 Q2071 357.667 2073.91 355.445 Q2076.85 353.223 2082.66 353.223 L2088.64 353.223 L2088.64 352.806 Q2088.64 349.867 2086.69 348.269 Q2084.77 346.649 2081.28 346.649 Q2079.05 346.649 2076.95 347.181 Q2074.84 347.714 2072.9 348.779 L2072.9 344.843 Q2075.23 343.941 2077.43 343.501 Q2079.63 343.038 2081.71 343.038 Q2087.34 343.038 2090.12 345.954 Q2092.9 348.871 2092.9 354.797 Z" fill="#000000" fill-rule="nonzero" fill-opacity="1" /><path clip-path="url(#clip480)" d="M2101.67 333.57 L2105.93 333.57 L2105.93 369.589 L2101.67 369.589 L2101.67 333.57 Z" fill="#000000" fill-rule="nonzero" fill-opacity="1" /><path clip-path="url(#clip480)" d="M2129.91 333.57 L2134.17 333.57 L2134.17 369.589 L2129.91 369.589 L2129.91 333.57 Z" fill="#000000" fill-rule="nonzero" fill-opacity="1" /><path clip-path="url(#clip480)" d="M2153.13 346.649 Q2149.7 346.649 2147.71 349.334 Q2145.72 351.996 2145.72 356.649 Q2145.72 361.302 2147.69 363.987 Q2149.68 366.649 2153.13 366.649 Q2156.53 366.649 2158.52 363.964 Q2160.51 361.278 2160.51 356.649 Q2160.51 352.042 2158.52 349.357 Q2156.53 346.649 2153.13 346.649 M2153.13 343.038 Q2158.68 343.038 2161.85 346.649 Q2165.02 350.26 2165.02 356.649 Q2165.02 363.015 2161.85 366.649 Q2158.68 370.26 2153.13 370.26 Q2147.55 370.26 2144.38 366.649 Q2141.23 363.015 2141.23 356.649 Q2141.23 350.26 2144.38 346.649 Q2147.55 343.038 2153.13 343.038 Z" fill="#000000" fill-rule="nonzero" fill-opacity="1" /><path clip-path="url(#clip480)" d="M2190.74 344.658 L2190.74 348.64 Q2188.94 347.644 2187.11 347.158 Q2185.3 346.649 2183.45 346.649 Q2179.31 346.649 2177.02 349.288 Q2174.72 351.904 2174.72 356.649 Q2174.72 361.394 2177.02 364.033 Q2179.31 366.649 2183.45 366.649 Q2185.3 366.649 2187.11 366.163 Q2188.94 365.653 2190.74 364.658 L2190.74 368.593 Q2188.96 369.427 2187.04 369.843 Q2185.14 370.26 2182.99 370.26 Q2177.13 370.26 2173.68 366.579 Q2170.23 362.899 2170.23 356.649 Q2170.23 350.306 2173.71 346.672 Q2177.2 343.038 2183.27 343.038 Q2185.23 343.038 2187.11 343.455 Q2188.98 343.848 2190.74 344.658 Z" fill="#000000" fill-rule="nonzero" fill-opacity="1" /><path clip-path="url(#clip480)" d="M2197.71 359.357 L2197.71 343.663 L2201.97 343.663 L2201.97 359.195 Q2201.97 362.876 2203.4 364.728 Q2204.84 366.556 2207.71 366.556 Q2211.16 366.556 2213.15 364.357 Q2215.16 362.158 2215.16 358.362 L2215.16 343.663 L2219.42 343.663 L2219.42 369.589 L2215.16 369.589 L2215.16 365.607 Q2213.61 367.968 2211.55 369.126 Q2209.52 370.26 2206.81 370.26 Q2202.34 370.26 2200.02 367.482 Q2197.71 364.704 2197.71 359.357 M2208.43 343.038 L2208.43 343.038 Z" fill="#000000" fill-rule="nonzero" fill-opacity="1" /><path clip-path="url(#clip480)" d="M2244.72 344.427 L2244.72 348.454 Q2242.92 347.529 2240.97 347.066 Q2239.03 346.603 2236.95 346.603 Q2233.77 346.603 2232.18 347.575 Q2230.6 348.547 2230.6 350.491 Q2230.6 351.973 2231.74 352.829 Q2232.87 353.663 2236.3 354.427 L2237.76 354.751 Q2242.29 355.723 2244.19 357.505 Q2246.11 359.265 2246.11 362.436 Q2246.11 366.047 2243.24 368.153 Q2240.39 370.26 2235.39 370.26 Q2233.31 370.26 2231.04 369.843 Q2228.8 369.45 2226.3 368.64 L2226.3 364.241 Q2228.66 365.468 2230.95 366.093 Q2233.24 366.695 2235.49 366.695 Q2238.5 366.695 2240.12 365.677 Q2241.74 364.635 2241.74 362.76 Q2241.74 361.024 2240.56 360.098 Q2239.4 359.172 2235.44 358.316 L2233.96 357.968 Q2230 357.135 2228.24 355.422 Q2226.48 353.686 2226.48 350.677 Q2226.48 347.019 2229.08 345.029 Q2231.67 343.038 2236.44 343.038 Q2238.8 343.038 2240.88 343.385 Q2242.96 343.732 2244.72 344.427 Z" fill="#000000" fill-rule="nonzero" fill-opacity="1" /></svg>
