<?xml version="1.0" encoding="utf-8"?>
<svg xmlns="http://www.w3.org/2000/svg" xmlns:xlink="http://www.w3.org/1999/xlink" width="600" height="400" viewBox="0 0 2400 1600">
<defs>
  <clipPath id="clip730">
    <rect x="0" y="0" width="2400" height="1600"/>
  </clipPath>
</defs>
<path clip-path="url(#clip730)" d="M0 1600 L2400 1600 L2400 0 L0 0  Z" fill="#ffffff" fill-rule="evenodd" fill-opacity="1"/>
<defs>
  <clipPath id="clip731">
    <rect x="480" y="0" width="1681" height="1600"/>
  </clipPath>
</defs>
<path clip-path="url(#clip730)" d="M194.422 1486.45 L2352.76 1486.45 L2352.76 47.2441 L194.422 47.2441  Z" fill="#ffffff" fill-rule="evenodd" fill-opacity="1"/>
<defs>
  <clipPath id="clip732">
    <rect x="194" y="47" width="2159" height="1440"/>
  </clipPath>
</defs>
<polyline clip-path="url(#clip732)" style="stroke:#000000; stroke-linecap:round; stroke-linejoin:round; stroke-width:2; stroke-opacity:0.1; fill:none" points="194.422,1486.45 194.422,47.2441 "/>
<polyline clip-path="url(#clip732)" style="stroke:#000000; stroke-linecap:round; stroke-linejoin:round; stroke-width:2; stroke-opacity:0.1; fill:none" points="626.089,1486.45 626.089,47.2441 "/>
<polyline clip-path="url(#clip732)" style="stroke:#000000; stroke-linecap:round; stroke-linejoin:round; stroke-width:2; stroke-opacity:0.1; fill:none" points="1057.76,1486.45 1057.76,47.2441 "/>
<polyline clip-path="url(#clip732)" style="stroke:#000000; stroke-linecap:round; stroke-linejoin:round; stroke-width:2; stroke-opacity:0.1; fill:none" points="1489.42,1486.45 1489.42,47.2441 "/>
<polyline clip-path="url(#clip732)" style="stroke:#000000; stroke-linecap:round; stroke-linejoin:round; stroke-width:2; stroke-opacity:0.1; fill:none" points="1921.09,1486.45 1921.09,47.2441 "/>
<polyline clip-path="url(#clip732)" style="stroke:#000000; stroke-linecap:round; stroke-linejoin:round; stroke-width:2; stroke-opacity:0.1; fill:none" points="2352.76,1486.45 2352.76,47.2441 "/>
<polyline clip-path="url(#clip732)" style="stroke:#000000; stroke-linecap:round; stroke-linejoin:round; stroke-width:2; stroke-opacity:0.1; fill:none" points="194.422,1231.04 2352.76,1231.04 "/>
<polyline clip-path="url(#clip732)" style="stroke:#000000; stroke-linecap:round; stroke-linejoin:round; stroke-width:2; stroke-opacity:0.1; fill:none" points="194.422,944.813 2352.76,944.813 "/>
<polyline clip-path="url(#clip732)" style="stroke:#000000; stroke-linecap:round; stroke-linejoin:round; stroke-width:2; stroke-opacity:0.1; fill:none" points="194.422,658.584 2352.76,658.584 "/>
<polyline clip-path="url(#clip732)" style="stroke:#000000; stroke-linecap:round; stroke-linejoin:round; stroke-width:2; stroke-opacity:0.1; fill:none" points="194.422,372.354 2352.76,372.354 "/>
<polyline clip-path="url(#clip732)" style="stroke:#000000; stroke-linecap:round; stroke-linejoin:round; stroke-width:2; stroke-opacity:0.1; fill:none" points="194.422,86.1239 2352.76,86.1239 "/>
<polyline clip-path="url(#clip730)" style="stroke:#000000; stroke-linecap:round; stroke-linejoin:round; stroke-width:4; stroke-opacity:1; fill:none" points="194.422,1486.45 2352.76,1486.45 "/>
<polyline clip-path="url(#clip730)" style="stroke:#000000; stroke-linecap:round; stroke-linejoin:round; stroke-width:4; stroke-opacity:1; fill:none" points="194.422,1486.45 194.422,1467.55 "/>
<polyline clip-path="url(#clip730)" style="stroke:#000000; stroke-linecap:round; stroke-linejoin:round; stroke-width:4; stroke-opacity:1; fill:none" points="626.089,1486.45 626.089,1467.55 "/>
<polyline clip-path="url(#clip730)" style="stroke:#000000; stroke-linecap:round; stroke-linejoin:round; stroke-width:4; stroke-opacity:1; fill:none" points="1057.76,1486.45 1057.76,1467.55 "/>
<polyline clip-path="url(#clip730)" style="stroke:#000000; stroke-linecap:round; stroke-linejoin:round; stroke-width:4; stroke-opacity:1; fill:none" points="1489.42,1486.45 1489.42,1467.55 "/>
<polyline clip-path="url(#clip730)" style="stroke:#000000; stroke-linecap:round; stroke-linejoin:round; stroke-width:4; stroke-opacity:1; fill:none" points="1921.09,1486.45 1921.09,1467.55 "/>
<polyline clip-path="url(#clip730)" style="stroke:#000000; stroke-linecap:round; stroke-linejoin:round; stroke-width:4; stroke-opacity:1; fill:none" points="2352.76,1486.45 2352.76,1467.55 "/>
<path clip-path="url(#clip730)" d="M194.422 1517.37 Q190.811 1517.37 188.982 1520.93 Q187.177 1524.47 187.177 1531.6 Q187.177 1538.71 188.982 1542.27 Q190.811 1545.82 194.422 1545.82 Q198.056 1545.82 199.862 1542.27 Q201.691 1538.71 201.691 1531.6 Q201.691 1524.47 199.862 1520.93 Q198.056 1517.37 194.422 1517.37 M194.422 1513.66 Q200.232 1513.66 203.288 1518.27 Q206.366 1522.85 206.366 1531.6 Q206.366 1540.33 203.288 1544.94 Q200.232 1549.52 194.422 1549.52 Q188.612 1549.52 185.533 1544.94 Q182.478 1540.33 182.478 1531.6 Q182.478 1522.85 185.533 1518.27 Q188.612 1513.66 194.422 1513.66 Z" fill="#000000" fill-rule="nonzero" fill-opacity="1" /><path clip-path="url(#clip730)" d="M620.742 1544.91 L637.061 1544.91 L637.061 1548.85 L615.117 1548.85 L615.117 1544.91 Q617.779 1542.16 622.362 1537.53 Q626.968 1532.88 628.149 1531.53 Q630.394 1529.01 631.274 1527.27 Q632.177 1525.51 632.177 1523.82 Q632.177 1521.07 630.232 1519.33 Q628.311 1517.6 625.209 1517.6 Q623.01 1517.6 620.556 1518.36 Q618.126 1519.13 615.348 1520.68 L615.348 1515.95 Q618.172 1514.82 620.626 1514.24 Q623.08 1513.66 625.117 1513.66 Q630.487 1513.66 633.681 1516.35 Q636.876 1519.03 636.876 1523.52 Q636.876 1525.65 636.066 1527.57 Q635.279 1529.47 633.172 1532.07 Q632.593 1532.74 629.492 1535.95 Q626.39 1539.15 620.742 1544.91 Z" fill="#000000" fill-rule="nonzero" fill-opacity="1" /><path clip-path="url(#clip730)" d="M1060.76 1518.36 L1048.96 1536.81 L1060.76 1536.81 L1060.76 1518.36 M1059.54 1514.29 L1065.42 1514.29 L1065.42 1536.81 L1070.35 1536.81 L1070.35 1540.7 L1065.42 1540.7 L1065.42 1548.85 L1060.76 1548.85 L1060.76 1540.7 L1045.16 1540.7 L1045.16 1536.19 L1059.54 1514.29 Z" fill="#000000" fill-rule="nonzero" fill-opacity="1" /><path clip-path="url(#clip730)" d="M1489.83 1529.7 Q1486.68 1529.7 1484.83 1531.86 Q1483 1534.01 1483 1537.76 Q1483 1541.49 1484.83 1543.66 Q1486.68 1545.82 1489.83 1545.82 Q1492.98 1545.82 1494.8 1543.66 Q1496.66 1541.49 1496.66 1537.76 Q1496.66 1534.01 1494.8 1531.86 Q1492.98 1529.7 1489.83 1529.7 M1499.11 1515.05 L1499.11 1519.31 Q1497.35 1518.48 1495.55 1518.04 Q1493.76 1517.6 1492 1517.6 Q1487.37 1517.6 1484.92 1520.72 Q1482.49 1523.85 1482.14 1530.17 Q1483.51 1528.15 1485.57 1527.09 Q1487.63 1526 1490.11 1526 Q1495.31 1526 1498.32 1529.17 Q1501.36 1532.32 1501.36 1537.76 Q1501.36 1543.08 1498.21 1546.3 Q1495.06 1549.52 1489.83 1549.52 Q1483.83 1549.52 1480.66 1544.94 Q1477.49 1540.33 1477.49 1531.6 Q1477.49 1523.41 1481.38 1518.55 Q1485.27 1513.66 1491.82 1513.66 Q1493.58 1513.66 1495.36 1514.01 Q1497.17 1514.36 1499.11 1515.05 Z" fill="#000000" fill-rule="nonzero" fill-opacity="1" /><path clip-path="url(#clip730)" d="M1921.09 1532.44 Q1917.76 1532.44 1915.83 1534.22 Q1913.94 1536 1913.94 1539.13 Q1913.94 1542.25 1915.83 1544.03 Q1917.76 1545.82 1921.09 1545.82 Q1924.42 1545.82 1926.34 1544.03 Q1928.27 1542.23 1928.27 1539.13 Q1928.27 1536 1926.34 1534.22 Q1924.45 1532.44 1921.09 1532.44 M1916.41 1530.45 Q1913.4 1529.7 1911.71 1527.64 Q1910.05 1525.58 1910.05 1522.62 Q1910.05 1518.48 1912.99 1516.07 Q1915.95 1513.66 1921.09 1513.66 Q1926.25 1513.66 1929.19 1516.07 Q1932.13 1518.48 1932.13 1522.62 Q1932.13 1525.58 1930.44 1527.64 Q1928.77 1529.7 1925.79 1530.45 Q1929.17 1531.23 1931.04 1533.52 Q1932.94 1535.82 1932.94 1539.13 Q1932.94 1544.15 1929.86 1546.83 Q1926.81 1549.52 1921.09 1549.52 Q1915.37 1549.52 1912.29 1546.83 Q1909.24 1544.15 1909.24 1539.13 Q1909.24 1535.82 1911.14 1533.52 Q1913.03 1531.23 1916.41 1530.45 M1914.7 1523.06 Q1914.7 1525.75 1916.37 1527.25 Q1918.06 1528.76 1921.09 1528.76 Q1924.1 1528.76 1925.79 1527.25 Q1927.5 1525.75 1927.5 1523.06 Q1927.5 1520.38 1925.79 1518.87 Q1924.1 1517.37 1921.09 1517.37 Q1918.06 1517.37 1916.37 1518.87 Q1914.7 1520.38 1914.7 1523.06 Z" fill="#000000" fill-rule="nonzero" fill-opacity="1" /><path clip-path="url(#clip730)" d="M2327.44 1544.91 L2335.08 1544.91 L2335.08 1518.55 L2326.77 1520.21 L2326.77 1515.95 L2335.04 1514.29 L2339.71 1514.29 L2339.71 1544.91 L2347.35 1544.91 L2347.35 1548.85 L2327.44 1548.85 L2327.44 1544.91 Z" fill="#000000" fill-rule="nonzero" fill-opacity="1" /><path clip-path="url(#clip730)" d="M2366.8 1517.37 Q2363.18 1517.37 2361.36 1520.93 Q2359.55 1524.47 2359.55 1531.6 Q2359.55 1538.71 2361.36 1542.27 Q2363.18 1545.82 2366.8 1545.82 Q2370.43 1545.82 2372.23 1542.27 Q2374.06 1538.71 2374.06 1531.6 Q2374.06 1524.47 2372.23 1520.93 Q2370.43 1517.37 2366.8 1517.37 M2366.8 1513.66 Q2372.61 1513.66 2375.66 1518.27 Q2378.74 1522.85 2378.74 1531.6 Q2378.74 1540.33 2375.66 1544.94 Q2372.61 1549.52 2366.8 1549.52 Q2360.99 1549.52 2357.91 1544.94 Q2354.85 1540.33 2354.85 1531.6 Q2354.85 1522.85 2357.91 1518.27 Q2360.99 1513.66 2366.8 1513.66 Z" fill="#000000" fill-rule="nonzero" fill-opacity="1" /><polyline clip-path="url(#clip730)" style="stroke:#000000; stroke-linecap:round; stroke-linejoin:round; stroke-width:4; stroke-opacity:1; fill:none" points="194.422,1486.45 194.422,47.2441 "/>
<polyline clip-path="url(#clip730)" style="stroke:#000000; stroke-linecap:round; stroke-linejoin:round; stroke-width:4; stroke-opacity:1; fill:none" points="194.422,1231.04 213.32,1231.04 "/>
<polyline clip-path="url(#clip730)" style="stroke:#000000; stroke-linecap:round; stroke-linejoin:round; stroke-width:4; stroke-opacity:1; fill:none" points="194.422,944.813 213.32,944.813 "/>
<polyline clip-path="url(#clip730)" style="stroke:#000000; stroke-linecap:round; stroke-linejoin:round; stroke-width:4; stroke-opacity:1; fill:none" points="194.422,658.584 213.32,658.584 "/>
<polyline clip-path="url(#clip730)" style="stroke:#000000; stroke-linecap:round; stroke-linejoin:round; stroke-width:4; stroke-opacity:1; fill:none" points="194.422,372.354 213.32,372.354 "/>
<polyline clip-path="url(#clip730)" style="stroke:#000000; stroke-linecap:round; stroke-linejoin:round; stroke-width:4; stroke-opacity:1; fill:none" points="194.422,86.1239 213.32,86.1239 "/>
<path clip-path="url(#clip730)" d="M51.3162 1231.49 L80.992 1231.49 L80.992 1235.43 L51.3162 1235.43 L51.3162 1231.49 Z" fill="#000000" fill-rule="nonzero" fill-opacity="1" /><path clip-path="url(#clip730)" d="M101.084 1216.84 Q97.4734 1216.84 95.6447 1220.41 Q93.8391 1223.95 93.8391 1231.08 Q93.8391 1238.18 95.6447 1241.75 Q97.4734 1245.29 101.084 1245.29 Q104.719 1245.29 106.524 1241.75 Q108.353 1238.18 108.353 1231.08 Q108.353 1223.95 106.524 1220.41 Q104.719 1216.84 101.084 1216.84 M101.084 1213.14 Q106.895 1213.14 109.95 1217.74 Q113.029 1222.33 113.029 1231.08 Q113.029 1239.8 109.95 1244.41 Q106.895 1248.99 101.084 1248.99 Q95.2743 1248.99 92.1956 1244.41 Q89.1401 1239.8 89.1401 1231.08 Q89.1401 1222.33 92.1956 1217.74 Q95.2743 1213.14 101.084 1213.14 Z" fill="#000000" fill-rule="nonzero" fill-opacity="1" /><path clip-path="url(#clip730)" d="M121.246 1242.44 L126.131 1242.44 L126.131 1248.32 L121.246 1248.32 L121.246 1242.44 Z" fill="#000000" fill-rule="nonzero" fill-opacity="1" /><path clip-path="url(#clip730)" d="M146.894 1229.18 Q143.746 1229.18 141.894 1231.33 Q140.066 1233.49 140.066 1237.24 Q140.066 1240.96 141.894 1243.14 Q143.746 1245.29 146.894 1245.29 Q150.043 1245.29 151.871 1243.14 Q153.723 1240.96 153.723 1237.24 Q153.723 1233.49 151.871 1231.33 Q150.043 1229.18 146.894 1229.18 M156.177 1214.53 L156.177 1218.79 Q154.417 1217.95 152.612 1217.51 Q150.83 1217.07 149.07 1217.07 Q144.441 1217.07 141.987 1220.2 Q139.556 1223.32 139.209 1229.64 Q140.575 1227.63 142.635 1226.56 Q144.695 1225.48 147.172 1225.48 Q152.38 1225.48 155.39 1228.65 Q158.422 1231.8 158.422 1237.24 Q158.422 1242.56 155.274 1245.78 Q152.126 1248.99 146.894 1248.99 Q140.899 1248.99 137.728 1244.41 Q134.556 1239.8 134.556 1231.08 Q134.556 1222.88 138.445 1218.02 Q142.334 1213.14 148.885 1213.14 Q150.644 1213.14 152.427 1213.49 Q154.232 1213.83 156.177 1214.53 Z" fill="#000000" fill-rule="nonzero" fill-opacity="1" /><path clip-path="url(#clip730)" d="M50.9921 945.265 L80.6679 945.265 L80.6679 949.2 L50.9921 949.2 L50.9921 945.265 Z" fill="#000000" fill-rule="nonzero" fill-opacity="1" /><path clip-path="url(#clip730)" d="M100.76 930.612 Q97.1493 930.612 95.3206 934.177 Q93.515 937.719 93.515 944.848 Q93.515 951.955 95.3206 955.519 Q97.1493 959.061 100.76 959.061 Q104.395 959.061 106.2 955.519 Q108.029 951.955 108.029 944.848 Q108.029 937.719 106.2 934.177 Q104.395 930.612 100.76 930.612 M100.76 926.908 Q106.571 926.908 109.626 931.515 Q112.705 936.098 112.705 944.848 Q112.705 953.575 109.626 958.181 Q106.571 962.765 100.76 962.765 Q94.9502 962.765 91.8715 958.181 Q88.816 953.575 88.816 944.848 Q88.816 936.098 91.8715 931.515 Q94.9502 926.908 100.76 926.908 Z" fill="#000000" fill-rule="nonzero" fill-opacity="1" /><path clip-path="url(#clip730)" d="M120.922 956.214 L125.807 956.214 L125.807 962.093 L120.922 962.093 L120.922 956.214 Z" fill="#000000" fill-rule="nonzero" fill-opacity="1" /><path clip-path="url(#clip730)" d="M148.839 931.608 L137.033 950.056 L148.839 950.056 L148.839 931.608 M147.612 927.533 L153.492 927.533 L153.492 950.056 L158.422 950.056 L158.422 953.945 L153.492 953.945 L153.492 962.093 L148.839 962.093 L148.839 953.945 L133.237 953.945 L133.237 949.431 L147.612 927.533 Z" fill="#000000" fill-rule="nonzero" fill-opacity="1" /><path clip-path="url(#clip730)" d="M53.0754 659.035 L82.7512 659.035 L82.7512 662.97 L53.0754 662.97 L53.0754 659.035 Z" fill="#000000" fill-rule="nonzero" fill-opacity="1" /><path clip-path="url(#clip730)" d="M102.844 644.382 Q99.2326 644.382 97.4039 647.947 Q95.5984 651.489 95.5984 658.618 Q95.5984 665.725 97.4039 669.29 Q99.2326 672.831 102.844 672.831 Q106.478 672.831 108.283 669.29 Q110.112 665.725 110.112 658.618 Q110.112 651.489 108.283 647.947 Q106.478 644.382 102.844 644.382 M102.844 640.679 Q108.654 640.679 111.709 645.285 Q114.788 649.868 114.788 658.618 Q114.788 667.345 111.709 671.952 Q108.654 676.535 102.844 676.535 Q97.0335 676.535 93.9549 671.952 Q90.8993 667.345 90.8993 658.618 Q90.8993 649.868 93.9549 645.285 Q97.0335 640.679 102.844 640.679 Z" fill="#000000" fill-rule="nonzero" fill-opacity="1" /><path clip-path="url(#clip730)" d="M123.006 669.984 L127.89 669.984 L127.89 675.864 L123.006 675.864 L123.006 669.984 Z" fill="#000000" fill-rule="nonzero" fill-opacity="1" /><path clip-path="url(#clip730)" d="M142.103 671.928 L158.422 671.928 L158.422 675.864 L136.478 675.864 L136.478 671.928 Q139.14 669.174 143.723 664.544 Q148.33 659.891 149.51 658.549 Q151.755 656.026 152.635 654.29 Q153.538 652.53 153.538 650.841 Q153.538 648.086 151.593 646.35 Q149.672 644.614 146.57 644.614 Q144.371 644.614 141.918 645.378 Q139.487 646.142 136.709 647.692 L136.709 642.97 Q139.533 641.836 141.987 641.257 Q144.441 640.679 146.478 640.679 Q151.848 640.679 155.042 643.364 Q158.237 646.049 158.237 650.54 Q158.237 652.669 157.427 654.591 Q156.64 656.489 154.533 659.081 Q153.955 659.753 150.853 662.97 Q147.751 666.165 142.103 671.928 Z" fill="#000000" fill-rule="nonzero" fill-opacity="1" /><path clip-path="url(#clip730)" d="M101.246 358.152 Q97.6354 358.152 95.8067 361.717 Q94.0012 365.259 94.0012 372.388 Q94.0012 379.495 95.8067 383.06 Q97.6354 386.601 101.246 386.601 Q104.881 386.601 106.686 383.06 Q108.515 379.495 108.515 372.388 Q108.515 365.259 106.686 361.717 Q104.881 358.152 101.246 358.152 M101.246 354.449 Q107.057 354.449 110.112 359.055 Q113.191 363.639 113.191 372.388 Q113.191 381.115 110.112 385.722 Q107.057 390.305 101.246 390.305 Q95.4363 390.305 92.3576 385.722 Q89.3021 381.115 89.3021 372.388 Q89.3021 363.639 92.3576 359.055 Q95.4363 354.449 101.246 354.449 Z" fill="#000000" fill-rule="nonzero" fill-opacity="1" /><path clip-path="url(#clip730)" d="M121.408 383.754 L126.293 383.754 L126.293 389.634 L121.408 389.634 L121.408 383.754 Z" fill="#000000" fill-rule="nonzero" fill-opacity="1" /><path clip-path="url(#clip730)" d="M146.478 358.152 Q142.867 358.152 141.038 361.717 Q139.232 365.259 139.232 372.388 Q139.232 379.495 141.038 383.06 Q142.867 386.601 146.478 386.601 Q150.112 386.601 151.918 383.06 Q153.746 379.495 153.746 372.388 Q153.746 365.259 151.918 361.717 Q150.112 358.152 146.478 358.152 M146.478 354.449 Q152.288 354.449 155.343 359.055 Q158.422 363.639 158.422 372.388 Q158.422 381.115 155.343 385.722 Q152.288 390.305 146.478 390.305 Q140.668 390.305 137.589 385.722 Q134.533 381.115 134.533 372.388 Q134.533 363.639 137.589 359.055 Q140.668 354.449 146.478 354.449 Z" fill="#000000" fill-rule="nonzero" fill-opacity="1" /><path clip-path="url(#clip730)" d="M102.844 71.9226 Q99.2326 71.9226 97.4039 75.4874 Q95.5984 79.0291 95.5984 86.1586 Q95.5984 93.2651 97.4039 96.8299 Q99.2326 100.372 102.844 100.372 Q106.478 100.372 108.283 96.8299 Q110.112 93.2651 110.112 86.1586 Q110.112 79.0291 108.283 75.4874 Q106.478 71.9226 102.844 71.9226 M102.844 68.2189 Q108.654 68.2189 111.709 72.8254 Q114.788 77.4087 114.788 86.1586 Q114.788 94.8855 111.709 99.4919 Q108.654 104.075 102.844 104.075 Q97.0335 104.075 93.9549 99.4919 Q90.8993 94.8855 90.8993 86.1586 Q90.8993 77.4087 93.9549 72.8254 Q97.0335 68.2189 102.844 68.2189 Z" fill="#000000" fill-rule="nonzero" fill-opacity="1" /><path clip-path="url(#clip730)" d="M123.006 97.5243 L127.89 97.5243 L127.89 103.404 L123.006 103.404 L123.006 97.5243 Z" fill="#000000" fill-rule="nonzero" fill-opacity="1" /><path clip-path="url(#clip730)" d="M142.103 99.4688 L158.422 99.4688 L158.422 103.404 L136.478 103.404 L136.478 99.4688 Q139.14 96.7141 143.723 92.0845 Q148.33 87.4318 149.51 86.0892 Q151.755 83.5661 152.635 81.83 Q153.538 80.0707 153.538 78.3809 Q153.538 75.6263 151.593 73.8902 Q149.672 72.1541 146.57 72.1541 Q144.371 72.1541 141.918 72.918 Q139.487 73.6819 136.709 75.2328 L136.709 70.5106 Q139.533 69.3763 141.987 68.7976 Q144.441 68.2189 146.478 68.2189 Q151.848 68.2189 155.042 70.9041 Q158.237 73.5893 158.237 78.08 Q158.237 80.2096 157.427 82.1309 Q156.64 84.029 154.533 86.6216 Q153.955 87.2929 150.853 90.5105 Q147.751 93.7049 142.103 99.4688 Z" fill="#000000" fill-rule="nonzero" fill-opacity="1" /><polyline clip-path="url(#clip732)" style="stroke:#009af9; stroke-linecap:round; stroke-linejoin:round; stroke-width:4; stroke-opacity:1; fill:none" points="194.422,1445.72 197.207,1418.54 199.993,1392.37 202.778,1367.16 205.563,1342.85 208.348,1319.39 211.134,1296.73 213.919,1274.84 216.704,1253.67 220.782,1223.91 224.861,1195.52 228.939,1168.4 233.017,1142.46 237.095,1117.64 241.174,1093.85 245.252,1071.04 249.33,1049.13 257.487,1007.84 265.643,969.594 273.799,934.059 281.956,900.952 290.112,870.03 298.269,841.082 306.425,813.924 314.582,788.394 322.738,764.35 330.895,741.666 339.051,720.23 347.208,699.943 354.797,682.022 362.385,664.954 369.974,648.68 377.563,633.146 392.74,604.112 407.918,577.509 428.262,545.171 448.605,516.118 468.949,489.886 489.292,466.092 506.103,448.046 522.913,431.297 539.723,415.714 556.533,401.184 587.796,376.626 619.06,354.833 658.306,330.738 697.552,309.661 732.757,292.894 767.961,277.84 808.257,262.4 848.553,248.591 878.674,239.191 908.795,230.484 985.846,210.896 1056.17,195.779 1136.21,181.089 1199.66,170.983 1278.48,159.968 1338.85,152.498 1423.96,143.151 1487.57,136.932 1559.89,130.537 1631.53,124.815 1710.33,119.125 1770.53,115.152 1846.49,110.541 1916.74,106.631 1989.2,102.912 2062.64,99.433 2139.33,96.0762 2199.74,93.6104 2337.32,88.5085 2352.76,87.9763 "/>
</svg>
