<?xml version="1.0" encoding="utf-8"?>
<svg xmlns="http://www.w3.org/2000/svg" xmlns:xlink="http://www.w3.org/1999/xlink" width="600" height="400" viewBox="0 0 2400 1600">
<defs>
  <clipPath id="clip030">
    <rect x="0" y="0" width="2400" height="1600"/>
  </clipPath>
</defs>
<path clip-path="url(#clip030)" d="M0 1600 L2400 1600 L2400 0 L0 0  Z" fill="#ffffff" fill-rule="evenodd" fill-opacity="1"/>
<defs>
  <clipPath id="clip031">
    <rect x="480" y="0" width="1681" height="1600"/>
  </clipPath>
</defs>
<path clip-path="url(#clip030)" d="M149.191 1486.45 L2352.76 1486.45 L2352.76 47.2441 L149.191 47.2441  Z" fill="#ffffff" fill-rule="evenodd" fill-opacity="1"/>
<defs>
  <clipPath id="clip032">
    <rect x="149" y="47" width="2205" height="1440"/>
  </clipPath>
</defs>
<polyline clip-path="url(#clip032)" style="stroke:#000000; stroke-linecap:round; stroke-linejoin:round; stroke-width:2; stroke-opacity:0.1; fill:none" points="149.191,1486.45 149.191,47.2441 "/>
<polyline clip-path="url(#clip032)" style="stroke:#000000; stroke-linecap:round; stroke-linejoin:round; stroke-width:2; stroke-opacity:0.1; fill:none" points="883.713,1486.45 883.713,47.2441 "/>
<polyline clip-path="url(#clip032)" style="stroke:#000000; stroke-linecap:round; stroke-linejoin:round; stroke-width:2; stroke-opacity:0.1; fill:none" points="1618.23,1486.45 1618.23,47.2441 "/>
<polyline clip-path="url(#clip032)" style="stroke:#000000; stroke-linecap:round; stroke-linejoin:round; stroke-width:2; stroke-opacity:0.1; fill:none" points="2352.76,1486.45 2352.76,47.2441 "/>
<polyline clip-path="url(#clip032)" style="stroke:#000000; stroke-linecap:round; stroke-linejoin:round; stroke-width:2; stroke-opacity:0.1; fill:none" points="149.191,1439.69 2352.76,1439.69 "/>
<polyline clip-path="url(#clip032)" style="stroke:#000000; stroke-linecap:round; stroke-linejoin:round; stroke-width:2; stroke-opacity:0.1; fill:none" points="149.191,1238.84 2352.76,1238.84 "/>
<polyline clip-path="url(#clip032)" style="stroke:#000000; stroke-linecap:round; stroke-linejoin:round; stroke-width:2; stroke-opacity:0.1; fill:none" points="149.191,1037.99 2352.76,1037.99 "/>
<polyline clip-path="url(#clip032)" style="stroke:#000000; stroke-linecap:round; stroke-linejoin:round; stroke-width:2; stroke-opacity:0.1; fill:none" points="149.191,837.139 2352.76,837.139 "/>
<polyline clip-path="url(#clip032)" style="stroke:#000000; stroke-linecap:round; stroke-linejoin:round; stroke-width:2; stroke-opacity:0.1; fill:none" points="149.191,636.288 2352.76,636.288 "/>
<polyline clip-path="url(#clip032)" style="stroke:#000000; stroke-linecap:round; stroke-linejoin:round; stroke-width:2; stroke-opacity:0.1; fill:none" points="149.191,435.438 2352.76,435.438 "/>
<polyline clip-path="url(#clip032)" style="stroke:#000000; stroke-linecap:round; stroke-linejoin:round; stroke-width:2; stroke-opacity:0.1; fill:none" points="149.191,234.587 2352.76,234.587 "/>
<polyline clip-path="url(#clip030)" style="stroke:#000000; stroke-linecap:round; stroke-linejoin:round; stroke-width:4; stroke-opacity:1; fill:none" points="149.191,1486.45 2352.76,1486.45 "/>
<polyline clip-path="url(#clip030)" style="stroke:#000000; stroke-linecap:round; stroke-linejoin:round; stroke-width:4; stroke-opacity:1; fill:none" points="149.191,1486.45 149.191,1467.55 "/>
<polyline clip-path="url(#clip030)" style="stroke:#000000; stroke-linecap:round; stroke-linejoin:round; stroke-width:4; stroke-opacity:1; fill:none" points="883.713,1486.45 883.713,1467.55 "/>
<polyline clip-path="url(#clip030)" style="stroke:#000000; stroke-linecap:round; stroke-linejoin:round; stroke-width:4; stroke-opacity:1; fill:none" points="1618.23,1486.45 1618.23,1467.55 "/>
<polyline clip-path="url(#clip030)" style="stroke:#000000; stroke-linecap:round; stroke-linejoin:round; stroke-width:4; stroke-opacity:1; fill:none" points="2352.76,1486.45 2352.76,1467.55 "/>
<path clip-path="url(#clip030)" d="M149.191 1517.37 Q145.58 1517.37 143.751 1520.93 Q141.946 1524.47 141.946 1531.6 Q141.946 1538.71 143.751 1542.27 Q145.58 1545.82 149.191 1545.82 Q152.825 1545.82 154.631 1542.27 Q156.459 1538.71 156.459 1531.6 Q156.459 1524.47 154.631 1520.93 Q152.825 1517.37 149.191 1517.37 M149.191 1513.66 Q155.001 1513.66 158.057 1518.27 Q161.135 1522.85 161.135 1531.6 Q161.135 1540.33 158.057 1544.94 Q155.001 1549.52 149.191 1549.52 Q143.381 1549.52 140.302 1544.94 Q137.246 1540.33 137.246 1531.6 Q137.246 1522.85 140.302 1518.27 Q143.381 1513.66 149.191 1513.66 Z" fill="#000000" fill-rule="nonzero" fill-opacity="1" /><path clip-path="url(#clip030)" d="M858.4 1544.91 L866.039 1544.91 L866.039 1518.55 L857.729 1520.21 L857.729 1515.95 L865.993 1514.29 L870.669 1514.29 L870.669 1544.91 L878.307 1544.91 L878.307 1548.85 L858.4 1548.85 L858.4 1544.91 Z" fill="#000000" fill-rule="nonzero" fill-opacity="1" /><path clip-path="url(#clip030)" d="M897.752 1517.37 Q894.141 1517.37 892.312 1520.93 Q890.506 1524.47 890.506 1531.6 Q890.506 1538.71 892.312 1542.27 Q894.141 1545.82 897.752 1545.82 Q901.386 1545.82 903.192 1542.27 Q905.02 1538.71 905.02 1531.6 Q905.02 1524.47 903.192 1520.93 Q901.386 1517.37 897.752 1517.37 M897.752 1513.66 Q903.562 1513.66 906.618 1518.27 Q909.696 1522.85 909.696 1531.6 Q909.696 1540.33 906.618 1544.94 Q903.562 1549.52 897.752 1549.52 Q891.942 1549.52 888.863 1544.94 Q885.807 1540.33 885.807 1531.6 Q885.807 1522.85 888.863 1518.27 Q891.942 1513.66 897.752 1513.66 Z" fill="#000000" fill-rule="nonzero" fill-opacity="1" /><path clip-path="url(#clip030)" d="M1597.01 1544.91 L1613.33 1544.91 L1613.33 1548.85 L1591.38 1548.85 L1591.38 1544.91 Q1594.04 1542.16 1598.63 1537.53 Q1603.23 1532.88 1604.41 1531.53 Q1606.66 1529.01 1607.54 1527.27 Q1608.44 1525.51 1608.44 1523.82 Q1608.44 1521.07 1606.5 1519.33 Q1604.58 1517.6 1601.48 1517.6 Q1599.28 1517.6 1596.82 1518.36 Q1594.39 1519.13 1591.61 1520.68 L1591.61 1515.95 Q1594.44 1514.82 1596.89 1514.24 Q1599.35 1513.66 1601.38 1513.66 Q1606.75 1513.66 1609.95 1516.35 Q1613.14 1519.03 1613.14 1523.52 Q1613.14 1525.65 1612.33 1527.57 Q1611.54 1529.47 1609.44 1532.07 Q1608.86 1532.74 1605.76 1535.95 Q1602.66 1539.15 1597.01 1544.91 Z" fill="#000000" fill-rule="nonzero" fill-opacity="1" /><path clip-path="url(#clip030)" d="M1633.14 1517.37 Q1629.53 1517.37 1627.7 1520.93 Q1625.9 1524.47 1625.9 1531.6 Q1625.9 1538.71 1627.7 1542.27 Q1629.53 1545.82 1633.14 1545.82 Q1636.78 1545.82 1638.58 1542.27 Q1640.41 1538.71 1640.41 1531.6 Q1640.41 1524.47 1638.58 1520.93 Q1636.78 1517.37 1633.14 1517.37 M1633.14 1513.66 Q1638.95 1513.66 1642.01 1518.27 Q1645.09 1522.85 1645.09 1531.6 Q1645.09 1540.33 1642.01 1544.94 Q1638.95 1549.52 1633.14 1549.52 Q1627.33 1549.52 1624.25 1544.94 Q1621.2 1540.33 1621.2 1531.6 Q1621.2 1522.85 1624.25 1518.27 Q1627.33 1513.66 1633.14 1513.66 Z" fill="#000000" fill-rule="nonzero" fill-opacity="1" /><path clip-path="url(#clip030)" d="M2341.6 1530.21 Q2344.96 1530.93 2346.83 1533.2 Q2348.73 1535.47 2348.73 1538.8 Q2348.73 1543.92 2345.21 1546.72 Q2341.69 1549.52 2335.21 1549.52 Q2333.03 1549.52 2330.72 1549.08 Q2328.43 1548.66 2325.97 1547.81 L2325.97 1543.29 Q2327.92 1544.43 2330.23 1545.01 Q2332.55 1545.58 2335.07 1545.58 Q2339.47 1545.58 2341.76 1543.85 Q2344.08 1542.11 2344.08 1538.8 Q2344.08 1535.75 2341.92 1534.03 Q2339.79 1532.3 2335.97 1532.3 L2331.95 1532.3 L2331.95 1528.45 L2336.16 1528.45 Q2339.61 1528.45 2341.44 1527.09 Q2343.27 1525.7 2343.27 1523.11 Q2343.27 1520.45 2341.37 1519.03 Q2339.49 1517.6 2335.97 1517.6 Q2334.05 1517.6 2331.85 1518.01 Q2329.65 1518.43 2327.02 1519.31 L2327.02 1515.14 Q2329.68 1514.4 2331.99 1514.03 Q2334.33 1513.66 2336.39 1513.66 Q2341.71 1513.66 2344.82 1516.09 Q2347.92 1518.5 2347.92 1522.62 Q2347.92 1525.49 2346.27 1527.48 Q2344.63 1529.45 2341.6 1530.21 Z" fill="#000000" fill-rule="nonzero" fill-opacity="1" /><path clip-path="url(#clip030)" d="M2367.59 1517.37 Q2363.98 1517.37 2362.15 1520.93 Q2360.35 1524.47 2360.35 1531.6 Q2360.35 1538.71 2362.15 1542.27 Q2363.98 1545.82 2367.59 1545.82 Q2371.23 1545.82 2373.03 1542.27 Q2374.86 1538.71 2374.86 1531.6 Q2374.86 1524.47 2373.03 1520.93 Q2371.23 1517.37 2367.59 1517.37 M2367.59 1513.66 Q2373.4 1513.66 2376.46 1518.27 Q2379.54 1522.85 2379.54 1531.6 Q2379.54 1540.33 2376.46 1544.94 Q2373.4 1549.52 2367.59 1549.52 Q2361.78 1549.52 2358.7 1544.94 Q2355.65 1540.33 2355.65 1531.6 Q2355.65 1522.85 2358.7 1518.27 Q2361.78 1513.66 2367.59 1513.66 Z" fill="#000000" fill-rule="nonzero" fill-opacity="1" /><polyline clip-path="url(#clip030)" style="stroke:#000000; stroke-linecap:round; stroke-linejoin:round; stroke-width:4; stroke-opacity:1; fill:none" points="149.191,1486.45 149.191,47.2441 "/>
<polyline clip-path="url(#clip030)" style="stroke:#000000; stroke-linecap:round; stroke-linejoin:round; stroke-width:4; stroke-opacity:1; fill:none" points="149.191,1439.69 168.089,1439.69 "/>
<polyline clip-path="url(#clip030)" style="stroke:#000000; stroke-linecap:round; stroke-linejoin:round; stroke-width:4; stroke-opacity:1; fill:none" points="149.191,1238.84 168.089,1238.84 "/>
<polyline clip-path="url(#clip030)" style="stroke:#000000; stroke-linecap:round; stroke-linejoin:round; stroke-width:4; stroke-opacity:1; fill:none" points="149.191,1037.99 168.089,1037.99 "/>
<polyline clip-path="url(#clip030)" style="stroke:#000000; stroke-linecap:round; stroke-linejoin:round; stroke-width:4; stroke-opacity:1; fill:none" points="149.191,837.139 168.089,837.139 "/>
<polyline clip-path="url(#clip030)" style="stroke:#000000; stroke-linecap:round; stroke-linejoin:round; stroke-width:4; stroke-opacity:1; fill:none" points="149.191,636.288 168.089,636.288 "/>
<polyline clip-path="url(#clip030)" style="stroke:#000000; stroke-linecap:round; stroke-linejoin:round; stroke-width:4; stroke-opacity:1; fill:none" points="149.191,435.438 168.089,435.438 "/>
<polyline clip-path="url(#clip030)" style="stroke:#000000; stroke-linecap:round; stroke-linejoin:round; stroke-width:4; stroke-opacity:1; fill:none" points="149.191,234.587 168.089,234.587 "/>
<path clip-path="url(#clip030)" d="M50.9921 1440.14 L80.6679 1440.14 L80.6679 1444.08 L50.9921 1444.08 L50.9921 1440.14 Z" fill="#000000" fill-rule="nonzero" fill-opacity="1" /><path clip-path="url(#clip030)" d="M103.608 1426.48 L91.8021 1444.93 L103.608 1444.93 L103.608 1426.48 M102.381 1422.41 L108.26 1422.41 L108.26 1444.93 L113.191 1444.93 L113.191 1448.82 L108.26 1448.82 L108.26 1456.97 L103.608 1456.97 L103.608 1448.82 L88.0058 1448.82 L88.0058 1444.31 L102.381 1422.41 Z" fill="#000000" fill-rule="nonzero" fill-opacity="1" /><path clip-path="url(#clip030)" d="M52.1264 1239.29 L81.8021 1239.29 L81.8021 1243.23 L52.1264 1243.23 L52.1264 1239.29 Z" fill="#000000" fill-rule="nonzero" fill-opacity="1" /><path clip-path="url(#clip030)" d="M106.061 1237.49 Q109.418 1238.2 111.293 1240.47 Q113.191 1242.74 113.191 1246.07 Q113.191 1251.19 109.672 1253.99 Q106.154 1256.79 99.6724 1256.79 Q97.4965 1256.79 95.1817 1256.35 Q92.89 1255.93 90.4364 1255.08 L90.4364 1250.56 Q92.3808 1251.7 94.6956 1252.28 Q97.0104 1252.86 99.5335 1252.86 Q103.932 1252.86 106.223 1251.12 Q108.538 1249.38 108.538 1246.07 Q108.538 1243.02 106.385 1241.3 Q104.256 1239.57 100.436 1239.57 L96.4085 1239.57 L96.4085 1235.73 L100.621 1235.73 Q104.071 1235.73 105.899 1234.36 Q107.728 1232.97 107.728 1230.38 Q107.728 1227.72 105.83 1226.31 Q103.955 1224.87 100.436 1224.87 Q98.515 1224.87 96.316 1225.29 Q94.1169 1225.7 91.478 1226.58 L91.478 1222.42 Q94.14 1221.68 96.4548 1221.31 Q98.7928 1220.93 100.853 1220.93 Q106.177 1220.93 109.279 1223.37 Q112.381 1225.77 112.381 1229.89 Q112.381 1232.76 110.737 1234.75 Q109.094 1236.72 106.061 1237.49 Z" fill="#000000" fill-rule="nonzero" fill-opacity="1" /><path clip-path="url(#clip030)" d="M53.0754 1038.44 L82.7512 1038.44 L82.7512 1042.38 L53.0754 1042.38 L53.0754 1038.44 Z" fill="#000000" fill-rule="nonzero" fill-opacity="1" /><path clip-path="url(#clip030)" d="M96.8715 1051.33 L113.191 1051.33 L113.191 1055.27 L91.2465 1055.27 L91.2465 1051.33 Q93.9086 1048.58 98.4919 1043.95 Q103.098 1039.3 104.279 1037.95 Q106.524 1035.43 107.404 1033.7 Q108.307 1031.94 108.307 1030.25 Q108.307 1027.49 106.362 1025.76 Q104.441 1024.02 101.339 1024.02 Q99.14 1024.02 96.6863 1024.78 Q94.2558 1025.55 91.478 1027.1 L91.478 1022.38 Q94.3021 1021.24 96.7558 1020.66 Q99.2095 1020.08 101.246 1020.08 Q106.617 1020.08 109.811 1022.77 Q113.006 1025.45 113.006 1029.95 Q113.006 1032.07 112.196 1034 Q111.408 1035.89 109.302 1038.49 Q108.723 1039.16 105.621 1042.38 Q102.52 1045.57 96.8715 1051.33 Z" fill="#000000" fill-rule="nonzero" fill-opacity="1" /><path clip-path="url(#clip030)" d="M52.7051 837.59 L82.3808 837.59 L82.3808 841.525 L52.7051 841.525 L52.7051 837.59 Z" fill="#000000" fill-rule="nonzero" fill-opacity="1" /><path clip-path="url(#clip030)" d="M93.2836 850.484 L100.922 850.484 L100.922 824.118 L92.6123 825.785 L92.6123 821.525 L100.876 819.859 L105.552 819.859 L105.552 850.484 L113.191 850.484 L113.191 854.419 L93.2836 854.419 L93.2836 850.484 Z" fill="#000000" fill-rule="nonzero" fill-opacity="1" /><path clip-path="url(#clip030)" d="M101.246 622.087 Q97.6354 622.087 95.8067 625.652 Q94.0012 629.193 94.0012 636.323 Q94.0012 643.429 95.8067 646.994 Q97.6354 650.536 101.246 650.536 Q104.881 650.536 106.686 646.994 Q108.515 643.429 108.515 636.323 Q108.515 629.193 106.686 625.652 Q104.881 622.087 101.246 622.087 M101.246 618.383 Q107.057 618.383 110.112 622.99 Q113.191 627.573 113.191 636.323 Q113.191 645.05 110.112 649.656 Q107.057 654.239 101.246 654.239 Q95.4363 654.239 92.3576 649.656 Q89.3021 645.05 89.3021 636.323 Q89.3021 627.573 92.3576 622.99 Q95.4363 618.383 101.246 618.383 Z" fill="#000000" fill-rule="nonzero" fill-opacity="1" /><path clip-path="url(#clip030)" d="M93.2836 448.783 L100.922 448.783 L100.922 422.417 L92.6123 424.084 L92.6123 419.824 L100.876 418.158 L105.552 418.158 L105.552 448.783 L113.191 448.783 L113.191 452.718 L93.2836 452.718 L93.2836 448.783 Z" fill="#000000" fill-rule="nonzero" fill-opacity="1" /><path clip-path="url(#clip030)" d="M96.8715 247.932 L113.191 247.932 L113.191 251.867 L91.2465 251.867 L91.2465 247.932 Q93.9086 245.177 98.4919 240.548 Q103.098 235.895 104.279 234.552 Q106.524 232.029 107.404 230.293 Q108.307 228.534 108.307 226.844 Q108.307 224.09 106.362 222.353 Q104.441 220.617 101.339 220.617 Q99.14 220.617 96.6863 221.381 Q94.2558 222.145 91.478 223.696 L91.478 218.974 Q94.3021 217.84 96.7558 217.261 Q99.2095 216.682 101.246 216.682 Q106.617 216.682 109.811 219.367 Q113.006 222.053 113.006 226.543 Q113.006 228.673 112.196 230.594 Q111.408 232.492 109.302 235.085 Q108.723 235.756 105.621 238.974 Q102.52 242.168 96.8715 247.932 Z" fill="#000000" fill-rule="nonzero" fill-opacity="1" /><polyline clip-path="url(#clip032)" style="stroke:#009af9; stroke-linecap:round; stroke-linejoin:round; stroke-width:4; stroke-opacity:1; fill:none" points="149.191,120.102 160.264,117.726 171.337,115.44 182.41,113.246 193.484,111.143 204.557,109.132 215.63,107.212 226.703,105.383 237.776,103.645 248.85,101.999 259.923,100.444 270.996,98.9802 282.069,97.6077 293.142,96.3266 304.216,95.1367 315.289,94.0382 326.362,93.0309 337.435,92.1149 348.508,91.2902 359.581,90.5568 370.655,89.9147 381.728,89.3639 392.801,88.9044 403.874,88.5362 414.947,88.2593 426.021,88.0737 437.094,87.9793 448.167,87.9763 459.24,88.0645 470.313,88.2441 481.387,88.5149 492.46,88.877 503.533,89.3305 514.606,89.8752 525.679,90.5112 536.753,91.2385 547.826,92.0571 558.899,92.967 569.972,93.9682 581.045,95.0606 592.119,96.2444 603.192,97.5195 614.265,98.8858 625.338,100.343 636.411,101.892 647.484,103.533 658.558,105.264 669.631,107.087 680.704,109.001 691.777,111.007 702.85,113.103 713.924,115.291 724.997,117.571 736.07,119.941 747.143,122.403 758.216,124.956 769.29,127.601 780.363,130.336 791.436,133.163 802.509,136.082 813.582,139.091 824.656,142.192 835.729,145.385 846.802,148.668 857.875,152.043 868.948,155.509 880.021,159.066 891.095,162.715 902.168,166.455 913.241,170.286 924.314,174.209 935.387,178.223 946.461,182.328 957.534,186.524 968.607,190.812 979.68,195.191 990.753,199.662 1001.83,204.223 1012.9,208.876 1023.97,213.62 1035.05,218.456 1046.12,223.383 1057.19,228.401 1068.27,233.51 1079.34,238.711 1090.41,244.003 1101.49,249.386 1112.56,254.861 1123.63,260.426 1134.7,266.084 1145.78,271.832 1156.85,277.672 1167.92,283.603 1179,289.625 1190.07,295.739 1201.14,301.944 1212.22,308.24 1223.29,314.627 1234.36,321.106 1245.44,327.676 1256.51,334.338 1267.58,341.09 1278.66,347.934 1289.73,354.869 1300.8,361.896 1311.88,369.014 1322.95,376.223 1334.02,383.523 1345.1,390.915 1356.17,398.398 1367.24,405.972 1378.32,413.638 1389.39,421.395 1400.46,429.243 1411.53,437.183 1422.61,445.213 1433.68,453.335 1444.75,461.549 1455.83,469.853 1466.9,478.249 1477.97,486.737 1489.05,495.315 1500.12,503.985 1511.19,512.746 1522.27,521.599 1533.34,530.542 1544.41,539.577 1555.49,548.704 1566.56,557.921 1577.63,567.23 1588.71,576.63 1599.78,586.122 1610.85,595.704 1621.93,605.378 1633,615.144 1644.07,625 1655.14,634.948 1666.22,644.988 1677.29,655.118 1688.36,665.34 1699.44,675.653 1710.51,686.057 1721.58,696.553 1732.66,707.14 1743.73,717.818 1754.8,728.588 1765.88,739.449 1776.95,750.401 1788.02,761.444 1799.1,772.579 1810.17,783.805 1821.24,795.123 1832.32,806.531 1843.39,818.031 1854.46,829.622 1865.54,841.305 1876.61,853.079 1887.68,864.944 1898.76,876.9 1909.83,888.948 1920.9,901.087 1931.97,913.317 1943.05,925.639 1954.12,938.051 1965.19,950.556 1976.27,963.151 1987.34,975.838 1998.41,988.616 2009.49,1001.49 2020.56,1014.45 2031.63,1027.5 2042.71,1040.64 2053.78,1053.88 2064.85,1067.2 2075.93,1080.62 2087,1094.13 2098.07,1107.73 2109.15,1121.42 2120.22,1135.2 2131.29,1149.07 2142.37,1163.04 2153.44,1177.09 2164.51,1191.24 2175.58,1205.48 2186.66,1219.81 2197.73,1234.23 2208.8,1248.74 2219.88,1263.35 2230.95,1278.04 2242.02,1292.83 2253.1,1307.71 2264.17,1322.68 2275.24,1337.74 2286.32,1352.89 2297.39,1368.13 2308.46,1383.47 2319.54,1398.89 2330.61,1414.41 2341.68,1430.02 2352.76,1445.72 "/>
</svg>
