<?xml version="1.0" encoding="utf-8"?>
<svg xmlns="http://www.w3.org/2000/svg" xmlns:xlink="http://www.w3.org/1999/xlink" width="600" height="400" viewBox="0 0 2400 1600">
<defs>
  <clipPath id="clip260">
    <rect x="0" y="0" width="2400" height="1600"/>
  </clipPath>
</defs>
<path clip-path="url(#clip260)" d="M0 1600 L2400 1600 L2400 0 L0 0  Z" fill="#ffffff" fill-rule="evenodd" fill-opacity="1"/>
<defs>
  <clipPath id="clip261">
    <rect x="480" y="0" width="1681" height="1600"/>
  </clipPath>
</defs>
<path clip-path="url(#clip260)" d="M148.057 1486.45 L2352.76 1486.45 L2352.76 47.2441 L148.057 47.2441  Z" fill="#ffffff" fill-rule="evenodd" fill-opacity="1"/>
<defs>
  <clipPath id="clip262">
    <rect x="148" y="47" width="2206" height="1440"/>
  </clipPath>
</defs>
<polyline clip-path="url(#clip262)" style="stroke:#000000; stroke-linecap:round; stroke-linejoin:round; stroke-width:2; stroke-opacity:0.1; fill:none" points="148.057,1486.45 148.057,47.2441 "/>
<polyline clip-path="url(#clip262)" style="stroke:#000000; stroke-linecap:round; stroke-linejoin:round; stroke-width:2; stroke-opacity:0.1; fill:none" points="588.996,1486.45 588.996,47.2441 "/>
<polyline clip-path="url(#clip262)" style="stroke:#000000; stroke-linecap:round; stroke-linejoin:round; stroke-width:2; stroke-opacity:0.1; fill:none" points="1029.94,1486.45 1029.94,47.2441 "/>
<polyline clip-path="url(#clip262)" style="stroke:#000000; stroke-linecap:round; stroke-linejoin:round; stroke-width:2; stroke-opacity:0.1; fill:none" points="1470.88,1486.45 1470.88,47.2441 "/>
<polyline clip-path="url(#clip262)" style="stroke:#000000; stroke-linecap:round; stroke-linejoin:round; stroke-width:2; stroke-opacity:0.1; fill:none" points="1911.82,1486.45 1911.82,47.2441 "/>
<polyline clip-path="url(#clip262)" style="stroke:#000000; stroke-linecap:round; stroke-linejoin:round; stroke-width:2; stroke-opacity:0.1; fill:none" points="2352.76,1486.45 2352.76,47.2441 "/>
<polyline clip-path="url(#clip262)" style="stroke:#000000; stroke-linecap:round; stroke-linejoin:round; stroke-width:2; stroke-opacity:0.1; fill:none" points="148.057,1445.72 2352.76,1445.72 "/>
<polyline clip-path="url(#clip262)" style="stroke:#000000; stroke-linecap:round; stroke-linejoin:round; stroke-width:2; stroke-opacity:0.1; fill:none" points="148.057,1087.93 2352.76,1087.93 "/>
<polyline clip-path="url(#clip262)" style="stroke:#000000; stroke-linecap:round; stroke-linejoin:round; stroke-width:2; stroke-opacity:0.1; fill:none" points="148.057,730.141 2352.76,730.141 "/>
<polyline clip-path="url(#clip262)" style="stroke:#000000; stroke-linecap:round; stroke-linejoin:round; stroke-width:2; stroke-opacity:0.1; fill:none" points="148.057,372.354 2352.76,372.354 "/>
<polyline clip-path="url(#clip260)" style="stroke:#000000; stroke-linecap:round; stroke-linejoin:round; stroke-width:4; stroke-opacity:1; fill:none" points="148.057,1486.45 2352.76,1486.45 "/>
<polyline clip-path="url(#clip260)" style="stroke:#000000; stroke-linecap:round; stroke-linejoin:round; stroke-width:4; stroke-opacity:1; fill:none" points="148.057,1486.45 148.057,1467.55 "/>
<polyline clip-path="url(#clip260)" style="stroke:#000000; stroke-linecap:round; stroke-linejoin:round; stroke-width:4; stroke-opacity:1; fill:none" points="588.996,1486.45 588.996,1467.55 "/>
<polyline clip-path="url(#clip260)" style="stroke:#000000; stroke-linecap:round; stroke-linejoin:round; stroke-width:4; stroke-opacity:1; fill:none" points="1029.94,1486.45 1029.94,1467.55 "/>
<polyline clip-path="url(#clip260)" style="stroke:#000000; stroke-linecap:round; stroke-linejoin:round; stroke-width:4; stroke-opacity:1; fill:none" points="1470.88,1486.45 1470.88,1467.55 "/>
<polyline clip-path="url(#clip260)" style="stroke:#000000; stroke-linecap:round; stroke-linejoin:round; stroke-width:4; stroke-opacity:1; fill:none" points="1911.82,1486.45 1911.82,1467.55 "/>
<polyline clip-path="url(#clip260)" style="stroke:#000000; stroke-linecap:round; stroke-linejoin:round; stroke-width:4; stroke-opacity:1; fill:none" points="2352.76,1486.45 2352.76,1467.55 "/>
<path clip-path="url(#clip260)" d="M148.057 1517.37 Q144.446 1517.37 142.617 1520.93 Q140.811 1524.47 140.811 1531.6 Q140.811 1538.71 142.617 1542.27 Q144.446 1545.82 148.057 1545.82 Q151.691 1545.82 153.496 1542.27 Q155.325 1538.71 155.325 1531.6 Q155.325 1524.47 153.496 1520.93 Q151.691 1517.37 148.057 1517.37 M148.057 1513.66 Q153.867 1513.66 156.922 1518.27 Q160.001 1522.85 160.001 1531.6 Q160.001 1540.33 156.922 1544.94 Q153.867 1549.52 148.057 1549.52 Q142.246 1549.52 139.168 1544.94 Q136.112 1540.33 136.112 1531.6 Q136.112 1522.85 139.168 1518.27 Q142.246 1513.66 148.057 1513.66 Z" fill="#000000" fill-rule="nonzero" fill-opacity="1" /><path clip-path="url(#clip260)" d="M583.649 1544.91 L599.969 1544.91 L599.969 1548.85 L578.024 1548.85 L578.024 1544.91 Q580.686 1542.16 585.27 1537.53 Q589.876 1532.88 591.057 1531.53 Q593.302 1529.01 594.182 1527.27 Q595.084 1525.51 595.084 1523.82 Q595.084 1521.07 593.14 1519.33 Q591.219 1517.6 588.117 1517.6 Q585.918 1517.6 583.464 1518.36 Q581.034 1519.13 578.256 1520.68 L578.256 1515.95 Q581.08 1514.82 583.534 1514.24 Q585.987 1513.66 588.024 1513.66 Q593.395 1513.66 596.589 1516.35 Q599.783 1519.03 599.783 1523.52 Q599.783 1525.65 598.973 1527.57 Q598.186 1529.47 596.08 1532.07 Q595.501 1532.74 592.399 1535.95 Q589.297 1539.15 583.649 1544.91 Z" fill="#000000" fill-rule="nonzero" fill-opacity="1" /><path clip-path="url(#clip260)" d="M1032.95 1518.36 L1021.14 1536.81 L1032.95 1536.81 L1032.95 1518.36 M1031.72 1514.29 L1037.6 1514.29 L1037.6 1536.81 L1042.53 1536.81 L1042.53 1540.7 L1037.6 1540.7 L1037.6 1548.85 L1032.95 1548.85 L1032.95 1540.7 L1017.34 1540.7 L1017.34 1536.19 L1031.72 1514.29 Z" fill="#000000" fill-rule="nonzero" fill-opacity="1" /><path clip-path="url(#clip260)" d="M1471.28 1529.7 Q1468.13 1529.7 1466.28 1531.86 Q1464.45 1534.01 1464.45 1537.76 Q1464.45 1541.49 1466.28 1543.66 Q1468.13 1545.82 1471.28 1545.82 Q1474.43 1545.82 1476.26 1543.66 Q1478.11 1541.49 1478.11 1537.76 Q1478.11 1534.01 1476.26 1531.86 Q1474.43 1529.7 1471.28 1529.7 M1480.56 1515.05 L1480.56 1519.31 Q1478.8 1518.48 1477 1518.04 Q1475.22 1517.6 1473.46 1517.6 Q1468.83 1517.6 1466.37 1520.72 Q1463.94 1523.85 1463.6 1530.17 Q1464.96 1528.15 1467.02 1527.09 Q1469.08 1526 1471.56 1526 Q1476.77 1526 1479.78 1529.17 Q1482.81 1532.32 1482.81 1537.76 Q1482.81 1543.08 1479.66 1546.3 Q1476.51 1549.52 1471.28 1549.52 Q1465.29 1549.52 1462.11 1544.94 Q1458.94 1540.33 1458.94 1531.6 Q1458.94 1523.41 1462.83 1518.55 Q1466.72 1513.66 1473.27 1513.66 Q1475.03 1513.66 1476.81 1514.01 Q1478.62 1514.36 1480.56 1515.05 Z" fill="#000000" fill-rule="nonzero" fill-opacity="1" /><path clip-path="url(#clip260)" d="M1911.82 1532.44 Q1908.48 1532.44 1906.56 1534.22 Q1904.66 1536 1904.66 1539.13 Q1904.66 1542.25 1906.56 1544.03 Q1908.48 1545.82 1911.82 1545.82 Q1915.15 1545.82 1917.07 1544.03 Q1918.99 1542.23 1918.99 1539.13 Q1918.99 1536 1917.07 1534.22 Q1915.17 1532.44 1911.82 1532.44 M1907.14 1530.45 Q1904.13 1529.7 1902.44 1527.64 Q1900.77 1525.58 1900.77 1522.62 Q1900.77 1518.48 1903.71 1516.07 Q1906.68 1513.66 1911.82 1513.66 Q1916.98 1513.66 1919.92 1516.07 Q1922.86 1518.48 1922.86 1522.62 Q1922.86 1525.58 1921.17 1527.64 Q1919.5 1529.7 1916.52 1530.45 Q1919.89 1531.23 1921.77 1533.52 Q1923.67 1535.82 1923.67 1539.13 Q1923.67 1544.15 1920.59 1546.83 Q1917.53 1549.52 1911.82 1549.52 Q1906.1 1549.52 1903.02 1546.83 Q1899.96 1544.15 1899.96 1539.13 Q1899.96 1535.82 1901.86 1533.52 Q1903.76 1531.23 1907.14 1530.45 M1905.43 1523.06 Q1905.43 1525.75 1907.09 1527.25 Q1908.78 1528.76 1911.82 1528.76 Q1914.83 1528.76 1916.52 1527.25 Q1918.23 1525.75 1918.23 1523.06 Q1918.23 1520.38 1916.52 1518.87 Q1914.83 1517.37 1911.82 1517.37 Q1908.78 1517.37 1907.09 1518.87 Q1905.43 1520.38 1905.43 1523.06 Z" fill="#000000" fill-rule="nonzero" fill-opacity="1" /><path clip-path="url(#clip260)" d="M2327.44 1544.91 L2335.08 1544.91 L2335.08 1518.55 L2326.77 1520.21 L2326.77 1515.95 L2335.04 1514.29 L2339.71 1514.29 L2339.71 1544.91 L2347.35 1544.91 L2347.35 1548.85 L2327.44 1548.85 L2327.44 1544.91 Z" fill="#000000" fill-rule="nonzero" fill-opacity="1" /><path clip-path="url(#clip260)" d="M2366.8 1517.37 Q2363.18 1517.37 2361.36 1520.93 Q2359.55 1524.47 2359.55 1531.6 Q2359.55 1538.71 2361.36 1542.27 Q2363.18 1545.82 2366.8 1545.82 Q2370.43 1545.82 2372.23 1542.27 Q2374.06 1538.71 2374.06 1531.6 Q2374.06 1524.47 2372.23 1520.93 Q2370.43 1517.37 2366.8 1517.37 M2366.8 1513.66 Q2372.61 1513.66 2375.66 1518.27 Q2378.74 1522.85 2378.74 1531.6 Q2378.74 1540.33 2375.66 1544.94 Q2372.61 1549.52 2366.8 1549.52 Q2360.99 1549.52 2357.91 1544.94 Q2354.85 1540.33 2354.85 1531.6 Q2354.85 1522.85 2357.91 1518.27 Q2360.99 1513.66 2366.8 1513.66 Z" fill="#000000" fill-rule="nonzero" fill-opacity="1" /><polyline clip-path="url(#clip260)" style="stroke:#000000; stroke-linecap:round; stroke-linejoin:round; stroke-width:4; stroke-opacity:1; fill:none" points="148.057,1486.45 148.057,47.2441 "/>
<polyline clip-path="url(#clip260)" style="stroke:#000000; stroke-linecap:round; stroke-linejoin:round; stroke-width:4; stroke-opacity:1; fill:none" points="148.057,1445.72 166.954,1445.72 "/>
<polyline clip-path="url(#clip260)" style="stroke:#000000; stroke-linecap:round; stroke-linejoin:round; stroke-width:4; stroke-opacity:1; fill:none" points="148.057,1087.93 166.954,1087.93 "/>
<polyline clip-path="url(#clip260)" style="stroke:#000000; stroke-linecap:round; stroke-linejoin:round; stroke-width:4; stroke-opacity:1; fill:none" points="148.057,730.141 166.954,730.141 "/>
<polyline clip-path="url(#clip260)" style="stroke:#000000; stroke-linecap:round; stroke-linejoin:round; stroke-width:4; stroke-opacity:1; fill:none" points="148.057,372.354 166.954,372.354 "/>
<path clip-path="url(#clip260)" d="M50.9921 1446.17 L80.6679 1446.17 L80.6679 1450.1 L50.9921 1450.1 L50.9921 1446.17 Z" fill="#000000" fill-rule="nonzero" fill-opacity="1" /><path clip-path="url(#clip260)" d="M104.927 1444.36 Q108.283 1445.08 110.158 1447.35 Q112.057 1449.62 112.057 1452.95 Q112.057 1458.07 108.538 1460.87 Q105.02 1463.67 98.5382 1463.67 Q96.3623 1463.67 94.0475 1463.23 Q91.7558 1462.81 89.3021 1461.95 L89.3021 1457.44 Q91.2465 1458.57 93.5613 1459.15 Q95.8761 1459.73 98.3993 1459.73 Q102.797 1459.73 105.089 1458 Q107.404 1456.26 107.404 1452.95 Q107.404 1449.89 105.251 1448.18 Q103.121 1446.44 99.3021 1446.44 L95.2743 1446.44 L95.2743 1442.6 L99.4872 1442.6 Q102.936 1442.6 104.765 1441.24 Q106.594 1439.85 106.594 1437.26 Q106.594 1434.59 104.696 1433.18 Q102.821 1431.75 99.3021 1431.75 Q97.3808 1431.75 95.1817 1432.16 Q92.9826 1432.58 90.3438 1433.46 L90.3438 1429.29 Q93.0058 1428.55 95.3206 1428.18 Q97.6585 1427.81 99.7187 1427.81 Q105.043 1427.81 108.145 1430.24 Q111.246 1432.65 111.246 1436.77 Q111.246 1439.64 109.603 1441.63 Q107.959 1443.6 104.927 1444.36 Z" fill="#000000" fill-rule="nonzero" fill-opacity="1" /><path clip-path="url(#clip260)" d="M51.9412 1088.38 L81.617 1088.38 L81.617 1092.31 L51.9412 1092.31 L51.9412 1088.38 Z" fill="#000000" fill-rule="nonzero" fill-opacity="1" /><path clip-path="url(#clip260)" d="M95.7373 1101.27 L112.057 1101.27 L112.057 1105.21 L90.1123 1105.21 L90.1123 1101.27 Q92.7743 1098.52 97.3576 1093.89 Q101.964 1089.24 103.145 1087.89 Q105.39 1085.37 106.27 1083.63 Q107.172 1081.88 107.172 1080.19 Q107.172 1077.43 105.228 1075.69 Q103.307 1073.96 100.205 1073.96 Q98.0058 1073.96 95.5521 1074.72 Q93.1215 1075.49 90.3438 1077.04 L90.3438 1072.32 Q93.1678 1071.18 95.6215 1070.6 Q98.0752 1070.02 100.112 1070.02 Q105.483 1070.02 108.677 1072.71 Q111.871 1075.39 111.871 1079.88 Q111.871 1082.01 111.061 1083.94 Q110.274 1085.83 108.168 1088.43 Q107.589 1089.1 104.487 1092.31 Q101.385 1095.51 95.7373 1101.27 Z" fill="#000000" fill-rule="nonzero" fill-opacity="1" /><path clip-path="url(#clip260)" d="M51.5708 730.592 L81.2466 730.592 L81.2466 734.528 L51.5708 734.528 L51.5708 730.592 Z" fill="#000000" fill-rule="nonzero" fill-opacity="1" /><path clip-path="url(#clip260)" d="M92.1493 743.486 L99.7882 743.486 L99.7882 717.12 L91.478 718.787 L91.478 714.528 L99.7419 712.861 L104.418 712.861 L104.418 743.486 L112.057 743.486 L112.057 747.421 L92.1493 747.421 L92.1493 743.486 Z" fill="#000000" fill-rule="nonzero" fill-opacity="1" /><path clip-path="url(#clip260)" d="M100.112 358.152 Q96.5011 358.152 94.6724 361.717 Q92.8669 365.259 92.8669 372.388 Q92.8669 379.495 94.6724 383.06 Q96.5011 386.601 100.112 386.601 Q103.746 386.601 105.552 383.06 Q107.381 379.495 107.381 372.388 Q107.381 365.259 105.552 361.717 Q103.746 358.152 100.112 358.152 M100.112 354.449 Q105.922 354.449 108.978 359.055 Q112.057 363.639 112.057 372.388 Q112.057 381.115 108.978 385.722 Q105.922 390.305 100.112 390.305 Q94.3021 390.305 91.2234 385.722 Q88.1679 381.115 88.1679 372.388 Q88.1679 363.639 91.2234 359.055 Q94.3021 354.449 100.112 354.449 Z" fill="#000000" fill-rule="nonzero" fill-opacity="1" /><polyline clip-path="url(#clip262)" style="stroke:#009af9; stroke-linecap:round; stroke-linejoin:round; stroke-width:4; stroke-opacity:1; fill:none" points="148.057,1445.72 150.902,1418.54 153.747,1392.37 156.592,1367.16 159.437,1342.85 162.282,1319.39 165.127,1296.73 167.972,1274.84 170.817,1253.67 174.983,1223.91 179.149,1195.52 183.315,1168.4 187.481,1142.46 191.647,1117.64 195.812,1093.85 199.978,1071.04 204.144,1049.13 212.476,1007.84 220.807,969.594 229.139,934.059 237.471,900.952 245.803,870.03 254.134,841.082 262.466,813.924 270.798,788.394 279.129,764.35 287.461,741.666 295.793,720.23 304.124,699.943 311.876,682.022 319.628,664.954 327.38,648.68 335.132,633.146 350.635,604.112 366.139,577.509 386.92,545.171 407.7,516.118 428.481,489.886 449.261,466.092 466.433,448.046 483.604,431.297 500.775,415.714 517.946,401.184 549.881,376.626 581.816,354.833 621.906,330.738 661.995,309.661 697.956,292.894 733.916,277.84 775.078,262.4 816.239,248.591 847.008,239.191 877.776,230.484 956.482,210.896 1028.32,195.779 1110.08,181.089 1174.89,170.983 1255.41,159.968 1317.07,152.498 1404.01,143.151 1468.98,136.932 1542.86,130.537 1616.03,124.815 1696.53,119.125 1758.02,115.152 1835.61,110.541 1907.38,106.631 1981.39,102.912 2056.41,99.433 2134.75,96.0762 2196.46,93.6104 2336.99,88.5085 2352.76,87.9763 "/>
</svg>
