<?xml version="1.0" encoding="utf-8"?>
<svg xmlns="http://www.w3.org/2000/svg" xmlns:xlink="http://www.w3.org/1999/xlink" width="600" height="400" viewBox="0 0 2400 1600">
<defs>
  <clipPath id="clip100">
    <rect x="0" y="0" width="2400" height="1600"/>
  </clipPath>
</defs>
<path clip-path="url(#clip100)" d="M0 1600 L2400 1600 L2400 0 L0 0  Z" fill="#ffffff" fill-rule="evenodd" fill-opacity="1"/>
<defs>
  <clipPath id="clip101">
    <rect x="480" y="0" width="1681" height="1600"/>
  </clipPath>
</defs>
<path clip-path="url(#clip100)" d="M192.339 1486.45 L2352.76 1486.45 L2352.76 47.2441 L192.339 47.2441  Z" fill="#ffffff" fill-rule="evenodd" fill-opacity="1"/>
<defs>
  <clipPath id="clip102">
    <rect x="192" y="47" width="2161" height="1440"/>
  </clipPath>
</defs>
<polyline clip-path="url(#clip102)" style="stroke:#000000; stroke-linecap:round; stroke-linejoin:round; stroke-width:2; stroke-opacity:0.1; fill:none" points="192.339,1486.45 192.339,47.2441 "/>
<polyline clip-path="url(#clip102)" style="stroke:#000000; stroke-linecap:round; stroke-linejoin:round; stroke-width:2; stroke-opacity:0.1; fill:none" points="624.422,1486.45 624.422,47.2441 "/>
<polyline clip-path="url(#clip102)" style="stroke:#000000; stroke-linecap:round; stroke-linejoin:round; stroke-width:2; stroke-opacity:0.1; fill:none" points="1056.51,1486.45 1056.51,47.2441 "/>
<polyline clip-path="url(#clip102)" style="stroke:#000000; stroke-linecap:round; stroke-linejoin:round; stroke-width:2; stroke-opacity:0.1; fill:none" points="1488.59,1486.45 1488.59,47.2441 "/>
<polyline clip-path="url(#clip102)" style="stroke:#000000; stroke-linecap:round; stroke-linejoin:round; stroke-width:2; stroke-opacity:0.1; fill:none" points="1920.67,1486.45 1920.67,47.2441 "/>
<polyline clip-path="url(#clip102)" style="stroke:#000000; stroke-linecap:round; stroke-linejoin:round; stroke-width:2; stroke-opacity:0.1; fill:none" points="2352.76,1486.45 2352.76,47.2441 "/>
<polyline clip-path="url(#clip102)" style="stroke:#000000; stroke-linecap:round; stroke-linejoin:round; stroke-width:2; stroke-opacity:0.1; fill:none" points="192.339,1447.57 2352.76,1447.57 "/>
<polyline clip-path="url(#clip102)" style="stroke:#000000; stroke-linecap:round; stroke-linejoin:round; stroke-width:2; stroke-opacity:0.1; fill:none" points="192.339,1161.34 2352.76,1161.34 "/>
<polyline clip-path="url(#clip102)" style="stroke:#000000; stroke-linecap:round; stroke-linejoin:round; stroke-width:2; stroke-opacity:0.1; fill:none" points="192.339,875.108 2352.76,875.108 "/>
<polyline clip-path="url(#clip102)" style="stroke:#000000; stroke-linecap:round; stroke-linejoin:round; stroke-width:2; stroke-opacity:0.1; fill:none" points="192.339,588.879 2352.76,588.879 "/>
<polyline clip-path="url(#clip102)" style="stroke:#000000; stroke-linecap:round; stroke-linejoin:round; stroke-width:2; stroke-opacity:0.1; fill:none" points="192.339,302.649 2352.76,302.649 "/>
<polyline clip-path="url(#clip100)" style="stroke:#000000; stroke-linecap:round; stroke-linejoin:round; stroke-width:4; stroke-opacity:1; fill:none" points="192.339,1486.45 2352.76,1486.45 "/>
<polyline clip-path="url(#clip100)" style="stroke:#000000; stroke-linecap:round; stroke-linejoin:round; stroke-width:4; stroke-opacity:1; fill:none" points="192.339,1486.45 192.339,1467.55 "/>
<polyline clip-path="url(#clip100)" style="stroke:#000000; stroke-linecap:round; stroke-linejoin:round; stroke-width:4; stroke-opacity:1; fill:none" points="624.422,1486.45 624.422,1467.55 "/>
<polyline clip-path="url(#clip100)" style="stroke:#000000; stroke-linecap:round; stroke-linejoin:round; stroke-width:4; stroke-opacity:1; fill:none" points="1056.51,1486.45 1056.51,1467.55 "/>
<polyline clip-path="url(#clip100)" style="stroke:#000000; stroke-linecap:round; stroke-linejoin:round; stroke-width:4; stroke-opacity:1; fill:none" points="1488.59,1486.45 1488.59,1467.55 "/>
<polyline clip-path="url(#clip100)" style="stroke:#000000; stroke-linecap:round; stroke-linejoin:round; stroke-width:4; stroke-opacity:1; fill:none" points="1920.67,1486.45 1920.67,1467.55 "/>
<polyline clip-path="url(#clip100)" style="stroke:#000000; stroke-linecap:round; stroke-linejoin:round; stroke-width:4; stroke-opacity:1; fill:none" points="2352.76,1486.45 2352.76,1467.55 "/>
<path clip-path="url(#clip100)" d="M192.339 1517.37 Q188.728 1517.37 186.899 1520.93 Q185.093 1524.47 185.093 1531.6 Q185.093 1538.71 186.899 1542.27 Q188.728 1545.82 192.339 1545.82 Q195.973 1545.82 197.779 1542.27 Q199.607 1538.71 199.607 1531.6 Q199.607 1524.47 197.779 1520.93 Q195.973 1517.37 192.339 1517.37 M192.339 1513.66 Q198.149 1513.66 201.204 1518.27 Q204.283 1522.85 204.283 1531.6 Q204.283 1540.33 201.204 1544.94 Q198.149 1549.52 192.339 1549.52 Q186.529 1549.52 183.45 1544.94 Q180.394 1540.33 180.394 1531.6 Q180.394 1522.85 183.45 1518.27 Q186.529 1513.66 192.339 1513.66 Z" fill="#000000" fill-rule="nonzero" fill-opacity="1" /><path clip-path="url(#clip100)" d="M619.075 1544.91 L635.394 1544.91 L635.394 1548.85 L613.45 1548.85 L613.45 1544.91 Q616.112 1542.16 620.695 1537.53 Q625.302 1532.88 626.482 1531.53 Q628.728 1529.01 629.607 1527.27 Q630.51 1525.51 630.51 1523.82 Q630.51 1521.07 628.566 1519.33 Q626.644 1517.6 623.543 1517.6 Q621.344 1517.6 618.89 1518.36 Q616.459 1519.13 613.682 1520.68 L613.682 1515.95 Q616.506 1514.82 618.959 1514.24 Q621.413 1513.66 623.45 1513.66 Q628.82 1513.66 632.015 1516.35 Q635.209 1519.03 635.209 1523.52 Q635.209 1525.65 634.399 1527.57 Q633.612 1529.47 631.506 1532.07 Q630.927 1532.74 627.825 1535.95 Q624.723 1539.15 619.075 1544.91 Z" fill="#000000" fill-rule="nonzero" fill-opacity="1" /><path clip-path="url(#clip100)" d="M1059.51 1518.36 L1047.71 1536.81 L1059.51 1536.81 L1059.51 1518.36 M1058.29 1514.29 L1064.17 1514.29 L1064.17 1536.81 L1069.1 1536.81 L1069.1 1540.7 L1064.17 1540.7 L1064.17 1548.85 L1059.51 1548.85 L1059.51 1540.7 L1043.91 1540.7 L1043.91 1536.19 L1058.29 1514.29 Z" fill="#000000" fill-rule="nonzero" fill-opacity="1" /><path clip-path="url(#clip100)" d="M1488.99 1529.7 Q1485.85 1529.7 1483.99 1531.86 Q1482.17 1534.01 1482.17 1537.76 Q1482.17 1541.49 1483.99 1543.66 Q1485.85 1545.82 1488.99 1545.82 Q1492.14 1545.82 1493.97 1543.66 Q1495.82 1541.49 1495.82 1537.76 Q1495.82 1534.01 1493.97 1531.86 Q1492.14 1529.7 1488.99 1529.7 M1498.28 1515.05 L1498.28 1519.31 Q1496.52 1518.48 1494.71 1518.04 Q1492.93 1517.6 1491.17 1517.6 Q1486.54 1517.6 1484.09 1520.72 Q1481.66 1523.85 1481.31 1530.17 Q1482.67 1528.15 1484.73 1527.09 Q1486.8 1526 1489.27 1526 Q1494.48 1526 1497.49 1529.17 Q1500.52 1532.32 1500.52 1537.76 Q1500.52 1543.08 1497.37 1546.3 Q1494.23 1549.52 1488.99 1549.52 Q1483 1549.52 1479.83 1544.94 Q1476.66 1540.33 1476.66 1531.6 Q1476.66 1523.41 1480.55 1518.55 Q1484.43 1513.66 1490.98 1513.66 Q1492.74 1513.66 1494.53 1514.01 Q1496.33 1514.36 1498.28 1515.05 Z" fill="#000000" fill-rule="nonzero" fill-opacity="1" /><path clip-path="url(#clip100)" d="M1920.67 1532.44 Q1917.34 1532.44 1915.42 1534.22 Q1913.52 1536 1913.52 1539.13 Q1913.52 1542.25 1915.42 1544.03 Q1917.34 1545.82 1920.67 1545.82 Q1924.01 1545.82 1925.93 1544.03 Q1927.85 1542.23 1927.85 1539.13 Q1927.85 1536 1925.93 1534.22 Q1924.03 1532.44 1920.67 1532.44 M1916 1530.45 Q1912.99 1529.7 1911.3 1527.64 Q1909.63 1525.58 1909.63 1522.62 Q1909.63 1518.48 1912.57 1516.07 Q1915.53 1513.66 1920.67 1513.66 Q1925.83 1513.66 1928.77 1516.07 Q1931.71 1518.48 1931.71 1522.62 Q1931.71 1525.58 1930.02 1527.64 Q1928.36 1529.7 1925.37 1530.45 Q1928.75 1531.23 1930.63 1533.52 Q1932.52 1535.82 1932.52 1539.13 Q1932.52 1544.15 1929.45 1546.83 Q1926.39 1549.52 1920.67 1549.52 Q1914.95 1549.52 1911.88 1546.83 Q1908.82 1544.15 1908.82 1539.13 Q1908.82 1535.82 1910.72 1533.52 Q1912.62 1531.23 1916 1530.45 M1914.28 1523.06 Q1914.28 1525.75 1915.95 1527.25 Q1917.64 1528.76 1920.67 1528.76 Q1923.68 1528.76 1925.37 1527.25 Q1927.08 1525.75 1927.08 1523.06 Q1927.08 1520.38 1925.37 1518.87 Q1923.68 1517.37 1920.67 1517.37 Q1917.64 1517.37 1915.95 1518.87 Q1914.28 1520.38 1914.28 1523.06 Z" fill="#000000" fill-rule="nonzero" fill-opacity="1" /><path clip-path="url(#clip100)" d="M2327.44 1544.91 L2335.08 1544.91 L2335.08 1518.55 L2326.77 1520.21 L2326.77 1515.95 L2335.04 1514.29 L2339.71 1514.29 L2339.71 1544.91 L2347.35 1544.91 L2347.35 1548.85 L2327.44 1548.85 L2327.44 1544.91 Z" fill="#000000" fill-rule="nonzero" fill-opacity="1" /><path clip-path="url(#clip100)" d="M2366.8 1517.37 Q2363.18 1517.37 2361.36 1520.93 Q2359.55 1524.47 2359.55 1531.6 Q2359.55 1538.71 2361.36 1542.27 Q2363.18 1545.82 2366.8 1545.82 Q2370.43 1545.82 2372.23 1542.27 Q2374.06 1538.71 2374.06 1531.6 Q2374.06 1524.47 2372.23 1520.93 Q2370.43 1517.37 2366.8 1517.37 M2366.8 1513.66 Q2372.61 1513.66 2375.66 1518.27 Q2378.74 1522.85 2378.74 1531.6 Q2378.74 1540.33 2375.66 1544.94 Q2372.61 1549.52 2366.8 1549.52 Q2360.99 1549.52 2357.91 1544.94 Q2354.85 1540.33 2354.85 1531.6 Q2354.85 1522.85 2357.91 1518.27 Q2360.99 1513.66 2366.8 1513.66 Z" fill="#000000" fill-rule="nonzero" fill-opacity="1" /><polyline clip-path="url(#clip100)" style="stroke:#000000; stroke-linecap:round; stroke-linejoin:round; stroke-width:4; stroke-opacity:1; fill:none" points="192.339,1486.45 192.339,47.2441 "/>
<polyline clip-path="url(#clip100)" style="stroke:#000000; stroke-linecap:round; stroke-linejoin:round; stroke-width:4; stroke-opacity:1; fill:none" points="192.339,1447.57 211.236,1447.57 "/>
<polyline clip-path="url(#clip100)" style="stroke:#000000; stroke-linecap:round; stroke-linejoin:round; stroke-width:4; stroke-opacity:1; fill:none" points="192.339,1161.34 211.236,1161.34 "/>
<polyline clip-path="url(#clip100)" style="stroke:#000000; stroke-linecap:round; stroke-linejoin:round; stroke-width:4; stroke-opacity:1; fill:none" points="192.339,875.108 211.236,875.108 "/>
<polyline clip-path="url(#clip100)" style="stroke:#000000; stroke-linecap:round; stroke-linejoin:round; stroke-width:4; stroke-opacity:1; fill:none" points="192.339,588.879 211.236,588.879 "/>
<polyline clip-path="url(#clip100)" style="stroke:#000000; stroke-linecap:round; stroke-linejoin:round; stroke-width:4; stroke-opacity:1; fill:none" points="192.339,302.649 211.236,302.649 "/>
<path clip-path="url(#clip100)" d="M50.9921 1448.02 L80.6679 1448.02 L80.6679 1451.95 L50.9921 1451.95 L50.9921 1448.02 Z" fill="#000000" fill-rule="nonzero" fill-opacity="1" /><path clip-path="url(#clip100)" d="M100.76 1433.37 Q97.1493 1433.37 95.3206 1436.93 Q93.515 1440.47 93.515 1447.6 Q93.515 1454.71 95.3206 1458.27 Q97.1493 1461.82 100.76 1461.82 Q104.395 1461.82 106.2 1458.27 Q108.029 1454.71 108.029 1447.6 Q108.029 1440.47 106.2 1436.93 Q104.395 1433.37 100.76 1433.37 M100.76 1429.66 Q106.571 1429.66 109.626 1434.27 Q112.705 1438.85 112.705 1447.6 Q112.705 1456.33 109.626 1460.94 Q106.571 1465.52 100.76 1465.52 Q94.9502 1465.52 91.8715 1460.94 Q88.816 1456.33 88.816 1447.6 Q88.816 1438.85 91.8715 1434.27 Q94.9502 1429.66 100.76 1429.66 Z" fill="#000000" fill-rule="nonzero" fill-opacity="1" /><path clip-path="url(#clip100)" d="M120.922 1458.97 L125.807 1458.97 L125.807 1464.85 L120.922 1464.85 L120.922 1458.97 Z" fill="#000000" fill-rule="nonzero" fill-opacity="1" /><path clip-path="url(#clip100)" d="M140.019 1460.91 L156.339 1460.91 L156.339 1464.85 L134.394 1464.85 L134.394 1460.91 Q137.056 1458.16 141.64 1453.53 Q146.246 1448.88 147.427 1447.53 Q149.672 1445.01 150.552 1443.27 Q151.455 1441.51 151.455 1439.83 Q151.455 1437.07 149.51 1435.33 Q147.589 1433.6 144.487 1433.6 Q142.288 1433.6 139.834 1434.36 Q137.404 1435.13 134.626 1436.68 L134.626 1431.95 Q137.45 1430.82 139.904 1430.24 Q142.357 1429.66 144.394 1429.66 Q149.765 1429.66 152.959 1432.35 Q156.154 1435.03 156.154 1439.52 Q156.154 1441.65 155.343 1443.58 Q154.556 1445.47 152.45 1448.07 Q151.871 1448.74 148.769 1451.95 Q145.668 1455.15 140.019 1460.91 Z" fill="#000000" fill-rule="nonzero" fill-opacity="1" /><path clip-path="url(#clip100)" d="M99.1632 1147.14 Q95.5521 1147.14 93.7234 1150.7 Q91.9178 1154.24 91.9178 1161.37 Q91.9178 1168.48 93.7234 1172.04 Q95.5521 1175.59 99.1632 1175.59 Q102.797 1175.59 104.603 1172.04 Q106.432 1168.48 106.432 1161.37 Q106.432 1154.24 104.603 1150.7 Q102.797 1147.14 99.1632 1147.14 M99.1632 1143.43 Q104.973 1143.43 108.029 1148.04 Q111.108 1152.62 111.108 1161.37 Q111.108 1170.1 108.029 1174.71 Q104.973 1179.29 99.1632 1179.29 Q93.353 1179.29 90.2743 1174.71 Q87.2188 1170.1 87.2188 1161.37 Q87.2188 1152.62 90.2743 1148.04 Q93.353 1143.43 99.1632 1143.43 Z" fill="#000000" fill-rule="nonzero" fill-opacity="1" /><path clip-path="url(#clip100)" d="M119.325 1172.74 L124.209 1172.74 L124.209 1178.62 L119.325 1178.62 L119.325 1172.74 Z" fill="#000000" fill-rule="nonzero" fill-opacity="1" /><path clip-path="url(#clip100)" d="M144.394 1147.14 Q140.783 1147.14 138.955 1150.7 Q137.149 1154.24 137.149 1161.37 Q137.149 1168.48 138.955 1172.04 Q140.783 1175.59 144.394 1175.59 Q148.029 1175.59 149.834 1172.04 Q151.663 1168.48 151.663 1161.37 Q151.663 1154.24 149.834 1150.7 Q148.029 1147.14 144.394 1147.14 M144.394 1143.43 Q150.205 1143.43 153.26 1148.04 Q156.339 1152.62 156.339 1161.37 Q156.339 1170.1 153.26 1174.71 Q150.205 1179.29 144.394 1179.29 Q138.584 1179.29 135.506 1174.71 Q132.45 1170.1 132.45 1161.37 Q132.45 1152.62 135.506 1148.04 Q138.584 1143.43 144.394 1143.43 Z" fill="#000000" fill-rule="nonzero" fill-opacity="1" /><path clip-path="url(#clip100)" d="M100.76 860.907 Q97.1493 860.907 95.3206 864.472 Q93.515 868.013 93.515 875.143 Q93.515 882.25 95.3206 885.814 Q97.1493 889.356 100.76 889.356 Q104.395 889.356 106.2 885.814 Q108.029 882.25 108.029 875.143 Q108.029 868.013 106.2 864.472 Q104.395 860.907 100.76 860.907 M100.76 857.203 Q106.571 857.203 109.626 861.81 Q112.705 866.393 112.705 875.143 Q112.705 883.87 109.626 888.476 Q106.571 893.06 100.76 893.06 Q94.9502 893.06 91.8715 888.476 Q88.816 883.87 88.816 875.143 Q88.816 866.393 91.8715 861.81 Q94.9502 857.203 100.76 857.203 Z" fill="#000000" fill-rule="nonzero" fill-opacity="1" /><path clip-path="url(#clip100)" d="M120.922 886.509 L125.807 886.509 L125.807 892.388 L120.922 892.388 L120.922 886.509 Z" fill="#000000" fill-rule="nonzero" fill-opacity="1" /><path clip-path="url(#clip100)" d="M140.019 888.453 L156.339 888.453 L156.339 892.388 L134.394 892.388 L134.394 888.453 Q137.056 885.699 141.64 881.069 Q146.246 876.416 147.427 875.074 Q149.672 872.55 150.552 870.814 Q151.455 869.055 151.455 867.365 Q151.455 864.611 149.51 862.875 Q147.589 861.139 144.487 861.139 Q142.288 861.139 139.834 861.902 Q137.404 862.666 134.626 864.217 L134.626 859.495 Q137.45 858.361 139.904 857.782 Q142.357 857.203 144.394 857.203 Q149.765 857.203 152.959 859.889 Q156.154 862.574 156.154 867.064 Q156.154 869.194 155.343 871.115 Q154.556 873.013 152.45 875.606 Q151.871 876.277 148.769 879.495 Q145.668 882.689 140.019 888.453 Z" fill="#000000" fill-rule="nonzero" fill-opacity="1" /><path clip-path="url(#clip100)" d="M98.6771 574.677 Q95.066 574.677 93.2373 578.242 Q91.4317 581.784 91.4317 588.913 Q91.4317 596.02 93.2373 599.584 Q95.066 603.126 98.6771 603.126 Q102.311 603.126 104.117 599.584 Q105.946 596.02 105.946 588.913 Q105.946 581.784 104.117 578.242 Q102.311 574.677 98.6771 574.677 M98.6771 570.974 Q104.487 570.974 107.543 575.58 Q110.621 580.163 110.621 588.913 Q110.621 597.64 107.543 602.246 Q104.487 606.83 98.6771 606.83 Q92.8669 606.83 89.7882 602.246 Q86.7327 597.64 86.7327 588.913 Q86.7327 580.163 89.7882 575.58 Q92.8669 570.974 98.6771 570.974 Z" fill="#000000" fill-rule="nonzero" fill-opacity="1" /><path clip-path="url(#clip100)" d="M118.839 600.279 L123.723 600.279 L123.723 606.159 L118.839 606.159 L118.839 600.279 Z" fill="#000000" fill-rule="nonzero" fill-opacity="1" /><path clip-path="url(#clip100)" d="M146.756 575.673 L134.95 594.122 L146.756 594.122 L146.756 575.673 M145.529 571.599 L151.408 571.599 L151.408 594.122 L156.339 594.122 L156.339 598.01 L151.408 598.01 L151.408 606.159 L146.756 606.159 L146.756 598.01 L131.154 598.01 L131.154 593.497 L145.529 571.599 Z" fill="#000000" fill-rule="nonzero" fill-opacity="1" /><path clip-path="url(#clip100)" d="M99.0011 288.447 Q95.39 288.447 93.5613 292.012 Q91.7558 295.554 91.7558 302.683 Q91.7558 309.79 93.5613 313.355 Q95.39 316.896 99.0011 316.896 Q102.635 316.896 104.441 313.355 Q106.27 309.79 106.27 302.683 Q106.27 295.554 104.441 292.012 Q102.635 288.447 99.0011 288.447 M99.0011 284.744 Q104.811 284.744 107.867 289.35 Q110.946 293.933 110.946 302.683 Q110.946 311.41 107.867 316.017 Q104.811 320.6 99.0011 320.6 Q93.191 320.6 90.1123 316.017 Q87.0567 311.41 87.0567 302.683 Q87.0567 293.933 90.1123 289.35 Q93.191 284.744 99.0011 284.744 Z" fill="#000000" fill-rule="nonzero" fill-opacity="1" /><path clip-path="url(#clip100)" d="M119.163 314.049 L124.047 314.049 L124.047 319.929 L119.163 319.929 L119.163 314.049 Z" fill="#000000" fill-rule="nonzero" fill-opacity="1" /><path clip-path="url(#clip100)" d="M144.811 300.785 Q141.663 300.785 139.811 302.938 Q137.982 305.091 137.982 308.841 Q137.982 312.568 139.811 314.744 Q141.663 316.896 144.811 316.896 Q147.959 316.896 149.788 314.744 Q151.64 312.568 151.64 308.841 Q151.64 305.091 149.788 302.938 Q147.959 300.785 144.811 300.785 M154.093 286.133 L154.093 290.392 Q152.334 289.558 150.529 289.119 Q148.746 288.679 146.987 288.679 Q142.357 288.679 139.904 291.804 Q137.473 294.929 137.126 301.248 Q138.492 299.234 140.552 298.17 Q142.612 297.082 145.089 297.082 Q150.297 297.082 153.306 300.253 Q156.339 303.401 156.339 308.841 Q156.339 314.165 153.191 317.382 Q150.043 320.6 144.811 320.6 Q138.816 320.6 135.644 316.017 Q132.473 311.41 132.473 302.683 Q132.473 294.489 136.362 289.628 Q140.251 284.744 146.802 284.744 Q148.561 284.744 150.343 285.091 Q152.149 285.438 154.093 286.133 Z" fill="#000000" fill-rule="nonzero" fill-opacity="1" /><polyline clip-path="url(#clip102)" style="stroke:#009af9; stroke-linecap:round; stroke-linejoin:round; stroke-width:4; stroke-opacity:1; fill:none" points="192.339,87.9763 195.127,115.153 197.915,141.319 200.703,166.532 203.491,190.844 206.278,214.305 209.066,236.96 211.854,258.852 214.642,280.019 218.724,309.782 222.807,338.176 226.889,365.296 230.971,391.228 235.053,416.053 239.135,439.84 243.218,462.656 247.3,484.56 255.464,525.85 263.628,564.098 271.793,599.633 279.957,632.74 288.121,663.662 296.286,692.61 304.45,719.768 312.615,745.298 320.779,769.342 328.943,792.026 337.108,813.462 345.272,833.749 352.868,851.67 360.464,868.738 368.06,885.012 375.656,900.546 390.849,929.58 406.041,956.183 426.404,988.521 446.767,1017.57 467.131,1043.81 487.494,1067.6 504.32,1085.65 521.146,1102.4 537.973,1117.98 554.799,1132.51 586.093,1157.07 617.386,1178.86 656.671,1202.95 695.955,1224.03 731.193,1240.8 766.431,1255.85 806.766,1271.29 847.101,1285.1 877.251,1294.5 907.401,1303.21 984.527,1322.8 1054.92,1337.91 1135.04,1352.6 1198.55,1362.71 1277.45,1373.72 1337.87,1381.19 1423.07,1390.54 1486.73,1396.76 1559.13,1403.16 1630.83,1408.88 1709.71,1414.57 1769.97,1418.54 1846,1423.15 1916.32,1427.06 1988.85,1430.78 2062.36,1434.26 2139.13,1437.62 2199.6,1440.08 2337.31,1445.18 2352.76,1445.72 "/>
</svg>
