<?xml version="1.0" encoding="utf-8"?>
<svg xmlns="http://www.w3.org/2000/svg" xmlns:xlink="http://www.w3.org/1999/xlink" width="600" height="400" viewBox="0 0 2400 1600">
<defs>
  <clipPath id="clip030">
    <rect x="0" y="0" width="2400" height="1600"/>
  </clipPath>
</defs>
<path clip-path="url(#clip030)" d="M0 1600 L2400 1600 L2400 0 L0 0  Z" fill="#ffffff" fill-rule="evenodd" fill-opacity="1"/>
<defs>
  <clipPath id="clip031">
    <rect x="480" y="0" width="1681" height="1600"/>
  </clipPath>
</defs>
<path clip-path="url(#clip030)" d="M205.121 1423.18 L2352.76 1423.18 L2352.76 47.2441 L205.121 47.2441  Z" fill="#ffffff" fill-rule="evenodd" fill-opacity="1"/>
<defs>
  <clipPath id="clip032">
    <rect x="205" y="47" width="2149" height="1377"/>
  </clipPath>
</defs>
<polyline clip-path="url(#clip032)" style="stroke:#000000; stroke-linecap:round; stroke-linejoin:round; stroke-width:2; stroke-opacity:0.1; fill:none" points="205.121,1423.18 205.121,47.2441 "/>
<polyline clip-path="url(#clip032)" style="stroke:#000000; stroke-linecap:round; stroke-linejoin:round; stroke-width:2; stroke-opacity:0.1; fill:none" points="634.648,1423.18 634.648,47.2441 "/>
<polyline clip-path="url(#clip032)" style="stroke:#000000; stroke-linecap:round; stroke-linejoin:round; stroke-width:2; stroke-opacity:0.1; fill:none" points="1064.17,1423.18 1064.17,47.2441 "/>
<polyline clip-path="url(#clip032)" style="stroke:#000000; stroke-linecap:round; stroke-linejoin:round; stroke-width:2; stroke-opacity:0.1; fill:none" points="1493.7,1423.18 1493.7,47.2441 "/>
<polyline clip-path="url(#clip032)" style="stroke:#000000; stroke-linecap:round; stroke-linejoin:round; stroke-width:2; stroke-opacity:0.1; fill:none" points="1923.23,1423.18 1923.23,47.2441 "/>
<polyline clip-path="url(#clip032)" style="stroke:#000000; stroke-linecap:round; stroke-linejoin:round; stroke-width:2; stroke-opacity:0.1; fill:none" points="2352.76,1423.18 2352.76,47.2441 "/>
<polyline clip-path="url(#clip032)" style="stroke:#000000; stroke-linecap:round; stroke-linejoin:round; stroke-width:2; stroke-opacity:0.1; fill:none" points="205.121,1423.18 2352.76,1423.18 "/>
<polyline clip-path="url(#clip032)" style="stroke:#000000; stroke-linecap:round; stroke-linejoin:round; stroke-width:2; stroke-opacity:0.1; fill:none" points="205.121,1147.99 2352.76,1147.99 "/>
<polyline clip-path="url(#clip032)" style="stroke:#000000; stroke-linecap:round; stroke-linejoin:round; stroke-width:2; stroke-opacity:0.1; fill:none" points="205.121,872.806 2352.76,872.806 "/>
<polyline clip-path="url(#clip032)" style="stroke:#000000; stroke-linecap:round; stroke-linejoin:round; stroke-width:2; stroke-opacity:0.1; fill:none" points="205.121,597.618 2352.76,597.618 "/>
<polyline clip-path="url(#clip032)" style="stroke:#000000; stroke-linecap:round; stroke-linejoin:round; stroke-width:2; stroke-opacity:0.1; fill:none" points="205.121,322.431 2352.76,322.431 "/>
<polyline clip-path="url(#clip032)" style="stroke:#000000; stroke-linecap:round; stroke-linejoin:round; stroke-width:2; stroke-opacity:0.1; fill:none" points="205.121,47.2441 2352.76,47.2441 "/>
<polyline clip-path="url(#clip030)" style="stroke:#000000; stroke-linecap:round; stroke-linejoin:round; stroke-width:4; stroke-opacity:1; fill:none" points="205.121,1423.18 2352.76,1423.18 "/>
<polyline clip-path="url(#clip030)" style="stroke:#000000; stroke-linecap:round; stroke-linejoin:round; stroke-width:4; stroke-opacity:1; fill:none" points="205.121,1423.18 205.121,1404.28 "/>
<polyline clip-path="url(#clip030)" style="stroke:#000000; stroke-linecap:round; stroke-linejoin:round; stroke-width:4; stroke-opacity:1; fill:none" points="634.648,1423.18 634.648,1404.28 "/>
<polyline clip-path="url(#clip030)" style="stroke:#000000; stroke-linecap:round; stroke-linejoin:round; stroke-width:4; stroke-opacity:1; fill:none" points="1064.17,1423.18 1064.17,1404.28 "/>
<polyline clip-path="url(#clip030)" style="stroke:#000000; stroke-linecap:round; stroke-linejoin:round; stroke-width:4; stroke-opacity:1; fill:none" points="1493.7,1423.18 1493.7,1404.28 "/>
<polyline clip-path="url(#clip030)" style="stroke:#000000; stroke-linecap:round; stroke-linejoin:round; stroke-width:4; stroke-opacity:1; fill:none" points="1923.23,1423.18 1923.23,1404.28 "/>
<polyline clip-path="url(#clip030)" style="stroke:#000000; stroke-linecap:round; stroke-linejoin:round; stroke-width:4; stroke-opacity:1; fill:none" points="2352.76,1423.18 2352.76,1404.28 "/>
<path clip-path="url(#clip030)" d="M205.121 1454.1 Q201.51 1454.1 199.681 1457.66 Q197.876 1461.2 197.876 1468.33 Q197.876 1475.44 199.681 1479.01 Q201.51 1482.55 205.121 1482.55 Q208.755 1482.55 210.561 1479.01 Q212.389 1475.44 212.389 1468.33 Q212.389 1461.2 210.561 1457.66 Q208.755 1454.1 205.121 1454.1 M205.121 1450.39 Q210.931 1450.39 213.987 1455 Q217.065 1459.58 217.065 1468.33 Q217.065 1477.06 213.987 1481.67 Q210.931 1486.25 205.121 1486.25 Q199.311 1486.25 196.232 1481.67 Q193.177 1477.06 193.177 1468.33 Q193.177 1459.58 196.232 1455 Q199.311 1450.39 205.121 1450.39 Z" fill="#000000" fill-rule="nonzero" fill-opacity="1" /><path clip-path="url(#clip030)" d="M609.336 1481.64 L616.974 1481.64 L616.974 1455.28 L608.664 1456.95 L608.664 1452.69 L616.928 1451.02 L621.604 1451.02 L621.604 1481.64 L629.243 1481.64 L629.243 1485.58 L609.336 1485.58 L609.336 1481.64 Z" fill="#000000" fill-rule="nonzero" fill-opacity="1" /><path clip-path="url(#clip030)" d="M648.687 1454.1 Q645.076 1454.1 643.247 1457.66 Q641.442 1461.2 641.442 1468.33 Q641.442 1475.44 643.247 1479.01 Q645.076 1482.55 648.687 1482.55 Q652.321 1482.55 654.127 1479.01 Q655.956 1475.44 655.956 1468.33 Q655.956 1461.2 654.127 1457.66 Q652.321 1454.1 648.687 1454.1 M648.687 1450.39 Q654.497 1450.39 657.553 1455 Q660.632 1459.58 660.632 1468.33 Q660.632 1477.06 657.553 1481.67 Q654.497 1486.25 648.687 1486.25 Q642.877 1486.25 639.798 1481.67 Q636.743 1477.06 636.743 1468.33 Q636.743 1459.58 639.798 1455 Q642.877 1450.39 648.687 1450.39 Z" fill="#000000" fill-rule="nonzero" fill-opacity="1" /><path clip-path="url(#clip030)" d="M1042.95 1481.64 L1059.27 1481.64 L1059.27 1485.58 L1037.32 1485.58 L1037.32 1481.64 Q1039.99 1478.89 1044.57 1474.26 Q1049.18 1469.61 1050.36 1468.27 Q1052.6 1465.74 1053.48 1464.01 Q1054.38 1462.25 1054.38 1460.56 Q1054.38 1457.8 1052.44 1456.07 Q1050.52 1454.33 1047.42 1454.33 Q1045.22 1454.33 1042.76 1455.09 Q1040.33 1455.86 1037.55 1457.41 L1037.55 1452.69 Q1040.38 1451.55 1042.83 1450.97 Q1045.29 1450.39 1047.32 1450.39 Q1052.69 1450.39 1055.89 1453.08 Q1059.08 1455.77 1059.08 1460.26 Q1059.08 1462.39 1058.27 1464.31 Q1057.49 1466.2 1055.38 1468.8 Q1054.8 1469.47 1051.7 1472.69 Q1048.6 1475.88 1042.95 1481.64 Z" fill="#000000" fill-rule="nonzero" fill-opacity="1" /><path clip-path="url(#clip030)" d="M1079.08 1454.1 Q1075.47 1454.1 1073.64 1457.66 Q1071.84 1461.2 1071.84 1468.33 Q1071.84 1475.44 1073.64 1479.01 Q1075.47 1482.55 1079.08 1482.55 Q1082.72 1482.55 1084.52 1479.01 Q1086.35 1475.44 1086.35 1468.33 Q1086.35 1461.2 1084.52 1457.66 Q1082.72 1454.1 1079.08 1454.1 M1079.08 1450.39 Q1084.89 1450.39 1087.95 1455 Q1091.03 1459.58 1091.03 1468.33 Q1091.03 1477.06 1087.95 1481.67 Q1084.89 1486.25 1079.08 1486.25 Q1073.27 1486.25 1070.19 1481.67 Q1067.14 1477.06 1067.14 1468.33 Q1067.14 1459.58 1070.19 1455 Q1073.27 1450.39 1079.08 1450.39 Z" fill="#000000" fill-rule="nonzero" fill-opacity="1" /><path clip-path="url(#clip030)" d="M1482.54 1466.95 Q1485.9 1467.66 1487.78 1469.93 Q1489.67 1472.2 1489.67 1475.53 Q1489.67 1480.65 1486.16 1483.45 Q1482.64 1486.25 1476.16 1486.25 Q1473.98 1486.25 1471.67 1485.81 Q1469.37 1485.39 1466.92 1484.54 L1466.92 1480.02 Q1468.86 1481.16 1471.18 1481.74 Q1473.49 1482.32 1476.02 1482.32 Q1480.41 1482.32 1482.71 1480.58 Q1485.02 1478.84 1485.02 1475.53 Q1485.02 1472.48 1482.87 1470.77 Q1480.74 1469.03 1476.92 1469.03 L1472.89 1469.03 L1472.89 1465.19 L1477.1 1465.19 Q1480.55 1465.19 1482.38 1463.82 Q1484.21 1462.43 1484.21 1459.84 Q1484.21 1457.18 1482.31 1455.77 Q1480.44 1454.33 1476.92 1454.33 Q1475 1454.33 1472.8 1454.75 Q1470.6 1455.16 1467.96 1456.04 L1467.96 1451.88 Q1470.62 1451.14 1472.94 1450.77 Q1475.28 1450.39 1477.34 1450.39 Q1482.66 1450.39 1485.76 1452.83 Q1488.86 1455.23 1488.86 1459.35 Q1488.86 1462.22 1487.22 1464.21 Q1485.58 1466.18 1482.54 1466.95 Z" fill="#000000" fill-rule="nonzero" fill-opacity="1" /><path clip-path="url(#clip030)" d="M1508.54 1454.1 Q1504.93 1454.1 1503.1 1457.66 Q1501.29 1461.2 1501.29 1468.33 Q1501.29 1475.44 1503.1 1479.01 Q1504.93 1482.55 1508.54 1482.55 Q1512.17 1482.55 1513.98 1479.01 Q1515.81 1475.44 1515.81 1468.33 Q1515.81 1461.2 1513.98 1457.66 Q1512.17 1454.1 1508.54 1454.1 M1508.54 1450.39 Q1514.35 1450.39 1517.41 1455 Q1520.48 1459.58 1520.48 1468.33 Q1520.48 1477.06 1517.41 1481.67 Q1514.35 1486.25 1508.54 1486.25 Q1502.73 1486.25 1499.65 1481.67 Q1496.6 1477.06 1496.6 1468.33 Q1496.6 1459.58 1499.65 1455 Q1502.73 1450.39 1508.54 1450.39 Z" fill="#000000" fill-rule="nonzero" fill-opacity="1" /><path clip-path="url(#clip030)" d="M1911.4 1455.09 L1899.59 1473.54 L1911.4 1473.54 L1911.4 1455.09 M1910.17 1451.02 L1916.05 1451.02 L1916.05 1473.54 L1920.98 1473.54 L1920.98 1477.43 L1916.05 1477.43 L1916.05 1485.58 L1911.4 1485.58 L1911.4 1477.43 L1895.8 1477.43 L1895.8 1472.92 L1910.17 1451.02 Z" fill="#000000" fill-rule="nonzero" fill-opacity="1" /><path clip-path="url(#clip030)" d="M1938.71 1454.1 Q1935.1 1454.1 1933.28 1457.66 Q1931.47 1461.2 1931.47 1468.33 Q1931.47 1475.44 1933.28 1479.01 Q1935.1 1482.55 1938.71 1482.55 Q1942.35 1482.55 1944.15 1479.01 Q1945.98 1475.44 1945.98 1468.33 Q1945.98 1461.2 1944.15 1457.66 Q1942.35 1454.1 1938.71 1454.1 M1938.71 1450.39 Q1944.53 1450.39 1947.58 1455 Q1950.66 1459.58 1950.66 1468.33 Q1950.66 1477.06 1947.58 1481.67 Q1944.53 1486.25 1938.71 1486.25 Q1932.9 1486.25 1929.83 1481.67 Q1926.77 1477.06 1926.77 1468.33 Q1926.77 1459.58 1929.83 1455 Q1932.9 1450.39 1938.71 1450.39 Z" fill="#000000" fill-rule="nonzero" fill-opacity="1" /><path clip-path="url(#clip030)" d="M2327.46 1451.02 L2345.81 1451.02 L2345.81 1454.96 L2331.74 1454.96 L2331.74 1463.43 Q2332.76 1463.08 2333.77 1462.92 Q2334.79 1462.73 2335.81 1462.73 Q2341.6 1462.73 2344.98 1465.9 Q2348.36 1469.08 2348.36 1474.49 Q2348.36 1480.07 2344.89 1483.17 Q2341.41 1486.25 2335.09 1486.25 Q2332.92 1486.25 2330.65 1485.88 Q2328.4 1485.51 2326 1484.77 L2326 1480.07 Q2328.08 1481.2 2330.3 1481.76 Q2332.52 1482.32 2335 1482.32 Q2339.01 1482.32 2341.34 1480.21 Q2343.68 1478.1 2343.68 1474.49 Q2343.68 1470.88 2341.34 1468.77 Q2339.01 1466.67 2335 1466.67 Q2333.13 1466.67 2331.25 1467.08 Q2329.4 1467.5 2327.46 1468.38 L2327.46 1451.02 Z" fill="#000000" fill-rule="nonzero" fill-opacity="1" /><path clip-path="url(#clip030)" d="M2367.57 1454.1 Q2363.96 1454.1 2362.13 1457.66 Q2360.33 1461.2 2360.33 1468.33 Q2360.33 1475.44 2362.13 1479.01 Q2363.96 1482.55 2367.57 1482.55 Q2371.2 1482.55 2373.01 1479.01 Q2374.84 1475.44 2374.84 1468.33 Q2374.84 1461.2 2373.01 1457.66 Q2371.2 1454.1 2367.57 1454.1 M2367.57 1450.39 Q2373.38 1450.39 2376.44 1455 Q2379.52 1459.58 2379.52 1468.33 Q2379.52 1477.06 2376.44 1481.67 Q2373.38 1486.25 2367.57 1486.25 Q2361.76 1486.25 2358.68 1481.67 Q2355.63 1477.06 2355.63 1468.33 Q2355.63 1459.58 2358.68 1455 Q2361.76 1450.39 2367.57 1450.39 Z" fill="#000000" fill-rule="nonzero" fill-opacity="1" /><path clip-path="url(#clip030)" d="M1147.44 1568.04 L1129.3 1520.52 L1136.01 1520.52 L1151.07 1560.53 L1166.15 1520.52 L1172.84 1520.52 L1154.73 1568.04 L1147.44 1568.04 Z" fill="#000000" fill-rule="nonzero" fill-opacity="1" /><path clip-path="url(#clip030)" d="M1188.27 1536.5 Q1183.56 1536.5 1180.83 1540.19 Q1178.09 1543.85 1178.09 1550.25 Q1178.09 1556.65 1180.8 1560.34 Q1183.53 1564 1188.27 1564 Q1192.95 1564 1195.69 1560.31 Q1198.43 1556.62 1198.43 1550.25 Q1198.43 1543.92 1195.69 1540.23 Q1192.95 1536.5 1188.27 1536.5 M1188.27 1531.54 Q1195.91 1531.54 1200.27 1536.5 Q1204.63 1541.47 1204.63 1550.25 Q1204.63 1559 1200.27 1564 Q1195.91 1568.97 1188.27 1568.97 Q1180.6 1568.97 1176.24 1564 Q1171.91 1559 1171.91 1550.25 Q1171.91 1541.47 1176.24 1536.5 Q1180.6 1531.54 1188.27 1531.54 Z" fill="#000000" fill-rule="nonzero" fill-opacity="1" /><path clip-path="url(#clip030)" d="M1214.34 1518.52 L1220.2 1518.52 L1220.2 1568.04 L1214.34 1568.04 L1214.34 1518.52 Z" fill="#000000" fill-rule="nonzero" fill-opacity="1" /><path clip-path="url(#clip030)" d="M1231.85 1553.98 L1231.85 1532.4 L1237.7 1532.4 L1237.7 1553.75 Q1237.7 1558.81 1239.68 1561.36 Q1241.65 1563.87 1245.6 1563.87 Q1250.34 1563.87 1253.08 1560.85 Q1255.85 1557.83 1255.85 1552.61 L1255.85 1532.4 L1261.7 1532.4 L1261.7 1568.04 L1255.85 1568.04 L1255.85 1562.57 Q1253.71 1565.82 1250.88 1567.41 Q1248.08 1568.97 1244.36 1568.97 Q1238.21 1568.97 1235.03 1565.15 Q1231.85 1561.33 1231.85 1553.98 M1246.58 1531.54 L1246.58 1531.54 Z" fill="#000000" fill-rule="nonzero" fill-opacity="1" /><path clip-path="url(#clip030)" d="M1301.52 1539.24 Q1303.72 1535.29 1306.77 1533.41 Q1309.83 1531.54 1313.97 1531.54 Q1319.54 1531.54 1322.56 1535.45 Q1325.58 1539.33 1325.58 1546.53 L1325.58 1568.04 L1319.69 1568.04 L1319.69 1546.72 Q1319.69 1541.59 1317.88 1539.11 Q1316.07 1536.63 1312.34 1536.63 Q1307.79 1536.63 1305.15 1539.65 Q1302.51 1542.68 1302.51 1547.9 L1302.51 1568.04 L1296.62 1568.04 L1296.62 1546.72 Q1296.62 1541.56 1294.8 1539.11 Q1292.99 1536.63 1289.2 1536.63 Q1284.72 1536.63 1282.07 1539.68 Q1279.43 1542.71 1279.43 1547.9 L1279.43 1568.04 L1273.54 1568.04 L1273.54 1532.4 L1279.43 1532.4 L1279.43 1537.93 Q1281.44 1534.66 1284.24 1533.1 Q1287.04 1531.54 1290.89 1531.54 Q1294.77 1531.54 1297.48 1533.51 Q1300.22 1535.48 1301.52 1539.24 Z" fill="#000000" fill-rule="nonzero" fill-opacity="1" /><path clip-path="url(#clip030)" d="M1367.76 1548.76 L1367.76 1551.62 L1340.83 1551.62 Q1341.21 1557.67 1344.46 1560.85 Q1347.74 1564 1353.56 1564 Q1356.93 1564 1360.09 1563.17 Q1363.27 1562.35 1366.39 1560.69 L1366.39 1566.23 Q1363.24 1567.57 1359.93 1568.27 Q1356.62 1568.97 1353.21 1568.97 Q1344.68 1568.97 1339.68 1564 Q1334.72 1559.04 1334.72 1550.57 Q1334.72 1541.82 1339.43 1536.69 Q1344.17 1531.54 1352.19 1531.54 Q1359.39 1531.54 1363.55 1536.18 Q1367.76 1540.8 1367.76 1548.76 M1361.9 1547.04 Q1361.84 1542.23 1359.19 1539.37 Q1356.58 1536.5 1352.26 1536.5 Q1347.35 1536.5 1344.39 1539.27 Q1341.47 1542.04 1341.02 1547.07 L1361.9 1547.04 Z" fill="#000000" fill-rule="nonzero" fill-opacity="1" /><path clip-path="url(#clip030)" d="M1393.89 1532.4 L1400.09 1532.4 L1411.23 1562.31 L1422.37 1532.4 L1428.58 1532.4 L1415.21 1568.04 L1407.26 1568.04 L1393.89 1532.4 Z" fill="#000000" fill-rule="nonzero" fill-opacity="1" /><polyline clip-path="url(#clip030)" style="stroke:#000000; stroke-linecap:round; stroke-linejoin:round; stroke-width:4; stroke-opacity:1; fill:none" points="205.121,1423.18 205.121,47.2441 "/>
<polyline clip-path="url(#clip030)" style="stroke:#000000; stroke-linecap:round; stroke-linejoin:round; stroke-width:4; stroke-opacity:1; fill:none" points="205.121,1423.18 224.019,1423.18 "/>
<polyline clip-path="url(#clip030)" style="stroke:#000000; stroke-linecap:round; stroke-linejoin:round; stroke-width:4; stroke-opacity:1; fill:none" points="205.121,1147.99 224.019,1147.99 "/>
<polyline clip-path="url(#clip030)" style="stroke:#000000; stroke-linecap:round; stroke-linejoin:round; stroke-width:4; stroke-opacity:1; fill:none" points="205.121,872.806 224.019,872.806 "/>
<polyline clip-path="url(#clip030)" style="stroke:#000000; stroke-linecap:round; stroke-linejoin:round; stroke-width:4; stroke-opacity:1; fill:none" points="205.121,597.618 224.019,597.618 "/>
<polyline clip-path="url(#clip030)" style="stroke:#000000; stroke-linecap:round; stroke-linejoin:round; stroke-width:4; stroke-opacity:1; fill:none" points="205.121,322.431 224.019,322.431 "/>
<polyline clip-path="url(#clip030)" style="stroke:#000000; stroke-linecap:round; stroke-linejoin:round; stroke-width:4; stroke-opacity:1; fill:none" points="205.121,47.2441 224.019,47.2441 "/>
<path clip-path="url(#clip030)" d="M157.177 1408.98 Q153.566 1408.98 151.737 1412.54 Q149.931 1416.08 149.931 1423.21 Q149.931 1430.32 151.737 1433.89 Q153.566 1437.43 157.177 1437.43 Q160.811 1437.43 162.616 1433.89 Q164.445 1430.32 164.445 1423.21 Q164.445 1416.08 162.616 1412.54 Q160.811 1408.98 157.177 1408.98 M157.177 1405.27 Q162.987 1405.27 166.042 1409.88 Q169.121 1414.46 169.121 1423.21 Q169.121 1431.94 166.042 1436.55 Q162.987 1441.13 157.177 1441.13 Q151.366 1441.13 148.288 1436.55 Q145.232 1431.94 145.232 1423.21 Q145.232 1414.46 148.288 1409.88 Q151.366 1405.27 157.177 1405.27 Z" fill="#000000" fill-rule="nonzero" fill-opacity="1" /><path clip-path="url(#clip030)" d="M117.825 1161.34 L125.464 1161.34 L125.464 1134.97 L117.154 1136.64 L117.154 1132.38 L125.418 1130.71 L130.093 1130.71 L130.093 1161.34 L137.732 1161.34 L137.732 1165.27 L117.825 1165.27 L117.825 1161.34 Z" fill="#000000" fill-rule="nonzero" fill-opacity="1" /><path clip-path="url(#clip030)" d="M157.177 1133.79 Q153.566 1133.79 151.737 1137.36 Q149.931 1140.9 149.931 1148.03 Q149.931 1155.13 151.737 1158.7 Q153.566 1162.24 157.177 1162.24 Q160.811 1162.24 162.616 1158.7 Q164.445 1155.13 164.445 1148.03 Q164.445 1140.9 162.616 1137.36 Q160.811 1133.79 157.177 1133.79 M157.177 1130.09 Q162.987 1130.09 166.042 1134.69 Q169.121 1139.28 169.121 1148.03 Q169.121 1156.75 166.042 1161.36 Q162.987 1165.94 157.177 1165.94 Q151.366 1165.94 148.288 1161.36 Q145.232 1156.75 145.232 1148.03 Q145.232 1139.28 148.288 1134.69 Q151.366 1130.09 157.177 1130.09 Z" fill="#000000" fill-rule="nonzero" fill-opacity="1" /><path clip-path="url(#clip030)" d="M121.043 886.15 L137.362 886.15 L137.362 890.086 L115.418 890.086 L115.418 886.15 Q118.08 883.396 122.663 878.766 Q127.269 874.113 128.45 872.771 Q130.695 870.248 131.575 868.512 Q132.478 866.752 132.478 865.063 Q132.478 862.308 130.533 860.572 Q128.612 858.836 125.51 858.836 Q123.311 858.836 120.857 859.6 Q118.427 860.363 115.649 861.914 L115.649 857.192 Q118.473 856.058 120.927 855.479 Q123.38 854.901 125.418 854.901 Q130.788 854.901 133.982 857.586 Q137.177 860.271 137.177 864.762 Q137.177 866.891 136.367 868.813 Q135.579 870.711 133.473 873.303 Q132.894 873.975 129.792 877.192 Q126.691 880.387 121.043 886.15 Z" fill="#000000" fill-rule="nonzero" fill-opacity="1" /><path clip-path="url(#clip030)" d="M157.177 858.604 Q153.566 858.604 151.737 862.169 Q149.931 865.711 149.931 872.84 Q149.931 879.947 151.737 883.512 Q153.566 887.053 157.177 887.053 Q160.811 887.053 162.616 883.512 Q164.445 879.947 164.445 872.84 Q164.445 865.711 162.616 862.169 Q160.811 858.604 157.177 858.604 M157.177 854.901 Q162.987 854.901 166.042 859.507 Q169.121 864.09 169.121 872.84 Q169.121 881.567 166.042 886.174 Q162.987 890.757 157.177 890.757 Q151.366 890.757 148.288 886.174 Q145.232 881.567 145.232 872.84 Q145.232 864.09 148.288 859.507 Q151.366 854.901 157.177 854.901 Z" fill="#000000" fill-rule="nonzero" fill-opacity="1" /><path clip-path="url(#clip030)" d="M131.181 596.264 Q134.538 596.982 136.413 599.25 Q138.311 601.519 138.311 604.852 Q138.311 609.968 134.792 612.769 Q131.274 615.57 124.793 615.57 Q122.617 615.57 120.302 615.13 Q118.01 614.713 115.556 613.857 L115.556 609.343 Q117.501 610.477 119.816 611.056 Q122.13 611.635 124.654 611.635 Q129.052 611.635 131.343 609.898 Q133.658 608.162 133.658 604.852 Q133.658 601.797 131.505 600.084 Q129.376 598.348 125.556 598.348 L121.529 598.348 L121.529 594.505 L125.742 594.505 Q129.191 594.505 131.019 593.139 Q132.848 591.75 132.848 589.158 Q132.848 586.496 130.95 585.084 Q129.075 583.649 125.556 583.649 Q123.635 583.649 121.436 584.065 Q119.237 584.482 116.598 585.362 L116.598 581.195 Q119.26 580.454 121.575 580.084 Q123.913 579.713 125.973 579.713 Q131.297 579.713 134.399 582.144 Q137.501 584.551 137.501 588.672 Q137.501 591.542 135.857 593.533 Q134.214 595.5 131.181 596.264 Z" fill="#000000" fill-rule="nonzero" fill-opacity="1" /><path clip-path="url(#clip030)" d="M157.177 583.417 Q153.566 583.417 151.737 586.982 Q149.931 590.524 149.931 597.653 Q149.931 604.76 151.737 608.324 Q153.566 611.866 157.177 611.866 Q160.811 611.866 162.616 608.324 Q164.445 604.76 164.445 597.653 Q164.445 590.524 162.616 586.982 Q160.811 583.417 157.177 583.417 M157.177 579.713 Q162.987 579.713 166.042 584.32 Q169.121 588.903 169.121 597.653 Q169.121 606.38 166.042 610.986 Q162.987 615.57 157.177 615.57 Q151.366 615.57 148.288 610.986 Q145.232 606.38 145.232 597.653 Q145.232 588.903 148.288 584.32 Q151.366 579.713 157.177 579.713 Z" fill="#000000" fill-rule="nonzero" fill-opacity="1" /><path clip-path="url(#clip030)" d="M129.862 309.225 L118.056 327.674 L129.862 327.674 L129.862 309.225 M128.635 305.151 L134.515 305.151 L134.515 327.674 L139.445 327.674 L139.445 331.563 L134.515 331.563 L134.515 339.711 L129.862 339.711 L129.862 331.563 L114.26 331.563 L114.26 327.049 L128.635 305.151 Z" fill="#000000" fill-rule="nonzero" fill-opacity="1" /><path clip-path="url(#clip030)" d="M157.177 308.23 Q153.566 308.23 151.737 311.795 Q149.931 315.336 149.931 322.466 Q149.931 329.572 151.737 333.137 Q153.566 336.679 157.177 336.679 Q160.811 336.679 162.616 333.137 Q164.445 329.572 164.445 322.466 Q164.445 315.336 162.616 311.795 Q160.811 308.23 157.177 308.23 M157.177 304.526 Q162.987 304.526 166.042 309.133 Q169.121 313.716 169.121 322.466 Q169.121 331.193 166.042 335.799 Q162.987 340.383 157.177 340.383 Q151.366 340.383 148.288 335.799 Q145.232 331.193 145.232 322.466 Q145.232 313.716 148.288 309.133 Q151.366 304.526 157.177 304.526 Z" fill="#000000" fill-rule="nonzero" fill-opacity="1" /><path clip-path="url(#clip030)" d="M117.061 29.9641 L135.417 29.9641 L135.417 33.8993 L121.343 33.8993 L121.343 42.3714 Q122.362 42.0242 123.38 41.8622 Q124.399 41.677 125.418 41.677 Q131.205 41.677 134.584 44.8483 Q137.964 48.0196 137.964 53.4362 Q137.964 59.0149 134.492 62.1167 Q131.019 65.1954 124.7 65.1954 Q122.524 65.1954 120.255 64.825 Q118.01 64.4547 115.603 63.7139 L115.603 59.0149 Q117.686 60.1491 119.908 60.7047 Q122.13 61.2602 124.607 61.2602 Q128.612 61.2602 130.95 59.1538 Q133.288 57.0473 133.288 53.4362 Q133.288 49.8251 130.95 47.7186 Q128.612 45.6122 124.607 45.6122 Q122.732 45.6122 120.857 46.0288 Q119.006 46.4455 117.061 47.3251 L117.061 29.9641 Z" fill="#000000" fill-rule="nonzero" fill-opacity="1" /><path clip-path="url(#clip030)" d="M157.177 33.0428 Q153.566 33.0428 151.737 36.6076 Q149.931 40.1492 149.931 47.2788 Q149.931 54.3853 151.737 57.9501 Q153.566 61.4917 157.177 61.4917 Q160.811 61.4917 162.616 57.9501 Q164.445 54.3853 164.445 47.2788 Q164.445 40.1492 162.616 36.6076 Q160.811 33.0428 157.177 33.0428 M157.177 29.3391 Q162.987 29.3391 166.042 33.9456 Q169.121 38.5289 169.121 47.2788 Q169.121 56.0056 166.042 60.6121 Q162.987 65.1954 157.177 65.1954 Q151.366 65.1954 148.288 60.6121 Q145.232 56.0056 145.232 47.2788 Q145.232 38.5289 148.288 33.9456 Q151.366 29.3391 157.177 29.3391 Z" fill="#000000" fill-rule="nonzero" fill-opacity="1" /><path clip-path="url(#clip030)" d="M16.4842 853.407 L16.4842 843.827 L48.8219 831.7 L16.4842 819.51 L16.4842 809.929 L64.0042 809.929 L64.0042 816.2 L22.277 816.2 L54.8694 828.454 L54.8694 834.915 L22.277 847.169 L64.0042 847.169 L64.0042 853.407 L16.4842 853.407 Z" fill="#000000" fill-rule="nonzero" fill-opacity="1" /><path clip-path="url(#clip030)" d="M46.0847 781.22 Q46.0847 788.318 47.7079 791.055 Q49.3312 793.792 53.2461 793.792 Q56.3653 793.792 58.2114 791.755 Q60.0256 789.687 60.0256 786.154 Q60.0256 781.284 56.5881 778.356 Q53.1188 775.395 47.3897 775.395 L46.0847 775.395 L46.0847 781.22 M43.6657 769.539 L64.0042 769.539 L64.0042 775.395 L58.5933 775.395 Q61.8398 777.401 63.3994 780.393 Q64.9272 783.384 64.9272 787.713 Q64.9272 793.188 61.8716 796.434 Q58.7843 799.649 53.6281 799.649 Q47.6125 799.649 44.5569 795.638 Q41.5014 791.596 41.5014 783.607 L41.5014 775.395 L40.9285 775.395 Q36.8862 775.395 34.6901 778.069 Q32.4621 780.711 32.4621 785.517 Q32.4621 788.573 33.1941 791.469 Q33.9262 794.365 35.3903 797.039 L29.9795 797.039 Q28.7381 793.824 28.1334 790.801 Q27.4968 787.777 27.4968 784.912 Q27.4968 777.178 31.5072 773.358 Q35.5176 769.539 43.6657 769.539 Z" fill="#000000" fill-rule="nonzero" fill-opacity="1" /><path clip-path="url(#clip030)" d="M29.4065 734.75 L34.9447 734.75 Q33.6716 737.233 33.035 739.907 Q32.3984 742.58 32.3984 745.445 Q32.3984 749.805 33.7352 752.002 Q35.072 754.166 37.7456 754.166 Q39.7826 754.166 40.9603 752.606 Q42.1061 751.047 43.1565 746.336 L43.6021 744.331 Q44.9389 738.092 47.3897 735.483 Q49.8086 732.841 54.1691 732.841 Q59.1344 732.841 62.0308 736.787 Q64.9272 740.702 64.9272 747.577 Q64.9272 750.442 64.3543 753.561 Q63.8132 756.648 62.6992 760.086 L56.6518 760.086 Q58.3387 756.839 59.198 753.688 Q60.0256 750.537 60.0256 747.45 Q60.0256 743.312 58.6251 741.084 Q57.1929 738.856 54.6147 738.856 Q52.2276 738.856 50.9545 740.48 Q49.6813 742.071 48.5037 747.514 L48.0262 749.551 Q46.8804 754.993 44.5251 757.412 Q42.138 759.831 38.0002 759.831 Q32.9713 759.831 30.2341 756.267 Q27.4968 752.702 27.4968 746.145 Q27.4968 742.899 27.9743 740.034 Q28.4517 737.169 29.4065 734.75 Z" fill="#000000" fill-rule="nonzero" fill-opacity="1" /><path clip-path="url(#clip030)" d="M29.4065 700.789 L34.9447 700.789 Q33.6716 703.272 33.035 705.946 Q32.3984 708.619 32.3984 711.484 Q32.3984 715.844 33.7352 718.04 Q35.072 720.205 37.7456 720.205 Q39.7826 720.205 40.9603 718.645 Q42.1061 717.086 43.1565 712.375 L43.6021 710.37 Q44.9389 704.131 47.3897 701.521 Q49.8086 698.88 54.1691 698.88 Q59.1344 698.88 62.0308 702.826 Q64.9272 706.741 64.9272 713.616 Q64.9272 716.481 64.3543 719.6 Q63.8132 722.687 62.6992 726.125 L56.6518 726.125 Q58.3387 722.878 59.198 719.727 Q60.0256 716.576 60.0256 713.489 Q60.0256 709.351 58.6251 707.123 Q57.1929 704.895 54.6147 704.895 Q52.2276 704.895 50.9545 706.519 Q49.6813 708.11 48.5037 713.553 L48.0262 715.59 Q46.8804 721.032 44.5251 723.451 Q42.138 725.87 38.0002 725.87 Q32.9713 725.87 30.2341 722.305 Q27.4968 718.741 27.4968 712.184 Q27.4968 708.938 27.9743 706.073 Q28.4517 703.208 29.4065 700.789 Z" fill="#000000" fill-rule="nonzero" fill-opacity="1" /><path clip-path="url(#clip030)" d="M35.1993 641.079 Q31.2526 638.883 29.3747 635.827 Q27.4968 632.772 27.4968 628.634 Q27.4968 623.064 31.4117 620.04 Q35.2948 617.017 42.4881 617.017 L64.0042 617.017 L64.0042 622.905 L42.679 622.905 Q37.5546 622.905 35.072 624.719 Q32.5894 626.533 32.5894 630.257 Q32.5894 634.809 35.6131 637.451 Q38.6368 640.092 43.8567 640.092 L64.0042 640.092 L64.0042 645.981 L42.679 645.981 Q37.5228 645.981 35.072 647.795 Q32.5894 649.609 32.5894 653.397 Q32.5894 657.885 35.6449 660.526 Q38.6686 663.168 43.8567 663.168 L64.0042 663.168 L64.0042 669.056 L28.3562 669.056 L28.3562 663.168 L33.8944 663.168 Q30.616 661.163 29.0564 658.362 Q27.4968 655.561 27.4968 651.71 Q27.4968 647.827 29.4702 645.121 Q31.4436 642.384 35.1993 641.079 Z" fill="#000000" fill-rule="nonzero" fill-opacity="1" /><path clip-path="url(#clip032)" d="M205.121 858.421 L1127.63 858.421 L1127.63 858.421 L1127.63 858.405 L1127.68 858.246 L1128.16 856.655 L1133 840.491 L1153.84 765.351 L1194.21 591.092 L1249.42 275.788 L1280.62 47.2441 L1280.62 47.2441 L205.121 47.2441 L205.121 858.421  Z" fill="#0000ff" fill-rule="evenodd" fill-opacity="0.35"/>
<polyline clip-path="url(#clip032)" style="stroke:#000000; stroke-linecap:round; stroke-linejoin:round; stroke-width:4; stroke-opacity:0; fill:none" points="205.121,858.421 1127.63,858.421 1127.63,858.405 1127.68,858.246 1128.16,856.655 1133,840.491 1153.84,765.351 1194.21,591.092 1249.42,275.788 1280.62,47.2441 205.121,47.2441 205.121,858.421 "/>
<path clip-path="url(#clip032)" d="M205.121 858.421 L1127.63 858.421 L1127.63 858.421 L1127.62 858.427 L1127.52 858.489 L1126.56 859.109 L1116.89 865.302 L1020.22 927.233 L246.123 1423.18 L246.123 1423.18 L205.121 1423.18 L205.121 858.421  Z" fill="#a52a2a" fill-rule="evenodd" fill-opacity="0.35"/>
<polyline clip-path="url(#clip032)" style="stroke:#000000; stroke-linecap:round; stroke-linejoin:round; stroke-width:4; stroke-opacity:0; fill:none" points="205.121,858.421 1127.63,858.421 1127.62,858.427 1127.52,858.489 1126.56,859.109 1116.89,865.302 1020.22,927.233 246.123,1423.18 205.121,1423.18 205.121,858.421 "/>
<polyline clip-path="url(#clip032)" style="stroke:#808080; stroke-linecap:round; stroke-linejoin:round; stroke-width:4; stroke-opacity:1; fill:none" points="1127.63,858.421 1127.63,858.405 1127.68,858.246 1128.16,856.655 1133,840.491 1153.84,765.351 1194.21,591.092 1249.42,275.788 1280.62,47.2441 "/>
<polyline clip-path="url(#clip032)" style="stroke:#808080; stroke-linecap:round; stroke-linejoin:round; stroke-width:4; stroke-opacity:1; fill:none" points="1127.63,858.421 1127.62,858.427 1127.52,858.489 1126.56,859.109 1116.89,865.302 1020.22,927.233 246.123,1423.18 "/>
<path clip-path="url(#clip032)" d="M1280.62 47.2441 L1280.62 47.2441 L1249.42 275.788 L1194.21 591.092 L1153.84 765.351 L1133 840.491 L1128.16 856.655 L1127.68 858.246 L1127.63 858.405 L1127.63 858.421 L1127.63 858.421 L1245.04 768.29 L1329.11 678.16 L1392.28 588.029 L1441.49 497.898 L1480.9 407.767 L1513.17 317.636 L1540.08 227.506 L1562.87 137.375 L1582.41 47.2441 L205.121 47.2441 L1280.62 47.2441  Z" fill="#9acd32" fill-rule="evenodd" fill-opacity="0.35"/>
<polyline clip-path="url(#clip032)" style="stroke:#000000; stroke-linecap:round; stroke-linejoin:round; stroke-width:4; stroke-opacity:0; fill:none" points="1280.62,47.2441 1280.62,47.2441 1249.42,275.788 1194.21,591.092 1153.84,765.351 1133,840.491 1128.16,856.655 1127.68,858.246 1127.63,858.405 1127.63,858.421 1127.63,858.421 1245.04,768.29 1329.11,678.16 1392.28,588.029 1441.49,497.898 1480.9,407.767 1513.17,317.636 1540.08,227.506 1562.87,137.375 1582.41,47.2441 205.121,47.2441 1280.62,47.2441 "/>
<path clip-path="url(#clip032)" d="M246.123 1423.18 L246.123 1423.18 L1020.22 927.233 L1116.89 865.302 L1126.56 859.109 L1127.52 858.489 L1127.62 858.427 L1127.63 858.421 L1127.63 858.421 L1245.04 768.29 L1329.11 678.16 L1392.28 588.029 L1441.49 497.898 L1480.9 407.767 L1513.17 317.636 L1540.08 227.506 L1562.87 137.375 L1582.41 47.2441 L2352.76 47.2441 L2352.76 1423.18 L205.121 1423.18 L246.123 1423.18  Z" fill="#ff0000" fill-rule="evenodd" fill-opacity="0.35"/>
<polyline clip-path="url(#clip032)" style="stroke:#000000; stroke-linecap:round; stroke-linejoin:round; stroke-width:4; stroke-opacity:0; fill:none" points="246.123,1423.18 246.123,1423.18 1020.22,927.233 1116.89,865.302 1126.56,859.109 1127.52,858.489 1127.62,858.427 1127.63,858.421 1127.63,858.421 1245.04,768.29 1329.11,678.16 1392.28,588.029 1441.49,497.898 1480.9,407.767 1513.17,317.636 1540.08,227.506 1562.87,137.375 1582.41,47.2441 2352.76,47.2441 2352.76,1423.18 205.121,1423.18 246.123,1423.18 "/>
<polyline clip-path="url(#clip032)" style="stroke:#ffd700; stroke-linecap:round; stroke-linejoin:round; stroke-width:12; stroke-opacity:1; fill:none" points="1127.63,858.421 1245.04,768.29 1329.11,678.16 1392.28,588.029 1441.49,497.898 1480.9,407.767 1513.17,317.636 1540.08,227.506 1562.87,137.375 1582.41,47.2441 "/>
<polyline clip-path="url(#clip032)" style="stroke:#008000; stroke-linecap:round; stroke-linejoin:round; stroke-width:12; stroke-opacity:1; fill:none" points="205.121,858.421 1127.63,858.421 "/>
<polyline clip-path="url(#clip032)" style="stroke:#808080; stroke-linecap:round; stroke-linejoin:round; stroke-width:4; stroke-opacity:1; fill:none" points="205.121,1423.18 205.125,1423.18 205.168,1423.15 205.598,1422.87 209.893,1420.12 252.846,1392.6 682.373,1117.42 1086.63,858.421 1127.63,858.421 1135.39,853.448 1213.01,803.721 1989.17,306.451 2352.76,73.5128 "/>
<polyline clip-path="url(#clip032)" style="stroke:#808080; stroke-linecap:round; stroke-linejoin:round; stroke-width:4; stroke-opacity:1; fill:none" points="205.121,1270.3 205.132,1270.29 205.239,1270.22 206.308,1269.54 217.003,1262.69 323.954,1194.16 848.001,858.421 1127.63,858.421 1135.58,853.329 1215.06,802.409 2009.85,293.207 2352.76,73.5128 "/>
<polyline clip-path="url(#clip032)" style="stroke:#808080; stroke-linecap:round; stroke-linejoin:round; stroke-width:4; stroke-opacity:1; fill:none" points="205.121,1117.42 205.13,1117.41 205.218,1117.35 206.098,1116.79 214.896,1111.15 302.883,1054.78 609.375,858.421 927.418,858.421 1127.63,858.421 1135.66,853.274 1216.01,801.8 2019.44,287.059 2352.76,73.5128 "/>
<polyline clip-path="url(#clip032)" style="stroke:#808080; stroke-linecap:round; stroke-linejoin:round; stroke-width:4; stroke-opacity:1; fill:none" points="205.121,964.535 205.128,964.53 205.203,964.482 205.949,964.004 213.414,959.222 288.055,911.401 370.749,858.421 509.159,858.421 1127.63,858.421 1135.71,853.244 1216.52,801.474 2024.57,283.77 2352.76,73.5128 "/>
<polyline clip-path="url(#clip032)" style="stroke:#808080; stroke-linecap:round; stroke-linejoin:round; stroke-width:4; stroke-opacity:1; fill:none" points="205.121,811.653 205.118,811.664 205.085,811.781 204.758,812.942 201.492,824.434 191.452,858.421 209.549,858.421 390.526,858.421 1127.63,858.421 1135.74,853.227 1216.81,801.283 2027.59,281.841 2352.76,73.5128 "/>
<polyline clip-path="url(#clip032)" style="stroke:#808080; stroke-linecap:round; stroke-linejoin:round; stroke-width:4; stroke-opacity:1; fill:none" points="205.121,658.771 205.118,658.784 205.089,658.912 204.801,660.191 201.923,672.867 185.694,740.497 153.113,858.421 223.691,858.421 929.475,858.421 1127.63,858.421 1135.75,853.216 1217,801.161 2029.51,280.609 2352.76,73.5128 "/>
<polyline clip-path="url(#clip032)" style="stroke:#808080; stroke-linecap:round; stroke-linejoin:round; stroke-width:4; stroke-opacity:1; fill:none" points="205.121,505.889 205.118,505.903 205.093,506.04 204.835,507.413 202.263,521.022 186.964,597.88 153.382,744.41 121.788,858.421 237.242,858.421 1127.63,858.421 1135.77,853.208 1217.14,801.075 2030.86,279.743 2352.76,73.5128 "/>
<polyline clip-path="url(#clip032)" style="stroke:#808080; stroke-linecap:round; stroke-linejoin:round; stroke-width:4; stroke-opacity:1; fill:none" points="205.121,353.008 205.119,353.022 205.095,353.167 204.863,354.614 202.538,368.979 188.01,454.451 155.447,621.704 107.878,815.539 95.3037,858.421 250.131,858.421 1127.63,858.421 1135.77,853.202 1217.24,801.01 2031.88,279.093 2352.76,73.5128 "/>
<polyline clip-path="url(#clip032)" style="stroke:#808080; stroke-linecap:round; stroke-linejoin:round; stroke-width:4; stroke-opacity:1; fill:none" points="205.121,200.126 205.119,200.141 205.098,200.292 204.885,201.801 202.764,216.789 188.892,310.368 157.187,497.882 110.453,718.244 72.3615,858.421 262.358,858.421 1127.63,858.421 1135.78,853.197 1217.32,800.96 2032.67,278.581 2352.76,73.5128 "/>
<polyline clip-path="url(#clip032)" style="stroke:#808080; stroke-linecap:round; stroke-linejoin:round; stroke-width:4; stroke-opacity:1; fill:none" points="205.121,47.2441 205.119,47.2597 205.1,47.4159 204.904,48.9767 202.954,64.4881 189.647,165.75 158.683,373.122 112.664,619.859 54.9203,849.158 52.125,858.421 273.95,858.421 1127.63,858.421 1135.79,853.194 1217.38,800.918 2033.32,278.166 2352.76,73.5128 "/>
<polyline clip-path="url(#clip032)" style="stroke:#808080; stroke-linecap:round; stroke-linejoin:round; stroke-width:4; stroke-opacity:1; fill:none" points="205.121,1423.18 205.125,1423.18 205.168,1423.15 205.598,1422.87 209.893,1420.12 252.846,1392.6 682.373,1117.42 1086.63,858.421 1127.63,858.421 1135.39,853.448 1213.01,803.721 1989.17,306.451 2352.76,73.5128 "/>
<polyline clip-path="url(#clip032)" style="stroke:#808080; stroke-linecap:round; stroke-linejoin:round; stroke-width:4; stroke-opacity:1; fill:none" points="443.747,1423.18 443.761,1423.17 443.896,1423.08 445.255,1422.21 458.835,1413.51 594.639,1326.51 1952.68,456.446 2352.76,200.126 "/>
<polyline clip-path="url(#clip032)" style="stroke:#808080; stroke-linecap:round; stroke-linejoin:round; stroke-width:4; stroke-opacity:1; fill:none" points="682.373,1423.18 682.387,1423.17 682.523,1423.08 683.881,1422.21 697.462,1413.51 833.278,1326.5 2191.44,456.359 2352.76,353.008 "/>
<polyline clip-path="url(#clip032)" style="stroke:#808080; stroke-linecap:round; stroke-linejoin:round; stroke-width:4; stroke-opacity:1; fill:none" points="920.999,1423.18 921.013,1423.17 921.149,1423.08 922.507,1422.21 936.089,1413.51 1071.91,1326.5 2352.76,505.889 "/>
<polyline clip-path="url(#clip032)" style="stroke:#808080; stroke-linecap:round; stroke-linejoin:round; stroke-width:4; stroke-opacity:1; fill:none" points="1159.63,1423.18 1159.64,1423.17 1159.77,1423.08 1161.13,1422.21 1174.72,1413.51 1310.54,1326.49 2352.76,658.771 "/>
<polyline clip-path="url(#clip032)" style="stroke:#808080; stroke-linecap:round; stroke-linejoin:round; stroke-width:4; stroke-opacity:1; fill:none" points="1398.25,1423.18 1398.27,1423.17 1398.4,1423.08 1399.76,1422.21 1413.34,1413.51 1549.16,1326.49 2352.76,811.653 "/>
<polyline clip-path="url(#clip032)" style="stroke:#808080; stroke-linecap:round; stroke-linejoin:round; stroke-width:4; stroke-opacity:1; fill:none" points="1636.88,1423.18 1636.89,1423.17 1637.03,1423.08 1638.39,1422.21 1651.97,1413.51 1787.79,1326.49 2352.76,964.535 "/>
<polyline clip-path="url(#clip032)" style="stroke:#808080; stroke-linecap:round; stroke-linejoin:round; stroke-width:4; stroke-opacity:1; fill:none" points="1875.5,1423.18 1875.52,1423.17 1875.65,1423.08 1877.01,1422.21 1890.59,1413.51 2026.42,1326.49 2352.76,1117.42 "/>
<polyline clip-path="url(#clip032)" style="stroke:#808080; stroke-linecap:round; stroke-linejoin:round; stroke-width:4; stroke-opacity:1; fill:none" points="2114.13,1423.18 2114.14,1423.17 2114.28,1423.08 2115.64,1422.21 2129.22,1413.51 2265.05,1326.49 2352.76,1270.3 "/>
<polyline clip-path="url(#clip032)" style="stroke:#808080; stroke-linecap:round; stroke-linejoin:round; stroke-width:4; stroke-opacity:1; fill:none" points="2352.76,1423.18 2352.77,1423.17 2352.91,1423.08 2354.26,1422.21 2367.85,1413.51 2503.67,1326.49 3861.93,456.291 17444.5,-8245.72 153270,-95265.8 1.51153e+06,-965467 4.1943e+06,-4.1943e+06 "/>
<polyline clip-path="url(#clip032)" style="stroke:#808080; stroke-linecap:round; stroke-linejoin:round; stroke-width:4; stroke-opacity:1; fill:none" points="205.121,47.2441 205.119,47.2597 205.1,47.4159 204.904,48.9767 202.954,64.4881 189.647,165.75 158.683,373.122 112.664,619.859 54.9203,849.158 52.125,858.421 273.95,858.421 1127.63,858.421 1135.79,853.194 1217.38,800.918 2033.32,278.166 2352.76,73.5128 "/>
<polyline clip-path="url(#clip032)" style="stroke:#808080; stroke-linecap:round; stroke-linejoin:round; stroke-width:4; stroke-opacity:1; fill:none" points="419.884,47.2441 419.882,47.2662 419.854,47.4873 419.578,49.6961 416.817,71.59 401.319,188.172 368.11,405.233 320.478,651.701 266.888,858.421 370.372,858.421 1127.63,858.421 1135.76,853.21 1217.1,801.098 2030.5,279.975 2352.76,73.5128 "/>
<polyline clip-path="url(#clip032)" style="stroke:#808080; stroke-linecap:round; stroke-linejoin:round; stroke-width:4; stroke-opacity:1; fill:none" points="634.648,47.2441 634.645,47.2662 634.618,47.4873 634.341,49.6962 631.581,71.5912 616.082,188.176 582.873,405.238 535.24,651.706 481.652,858.421 791.072,858.421 1127.63,858.421 1135.72,853.238 1216.62,801.409 2025.6,283.114 2352.76,73.5128 "/>
<polyline clip-path="url(#clip032)" style="stroke:#808080; stroke-linecap:round; stroke-linejoin:round; stroke-width:4; stroke-opacity:1; fill:none" points="849.411,47.2441 849.409,47.2662 849.381,47.4873 849.105,49.6962 846.344,71.5916 830.845,188.177 797.636,405.239 750.004,651.708 696.415,858.421 1062.36,858.421 1127.63,858.421 1135.63,853.293 1215.67,802.012 2016.1,289.202 2352.76,73.5128 "/>
<polyline clip-path="url(#clip032)" style="stroke:#808080; stroke-linecap:round; stroke-linejoin:round; stroke-width:4; stroke-opacity:1; fill:none" points="1064.17,47.2441 1064.17,47.2662 1064.14,47.4873 1063.87,49.6963 1061.11,71.5918 1045.61,188.178 1012.4,405.24 964.767,651.709 911.179,858.421 1127.63,858.421 1135.44,853.417 1213.54,803.379 1994.57,302.997 2352.76,73.5128 "/>
<polyline clip-path="url(#clip032)" style="stroke:#808080; stroke-linecap:round; stroke-linejoin:round; stroke-width:4; stroke-opacity:1; fill:none" points="1278.94,47.2441 1278.94,47.2662 1278.91,47.4873 1278.63,49.6963 1275.87,71.5919 1260.37,188.178 1227.16,405.241 1179.53,651.709 1125.94,858.421 1127.63,858.421 1134.89,853.768 1207.53,807.231 1933.9,341.864 2352.76,73.5128 "/>
<polyline clip-path="url(#clip032)" style="stroke:#808080; stroke-linecap:round; stroke-linejoin:round; stroke-width:4; stroke-opacity:1; fill:none" points="1493.7,47.2441 1493.7,47.2662 1493.67,47.4873 1493.4,49.6963 1490.63,71.592 1475.14,188.178 1441.93,405.241 1416.18,546.882 1422.55,542.804 1486.21,502.021 2122.77,94.1929 2352.76,-53.156 "/>
<path clip-path="url(#clip030)" d="M1708.58 1377.32 L2281.17 1377.32 L2281.17 1014.44 L1708.58 1014.44  Z" fill="#ffffff" fill-rule="evenodd" fill-opacity="1"/>
<polyline clip-path="url(#clip030)" style="stroke:#000000; stroke-linecap:round; stroke-linejoin:round; stroke-width:4; stroke-opacity:1; fill:none" points="1708.58,1377.32 2281.17,1377.32 2281.17,1014.44 1708.58,1014.44 1708.58,1377.32 "/>
<path clip-path="url(#clip030)" d="M1732.45 1087.01 L1875.62 1087.01 L1875.62 1045.54 L1732.45 1045.54 L1732.45 1087.01  Z" fill="#0000ff" fill-rule="evenodd" fill-opacity="0.35"/>
<polyline clip-path="url(#clip030)" style="stroke:#000000; stroke-linecap:round; stroke-linejoin:round; stroke-width:4; stroke-opacity:0; fill:none" points="1732.45,1087.01 1875.62,1087.01 1875.62,1045.54 1732.45,1045.54 1732.45,1087.01 "/>
<path clip-path="url(#clip030)" d="M1899.48 1073.32 L1899.48 1057.63 L1903.74 1057.63 L1903.74 1073.16 Q1903.74 1076.84 1905.18 1078.69 Q1906.61 1080.52 1909.48 1080.52 Q1912.93 1080.52 1914.92 1078.32 Q1916.94 1076.12 1916.94 1072.33 L1916.94 1057.63 L1921.2 1057.63 L1921.2 1083.56 L1916.94 1083.56 L1916.94 1079.57 Q1915.39 1081.93 1913.33 1083.09 Q1911.29 1084.23 1908.58 1084.23 Q1904.11 1084.23 1901.8 1081.45 Q1899.48 1078.67 1899.48 1073.32 M1910.2 1057 L1910.2 1057 Z" fill="#000000" fill-rule="nonzero" fill-opacity="1" /><path clip-path="url(#clip030)" d="M1928.67 1074.13 L1947.35 1074.13 L1947.35 1076.33 L1928.67 1076.33 L1928.67 1074.13 Z" fill="#000000" fill-rule="nonzero" fill-opacity="1" /><path clip-path="url(#clip030)" d="M1980.43 1064.27 Q1978.58 1064.27 1977.31 1065.57 Q1976.03 1066.84 1976.03 1068.69 Q1976.03 1070.52 1977.31 1071.8 Q1978.58 1073.05 1980.43 1073.05 Q1982.28 1073.05 1983.56 1071.8 Q1984.83 1070.52 1984.83 1068.69 Q1984.83 1066.87 1983.53 1065.57 Q1982.26 1064.27 1980.43 1064.27 M1980.43 1061.29 Q1981.91 1061.29 1983.28 1061.87 Q1984.64 1062.42 1985.64 1063.49 Q1986.71 1064.53 1987.24 1065.85 Q1987.77 1067.17 1987.77 1068.69 Q1987.77 1071.75 1985.62 1073.88 Q1983.49 1075.99 1980.39 1075.99 Q1977.26 1075.99 1975.18 1073.9 Q1973.09 1071.82 1973.09 1068.69 Q1973.09 1065.59 1975.22 1063.44 Q1977.35 1061.29 1980.43 1061.29 Z" fill="#000000" fill-rule="nonzero" fill-opacity="1" /><path clip-path="url(#clip030)" d="M2014.37 1073.32 L2014.37 1057.63 L2018.63 1057.63 L2018.63 1073.16 Q2018.63 1076.84 2020.06 1078.69 Q2021.5 1080.52 2024.37 1080.52 Q2027.82 1080.52 2029.81 1078.32 Q2031.82 1076.12 2031.82 1072.33 L2031.82 1057.63 L2036.08 1057.63 L2036.08 1083.56 L2031.82 1083.56 L2031.82 1079.57 Q2030.27 1081.93 2028.21 1083.09 Q2026.17 1084.23 2023.46 1084.23 Q2019 1084.23 2016.68 1081.45 Q2014.37 1078.67 2014.37 1073.32 M2025.08 1057 L2025.08 1057 Z" fill="#000000" fill-rule="nonzero" fill-opacity="1" /><path clip-path="url(#clip030)" d="M2054.69 1069.09 L2054.69 1071.33 Q2053.56 1070.82 2052.33 1070.57 Q2051.13 1070.31 2049.81 1070.31 Q2047.79 1070.31 2046.8 1070.85 Q2045.8 1071.4 2045.8 1072.49 Q2045.8 1073.32 2046.52 1073.79 Q2047.24 1074.27 2049.39 1074.69 L2050.32 1074.87 Q2053.21 1075.43 2054.37 1076.4 Q2055.57 1077.4 2055.57 1079.18 Q2055.57 1081.19 2053.76 1082.37 Q2051.98 1083.56 2048.83 1083.56 Q2047.51 1083.56 2046.08 1083.32 Q2044.67 1083.09 2043.09 1082.65 L2043.09 1080.18 Q2044.58 1080.87 2046.03 1081.22 Q2047.47 1081.56 2048.88 1081.56 Q2050.78 1081.56 2051.8 1080.99 Q2052.82 1080.41 2052.82 1079.37 Q2052.82 1078.39 2052.08 1077.86 Q2051.43 1077.4 2048.86 1076.87 L2047.93 1076.68 Q2045.43 1076.19 2044.32 1075.25 Q2043.21 1074.27 2043.21 1072.58 Q2043.21 1070.55 2044.85 1069.44 Q2046.47 1068.3 2049.48 1068.3 Q2050.96 1068.3 2052.28 1068.51 Q2053.6 1068.69 2054.69 1069.09 Z" fill="#000000" fill-rule="nonzero" fill-opacity="1" /><path clip-path="url(#clip030)" d="M2087.98 1064.27 Q2086.13 1064.27 2084.85 1065.57 Q2083.58 1066.84 2083.58 1068.69 Q2083.58 1070.52 2084.85 1071.8 Q2086.13 1073.05 2087.98 1073.05 Q2089.83 1073.05 2091.1 1071.8 Q2092.38 1070.52 2092.38 1068.69 Q2092.38 1066.87 2091.08 1065.57 Q2089.81 1064.27 2087.98 1064.27 M2087.98 1061.29 Q2089.46 1061.29 2090.82 1061.87 Q2092.19 1062.42 2093.19 1063.49 Q2094.25 1064.53 2094.78 1065.85 Q2095.32 1067.17 2095.32 1068.69 Q2095.32 1071.75 2093.16 1073.88 Q2091.03 1075.99 2087.93 1075.99 Q2084.81 1075.99 2082.72 1073.9 Q2080.64 1071.82 2080.64 1068.69 Q2080.64 1065.59 2082.77 1063.44 Q2084.9 1061.29 2087.98 1061.29 Z" fill="#000000" fill-rule="nonzero" fill-opacity="1" /><path clip-path="url(#clip030)" d="M2121.91 1073.32 L2121.91 1057.63 L2126.17 1057.63 L2126.17 1073.16 Q2126.17 1076.84 2127.61 1078.69 Q2129.04 1080.52 2131.91 1080.52 Q2135.36 1080.52 2137.35 1078.32 Q2139.37 1076.12 2139.37 1072.33 L2139.37 1057.63 L2143.63 1057.63 L2143.63 1083.56 L2139.37 1083.56 L2139.37 1079.57 Q2137.82 1081.93 2135.76 1083.09 Q2133.72 1084.23 2131.01 1084.23 Q2126.54 1084.23 2124.23 1081.45 Q2121.91 1078.67 2121.91 1073.32 M2132.63 1057 L2132.63 1057 Z" fill="#000000" fill-rule="nonzero" fill-opacity="1" /><path clip-path="url(#clip030)" d="M2161.66 1066.91 L2161.66 1074.13 L2169.78 1074.13 L2169.78 1076.33 L2161.66 1076.33 L2161.66 1083.56 L2159.23 1083.56 L2159.23 1076.33 L2151.1 1076.33 L2151.1 1074.13 L2159.23 1074.13 L2159.23 1066.91 L2161.66 1066.91 Z" fill="#000000" fill-rule="nonzero" fill-opacity="1" /><path clip-path="url(#clip030)" d="M1732.45 1138.85 L1875.62 1138.85 L1875.62 1097.38 L1732.45 1097.38 L1732.45 1138.85  Z" fill="#a52a2a" fill-rule="evenodd" fill-opacity="0.35"/>
<polyline clip-path="url(#clip030)" style="stroke:#000000; stroke-linecap:round; stroke-linejoin:round; stroke-width:4; stroke-opacity:0; fill:none" points="1732.45,1138.85 1875.62,1138.85 1875.62,1097.38 1732.45,1097.38 1732.45,1138.85 "/>
<path clip-path="url(#clip030)" d="M1899.48 1125.16 L1899.48 1109.47 L1903.74 1109.47 L1903.74 1125 Q1903.74 1128.68 1905.18 1130.53 Q1906.61 1132.36 1909.48 1132.36 Q1912.93 1132.36 1914.92 1130.16 Q1916.94 1127.96 1916.94 1124.17 L1916.94 1109.47 L1921.2 1109.47 L1921.2 1135.4 L1916.94 1135.4 L1916.94 1131.41 Q1915.39 1133.77 1913.33 1134.93 Q1911.29 1136.07 1908.58 1136.07 Q1904.11 1136.07 1901.8 1133.29 Q1899.48 1130.51 1899.48 1125.16 M1910.2 1108.84 L1910.2 1108.84 Z" fill="#000000" fill-rule="nonzero" fill-opacity="1" /><path clip-path="url(#clip030)" d="M1939.23 1118.75 L1939.23 1125.97 L1947.35 1125.97 L1947.35 1128.17 L1939.23 1128.17 L1939.23 1135.4 L1936.8 1135.4 L1936.8 1128.17 L1928.67 1128.17 L1928.67 1125.97 L1936.8 1125.97 L1936.8 1118.75 L1939.23 1118.75 Z" fill="#000000" fill-rule="nonzero" fill-opacity="1" /><path clip-path="url(#clip030)" d="M1980.43 1116.11 Q1978.58 1116.11 1977.31 1117.41 Q1976.03 1118.68 1976.03 1120.53 Q1976.03 1122.36 1977.31 1123.64 Q1978.58 1124.89 1980.43 1124.89 Q1982.28 1124.89 1983.56 1123.64 Q1984.83 1122.36 1984.83 1120.53 Q1984.83 1118.71 1983.53 1117.41 Q1982.26 1116.11 1980.43 1116.11 M1980.43 1113.13 Q1981.91 1113.13 1983.28 1113.71 Q1984.64 1114.26 1985.64 1115.33 Q1986.71 1116.37 1987.24 1117.69 Q1987.77 1119.01 1987.77 1120.53 Q1987.77 1123.59 1985.62 1125.72 Q1983.49 1127.83 1980.39 1127.83 Q1977.26 1127.83 1975.18 1125.74 Q1973.09 1123.66 1973.09 1120.53 Q1973.09 1117.43 1975.22 1115.28 Q1977.35 1113.13 1980.43 1113.13 Z" fill="#000000" fill-rule="nonzero" fill-opacity="1" /><path clip-path="url(#clip030)" d="M2014.37 1125.16 L2014.37 1109.47 L2018.63 1109.47 L2018.63 1125 Q2018.63 1128.68 2020.06 1130.53 Q2021.5 1132.36 2024.37 1132.36 Q2027.82 1132.36 2029.81 1130.16 Q2031.82 1127.96 2031.82 1124.17 L2031.82 1109.47 L2036.08 1109.47 L2036.08 1135.4 L2031.82 1135.4 L2031.82 1131.41 Q2030.27 1133.77 2028.21 1134.93 Q2026.17 1136.07 2023.46 1136.07 Q2019 1136.07 2016.68 1133.29 Q2014.37 1130.51 2014.37 1125.16 M2025.08 1108.84 L2025.08 1108.84 Z" fill="#000000" fill-rule="nonzero" fill-opacity="1" /><path clip-path="url(#clip030)" d="M2054.69 1120.93 L2054.69 1123.17 Q2053.56 1122.66 2052.33 1122.41 Q2051.13 1122.15 2049.81 1122.15 Q2047.79 1122.15 2046.8 1122.69 Q2045.8 1123.24 2045.8 1124.33 Q2045.8 1125.16 2046.52 1125.63 Q2047.24 1126.11 2049.39 1126.53 L2050.32 1126.71 Q2053.21 1127.27 2054.37 1128.24 Q2055.57 1129.24 2055.57 1131.02 Q2055.57 1133.03 2053.76 1134.21 Q2051.98 1135.4 2048.83 1135.4 Q2047.51 1135.4 2046.08 1135.16 Q2044.67 1134.93 2043.09 1134.49 L2043.09 1132.02 Q2044.58 1132.71 2046.03 1133.06 Q2047.47 1133.4 2048.88 1133.4 Q2050.78 1133.4 2051.8 1132.83 Q2052.82 1132.25 2052.82 1131.21 Q2052.82 1130.23 2052.08 1129.7 Q2051.43 1129.24 2048.86 1128.71 L2047.93 1128.52 Q2045.43 1128.03 2044.32 1127.09 Q2043.21 1126.11 2043.21 1124.42 Q2043.21 1122.39 2044.85 1121.28 Q2046.47 1120.14 2049.48 1120.14 Q2050.96 1120.14 2052.28 1120.35 Q2053.6 1120.53 2054.69 1120.93 Z" fill="#000000" fill-rule="nonzero" fill-opacity="1" /><path clip-path="url(#clip030)" d="M2087.98 1116.11 Q2086.13 1116.11 2084.85 1117.41 Q2083.58 1118.68 2083.58 1120.53 Q2083.58 1122.36 2084.85 1123.64 Q2086.13 1124.89 2087.98 1124.89 Q2089.83 1124.89 2091.1 1123.64 Q2092.38 1122.36 2092.38 1120.53 Q2092.38 1118.71 2091.08 1117.41 Q2089.81 1116.11 2087.98 1116.11 M2087.98 1113.13 Q2089.46 1113.13 2090.82 1113.71 Q2092.19 1114.26 2093.19 1115.33 Q2094.25 1116.37 2094.78 1117.69 Q2095.32 1119.01 2095.32 1120.53 Q2095.32 1123.59 2093.16 1125.72 Q2091.03 1127.83 2087.93 1127.83 Q2084.81 1127.83 2082.72 1125.74 Q2080.64 1123.66 2080.64 1120.53 Q2080.64 1117.43 2082.77 1115.28 Q2084.9 1113.13 2087.98 1113.13 Z" fill="#000000" fill-rule="nonzero" fill-opacity="1" /><path clip-path="url(#clip030)" d="M2121.91 1125.16 L2121.91 1109.47 L2126.17 1109.47 L2126.17 1125 Q2126.17 1128.68 2127.61 1130.53 Q2129.04 1132.36 2131.91 1132.36 Q2135.36 1132.36 2137.35 1130.16 Q2139.37 1127.96 2139.37 1124.17 L2139.37 1109.47 L2143.63 1109.47 L2143.63 1135.4 L2139.37 1135.4 L2139.37 1131.41 Q2137.82 1133.77 2135.76 1134.93 Q2133.72 1136.07 2131.01 1136.07 Q2126.54 1136.07 2124.23 1133.29 Q2121.91 1130.51 2121.91 1125.16 M2132.63 1108.84 L2132.63 1108.84 Z" fill="#000000" fill-rule="nonzero" fill-opacity="1" /><path clip-path="url(#clip030)" d="M2161.66 1118.75 L2161.66 1125.97 L2169.78 1125.97 L2169.78 1128.17 L2161.66 1128.17 L2161.66 1135.4 L2159.23 1135.4 L2159.23 1128.17 L2151.1 1128.17 L2151.1 1125.97 L2159.23 1125.97 L2159.23 1118.75 L2161.66 1118.75 Z" fill="#000000" fill-rule="nonzero" fill-opacity="1" /><path clip-path="url(#clip030)" d="M1732.45 1190.69 L1875.62 1190.69 L1875.62 1149.22 L1732.45 1149.22 L1732.45 1190.69  Z" fill="#9acd32" fill-rule="evenodd" fill-opacity="0.35"/>
<polyline clip-path="url(#clip030)" style="stroke:#000000; stroke-linecap:round; stroke-linejoin:round; stroke-width:4; stroke-opacity:0; fill:none" points="1732.45,1190.69 1875.62,1190.69 1875.62,1149.22 1732.45,1149.22 1732.45,1190.69 "/>
<path clip-path="url(#clip030)" d="M1899.48 1177 L1899.48 1161.31 L1903.74 1161.31 L1903.74 1176.84 Q1903.74 1180.52 1905.18 1182.37 Q1906.61 1184.2 1909.48 1184.2 Q1912.93 1184.2 1914.92 1182 Q1916.94 1179.8 1916.94 1176.01 L1916.94 1161.31 L1921.2 1161.31 L1921.2 1187.24 L1916.94 1187.24 L1916.94 1183.25 Q1915.39 1185.61 1913.33 1186.77 Q1911.29 1187.91 1908.58 1187.91 Q1904.11 1187.91 1901.8 1185.13 Q1899.48 1182.35 1899.48 1177 M1910.2 1160.68 L1910.2 1160.68 Z" fill="#000000" fill-rule="nonzero" fill-opacity="1" /><path clip-path="url(#clip030)" d="M1928.67 1177.81 L1947.35 1177.81 L1947.35 1180.01 L1928.67 1180.01 L1928.67 1177.81 Z" fill="#000000" fill-rule="nonzero" fill-opacity="1" /><path clip-path="url(#clip030)" d="M1980.43 1167.95 Q1978.58 1167.95 1977.31 1169.25 Q1976.03 1170.52 1976.03 1172.37 Q1976.03 1174.2 1977.31 1175.48 Q1978.58 1176.73 1980.43 1176.73 Q1982.28 1176.73 1983.56 1175.48 Q1984.83 1174.2 1984.83 1172.37 Q1984.83 1170.55 1983.53 1169.25 Q1982.26 1167.95 1980.43 1167.95 M1980.43 1164.97 Q1981.91 1164.97 1983.28 1165.55 Q1984.64 1166.1 1985.64 1167.17 Q1986.71 1168.21 1987.24 1169.53 Q1987.77 1170.85 1987.77 1172.37 Q1987.77 1175.43 1985.62 1177.56 Q1983.49 1179.67 1980.39 1179.67 Q1977.26 1179.67 1975.18 1177.58 Q1973.09 1175.5 1973.09 1172.37 Q1973.09 1169.27 1975.22 1167.12 Q1977.35 1164.97 1980.43 1164.97 Z" fill="#000000" fill-rule="nonzero" fill-opacity="1" /><path clip-path="url(#clip030)" d="M2014.37 1177 L2014.37 1161.31 L2018.63 1161.31 L2018.63 1176.84 Q2018.63 1180.52 2020.06 1182.37 Q2021.5 1184.2 2024.37 1184.2 Q2027.82 1184.2 2029.81 1182 Q2031.82 1179.8 2031.82 1176.01 L2031.82 1161.31 L2036.08 1161.31 L2036.08 1187.24 L2031.82 1187.24 L2031.82 1183.25 Q2030.27 1185.61 2028.21 1186.77 Q2026.17 1187.91 2023.46 1187.91 Q2019 1187.91 2016.68 1185.13 Q2014.37 1182.35 2014.37 1177 M2025.08 1160.68 L2025.08 1160.68 Z" fill="#000000" fill-rule="nonzero" fill-opacity="1" /><path clip-path="url(#clip030)" d="M2054.11 1170.59 L2054.11 1177.81 L2062.24 1177.81 L2062.24 1180.01 L2054.11 1180.01 L2054.11 1187.24 L2051.68 1187.24 L2051.68 1180.01 L2043.56 1180.01 L2043.56 1177.81 L2051.68 1177.81 L2051.68 1170.59 L2054.11 1170.59 Z" fill="#000000" fill-rule="nonzero" fill-opacity="1" /><path clip-path="url(#clip030)" d="M1732.45 1242.53 L1875.62 1242.53 L1875.62 1201.06 L1732.45 1201.06 L1732.45 1242.53  Z" fill="#ff0000" fill-rule="evenodd" fill-opacity="0.35"/>
<polyline clip-path="url(#clip030)" style="stroke:#000000; stroke-linecap:round; stroke-linejoin:round; stroke-width:4; stroke-opacity:0; fill:none" points="1732.45,1242.53 1875.62,1242.53 1875.62,1201.06 1732.45,1201.06 1732.45,1242.53 "/>
<path clip-path="url(#clip030)" d="M1899.48 1228.84 L1899.48 1213.15 L1903.74 1213.15 L1903.74 1228.68 Q1903.74 1232.36 1905.18 1234.21 Q1906.61 1236.04 1909.48 1236.04 Q1912.93 1236.04 1914.92 1233.84 Q1916.94 1231.64 1916.94 1227.85 L1916.94 1213.15 L1921.2 1213.15 L1921.2 1239.08 L1916.94 1239.08 L1916.94 1235.09 Q1915.39 1237.45 1913.33 1238.61 Q1911.29 1239.75 1908.58 1239.75 Q1904.11 1239.75 1901.8 1236.97 Q1899.48 1234.19 1899.48 1228.84 M1910.2 1212.52 L1910.2 1212.52 Z" fill="#000000" fill-rule="nonzero" fill-opacity="1" /><path clip-path="url(#clip030)" d="M1939.23 1222.43 L1939.23 1229.65 L1947.35 1229.65 L1947.35 1231.85 L1939.23 1231.85 L1939.23 1239.08 L1936.8 1239.08 L1936.8 1231.85 L1928.67 1231.85 L1928.67 1229.65 L1936.8 1229.65 L1936.8 1222.43 L1939.23 1222.43 Z" fill="#000000" fill-rule="nonzero" fill-opacity="1" /><polyline clip-path="url(#clip030)" style="stroke:#ffd700; stroke-linecap:round; stroke-linejoin:round; stroke-width:12; stroke-opacity:1; fill:none" points="1732.45,1273.64 1875.62,1273.64 "/>
<path clip-path="url(#clip030)" d="M1917.91 1265.75 L1917.91 1269.78 Q1916.1 1268.86 1914.16 1268.39 Q1912.21 1267.93 1910.13 1267.93 Q1906.96 1267.93 1905.36 1268.9 Q1903.79 1269.87 1903.79 1271.82 Q1903.79 1273.3 1904.92 1274.16 Q1906.06 1274.99 1909.48 1275.75 L1910.94 1276.08 Q1915.48 1277.05 1917.38 1278.83 Q1919.3 1280.59 1919.3 1283.76 Q1919.3 1287.37 1916.43 1289.48 Q1913.58 1291.59 1908.58 1291.59 Q1906.5 1291.59 1904.23 1291.17 Q1901.98 1290.78 1899.48 1289.97 L1899.48 1285.57 Q1901.84 1286.79 1904.14 1287.42 Q1906.43 1288.02 1908.67 1288.02 Q1911.68 1288.02 1913.3 1287 Q1914.92 1285.96 1914.92 1284.09 Q1914.92 1282.35 1913.74 1281.42 Q1912.59 1280.5 1908.63 1279.64 L1907.15 1279.3 Q1903.19 1278.46 1901.43 1276.75 Q1899.67 1275.01 1899.67 1272 Q1899.67 1268.35 1902.26 1266.36 Q1904.85 1264.36 1909.62 1264.36 Q1911.98 1264.36 1914.07 1264.71 Q1916.15 1265.06 1917.91 1265.75 Z" fill="#000000" fill-rule="nonzero" fill-opacity="1" /><path clip-path="url(#clip030)" d="M1923.6 1264.99 L1927.86 1264.99 L1933.19 1285.22 L1938.49 1264.99 L1943.51 1264.99 L1948.83 1285.22 L1954.14 1264.99 L1958.4 1264.99 L1951.61 1290.92 L1946.59 1290.92 L1941.01 1269.67 L1935.41 1290.92 L1930.39 1290.92 L1923.6 1264.99 Z" fill="#000000" fill-rule="nonzero" fill-opacity="1" /><path clip-path="url(#clip030)" d="M1964.85 1264.99 L1969.11 1264.99 L1969.11 1290.92 L1964.85 1290.92 L1964.85 1264.99 M1964.85 1254.9 L1969.11 1254.9 L1969.11 1260.29 L1964.85 1260.29 L1964.85 1254.9 Z" fill="#000000" fill-rule="nonzero" fill-opacity="1" /><path clip-path="url(#clip030)" d="M1982.24 1257.63 L1982.24 1264.99 L1991.01 1264.99 L1991.01 1268.3 L1982.24 1268.3 L1982.24 1282.37 Q1982.24 1285.54 1983.09 1286.45 Q1983.97 1287.35 1986.64 1287.35 L1991.01 1287.35 L1991.01 1290.92 L1986.64 1290.92 Q1981.71 1290.92 1979.83 1289.09 Q1977.96 1287.23 1977.96 1282.37 L1977.96 1268.3 L1974.83 1268.3 L1974.83 1264.99 L1977.96 1264.99 L1977.96 1257.63 L1982.24 1257.63 Z" fill="#000000" fill-rule="nonzero" fill-opacity="1" /><path clip-path="url(#clip030)" d="M2015.27 1265.98 L2015.27 1269.97 Q2013.46 1268.97 2011.64 1268.48 Q2009.83 1267.98 2007.98 1267.98 Q2003.83 1267.98 2001.54 1270.61 Q1999.25 1273.23 1999.25 1277.98 Q1999.25 1282.72 2001.54 1285.36 Q2003.83 1287.98 2007.98 1287.98 Q2009.83 1287.98 2011.64 1287.49 Q2013.46 1286.98 2015.27 1285.98 L2015.27 1289.92 Q2013.49 1290.75 2011.57 1291.17 Q2009.67 1291.59 2007.52 1291.59 Q2001.66 1291.59 1998.21 1287.91 Q1994.76 1284.23 1994.76 1277.98 Q1994.76 1271.63 1998.23 1268 Q2001.73 1264.36 2007.79 1264.36 Q2009.76 1264.36 2011.64 1264.78 Q2013.51 1265.17 2015.27 1265.98 Z" fill="#000000" fill-rule="nonzero" fill-opacity="1" /><path clip-path="url(#clip030)" d="M2044.23 1275.27 L2044.23 1290.92 L2039.97 1290.92 L2039.97 1275.41 Q2039.97 1271.73 2038.53 1269.9 Q2037.1 1268.07 2034.23 1268.07 Q2030.78 1268.07 2028.79 1270.27 Q2026.8 1272.47 2026.8 1276.26 L2026.8 1290.92 L2022.52 1290.92 L2022.52 1254.9 L2026.8 1254.9 L2026.8 1269.02 Q2028.33 1266.68 2030.39 1265.52 Q2032.47 1264.36 2035.18 1264.36 Q2039.64 1264.36 2041.94 1267.14 Q2044.23 1269.9 2044.23 1275.27 Z" fill="#000000" fill-rule="nonzero" fill-opacity="1" /><path clip-path="url(#clip030)" d="M2052.72 1264.99 L2056.98 1264.99 L2056.98 1290.92 L2052.72 1290.92 L2052.72 1264.99 M2052.72 1254.9 L2056.98 1254.9 L2056.98 1260.29 L2052.72 1260.29 L2052.72 1254.9 Z" fill="#000000" fill-rule="nonzero" fill-opacity="1" /><path clip-path="url(#clip030)" d="M2087.45 1275.27 L2087.45 1290.92 L2083.19 1290.92 L2083.19 1275.41 Q2083.19 1271.73 2081.75 1269.9 Q2080.32 1268.07 2077.45 1268.07 Q2074 1268.07 2072.01 1270.27 Q2070.01 1272.47 2070.01 1276.26 L2070.01 1290.92 L2065.73 1290.92 L2065.73 1264.99 L2070.01 1264.99 L2070.01 1269.02 Q2071.54 1266.68 2073.6 1265.52 Q2075.69 1264.36 2078.39 1264.36 Q2082.86 1264.36 2085.15 1267.14 Q2087.45 1269.9 2087.45 1275.27 Z" fill="#000000" fill-rule="nonzero" fill-opacity="1" /><path clip-path="url(#clip030)" d="M2113 1277.65 Q2113 1273.02 2111.08 1270.48 Q2109.18 1267.93 2105.73 1267.93 Q2102.31 1267.93 2100.39 1270.48 Q2098.49 1273.02 2098.49 1277.65 Q2098.49 1282.26 2100.39 1284.8 Q2102.31 1287.35 2105.73 1287.35 Q2109.18 1287.35 2111.08 1284.8 Q2113 1282.26 2113 1277.65 M2117.26 1287.7 Q2117.26 1294.32 2114.32 1297.54 Q2111.38 1300.78 2105.32 1300.78 Q2103.07 1300.78 2101.08 1300.43 Q2099.09 1300.11 2097.21 1299.41 L2097.21 1295.27 Q2099.09 1296.29 2100.92 1296.77 Q2102.75 1297.26 2104.64 1297.26 Q2108.83 1297.26 2110.92 1295.06 Q2113 1292.88 2113 1288.46 L2113 1286.36 Q2111.68 1288.65 2109.62 1289.78 Q2107.56 1290.92 2104.69 1290.92 Q2099.92 1290.92 2097.01 1287.28 Q2094.09 1283.65 2094.09 1277.65 Q2094.09 1271.63 2097.01 1268 Q2099.92 1264.36 2104.69 1264.36 Q2107.56 1264.36 2109.62 1265.5 Q2111.68 1266.63 2113 1268.92 L2113 1264.99 L2117.26 1264.99 L2117.26 1287.7 Z" fill="#000000" fill-rule="nonzero" fill-opacity="1" /><path clip-path="url(#clip030)" d="M2141.1 1254.9 L2145.36 1254.9 L2145.36 1290.92 L2141.1 1290.92 L2141.1 1254.9 Z" fill="#000000" fill-rule="nonzero" fill-opacity="1" /><path clip-path="url(#clip030)" d="M2164.32 1267.98 Q2160.89 1267.98 2158.9 1270.66 Q2156.91 1273.32 2156.91 1277.98 Q2156.91 1282.63 2158.88 1285.31 Q2160.87 1287.98 2164.32 1287.98 Q2167.72 1287.98 2169.71 1285.29 Q2171.7 1282.61 2171.7 1277.98 Q2171.7 1273.37 2169.71 1270.68 Q2167.72 1267.98 2164.32 1267.98 M2164.32 1264.36 Q2169.88 1264.36 2173.05 1267.98 Q2176.22 1271.59 2176.22 1277.98 Q2176.22 1284.34 2173.05 1287.98 Q2169.88 1291.59 2164.32 1291.59 Q2158.74 1291.59 2155.57 1287.98 Q2152.42 1284.34 2152.42 1277.98 Q2152.42 1271.59 2155.57 1267.98 Q2158.74 1264.36 2164.32 1264.36 Z" fill="#000000" fill-rule="nonzero" fill-opacity="1" /><path clip-path="url(#clip030)" d="M2201.94 1265.98 L2201.94 1269.97 Q2200.13 1268.97 2198.3 1268.48 Q2196.5 1267.98 2194.64 1267.98 Q2190.5 1267.98 2188.21 1270.61 Q2185.92 1273.23 2185.92 1277.98 Q2185.92 1282.72 2188.21 1285.36 Q2190.5 1287.98 2194.64 1287.98 Q2196.5 1287.98 2198.3 1287.49 Q2200.13 1286.98 2201.94 1285.98 L2201.94 1289.92 Q2200.15 1290.75 2198.23 1291.17 Q2196.33 1291.59 2194.18 1291.59 Q2188.32 1291.59 2184.88 1287.91 Q2181.43 1284.23 2181.43 1277.98 Q2181.43 1271.63 2184.9 1268 Q2188.39 1264.36 2194.46 1264.36 Q2196.43 1264.36 2198.3 1264.78 Q2200.18 1265.17 2201.94 1265.98 Z" fill="#000000" fill-rule="nonzero" fill-opacity="1" /><path clip-path="url(#clip030)" d="M2208.9 1280.68 L2208.9 1264.99 L2213.16 1264.99 L2213.16 1280.52 Q2213.16 1284.2 2214.6 1286.05 Q2216.03 1287.88 2218.9 1287.88 Q2222.35 1287.88 2224.34 1285.68 Q2226.36 1283.48 2226.36 1279.69 L2226.36 1264.99 L2230.62 1264.99 L2230.62 1290.92 L2226.36 1290.92 L2226.36 1286.93 Q2224.81 1289.29 2222.75 1290.45 Q2220.71 1291.59 2218 1291.59 Q2213.53 1291.59 2211.22 1288.81 Q2208.9 1286.03 2208.9 1280.68 M2219.62 1264.36 L2219.62 1264.36 Z" fill="#000000" fill-rule="nonzero" fill-opacity="1" /><path clip-path="url(#clip030)" d="M2255.92 1265.75 L2255.92 1269.78 Q2254.11 1268.86 2252.17 1268.39 Q2250.22 1267.93 2248.14 1267.93 Q2244.97 1267.93 2243.37 1268.9 Q2241.8 1269.87 2241.8 1271.82 Q2241.8 1273.3 2242.93 1274.16 Q2244.06 1274.99 2247.49 1275.75 L2248.95 1276.08 Q2253.49 1277.05 2255.38 1278.83 Q2257.31 1280.59 2257.31 1283.76 Q2257.31 1287.37 2254.44 1289.48 Q2251.59 1291.59 2246.59 1291.59 Q2244.5 1291.59 2242.24 1291.17 Q2239.99 1290.78 2237.49 1289.97 L2237.49 1285.57 Q2239.85 1286.79 2242.14 1287.42 Q2244.44 1288.02 2246.68 1288.02 Q2249.69 1288.02 2251.31 1287 Q2252.93 1285.96 2252.93 1284.09 Q2252.93 1282.35 2251.75 1281.42 Q2250.59 1280.5 2246.63 1279.64 L2245.15 1279.3 Q2241.19 1278.46 2239.44 1276.75 Q2237.68 1275.01 2237.68 1272 Q2237.68 1268.35 2240.27 1266.36 Q2242.86 1264.36 2247.63 1264.36 Q2249.99 1264.36 2252.07 1264.71 Q2254.16 1265.06 2255.92 1265.75 Z" fill="#000000" fill-rule="nonzero" fill-opacity="1" /><polyline clip-path="url(#clip030)" style="stroke:#008000; stroke-linecap:round; stroke-linejoin:round; stroke-width:12; stroke-opacity:1; fill:none" points="1732.45,1325.48 1875.62,1325.48 "/>
<path clip-path="url(#clip030)" d="M1899.48 1332.52 L1899.48 1316.83 L1903.74 1316.83 L1903.74 1332.36 Q1903.74 1336.04 1905.18 1337.89 Q1906.61 1339.72 1909.48 1339.72 Q1912.93 1339.72 1914.92 1337.52 Q1916.94 1335.32 1916.94 1331.53 L1916.94 1316.83 L1921.2 1316.83 L1921.2 1342.76 L1916.94 1342.76 L1916.94 1338.77 Q1915.39 1341.13 1913.33 1342.29 Q1911.29 1343.43 1908.58 1343.43 Q1904.11 1343.43 1901.8 1340.65 Q1899.48 1337.87 1899.48 1332.52 M1910.2 1316.2 L1910.2 1316.2 Z" fill="#000000" fill-rule="nonzero" fill-opacity="1" /><path clip-path="url(#clip030)" d="M1939.81 1328.29 L1939.81 1330.53 Q1938.67 1330.02 1937.45 1329.77 Q1936.24 1329.51 1934.92 1329.51 Q1932.91 1329.51 1931.91 1330.05 Q1930.92 1330.6 1930.92 1331.69 Q1930.92 1332.52 1931.64 1332.99 Q1932.35 1333.47 1934.51 1333.89 L1935.43 1334.07 Q1938.33 1334.63 1939.48 1335.6 Q1940.69 1336.6 1940.69 1338.38 Q1940.69 1340.39 1938.88 1341.57 Q1937.1 1342.76 1933.95 1342.76 Q1932.63 1342.76 1931.2 1342.52 Q1929.78 1342.29 1928.21 1341.85 L1928.21 1339.38 Q1929.69 1340.07 1931.15 1340.42 Q1932.58 1340.76 1934 1340.76 Q1935.9 1340.76 1936.91 1340.19 Q1937.93 1339.61 1937.93 1338.57 Q1937.93 1337.59 1937.19 1337.06 Q1936.54 1336.6 1933.97 1336.07 L1933.05 1335.88 Q1930.55 1335.39 1929.44 1334.45 Q1928.33 1333.47 1928.33 1331.78 Q1928.33 1329.75 1929.97 1328.64 Q1931.59 1327.5 1934.6 1327.5 Q1936.08 1327.5 1937.4 1327.71 Q1938.72 1327.89 1939.81 1328.29 Z" fill="#000000" fill-rule="nonzero" fill-opacity="1" /></svg>
