<?xml version="1.0" encoding="utf-8"?>
<svg xmlns="http://www.w3.org/2000/svg" xmlns:xlink="http://www.w3.org/1999/xlink" width="600" height="400" viewBox="0 0 2400 1600">
<defs>
  <clipPath id="clip140">
    <rect x="0" y="0" width="2400" height="1600"/>
  </clipPath>
</defs>
<path clip-path="url(#clip140)" d="M0 1600 L2400 1600 L2400 0 L0 0  Z" fill="#ffffff" fill-rule="evenodd" fill-opacity="1"/>
<defs>
  <clipPath id="clip141">
    <rect x="205" y="47" width="2149" height="1377"/>
  </clipPath>
</defs>
<path clip-path="url(#clip140)" d="M205.121 1423.18 L2352.76 1423.18 L2352.76 47.2441 L205.121 47.2441  Z" fill="#ffffff" fill-rule="evenodd" fill-opacity="1"/>
<polyline clip-path="url(#clip141)" style="stroke:#000000; stroke-linecap:round; stroke-linejoin:round; stroke-width:2; stroke-opacity:0.1; fill:none" points="205.121,1423.18 205.121,47.2441 "/>
<polyline clip-path="url(#clip141)" style="stroke:#000000; stroke-linecap:round; stroke-linejoin:round; stroke-width:2; stroke-opacity:0.1; fill:none" points="634.648,1423.18 634.648,47.2441 "/>
<polyline clip-path="url(#clip141)" style="stroke:#000000; stroke-linecap:round; stroke-linejoin:round; stroke-width:2; stroke-opacity:0.1; fill:none" points="1064.17,1423.18 1064.17,47.2441 "/>
<polyline clip-path="url(#clip141)" style="stroke:#000000; stroke-linecap:round; stroke-linejoin:round; stroke-width:2; stroke-opacity:0.1; fill:none" points="1493.7,1423.18 1493.7,47.2441 "/>
<polyline clip-path="url(#clip141)" style="stroke:#000000; stroke-linecap:round; stroke-linejoin:round; stroke-width:2; stroke-opacity:0.1; fill:none" points="1923.23,1423.18 1923.23,47.2441 "/>
<polyline clip-path="url(#clip141)" style="stroke:#000000; stroke-linecap:round; stroke-linejoin:round; stroke-width:2; stroke-opacity:0.1; fill:none" points="2352.76,1423.18 2352.76,47.2441 "/>
<polyline clip-path="url(#clip141)" style="stroke:#000000; stroke-linecap:round; stroke-linejoin:round; stroke-width:2; stroke-opacity:0.1; fill:none" points="205.121,1320.14 2352.76,1320.14 "/>
<polyline clip-path="url(#clip141)" style="stroke:#000000; stroke-linecap:round; stroke-linejoin:round; stroke-width:2; stroke-opacity:0.1; fill:none" points="205.121,999.631 2352.76,999.631 "/>
<polyline clip-path="url(#clip141)" style="stroke:#000000; stroke-linecap:round; stroke-linejoin:round; stroke-width:2; stroke-opacity:0.1; fill:none" points="205.121,679.124 2352.76,679.124 "/>
<polyline clip-path="url(#clip141)" style="stroke:#000000; stroke-linecap:round; stroke-linejoin:round; stroke-width:2; stroke-opacity:0.1; fill:none" points="205.121,358.617 2352.76,358.617 "/>
<polyline clip-path="url(#clip140)" style="stroke:#000000; stroke-linecap:round; stroke-linejoin:round; stroke-width:4; stroke-opacity:1; fill:none" points="205.121,1423.18 2352.76,1423.18 "/>
<polyline clip-path="url(#clip140)" style="stroke:#000000; stroke-linecap:round; stroke-linejoin:round; stroke-width:4; stroke-opacity:1; fill:none" points="205.121,1423.18 205.121,1404.28 "/>
<polyline clip-path="url(#clip140)" style="stroke:#000000; stroke-linecap:round; stroke-linejoin:round; stroke-width:4; stroke-opacity:1; fill:none" points="634.648,1423.18 634.648,1404.28 "/>
<polyline clip-path="url(#clip140)" style="stroke:#000000; stroke-linecap:round; stroke-linejoin:round; stroke-width:4; stroke-opacity:1; fill:none" points="1064.17,1423.18 1064.17,1404.28 "/>
<polyline clip-path="url(#clip140)" style="stroke:#000000; stroke-linecap:round; stroke-linejoin:round; stroke-width:4; stroke-opacity:1; fill:none" points="1493.7,1423.18 1493.7,1404.28 "/>
<polyline clip-path="url(#clip140)" style="stroke:#000000; stroke-linecap:round; stroke-linejoin:round; stroke-width:4; stroke-opacity:1; fill:none" points="1923.23,1423.18 1923.23,1404.28 "/>
<polyline clip-path="url(#clip140)" style="stroke:#000000; stroke-linecap:round; stroke-linejoin:round; stroke-width:4; stroke-opacity:1; fill:none" points="2352.76,1423.18 2352.76,1404.28 "/>
<path clip-path="url(#clip140)" d="M205.121 1454.1 Q201.51 1454.1 199.681 1457.66 Q197.876 1461.2 197.876 1468.33 Q197.876 1475.44 199.681 1479.01 Q201.51 1482.55 205.121 1482.55 Q208.755 1482.55 210.561 1479.01 Q212.389 1475.44 212.389 1468.33 Q212.389 1461.2 210.561 1457.66 Q208.755 1454.1 205.121 1454.1 M205.121 1450.39 Q210.931 1450.39 213.987 1455 Q217.065 1459.58 217.065 1468.33 Q217.065 1477.06 213.987 1481.67 Q210.931 1486.25 205.121 1486.25 Q199.311 1486.25 196.232 1481.67 Q193.177 1477.06 193.177 1468.33 Q193.177 1459.58 196.232 1455 Q199.311 1450.39 205.121 1450.39 Z" fill="#000000" fill-rule="nonzero" fill-opacity="1" /><path clip-path="url(#clip140)" d="M629.301 1481.64 L645.62 1481.64 L645.62 1485.58 L623.676 1485.58 L623.676 1481.64 Q626.338 1478.89 630.921 1474.26 Q635.528 1469.61 636.708 1468.27 Q638.953 1465.74 639.833 1464.01 Q640.736 1462.25 640.736 1460.56 Q640.736 1457.8 638.791 1456.07 Q636.87 1454.33 633.768 1454.33 Q631.569 1454.33 629.116 1455.09 Q626.685 1455.86 623.907 1457.41 L623.907 1452.69 Q626.731 1451.55 629.185 1450.97 Q631.639 1450.39 633.676 1450.39 Q639.046 1450.39 642.241 1453.08 Q645.435 1455.77 645.435 1460.26 Q645.435 1462.39 644.625 1464.31 Q643.838 1466.2 641.731 1468.8 Q641.153 1469.47 638.051 1472.69 Q634.949 1475.88 629.301 1481.64 Z" fill="#000000" fill-rule="nonzero" fill-opacity="1" /><path clip-path="url(#clip140)" d="M1067.18 1455.09 L1055.38 1473.54 L1067.18 1473.54 L1067.18 1455.09 M1065.96 1451.02 L1071.84 1451.02 L1071.84 1473.54 L1076.77 1473.54 L1076.77 1477.43 L1071.84 1477.43 L1071.84 1485.58 L1067.18 1485.58 L1067.18 1477.43 L1051.58 1477.43 L1051.58 1472.92 L1065.96 1451.02 Z" fill="#000000" fill-rule="nonzero" fill-opacity="1" /><path clip-path="url(#clip140)" d="M1494.11 1466.44 Q1490.96 1466.44 1489.11 1468.59 Q1487.28 1470.74 1487.28 1474.49 Q1487.28 1478.22 1489.11 1480.39 Q1490.96 1482.55 1494.11 1482.55 Q1497.26 1482.55 1499.08 1480.39 Q1500.94 1478.22 1500.94 1474.49 Q1500.94 1470.74 1499.08 1468.59 Q1497.26 1466.44 1494.11 1466.44 M1503.39 1451.78 L1503.39 1456.04 Q1501.63 1455.21 1499.82 1454.77 Q1498.04 1454.33 1496.28 1454.33 Q1491.65 1454.33 1489.2 1457.45 Q1486.77 1460.58 1486.42 1466.9 Q1487.79 1464.89 1489.85 1463.82 Q1491.91 1462.73 1494.38 1462.73 Q1499.59 1462.73 1502.6 1465.9 Q1505.63 1469.05 1505.63 1474.49 Q1505.63 1479.82 1502.49 1483.03 Q1499.34 1486.25 1494.11 1486.25 Q1488.11 1486.25 1484.94 1481.67 Q1481.77 1477.06 1481.77 1468.33 Q1481.77 1460.14 1485.66 1455.28 Q1489.55 1450.39 1496.1 1450.39 Q1497.86 1450.39 1499.64 1450.74 Q1501.44 1451.09 1503.39 1451.78 Z" fill="#000000" fill-rule="nonzero" fill-opacity="1" /><path clip-path="url(#clip140)" d="M1923.23 1469.17 Q1919.9 1469.17 1917.97 1470.95 Q1916.08 1472.73 1916.08 1475.86 Q1916.08 1478.98 1917.97 1480.77 Q1919.9 1482.55 1923.23 1482.55 Q1926.56 1482.55 1928.48 1480.77 Q1930.4 1478.96 1930.4 1475.86 Q1930.4 1472.73 1928.48 1470.95 Q1926.59 1469.17 1923.23 1469.17 M1918.55 1467.18 Q1915.54 1466.44 1913.85 1464.38 Q1912.19 1462.32 1912.19 1459.35 Q1912.19 1455.21 1915.13 1452.8 Q1918.09 1450.39 1923.23 1450.39 Q1928.39 1450.39 1931.33 1452.8 Q1934.27 1455.21 1934.27 1459.35 Q1934.27 1462.32 1932.58 1464.38 Q1930.91 1466.44 1927.93 1467.18 Q1931.31 1467.96 1933.18 1470.26 Q1935.08 1472.55 1935.08 1475.86 Q1935.08 1480.88 1932 1483.57 Q1928.95 1486.25 1923.23 1486.25 Q1917.51 1486.25 1914.43 1483.57 Q1911.38 1480.88 1911.38 1475.86 Q1911.38 1472.55 1913.28 1470.26 Q1915.17 1467.96 1918.55 1467.18 M1916.84 1459.79 Q1916.84 1462.48 1918.51 1463.98 Q1920.2 1465.49 1923.23 1465.49 Q1926.24 1465.49 1927.93 1463.98 Q1929.64 1462.48 1929.64 1459.79 Q1929.64 1457.11 1927.93 1455.6 Q1926.24 1454.1 1923.23 1454.1 Q1920.2 1454.1 1918.51 1455.6 Q1916.84 1457.11 1916.84 1459.79 Z" fill="#000000" fill-rule="nonzero" fill-opacity="1" /><path clip-path="url(#clip140)" d="M2327.44 1481.64 L2335.08 1481.64 L2335.08 1455.28 L2326.77 1456.95 L2326.77 1452.69 L2335.04 1451.02 L2339.71 1451.02 L2339.71 1481.64 L2347.35 1481.64 L2347.35 1485.58 L2327.44 1485.58 L2327.44 1481.64 Z" fill="#000000" fill-rule="nonzero" fill-opacity="1" /><path clip-path="url(#clip140)" d="M2366.8 1454.1 Q2363.18 1454.1 2361.36 1457.66 Q2359.55 1461.2 2359.55 1468.33 Q2359.55 1475.44 2361.36 1479.01 Q2363.18 1482.55 2366.8 1482.55 Q2370.43 1482.55 2372.23 1479.01 Q2374.06 1475.44 2374.06 1468.33 Q2374.06 1461.2 2372.23 1457.66 Q2370.43 1454.1 2366.8 1454.1 M2366.8 1450.39 Q2372.61 1450.39 2375.66 1455 Q2378.74 1459.58 2378.74 1468.33 Q2378.74 1477.06 2375.66 1481.67 Q2372.61 1486.25 2366.8 1486.25 Q2360.99 1486.25 2357.91 1481.67 Q2354.85 1477.06 2354.85 1468.33 Q2354.85 1459.58 2357.91 1455 Q2360.99 1450.39 2366.8 1450.39 Z" fill="#000000" fill-rule="nonzero" fill-opacity="1" /><path clip-path="url(#clip140)" d="M1295.55 1532.4 L1282.66 1549.74 L1296.22 1568.04 L1289.31 1568.04 L1278.94 1554.04 L1268.56 1568.04 L1261.66 1568.04 L1275.5 1549.39 L1262.83 1532.4 L1269.74 1532.4 L1279.19 1545.1 L1288.65 1532.4 L1295.55 1532.4 Z" fill="#000000" fill-rule="nonzero" fill-opacity="1" /><polyline clip-path="url(#clip140)" style="stroke:#000000; stroke-linecap:round; stroke-linejoin:round; stroke-width:4; stroke-opacity:1; fill:none" points="205.121,1423.18 205.121,47.2441 "/>
<polyline clip-path="url(#clip140)" style="stroke:#000000; stroke-linecap:round; stroke-linejoin:round; stroke-width:4; stroke-opacity:1; fill:none" points="205.121,1320.14 224.019,1320.14 "/>
<polyline clip-path="url(#clip140)" style="stroke:#000000; stroke-linecap:round; stroke-linejoin:round; stroke-width:4; stroke-opacity:1; fill:none" points="205.121,999.631 224.019,999.631 "/>
<polyline clip-path="url(#clip140)" style="stroke:#000000; stroke-linecap:round; stroke-linejoin:round; stroke-width:4; stroke-opacity:1; fill:none" points="205.121,679.124 224.019,679.124 "/>
<polyline clip-path="url(#clip140)" style="stroke:#000000; stroke-linecap:round; stroke-linejoin:round; stroke-width:4; stroke-opacity:1; fill:none" points="205.121,358.617 224.019,358.617 "/>
<path clip-path="url(#clip140)" d="M157.177 1305.94 Q153.566 1305.94 151.737 1309.5 Q149.931 1313.04 149.931 1320.17 Q149.931 1327.28 151.737 1330.84 Q153.566 1334.39 157.177 1334.39 Q160.811 1334.39 162.616 1330.84 Q164.445 1327.28 164.445 1320.17 Q164.445 1313.04 162.616 1309.5 Q160.811 1305.94 157.177 1305.94 M157.177 1302.23 Q162.987 1302.23 166.042 1306.84 Q169.121 1311.42 169.121 1320.17 Q169.121 1328.9 166.042 1333.51 Q162.987 1338.09 157.177 1338.09 Q151.366 1338.09 148.288 1333.51 Q145.232 1328.9 145.232 1320.17 Q145.232 1311.42 148.288 1306.84 Q151.366 1302.23 157.177 1302.23 Z" fill="#000000" fill-rule="nonzero" fill-opacity="1" /><path clip-path="url(#clip140)" d="M121.043 1012.98 L137.362 1012.98 L137.362 1016.91 L115.418 1016.91 L115.418 1012.98 Q118.08 1010.22 122.663 1005.59 Q127.269 1000.94 128.45 999.597 Q130.695 997.074 131.575 995.337 Q132.478 993.578 132.478 991.888 Q132.478 989.134 130.533 987.398 Q128.612 985.662 125.51 985.662 Q123.311 985.662 120.857 986.425 Q118.427 987.189 115.649 988.74 L115.649 984.018 Q118.473 982.884 120.927 982.305 Q123.38 981.726 125.418 981.726 Q130.788 981.726 133.982 984.412 Q137.177 987.097 137.177 991.587 Q137.177 993.717 136.367 995.638 Q135.579 997.537 133.473 1000.13 Q132.894 1000.8 129.792 1004.02 Q126.691 1007.21 121.043 1012.98 Z" fill="#000000" fill-rule="nonzero" fill-opacity="1" /><path clip-path="url(#clip140)" d="M157.177 985.43 Q153.566 985.43 151.737 988.995 Q149.931 992.537 149.931 999.666 Q149.931 1006.77 151.737 1010.34 Q153.566 1013.88 157.177 1013.88 Q160.811 1013.88 162.616 1010.34 Q164.445 1006.77 164.445 999.666 Q164.445 992.537 162.616 988.995 Q160.811 985.43 157.177 985.43 M157.177 981.726 Q162.987 981.726 166.042 986.333 Q169.121 990.916 169.121 999.666 Q169.121 1008.39 166.042 1013 Q162.987 1017.58 157.177 1017.58 Q151.366 1017.58 148.288 1013 Q145.232 1008.39 145.232 999.666 Q145.232 990.916 148.288 986.333 Q151.366 981.726 157.177 981.726 Z" fill="#000000" fill-rule="nonzero" fill-opacity="1" /><path clip-path="url(#clip140)" d="M129.862 665.918 L118.056 684.367 L129.862 684.367 L129.862 665.918 M128.635 661.844 L134.515 661.844 L134.515 684.367 L139.445 684.367 L139.445 688.256 L134.515 688.256 L134.515 696.404 L129.862 696.404 L129.862 688.256 L114.26 688.256 L114.26 683.742 L128.635 661.844 Z" fill="#000000" fill-rule="nonzero" fill-opacity="1" /><path clip-path="url(#clip140)" d="M157.177 664.923 Q153.566 664.923 151.737 668.488 Q149.931 672.029 149.931 679.159 Q149.931 686.265 151.737 689.83 Q153.566 693.372 157.177 693.372 Q160.811 693.372 162.616 689.83 Q164.445 686.265 164.445 679.159 Q164.445 672.029 162.616 668.488 Q160.811 664.923 157.177 664.923 M157.177 661.219 Q162.987 661.219 166.042 665.826 Q169.121 670.409 169.121 679.159 Q169.121 687.886 166.042 692.492 Q162.987 697.075 157.177 697.075 Q151.366 697.075 148.288 692.492 Q145.232 687.886 145.232 679.159 Q145.232 670.409 148.288 665.826 Q151.366 661.219 157.177 661.219 Z" fill="#000000" fill-rule="nonzero" fill-opacity="1" /><path clip-path="url(#clip140)" d="M127.593 356.753 Q124.445 356.753 122.593 358.906 Q120.765 361.059 120.765 364.809 Q120.765 368.536 122.593 370.712 Q124.445 372.864 127.593 372.864 Q130.742 372.864 132.57 370.712 Q134.422 368.536 134.422 364.809 Q134.422 361.059 132.57 358.906 Q130.742 356.753 127.593 356.753 M136.876 342.101 L136.876 346.36 Q135.117 345.527 133.311 345.087 Q131.529 344.647 129.769 344.647 Q125.14 344.647 122.686 347.772 Q120.255 350.897 119.908 357.216 Q121.274 355.203 123.334 354.138 Q125.394 353.05 127.871 353.05 Q133.08 353.05 136.089 356.221 Q139.121 359.369 139.121 364.809 Q139.121 370.133 135.973 373.351 Q132.825 376.568 127.593 376.568 Q121.598 376.568 118.427 371.985 Q115.256 367.378 115.256 358.652 Q115.256 350.457 119.144 345.596 Q123.033 340.712 129.584 340.712 Q131.343 340.712 133.126 341.059 Q134.931 341.406 136.876 342.101 Z" fill="#000000" fill-rule="nonzero" fill-opacity="1" /><path clip-path="url(#clip140)" d="M157.177 344.416 Q153.566 344.416 151.737 347.98 Q149.931 351.522 149.931 358.652 Q149.931 365.758 151.737 369.323 Q153.566 372.864 157.177 372.864 Q160.811 372.864 162.616 369.323 Q164.445 365.758 164.445 358.652 Q164.445 351.522 162.616 347.98 Q160.811 344.416 157.177 344.416 M157.177 340.712 Q162.987 340.712 166.042 345.318 Q169.121 349.902 169.121 358.652 Q169.121 367.378 166.042 371.985 Q162.987 376.568 157.177 376.568 Q151.366 376.568 148.288 371.985 Q145.232 367.378 145.232 358.652 Q145.232 349.902 148.288 345.318 Q151.366 340.712 157.177 340.712 Z" fill="#000000" fill-rule="nonzero" fill-opacity="1" /><path clip-path="url(#clip140)" d="M64.7999 781.92 Q63.6222 789.273 60.5348 792.678 Q56.7473 796.848 49.0129 796.848 L28.3562 796.848 L28.3562 790.928 L48.7901 790.928 Q54.6147 790.928 57.0337 788.222 Q59.1344 785.867 59.58 781.92 L28.3562 781.92 L28.3562 776.096 L59.5482 776.096 Q59.1026 771.926 57.0019 769.794 Q54.3283 767.088 48.7583 767.088 L28.3562 767.088 L28.3562 761.168 L48.9811 761.168 Q57.0019 761.168 60.503 765.338 Q63.654 769.093 64.768 776.096 L77.5631 776.096 L77.5631 781.92 L64.7999 781.92 Z" fill="#000000" fill-rule="nonzero" fill-opacity="1" /><path clip-path="url(#clip140)" d="M14.5426 737.201 Q21.8632 741.466 29.0246 743.535 Q36.186 745.604 43.5384 745.604 Q50.8908 745.604 58.1159 743.535 Q65.3091 741.434 72.5979 737.201 L72.5979 742.294 Q65.1182 747.068 57.8931 749.455 Q50.668 751.811 43.5384 751.811 Q36.4406 751.811 29.2474 749.455 Q22.0542 747.1 14.5426 742.294 L14.5426 737.201 Z" fill="#000000" fill-rule="nonzero" fill-opacity="1" /><path clip-path="url(#clip140)" d="M28.3562 696.206 L45.7028 709.097 L64.0042 695.538 L64.0042 702.444 L49.9996 712.821 L64.0042 723.197 L64.0042 730.103 L45.3526 716.258 L28.3562 728.926 L28.3562 722.019 L41.0558 712.566 L28.3562 703.113 L28.3562 696.206 Z" fill="#000000" fill-rule="nonzero" fill-opacity="1" /><path clip-path="url(#clip140)" d="M14.5426 688.185 L14.5426 683.093 Q22.0542 678.318 29.2474 675.963 Q36.4406 673.576 43.5384 673.576 Q50.668 673.576 57.8931 675.963 Q65.1182 678.318 72.5979 683.093 L72.5979 688.185 Q65.3091 683.952 58.1159 681.883 Q50.8908 679.783 43.5384 679.783 Q36.186 679.783 29.0246 681.883 Q21.8632 683.952 14.5426 688.185 Z" fill="#000000" fill-rule="nonzero" fill-opacity="1" /><polyline clip-path="url(#clip141)" style="stroke:#009af9; stroke-linecap:round; stroke-linejoin:round; stroke-width:4; stroke-opacity:1; fill:none" points="205.121,1368.21 216.207,1369.83 227.293,1371.35 292.221,1378.58 357.149,1382.87 387.354,1383.87 417.559,1384.24 458.044,1383.73 498.53,1382.09 565.437,1376.88 627.654,1369.24 666.705,1363.07 705.757,1355.85 740.787,1348.46 775.817,1340.22 856.009,1318.15 915.953,1298.74 954.288,1285.01 992.622,1270.27 1027.61,1255.92 1062.6,1240.72 1142.24,1202.94 1205.37,1169.87 1244.59,1147.93 1283.81,1124.92 1313.84,1106.57 1343.88,1087.6 1386.22,1059.79 1428.57,1030.73 1460.21,1008.21 1491.85,984.984 1527.84,957.728 1563.82,929.573 1599.46,900.803 1635.1,871.15 1674.31,837.506 1713.52,802.795 1743.47,775.562 1773.41,747.705 1849,674.629 1918.91,603.507 1954.95,565.505 1991,526.6 2027.54,486.244 2064.08,444.96 2102.24,400.861 2140.39,355.751 2170.45,319.503 2200.5,282.628 2268.95,196.308 2337.4,106.733 2345.08,96.4798 2352.76,86.1857 "/>
<polyline clip-path="url(#clip141)" style="stroke:#000000; stroke-linecap:round; stroke-linejoin:round; stroke-width:4; stroke-opacity:1; fill:none" stroke-dasharray="2, 4" points="205.121,1320.14 227.293,1320.14 357.149,1320.14 417.559,1320.14 498.53,1320.14 565.437,1320.14 627.654,1320.14 705.757,1320.14 775.817,1320.14 856.009,1320.14 915.953,1320.14 992.622,1320.14 1062.6,1320.14 1142.24,1320.14 1205.37,1320.14 1283.81,1320.14 1343.88,1320.14 1428.57,1320.14 1491.85,1320.14 1563.82,1320.14 1635.1,1320.14 1713.52,1320.14 1773.41,1320.14 1849,1320.14 1918.91,1320.14 1991,1320.14 2064.08,1320.14 2140.39,1320.14 2200.5,1320.14 2337.4,1320.14 2352.76,1320.14 "/>
</svg>
