<?xml version="1.0" encoding="utf-8"?>
<svg xmlns="http://www.w3.org/2000/svg" xmlns:xlink="http://www.w3.org/1999/xlink" width="600" height="400" viewBox="0 0 2400 1600">
<defs>
  <clipPath id="clip780">
    <rect x="0" y="0" width="2400" height="1600"/>
  </clipPath>
</defs>
<path clip-path="url(#clip780)" d="M0 1600 L2400 1600 L2400 0 L0 0  Z" fill="#ffffff" fill-rule="evenodd" fill-opacity="1"/>
<defs>
  <clipPath id="clip781">
    <rect x="480" y="0" width="1681" height="1600"/>
  </clipPath>
</defs>
<path clip-path="url(#clip780)" d="M202.227 1423.18 L2352.76 1423.18 L2352.76 47.2441 L202.227 47.2441  Z" fill="#ffffff" fill-rule="evenodd" fill-opacity="1"/>
<defs>
  <clipPath id="clip782">
    <rect x="202" y="47" width="2152" height="1377"/>
  </clipPath>
</defs>
<polyline clip-path="url(#clip782)" style="stroke:#000000; stroke-linecap:round; stroke-linejoin:round; stroke-width:2; stroke-opacity:0.1; fill:none" points="202.227,1423.18 202.227,47.2441 "/>
<polyline clip-path="url(#clip782)" style="stroke:#000000; stroke-linecap:round; stroke-linejoin:round; stroke-width:2; stroke-opacity:0.1; fill:none" points="632.333,1423.18 632.333,47.2441 "/>
<polyline clip-path="url(#clip782)" style="stroke:#000000; stroke-linecap:round; stroke-linejoin:round; stroke-width:2; stroke-opacity:0.1; fill:none" points="1062.44,1423.18 1062.44,47.2441 "/>
<polyline clip-path="url(#clip782)" style="stroke:#000000; stroke-linecap:round; stroke-linejoin:round; stroke-width:2; stroke-opacity:0.1; fill:none" points="1492.54,1423.18 1492.54,47.2441 "/>
<polyline clip-path="url(#clip782)" style="stroke:#000000; stroke-linecap:round; stroke-linejoin:round; stroke-width:2; stroke-opacity:0.1; fill:none" points="1922.65,1423.18 1922.65,47.2441 "/>
<polyline clip-path="url(#clip782)" style="stroke:#000000; stroke-linecap:round; stroke-linejoin:round; stroke-width:2; stroke-opacity:0.1; fill:none" points="2352.76,1423.18 2352.76,47.2441 "/>
<polyline clip-path="url(#clip782)" style="stroke:#000000; stroke-linecap:round; stroke-linejoin:round; stroke-width:2; stroke-opacity:0.1; fill:none" points="202.227,1423.18 2352.76,1423.18 "/>
<polyline clip-path="url(#clip782)" style="stroke:#000000; stroke-linecap:round; stroke-linejoin:round; stroke-width:2; stroke-opacity:0.1; fill:none" points="202.227,1147.99 2352.76,1147.99 "/>
<polyline clip-path="url(#clip782)" style="stroke:#000000; stroke-linecap:round; stroke-linejoin:round; stroke-width:2; stroke-opacity:0.1; fill:none" points="202.227,872.806 2352.76,872.806 "/>
<polyline clip-path="url(#clip782)" style="stroke:#000000; stroke-linecap:round; stroke-linejoin:round; stroke-width:2; stroke-opacity:0.1; fill:none" points="202.227,597.618 2352.76,597.618 "/>
<polyline clip-path="url(#clip782)" style="stroke:#000000; stroke-linecap:round; stroke-linejoin:round; stroke-width:2; stroke-opacity:0.1; fill:none" points="202.227,322.431 2352.76,322.431 "/>
<polyline clip-path="url(#clip782)" style="stroke:#000000; stroke-linecap:round; stroke-linejoin:round; stroke-width:2; stroke-opacity:0.1; fill:none" points="202.227,47.2441 2352.76,47.2441 "/>
<polyline clip-path="url(#clip780)" style="stroke:#000000; stroke-linecap:round; stroke-linejoin:round; stroke-width:4; stroke-opacity:1; fill:none" points="202.227,1423.18 2352.76,1423.18 "/>
<polyline clip-path="url(#clip780)" style="stroke:#000000; stroke-linecap:round; stroke-linejoin:round; stroke-width:4; stroke-opacity:1; fill:none" points="202.227,1423.18 202.227,1404.28 "/>
<polyline clip-path="url(#clip780)" style="stroke:#000000; stroke-linecap:round; stroke-linejoin:round; stroke-width:4; stroke-opacity:1; fill:none" points="632.333,1423.18 632.333,1404.28 "/>
<polyline clip-path="url(#clip780)" style="stroke:#000000; stroke-linecap:round; stroke-linejoin:round; stroke-width:4; stroke-opacity:1; fill:none" points="1062.44,1423.18 1062.44,1404.28 "/>
<polyline clip-path="url(#clip780)" style="stroke:#000000; stroke-linecap:round; stroke-linejoin:round; stroke-width:4; stroke-opacity:1; fill:none" points="1492.54,1423.18 1492.54,1404.28 "/>
<polyline clip-path="url(#clip780)" style="stroke:#000000; stroke-linecap:round; stroke-linejoin:round; stroke-width:4; stroke-opacity:1; fill:none" points="1922.65,1423.18 1922.65,1404.28 "/>
<polyline clip-path="url(#clip780)" style="stroke:#000000; stroke-linecap:round; stroke-linejoin:round; stroke-width:4; stroke-opacity:1; fill:none" points="2352.76,1423.18 2352.76,1404.28 "/>
<path clip-path="url(#clip780)" d="M202.227 1454.1 Q198.616 1454.1 196.788 1457.66 Q194.982 1461.2 194.982 1468.33 Q194.982 1475.44 196.788 1479.01 Q198.616 1482.55 202.227 1482.55 Q205.862 1482.55 207.667 1479.01 Q209.496 1475.44 209.496 1468.33 Q209.496 1461.2 207.667 1457.66 Q205.862 1454.1 202.227 1454.1 M202.227 1450.39 Q208.038 1450.39 211.093 1455 Q214.172 1459.58 214.172 1468.33 Q214.172 1477.06 211.093 1481.67 Q208.038 1486.25 202.227 1486.25 Q196.417 1486.25 193.339 1481.67 Q190.283 1477.06 190.283 1468.33 Q190.283 1459.58 193.339 1455 Q196.417 1450.39 202.227 1450.39 Z" fill="#000000" fill-rule="nonzero" fill-opacity="1" /><path clip-path="url(#clip780)" d="M626.986 1481.64 L643.305 1481.64 L643.305 1485.58 L621.361 1485.58 L621.361 1481.64 Q624.023 1478.89 628.606 1474.26 Q633.213 1469.61 634.393 1468.27 Q636.639 1465.74 637.518 1464.01 Q638.421 1462.25 638.421 1460.56 Q638.421 1457.8 636.477 1456.07 Q634.555 1454.33 631.454 1454.33 Q629.254 1454.33 626.801 1455.09 Q624.37 1455.86 621.592 1457.41 L621.592 1452.69 Q624.417 1451.55 626.87 1450.97 Q629.324 1450.39 631.361 1450.39 Q636.731 1450.39 639.926 1453.08 Q643.12 1455.77 643.12 1460.26 Q643.12 1462.39 642.31 1464.31 Q641.523 1466.2 639.416 1468.8 Q638.838 1469.47 635.736 1472.69 Q632.634 1475.88 626.986 1481.64 Z" fill="#000000" fill-rule="nonzero" fill-opacity="1" /><path clip-path="url(#clip780)" d="M1065.45 1455.09 L1053.64 1473.54 L1065.45 1473.54 L1065.45 1455.09 M1064.22 1451.02 L1070.1 1451.02 L1070.1 1473.54 L1075.03 1473.54 L1075.03 1477.43 L1070.1 1477.43 L1070.1 1485.58 L1065.45 1485.58 L1065.45 1477.43 L1049.85 1477.43 L1049.85 1472.92 L1064.22 1451.02 Z" fill="#000000" fill-rule="nonzero" fill-opacity="1" /><path clip-path="url(#clip780)" d="M1492.95 1466.44 Q1489.8 1466.44 1487.95 1468.59 Q1486.12 1470.74 1486.12 1474.49 Q1486.12 1478.22 1487.95 1480.39 Q1489.8 1482.55 1492.95 1482.55 Q1496.1 1482.55 1497.93 1480.39 Q1499.78 1478.22 1499.78 1474.49 Q1499.78 1470.74 1497.93 1468.59 Q1496.1 1466.44 1492.95 1466.44 M1502.23 1451.78 L1502.23 1456.04 Q1500.47 1455.21 1498.67 1454.77 Q1496.88 1454.33 1495.13 1454.33 Q1490.5 1454.33 1488.04 1457.45 Q1485.61 1460.58 1485.26 1466.9 Q1486.63 1464.89 1488.69 1463.82 Q1490.75 1462.73 1493.23 1462.73 Q1498.44 1462.73 1501.44 1465.9 Q1504.48 1469.05 1504.48 1474.49 Q1504.48 1479.82 1501.33 1483.03 Q1498.18 1486.25 1492.95 1486.25 Q1486.95 1486.25 1483.78 1481.67 Q1480.61 1477.06 1480.61 1468.33 Q1480.61 1460.14 1484.5 1455.28 Q1488.39 1450.39 1494.94 1450.39 Q1496.7 1450.39 1498.48 1450.74 Q1500.29 1451.09 1502.23 1451.78 Z" fill="#000000" fill-rule="nonzero" fill-opacity="1" /><path clip-path="url(#clip780)" d="M1922.65 1469.17 Q1919.32 1469.17 1917.4 1470.95 Q1915.5 1472.73 1915.5 1475.86 Q1915.5 1478.98 1917.4 1480.77 Q1919.32 1482.55 1922.65 1482.55 Q1925.98 1482.55 1927.9 1480.77 Q1929.83 1478.96 1929.83 1475.86 Q1929.83 1472.73 1927.9 1470.95 Q1926.01 1469.17 1922.65 1469.17 M1917.97 1467.18 Q1914.97 1466.44 1913.28 1464.38 Q1911.61 1462.32 1911.61 1459.35 Q1911.61 1455.21 1914.55 1452.8 Q1917.51 1450.39 1922.65 1450.39 Q1927.81 1450.39 1930.75 1452.8 Q1933.69 1455.21 1933.69 1459.35 Q1933.69 1462.32 1932 1464.38 Q1930.34 1466.44 1927.35 1467.18 Q1930.73 1467.96 1932.6 1470.26 Q1934.5 1472.55 1934.5 1475.86 Q1934.5 1480.88 1931.42 1483.57 Q1928.37 1486.25 1922.65 1486.25 Q1916.93 1486.25 1913.85 1483.57 Q1910.8 1480.88 1910.8 1475.86 Q1910.8 1472.55 1912.7 1470.26 Q1914.59 1467.96 1917.97 1467.18 M1916.26 1459.79 Q1916.26 1462.48 1917.93 1463.98 Q1919.62 1465.49 1922.65 1465.49 Q1925.66 1465.49 1927.35 1463.98 Q1929.06 1462.48 1929.06 1459.79 Q1929.06 1457.11 1927.35 1455.6 Q1925.66 1454.1 1922.65 1454.1 Q1919.62 1454.1 1917.93 1455.6 Q1916.26 1457.11 1916.26 1459.79 Z" fill="#000000" fill-rule="nonzero" fill-opacity="1" /><path clip-path="url(#clip780)" d="M2327.44 1481.64 L2335.08 1481.64 L2335.08 1455.28 L2326.77 1456.95 L2326.77 1452.69 L2335.04 1451.02 L2339.71 1451.02 L2339.71 1481.64 L2347.35 1481.64 L2347.35 1485.58 L2327.44 1485.58 L2327.44 1481.64 Z" fill="#000000" fill-rule="nonzero" fill-opacity="1" /><path clip-path="url(#clip780)" d="M2366.8 1454.1 Q2363.18 1454.1 2361.36 1457.66 Q2359.55 1461.2 2359.55 1468.33 Q2359.55 1475.44 2361.36 1479.01 Q2363.18 1482.55 2366.8 1482.55 Q2370.43 1482.55 2372.23 1479.01 Q2374.06 1475.44 2374.06 1468.33 Q2374.06 1461.2 2372.23 1457.66 Q2370.43 1454.1 2366.8 1454.1 M2366.8 1450.39 Q2372.61 1450.39 2375.66 1455 Q2378.74 1459.58 2378.74 1468.33 Q2378.74 1477.06 2375.66 1481.67 Q2372.61 1486.25 2366.8 1486.25 Q2360.99 1486.25 2357.91 1481.67 Q2354.85 1477.06 2354.85 1468.33 Q2354.85 1459.58 2357.91 1455 Q2360.99 1450.39 2366.8 1450.39 Z" fill="#000000" fill-rule="nonzero" fill-opacity="1" /><path clip-path="url(#clip780)" d="M1169.15 1522.27 L1169.15 1532.4 L1181.21 1532.4 L1181.21 1536.95 L1169.15 1536.95 L1169.15 1556.3 Q1169.15 1560.66 1170.33 1561.9 Q1171.53 1563.14 1175.19 1563.14 L1181.21 1563.14 L1181.21 1568.04 L1175.19 1568.04 Q1168.42 1568.04 1165.84 1565.53 Q1163.26 1562.98 1163.26 1556.3 L1163.26 1536.95 L1158.96 1536.95 L1158.96 1532.4 L1163.26 1532.4 L1163.26 1522.27 L1169.15 1522.27 Z" fill="#000000" fill-rule="nonzero" fill-opacity="1" /><path clip-path="url(#clip780)" d="M1188.91 1532.4 L1194.77 1532.4 L1194.77 1568.04 L1188.91 1568.04 L1188.91 1532.4 M1188.91 1518.52 L1194.77 1518.52 L1194.77 1525.93 L1188.91 1525.93 L1188.91 1518.52 Z" fill="#000000" fill-rule="nonzero" fill-opacity="1" /><path clip-path="url(#clip780)" d="M1234.78 1539.24 Q1236.97 1535.29 1240.03 1533.41 Q1243.09 1531.54 1247.22 1531.54 Q1252.79 1531.54 1255.82 1535.45 Q1258.84 1539.33 1258.84 1546.53 L1258.84 1568.04 L1252.95 1568.04 L1252.95 1546.72 Q1252.95 1541.59 1251.14 1539.11 Q1249.32 1536.63 1245.6 1536.63 Q1241.05 1536.63 1238.41 1539.65 Q1235.76 1542.68 1235.76 1547.9 L1235.76 1568.04 L1229.88 1568.04 L1229.88 1546.72 Q1229.88 1541.56 1228.06 1539.11 Q1226.25 1536.63 1222.46 1536.63 Q1217.97 1536.63 1215.33 1539.68 Q1212.69 1542.71 1212.69 1547.9 L1212.69 1568.04 L1206.8 1568.04 L1206.8 1532.4 L1212.69 1532.4 L1212.69 1537.93 Q1214.69 1534.66 1217.49 1533.1 Q1220.3 1531.54 1224.15 1531.54 Q1228.03 1531.54 1230.74 1533.51 Q1233.47 1535.48 1234.78 1539.24 Z" fill="#000000" fill-rule="nonzero" fill-opacity="1" /><path clip-path="url(#clip780)" d="M1301.01 1548.76 L1301.01 1551.62 L1274.09 1551.62 Q1274.47 1557.67 1277.71 1560.85 Q1280.99 1564 1286.82 1564 Q1290.19 1564 1293.34 1563.17 Q1296.53 1562.35 1299.64 1560.69 L1299.64 1566.23 Q1296.49 1567.57 1293.18 1568.27 Q1289.87 1568.97 1286.47 1568.97 Q1277.94 1568.97 1272.94 1564 Q1267.97 1559.04 1267.97 1550.57 Q1267.97 1541.82 1272.69 1536.69 Q1277.43 1531.54 1285.45 1531.54 Q1292.64 1531.54 1296.81 1536.18 Q1301.01 1540.8 1301.01 1548.76 M1295.16 1547.04 Q1295.09 1542.23 1292.45 1539.37 Q1289.84 1536.5 1285.51 1536.5 Q1280.61 1536.5 1277.65 1539.27 Q1274.72 1542.04 1274.28 1547.07 L1295.16 1547.04 Z" fill="#000000" fill-rule="nonzero" fill-opacity="1" /><path clip-path="url(#clip780)" d="M1345.41 1518.58 Q1341.15 1525.9 1339.08 1533.06 Q1337.01 1540.23 1337.01 1547.58 Q1337.01 1554.93 1339.08 1562.16 Q1341.18 1569.35 1345.41 1576.64 L1340.32 1576.64 Q1335.55 1569.16 1333.16 1561.93 Q1330.8 1554.71 1330.8 1547.58 Q1330.8 1540.48 1333.16 1533.29 Q1335.52 1526.09 1340.32 1518.58 L1345.41 1518.58 Z" fill="#000000" fill-rule="nonzero" fill-opacity="1" /><path clip-path="url(#clip780)" d="M1362.57 1522.27 L1362.57 1532.4 L1374.63 1532.4 L1374.63 1536.95 L1362.57 1536.95 L1362.57 1556.3 Q1362.57 1560.66 1363.75 1561.9 Q1364.96 1563.14 1368.62 1563.14 L1374.63 1563.14 L1374.63 1568.04 L1368.62 1568.04 Q1361.84 1568.04 1359.26 1565.53 Q1356.68 1562.98 1356.68 1556.3 L1356.68 1536.95 L1352.38 1536.95 L1352.38 1532.4 L1356.68 1532.4 L1356.68 1522.27 L1362.57 1522.27 Z" fill="#000000" fill-rule="nonzero" fill-opacity="1" /><path clip-path="url(#clip780)" d="M1381.41 1518.58 L1386.5 1518.58 Q1391.28 1526.09 1393.63 1533.29 Q1396.02 1540.48 1396.02 1547.58 Q1396.02 1554.71 1393.63 1561.93 Q1391.28 1569.16 1386.5 1576.64 L1381.41 1576.64 Q1385.65 1569.35 1387.71 1562.16 Q1389.81 1554.93 1389.81 1547.58 Q1389.81 1540.23 1387.71 1533.06 Q1385.65 1525.9 1381.41 1518.58 Z" fill="#000000" fill-rule="nonzero" fill-opacity="1" /><polyline clip-path="url(#clip780)" style="stroke:#000000; stroke-linecap:round; stroke-linejoin:round; stroke-width:4; stroke-opacity:1; fill:none" points="202.227,1423.18 202.227,47.2441 "/>
<polyline clip-path="url(#clip780)" style="stroke:#000000; stroke-linecap:round; stroke-linejoin:round; stroke-width:4; stroke-opacity:1; fill:none" points="202.227,1423.18 221.125,1423.18 "/>
<polyline clip-path="url(#clip780)" style="stroke:#000000; stroke-linecap:round; stroke-linejoin:round; stroke-width:4; stroke-opacity:1; fill:none" points="202.227,1147.99 221.125,1147.99 "/>
<polyline clip-path="url(#clip780)" style="stroke:#000000; stroke-linecap:round; stroke-linejoin:round; stroke-width:4; stroke-opacity:1; fill:none" points="202.227,872.806 221.125,872.806 "/>
<polyline clip-path="url(#clip780)" style="stroke:#000000; stroke-linecap:round; stroke-linejoin:round; stroke-width:4; stroke-opacity:1; fill:none" points="202.227,597.618 221.125,597.618 "/>
<polyline clip-path="url(#clip780)" style="stroke:#000000; stroke-linecap:round; stroke-linejoin:round; stroke-width:4; stroke-opacity:1; fill:none" points="202.227,322.431 221.125,322.431 "/>
<polyline clip-path="url(#clip780)" style="stroke:#000000; stroke-linecap:round; stroke-linejoin:round; stroke-width:4; stroke-opacity:1; fill:none" points="202.227,47.2441 221.125,47.2441 "/>
<path clip-path="url(#clip780)" d="M154.283 1408.98 Q150.672 1408.98 148.843 1412.54 Q147.038 1416.08 147.038 1423.21 Q147.038 1430.32 148.843 1433.89 Q150.672 1437.43 154.283 1437.43 Q157.917 1437.43 159.723 1433.89 Q161.552 1430.32 161.552 1423.21 Q161.552 1416.08 159.723 1412.54 Q157.917 1408.98 154.283 1408.98 M154.283 1405.27 Q160.093 1405.27 163.149 1409.88 Q166.227 1414.46 166.227 1423.21 Q166.227 1431.94 163.149 1436.55 Q160.093 1441.13 154.283 1441.13 Q148.473 1441.13 145.394 1436.55 Q142.339 1431.94 142.339 1423.21 Q142.339 1414.46 145.394 1409.88 Q148.473 1405.27 154.283 1405.27 Z" fill="#000000" fill-rule="nonzero" fill-opacity="1" /><path clip-path="url(#clip780)" d="M149.908 1161.34 L166.227 1161.34 L166.227 1165.27 L144.283 1165.27 L144.283 1161.34 Q146.945 1158.58 151.528 1153.95 Q156.135 1149.3 157.315 1147.96 Q159.561 1145.43 160.44 1143.7 Q161.343 1141.94 161.343 1140.25 Q161.343 1137.5 159.399 1135.76 Q157.478 1134.02 154.376 1134.02 Q152.177 1134.02 149.723 1134.79 Q147.292 1135.55 144.515 1137.1 L144.515 1132.38 Q147.339 1131.25 149.792 1130.67 Q152.246 1130.09 154.283 1130.09 Q159.653 1130.09 162.848 1132.77 Q166.042 1135.46 166.042 1139.95 Q166.042 1142.08 165.232 1144 Q164.445 1145.9 162.339 1148.49 Q161.76 1149.16 158.658 1152.38 Q155.556 1155.57 149.908 1161.34 Z" fill="#000000" fill-rule="nonzero" fill-opacity="1" /><path clip-path="url(#clip780)" d="M156.644 859.6 L144.839 878.049 L156.644 878.049 L156.644 859.6 M155.417 855.526 L161.297 855.526 L161.297 878.049 L166.227 878.049 L166.227 881.937 L161.297 881.937 L161.297 890.086 L156.644 890.086 L156.644 881.937 L141.042 881.937 L141.042 877.424 L155.417 855.526 Z" fill="#000000" fill-rule="nonzero" fill-opacity="1" /><path clip-path="url(#clip780)" d="M154.7 595.755 Q151.552 595.755 149.7 597.908 Q147.871 600.061 147.871 603.81 Q147.871 607.537 149.7 609.713 Q151.552 611.866 154.7 611.866 Q157.848 611.866 159.677 609.713 Q161.528 607.537 161.528 603.81 Q161.528 600.061 159.677 597.908 Q157.848 595.755 154.7 595.755 M163.982 581.102 L163.982 585.362 Q162.223 584.528 160.417 584.088 Q158.635 583.649 156.876 583.649 Q152.246 583.649 149.792 586.774 Q147.362 589.899 147.015 596.218 Q148.38 594.204 150.441 593.139 Q152.501 592.051 154.978 592.051 Q160.186 592.051 163.195 595.223 Q166.227 598.371 166.227 603.81 Q166.227 609.135 163.079 612.352 Q159.931 615.57 154.7 615.57 Q148.704 615.57 145.533 610.986 Q142.362 606.38 142.362 597.653 Q142.362 589.459 146.251 584.598 Q150.14 579.713 156.69 579.713 Q158.45 579.713 160.232 580.061 Q162.038 580.408 163.982 581.102 Z" fill="#000000" fill-rule="nonzero" fill-opacity="1" /><path clip-path="url(#clip780)" d="M154.376 323.299 Q151.042 323.299 149.121 325.082 Q147.223 326.864 147.223 329.989 Q147.223 333.114 149.121 334.896 Q151.042 336.679 154.376 336.679 Q157.709 336.679 159.63 334.896 Q161.552 333.091 161.552 329.989 Q161.552 326.864 159.63 325.082 Q157.732 323.299 154.376 323.299 M149.7 321.309 Q146.691 320.568 145.001 318.508 Q143.334 316.447 143.334 313.485 Q143.334 309.341 146.274 306.934 Q149.237 304.526 154.376 304.526 Q159.538 304.526 162.477 306.934 Q165.417 309.341 165.417 313.485 Q165.417 316.447 163.727 318.508 Q162.061 320.568 159.075 321.309 Q162.454 322.096 164.329 324.387 Q166.227 326.679 166.227 329.989 Q166.227 335.012 163.149 337.697 Q160.093 340.383 154.376 340.383 Q148.658 340.383 145.579 337.697 Q142.524 335.012 142.524 329.989 Q142.524 326.679 144.422 324.387 Q146.32 322.096 149.7 321.309 M147.987 313.924 Q147.987 316.61 149.653 318.114 Q151.343 319.619 154.376 319.619 Q157.385 319.619 159.075 318.114 Q160.788 316.61 160.788 313.924 Q160.788 311.239 159.075 309.735 Q157.385 308.23 154.376 308.23 Q151.343 308.23 149.653 309.735 Q147.987 311.239 147.987 313.924 Z" fill="#000000" fill-rule="nonzero" fill-opacity="1" /><path clip-path="url(#clip780)" d="M114.931 60.5889 L122.57 60.5889 L122.57 34.2233 L114.26 35.89 L114.26 31.6308 L122.524 29.9641 L127.2 29.9641 L127.2 60.5889 L134.839 60.5889 L134.839 64.5241 L114.931 64.5241 L114.931 60.5889 Z" fill="#000000" fill-rule="nonzero" fill-opacity="1" /><path clip-path="url(#clip780)" d="M154.283 33.0428 Q150.672 33.0428 148.843 36.6076 Q147.038 40.1492 147.038 47.2788 Q147.038 54.3853 148.843 57.9501 Q150.672 61.4917 154.283 61.4917 Q157.917 61.4917 159.723 57.9501 Q161.552 54.3853 161.552 47.2788 Q161.552 40.1492 159.723 36.6076 Q157.917 33.0428 154.283 33.0428 M154.283 29.3391 Q160.093 29.3391 163.149 33.9456 Q166.227 38.5289 166.227 47.2788 Q166.227 56.0056 163.149 60.6121 Q160.093 65.1954 154.283 65.1954 Q148.473 65.1954 145.394 60.6121 Q142.339 56.0056 142.339 47.2788 Q142.339 38.5289 145.394 33.9456 Q148.473 29.3391 154.283 29.3391 Z" fill="#000000" fill-rule="nonzero" fill-opacity="1" /><path clip-path="url(#clip780)" d="M33.7671 988.376 L14.479 988.376 L14.479 982.52 L64.0042 982.52 L64.0042 988.376 L58.657 988.376 Q61.8398 990.222 63.3994 993.055 Q64.9272 995.856 64.9272 999.803 Q64.9272 1006.26 59.771 1010.34 Q54.6147 1014.38 46.212 1014.38 Q37.8093 1014.38 32.6531 1010.34 Q27.4968 1006.26 27.4968 999.803 Q27.4968 995.856 29.0564 993.055 Q30.5842 990.222 33.7671 988.376 M46.212 1008.33 Q52.6732 1008.33 56.3653 1005.69 Q60.0256 1003.02 60.0256 998.37 Q60.0256 993.723 56.3653 991.05 Q52.6732 988.376 46.212 988.376 Q39.7508 988.376 36.0905 991.05 Q32.3984 993.723 32.3984 998.37 Q32.3984 1003.02 36.0905 1005.69 Q39.7508 1008.33 46.212 1008.33 Z" fill="#000000" fill-rule="nonzero" fill-opacity="1" /><path clip-path="url(#clip780)" d="M44.7161 939.965 L47.5806 939.965 L47.5806 966.892 Q53.6281 966.51 56.8109 963.263 Q59.9619 959.985 59.9619 954.16 Q59.9619 950.787 59.1344 947.636 Q58.3069 944.453 56.6518 941.334 L62.1899 941.334 Q63.5267 944.485 64.227 947.795 Q64.9272 951.105 64.9272 954.511 Q64.9272 963.041 59.9619 968.038 Q54.9967 973.003 46.5303 973.003 Q37.7774 973.003 32.6531 968.292 Q27.4968 963.55 27.4968 955.529 Q27.4968 948.336 32.1438 944.166 Q36.7589 939.965 44.7161 939.965 M42.9973 945.821 Q38.1912 945.885 35.3266 948.527 Q32.4621 951.137 32.4621 955.465 Q32.4621 960.367 35.2312 963.327 Q38.0002 966.255 43.0292 966.701 L42.9973 945.821 Z" fill="#000000" fill-rule="nonzero" fill-opacity="1" /><path clip-path="url(#clip780)" d="M58.657 924.687 L77.5631 924.687 L77.5631 930.576 L28.3562 930.576 L28.3562 924.687 L33.7671 924.687 Q30.5842 922.841 29.0564 920.04 Q27.4968 917.208 27.4968 913.293 Q27.4968 906.8 32.6531 902.757 Q37.8093 898.683 46.212 898.683 Q54.6147 898.683 59.771 902.757 Q64.9272 906.8 64.9272 913.293 Q64.9272 917.208 63.3994 920.04 Q61.8398 922.841 58.657 924.687 M46.212 904.763 Q39.7508 904.763 36.0905 907.436 Q32.3984 910.078 32.3984 914.725 Q32.3984 919.372 36.0905 922.045 Q39.7508 924.687 46.212 924.687 Q52.6732 924.687 56.3653 922.045 Q60.0256 919.372 60.0256 914.725 Q60.0256 910.078 56.3653 907.436 Q52.6732 904.763 46.212 904.763 Z" fill="#000000" fill-rule="nonzero" fill-opacity="1" /><path clip-path="url(#clip780)" d="M32.4621 875.162 Q32.4621 879.873 36.1542 882.61 Q39.8145 885.347 46.212 885.347 Q52.6095 885.347 56.3017 882.642 Q59.9619 879.904 59.9619 875.162 Q59.9619 870.483 56.2698 867.746 Q52.5777 865.009 46.212 865.009 Q39.8781 865.009 36.186 867.746 Q32.4621 870.483 32.4621 875.162 M27.4968 875.162 Q27.4968 867.523 32.4621 863.163 Q37.4273 858.802 46.212 858.802 Q54.9649 858.802 59.9619 863.163 Q64.9272 867.523 64.9272 875.162 Q64.9272 882.833 59.9619 887.193 Q54.9649 891.522 46.212 891.522 Q37.4273 891.522 32.4621 887.193 Q27.4968 882.833 27.4968 875.162 Z" fill="#000000" fill-rule="nonzero" fill-opacity="1" /><path clip-path="url(#clip780)" d="M29.4065 826.369 L34.9447 826.369 Q33.6716 828.852 33.035 831.525 Q32.3984 834.199 32.3984 837.063 Q32.3984 841.424 33.7352 843.62 Q35.072 845.784 37.7456 845.784 Q39.7826 845.784 40.9603 844.225 Q42.1061 842.665 43.1565 837.954 L43.6021 835.949 Q44.9389 829.711 47.3897 827.101 Q49.8086 824.459 54.1691 824.459 Q59.1344 824.459 62.0308 828.406 Q64.9272 832.321 64.9272 839.196 Q64.9272 842.06 64.3543 845.18 Q63.8132 848.267 62.6992 851.704 L56.6518 851.704 Q58.3387 848.458 59.198 845.307 Q60.0256 842.156 60.0256 839.068 Q60.0256 834.931 58.6251 832.703 Q57.1929 830.475 54.6147 830.475 Q52.2276 830.475 50.9545 832.098 Q49.6813 833.689 48.5037 839.132 L48.0262 841.169 Q46.8804 846.612 44.5251 849.031 Q42.138 851.45 38.0002 851.45 Q32.9713 851.45 30.2341 847.885 Q27.4968 844.32 27.4968 837.764 Q27.4968 834.517 27.9743 831.652 Q28.4517 828.788 29.4065 826.369 Z" fill="#000000" fill-rule="nonzero" fill-opacity="1" /><path clip-path="url(#clip780)" d="M28.3562 815.133 L28.3562 809.277 L64.0042 809.277 L64.0042 815.133 L28.3562 815.133 M14.479 815.133 L14.479 809.277 L21.895 809.277 L21.895 815.133 L14.479 815.133 Z" fill="#000000" fill-rule="nonzero" fill-opacity="1" /><path clip-path="url(#clip780)" d="M18.2347 791.23 L28.3562 791.23 L28.3562 779.167 L32.9077 779.167 L32.9077 791.23 L52.2594 791.23 Q56.6199 791.23 57.8613 790.053 Q59.1026 788.843 59.1026 785.183 L59.1026 779.167 L64.0042 779.167 L64.0042 785.183 Q64.0042 791.962 61.4897 794.54 Q58.9434 797.118 52.2594 797.118 L32.9077 797.118 L32.9077 801.415 L28.3562 801.415 L28.3562 797.118 L18.2347 797.118 L18.2347 791.23 Z" fill="#000000" fill-rule="nonzero" fill-opacity="1" /><path clip-path="url(#clip780)" d="M35.1993 722.99 Q31.2526 720.794 29.3747 717.738 Q27.4968 714.683 27.4968 710.545 Q27.4968 704.975 31.4117 701.951 Q35.2948 698.927 42.4881 698.927 L64.0042 698.927 L64.0042 704.816 L42.679 704.816 Q37.5546 704.816 35.072 706.63 Q32.5894 708.444 32.5894 712.168 Q32.5894 716.72 35.6131 719.361 Q38.6368 722.003 43.8567 722.003 L64.0042 722.003 L64.0042 727.891 L42.679 727.891 Q37.5228 727.891 35.072 729.706 Q32.5894 731.52 32.5894 735.307 Q32.5894 739.795 35.6449 742.437 Q38.6686 745.079 43.8567 745.079 L64.0042 745.079 L64.0042 750.967 L28.3562 750.967 L28.3562 745.079 L33.8944 745.079 Q30.616 743.074 29.0564 740.273 Q27.4968 737.472 27.4968 733.621 Q27.4968 729.737 29.4702 727.032 Q31.4436 724.295 35.1993 722.99 Z" fill="#000000" fill-rule="nonzero" fill-opacity="1" /><path clip-path="url(#clip780)" d="M46.0847 671.046 Q46.0847 678.143 47.7079 680.881 Q49.3312 683.618 53.2461 683.618 Q56.3653 683.618 58.2114 681.581 Q60.0256 679.512 60.0256 675.979 Q60.0256 671.109 56.5881 668.181 Q53.1188 665.221 47.3897 665.221 L46.0847 665.221 L46.0847 671.046 M43.6657 659.365 L64.0042 659.365 L64.0042 665.221 L58.5933 665.221 Q61.8398 667.226 63.3994 670.218 Q64.9272 673.21 64.9272 677.539 Q64.9272 683.013 61.8716 686.26 Q58.7843 689.474 53.6281 689.474 Q47.6125 689.474 44.5569 685.464 Q41.5014 681.422 41.5014 673.433 L41.5014 665.221 L40.9285 665.221 Q36.8862 665.221 34.6901 667.895 Q32.4621 670.536 32.4621 675.342 Q32.4621 678.398 33.1941 681.294 Q33.9262 684.191 35.3903 686.864 L29.9795 686.864 Q28.7381 683.65 28.1334 680.626 Q27.4968 677.602 27.4968 674.738 Q27.4968 667.003 31.5072 663.184 Q35.5176 659.365 43.6657 659.365 Z" fill="#000000" fill-rule="nonzero" fill-opacity="1" /><path clip-path="url(#clip780)" d="M29.4065 624.576 L34.9447 624.576 Q33.6716 627.059 33.035 629.732 Q32.3984 632.406 32.3984 635.27 Q32.3984 639.631 33.7352 641.827 Q35.072 643.991 37.7456 643.991 Q39.7826 643.991 40.9603 642.432 Q42.1061 640.872 43.1565 636.162 L43.6021 634.156 Q44.9389 627.918 47.3897 625.308 Q49.8086 622.666 54.1691 622.666 Q59.1344 622.666 62.0308 626.613 Q64.9272 630.528 64.9272 637.403 Q64.9272 640.267 64.3543 643.387 Q63.8132 646.474 62.6992 649.911 L56.6518 649.911 Q58.3387 646.665 59.198 643.514 Q60.0256 640.363 60.0256 637.276 Q60.0256 633.138 58.6251 630.91 Q57.1929 628.682 54.6147 628.682 Q52.2276 628.682 50.9545 630.305 Q49.6813 631.897 48.5037 637.339 L48.0262 639.376 Q46.8804 644.819 44.5251 647.238 Q42.138 649.657 38.0002 649.657 Q32.9713 649.657 30.2341 646.092 Q27.4968 642.527 27.4968 635.971 Q27.4968 632.724 27.9743 629.86 Q28.4517 626.995 29.4065 624.576 Z" fill="#000000" fill-rule="nonzero" fill-opacity="1" /><path clip-path="url(#clip780)" d="M29.4065 590.615 L34.9447 590.615 Q33.6716 593.098 33.035 595.771 Q32.3984 598.445 32.3984 601.309 Q32.3984 605.67 33.7352 607.866 Q35.072 610.03 37.7456 610.03 Q39.7826 610.03 40.9603 608.471 Q42.1061 606.911 43.1565 602.201 L43.6021 600.195 Q44.9389 593.957 47.3897 591.347 Q49.8086 588.705 54.1691 588.705 Q59.1344 588.705 62.0308 592.652 Q64.9272 596.567 64.9272 603.442 Q64.9272 606.306 64.3543 609.426 Q63.8132 612.513 62.6992 615.95 L56.6518 615.95 Q58.3387 612.704 59.198 609.553 Q60.0256 606.402 60.0256 603.315 Q60.0256 599.177 58.6251 596.949 Q57.1929 594.721 54.6147 594.721 Q52.2276 594.721 50.9545 596.344 Q49.6813 597.936 48.5037 603.378 L48.0262 605.415 Q46.8804 610.858 44.5251 613.277 Q42.138 615.696 38.0002 615.696 Q32.9713 615.696 30.2341 612.131 Q27.4968 608.566 27.4968 602.01 Q27.4968 598.763 27.9743 595.898 Q28.4517 593.034 29.4065 590.615 Z" fill="#000000" fill-rule="nonzero" fill-opacity="1" /><path clip-path="url(#clip780)" d="M14.5426 544.591 Q21.8632 548.856 29.0246 550.925 Q36.186 552.994 43.5384 552.994 Q50.8908 552.994 58.1159 550.925 Q65.3091 548.824 72.5979 544.591 L72.5979 549.683 Q65.1182 554.458 57.8931 556.845 Q50.668 559.2 43.5384 559.2 Q36.4406 559.2 29.2474 556.845 Q22.0542 554.49 14.5426 549.683 L14.5426 544.591 Z" fill="#000000" fill-rule="nonzero" fill-opacity="1" /><path clip-path="url(#clip780)" d="M35.1993 505.474 Q31.2526 503.277 29.3747 500.222 Q27.4968 497.166 27.4968 493.029 Q27.4968 487.459 31.4117 484.435 Q35.2948 481.411 42.4881 481.411 L64.0042 481.411 L64.0042 487.3 L42.679 487.3 Q37.5546 487.3 35.072 489.114 Q32.5894 490.928 32.5894 494.652 Q32.5894 499.203 35.6131 501.845 Q38.6368 504.487 43.8567 504.487 L64.0042 504.487 L64.0042 510.375 L42.679 510.375 Q37.5228 510.375 35.072 512.189 Q32.5894 514.004 32.5894 517.791 Q32.5894 522.279 35.6449 524.921 Q38.6686 527.563 43.8567 527.563 L64.0042 527.563 L64.0042 533.451 L28.3562 533.451 L28.3562 527.563 L33.8944 527.563 Q30.616 525.557 29.0564 522.757 Q27.4968 519.956 27.4968 516.104 Q27.4968 512.221 29.4702 509.516 Q31.4436 506.779 35.1993 505.474 Z" fill="#000000" fill-rule="nonzero" fill-opacity="1" /><path clip-path="url(#clip780)" d="M14.5426 470.653 L14.5426 465.561 Q22.0542 460.786 29.2474 458.431 Q36.4406 456.044 43.5384 456.044 Q50.668 456.044 57.8931 458.431 Q65.1182 460.786 72.5979 465.561 L72.5979 470.653 Q65.3091 466.42 58.1159 464.351 Q50.8908 462.25 43.5384 462.25 Q36.186 462.25 29.0246 464.351 Q21.8632 466.42 14.5426 470.653 Z" fill="#000000" fill-rule="nonzero" fill-opacity="1" /><path clip-path="url(#clip782)" d="M202.227 1168.68 L213.755 1168.68 L225.283 1168.68 L236.811 1168.68 L248.339 1168.68 L259.867 1168.68 L271.395 1168.68 L282.923 1168.68 L294.451 1168.68 L305.979 1168.68 L317.507 1168.68 L329.035 1168.68 L340.563 1168.68 L352.091 1168.68 L363.619 1168.68 L375.147 1168.68 L386.675 1168.68 L398.203 1168.68 L409.731 1168.68 L421.259 1168.68 L432.787 1168.68 L444.315 1168.68 L455.843 1168.68 L467.371 1168.68 L478.899 1168.68 L490.427 1168.68 L501.955 1168.68 L513.483 1168.68 L525.011 1168.68 L536.539 1168.68 L548.067 1168.68 L559.595 1168.68 L571.123 1168.68 L582.651 1168.68 L594.179 1168.68 L605.707 1168.68 L617.235 1168.68 L628.763 1168.68 L640.291 1168.68 L651.819 1168.68 L663.347 1168.68 L674.875 1168.68 L686.403 1168.68 L697.931 1168.68 L709.459 1168.68 L720.987 1168.68 L732.515 1168.68 L744.043 1168.68 L755.571 1168.68 L767.099 1168.68 L778.627 1168.68 L790.155 1168.68 L801.683 1168.68 L813.211 1168.68 L824.739 1168.68 L836.267 1168.68 L847.795 1168.68 L859.323 1168.68 L870.851 1168.68 L882.379 1168.68 L893.906 1168.68 L905.434 1168.68 L916.962 1168.68 L928.49 1168.68 L940.018 1168.68 L951.546 1168.68 L963.074 1168.68 L974.602 1168.68 L986.13 1168.68 L997.658 1168.68 L1009.19 1168.68 L1020.71 1168.68 L1032.24 1168.68 L1043.77 1168.68 L1055.3 1168.68 L1066.83 1168.68 L1078.35 1168.68 L1089.88 1168.68 L1101.41 1168.68 L1112.94 1168.68 L1124.47 1168.68 L1135.99 1168.68 L1147.52 1168.68 L1159.05 1168.68 L1170.58 1168.68 L1182.11 1168.68 L1193.63 1168.68 L1205.16 1168.68 L1216.69 1168.68 L1228.22 1168.68 L1239.75 1168.68 L1251.27 1168.68 L1262.8 1168.68 L1274.33 1168.68 L1285.86 1168.68 L1297.39 1168.68 L1308.91 1168.68 L1320.44 1168.68 L1331.97 1168.68 L1343.5 1168.68 L1343.5 1168.68 L1331.97 1154.66 L1320.44 1139.87 L1308.91 1124.27 L1297.39 1107.81 L1285.86 1090.45 L1274.33 1072.12 L1262.8 1052.79 L1251.27 1032.39 L1239.75 1010.87 L1228.22 988.17 L1216.69 964.215 L1205.16 938.94 L1193.63 912.274 L1182.11 884.139 L1170.58 854.455 L1159.05 823.137 L1147.52 790.094 L1135.99 755.231 L1124.47 718.448 L1112.94 679.64 L1101.41 638.694 L1089.88 595.493 L1078.35 549.914 L1066.83 501.827 L1055.3 451.091 L1043.77 397.561 L1032.24 341.082 L1020.71 281.491 L1009.19 218.619 L997.658 152.285 L986.13 82.298 L974.602 8.45839 L963.074 -69.4449 L951.546 -151.636 L940.018 -238.354 L928.49 -329.849 L916.962 -426.386 L905.434 -528.242 L893.906 -635.709 L882.379 -749.09 L870.851 -868.717 L859.323 -994.93 L847.795 -1128.09 L836.267 -1268.57 L824.739 -1416.79 L813.211 -1573.16 L801.683 -1738.16 L790.155 -1912.25 L778.627 -2095.93 L767.099 -2289.74 L755.571 -2494.22 L744.043 -2709.95 L732.515 -2937.56 L720.987 -3177.7 L709.459 -3431.05 L697.931 -3698.34 L686.403 -3980.33 L674.875 -4277.85 L663.347 -4591.77 L651.819 -4922.99 L640.291 -5272.47 L628.763 -5641.23 L617.235 -6030.3 L605.707 -6440.79 L594.179 -6873.86 L582.651 -7330.79 L571.123 -7812.86 L559.595 -8321.44 L548.067 -8857.98 L536.539 -9424.03 L525.011 -10021.3 L513.483 -10651.4 L501.955 -11316.2 L490.427 -12017.8 L478.899 -12758 L467.371 -13539.1 L455.843 -14363.1 L444.315 -15232.6 L432.787 -16149.8 L421.259 -17117.6 L409.731 -18138.6 L398.203 -19215.8 L386.675 -20352.1 L375.147 -21551 L363.619 -22815.8 L352.091 -24150.2 L340.563 -25558.3 L329.035 -27044 L317.507 -28611.7 L305.979 -30265.9 L294.451 -32011.3 L282.923 -33852.9 L271.395 -35795.8 L259.867 -37845.5 L248.339 -40007.9 L236.811 -42289.4 L225.283 -44696.6 L213.755 -47236.3 L202.227 -49915.9  Z" fill="#0000ff" fill-rule="evenodd" fill-opacity="0.35"/>
<polyline clip-path="url(#clip782)" style="stroke:#000000; stroke-linecap:round; stroke-linejoin:round; stroke-width:4; stroke-opacity:0; fill:none" points="202.227,1168.68 213.755,1168.68 225.283,1168.68 236.811,1168.68 248.339,1168.68 259.867,1168.68 271.395,1168.68 282.923,1168.68 294.451,1168.68 305.979,1168.68 317.507,1168.68 329.035,1168.68 340.563,1168.68 352.091,1168.68 363.619,1168.68 375.147,1168.68 386.675,1168.68 398.203,1168.68 409.731,1168.68 421.259,1168.68 432.787,1168.68 444.315,1168.68 455.843,1168.68 467.371,1168.68 478.899,1168.68 490.427,1168.68 501.955,1168.68 513.483,1168.68 525.011,1168.68 536.539,1168.68 548.067,1168.68 559.595,1168.68 571.123,1168.68 582.651,1168.68 594.179,1168.68 605.707,1168.68 617.235,1168.68 628.763,1168.68 640.291,1168.68 651.819,1168.68 663.347,1168.68 674.875,1168.68 686.403,1168.68 697.931,1168.68 709.459,1168.68 720.987,1168.68 732.515,1168.68 744.043,1168.68 755.571,1168.68 767.099,1168.68 778.627,1168.68 790.155,1168.68 801.683,1168.68 813.211,1168.68 824.739,1168.68 836.267,1168.68 847.795,1168.68 859.323,1168.68 870.851,1168.68 882.379,1168.68 893.906,1168.68 905.434,1168.68 916.962,1168.68 928.49,1168.68 940.018,1168.68 951.546,1168.68 963.074,1168.68 974.602,1168.68 986.13,1168.68 997.658,1168.68 1009.19,1168.68 1020.71,1168.68 1032.24,1168.68 1043.77,1168.68 1055.3,1168.68 1066.83,1168.68 1078.35,1168.68 1089.88,1168.68 1101.41,1168.68 1112.94,1168.68 1124.47,1168.68 1135.99,1168.68 1147.52,1168.68 1159.05,1168.68 1170.58,1168.68 1182.11,1168.68 1193.63,1168.68 1205.16,1168.68 1216.69,1168.68 1228.22,1168.68 1239.75,1168.68 1251.27,1168.68 1262.8,1168.68 1274.33,1168.68 1285.86,1168.68 1297.39,1168.68 1308.91,1168.68 1320.44,1168.68 1331.97,1168.68 1343.5,1168.68 "/>
<path clip-path="url(#clip782)" d="M202.227 1168.68 L213.755 1168.68 L225.283 1168.68 L236.811 1168.68 L248.339 1168.68 L259.867 1168.68 L271.395 1168.68 L282.923 1168.68 L294.451 1168.68 L305.979 1168.68 L317.507 1168.68 L329.035 1168.68 L340.563 1168.68 L352.091 1168.68 L363.619 1168.68 L375.147 1168.68 L386.675 1168.68 L398.203 1168.68 L409.731 1168.68 L421.259 1168.68 L432.787 1168.68 L444.315 1168.68 L455.843 1168.68 L467.371 1168.68 L478.899 1168.68 L490.427 1168.68 L501.955 1168.68 L513.483 1168.68 L525.011 1168.68 L536.539 1168.68 L548.067 1168.68 L559.595 1168.68 L571.123 1168.68 L582.651 1168.68 L594.179 1168.68 L605.707 1168.68 L617.235 1168.68 L628.763 1168.68 L640.291 1168.68 L651.819 1168.68 L663.347 1168.68 L674.875 1168.68 L686.403 1168.68 L697.931 1168.68 L709.459 1168.68 L720.987 1168.68 L732.515 1168.68 L744.043 1168.68 L755.571 1168.68 L767.099 1168.68 L778.627 1168.68 L790.155 1168.68 L801.683 1168.68 L813.211 1168.68 L824.739 1168.68 L836.267 1168.68 L847.795 1168.68 L859.323 1168.68 L870.851 1168.68 L882.379 1168.68 L893.906 1168.68 L905.434 1168.68 L916.962 1168.68 L928.49 1168.68 L940.018 1168.68 L951.546 1168.68 L963.074 1168.68 L974.602 1168.68 L986.13 1168.68 L997.658 1168.68 L1009.19 1168.68 L1020.71 1168.68 L1032.24 1168.68 L1043.77 1168.68 L1055.3 1168.68 L1066.83 1168.68 L1078.35 1168.68 L1089.88 1168.68 L1101.41 1168.68 L1112.94 1168.68 L1124.47 1168.68 L1135.99 1168.68 L1147.52 1168.68 L1159.05 1168.68 L1170.58 1168.68 L1182.11 1168.68 L1193.63 1168.68 L1205.16 1168.68 L1216.69 1168.68 L1228.22 1168.68 L1239.75 1168.68 L1251.27 1168.68 L1262.8 1168.68 L1274.33 1168.68 L1285.86 1168.68 L1297.39 1168.68 L1308.91 1168.68 L1320.44 1168.68 L1331.97 1168.68 L1343.5 1168.68 L1343.5 1168.68 L1331.97 1171.27 L1320.44 1173.89 L1308.91 1176.52 L1297.39 1179.17 L1285.86 1181.84 L1274.33 1184.53 L1262.8 1187.23 L1251.27 1189.96 L1239.75 1192.71 L1228.22 1195.47 L1216.69 1198.26 L1205.16 1201.07 L1193.63 1203.91 L1182.11 1206.76 L1170.58 1209.64 L1159.05 1212.54 L1147.52 1215.47 L1135.99 1218.42 L1124.47 1221.4 L1112.94 1224.4 L1101.41 1227.43 L1089.88 1230.49 L1078.35 1233.58 L1066.83 1236.7 L1055.3 1239.84 L1043.77 1243.02 L1032.24 1246.23 L1020.71 1249.47 L1009.19 1252.75 L997.658 1256.06 L986.13 1259.41 L974.602 1262.8 L963.074 1266.22 L951.546 1269.69 L940.018 1273.19 L928.49 1276.74 L916.962 1280.34 L905.434 1283.98 L893.906 1287.67 L882.379 1291.42 L870.851 1295.21 L859.323 1299.06 L847.795 1302.97 L836.267 1306.94 L824.739 1310.99 L813.211 1315.1 L801.683 1319.28 L790.155 1323.53 L778.627 1327.85 L767.099 1332.24 L755.571 1336.72 L744.043 1341.28 L732.515 1345.93 L720.987 1350.69 L709.459 1355.55 L697.931 1360.53 L686.403 1365.65 L674.875 1370.91 L663.347 1376.32 L651.819 1381.92 L640.291 1387.7 L628.763 1393.69 L617.235 1399.9 L605.707 1406.36 L594.179 1413.09 L582.651 1420.17 L571.123 1427.61 L559.595 1435.44 L548.067 1443.75 L536.539 1452.7 L525.011 1462.53 L513.483 1473.53 L501.955 1486.11 L490.427 1501.22 L478.899 1522.05 L467.371 1567.28 L455.843 1564.42 L444.315 1559.3 L432.787 1561.84 L421.259 1557.53 L409.731 1557.9 L398.203 1557.04 L386.675 1564.05 L375.147 1559.49 L363.619 1556.31 L352.091 1565.42 L340.563 1561.86 L329.035 1562.14 L317.507 1561.06 L305.979 1560.19 L294.451 1565.9 L282.923 1565.26 L271.395 1563.43 L259.867 1555.85 L248.339 1567.55 L236.811 1567.42 L225.283 1558.38 L213.755 1562.01 L202.227 1561.69  Z" fill="#a52a2a" fill-rule="evenodd" fill-opacity="0.35"/>
<polyline clip-path="url(#clip782)" style="stroke:#000000; stroke-linecap:round; stroke-linejoin:round; stroke-width:4; stroke-opacity:0; fill:none" points="202.227,1168.68 213.755,1168.68 225.283,1168.68 236.811,1168.68 248.339,1168.68 259.867,1168.68 271.395,1168.68 282.923,1168.68 294.451,1168.68 305.979,1168.68 317.507,1168.68 329.035,1168.68 340.563,1168.68 352.091,1168.68 363.619,1168.68 375.147,1168.68 386.675,1168.68 398.203,1168.68 409.731,1168.68 421.259,1168.68 432.787,1168.68 444.315,1168.68 455.843,1168.68 467.371,1168.68 478.899,1168.68 490.427,1168.68 501.955,1168.68 513.483,1168.68 525.011,1168.68 536.539,1168.68 548.067,1168.68 559.595,1168.68 571.123,1168.68 582.651,1168.68 594.179,1168.68 605.707,1168.68 617.235,1168.68 628.763,1168.68 640.291,1168.68 651.819,1168.68 663.347,1168.68 674.875,1168.68 686.403,1168.68 697.931,1168.68 709.459,1168.68 720.987,1168.68 732.515,1168.68 744.043,1168.68 755.571,1168.68 767.099,1168.68 778.627,1168.68 790.155,1168.68 801.683,1168.68 813.211,1168.68 824.739,1168.68 836.267,1168.68 847.795,1168.68 859.323,1168.68 870.851,1168.68 882.379,1168.68 893.906,1168.68 905.434,1168.68 916.962,1168.68 928.49,1168.68 940.018,1168.68 951.546,1168.68 963.074,1168.68 974.602,1168.68 986.13,1168.68 997.658,1168.68 1009.19,1168.68 1020.71,1168.68 1032.24,1168.68 1043.77,1168.68 1055.3,1168.68 1066.83,1168.68 1078.35,1168.68 1089.88,1168.68 1101.41,1168.68 1112.94,1168.68 1124.47,1168.68 1135.99,1168.68 1147.52,1168.68 1159.05,1168.68 1170.58,1168.68 1182.11,1168.68 1193.63,1168.68 1205.16,1168.68 1216.69,1168.68 1228.22,1168.68 1239.75,1168.68 1251.27,1168.68 1262.8,1168.68 1274.33,1168.68 1285.86,1168.68 1297.39,1168.68 1308.91,1168.68 1320.44,1168.68 1331.97,1168.68 1343.5,1168.68 "/>
<path clip-path="url(#clip782)" d="M202.227 -49915.9 L213.755 -47236.3 L225.283 -44696.6 L236.811 -42289.4 L248.339 -40007.9 L259.867 -37845.5 L271.395 -35795.8 L282.923 -33852.9 L294.451 -32011.3 L305.979 -30265.9 L317.507 -28611.7 L329.035 -27044 L340.563 -25558.3 L352.091 -24150.2 L363.619 -22815.8 L375.147 -21551 L386.675 -20352.1 L398.203 -19215.8 L409.731 -18138.6 L421.259 -17117.6 L432.787 -16149.8 L444.315 -15232.6 L455.843 -14363.1 L467.371 -13539.1 L478.899 -12758 L490.427 -12017.8 L501.955 -11316.2 L513.483 -10651.4 L525.011 -10021.3 L536.539 -9424.03 L548.067 -8857.98 L559.595 -8321.44 L571.123 -7812.86 L582.651 -7330.79 L594.179 -6873.86 L605.707 -6440.79 L617.235 -6030.3 L628.763 -5641.23 L640.291 -5272.47 L651.819 -4922.99 L663.347 -4591.77 L674.875 -4277.85 L686.403 -3980.33 L697.931 -3698.34 L709.459 -3431.05 L720.987 -3177.7 L732.515 -2937.56 L744.043 -2709.95 L755.571 -2494.22 L767.099 -2289.74 L778.627 -2095.93 L790.155 -1912.25 L801.683 -1738.16 L813.211 -1573.16 L824.739 -1416.79 L836.267 -1268.57 L847.795 -1128.09 L859.323 -994.93 L870.851 -868.717 L882.379 -749.09 L893.906 -635.709 L905.434 -528.242 L916.962 -426.386 L928.49 -329.849 L940.018 -238.354 L951.546 -151.636 L963.074 -69.4449 L974.602 8.45839 L986.13 82.298 L997.658 152.285 L1009.19 218.619 L1020.71 281.491 L1032.24 341.082 L1043.77 397.561 L1055.3 451.091 L1066.83 501.827 L1078.35 549.914 L1089.88 595.493 L1101.41 638.694 L1112.94 679.64 L1124.47 718.448 L1135.99 755.231 L1147.52 790.094 L1159.05 823.137 L1170.58 854.455 L1182.11 884.139 L1193.63 912.274 L1205.16 938.94 L1216.69 964.215 L1228.22 988.17 L1239.75 1010.87 L1251.27 1032.39 L1262.8 1052.79 L1274.33 1072.12 L1285.86 1090.45 L1297.39 1107.81 L1308.91 1124.27 L1320.44 1139.87 L1331.97 1154.66 L1343.5 1168.68 L1343.5 47.2441 L1331.97 47.2441 L1320.44 47.2441 L1308.91 47.2441 L1297.39 47.2441 L1285.86 47.2441 L1274.33 47.2441 L1262.8 47.2441 L1251.27 47.2441 L1239.75 47.2441 L1228.22 47.2441 L1216.69 47.2441 L1205.16 47.2441 L1193.63 47.2441 L1182.11 47.2441 L1170.58 47.2441 L1159.05 47.2441 L1147.52 47.2441 L1135.99 47.2441 L1124.47 47.2441 L1112.94 47.2441 L1101.41 47.2441 L1089.88 47.2441 L1078.35 47.2441 L1066.83 47.2441 L1055.3 47.2441 L1043.77 47.2441 L1032.24 47.2441 L1020.71 47.2441 L1009.19 47.2441 L997.658 47.2441 L986.13 47.2441 L974.602 47.2441 L963.074 47.2441 L951.546 47.2441 L940.018 47.2441 L928.49 47.2441 L916.962 47.2441 L905.434 47.2441 L893.906 47.2441 L882.379 47.2441 L870.851 47.2441 L859.323 47.2441 L847.795 47.2441 L836.267 47.2441 L824.739 47.2441 L813.211 47.2441 L801.683 47.2441 L790.155 47.2441 L778.627 47.2441 L767.099 47.2441 L755.571 47.2441 L744.043 47.2441 L732.515 47.2441 L720.987 47.2441 L709.459 47.2441 L697.931 47.2441 L686.403 47.2441 L674.875 47.2441 L663.347 47.2441 L651.819 47.2441 L640.291 47.2441 L628.763 47.2441 L617.235 47.2441 L605.707 47.2441 L594.179 47.2441 L582.651 47.2441 L571.123 47.2441 L559.595 47.2441 L548.067 47.2441 L536.539 47.2441 L525.011 47.2441 L513.483 47.2441 L501.955 47.2441 L490.427 47.2441 L478.899 47.2441 L467.371 47.2441 L455.843 47.2441 L444.315 47.2441 L432.787 47.2441 L421.259 47.2441 L409.731 47.2441 L398.203 47.2441 L386.675 47.2441 L375.147 47.2441 L363.619 47.2441 L352.091 47.2441 L340.563 47.2441 L329.035 47.2441 L317.507 47.2441 L305.979 47.2441 L294.451 47.2441 L282.923 47.2441 L271.395 47.2441 L259.867 47.2441 L248.339 47.2441 L236.811 47.2441 L225.283 47.2441 L213.755 47.2441 L202.227 47.2441  Z" fill="#9acd32" fill-rule="evenodd" fill-opacity="0.35"/>
<polyline clip-path="url(#clip782)" style="stroke:#000000; stroke-linecap:round; stroke-linejoin:round; stroke-width:4; stroke-opacity:0; fill:none" points="202.227,-49915.9 213.755,-47236.3 225.283,-44696.6 236.811,-42289.4 248.339,-40007.9 259.867,-37845.5 271.395,-35795.8 282.923,-33852.9 294.451,-32011.3 305.979,-30265.9 317.507,-28611.7 329.035,-27044 340.563,-25558.3 352.091,-24150.2 363.619,-22815.8 375.147,-21551 386.675,-20352.1 398.203,-19215.8 409.731,-18138.6 421.259,-17117.6 432.787,-16149.8 444.315,-15232.6 455.843,-14363.1 467.371,-13539.1 478.899,-12758 490.427,-12017.8 501.955,-11316.2 513.483,-10651.4 525.011,-10021.3 536.539,-9424.03 548.067,-8857.98 559.595,-8321.44 571.123,-7812.86 582.651,-7330.79 594.179,-6873.86 605.707,-6440.79 617.235,-6030.3 628.763,-5641.23 640.291,-5272.47 651.819,-4922.99 663.347,-4591.77 674.875,-4277.85 686.403,-3980.33 697.931,-3698.34 709.459,-3431.05 720.987,-3177.7 732.515,-2937.56 744.043,-2709.95 755.571,-2494.22 767.099,-2289.74 778.627,-2095.93 790.155,-1912.25 801.683,-1738.16 813.211,-1573.16 824.739,-1416.79 836.267,-1268.57 847.795,-1128.09 859.323,-994.93 870.851,-868.717 882.379,-749.09 893.906,-635.709 905.434,-528.242 916.962,-426.386 928.49,-329.849 940.018,-238.354 951.546,-151.636 963.074,-69.4449 974.602,8.45839 986.13,82.298 997.658,152.285 1009.19,218.619 1020.71,281.491 1032.24,341.082 1043.77,397.561 1055.3,451.091 1066.83,501.827 1078.35,549.914 1089.88,595.493 1101.41,638.694 1112.94,679.64 1124.47,718.448 1135.99,755.231 1147.52,790.094 1159.05,823.137 1170.58,854.455 1182.11,884.139 1193.63,912.274 1205.16,938.94 1216.69,964.215 1228.22,988.17 1239.75,1010.87 1251.27,1032.39 1262.8,1052.79 1274.33,1072.12 1285.86,1090.45 1297.39,1107.81 1308.91,1124.27 1320.44,1139.87 1331.97,1154.66 1343.5,1168.68 "/>
<path clip-path="url(#clip782)" d="M1343.5 1168.68 L1390.17 1157.35 L1430.3 1146.02 L1465.15 1134.69 L1495.66 1123.37 L1522.58 1112.04 L1546.48 1100.71 L1567.84 1089.38 L1587.03 1078.06 L1604.37 1066.73 L1620.09 1055.4 L1634.4 1044.07 L1647.49 1032.74 L1659.51 1021.42 L1670.57 1010.09 L1680.78 998.762 L1690.23 987.435 L1699.01 976.107 L1707.18 964.779 L1714.8 953.452 L1721.92 942.124 L1728.6 930.797 L1734.86 919.469 L1740.75 908.141 L1746.3 896.814 L1751.53 885.486 L1756.47 874.159 L1761.15 862.831 L1765.58 851.503 L1769.78 840.176 L1773.78 828.848 L1777.58 817.521 L1781.19 806.193 L1784.64 794.865 L1787.94 783.538 L1791.08 772.21 L1794.08 760.883 L1796.96 749.555 L1799.71 738.227 L1802.35 726.9 L1804.88 715.572 L1807.31 704.245 L1809.65 692.917 L1811.89 681.589 L1814.06 670.262 L1816.14 658.934 L1818.15 647.607 L1820.08 636.279 L1821.95 624.951 L1823.75 613.624 L1825.49 602.296 L1827.18 590.969 L1828.8 579.641 L1830.38 568.313 L1831.9 556.986 L1833.37 545.658 L1834.8 534.331 L1836.19 523.003 L1837.53 511.675 L1838.83 500.348 L1840.09 489.02 L1841.32 477.693 L1842.52 466.365 L1843.68 455.038 L1844.8 443.71 L1845.9 432.382 L1846.97 421.055 L1848.01 409.727 L1849.02 398.4 L1850 387.072 L1850.96 375.744 L1851.9 364.417 L1852.81 353.089 L1853.7 341.762 L1854.57 330.434 L1855.41 319.106 L1856.24 307.779 L1857.04 296.451 L1857.83 285.124 L1858.6 273.796 L1859.35 262.468 L1860.08 251.141 L1860.8 239.813 L1861.5 228.486 L1862.19 217.158 L1862.86 205.83 L1863.51 194.503 L1864.16 183.175 L1864.78 171.848 L1865.4 160.52 L1866 149.192 L1866.59 137.865 L1867.17 126.537 L1867.74 115.21 L1868.3 103.882 L1868.84 92.5545 L1869.38 81.2269 L1869.9 69.8993 L1870.42 58.5717 L1870.92 47.2441 L1870.92 47.2441 L1870.42 47.2441 L1869.9 47.2441 L1869.38 47.2441 L1868.84 47.2441 L1868.3 47.2441 L1867.74 47.2441 L1867.17 47.2441 L1866.59 47.2441 L1866 47.2441 L1865.4 47.2441 L1864.78 47.2441 L1864.16 47.2441 L1863.51 47.2441 L1862.86 47.2441 L1862.19 47.2441 L1861.5 47.2441 L1860.8 47.2441 L1860.08 47.2441 L1859.35 47.2441 L1858.6 47.2441 L1857.83 47.2441 L1857.04 47.2441 L1856.24 47.2441 L1855.41 47.2441 L1854.57 47.2441 L1853.7 47.2441 L1852.81 47.2441 L1851.9 47.2441 L1850.96 47.2441 L1850 47.2441 L1849.02 47.2441 L1848.01 47.2441 L1846.97 47.2441 L1845.9 47.2441 L1844.8 47.2441 L1843.68 47.2441 L1842.52 47.2441 L1841.32 47.2441 L1840.09 47.2441 L1838.83 47.2441 L1837.53 47.2441 L1836.19 47.2441 L1834.8 47.2441 L1833.37 47.2441 L1831.9 47.2441 L1830.38 47.2441 L1828.8 47.2441 L1827.18 47.2441 L1825.49 47.2441 L1823.75 47.2441 L1821.95 47.2441 L1820.08 47.2441 L1818.15 47.2441 L1816.14 47.2441 L1814.06 47.2441 L1811.89 47.2441 L1809.65 47.2441 L1807.31 47.2441 L1804.88 47.2441 L1802.35 47.2441 L1799.71 47.2441 L1796.96 47.2441 L1794.08 47.2441 L1791.08 47.2441 L1787.94 47.2441 L1784.64 47.2441 L1781.19 47.2441 L1777.58 47.2441 L1773.78 47.2441 L1769.78 47.2441 L1765.58 47.2441 L1761.15 47.2441 L1756.47 47.2441 L1751.53 47.2441 L1746.3 47.2441 L1740.75 47.2441 L1734.86 47.2441 L1728.6 47.2441 L1721.92 47.2441 L1714.8 47.2441 L1707.18 47.2441 L1699.01 47.2441 L1690.23 47.2441 L1680.78 47.2441 L1670.57 47.2441 L1659.51 47.2441 L1647.49 47.2441 L1634.4 47.2441 L1620.09 47.2441 L1604.37 47.2441 L1587.03 47.2441 L1567.84 47.2441 L1546.48 47.2441 L1522.58 47.2441 L1495.66 47.2441 L1465.15 47.2441 L1430.3 47.2441 L1390.17 47.2441 L1343.5 47.2441  Z" fill="#9acd32" fill-rule="evenodd" fill-opacity="0.35"/>
<polyline clip-path="url(#clip782)" style="stroke:#000000; stroke-linecap:round; stroke-linejoin:round; stroke-width:4; stroke-opacity:0; fill:none" points="1343.5,1168.68 1390.17,1157.35 1430.3,1146.02 1465.15,1134.69 1495.66,1123.37 1522.58,1112.04 1546.48,1100.71 1567.84,1089.38 1587.03,1078.06 1604.37,1066.73 1620.09,1055.4 1634.4,1044.07 1647.49,1032.74 1659.51,1021.42 1670.57,1010.09 1680.78,998.762 1690.23,987.435 1699.01,976.107 1707.18,964.779 1714.8,953.452 1721.92,942.124 1728.6,930.797 1734.86,919.469 1740.75,908.141 1746.3,896.814 1751.53,885.486 1756.47,874.159 1761.15,862.831 1765.58,851.503 1769.78,840.176 1773.78,828.848 1777.58,817.521 1781.19,806.193 1784.64,794.865 1787.94,783.538 1791.08,772.21 1794.08,760.883 1796.96,749.555 1799.71,738.227 1802.35,726.9 1804.88,715.572 1807.31,704.245 1809.65,692.917 1811.89,681.589 1814.06,670.262 1816.14,658.934 1818.15,647.607 1820.08,636.279 1821.95,624.951 1823.75,613.624 1825.49,602.296 1827.18,590.969 1828.8,579.641 1830.38,568.313 1831.9,556.986 1833.37,545.658 1834.8,534.331 1836.19,523.003 1837.53,511.675 1838.83,500.348 1840.09,489.02 1841.32,477.693 1842.52,466.365 1843.68,455.038 1844.8,443.71 1845.9,432.382 1846.97,421.055 1848.01,409.727 1849.02,398.4 1850,387.072 1850.96,375.744 1851.9,364.417 1852.81,353.089 1853.7,341.762 1854.57,330.434 1855.41,319.106 1856.24,307.779 1857.04,296.451 1857.83,285.124 1858.6,273.796 1859.35,262.468 1860.08,251.141 1860.8,239.813 1861.5,228.486 1862.19,217.158 1862.86,205.83 1863.51,194.503 1864.16,183.175 1864.78,171.848 1865.4,160.52 1866,149.192 1866.59,137.865 1867.17,126.537 1867.74,115.21 1868.3,103.882 1868.84,92.5545 1869.38,81.2269 1869.9,69.8993 1870.42,58.5717 1870.92,47.2441 "/>
<path clip-path="url(#clip782)" d="M202.227 1561.69 L213.755 1562.01 L225.283 1558.38 L236.811 1567.42 L248.339 1567.55 L259.867 1555.85 L271.395 1563.43 L282.923 1565.26 L294.451 1565.9 L305.979 1560.19 L317.507 1561.06 L329.035 1562.14 L340.563 1561.86 L352.091 1565.42 L363.619 1556.31 L375.147 1559.49 L386.675 1564.05 L398.203 1557.04 L409.731 1557.9 L421.259 1557.53 L432.787 1561.84 L444.315 1559.3 L455.843 1564.42 L467.371 1567.28 L478.899 1522.05 L490.427 1501.22 L501.955 1486.11 L513.483 1473.53 L525.011 1462.53 L536.539 1452.7 L548.067 1443.75 L559.595 1435.44 L571.123 1427.61 L582.651 1420.17 L594.179 1413.09 L605.707 1406.36 L617.235 1399.9 L628.763 1393.69 L640.291 1387.7 L651.819 1381.92 L663.347 1376.32 L674.875 1370.91 L686.403 1365.65 L697.931 1360.53 L709.459 1355.55 L720.987 1350.69 L732.515 1345.93 L744.043 1341.28 L755.571 1336.72 L767.099 1332.24 L778.627 1327.85 L790.155 1323.53 L801.683 1319.28 L813.211 1315.1 L824.739 1310.99 L836.267 1306.94 L847.795 1302.97 L859.323 1299.06 L870.851 1295.21 L882.379 1291.42 L893.906 1287.67 L905.434 1283.98 L916.962 1280.34 L928.49 1276.74 L940.018 1273.19 L951.546 1269.69 L963.074 1266.22 L974.602 1262.8 L986.13 1259.41 L997.658 1256.06 L1009.19 1252.75 L1020.71 1249.47 L1032.24 1246.23 L1043.77 1243.02 L1055.3 1239.84 L1066.83 1236.7 L1078.35 1233.58 L1089.88 1230.49 L1101.41 1227.43 L1112.94 1224.4 L1124.47 1221.4 L1135.99 1218.42 L1147.52 1215.47 L1159.05 1212.54 L1170.58 1209.64 L1182.11 1206.76 L1193.63 1203.91 L1205.16 1201.07 L1216.69 1198.26 L1228.22 1195.47 L1239.75 1192.71 L1251.27 1189.96 L1262.8 1187.23 L1274.33 1184.53 L1285.86 1181.84 L1297.39 1179.17 L1308.91 1176.52 L1320.44 1173.89 L1331.97 1171.27 L1343.5 1168.68 L1343.5 1423.18 L1331.97 1423.18 L1320.44 1423.18 L1308.91 1423.18 L1297.39 1423.18 L1285.86 1423.18 L1274.33 1423.18 L1262.8 1423.18 L1251.27 1423.18 L1239.75 1423.18 L1228.22 1423.18 L1216.69 1423.18 L1205.16 1423.18 L1193.63 1423.18 L1182.11 1423.18 L1170.58 1423.18 L1159.05 1423.18 L1147.52 1423.18 L1135.99 1423.18 L1124.47 1423.18 L1112.94 1423.18 L1101.41 1423.18 L1089.88 1423.18 L1078.35 1423.18 L1066.83 1423.18 L1055.3 1423.18 L1043.77 1423.18 L1032.24 1423.18 L1020.71 1423.18 L1009.19 1423.18 L997.658 1423.18 L986.13 1423.18 L974.602 1423.18 L963.074 1423.18 L951.546 1423.18 L940.018 1423.18 L928.49 1423.18 L916.962 1423.18 L905.434 1423.18 L893.906 1423.18 L882.379 1423.18 L870.851 1423.18 L859.323 1423.18 L847.795 1423.18 L836.267 1423.18 L824.739 1423.18 L813.211 1423.18 L801.683 1423.18 L790.155 1423.18 L778.627 1423.18 L767.099 1423.18 L755.571 1423.18 L744.043 1423.18 L732.515 1423.18 L720.987 1423.18 L709.459 1423.18 L697.931 1423.18 L686.403 1423.18 L674.875 1423.18 L663.347 1423.18 L651.819 1423.18 L640.291 1423.18 L628.763 1423.18 L617.235 1423.18 L605.707 1423.18 L594.179 1423.18 L582.651 1423.18 L571.123 1423.18 L559.595 1423.18 L548.067 1423.18 L536.539 1423.18 L525.011 1423.18 L513.483 1423.18 L501.955 1423.18 L490.427 1423.18 L478.899 1423.18 L467.371 1423.18 L455.843 1423.18 L444.315 1423.18 L432.787 1423.18 L421.259 1423.18 L409.731 1423.18 L398.203 1423.18 L386.675 1423.18 L375.147 1423.18 L363.619 1423.18 L352.091 1423.18 L340.563 1423.18 L329.035 1423.18 L317.507 1423.18 L305.979 1423.18 L294.451 1423.18 L282.923 1423.18 L271.395 1423.18 L259.867 1423.18 L248.339 1423.18 L236.811 1423.18 L225.283 1423.18 L213.755 1423.18 L202.227 1423.18  Z" fill="#ff0000" fill-rule="evenodd" fill-opacity="0.35"/>
<polyline clip-path="url(#clip782)" style="stroke:#000000; stroke-linecap:round; stroke-linejoin:round; stroke-width:4; stroke-opacity:0; fill:none" points="202.227,1561.69 213.755,1562.01 225.283,1558.38 236.811,1567.42 248.339,1567.55 259.867,1555.85 271.395,1563.43 282.923,1565.26 294.451,1565.9 305.979,1560.19 317.507,1561.06 329.035,1562.14 340.563,1561.86 352.091,1565.42 363.619,1556.31 375.147,1559.49 386.675,1564.05 398.203,1557.04 409.731,1557.9 421.259,1557.53 432.787,1561.84 444.315,1559.3 455.843,1564.42 467.371,1567.28 478.899,1522.05 490.427,1501.22 501.955,1486.11 513.483,1473.53 525.011,1462.53 536.539,1452.7 548.067,1443.75 559.595,1435.44 571.123,1427.61 582.651,1420.17 594.179,1413.09 605.707,1406.36 617.235,1399.9 628.763,1393.69 640.291,1387.7 651.819,1381.92 663.347,1376.32 674.875,1370.91 686.403,1365.65 697.931,1360.53 709.459,1355.55 720.987,1350.69 732.515,1345.93 744.043,1341.28 755.571,1336.72 767.099,1332.24 778.627,1327.85 790.155,1323.53 801.683,1319.28 813.211,1315.1 824.739,1310.99 836.267,1306.94 847.795,1302.97 859.323,1299.06 870.851,1295.21 882.379,1291.42 893.906,1287.67 905.434,1283.98 916.962,1280.34 928.49,1276.74 940.018,1273.19 951.546,1269.69 963.074,1266.22 974.602,1262.8 986.13,1259.41 997.658,1256.06 1009.19,1252.75 1020.71,1249.47 1032.24,1246.23 1043.77,1243.02 1055.3,1239.84 1066.83,1236.7 1078.35,1233.58 1089.88,1230.49 1101.41,1227.43 1112.94,1224.4 1124.47,1221.4 1135.99,1218.42 1147.52,1215.47 1159.05,1212.54 1170.58,1209.64 1182.11,1206.76 1193.63,1203.91 1205.16,1201.07 1216.69,1198.26 1228.22,1195.47 1239.75,1192.71 1251.27,1189.96 1262.8,1187.23 1274.33,1184.53 1285.86,1181.84 1297.39,1179.17 1308.91,1176.52 1320.44,1173.89 1331.97,1171.27 1343.5,1168.68 "/>
<path clip-path="url(#clip782)" d="M1343.5 1168.68 L1390.17 1157.35 L1430.3 1146.02 L1465.15 1134.69 L1495.66 1123.37 L1522.58 1112.04 L1546.48 1100.71 L1567.84 1089.38 L1587.03 1078.06 L1604.37 1066.73 L1620.09 1055.4 L1634.4 1044.07 L1647.49 1032.74 L1659.51 1021.42 L1670.57 1010.09 L1680.78 998.762 L1690.23 987.435 L1699.01 976.107 L1707.18 964.779 L1714.8 953.452 L1721.92 942.124 L1728.6 930.797 L1734.86 919.469 L1740.75 908.141 L1746.3 896.814 L1751.53 885.486 L1756.47 874.159 L1761.15 862.831 L1765.58 851.503 L1769.78 840.176 L1773.78 828.848 L1777.58 817.521 L1781.19 806.193 L1784.64 794.865 L1787.94 783.538 L1791.08 772.21 L1794.08 760.883 L1796.96 749.555 L1799.71 738.227 L1802.35 726.9 L1804.88 715.572 L1807.31 704.245 L1809.65 692.917 L1811.89 681.589 L1814.06 670.262 L1816.14 658.934 L1818.15 647.607 L1820.08 636.279 L1821.95 624.951 L1823.75 613.624 L1825.49 602.296 L1827.18 590.969 L1828.8 579.641 L1830.38 568.313 L1831.9 556.986 L1833.37 545.658 L1834.8 534.331 L1836.19 523.003 L1837.53 511.675 L1838.83 500.348 L1840.09 489.02 L1841.32 477.693 L1842.52 466.365 L1843.68 455.038 L1844.8 443.71 L1845.9 432.382 L1846.97 421.055 L1848.01 409.727 L1849.02 398.4 L1850 387.072 L1850.96 375.744 L1851.9 364.417 L1852.81 353.089 L1853.7 341.762 L1854.57 330.434 L1855.41 319.106 L1856.24 307.779 L1857.04 296.451 L1857.83 285.124 L1858.6 273.796 L1859.35 262.468 L1860.08 251.141 L1860.8 239.813 L1861.5 228.486 L1862.19 217.158 L1862.86 205.83 L1863.51 194.503 L1864.16 183.175 L1864.78 171.848 L1865.4 160.52 L1866 149.192 L1866.59 137.865 L1867.17 126.537 L1867.74 115.21 L1868.3 103.882 L1868.84 92.5545 L1869.38 81.2269 L1869.9 69.8993 L1870.42 58.5717 L1870.92 47.2441 L1870.92 1423.18 L1870.42 1423.18 L1869.9 1423.18 L1869.38 1423.18 L1868.84 1423.18 L1868.3 1423.18 L1867.74 1423.18 L1867.17 1423.18 L1866.59 1423.18 L1866 1423.18 L1865.4 1423.18 L1864.78 1423.18 L1864.16 1423.18 L1863.51 1423.18 L1862.86 1423.18 L1862.19 1423.18 L1861.5 1423.18 L1860.8 1423.18 L1860.08 1423.18 L1859.35 1423.18 L1858.6 1423.18 L1857.83 1423.18 L1857.04 1423.18 L1856.24 1423.18 L1855.41 1423.18 L1854.57 1423.18 L1853.7 1423.18 L1852.81 1423.18 L1851.9 1423.18 L1850.96 1423.18 L1850 1423.18 L1849.02 1423.18 L1848.01 1423.18 L1846.97 1423.18 L1845.9 1423.18 L1844.8 1423.18 L1843.68 1423.18 L1842.52 1423.18 L1841.32 1423.18 L1840.09 1423.18 L1838.83 1423.18 L1837.53 1423.18 L1836.19 1423.18 L1834.8 1423.18 L1833.37 1423.18 L1831.9 1423.18 L1830.38 1423.18 L1828.8 1423.18 L1827.18 1423.18 L1825.49 1423.18 L1823.75 1423.18 L1821.95 1423.18 L1820.08 1423.18 L1818.15 1423.18 L1816.14 1423.18 L1814.06 1423.18 L1811.89 1423.18 L1809.65 1423.18 L1807.31 1423.18 L1804.88 1423.18 L1802.35 1423.18 L1799.71 1423.18 L1796.96 1423.18 L1794.08 1423.18 L1791.08 1423.18 L1787.94 1423.18 L1784.64 1423.18 L1781.19 1423.18 L1777.58 1423.18 L1773.78 1423.18 L1769.78 1423.18 L1765.58 1423.18 L1761.15 1423.18 L1756.47 1423.18 L1751.53 1423.18 L1746.3 1423.18 L1740.75 1423.18 L1734.86 1423.18 L1728.6 1423.18 L1721.92 1423.18 L1714.8 1423.18 L1707.18 1423.18 L1699.01 1423.18 L1690.23 1423.18 L1680.78 1423.18 L1670.57 1423.18 L1659.51 1423.18 L1647.49 1423.18 L1634.4 1423.18 L1620.09 1423.18 L1604.37 1423.18 L1587.03 1423.18 L1567.84 1423.18 L1546.48 1423.18 L1522.58 1423.18 L1495.66 1423.18 L1465.15 1423.18 L1430.3 1423.18 L1390.17 1423.18 L1343.5 1423.18  Z" fill="#ff0000" fill-rule="evenodd" fill-opacity="0.35"/>
<polyline clip-path="url(#clip782)" style="stroke:#000000; stroke-linecap:round; stroke-linejoin:round; stroke-width:4; stroke-opacity:0; fill:none" points="1343.5,1168.68 1390.17,1157.35 1430.3,1146.02 1465.15,1134.69 1495.66,1123.37 1522.58,1112.04 1546.48,1100.71 1567.84,1089.38 1587.03,1078.06 1604.37,1066.73 1620.09,1055.4 1634.4,1044.07 1647.49,1032.74 1659.51,1021.42 1670.57,1010.09 1680.78,998.762 1690.23,987.435 1699.01,976.107 1707.18,964.779 1714.8,953.452 1721.92,942.124 1728.6,930.797 1734.86,919.469 1740.75,908.141 1746.3,896.814 1751.53,885.486 1756.47,874.159 1761.15,862.831 1765.58,851.503 1769.78,840.176 1773.78,828.848 1777.58,817.521 1781.19,806.193 1784.64,794.865 1787.94,783.538 1791.08,772.21 1794.08,760.883 1796.96,749.555 1799.71,738.227 1802.35,726.9 1804.88,715.572 1807.31,704.245 1809.65,692.917 1811.89,681.589 1814.06,670.262 1816.14,658.934 1818.15,647.607 1820.08,636.279 1821.95,624.951 1823.75,613.624 1825.49,602.296 1827.18,590.969 1828.8,579.641 1830.38,568.313 1831.9,556.986 1833.37,545.658 1834.8,534.331 1836.19,523.003 1837.53,511.675 1838.83,500.348 1840.09,489.02 1841.32,477.693 1842.52,466.365 1843.68,455.038 1844.8,443.71 1845.9,432.382 1846.97,421.055 1848.01,409.727 1849.02,398.4 1850,387.072 1850.96,375.744 1851.9,364.417 1852.81,353.089 1853.7,341.762 1854.57,330.434 1855.41,319.106 1856.24,307.779 1857.04,296.451 1857.83,285.124 1858.6,273.796 1859.35,262.468 1860.08,251.141 1860.8,239.813 1861.5,228.486 1862.19,217.158 1862.86,205.83 1863.51,194.503 1864.16,183.175 1864.78,171.848 1865.4,160.52 1866,149.192 1866.59,137.865 1867.17,126.537 1867.74,115.21 1868.3,103.882 1868.84,92.5545 1869.38,81.2269 1869.9,69.8993 1870.42,58.5717 1870.92,47.2441 "/>
<path clip-path="url(#clip782)" d="M1870.92 1423.18 L2352.76 1423.18 L2352.76 47.2441 L1870.92 47.2441  Z" fill="#ff0000" fill-rule="evenodd" fill-opacity="0.35"/>
<polyline clip-path="url(#clip782)" style="stroke:#000000; stroke-linecap:round; stroke-linejoin:round; stroke-width:4; stroke-opacity:0; fill:none" points="1870.92,1423.18 2352.76,1423.18 "/>
<polyline clip-path="url(#clip782)" style="stroke:#008000; stroke-linecap:round; stroke-linejoin:round; stroke-width:12; stroke-opacity:1; fill:none" points="202.227,1168.68 1343.5,1168.68 "/>
<polyline clip-path="url(#clip782)" style="stroke:#ffd700; stroke-linecap:round; stroke-linejoin:round; stroke-width:12; stroke-opacity:1; fill:none" points="1343.5,1168.68 1390.17,1157.35 1430.3,1146.02 1465.15,1134.69 1495.66,1123.37 1522.58,1112.04 1546.48,1100.71 1567.84,1089.38 1587.03,1078.06 1604.37,1066.73 1620.09,1055.4 1634.4,1044.07 1647.49,1032.74 1659.51,1021.42 1670.57,1010.09 1680.78,998.762 1690.23,987.435 1699.01,976.107 1707.18,964.779 1714.8,953.452 1721.92,942.124 1728.6,930.797 1734.86,919.469 1740.75,908.141 1746.3,896.814 1751.53,885.486 1756.47,874.159 1761.15,862.831 1765.58,851.503 1769.78,840.176 1773.78,828.848 1777.58,817.521 1781.19,806.193 1784.64,794.865 1787.94,783.538 1791.08,772.21 1794.08,760.883 1796.96,749.555 1799.71,738.227 1802.35,726.9 1804.88,715.572 1807.31,704.245 1809.65,692.917 1811.89,681.589 1814.06,670.262 1816.14,658.934 1818.15,647.607 1820.08,636.279 1821.95,624.951 1823.75,613.624 1825.49,602.296 1827.18,590.969 1828.8,579.641 1830.38,568.313 1831.9,556.986 1833.37,545.658 1834.8,534.331 1836.19,523.003 1837.53,511.675 1838.83,500.348 1840.09,489.02 1841.32,477.693 1842.52,466.365 1843.68,455.038 1844.8,443.71 1845.9,432.382 1846.97,421.055 1848.01,409.727 1849.02,398.4 1850,387.072 1850.96,375.744 1851.9,364.417 1852.81,353.089 1853.7,341.762 1854.57,330.434 1855.41,319.106 1856.24,307.779 1857.04,296.451 1857.83,285.124 1858.6,273.796 1859.35,262.468 1860.08,251.141 1860.8,239.813 1861.5,228.486 1862.19,217.158 1862.86,205.83 1863.51,194.503 1864.16,183.175 1864.78,171.848 1865.4,160.52 1866,149.192 1866.59,137.865 1867.17,126.537 1867.74,115.21 1868.3,103.882 1868.84,92.5545 1869.38,81.2269 1869.9,69.8993 1870.42,58.5717 1870.92,47.2441 "/>
<polyline clip-path="url(#clip782)" style="stroke:#000000; stroke-linecap:round; stroke-linejoin:round; stroke-width:4; stroke-opacity:1; fill:none" points="202.227,-49915.9 213.755,-47236.3 225.283,-44696.6 236.811,-42289.4 248.339,-40007.9 259.867,-37845.5 271.395,-35795.8 282.923,-33852.9 294.451,-32011.3 305.979,-30265.9 317.507,-28611.7 329.035,-27044 340.563,-25558.3 352.091,-24150.2 363.619,-22815.8 375.147,-21551 386.675,-20352.1 398.203,-19215.8 409.731,-18138.6 421.259,-17117.6 432.787,-16149.8 444.315,-15232.6 455.843,-14363.1 467.371,-13539.1 478.899,-12758 490.427,-12017.8 501.955,-11316.2 513.483,-10651.4 525.011,-10021.3 536.539,-9424.03 548.067,-8857.98 559.595,-8321.44 571.123,-7812.86 582.651,-7330.79 594.179,-6873.86 605.707,-6440.79 617.235,-6030.3 628.763,-5641.23 640.291,-5272.47 651.819,-4922.99 663.347,-4591.77 674.875,-4277.85 686.403,-3980.33 697.931,-3698.34 709.459,-3431.05 720.987,-3177.7 732.515,-2937.56 744.043,-2709.95 755.571,-2494.22 767.099,-2289.74 778.627,-2095.93 790.155,-1912.25 801.683,-1738.16 813.211,-1573.16 824.739,-1416.79 836.267,-1268.57 847.795,-1128.09 859.323,-994.93 870.851,-868.717 882.379,-749.09 893.906,-635.709 905.434,-528.242 916.962,-426.386 928.49,-329.849 940.018,-238.354 951.546,-151.636 963.074,-69.4449 974.602,8.45839 986.13,82.298 997.658,152.285 1009.19,218.619 1020.71,281.491 1032.24,341.082 1043.77,397.561 1055.3,451.091 1066.83,501.827 1078.35,549.914 1089.88,595.493 1101.41,638.694 1112.94,679.64 1124.47,718.448 1135.99,755.231 1147.52,790.094 1159.05,823.137 1170.58,854.455 1182.11,884.139 1193.63,912.274 1205.16,938.94 1216.69,964.215 1228.22,988.17 1239.75,1010.87 1251.27,1032.39 1262.8,1052.79 1274.33,1072.12 1285.86,1090.45 1297.39,1107.81 1308.91,1124.27 1320.44,1139.87 1331.97,1154.66 1343.5,1168.68 "/>
<polyline clip-path="url(#clip782)" style="stroke:#000000; stroke-linecap:round; stroke-linejoin:round; stroke-width:4; stroke-opacity:1; fill:none" points="202.227,1561.69 213.755,1562.01 225.283,1558.38 236.811,1567.42 248.339,1567.55 259.867,1555.85 271.395,1563.43 282.923,1565.26 294.451,1565.9 305.979,1560.19 317.507,1561.06 329.035,1562.14 340.563,1561.86 352.091,1565.42 363.619,1556.31 375.147,1559.49 386.675,1564.05 398.203,1557.04 409.731,1557.9 421.259,1557.53 432.787,1561.84 444.315,1559.3 455.843,1564.42 467.371,1567.28 478.899,1522.05 490.427,1501.22 501.955,1486.11 513.483,1473.53 525.011,1462.53 536.539,1452.7 548.067,1443.75 559.595,1435.44 571.123,1427.61 582.651,1420.17 594.179,1413.09 605.707,1406.36 617.235,1399.9 628.763,1393.69 640.291,1387.7 651.819,1381.92 663.347,1376.32 674.875,1370.91 686.403,1365.65 697.931,1360.53 709.459,1355.55 720.987,1350.69 732.515,1345.93 744.043,1341.28 755.571,1336.72 767.099,1332.24 778.627,1327.85 790.155,1323.53 801.683,1319.28 813.211,1315.1 824.739,1310.99 836.267,1306.94 847.795,1302.97 859.323,1299.06 870.851,1295.21 882.379,1291.42 893.906,1287.67 905.434,1283.98 916.962,1280.34 928.49,1276.74 940.018,1273.19 951.546,1269.69 963.074,1266.22 974.602,1262.8 986.13,1259.41 997.658,1256.06 1009.19,1252.75 1020.71,1249.47 1032.24,1246.23 1043.77,1243.02 1055.3,1239.84 1066.83,1236.7 1078.35,1233.58 1089.88,1230.49 1101.41,1227.43 1112.94,1224.4 1124.47,1221.4 1135.99,1218.42 1147.52,1215.47 1159.05,1212.54 1170.58,1209.64 1182.11,1206.76 1193.63,1203.91 1205.16,1201.07 1216.69,1198.26 1228.22,1195.47 1239.75,1192.71 1251.27,1189.96 1262.8,1187.23 1274.33,1184.53 1285.86,1181.84 1297.39,1179.17 1308.91,1176.52 1320.44,1173.89 1331.97,1171.27 1343.5,1168.68 "/>
<path clip-path="url(#clip780)" d="M273.912 455.989 L846.787 455.989 L846.787 93.1086 L273.912 93.1086  Z" fill="#ffffff" fill-rule="evenodd" fill-opacity="1"/>
<polyline clip-path="url(#clip780)" style="stroke:#000000; stroke-linecap:round; stroke-linejoin:round; stroke-width:4; stroke-opacity:1; fill:none" points="273.912,455.989 846.787,455.989 846.787,93.1086 273.912,93.1086 273.912,455.989 "/>
<path clip-path="url(#clip780)" d="M297.807 165.685 L441.175 165.685 L441.175 124.213 L297.807 124.213 L297.807 165.685  Z" fill="#0000ff" fill-rule="evenodd" fill-opacity="0.35"/>
<polyline clip-path="url(#clip780)" style="stroke:#000000; stroke-linecap:round; stroke-linejoin:round; stroke-width:4; stroke-opacity:0; fill:none" points="297.807,124.213 441.175,124.213 "/>
<path clip-path="url(#clip780)" d="M465.07 151.997 L465.07 136.303 L469.329 136.303 L469.329 151.835 Q469.329 155.516 470.764 157.368 Q472.199 159.196 475.07 159.196 Q478.519 159.196 480.51 156.997 Q482.523 154.798 482.523 151.002 L482.523 136.303 L486.783 136.303 L486.783 162.229 L482.523 162.229 L482.523 158.247 Q480.973 160.608 478.912 161.766 Q476.875 162.9 474.167 162.9 Q469.699 162.9 467.385 160.122 Q465.07 157.344 465.07 151.997 M475.787 135.678 L475.787 135.678 Z" fill="#000000" fill-rule="nonzero" fill-opacity="1" /><path clip-path="url(#clip780)" d="M494.259 152.807 L512.94 152.807 L512.94 155.006 L494.259 155.006 L494.259 152.807 Z" fill="#000000" fill-rule="nonzero" fill-opacity="1" /><path clip-path="url(#clip780)" d="M546.018 142.946 Q544.167 142.946 542.893 144.243 Q541.62 145.516 541.62 147.368 Q541.62 149.196 542.893 150.469 Q544.167 151.719 546.018 151.719 Q547.87 151.719 549.143 150.469 Q550.417 149.196 550.417 147.368 Q550.417 145.539 549.12 144.243 Q547.847 142.946 546.018 142.946 M546.018 139.96 Q547.5 139.96 548.866 140.539 Q550.231 141.094 551.227 142.159 Q552.292 143.201 552.824 144.52 Q553.356 145.84 553.356 147.368 Q553.356 150.423 551.204 152.553 Q549.074 154.659 545.972 154.659 Q542.847 154.659 540.764 152.576 Q538.681 150.493 538.681 147.368 Q538.681 144.266 540.81 142.113 Q542.94 139.96 546.018 139.96 Z" fill="#000000" fill-rule="nonzero" fill-opacity="1" /><path clip-path="url(#clip780)" d="M579.953 151.997 L579.953 136.303 L584.213 136.303 L584.213 151.835 Q584.213 155.516 585.648 157.368 Q587.083 159.196 589.953 159.196 Q593.402 159.196 595.393 156.997 Q597.407 154.798 597.407 151.002 L597.407 136.303 L601.666 136.303 L601.666 162.229 L597.407 162.229 L597.407 158.247 Q595.856 160.608 593.796 161.766 Q591.759 162.9 589.051 162.9 Q584.583 162.9 582.268 160.122 Q579.953 157.344 579.953 151.997 M590.671 135.678 L590.671 135.678 Z" fill="#000000" fill-rule="nonzero" fill-opacity="1" /><path clip-path="url(#clip780)" d="M620.277 147.761 L620.277 150.006 Q619.143 149.497 617.916 149.243 Q616.713 148.988 615.393 148.988 Q613.379 148.988 612.384 149.52 Q611.388 150.076 611.388 151.164 Q611.388 151.997 612.106 152.46 Q612.824 152.946 614.976 153.363 L615.902 153.548 Q618.796 154.104 619.953 155.076 Q621.157 156.071 621.157 157.854 Q621.157 159.868 619.351 161.048 Q617.569 162.229 614.421 162.229 Q613.101 162.229 611.666 161.997 Q610.254 161.766 608.68 161.326 L608.68 158.849 Q610.162 159.543 611.62 159.891 Q613.055 160.238 614.467 160.238 Q616.365 160.238 617.384 159.659 Q618.402 159.08 618.402 158.039 Q618.402 157.067 617.662 156.534 Q617.013 156.071 614.444 155.539 L613.518 155.354 Q611.018 154.868 609.907 153.918 Q608.796 152.946 608.796 151.256 Q608.796 149.219 610.439 148.108 Q612.06 146.974 615.069 146.974 Q616.551 146.974 617.87 147.182 Q619.189 147.368 620.277 147.761 Z" fill="#000000" fill-rule="nonzero" fill-opacity="1" /><path clip-path="url(#clip780)" d="M653.564 142.946 Q651.712 142.946 650.439 144.243 Q649.166 145.516 649.166 147.368 Q649.166 149.196 650.439 150.469 Q651.712 151.719 653.564 151.719 Q655.416 151.719 656.689 150.469 Q657.962 149.196 657.962 147.368 Q657.962 145.539 656.666 144.243 Q655.393 142.946 653.564 142.946 M653.564 139.96 Q655.046 139.96 656.411 140.539 Q657.777 141.094 658.773 142.159 Q659.837 143.201 660.37 144.52 Q660.902 145.84 660.902 147.368 Q660.902 150.423 658.749 152.553 Q656.62 154.659 653.518 154.659 Q650.393 154.659 648.31 152.576 Q646.226 150.493 646.226 147.368 Q646.226 144.266 648.356 142.113 Q650.486 139.96 653.564 139.96 Z" fill="#000000" fill-rule="nonzero" fill-opacity="1" /><path clip-path="url(#clip780)" d="M687.499 151.997 L687.499 136.303 L691.758 136.303 L691.758 151.835 Q691.758 155.516 693.194 157.368 Q694.629 159.196 697.499 159.196 Q700.948 159.196 702.939 156.997 Q704.953 154.798 704.953 151.002 L704.953 136.303 L709.212 136.303 L709.212 162.229 L704.953 162.229 L704.953 158.247 Q703.402 160.608 701.342 161.766 Q699.305 162.9 696.596 162.9 Q692.129 162.9 689.814 160.122 Q687.499 157.344 687.499 151.997 M698.217 135.678 L698.217 135.678 Z" fill="#000000" fill-rule="nonzero" fill-opacity="1" /><path clip-path="url(#clip780)" d="M727.244 145.585 L727.244 152.807 L735.369 152.807 L735.369 155.006 L727.244 155.006 L727.244 162.229 L724.814 162.229 L724.814 155.006 L716.689 155.006 L716.689 152.807 L724.814 152.807 L724.814 145.585 L727.244 145.585 Z" fill="#000000" fill-rule="nonzero" fill-opacity="1" /><path clip-path="url(#clip780)" d="M297.807 217.525 L441.175 217.525 L441.175 176.053 L297.807 176.053 L297.807 217.525  Z" fill="#a52a2a" fill-rule="evenodd" fill-opacity="0.35"/>
<polyline clip-path="url(#clip780)" style="stroke:#000000; stroke-linecap:round; stroke-linejoin:round; stroke-width:4; stroke-opacity:0; fill:none" points="297.807,176.053 441.175,176.053 "/>
<path clip-path="url(#clip780)" d="M465.07 203.837 L465.07 188.143 L469.329 188.143 L469.329 203.675 Q469.329 207.356 470.764 209.208 Q472.199 211.036 475.07 211.036 Q478.519 211.036 480.51 208.837 Q482.523 206.638 482.523 202.842 L482.523 188.143 L486.783 188.143 L486.783 214.069 L482.523 214.069 L482.523 210.087 Q480.973 212.448 478.912 213.606 Q476.875 214.74 474.167 214.74 Q469.699 214.74 467.385 211.962 Q465.07 209.184 465.07 203.837 M475.787 187.518 L475.787 187.518 Z" fill="#000000" fill-rule="nonzero" fill-opacity="1" /><path clip-path="url(#clip780)" d="M504.815 197.425 L504.815 204.647 L512.94 204.647 L512.94 206.846 L504.815 206.846 L504.815 214.069 L502.384 214.069 L502.384 206.846 L494.259 206.846 L494.259 204.647 L502.384 204.647 L502.384 197.425 L504.815 197.425 Z" fill="#000000" fill-rule="nonzero" fill-opacity="1" /><path clip-path="url(#clip780)" d="M546.018 194.786 Q544.167 194.786 542.893 196.083 Q541.62 197.356 541.62 199.208 Q541.62 201.036 542.893 202.309 Q544.167 203.559 546.018 203.559 Q547.87 203.559 549.143 202.309 Q550.417 201.036 550.417 199.208 Q550.417 197.379 549.12 196.083 Q547.847 194.786 546.018 194.786 M546.018 191.8 Q547.5 191.8 548.866 192.379 Q550.231 192.934 551.227 193.999 Q552.292 195.041 552.824 196.36 Q553.356 197.68 553.356 199.208 Q553.356 202.263 551.204 204.393 Q549.074 206.499 545.972 206.499 Q542.847 206.499 540.764 204.416 Q538.681 202.333 538.681 199.208 Q538.681 196.106 540.81 193.953 Q542.94 191.8 546.018 191.8 Z" fill="#000000" fill-rule="nonzero" fill-opacity="1" /><path clip-path="url(#clip780)" d="M579.953 203.837 L579.953 188.143 L584.213 188.143 L584.213 203.675 Q584.213 207.356 585.648 209.208 Q587.083 211.036 589.953 211.036 Q593.402 211.036 595.393 208.837 Q597.407 206.638 597.407 202.842 L597.407 188.143 L601.666 188.143 L601.666 214.069 L597.407 214.069 L597.407 210.087 Q595.856 212.448 593.796 213.606 Q591.759 214.74 589.051 214.74 Q584.583 214.74 582.268 211.962 Q579.953 209.184 579.953 203.837 M590.671 187.518 L590.671 187.518 Z" fill="#000000" fill-rule="nonzero" fill-opacity="1" /><path clip-path="url(#clip780)" d="M620.277 199.601 L620.277 201.846 Q619.143 201.337 617.916 201.083 Q616.713 200.828 615.393 200.828 Q613.379 200.828 612.384 201.36 Q611.388 201.916 611.388 203.004 Q611.388 203.837 612.106 204.3 Q612.824 204.786 614.976 205.203 L615.902 205.388 Q618.796 205.944 619.953 206.916 Q621.157 207.911 621.157 209.694 Q621.157 211.708 619.351 212.888 Q617.569 214.069 614.421 214.069 Q613.101 214.069 611.666 213.837 Q610.254 213.606 608.68 213.166 L608.68 210.689 Q610.162 211.383 611.62 211.731 Q613.055 212.078 614.467 212.078 Q616.365 212.078 617.384 211.499 Q618.402 210.92 618.402 209.879 Q618.402 208.907 617.662 208.374 Q617.013 207.911 614.444 207.379 L613.518 207.194 Q611.018 206.708 609.907 205.758 Q608.796 204.786 608.796 203.096 Q608.796 201.059 610.439 199.948 Q612.06 198.814 615.069 198.814 Q616.551 198.814 617.87 199.022 Q619.189 199.208 620.277 199.601 Z" fill="#000000" fill-rule="nonzero" fill-opacity="1" /><path clip-path="url(#clip780)" d="M653.564 194.786 Q651.712 194.786 650.439 196.083 Q649.166 197.356 649.166 199.208 Q649.166 201.036 650.439 202.309 Q651.712 203.559 653.564 203.559 Q655.416 203.559 656.689 202.309 Q657.962 201.036 657.962 199.208 Q657.962 197.379 656.666 196.083 Q655.393 194.786 653.564 194.786 M653.564 191.8 Q655.046 191.8 656.411 192.379 Q657.777 192.934 658.773 193.999 Q659.837 195.041 660.37 196.36 Q660.902 197.68 660.902 199.208 Q660.902 202.263 658.749 204.393 Q656.62 206.499 653.518 206.499 Q650.393 206.499 648.31 204.416 Q646.226 202.333 646.226 199.208 Q646.226 196.106 648.356 193.953 Q650.486 191.8 653.564 191.8 Z" fill="#000000" fill-rule="nonzero" fill-opacity="1" /><path clip-path="url(#clip780)" d="M687.499 203.837 L687.499 188.143 L691.758 188.143 L691.758 203.675 Q691.758 207.356 693.194 209.208 Q694.629 211.036 697.499 211.036 Q700.948 211.036 702.939 208.837 Q704.953 206.638 704.953 202.842 L704.953 188.143 L709.212 188.143 L709.212 214.069 L704.953 214.069 L704.953 210.087 Q703.402 212.448 701.342 213.606 Q699.305 214.74 696.596 214.74 Q692.129 214.74 689.814 211.962 Q687.499 209.184 687.499 203.837 M698.217 187.518 L698.217 187.518 Z" fill="#000000" fill-rule="nonzero" fill-opacity="1" /><path clip-path="url(#clip780)" d="M727.244 197.425 L727.244 204.647 L735.369 204.647 L735.369 206.846 L727.244 206.846 L727.244 214.069 L724.814 214.069 L724.814 206.846 L716.689 206.846 L716.689 204.647 L724.814 204.647 L724.814 197.425 L727.244 197.425 Z" fill="#000000" fill-rule="nonzero" fill-opacity="1" /><path clip-path="url(#clip780)" d="M297.807 269.365 L441.175 269.365 L441.175 227.893 L297.807 227.893 L297.807 269.365  Z" fill="#9acd32" fill-rule="evenodd" fill-opacity="0.35"/>
<polyline clip-path="url(#clip780)" style="stroke:#000000; stroke-linecap:round; stroke-linejoin:round; stroke-width:4; stroke-opacity:0; fill:none" points="297.807,227.893 441.175,227.893 "/>
<path clip-path="url(#clip780)" d="M465.07 255.677 L465.07 239.983 L469.329 239.983 L469.329 255.515 Q469.329 259.196 470.764 261.048 Q472.199 262.876 475.07 262.876 Q478.519 262.876 480.51 260.677 Q482.523 258.478 482.523 254.682 L482.523 239.983 L486.783 239.983 L486.783 265.909 L482.523 265.909 L482.523 261.927 Q480.973 264.288 478.912 265.446 Q476.875 266.58 474.167 266.58 Q469.699 266.58 467.385 263.802 Q465.07 261.024 465.07 255.677 M475.787 239.358 L475.787 239.358 Z" fill="#000000" fill-rule="nonzero" fill-opacity="1" /><path clip-path="url(#clip780)" d="M494.259 256.487 L512.94 256.487 L512.94 258.686 L494.259 258.686 L494.259 256.487 Z" fill="#000000" fill-rule="nonzero" fill-opacity="1" /><path clip-path="url(#clip780)" d="M546.018 246.626 Q544.167 246.626 542.893 247.923 Q541.62 249.196 541.62 251.048 Q541.62 252.876 542.893 254.149 Q544.167 255.399 546.018 255.399 Q547.87 255.399 549.143 254.149 Q550.417 252.876 550.417 251.048 Q550.417 249.219 549.12 247.923 Q547.847 246.626 546.018 246.626 M546.018 243.64 Q547.5 243.64 548.866 244.219 Q550.231 244.774 551.227 245.839 Q552.292 246.881 552.824 248.2 Q553.356 249.52 553.356 251.048 Q553.356 254.103 551.204 256.233 Q549.074 258.339 545.972 258.339 Q542.847 258.339 540.764 256.256 Q538.681 254.173 538.681 251.048 Q538.681 247.946 540.81 245.793 Q542.94 243.64 546.018 243.64 Z" fill="#000000" fill-rule="nonzero" fill-opacity="1" /><path clip-path="url(#clip780)" d="M579.953 255.677 L579.953 239.983 L584.213 239.983 L584.213 255.515 Q584.213 259.196 585.648 261.048 Q587.083 262.876 589.953 262.876 Q593.402 262.876 595.393 260.677 Q597.407 258.478 597.407 254.682 L597.407 239.983 L601.666 239.983 L601.666 265.909 L597.407 265.909 L597.407 261.927 Q595.856 264.288 593.796 265.446 Q591.759 266.58 589.051 266.58 Q584.583 266.58 582.268 263.802 Q579.953 261.024 579.953 255.677 M590.671 239.358 L590.671 239.358 Z" fill="#000000" fill-rule="nonzero" fill-opacity="1" /><path clip-path="url(#clip780)" d="M619.699 249.265 L619.699 256.487 L627.824 256.487 L627.824 258.686 L619.699 258.686 L619.699 265.909 L617.268 265.909 L617.268 258.686 L609.143 258.686 L609.143 256.487 L617.268 256.487 L617.268 249.265 L619.699 249.265 Z" fill="#000000" fill-rule="nonzero" fill-opacity="1" /><path clip-path="url(#clip780)" d="M297.807 321.205 L441.175 321.205 L441.175 279.733 L297.807 279.733 L297.807 321.205  Z" fill="#ff0000" fill-rule="evenodd" fill-opacity="0.35"/>
<polyline clip-path="url(#clip780)" style="stroke:#000000; stroke-linecap:round; stroke-linejoin:round; stroke-width:4; stroke-opacity:0; fill:none" points="297.807,279.733 441.175,279.733 "/>
<path clip-path="url(#clip780)" d="M465.07 307.517 L465.07 291.823 L469.329 291.823 L469.329 307.355 Q469.329 311.036 470.764 312.888 Q472.199 314.716 475.07 314.716 Q478.519 314.716 480.51 312.517 Q482.523 310.318 482.523 306.522 L482.523 291.823 L486.783 291.823 L486.783 317.749 L482.523 317.749 L482.523 313.767 Q480.973 316.128 478.912 317.286 Q476.875 318.42 474.167 318.42 Q469.699 318.42 467.385 315.642 Q465.07 312.864 465.07 307.517 M475.787 291.198 L475.787 291.198 Z" fill="#000000" fill-rule="nonzero" fill-opacity="1" /><path clip-path="url(#clip780)" d="M504.815 301.105 L504.815 308.327 L512.94 308.327 L512.94 310.526 L504.815 310.526 L504.815 317.749 L502.384 317.749 L502.384 310.526 L494.259 310.526 L494.259 308.327 L502.384 308.327 L502.384 301.105 L504.815 301.105 Z" fill="#000000" fill-rule="nonzero" fill-opacity="1" /><polyline clip-path="url(#clip780)" style="stroke:#008000; stroke-linecap:round; stroke-linejoin:round; stroke-width:12; stroke-opacity:1; fill:none" points="297.807,352.309 441.175,352.309 "/>
<path clip-path="url(#clip780)" d="M465.07 359.357 L465.07 343.663 L469.329 343.663 L469.329 359.195 Q469.329 362.876 470.764 364.728 Q472.199 366.556 475.07 366.556 Q478.519 366.556 480.51 364.357 Q482.523 362.158 482.523 358.362 L482.523 343.663 L486.783 343.663 L486.783 369.589 L482.523 369.589 L482.523 365.607 Q480.973 367.968 478.912 369.126 Q476.875 370.26 474.167 370.26 Q469.699 370.26 467.385 367.482 Q465.07 364.704 465.07 359.357 M475.787 343.038 L475.787 343.038 Z" fill="#000000" fill-rule="nonzero" fill-opacity="1" /><path clip-path="url(#clip780)" d="M505.394 355.121 L505.394 357.366 Q504.259 356.857 503.033 356.603 Q501.829 356.348 500.509 356.348 Q498.496 356.348 497.5 356.88 Q496.505 357.436 496.505 358.524 Q496.505 359.357 497.222 359.82 Q497.94 360.306 500.093 360.723 L501.019 360.908 Q503.912 361.464 505.07 362.436 Q506.273 363.431 506.273 365.214 Q506.273 367.228 504.468 368.408 Q502.685 369.589 499.537 369.589 Q498.218 369.589 496.783 369.357 Q495.371 369.126 493.797 368.686 L493.797 366.209 Q495.278 366.903 496.736 367.251 Q498.172 367.598 499.584 367.598 Q501.482 367.598 502.5 367.019 Q503.519 366.44 503.519 365.399 Q503.519 364.427 502.778 363.894 Q502.13 363.431 499.56 362.899 L498.634 362.714 Q496.134 362.228 495.023 361.278 Q493.912 360.306 493.912 358.616 Q493.912 356.579 495.556 355.468 Q497.176 354.334 500.185 354.334 Q501.667 354.334 502.986 354.542 Q504.306 354.728 505.394 355.121 Z" fill="#000000" fill-rule="nonzero" fill-opacity="1" /><polyline clip-path="url(#clip780)" style="stroke:#ffd700; stroke-linecap:round; stroke-linejoin:round; stroke-width:12; stroke-opacity:1; fill:none" points="297.807,404.149 441.175,404.149 "/>
<path clip-path="url(#clip780)" d="M483.496 396.267 L483.496 400.294 Q481.69 399.369 479.746 398.906 Q477.801 398.443 475.718 398.443 Q472.547 398.443 470.949 399.415 Q469.375 400.387 469.375 402.331 Q469.375 403.813 470.51 404.669 Q471.644 405.503 475.07 406.267 L476.528 406.591 Q481.065 407.563 482.963 409.345 Q484.885 411.105 484.885 414.276 Q484.885 417.887 482.014 419.993 Q479.167 422.1 474.167 422.1 Q472.084 422.1 469.815 421.683 Q467.57 421.29 465.07 420.48 L465.07 416.081 Q467.431 417.308 469.723 417.933 Q472.014 418.535 474.26 418.535 Q477.269 418.535 478.889 417.517 Q480.51 416.475 480.51 414.6 Q480.51 412.864 479.329 411.938 Q478.172 411.012 474.213 410.156 L472.732 409.808 Q468.774 408.975 467.014 407.262 Q465.255 405.526 465.255 402.517 Q465.255 398.859 467.848 396.869 Q470.44 394.878 475.209 394.878 Q477.57 394.878 479.653 395.225 Q481.736 395.572 483.496 396.267 Z" fill="#000000" fill-rule="nonzero" fill-opacity="1" /><path clip-path="url(#clip780)" d="M489.19 395.503 L493.449 395.503 L498.773 415.734 L504.074 395.503 L509.097 395.503 L514.421 415.734 L519.722 395.503 L523.982 395.503 L517.199 421.429 L512.176 421.429 L506.597 400.179 L500.996 421.429 L495.972 421.429 L489.19 395.503 Z" fill="#000000" fill-rule="nonzero" fill-opacity="1" /><path clip-path="url(#clip780)" d="M530.44 395.503 L534.699 395.503 L534.699 421.429 L530.44 421.429 L530.44 395.503 M530.44 385.41 L534.699 385.41 L534.699 390.804 L530.44 390.804 L530.44 385.41 Z" fill="#000000" fill-rule="nonzero" fill-opacity="1" /><path clip-path="url(#clip780)" d="M547.824 388.142 L547.824 395.503 L556.597 395.503 L556.597 398.813 L547.824 398.813 L547.824 412.887 Q547.824 416.058 548.68 416.961 Q549.56 417.864 552.222 417.864 L556.597 417.864 L556.597 421.429 L552.222 421.429 Q547.292 421.429 545.417 419.6 Q543.542 417.748 543.542 412.887 L543.542 398.813 L540.417 398.813 L540.417 395.503 L543.542 395.503 L543.542 388.142 L547.824 388.142 Z" fill="#000000" fill-rule="nonzero" fill-opacity="1" /><path clip-path="url(#clip780)" d="M580.856 396.498 L580.856 400.48 Q579.051 399.484 577.222 398.998 Q575.416 398.489 573.565 398.489 Q569.421 398.489 567.129 401.128 Q564.838 403.744 564.838 408.489 Q564.838 413.234 567.129 415.873 Q569.421 418.489 573.565 418.489 Q575.416 418.489 577.222 418.003 Q579.051 417.493 580.856 416.498 L580.856 420.433 Q579.074 421.267 577.153 421.683 Q575.254 422.1 573.102 422.1 Q567.245 422.1 563.796 418.419 Q560.347 414.739 560.347 408.489 Q560.347 402.146 563.819 398.512 Q567.315 394.878 573.379 394.878 Q575.347 394.878 577.222 395.295 Q579.097 395.688 580.856 396.498 Z" fill="#000000" fill-rule="nonzero" fill-opacity="1" /><path clip-path="url(#clip780)" d="M609.814 405.781 L609.814 421.429 L605.555 421.429 L605.555 405.919 Q605.555 402.239 604.12 400.41 Q602.685 398.582 599.814 398.582 Q596.365 398.582 594.375 400.781 Q592.384 402.98 592.384 406.776 L592.384 421.429 L588.102 421.429 L588.102 385.41 L592.384 385.41 L592.384 399.531 Q593.912 397.193 595.972 396.035 Q598.055 394.878 600.764 394.878 Q605.231 394.878 607.523 397.656 Q609.814 400.41 609.814 405.781 Z" fill="#000000" fill-rule="nonzero" fill-opacity="1" /><path clip-path="url(#clip780)" d="M618.31 395.503 L622.569 395.503 L622.569 421.429 L618.31 421.429 L618.31 395.503 M618.31 385.41 L622.569 385.41 L622.569 390.804 L618.31 390.804 L618.31 385.41 Z" fill="#000000" fill-rule="nonzero" fill-opacity="1" /><path clip-path="url(#clip780)" d="M653.032 405.781 L653.032 421.429 L648.773 421.429 L648.773 405.919 Q648.773 402.239 647.337 400.41 Q645.902 398.582 643.032 398.582 Q639.583 398.582 637.592 400.781 Q635.601 402.98 635.601 406.776 L635.601 421.429 L631.319 421.429 L631.319 395.503 L635.601 395.503 L635.601 399.531 Q637.129 397.193 639.189 396.035 Q641.273 394.878 643.981 394.878 Q648.448 394.878 650.74 397.656 Q653.032 400.41 653.032 405.781 Z" fill="#000000" fill-rule="nonzero" fill-opacity="1" /><path clip-path="url(#clip780)" d="M678.587 408.165 Q678.587 403.535 676.666 400.989 Q674.768 398.443 671.319 398.443 Q667.893 398.443 665.972 400.989 Q664.073 403.535 664.073 408.165 Q664.073 412.771 665.972 415.318 Q667.893 417.864 671.319 417.864 Q674.768 417.864 676.666 415.318 Q678.587 412.771 678.587 408.165 M682.846 418.211 Q682.846 424.831 679.907 428.049 Q676.967 431.29 670.902 431.29 Q668.657 431.29 666.666 430.942 Q664.675 430.618 662.8 429.924 L662.8 425.78 Q664.675 426.799 666.504 427.285 Q668.333 427.771 670.231 427.771 Q674.421 427.771 676.504 425.572 Q678.587 423.396 678.587 418.975 L678.587 416.868 Q677.268 419.16 675.208 420.294 Q673.147 421.429 670.277 421.429 Q665.509 421.429 662.592 417.794 Q659.675 414.16 659.675 408.165 Q659.675 402.146 662.592 398.512 Q665.509 394.878 670.277 394.878 Q673.147 394.878 675.208 396.012 Q677.268 397.146 678.587 399.438 L678.587 395.503 L682.846 395.503 L682.846 418.211 Z" fill="#000000" fill-rule="nonzero" fill-opacity="1" /><path clip-path="url(#clip780)" d="M706.689 385.41 L710.948 385.41 L710.948 421.429 L706.689 421.429 L706.689 385.41 Z" fill="#000000" fill-rule="nonzero" fill-opacity="1" /><path clip-path="url(#clip780)" d="M729.906 398.489 Q726.48 398.489 724.49 401.174 Q722.499 403.836 722.499 408.489 Q722.499 413.142 724.467 415.827 Q726.457 418.489 729.906 418.489 Q733.309 418.489 735.3 415.804 Q737.291 413.118 737.291 408.489 Q737.291 403.882 735.3 401.197 Q733.309 398.489 729.906 398.489 M729.906 394.878 Q735.462 394.878 738.633 398.489 Q741.804 402.1 741.804 408.489 Q741.804 414.855 738.633 418.489 Q735.462 422.1 729.906 422.1 Q724.328 422.1 721.156 418.489 Q718.008 414.855 718.008 408.489 Q718.008 402.1 721.156 398.489 Q724.328 394.878 729.906 394.878 Z" fill="#000000" fill-rule="nonzero" fill-opacity="1" /><path clip-path="url(#clip780)" d="M767.522 396.498 L767.522 400.48 Q765.716 399.484 763.888 398.998 Q762.082 398.489 760.23 398.489 Q756.087 398.489 753.795 401.128 Q751.503 403.744 751.503 408.489 Q751.503 413.234 753.795 415.873 Q756.087 418.489 760.23 418.489 Q762.082 418.489 763.888 418.003 Q765.716 417.493 767.522 416.498 L767.522 420.433 Q765.74 421.267 763.818 421.683 Q761.92 422.1 759.767 422.1 Q753.911 422.1 750.462 418.419 Q747.013 414.739 747.013 408.489 Q747.013 402.146 750.485 398.512 Q753.98 394.878 760.045 394.878 Q762.013 394.878 763.888 395.295 Q765.763 395.688 767.522 396.498 Z" fill="#000000" fill-rule="nonzero" fill-opacity="1" /><path clip-path="url(#clip780)" d="M774.489 411.197 L774.489 395.503 L778.749 395.503 L778.749 411.035 Q778.749 414.716 780.184 416.568 Q781.619 418.396 784.489 418.396 Q787.938 418.396 789.929 416.197 Q791.943 413.998 791.943 410.202 L791.943 395.503 L796.202 395.503 L796.202 421.429 L791.943 421.429 L791.943 417.447 Q790.392 419.808 788.332 420.966 Q786.295 422.1 783.587 422.1 Q779.119 422.1 776.804 419.322 Q774.489 416.544 774.489 411.197 M785.207 394.878 L785.207 394.878 Z" fill="#000000" fill-rule="nonzero" fill-opacity="1" /><path clip-path="url(#clip780)" d="M821.503 396.267 L821.503 400.294 Q819.698 399.369 817.753 398.906 Q815.809 398.443 813.725 398.443 Q810.554 398.443 808.957 399.415 Q807.383 400.387 807.383 402.331 Q807.383 403.813 808.517 404.669 Q809.651 405.503 813.077 406.267 L814.536 406.591 Q819.073 407.563 820.971 409.345 Q822.892 411.105 822.892 414.276 Q822.892 417.887 820.022 419.993 Q817.174 422.1 812.174 422.1 Q810.091 422.1 807.823 421.683 Q805.577 421.29 803.077 420.48 L803.077 416.081 Q805.438 417.308 807.73 417.933 Q810.022 418.535 812.267 418.535 Q815.276 418.535 816.897 417.517 Q818.517 416.475 818.517 414.6 Q818.517 412.864 817.336 411.938 Q816.179 411.012 812.221 410.156 L810.739 409.808 Q806.781 408.975 805.022 407.262 Q803.262 405.526 803.262 402.517 Q803.262 398.859 805.855 396.869 Q808.448 394.878 813.216 394.878 Q815.577 394.878 817.661 395.225 Q819.744 395.572 821.503 396.267 Z" fill="#000000" fill-rule="nonzero" fill-opacity="1" /></svg>
