<?xml version="1.0" encoding="utf-8"?>
<svg xmlns="http://www.w3.org/2000/svg" xmlns:xlink="http://www.w3.org/1999/xlink" width="600" height="280" viewBox="0 0 2400 1120">
<defs>
  <clipPath id="clip600">
    <rect x="0" y="0" width="2400" height="1120"/>
  </clipPath>
</defs>
<path clip-path="url(#clip600)" d="M0 1120 L2400 1120 L2400 0 L0 0  Z" fill="#ffffff" fill-rule="evenodd" fill-opacity="1"/>
<defs>
  <clipPath id="clip601">
    <rect x="480" y="0" width="1681" height="1120"/>
  </clipPath>
</defs>
<path clip-path="url(#clip600)" d="M155.765 412.604 L1133.55 412.604 L1133.55 47.2441 L155.765 47.2441  Z" fill="#ffffff" fill-rule="evenodd" fill-opacity="1"/>
<defs>
  <clipPath id="clip602">
    <rect x="155" y="47" width="979" height="366"/>
  </clipPath>
</defs>
<polyline clip-path="url(#clip602)" style="stroke:#000000; stroke-linecap:round; stroke-linejoin:round; stroke-width:2; stroke-opacity:0.1; fill:none" points="183.438,412.604 183.438,47.2441 "/>
<polyline clip-path="url(#clip602)" style="stroke:#000000; stroke-linecap:round; stroke-linejoin:round; stroke-width:2; stroke-opacity:0.1; fill:none" points="414.049,412.604 414.049,47.2441 "/>
<polyline clip-path="url(#clip602)" style="stroke:#000000; stroke-linecap:round; stroke-linejoin:round; stroke-width:2; stroke-opacity:0.1; fill:none" points="644.66,412.604 644.66,47.2441 "/>
<polyline clip-path="url(#clip602)" style="stroke:#000000; stroke-linecap:round; stroke-linejoin:round; stroke-width:2; stroke-opacity:0.1; fill:none" points="875.271,412.604 875.271,47.2441 "/>
<polyline clip-path="url(#clip602)" style="stroke:#000000; stroke-linecap:round; stroke-linejoin:round; stroke-width:2; stroke-opacity:0.1; fill:none" points="1105.88,412.604 1105.88,47.2441 "/>
<polyline clip-path="url(#clip602)" style="stroke:#000000; stroke-linecap:round; stroke-linejoin:round; stroke-width:2; stroke-opacity:0.1; fill:none" points="155.765,402.263 1133.55,402.263 "/>
<polyline clip-path="url(#clip602)" style="stroke:#000000; stroke-linecap:round; stroke-linejoin:round; stroke-width:2; stroke-opacity:0.1; fill:none" points="155.765,323.357 1133.55,323.357 "/>
<polyline clip-path="url(#clip602)" style="stroke:#000000; stroke-linecap:round; stroke-linejoin:round; stroke-width:2; stroke-opacity:0.1; fill:none" points="155.765,244.451 1133.55,244.451 "/>
<polyline clip-path="url(#clip602)" style="stroke:#000000; stroke-linecap:round; stroke-linejoin:round; stroke-width:2; stroke-opacity:0.1; fill:none" points="155.765,165.545 1133.55,165.545 "/>
<polyline clip-path="url(#clip602)" style="stroke:#000000; stroke-linecap:round; stroke-linejoin:round; stroke-width:2; stroke-opacity:0.1; fill:none" points="155.765,86.6384 1133.55,86.6384 "/>
<polyline clip-path="url(#clip600)" style="stroke:#000000; stroke-linecap:round; stroke-linejoin:round; stroke-width:4; stroke-opacity:1; fill:none" points="155.765,412.604 1133.55,412.604 "/>
<polyline clip-path="url(#clip600)" style="stroke:#000000; stroke-linecap:round; stroke-linejoin:round; stroke-width:4; stroke-opacity:1; fill:none" points="183.438,412.604 183.438,393.706 "/>
<polyline clip-path="url(#clip600)" style="stroke:#000000; stroke-linecap:round; stroke-linejoin:round; stroke-width:4; stroke-opacity:1; fill:none" points="414.049,412.604 414.049,393.706 "/>
<polyline clip-path="url(#clip600)" style="stroke:#000000; stroke-linecap:round; stroke-linejoin:round; stroke-width:4; stroke-opacity:1; fill:none" points="644.66,412.604 644.66,393.706 "/>
<polyline clip-path="url(#clip600)" style="stroke:#000000; stroke-linecap:round; stroke-linejoin:round; stroke-width:4; stroke-opacity:1; fill:none" points="875.271,412.604 875.271,393.706 "/>
<polyline clip-path="url(#clip600)" style="stroke:#000000; stroke-linecap:round; stroke-linejoin:round; stroke-width:4; stroke-opacity:1; fill:none" points="1105.88,412.604 1105.88,393.706 "/>
<path clip-path="url(#clip600)" d="M160.823 443.523 Q157.211 443.523 155.383 447.087 Q153.577 450.629 153.577 457.759 Q153.577 464.865 155.383 468.43 Q157.211 471.971 160.823 471.971 Q164.457 471.971 166.262 468.43 Q168.091 464.865 168.091 457.759 Q168.091 450.629 166.262 447.087 Q164.457 443.523 160.823 443.523 M160.823 439.819 Q166.633 439.819 169.688 444.425 Q172.767 449.009 172.767 457.759 Q172.767 466.485 169.688 471.092 Q166.633 475.675 160.823 475.675 Q155.012 475.675 151.934 471.092 Q148.878 466.485 148.878 457.759 Q148.878 449.009 151.934 444.425 Q155.012 439.819 160.823 439.819 Z" fill="#000000" fill-rule="nonzero" fill-opacity="1" /><path clip-path="url(#clip600)" d="M180.985 469.124 L185.869 469.124 L185.869 475.004 L180.985 475.004 L180.985 469.124 Z" fill="#000000" fill-rule="nonzero" fill-opacity="1" /><path clip-path="url(#clip600)" d="M206.054 443.523 Q202.443 443.523 200.614 447.087 Q198.808 450.629 198.808 457.759 Q198.808 464.865 200.614 468.43 Q202.443 471.971 206.054 471.971 Q209.688 471.971 211.494 468.43 Q213.322 464.865 213.322 457.759 Q213.322 450.629 211.494 447.087 Q209.688 443.523 206.054 443.523 M206.054 439.819 Q211.864 439.819 214.92 444.425 Q217.998 449.009 217.998 457.759 Q217.998 466.485 214.92 471.092 Q211.864 475.675 206.054 475.675 Q200.244 475.675 197.165 471.092 Q194.109 466.485 194.109 457.759 Q194.109 449.009 197.165 444.425 Q200.244 439.819 206.054 439.819 Z" fill="#000000" fill-rule="nonzero" fill-opacity="1" /><path clip-path="url(#clip600)" d="M385.785 471.069 L402.105 471.069 L402.105 475.004 L380.16 475.004 L380.16 471.069 Q382.822 468.314 387.406 463.684 Q392.012 459.032 393.193 457.689 Q395.438 455.166 396.318 453.43 Q397.22 451.671 397.22 449.981 Q397.22 447.226 395.276 445.49 Q393.355 443.754 390.253 443.754 Q388.054 443.754 385.6 444.518 Q383.17 445.282 380.392 446.833 L380.392 442.111 Q383.216 440.976 385.67 440.398 Q388.123 439.819 390.16 439.819 Q395.531 439.819 398.725 442.504 Q401.919 445.189 401.919 449.68 Q401.919 451.81 401.109 453.731 Q400.322 455.629 398.216 458.222 Q397.637 458.893 394.535 462.11 Q391.433 465.305 385.785 471.069 Z" fill="#000000" fill-rule="nonzero" fill-opacity="1" /><path clip-path="url(#clip600)" d="M411.919 469.124 L416.804 469.124 L416.804 475.004 L411.919 475.004 L411.919 469.124 Z" fill="#000000" fill-rule="nonzero" fill-opacity="1" /><path clip-path="url(#clip600)" d="M427.035 440.444 L445.391 440.444 L445.391 444.379 L431.317 444.379 L431.317 452.851 Q432.336 452.504 433.354 452.342 Q434.373 452.157 435.391 452.157 Q441.178 452.157 444.558 455.328 Q447.938 458.499 447.938 463.916 Q447.938 469.495 444.465 472.596 Q440.993 475.675 434.674 475.675 Q432.498 475.675 430.229 475.305 Q427.984 474.934 425.577 474.194 L425.577 469.495 Q427.66 470.629 429.882 471.184 Q432.104 471.74 434.581 471.74 Q438.586 471.74 440.924 469.634 Q443.262 467.527 443.262 463.916 Q443.262 460.305 440.924 458.198 Q438.586 456.092 434.581 456.092 Q432.706 456.092 430.831 456.509 Q428.979 456.925 427.035 457.805 L427.035 440.444 Z" fill="#000000" fill-rule="nonzero" fill-opacity="1" /><path clip-path="url(#clip600)" d="M611.824 440.444 L630.181 440.444 L630.181 444.379 L616.107 444.379 L616.107 452.851 Q617.125 452.504 618.144 452.342 Q619.162 452.157 620.181 452.157 Q625.968 452.157 629.347 455.328 Q632.727 458.499 632.727 463.916 Q632.727 469.495 629.255 472.596 Q625.783 475.675 619.463 475.675 Q617.287 475.675 615.019 475.305 Q612.773 474.934 610.366 474.194 L610.366 469.495 Q612.449 470.629 614.671 471.184 Q616.894 471.74 619.371 471.74 Q623.375 471.74 625.713 469.634 Q628.051 467.527 628.051 463.916 Q628.051 460.305 625.713 458.198 Q623.375 456.092 619.371 456.092 Q617.496 456.092 615.621 456.509 Q613.769 456.925 611.824 457.805 L611.824 440.444 Z" fill="#000000" fill-rule="nonzero" fill-opacity="1" /><path clip-path="url(#clip600)" d="M641.94 469.124 L646.824 469.124 L646.824 475.004 L641.94 475.004 L641.94 469.124 Z" fill="#000000" fill-rule="nonzero" fill-opacity="1" /><path clip-path="url(#clip600)" d="M667.009 443.523 Q663.398 443.523 661.569 447.087 Q659.764 450.629 659.764 457.759 Q659.764 464.865 661.569 468.43 Q663.398 471.971 667.009 471.971 Q670.643 471.971 672.449 468.43 Q674.278 464.865 674.278 457.759 Q674.278 450.629 672.449 447.087 Q670.643 443.523 667.009 443.523 M667.009 439.819 Q672.819 439.819 675.875 444.425 Q678.954 449.009 678.954 457.759 Q678.954 466.485 675.875 471.092 Q672.819 475.675 667.009 475.675 Q661.199 475.675 658.12 471.092 Q655.065 466.485 655.065 457.759 Q655.065 449.009 658.12 444.425 Q661.199 439.819 667.009 439.819 Z" fill="#000000" fill-rule="nonzero" fill-opacity="1" /><path clip-path="url(#clip600)" d="M841.59 440.444 L863.812 440.444 L863.812 442.435 L851.266 475.004 L846.382 475.004 L858.187 444.379 L841.59 444.379 L841.59 440.444 Z" fill="#000000" fill-rule="nonzero" fill-opacity="1" /><path clip-path="url(#clip600)" d="M872.933 469.124 L877.817 469.124 L877.817 475.004 L872.933 475.004 L872.933 469.124 Z" fill="#000000" fill-rule="nonzero" fill-opacity="1" /><path clip-path="url(#clip600)" d="M888.048 440.444 L906.405 440.444 L906.405 444.379 L892.331 444.379 L892.331 452.851 Q893.349 452.504 894.368 452.342 Q895.386 452.157 896.405 452.157 Q902.192 452.157 905.571 455.328 Q908.951 458.499 908.951 463.916 Q908.951 469.495 905.479 472.596 Q902.007 475.675 895.687 475.675 Q893.511 475.675 891.243 475.305 Q888.997 474.934 886.59 474.194 L886.59 469.495 Q888.673 470.629 890.895 471.184 Q893.118 471.74 895.595 471.74 Q899.599 471.74 901.937 469.634 Q904.275 467.527 904.275 463.916 Q904.275 460.305 901.937 458.198 Q899.599 456.092 895.595 456.092 Q893.72 456.092 891.845 456.509 Q889.993 456.925 888.048 457.805 L888.048 440.444 Z" fill="#000000" fill-rule="nonzero" fill-opacity="1" /><path clip-path="url(#clip600)" d="M1057.95 471.069 L1065.59 471.069 L1065.59 444.703 L1057.28 446.37 L1057.28 442.111 L1065.55 440.444 L1070.22 440.444 L1070.22 471.069 L1077.86 471.069 L1077.86 475.004 L1057.95 475.004 L1057.95 471.069 Z" fill="#000000" fill-rule="nonzero" fill-opacity="1" /><path clip-path="url(#clip600)" d="M1097.3 443.523 Q1093.69 443.523 1091.87 447.087 Q1090.06 450.629 1090.06 457.759 Q1090.06 464.865 1091.87 468.43 Q1093.69 471.971 1097.3 471.971 Q1100.94 471.971 1102.74 468.43 Q1104.57 464.865 1104.57 457.759 Q1104.57 450.629 1102.74 447.087 Q1100.94 443.523 1097.3 443.523 M1097.3 439.819 Q1103.12 439.819 1106.17 444.425 Q1109.25 449.009 1109.25 457.759 Q1109.25 466.485 1106.17 471.092 Q1103.12 475.675 1097.3 475.675 Q1091.49 475.675 1088.42 471.092 Q1085.36 466.485 1085.36 457.759 Q1085.36 449.009 1088.42 444.425 Q1091.49 439.819 1097.3 439.819 Z" fill="#000000" fill-rule="nonzero" fill-opacity="1" /><path clip-path="url(#clip600)" d="M1117.47 469.124 L1122.35 469.124 L1122.35 475.004 L1117.47 475.004 L1117.47 469.124 Z" fill="#000000" fill-rule="nonzero" fill-opacity="1" /><path clip-path="url(#clip600)" d="M1142.54 443.523 Q1138.93 443.523 1137.1 447.087 Q1135.29 450.629 1135.29 457.759 Q1135.29 464.865 1137.1 468.43 Q1138.93 471.971 1142.54 471.971 Q1146.17 471.971 1147.98 468.43 Q1149.8 464.865 1149.8 457.759 Q1149.8 450.629 1147.98 447.087 Q1146.17 443.523 1142.54 443.523 M1142.54 439.819 Q1148.35 439.819 1151.4 444.425 Q1154.48 449.009 1154.48 457.759 Q1154.48 466.485 1151.4 471.092 Q1148.35 475.675 1142.54 475.675 Q1136.73 475.675 1133.65 471.092 Q1130.59 466.485 1130.59 457.759 Q1130.59 449.009 1133.65 444.425 Q1136.73 439.819 1142.54 439.819 Z" fill="#000000" fill-rule="nonzero" fill-opacity="1" /><path clip-path="url(#clip600)" d="M643.721 511.698 L643.721 521.82 L655.784 521.82 L655.784 526.371 L643.721 526.371 L643.721 545.723 Q643.721 550.084 644.898 551.325 Q646.108 552.566 649.768 552.566 L655.784 552.566 L655.784 557.468 L649.768 557.468 Q642.989 557.468 640.411 554.953 Q637.833 552.407 637.833 545.723 L637.833 526.371 L633.536 526.371 L633.536 521.82 L637.833 521.82 L637.833 511.698 L643.721 511.698 Z" fill="#000000" fill-rule="nonzero" fill-opacity="1" /><polyline clip-path="url(#clip600)" style="stroke:#000000; stroke-linecap:round; stroke-linejoin:round; stroke-width:4; stroke-opacity:1; fill:none" points="155.765,412.604 155.765,47.2441 "/>
<polyline clip-path="url(#clip600)" style="stroke:#000000; stroke-linecap:round; stroke-linejoin:round; stroke-width:4; stroke-opacity:1; fill:none" points="155.765,402.263 174.663,402.263 "/>
<polyline clip-path="url(#clip600)" style="stroke:#000000; stroke-linecap:round; stroke-linejoin:round; stroke-width:4; stroke-opacity:1; fill:none" points="155.765,323.357 174.663,323.357 "/>
<polyline clip-path="url(#clip600)" style="stroke:#000000; stroke-linecap:round; stroke-linejoin:round; stroke-width:4; stroke-opacity:1; fill:none" points="155.765,244.451 174.663,244.451 "/>
<polyline clip-path="url(#clip600)" style="stroke:#000000; stroke-linecap:round; stroke-linejoin:round; stroke-width:4; stroke-opacity:1; fill:none" points="155.765,165.545 174.663,165.545 "/>
<polyline clip-path="url(#clip600)" style="stroke:#000000; stroke-linecap:round; stroke-linejoin:round; stroke-width:4; stroke-opacity:1; fill:none" points="155.765,86.6384 174.663,86.6384 "/>
<path clip-path="url(#clip600)" d="M53.3995 415.608 L61.0384 415.608 L61.0384 389.243 L52.7282 390.909 L52.7282 386.65 L60.9921 384.983 L65.668 384.983 L65.668 415.608 L73.3068 415.608 L73.3068 419.543 L53.3995 419.543 L53.3995 415.608 Z" fill="#000000" fill-rule="nonzero" fill-opacity="1" /><path clip-path="url(#clip600)" d="M82.7512 413.664 L87.6354 413.664 L87.6354 419.543 L82.7512 419.543 L82.7512 413.664 Z" fill="#000000" fill-rule="nonzero" fill-opacity="1" /><path clip-path="url(#clip600)" d="M107.821 388.062 Q104.209 388.062 102.381 391.627 Q100.575 395.169 100.575 402.298 Q100.575 409.405 102.381 412.969 Q104.209 416.511 107.821 416.511 Q111.455 416.511 113.26 412.969 Q115.089 409.405 115.089 402.298 Q115.089 395.169 113.26 391.627 Q111.455 388.062 107.821 388.062 M107.821 384.358 Q113.631 384.358 116.686 388.965 Q119.765 393.548 119.765 402.298 Q119.765 411.025 116.686 415.631 Q113.631 420.215 107.821 420.215 Q102.01 420.215 98.9317 415.631 Q95.8761 411.025 95.8761 402.298 Q95.8761 393.548 98.9317 388.965 Q102.01 384.358 107.821 384.358 Z" fill="#000000" fill-rule="nonzero" fill-opacity="1" /><path clip-path="url(#clip600)" d="M54.3949 336.702 L62.0337 336.702 L62.0337 310.336 L53.7236 312.003 L53.7236 307.744 L61.9874 306.077 L66.6633 306.077 L66.6633 336.702 L74.3022 336.702 L74.3022 340.637 L54.3949 340.637 L54.3949 336.702 Z" fill="#000000" fill-rule="nonzero" fill-opacity="1" /><path clip-path="url(#clip600)" d="M83.7466 334.758 L88.6308 334.758 L88.6308 340.637 L83.7466 340.637 L83.7466 334.758 Z" fill="#000000" fill-rule="nonzero" fill-opacity="1" /><path clip-path="url(#clip600)" d="M98.8622 306.077 L117.219 306.077 L117.219 310.012 L103.145 310.012 L103.145 318.485 Q104.163 318.137 105.182 317.975 Q106.2 317.79 107.219 317.79 Q113.006 317.79 116.385 320.961 Q119.765 324.133 119.765 329.549 Q119.765 335.128 116.293 338.23 Q112.82 341.309 106.501 341.309 Q104.325 341.309 102.057 340.938 Q99.8113 340.568 97.4039 339.827 L97.4039 335.128 Q99.4872 336.262 101.709 336.818 Q103.932 337.373 106.408 337.373 Q110.413 337.373 112.751 335.267 Q115.089 333.16 115.089 329.549 Q115.089 325.938 112.751 323.832 Q110.413 321.725 106.408 321.725 Q104.534 321.725 102.659 322.142 Q100.807 322.559 98.8622 323.438 L98.8622 306.077 Z" fill="#000000" fill-rule="nonzero" fill-opacity="1" /><path clip-path="url(#clip600)" d="M56.6171 257.796 L72.9365 257.796 L72.9365 261.731 L50.9921 261.731 L50.9921 257.796 Q53.6541 255.041 58.2375 250.412 Q62.8439 245.759 64.0245 244.416 Q66.2698 241.893 67.1494 240.157 Q68.0522 238.398 68.0522 236.708 Q68.0522 233.953 66.1078 232.217 Q64.1865 230.481 61.0847 230.481 Q58.8856 230.481 56.4319 231.245 Q54.0014 232.009 51.2236 233.56 L51.2236 228.838 Q54.0477 227.703 56.5014 227.125 Q58.955 226.546 60.9921 226.546 Q66.3624 226.546 69.5568 229.231 Q72.7513 231.916 72.7513 236.407 Q72.7513 238.537 71.9411 240.458 Q71.1541 242.356 69.0476 244.949 Q68.4689 245.62 65.367 248.837 Q62.2652 252.032 56.6171 257.796 Z" fill="#000000" fill-rule="nonzero" fill-opacity="1" /><path clip-path="url(#clip600)" d="M82.7512 255.851 L87.6354 255.851 L87.6354 261.731 L82.7512 261.731 L82.7512 255.851 Z" fill="#000000" fill-rule="nonzero" fill-opacity="1" /><path clip-path="url(#clip600)" d="M107.821 230.25 Q104.209 230.25 102.381 233.814 Q100.575 237.356 100.575 244.486 Q100.575 251.592 102.381 255.157 Q104.209 258.699 107.821 258.699 Q111.455 258.699 113.26 255.157 Q115.089 251.592 115.089 244.486 Q115.089 237.356 113.26 233.814 Q111.455 230.25 107.821 230.25 M107.821 226.546 Q113.631 226.546 116.686 231.152 Q119.765 235.736 119.765 244.486 Q119.765 253.212 116.686 257.819 Q113.631 262.402 107.821 262.402 Q102.01 262.402 98.9317 257.819 Q95.8761 253.212 95.8761 244.486 Q95.8761 235.736 98.9317 231.152 Q102.01 226.546 107.821 226.546 Z" fill="#000000" fill-rule="nonzero" fill-opacity="1" /><path clip-path="url(#clip600)" d="M57.6125 178.89 L73.9318 178.89 L73.9318 182.825 L51.9875 182.825 L51.9875 178.89 Q54.6495 176.135 59.2328 171.505 Q63.8393 166.853 65.0198 165.51 Q67.2652 162.987 68.1448 161.251 Q69.0476 159.491 69.0476 157.802 Q69.0476 155.047 67.1032 153.311 Q65.1819 151.575 62.08 151.575 Q59.881 151.575 57.4273 152.339 Q54.9967 153.103 52.219 154.654 L52.219 149.931 Q55.043 148.797 57.4967 148.218 Q59.9504 147.64 61.9874 147.64 Q67.3578 147.64 70.5522 150.325 Q73.7466 153.01 73.7466 157.501 Q73.7466 159.63 72.9365 161.552 Q72.1494 163.45 70.0429 166.042 Q69.4642 166.714 66.3624 169.931 Q63.2606 173.126 57.6125 178.89 Z" fill="#000000" fill-rule="nonzero" fill-opacity="1" /><path clip-path="url(#clip600)" d="M83.7466 176.945 L88.6308 176.945 L88.6308 182.825 L83.7466 182.825 L83.7466 176.945 Z" fill="#000000" fill-rule="nonzero" fill-opacity="1" /><path clip-path="url(#clip600)" d="M98.8622 148.265 L117.219 148.265 L117.219 152.2 L103.145 152.2 L103.145 160.672 Q104.163 160.325 105.182 160.163 Q106.2 159.978 107.219 159.978 Q113.006 159.978 116.385 163.149 Q119.765 166.32 119.765 171.737 Q119.765 177.315 116.293 180.417 Q112.82 183.496 106.501 183.496 Q104.325 183.496 102.057 183.126 Q99.8113 182.755 97.4039 182.015 L97.4039 177.315 Q99.4872 178.45 101.709 179.005 Q103.932 179.561 106.408 179.561 Q110.413 179.561 112.751 177.454 Q115.089 175.348 115.089 171.737 Q115.089 168.126 112.751 166.019 Q110.413 163.913 106.408 163.913 Q104.534 163.913 102.659 164.329 Q100.807 164.746 98.8622 165.626 L98.8622 148.265 Z" fill="#000000" fill-rule="nonzero" fill-opacity="1" /><path clip-path="url(#clip600)" d="M66.7559 85.2843 Q70.1124 86.0019 71.9874 88.2704 Q73.8855 90.5389 73.8855 93.8722 Q73.8855 98.9879 70.367 101.789 Q66.8485 104.59 60.3671 104.59 Q58.1912 104.59 55.8764 104.15 Q53.5847 103.733 51.131 102.877 L51.131 98.3629 Q53.0754 99.4972 55.3903 100.076 Q57.7051 100.655 60.2282 100.655 Q64.6263 100.655 66.918 98.9184 Q69.2328 97.1823 69.2328 93.8722 Q69.2328 90.8166 67.08 89.1037 Q64.9504 87.3676 61.131 87.3676 L57.1032 87.3676 L57.1032 83.525 L61.3161 83.525 Q64.7652 83.525 66.5939 82.1593 Q68.4226 80.7704 68.4226 78.1778 Q68.4226 75.5158 66.5245 74.1038 Q64.6495 72.6686 61.131 72.6686 Q59.2097 72.6686 57.0106 73.0853 Q54.8115 73.5019 52.1727 74.3815 L52.1727 70.2149 Q54.8347 69.4742 57.1495 69.1038 Q59.4875 68.7334 61.5476 68.7334 Q66.8717 68.7334 69.9735 71.164 Q73.0753 73.5714 73.0753 77.6917 Q73.0753 80.5621 71.4318 82.5528 Q69.7883 84.5204 66.7559 85.2843 Z" fill="#000000" fill-rule="nonzero" fill-opacity="1" /><path clip-path="url(#clip600)" d="M82.7512 98.0388 L87.6354 98.0388 L87.6354 103.918 L82.7512 103.918 L82.7512 98.0388 Z" fill="#000000" fill-rule="nonzero" fill-opacity="1" /><path clip-path="url(#clip600)" d="M107.821 72.4371 Q104.209 72.4371 102.381 76.0019 Q100.575 79.5436 100.575 86.6731 Q100.575 93.7796 102.381 97.3444 Q104.209 100.886 107.821 100.886 Q111.455 100.886 113.26 97.3444 Q115.089 93.7796 115.089 86.6731 Q115.089 79.5436 113.26 76.0019 Q111.455 72.4371 107.821 72.4371 M107.821 68.7334 Q113.631 68.7334 116.686 73.3399 Q119.765 77.9232 119.765 86.6731 Q119.765 95.3999 116.686 100.006 Q113.631 104.59 107.821 104.59 Q102.01 104.59 98.9317 100.006 Q95.8761 95.3999 95.8761 86.6731 Q95.8761 77.9232 98.9317 73.3399 Q102.01 68.7334 107.821 68.7334 Z" fill="#000000" fill-rule="nonzero" fill-opacity="1" /><polyline clip-path="url(#clip602)" style="stroke:#009af9; stroke-linecap:round; stroke-linejoin:round; stroke-width:4; stroke-opacity:1; fill:none" points="183.438,402.263 187.128,399.123 190.818,396.013 194.508,392.932 198.197,389.881 201.887,386.858 205.577,383.862 209.267,380.893 212.956,377.949 216.646,375.031 220.336,372.138 224.026,369.269 227.715,366.423 231.405,363.6 235.095,360.799 238.785,358.02 242.475,355.262 246.164,352.525 249.854,349.809 253.544,347.112 257.234,344.435 260.923,341.777 264.613,339.138 268.303,336.516 271.993,333.913 275.683,331.327 279.372,328.759 283.062,326.207 286.752,323.672 290.442,321.153 294.131,318.65 297.821,316.163 301.511,313.69 305.201,311.233 308.89,308.791 312.58,306.363 316.27,303.949 319.96,301.55 323.65,299.164 327.339,296.792 331.029,294.433 334.719,292.087 338.409,289.754 342.098,287.433 345.788,285.125 349.478,282.83 353.168,280.546 356.858,278.275 360.547,276.016 364.237,273.769 367.927,271.536 371.617,269.339 375.306,268.183 378.996,268.167 382.686,268.179 386.376,268.17 390.065,268.177 393.755,268.171 397.445,268.176 401.135,268.172 404.825,268.175 408.514,268.173 412.204,268.174 415.894,268.173 419.584,268.174 423.273,268.173 426.963,268.174 430.653,268.173 434.343,268.174 438.033,268.174 441.722,268.174 445.412,268.174 449.102,268.174 452.792,268.174 456.481,268.174 460.171,268.174 463.861,268.174 467.551,268.174 471.24,268.174 474.93,268.174 478.62,268.174 482.31,268.174 486,268.174 489.689,268.174 493.379,268.174 497.069,268.174 500.759,268.174 504.448,268.174 508.138,268.174 511.828,268.174 515.518,268.174 519.207,268.174 522.897,268.174 526.587,268.174 530.277,268.174 533.967,268.174 537.656,268.174 541.346,268.174 545.036,268.174 548.726,268.174 552.415,268.174 556.105,268.174 559.795,268.174 563.485,268.174 567.175,268.174 570.864,268.174 574.554,268.174 578.244,268.174 581.934,268.174 585.623,268.174 589.313,268.174 593.003,268.174 596.693,268.174 600.382,268.173 604.072,268.174 607.762,268.173 611.452,268.174 615.142,268.173 618.831,268.175 622.521,268.173 626.211,268.175 629.901,268.172 633.59,268.176 637.28,268.171 640.97,268.178 644.66,268.169 648.35,268.18 652.039,268.165 655.729,268.183 659.419,268.159 663.109,268.189 666.798,268.148 670.488,268.196 674.178,267.377 677.868,265.233 681.557,263.044 685.247,260.861 688.937,258.688 692.627,256.524 696.317,254.37 700.006,252.226 703.696,250.092 707.386,247.968 711.076,245.853 714.765,243.747 718.455,241.651 722.145,239.564 725.835,237.486 729.525,235.417 733.214,233.356 736.904,231.305 740.594,229.262 744.284,227.227 747.973,225.201 751.663,223.183 755.353,221.174 759.043,219.172 762.732,217.179 766.422,215.193 770.112,213.215 773.802,211.245 777.492,209.283 781.181,207.328 784.871,205.381 788.561,203.44 792.251,201.508 795.94,199.582 799.63,197.664 803.32,195.752 807.01,193.848 810.7,191.95 814.389,190.06 818.079,188.176 821.769,186.298 825.459,184.428 829.148,182.563 832.838,180.706 836.528,178.855 840.218,177.01 843.907,175.171 847.597,173.338 851.287,171.512 854.977,169.692 858.667,167.878 862.356,166.069 866.046,164.267 869.736,162.471 873.426,160.68 877.115,158.895 880.805,157.116 884.495,155.342 888.185,153.574 891.875,151.811 895.564,150.054 899.254,148.303 902.944,146.556 906.634,144.815 910.323,143.08 914.013,141.349 917.703,139.624 921.393,137.904 925.082,136.189 928.772,134.479 932.462,132.774 936.152,131.073 939.842,129.378 943.531,127.688 947.221,126.003 950.911,124.322 954.601,122.646 958.29,120.975 961.98,119.308 965.67,117.646 969.36,115.989 973.05,114.336 976.739,112.688 980.429,111.044 984.119,109.404 987.809,107.77 991.498,106.139 995.188,104.513 998.878,102.891 1002.57,101.273 1006.26,99.6595 1009.95,98.0502 1013.64,96.4451 1017.33,94.8442 1021.02,93.2473 1024.71,91.6545 1028.4,90.0658 1032.09,88.481 1035.78,86.9003 1039.47,85.3235 1043.16,83.7506 1046.84,82.1816 1050.53,80.6164 1054.22,79.0551 1057.91,77.4976 1061.6,75.9439 1065.29,74.394 1068.98,72.8477 1072.67,71.3052 1076.36,69.7663 1080.05,68.2311 1083.74,66.6995 1087.43,65.1715 1091.12,63.647 1094.81,62.1261 1098.5,60.6088 1102.19,59.0949 1105.88,57.5845 "/>
<path clip-path="url(#clip600)" d="M188.358 163.103 L323.984 163.103 L323.984 59.4228 L188.358 59.4228  Z" fill="#ffffff" fill-rule="evenodd" fill-opacity="1"/>
<polyline clip-path="url(#clip600)" style="stroke:#000000; stroke-linecap:round; stroke-linejoin:round; stroke-width:4; stroke-opacity:1; fill:none" points="188.358,163.103 323.984,163.103 323.984,59.4228 188.358,59.4228 188.358,163.103 "/>
<polyline clip-path="url(#clip600)" style="stroke:#009af9; stroke-linecap:round; stroke-linejoin:round; stroke-width:4; stroke-opacity:1; fill:none" points="199.222,111.263 264.408,111.263 "/>
<path clip-path="url(#clip600)" d="M295.62 107.594 Q297.217 104.723 299.439 103.358 Q301.661 101.992 304.671 101.992 Q308.721 101.992 310.92 104.839 Q313.12 107.663 313.12 112.895 L313.12 128.543 L308.837 128.543 L308.837 113.034 Q308.837 109.307 307.518 107.501 Q306.198 105.696 303.49 105.696 Q300.18 105.696 298.259 107.895 Q296.337 110.094 296.337 113.89 L296.337 128.543 L292.055 128.543 L292.055 113.034 Q292.055 109.284 290.735 107.501 Q289.416 105.696 286.661 105.696 Q283.397 105.696 281.476 107.918 Q279.555 110.117 279.555 113.89 L279.555 128.543 L275.273 128.543 L275.273 102.617 L279.555 102.617 L279.555 106.645 Q281.013 104.26 283.05 103.126 Q285.087 101.992 287.888 101.992 Q290.712 101.992 292.68 103.427 Q294.671 104.862 295.62 107.594 Z" fill="#000000" fill-rule="nonzero" fill-opacity="1" /><path clip-path="url(#clip600)" d="M1375.22 412.604 L2352.76 412.604 L2352.76 47.2441 L1375.22 47.2441  Z" fill="#ffffff" fill-rule="evenodd" fill-opacity="1"/>
<defs>
  <clipPath id="clip603">
    <rect x="1375" y="47" width="979" height="366"/>
  </clipPath>
</defs>
<polyline clip-path="url(#clip603)" style="stroke:#000000; stroke-linecap:round; stroke-linejoin:round; stroke-width:2; stroke-opacity:0.1; fill:none" points="1402.89,412.604 1402.89,47.2441 "/>
<polyline clip-path="url(#clip603)" style="stroke:#000000; stroke-linecap:round; stroke-linejoin:round; stroke-width:2; stroke-opacity:0.1; fill:none" points="1633.44,412.604 1633.44,47.2441 "/>
<polyline clip-path="url(#clip603)" style="stroke:#000000; stroke-linecap:round; stroke-linejoin:round; stroke-width:2; stroke-opacity:0.1; fill:none" points="1863.99,412.604 1863.99,47.2441 "/>
<polyline clip-path="url(#clip603)" style="stroke:#000000; stroke-linecap:round; stroke-linejoin:round; stroke-width:2; stroke-opacity:0.1; fill:none" points="2094.54,412.604 2094.54,47.2441 "/>
<polyline clip-path="url(#clip603)" style="stroke:#000000; stroke-linecap:round; stroke-linejoin:round; stroke-width:2; stroke-opacity:0.1; fill:none" points="2325.09,412.604 2325.09,47.2441 "/>
<polyline clip-path="url(#clip603)" style="stroke:#000000; stroke-linecap:round; stroke-linejoin:round; stroke-width:2; stroke-opacity:0.1; fill:none" points="1375.22,389.284 2352.76,389.284 "/>
<polyline clip-path="url(#clip603)" style="stroke:#000000; stroke-linecap:round; stroke-linejoin:round; stroke-width:2; stroke-opacity:0.1; fill:none" points="1375.22,323.096 2352.76,323.096 "/>
<polyline clip-path="url(#clip603)" style="stroke:#000000; stroke-linecap:round; stroke-linejoin:round; stroke-width:2; stroke-opacity:0.1; fill:none" points="1375.22,256.908 2352.76,256.908 "/>
<polyline clip-path="url(#clip603)" style="stroke:#000000; stroke-linecap:round; stroke-linejoin:round; stroke-width:2; stroke-opacity:0.1; fill:none" points="1375.22,190.721 2352.76,190.721 "/>
<polyline clip-path="url(#clip603)" style="stroke:#000000; stroke-linecap:round; stroke-linejoin:round; stroke-width:2; stroke-opacity:0.1; fill:none" points="1375.22,124.533 2352.76,124.533 "/>
<polyline clip-path="url(#clip603)" style="stroke:#000000; stroke-linecap:round; stroke-linejoin:round; stroke-width:2; stroke-opacity:0.1; fill:none" points="1375.22,58.3449 2352.76,58.3449 "/>
<polyline clip-path="url(#clip600)" style="stroke:#000000; stroke-linecap:round; stroke-linejoin:round; stroke-width:4; stroke-opacity:1; fill:none" points="1375.22,412.604 2352.76,412.604 "/>
<polyline clip-path="url(#clip600)" style="stroke:#000000; stroke-linecap:round; stroke-linejoin:round; stroke-width:4; stroke-opacity:1; fill:none" points="1402.89,412.604 1402.89,393.706 "/>
<polyline clip-path="url(#clip600)" style="stroke:#000000; stroke-linecap:round; stroke-linejoin:round; stroke-width:4; stroke-opacity:1; fill:none" points="1633.44,412.604 1633.44,393.706 "/>
<polyline clip-path="url(#clip600)" style="stroke:#000000; stroke-linecap:round; stroke-linejoin:round; stroke-width:4; stroke-opacity:1; fill:none" points="1863.99,412.604 1863.99,393.706 "/>
<polyline clip-path="url(#clip600)" style="stroke:#000000; stroke-linecap:round; stroke-linejoin:round; stroke-width:4; stroke-opacity:1; fill:none" points="2094.54,412.604 2094.54,393.706 "/>
<polyline clip-path="url(#clip600)" style="stroke:#000000; stroke-linecap:round; stroke-linejoin:round; stroke-width:4; stroke-opacity:1; fill:none" points="2325.09,412.604 2325.09,393.706 "/>
<path clip-path="url(#clip600)" d="M1380.27 443.523 Q1376.66 443.523 1374.83 447.087 Q1373.03 450.629 1373.03 457.759 Q1373.03 464.865 1374.83 468.43 Q1376.66 471.971 1380.27 471.971 Q1383.91 471.971 1385.71 468.43 Q1387.54 464.865 1387.54 457.759 Q1387.54 450.629 1385.71 447.087 Q1383.91 443.523 1380.27 443.523 M1380.27 439.819 Q1386.08 439.819 1389.14 444.425 Q1392.22 449.009 1392.22 457.759 Q1392.22 466.485 1389.14 471.092 Q1386.08 475.675 1380.27 475.675 Q1374.46 475.675 1371.38 471.092 Q1368.33 466.485 1368.33 457.759 Q1368.33 449.009 1371.38 444.425 Q1374.46 439.819 1380.27 439.819 Z" fill="#000000" fill-rule="nonzero" fill-opacity="1" /><path clip-path="url(#clip600)" d="M1400.43 469.124 L1405.32 469.124 L1405.32 475.004 L1400.43 475.004 L1400.43 469.124 Z" fill="#000000" fill-rule="nonzero" fill-opacity="1" /><path clip-path="url(#clip600)" d="M1425.5 443.523 Q1421.89 443.523 1420.06 447.087 Q1418.26 450.629 1418.26 457.759 Q1418.26 464.865 1420.06 468.43 Q1421.89 471.971 1425.5 471.971 Q1429.14 471.971 1430.94 468.43 Q1432.77 464.865 1432.77 457.759 Q1432.77 450.629 1430.94 447.087 Q1429.14 443.523 1425.5 443.523 M1425.5 439.819 Q1431.31 439.819 1434.37 444.425 Q1437.45 449.009 1437.45 457.759 Q1437.45 466.485 1434.37 471.092 Q1431.31 475.675 1425.5 475.675 Q1419.69 475.675 1416.61 471.092 Q1413.56 466.485 1413.56 457.759 Q1413.56 449.009 1416.61 444.425 Q1419.69 439.819 1425.5 439.819 Z" fill="#000000" fill-rule="nonzero" fill-opacity="1" /><path clip-path="url(#clip600)" d="M1605.17 471.069 L1621.49 471.069 L1621.49 475.004 L1599.55 475.004 L1599.55 471.069 Q1602.21 468.314 1606.79 463.684 Q1611.4 459.032 1612.58 457.689 Q1614.83 455.166 1615.71 453.43 Q1616.61 451.671 1616.61 449.981 Q1616.61 447.226 1614.66 445.49 Q1612.74 443.754 1609.64 443.754 Q1607.44 443.754 1604.99 444.518 Q1602.56 445.282 1599.78 446.833 L1599.78 442.111 Q1602.6 440.976 1605.06 440.398 Q1607.51 439.819 1609.55 439.819 Q1614.92 439.819 1618.11 442.504 Q1621.31 445.189 1621.31 449.68 Q1621.31 451.81 1620.5 453.731 Q1619.71 455.629 1617.6 458.222 Q1617.03 458.893 1613.92 462.11 Q1610.82 465.305 1605.17 471.069 Z" fill="#000000" fill-rule="nonzero" fill-opacity="1" /><path clip-path="url(#clip600)" d="M1631.31 469.124 L1636.19 469.124 L1636.19 475.004 L1631.31 475.004 L1631.31 469.124 Z" fill="#000000" fill-rule="nonzero" fill-opacity="1" /><path clip-path="url(#clip600)" d="M1646.42 440.444 L1664.78 440.444 L1664.78 444.379 L1650.71 444.379 L1650.71 452.851 Q1651.72 452.504 1652.74 452.342 Q1653.76 452.157 1654.78 452.157 Q1660.57 452.157 1663.95 455.328 Q1667.33 458.499 1667.33 463.916 Q1667.33 469.495 1663.85 472.596 Q1660.38 475.675 1654.06 475.675 Q1651.89 475.675 1649.62 475.305 Q1647.37 474.934 1644.97 474.194 L1644.97 469.495 Q1647.05 470.629 1649.27 471.184 Q1651.49 471.74 1653.97 471.74 Q1657.97 471.74 1660.31 469.634 Q1662.65 467.527 1662.65 463.916 Q1662.65 460.305 1660.31 458.198 Q1657.97 456.092 1653.97 456.092 Q1652.09 456.092 1650.22 456.509 Q1648.37 456.925 1646.42 457.805 L1646.42 440.444 Z" fill="#000000" fill-rule="nonzero" fill-opacity="1" /><path clip-path="url(#clip600)" d="M1831.15 440.444 L1849.51 440.444 L1849.51 444.379 L1835.44 444.379 L1835.44 452.851 Q1836.45 452.504 1837.47 452.342 Q1838.49 452.157 1839.51 452.157 Q1845.3 452.157 1848.68 455.328 Q1852.06 458.499 1852.06 463.916 Q1852.06 469.495 1848.58 472.596 Q1845.11 475.675 1838.79 475.675 Q1836.62 475.675 1834.35 475.305 Q1832.1 474.934 1829.69 474.194 L1829.69 469.495 Q1831.78 470.629 1834 471.184 Q1836.22 471.74 1838.7 471.74 Q1842.7 471.74 1845.04 469.634 Q1847.38 467.527 1847.38 463.916 Q1847.38 460.305 1845.04 458.198 Q1842.7 456.092 1838.7 456.092 Q1836.82 456.092 1834.95 456.509 Q1833.1 456.925 1831.15 457.805 L1831.15 440.444 Z" fill="#000000" fill-rule="nonzero" fill-opacity="1" /><path clip-path="url(#clip600)" d="M1861.27 469.124 L1866.15 469.124 L1866.15 475.004 L1861.27 475.004 L1861.27 469.124 Z" fill="#000000" fill-rule="nonzero" fill-opacity="1" /><path clip-path="url(#clip600)" d="M1886.34 443.523 Q1882.73 443.523 1880.9 447.087 Q1879.09 450.629 1879.09 457.759 Q1879.09 464.865 1880.9 468.43 Q1882.73 471.971 1886.34 471.971 Q1889.97 471.971 1891.78 468.43 Q1893.61 464.865 1893.61 457.759 Q1893.61 450.629 1891.78 447.087 Q1889.97 443.523 1886.34 443.523 M1886.34 439.819 Q1892.15 439.819 1895.2 444.425 Q1898.28 449.009 1898.28 457.759 Q1898.28 466.485 1895.2 471.092 Q1892.15 475.675 1886.34 475.675 Q1880.53 475.675 1877.45 471.092 Q1874.39 466.485 1874.39 457.759 Q1874.39 449.009 1877.45 444.425 Q1880.53 439.819 1886.34 439.819 Z" fill="#000000" fill-rule="nonzero" fill-opacity="1" /><path clip-path="url(#clip600)" d="M2060.86 440.444 L2083.08 440.444 L2083.08 442.435 L2070.53 475.004 L2065.65 475.004 L2077.46 444.379 L2060.86 444.379 L2060.86 440.444 Z" fill="#000000" fill-rule="nonzero" fill-opacity="1" /><path clip-path="url(#clip600)" d="M2092.2 469.124 L2097.09 469.124 L2097.09 475.004 L2092.2 475.004 L2092.2 469.124 Z" fill="#000000" fill-rule="nonzero" fill-opacity="1" /><path clip-path="url(#clip600)" d="M2107.32 440.444 L2125.67 440.444 L2125.67 444.379 L2111.6 444.379 L2111.6 452.851 Q2112.62 452.504 2113.64 452.342 Q2114.65 452.157 2115.67 452.157 Q2121.46 452.157 2124.84 455.328 Q2128.22 458.499 2128.22 463.916 Q2128.22 469.495 2124.75 472.596 Q2121.28 475.675 2114.96 475.675 Q2112.78 475.675 2110.51 475.305 Q2108.27 474.934 2105.86 474.194 L2105.86 469.495 Q2107.94 470.629 2110.16 471.184 Q2112.39 471.74 2114.86 471.74 Q2118.87 471.74 2121.21 469.634 Q2123.54 467.527 2123.54 463.916 Q2123.54 460.305 2121.21 458.198 Q2118.87 456.092 2114.86 456.092 Q2112.99 456.092 2111.11 456.509 Q2109.26 456.925 2107.32 457.805 L2107.32 440.444 Z" fill="#000000" fill-rule="nonzero" fill-opacity="1" /><path clip-path="url(#clip600)" d="M2277.16 471.069 L2284.8 471.069 L2284.8 444.703 L2276.49 446.37 L2276.49 442.111 L2284.75 440.444 L2289.43 440.444 L2289.43 471.069 L2297.07 471.069 L2297.07 475.004 L2277.16 475.004 L2277.16 471.069 Z" fill="#000000" fill-rule="nonzero" fill-opacity="1" /><path clip-path="url(#clip600)" d="M2316.51 443.523 Q2312.9 443.523 2311.07 447.087 Q2309.27 450.629 2309.27 457.759 Q2309.27 464.865 2311.07 468.43 Q2312.9 471.971 2316.51 471.971 Q2320.15 471.971 2321.95 468.43 Q2323.78 464.865 2323.78 457.759 Q2323.78 450.629 2321.95 447.087 Q2320.15 443.523 2316.51 443.523 M2316.51 439.819 Q2322.32 439.819 2325.38 444.425 Q2328.46 449.009 2328.46 457.759 Q2328.46 466.485 2325.38 471.092 Q2322.32 475.675 2316.51 475.675 Q2310.7 475.675 2307.62 471.092 Q2304.57 466.485 2304.57 457.759 Q2304.57 449.009 2307.62 444.425 Q2310.7 439.819 2316.51 439.819 Z" fill="#000000" fill-rule="nonzero" fill-opacity="1" /><path clip-path="url(#clip600)" d="M2336.68 469.124 L2341.56 469.124 L2341.56 475.004 L2336.68 475.004 L2336.68 469.124 Z" fill="#000000" fill-rule="nonzero" fill-opacity="1" /><path clip-path="url(#clip600)" d="M2361.74 443.523 Q2358.13 443.523 2356.3 447.087 Q2354.5 450.629 2354.5 457.759 Q2354.5 464.865 2356.3 468.43 Q2358.13 471.971 2361.74 471.971 Q2365.38 471.971 2367.18 468.43 Q2369.01 464.865 2369.01 457.759 Q2369.01 450.629 2367.18 447.087 Q2365.38 443.523 2361.74 443.523 M2361.74 439.819 Q2367.55 439.819 2370.61 444.425 Q2373.69 449.009 2373.69 457.759 Q2373.69 466.485 2370.61 471.092 Q2367.55 475.675 2361.74 475.675 Q2355.93 475.675 2352.86 471.092 Q2349.8 466.485 2349.8 457.759 Q2349.8 449.009 2352.86 444.425 Q2355.93 439.819 2361.74 439.819 Z" fill="#000000" fill-rule="nonzero" fill-opacity="1" /><path clip-path="url(#clip600)" d="M1863.05 511.698 L1863.05 521.82 L1875.11 521.82 L1875.11 526.371 L1863.05 526.371 L1863.05 545.723 Q1863.05 550.084 1864.23 551.325 Q1865.44 552.566 1869.1 552.566 L1875.11 552.566 L1875.11 557.468 L1869.1 557.468 Q1862.32 557.468 1859.74 554.953 Q1857.16 552.407 1857.16 545.723 L1857.16 526.371 L1852.86 526.371 L1852.86 521.82 L1857.16 521.82 L1857.16 511.698 L1863.05 511.698 Z" fill="#000000" fill-rule="nonzero" fill-opacity="1" /><polyline clip-path="url(#clip600)" style="stroke:#000000; stroke-linecap:round; stroke-linejoin:round; stroke-width:4; stroke-opacity:1; fill:none" points="1375.22,412.604 1375.22,47.2441 "/>
<polyline clip-path="url(#clip600)" style="stroke:#000000; stroke-linecap:round; stroke-linejoin:round; stroke-width:4; stroke-opacity:1; fill:none" points="1375.22,389.284 1394.12,389.284 "/>
<polyline clip-path="url(#clip600)" style="stroke:#000000; stroke-linecap:round; stroke-linejoin:round; stroke-width:4; stroke-opacity:1; fill:none" points="1375.22,323.096 1394.12,323.096 "/>
<polyline clip-path="url(#clip600)" style="stroke:#000000; stroke-linecap:round; stroke-linejoin:round; stroke-width:4; stroke-opacity:1; fill:none" points="1375.22,256.908 1394.12,256.908 "/>
<polyline clip-path="url(#clip600)" style="stroke:#000000; stroke-linecap:round; stroke-linejoin:round; stroke-width:4; stroke-opacity:1; fill:none" points="1375.22,190.721 1394.12,190.721 "/>
<polyline clip-path="url(#clip600)" style="stroke:#000000; stroke-linecap:round; stroke-linejoin:round; stroke-width:4; stroke-opacity:1; fill:none" points="1375.22,124.533 1394.12,124.533 "/>
<polyline clip-path="url(#clip600)" style="stroke:#000000; stroke-linecap:round; stroke-linejoin:round; stroke-width:4; stroke-opacity:1; fill:none" points="1375.22,58.3449 1394.12,58.3449 "/>
<path clip-path="url(#clip600)" d="M1233.27 389.736 L1262.95 389.736 L1262.95 393.671 L1233.27 393.671 L1233.27 389.736 Z" fill="#000000" fill-rule="nonzero" fill-opacity="1" /><path clip-path="url(#clip600)" d="M1283.04 375.083 Q1279.43 375.083 1277.6 378.648 Q1275.8 382.189 1275.8 389.319 Q1275.8 396.425 1277.6 399.99 Q1279.43 403.532 1283.04 403.532 Q1286.67 403.532 1288.48 399.99 Q1290.31 396.425 1290.31 389.319 Q1290.31 382.189 1288.48 378.648 Q1286.67 375.083 1283.04 375.083 M1283.04 371.379 Q1288.85 371.379 1291.91 375.986 Q1294.98 380.569 1294.98 389.319 Q1294.98 398.046 1291.91 402.652 Q1288.85 407.235 1283.04 407.235 Q1277.23 407.235 1274.15 402.652 Q1271.1 398.046 1271.1 389.319 Q1271.1 380.569 1274.15 375.986 Q1277.23 371.379 1283.04 371.379 Z" fill="#000000" fill-rule="nonzero" fill-opacity="1" /><path clip-path="url(#clip600)" d="M1303.2 400.685 L1308.09 400.685 L1308.09 406.564 L1303.2 406.564 L1303.2 400.685 Z" fill="#000000" fill-rule="nonzero" fill-opacity="1" /><path clip-path="url(#clip600)" d="M1318.32 372.004 L1336.67 372.004 L1336.67 375.939 L1322.6 375.939 L1322.6 384.411 Q1323.62 384.064 1324.64 383.902 Q1325.66 383.717 1326.67 383.717 Q1332.46 383.717 1335.84 386.888 Q1339.22 390.06 1339.22 395.476 Q1339.22 401.055 1335.75 404.157 Q1332.28 407.235 1325.96 407.235 Q1323.78 407.235 1321.51 406.865 Q1319.27 406.495 1316.86 405.754 L1316.86 401.055 Q1318.94 402.189 1321.17 402.745 Q1323.39 403.3 1325.86 403.3 Q1329.87 403.3 1332.21 401.194 Q1334.54 399.087 1334.54 395.476 Q1334.54 391.865 1332.21 389.759 Q1329.87 387.652 1325.86 387.652 Q1323.99 387.652 1322.11 388.069 Q1320.26 388.486 1318.32 389.365 L1318.32 372.004 Z" fill="#000000" fill-rule="nonzero" fill-opacity="1" /><path clip-path="url(#clip600)" d="M1231.79 323.548 L1261.47 323.548 L1261.47 327.483 L1231.79 327.483 L1231.79 323.548 Z" fill="#000000" fill-rule="nonzero" fill-opacity="1" /><path clip-path="url(#clip600)" d="M1281.56 308.895 Q1277.95 308.895 1276.12 312.46 Q1274.31 316.001 1274.31 323.131 Q1274.31 330.237 1276.12 333.802 Q1277.95 337.344 1281.56 337.344 Q1285.19 337.344 1287 333.802 Q1288.83 330.237 1288.83 323.131 Q1288.83 316.001 1287 312.46 Q1285.19 308.895 1281.56 308.895 M1281.56 305.191 Q1287.37 305.191 1290.42 309.798 Q1293.5 314.381 1293.5 323.131 Q1293.5 331.858 1290.42 336.464 Q1287.37 341.048 1281.56 341.048 Q1275.75 341.048 1272.67 336.464 Q1269.61 331.858 1269.61 323.131 Q1269.61 314.381 1272.67 309.798 Q1275.75 305.191 1281.56 305.191 Z" fill="#000000" fill-rule="nonzero" fill-opacity="1" /><path clip-path="url(#clip600)" d="M1301.72 334.497 L1306.61 334.497 L1306.61 340.376 L1301.72 340.376 L1301.72 334.497 Z" fill="#000000" fill-rule="nonzero" fill-opacity="1" /><path clip-path="url(#clip600)" d="M1329.64 309.89 L1317.83 328.339 L1329.64 328.339 L1329.64 309.89 M1328.41 305.816 L1334.29 305.816 L1334.29 328.339 L1339.22 328.339 L1339.22 332.228 L1334.29 332.228 L1334.29 340.376 L1329.64 340.376 L1329.64 332.228 L1314.04 332.228 L1314.04 327.714 L1328.41 305.816 Z" fill="#000000" fill-rule="nonzero" fill-opacity="1" /><path clip-path="url(#clip600)" d="M1232.93 257.36 L1262.6 257.36 L1262.6 261.295 L1232.93 261.295 L1232.93 257.36 Z" fill="#000000" fill-rule="nonzero" fill-opacity="1" /><path clip-path="url(#clip600)" d="M1282.69 242.707 Q1279.08 242.707 1277.25 246.272 Q1275.45 249.814 1275.45 256.943 Q1275.45 264.05 1277.25 267.614 Q1279.08 271.156 1282.69 271.156 Q1286.33 271.156 1288.13 267.614 Q1289.96 264.05 1289.96 256.943 Q1289.96 249.814 1288.13 246.272 Q1286.33 242.707 1282.69 242.707 M1282.69 239.003 Q1288.5 239.003 1291.56 243.61 Q1294.64 248.193 1294.64 256.943 Q1294.64 265.67 1291.56 270.276 Q1288.5 274.86 1282.69 274.86 Q1276.88 274.86 1273.8 270.276 Q1270.75 265.67 1270.75 256.943 Q1270.75 248.193 1273.8 243.61 Q1276.88 239.003 1282.69 239.003 Z" fill="#000000" fill-rule="nonzero" fill-opacity="1" /><path clip-path="url(#clip600)" d="M1302.86 268.309 L1307.74 268.309 L1307.74 274.188 L1302.86 274.188 L1302.86 268.309 Z" fill="#000000" fill-rule="nonzero" fill-opacity="1" /><path clip-path="url(#clip600)" d="M1332.09 255.554 Q1335.45 256.272 1337.32 258.54 Q1339.22 260.809 1339.22 264.142 Q1339.22 269.258 1335.7 272.059 Q1332.18 274.86 1325.7 274.86 Q1323.53 274.86 1321.21 274.42 Q1318.92 274.003 1316.47 273.147 L1316.47 268.633 Q1318.41 269.767 1320.73 270.346 Q1323.04 270.925 1325.56 270.925 Q1329.96 270.925 1332.25 269.188 Q1334.57 267.452 1334.57 264.142 Q1334.57 261.087 1332.42 259.374 Q1330.29 257.638 1326.47 257.638 L1322.44 257.638 L1322.44 253.795 L1326.65 253.795 Q1330.1 253.795 1331.93 252.429 Q1333.76 251.04 1333.76 248.448 Q1333.76 245.786 1331.86 244.374 Q1329.98 242.939 1326.47 242.939 Q1324.54 242.939 1322.35 243.355 Q1320.15 243.772 1317.51 244.652 L1317.51 240.485 Q1320.17 239.744 1322.48 239.374 Q1324.82 239.003 1326.88 239.003 Q1332.21 239.003 1335.31 241.434 Q1338.41 243.841 1338.41 247.962 Q1338.41 250.832 1336.77 252.823 Q1335.12 254.79 1332.09 255.554 Z" fill="#000000" fill-rule="nonzero" fill-opacity="1" /><path clip-path="url(#clip600)" d="M1233.87 191.172 L1263.55 191.172 L1263.55 195.107 L1233.87 195.107 L1233.87 191.172 Z" fill="#000000" fill-rule="nonzero" fill-opacity="1" /><path clip-path="url(#clip600)" d="M1283.64 176.519 Q1280.03 176.519 1278.2 180.084 Q1276.4 183.626 1276.4 190.755 Q1276.4 197.862 1278.2 201.427 Q1280.03 204.968 1283.64 204.968 Q1287.28 204.968 1289.08 201.427 Q1290.91 197.862 1290.91 190.755 Q1290.91 183.626 1289.08 180.084 Q1287.28 176.519 1283.64 176.519 M1283.64 172.816 Q1289.45 172.816 1292.51 177.422 Q1295.59 182.005 1295.59 190.755 Q1295.59 199.482 1292.51 204.089 Q1289.45 208.672 1283.64 208.672 Q1277.83 208.672 1274.75 204.089 Q1271.7 199.482 1271.7 190.755 Q1271.7 182.005 1274.75 177.422 Q1277.83 172.816 1283.64 172.816 Z" fill="#000000" fill-rule="nonzero" fill-opacity="1" /><path clip-path="url(#clip600)" d="M1303.8 202.121 L1308.69 202.121 L1308.69 208.001 L1303.8 208.001 L1303.8 202.121 Z" fill="#000000" fill-rule="nonzero" fill-opacity="1" /><path clip-path="url(#clip600)" d="M1322.9 204.065 L1339.22 204.065 L1339.22 208.001 L1317.28 208.001 L1317.28 204.065 Q1319.94 201.311 1324.52 196.681 Q1329.13 192.028 1330.31 190.686 Q1332.55 188.163 1333.43 186.427 Q1334.34 184.667 1334.34 182.978 Q1334.34 180.223 1332.39 178.487 Q1330.47 176.751 1327.37 176.751 Q1325.17 176.751 1322.72 177.515 Q1320.29 178.279 1317.51 179.829 L1317.51 175.107 Q1320.33 173.973 1322.79 173.394 Q1325.24 172.816 1327.28 172.816 Q1332.65 172.816 1335.84 175.501 Q1339.04 178.186 1339.04 182.677 Q1339.04 184.806 1338.23 186.728 Q1337.44 188.626 1335.33 191.218 Q1334.75 191.89 1331.65 195.107 Q1328.55 198.302 1322.9 204.065 Z" fill="#000000" fill-rule="nonzero" fill-opacity="1" /><path clip-path="url(#clip600)" d="M1233.5 124.984 L1263.18 124.984 L1263.18 128.919 L1233.5 128.919 L1233.5 124.984 Z" fill="#000000" fill-rule="nonzero" fill-opacity="1" /><path clip-path="url(#clip600)" d="M1283.27 110.331 Q1279.66 110.331 1277.83 113.896 Q1276.03 117.438 1276.03 124.567 Q1276.03 131.674 1277.83 135.239 Q1279.66 138.78 1283.27 138.78 Q1286.91 138.78 1288.71 135.239 Q1290.54 131.674 1290.54 124.567 Q1290.54 117.438 1288.71 113.896 Q1286.91 110.331 1283.27 110.331 M1283.27 106.628 Q1289.08 106.628 1292.14 111.234 Q1295.22 115.818 1295.22 124.567 Q1295.22 133.294 1292.14 137.901 Q1289.08 142.484 1283.27 142.484 Q1277.46 142.484 1274.38 137.901 Q1271.33 133.294 1271.33 124.567 Q1271.33 115.818 1274.38 111.234 Q1277.46 106.628 1283.27 106.628 Z" fill="#000000" fill-rule="nonzero" fill-opacity="1" /><path clip-path="url(#clip600)" d="M1303.43 135.933 L1308.32 135.933 L1308.32 141.813 L1303.43 141.813 L1303.43 135.933 Z" fill="#000000" fill-rule="nonzero" fill-opacity="1" /><path clip-path="url(#clip600)" d="M1319.31 137.878 L1326.95 137.878 L1326.95 111.512 L1318.64 113.179 L1318.64 108.919 L1326.91 107.253 L1331.58 107.253 L1331.58 137.878 L1339.22 137.878 L1339.22 141.813 L1319.31 141.813 L1319.31 137.878 Z" fill="#000000" fill-rule="nonzero" fill-opacity="1" /><path clip-path="url(#clip600)" d="M1282.05 44.1436 Q1278.43 44.1436 1276.61 47.7084 Q1274.8 51.2501 1274.8 58.3797 Q1274.8 65.4861 1276.61 69.0509 Q1278.43 72.5925 1282.05 72.5925 Q1285.68 72.5925 1287.48 69.0509 Q1289.31 65.4861 1289.31 58.3797 Q1289.31 51.2501 1287.48 47.7084 Q1285.68 44.1436 1282.05 44.1436 M1282.05 40.4399 Q1287.86 40.4399 1290.91 45.0464 Q1293.99 49.6297 1293.99 58.3797 Q1293.99 67.1065 1290.91 71.7129 Q1287.86 76.2962 1282.05 76.2962 Q1276.24 76.2962 1273.16 71.7129 Q1270.1 67.1065 1270.1 58.3797 Q1270.1 49.6297 1273.16 45.0464 Q1276.24 40.4399 1282.05 40.4399 Z" fill="#000000" fill-rule="nonzero" fill-opacity="1" /><path clip-path="url(#clip600)" d="M1302.21 69.7453 L1307.09 69.7453 L1307.09 75.6249 L1302.21 75.6249 L1302.21 69.7453 Z" fill="#000000" fill-rule="nonzero" fill-opacity="1" /><path clip-path="url(#clip600)" d="M1327.28 44.1436 Q1323.67 44.1436 1321.84 47.7084 Q1320.03 51.2501 1320.03 58.3797 Q1320.03 65.4861 1321.84 69.0509 Q1323.67 72.5925 1327.28 72.5925 Q1330.91 72.5925 1332.72 69.0509 Q1334.54 65.4861 1334.54 58.3797 Q1334.54 51.2501 1332.72 47.7084 Q1330.91 44.1436 1327.28 44.1436 M1327.28 40.4399 Q1333.09 40.4399 1336.14 45.0464 Q1339.22 49.6297 1339.22 58.3797 Q1339.22 67.1065 1336.14 71.7129 Q1333.09 76.2962 1327.28 76.2962 Q1321.47 76.2962 1318.39 71.7129 Q1315.33 67.1065 1315.33 58.3797 Q1315.33 49.6297 1318.39 45.0464 Q1321.47 40.4399 1327.28 40.4399 Z" fill="#000000" fill-rule="nonzero" fill-opacity="1" /><polyline clip-path="url(#clip603)" style="stroke:#009af9; stroke-linecap:round; stroke-linejoin:round; stroke-width:4; stroke-opacity:1; fill:none" points="1402.89,402.263 1406.58,399.131 1410.26,396.029 1413.95,392.956 1417.64,389.911 1421.33,386.895 1425.02,383.905 1428.71,380.942 1432.4,378.005 1436.09,375.092 1439.78,372.204 1443.46,369.34 1447.15,366.499 1450.84,363.68 1454.53,360.884 1458.22,358.109 1461.91,355.355 1465.6,352.622 1469.29,349.909 1472.97,347.216 1476.66,344.542 1480.35,341.887 1484.04,339.251 1487.73,336.632 1491.42,334.032 1495.11,331.449 1498.8,328.883 1502.48,326.333 1506.17,323.8 1509.86,321.283 1513.55,318.782 1517.24,316.296 1520.93,313.826 1524.62,311.37 1528.31,308.93 1532,306.503 1535.68,304.091 1539.37,301.692 1543.06,299.308 1546.75,296.937 1550.44,294.579 1554.13,292.234 1557.82,289.901 1561.51,287.582 1565.19,285.275 1568.88,282.98 1572.57,280.697 1576.26,278.426 1579.95,276.168 1583.64,273.922 1587.33,271.692 1591.02,269.518 1594.71,269.374 1598.39,269.487 1602.08,269.398 1605.77,269.468 1609.46,269.413 1613.15,269.456 1616.84,269.423 1620.53,269.449 1624.22,269.428 1627.9,269.444 1631.59,269.432 1635.28,269.442 1638.97,269.434 1642.66,269.44 1646.35,269.435 1650.04,269.439 1653.73,269.436 1657.41,269.438 1661.1,269.436 1664.79,269.438 1668.48,269.437 1672.17,269.438 1675.86,269.437 1679.55,269.437 1683.24,269.437 1686.93,269.437 1690.61,269.437 1694.3,269.437 1697.99,269.437 1701.68,269.437 1705.37,269.437 1709.06,269.437 1712.75,269.437 1716.44,269.437 1720.12,269.437 1723.81,269.437 1727.5,269.437 1731.19,269.437 1734.88,269.437 1738.57,269.437 1742.26,269.437 1745.95,269.437 1749.64,269.437 1753.32,269.437 1757.01,269.437 1760.7,269.437 1764.39,269.437 1768.08,269.437 1771.77,269.437 1775.46,269.437 1779.15,269.437 1782.83,269.437 1786.52,269.437 1790.21,269.437 1793.9,269.438 1797.59,269.437 1801.28,269.438 1804.97,269.436 1808.66,269.438 1812.34,269.436 1816.03,269.439 1819.72,269.435 1823.41,269.44 1827.1,269.433 1830.79,269.442 1834.48,269.431 1838.17,269.446 1841.86,269.426 1845.54,269.451 1849.23,269.42 1852.92,269.46 1856.61,269.408 1860.3,269.473 1863.99,269.39 1867.68,269.496 1871.37,269.361 1875.05,269.533 1878.74,269.312 1882.43,269.593 1886.12,269.231 1889.81,269.69 1893.5,267.588 1897.19,265.391 1900.88,263.198 1904.57,261.015 1908.25,258.841 1911.94,256.677 1915.63,254.523 1919.32,252.379 1923.01,250.245 1926.7,248.12 1930.39,246.004 1934.08,243.898 1937.76,241.802 1941.45,239.714 1945.14,237.636 1948.83,235.566 1952.52,233.505 1956.21,231.453 1959.9,229.41 1963.59,227.374 1967.28,225.348 1970.96,223.329 1974.65,221.319 1978.34,219.317 1982.03,217.322 1985.72,215.336 1989.41,213.357 1993.1,211.386 1996.79,209.423 2000.47,207.467 2004.16,205.519 2007.85,203.578 2011.54,201.644 2015.23,199.717 2018.92,197.798 2022.61,195.886 2026.3,193.98 2029.98,192.081 2033.67,190.19 2037.36,188.304 2041.05,186.426 2044.74,184.554 2048.43,182.689 2052.12,180.83 2055.81,178.977 2059.5,177.131 2063.18,175.291 2066.87,173.458 2070.56,171.63 2074.25,169.808 2077.94,167.993 2081.63,166.183 2085.32,164.38 2089.01,162.582 2092.69,160.79 2096.38,159.003 2100.07,157.223 2103.76,155.447 2107.45,153.678 2111.14,151.914 2114.83,150.155 2118.52,148.402 2122.21,146.654 2125.89,144.912 2129.58,143.175 2133.27,141.443 2136.96,139.716 2140.65,137.994 2144.34,136.278 2148.03,134.566 2151.72,132.859 2155.4,131.158 2159.09,129.461 2162.78,127.769 2166.47,126.082 2170.16,124.4 2173.85,122.722 2177.54,121.049 2181.23,119.381 2184.91,117.717 2188.6,116.058 2192.29,114.404 2195.98,112.754 2199.67,111.108 2203.36,109.467 2207.05,107.831 2210.74,106.198 2214.43,104.57 2218.11,102.947 2221.8,101.327 2225.49,99.7119 2229.18,98.1009 2232.87,96.4941 2236.56,94.8914 2240.25,93.2927 2243.94,91.6982 2247.62,90.1076 2251.31,88.5211 2255,86.9386 2258.69,85.36 2262.38,83.7853 2266.07,82.2145 2269.76,80.6476 2273.45,79.0844 2277.14,77.5251 2280.82,75.9696 2284.51,74.4178 2288.2,72.8697 2291.89,71.3254 2295.58,69.7847 2299.27,68.2476 2302.96,66.7141 2306.65,65.1843 2310.33,63.658 2314.02,62.1352 2317.71,60.616 2321.4,59.1002 2325.09,57.5845 "/>
<path clip-path="url(#clip600)" d="M1407.81 163.103 L1573.5 163.103 L1573.5 59.4228 L1407.81 59.4228  Z" fill="#ffffff" fill-rule="evenodd" fill-opacity="1"/>
<polyline clip-path="url(#clip600)" style="stroke:#000000; stroke-linecap:round; stroke-linejoin:round; stroke-width:4; stroke-opacity:1; fill:none" points="1407.81,163.103 1573.5,163.103 1573.5,59.4228 1407.81,59.4228 1407.81,163.103 "/>
<polyline clip-path="url(#clip600)" style="stroke:#009af9; stroke-linecap:round; stroke-linejoin:round; stroke-width:4; stroke-opacity:1; fill:none" points="1418.67,111.263 1483.84,111.263 "/>
<path clip-path="url(#clip600)" d="M1498.98 124.654 L1498.98 138.404 L1494.7 138.404 L1494.7 102.617 L1498.98 102.617 L1498.98 106.552 Q1500.32 104.237 1502.36 103.126 Q1504.42 101.992 1507.27 101.992 Q1511.99 101.992 1514.93 105.742 Q1517.89 109.492 1517.89 115.603 Q1517.89 121.714 1514.93 125.464 Q1511.99 129.214 1507.27 129.214 Q1504.42 129.214 1502.36 128.103 Q1500.32 126.969 1498.98 124.654 M1513.47 115.603 Q1513.47 110.904 1511.53 108.242 Q1509.6 105.557 1506.23 105.557 Q1502.85 105.557 1500.9 108.242 Q1498.98 110.904 1498.98 115.603 Q1498.98 120.302 1500.9 122.987 Q1502.85 125.649 1506.23 125.649 Q1509.6 125.649 1511.53 122.987 Q1513.47 120.302 1513.47 115.603 Z" fill="#000000" fill-rule="nonzero" fill-opacity="1" /><path clip-path="url(#clip600)" d="M1545.14 107.594 Q1546.73 104.723 1548.96 103.358 Q1551.18 101.992 1554.19 101.992 Q1558.24 101.992 1560.44 104.839 Q1562.64 107.663 1562.64 112.895 L1562.64 128.543 L1558.35 128.543 L1558.35 113.034 Q1558.35 109.307 1557.03 107.501 Q1555.72 105.696 1553.01 105.696 Q1549.7 105.696 1547.78 107.895 Q1545.85 110.094 1545.85 113.89 L1545.85 128.543 L1541.57 128.543 L1541.57 113.034 Q1541.57 109.284 1540.25 107.501 Q1538.93 105.696 1536.18 105.696 Q1532.91 105.696 1530.99 107.918 Q1529.07 110.117 1529.07 113.89 L1529.07 128.543 L1524.79 128.543 L1524.79 102.617 L1529.07 102.617 L1529.07 106.645 Q1530.53 104.26 1532.57 103.126 Q1534.6 101.992 1537.41 101.992 Q1540.23 101.992 1542.2 103.427 Q1544.19 104.862 1545.14 107.594 Z" fill="#000000" fill-rule="nonzero" fill-opacity="1" /><path clip-path="url(#clip600)" d="M156.02 972.604 L2352.76 972.604 L2352.76 607.244 L156.02 607.244  Z" fill="#ffffff" fill-rule="evenodd" fill-opacity="1"/>
<defs>
  <clipPath id="clip604">
    <rect x="156" y="607" width="2198" height="366"/>
  </clipPath>
</defs>
<polyline clip-path="url(#clip604)" style="stroke:#000000; stroke-linecap:round; stroke-linejoin:round; stroke-width:2; stroke-opacity:0.1; fill:none" points="218.191,972.604 218.191,607.244 "/>
<polyline clip-path="url(#clip604)" style="stroke:#000000; stroke-linecap:round; stroke-linejoin:round; stroke-width:2; stroke-opacity:0.1; fill:none" points="736.29,972.604 736.29,607.244 "/>
<polyline clip-path="url(#clip604)" style="stroke:#000000; stroke-linecap:round; stroke-linejoin:round; stroke-width:2; stroke-opacity:0.1; fill:none" points="1254.39,972.604 1254.39,607.244 "/>
<polyline clip-path="url(#clip604)" style="stroke:#000000; stroke-linecap:round; stroke-linejoin:round; stroke-width:2; stroke-opacity:0.1; fill:none" points="1772.49,972.604 1772.49,607.244 "/>
<polyline clip-path="url(#clip604)" style="stroke:#000000; stroke-linecap:round; stroke-linejoin:round; stroke-width:2; stroke-opacity:0.1; fill:none" points="2290.58,972.604 2290.58,607.244 "/>
<polyline clip-path="url(#clip604)" style="stroke:#000000; stroke-linecap:round; stroke-linejoin:round; stroke-width:2; stroke-opacity:0.1; fill:none" points="156.02,886.281 2352.76,886.281 "/>
<polyline clip-path="url(#clip604)" style="stroke:#000000; stroke-linecap:round; stroke-linejoin:round; stroke-width:2; stroke-opacity:0.1; fill:none" points="156.02,796.715 2352.76,796.715 "/>
<polyline clip-path="url(#clip604)" style="stroke:#000000; stroke-linecap:round; stroke-linejoin:round; stroke-width:2; stroke-opacity:0.1; fill:none" points="156.02,707.15 2352.76,707.15 "/>
<polyline clip-path="url(#clip604)" style="stroke:#000000; stroke-linecap:round; stroke-linejoin:round; stroke-width:2; stroke-opacity:0.1; fill:none" points="156.02,617.584 2352.76,617.584 "/>
<polyline clip-path="url(#clip600)" style="stroke:#000000; stroke-linecap:round; stroke-linejoin:round; stroke-width:4; stroke-opacity:1; fill:none" points="156.02,972.604 2352.76,972.604 "/>
<polyline clip-path="url(#clip600)" style="stroke:#000000; stroke-linecap:round; stroke-linejoin:round; stroke-width:4; stroke-opacity:1; fill:none" points="218.191,972.604 218.191,953.706 "/>
<polyline clip-path="url(#clip600)" style="stroke:#000000; stroke-linecap:round; stroke-linejoin:round; stroke-width:4; stroke-opacity:1; fill:none" points="736.29,972.604 736.29,953.706 "/>
<polyline clip-path="url(#clip600)" style="stroke:#000000; stroke-linecap:round; stroke-linejoin:round; stroke-width:4; stroke-opacity:1; fill:none" points="1254.39,972.604 1254.39,953.706 "/>
<polyline clip-path="url(#clip600)" style="stroke:#000000; stroke-linecap:round; stroke-linejoin:round; stroke-width:4; stroke-opacity:1; fill:none" points="1772.49,972.604 1772.49,953.706 "/>
<polyline clip-path="url(#clip600)" style="stroke:#000000; stroke-linecap:round; stroke-linejoin:round; stroke-width:4; stroke-opacity:1; fill:none" points="2290.58,972.604 2290.58,953.706 "/>
<path clip-path="url(#clip600)" d="M195.576 1003.52 Q191.965 1003.52 190.136 1007.09 Q188.33 1010.63 188.33 1017.76 Q188.33 1024.87 190.136 1028.43 Q191.965 1031.97 195.576 1031.97 Q199.21 1031.97 201.015 1028.43 Q202.844 1024.87 202.844 1017.76 Q202.844 1010.63 201.015 1007.09 Q199.21 1003.52 195.576 1003.52 M195.576 999.819 Q201.386 999.819 204.441 1004.43 Q207.52 1009.01 207.52 1017.76 Q207.52 1026.49 204.441 1031.09 Q201.386 1035.68 195.576 1035.68 Q189.766 1035.68 186.687 1031.09 Q183.631 1026.49 183.631 1017.76 Q183.631 1009.01 186.687 1004.43 Q189.766 999.819 195.576 999.819 Z" fill="#000000" fill-rule="nonzero" fill-opacity="1" /><path clip-path="url(#clip600)" d="M215.738 1029.12 L220.622 1029.12 L220.622 1035 L215.738 1035 L215.738 1029.12 Z" fill="#000000" fill-rule="nonzero" fill-opacity="1" /><path clip-path="url(#clip600)" d="M240.807 1003.52 Q237.196 1003.52 235.367 1007.09 Q233.562 1010.63 233.562 1017.76 Q233.562 1024.87 235.367 1028.43 Q237.196 1031.97 240.807 1031.97 Q244.441 1031.97 246.247 1028.43 Q248.075 1024.87 248.075 1017.76 Q248.075 1010.63 246.247 1007.09 Q244.441 1003.52 240.807 1003.52 M240.807 999.819 Q246.617 999.819 249.673 1004.43 Q252.751 1009.01 252.751 1017.76 Q252.751 1026.49 249.673 1031.09 Q246.617 1035.68 240.807 1035.68 Q234.997 1035.68 231.918 1031.09 Q228.863 1026.49 228.863 1017.76 Q228.863 1009.01 231.918 1004.43 Q234.997 999.819 240.807 999.819 Z" fill="#000000" fill-rule="nonzero" fill-opacity="1" /><path clip-path="url(#clip600)" d="M708.026 1031.07 L724.345 1031.07 L724.345 1035 L702.401 1035 L702.401 1031.07 Q705.063 1028.31 709.646 1023.68 Q714.253 1019.03 715.433 1017.69 Q717.679 1015.17 718.558 1013.43 Q719.461 1011.67 719.461 1009.98 Q719.461 1007.23 717.516 1005.49 Q715.595 1003.75 712.493 1003.75 Q710.294 1003.75 707.841 1004.52 Q705.41 1005.28 702.632 1006.83 L702.632 1002.11 Q705.456 1000.98 707.91 1000.4 Q710.364 999.819 712.401 999.819 Q717.771 999.819 720.966 1002.5 Q724.16 1005.19 724.16 1009.68 Q724.16 1011.81 723.35 1013.73 Q722.563 1015.63 720.456 1018.22 Q719.878 1018.89 716.776 1022.11 Q713.674 1025.3 708.026 1031.07 Z" fill="#000000" fill-rule="nonzero" fill-opacity="1" /><path clip-path="url(#clip600)" d="M734.16 1029.12 L739.044 1029.12 L739.044 1035 L734.16 1035 L734.16 1029.12 Z" fill="#000000" fill-rule="nonzero" fill-opacity="1" /><path clip-path="url(#clip600)" d="M749.276 1000.44 L767.632 1000.44 L767.632 1004.38 L753.558 1004.38 L753.558 1012.85 Q754.576 1012.5 755.595 1012.34 Q756.613 1012.16 757.632 1012.16 Q763.419 1012.16 766.799 1015.33 Q770.178 1018.5 770.178 1023.92 Q770.178 1029.49 766.706 1032.6 Q763.234 1035.68 756.914 1035.68 Q754.738 1035.68 752.47 1035.3 Q750.225 1034.93 747.817 1034.19 L747.817 1029.49 Q749.901 1030.63 752.123 1031.18 Q754.345 1031.74 756.822 1031.74 Q760.826 1031.74 763.164 1029.63 Q765.502 1027.53 765.502 1023.92 Q765.502 1020.3 763.164 1018.2 Q760.826 1016.09 756.822 1016.09 Q754.947 1016.09 753.072 1016.51 Q751.22 1016.93 749.276 1017.8 L749.276 1000.44 Z" fill="#000000" fill-rule="nonzero" fill-opacity="1" /><path clip-path="url(#clip600)" d="M1221.55 1000.44 L1239.91 1000.44 L1239.91 1004.38 L1225.83 1004.38 L1225.83 1012.85 Q1226.85 1012.5 1227.87 1012.34 Q1228.89 1012.16 1229.91 1012.16 Q1235.7 1012.16 1239.08 1015.33 Q1242.45 1018.5 1242.45 1023.92 Q1242.45 1029.49 1238.98 1032.6 Q1235.51 1035.68 1229.19 1035.68 Q1227.02 1035.68 1224.75 1035.3 Q1222.5 1034.93 1220.09 1034.19 L1220.09 1029.49 Q1222.18 1030.63 1224.4 1031.18 Q1226.62 1031.74 1229.1 1031.74 Q1233.1 1031.74 1235.44 1029.63 Q1237.78 1027.53 1237.78 1023.92 Q1237.78 1020.3 1235.44 1018.2 Q1233.1 1016.09 1229.1 1016.09 Q1227.22 1016.09 1225.35 1016.51 Q1223.5 1016.93 1221.55 1017.8 L1221.55 1000.44 Z" fill="#000000" fill-rule="nonzero" fill-opacity="1" /><path clip-path="url(#clip600)" d="M1251.67 1029.12 L1256.55 1029.12 L1256.55 1035 L1251.67 1035 L1251.67 1029.12 Z" fill="#000000" fill-rule="nonzero" fill-opacity="1" /><path clip-path="url(#clip600)" d="M1276.74 1003.52 Q1273.13 1003.52 1271.3 1007.09 Q1269.49 1010.63 1269.49 1017.76 Q1269.49 1024.87 1271.3 1028.43 Q1273.13 1031.97 1276.74 1031.97 Q1280.37 1031.97 1282.18 1028.43 Q1284.01 1024.87 1284.01 1017.76 Q1284.01 1010.63 1282.18 1007.09 Q1280.37 1003.52 1276.74 1003.52 M1276.74 999.819 Q1282.55 999.819 1285.6 1004.43 Q1288.68 1009.01 1288.68 1017.76 Q1288.68 1026.49 1285.6 1031.09 Q1282.55 1035.68 1276.74 1035.68 Q1270.93 1035.68 1267.85 1031.09 Q1264.79 1026.49 1264.79 1017.76 Q1264.79 1009.01 1267.85 1004.43 Q1270.93 999.819 1276.74 999.819 Z" fill="#000000" fill-rule="nonzero" fill-opacity="1" /><path clip-path="url(#clip600)" d="M1738.81 1000.44 L1761.03 1000.44 L1761.03 1002.43 L1748.48 1035 L1743.6 1035 L1755.4 1004.38 L1738.81 1004.38 L1738.81 1000.44 Z" fill="#000000" fill-rule="nonzero" fill-opacity="1" /><path clip-path="url(#clip600)" d="M1770.15 1029.12 L1775.03 1029.12 L1775.03 1035 L1770.15 1035 L1770.15 1029.12 Z" fill="#000000" fill-rule="nonzero" fill-opacity="1" /><path clip-path="url(#clip600)" d="M1785.26 1000.44 L1803.62 1000.44 L1803.62 1004.38 L1789.55 1004.38 L1789.55 1012.85 Q1790.56 1012.5 1791.58 1012.34 Q1792.6 1012.16 1793.62 1012.16 Q1799.41 1012.16 1802.79 1015.33 Q1806.17 1018.5 1806.17 1023.92 Q1806.17 1029.49 1802.69 1032.6 Q1799.22 1035.68 1792.9 1035.68 Q1790.73 1035.68 1788.46 1035.3 Q1786.21 1034.93 1783.81 1034.19 L1783.81 1029.49 Q1785.89 1030.63 1788.11 1031.18 Q1790.33 1031.74 1792.81 1031.74 Q1796.81 1031.74 1799.15 1029.63 Q1801.49 1027.53 1801.49 1023.92 Q1801.49 1020.3 1799.15 1018.2 Q1796.81 1016.09 1792.81 1016.09 Q1790.93 1016.09 1789.06 1016.51 Q1787.21 1016.93 1785.26 1017.8 L1785.26 1000.44 Z" fill="#000000" fill-rule="nonzero" fill-opacity="1" /><path clip-path="url(#clip600)" d="M2242.66 1031.07 L2250.29 1031.07 L2250.29 1004.7 L2241.98 1006.37 L2241.98 1002.11 L2250.25 1000.44 L2254.92 1000.44 L2254.92 1031.07 L2262.56 1031.07 L2262.56 1035 L2242.66 1035 L2242.66 1031.07 Z" fill="#000000" fill-rule="nonzero" fill-opacity="1" /><path clip-path="url(#clip600)" d="M2282.01 1003.52 Q2278.4 1003.52 2276.57 1007.09 Q2274.76 1010.63 2274.76 1017.76 Q2274.76 1024.87 2276.57 1028.43 Q2278.4 1031.97 2282.01 1031.97 Q2285.64 1031.97 2287.45 1028.43 Q2289.28 1024.87 2289.28 1017.76 Q2289.28 1010.63 2287.45 1007.09 Q2285.64 1003.52 2282.01 1003.52 M2282.01 999.819 Q2287.82 999.819 2290.87 1004.43 Q2293.95 1009.01 2293.95 1017.76 Q2293.95 1026.49 2290.87 1031.09 Q2287.82 1035.68 2282.01 1035.68 Q2276.2 1035.68 2273.12 1031.09 Q2270.06 1026.49 2270.06 1017.76 Q2270.06 1009.01 2273.12 1004.43 Q2276.2 999.819 2282.01 999.819 Z" fill="#000000" fill-rule="nonzero" fill-opacity="1" /><path clip-path="url(#clip600)" d="M2302.17 1029.12 L2307.05 1029.12 L2307.05 1035 L2302.17 1035 L2302.17 1029.12 Z" fill="#000000" fill-rule="nonzero" fill-opacity="1" /><path clip-path="url(#clip600)" d="M2327.24 1003.52 Q2323.63 1003.52 2321.8 1007.09 Q2319.99 1010.63 2319.99 1017.76 Q2319.99 1024.87 2321.8 1028.43 Q2323.63 1031.97 2327.24 1031.97 Q2330.87 1031.97 2332.68 1028.43 Q2334.51 1024.87 2334.51 1017.76 Q2334.51 1010.63 2332.68 1007.09 Q2330.87 1003.52 2327.24 1003.52 M2327.24 999.819 Q2333.05 999.819 2336.1 1004.43 Q2339.18 1009.01 2339.18 1017.76 Q2339.18 1026.49 2336.1 1031.09 Q2333.05 1035.68 2327.24 1035.68 Q2321.43 1035.68 2318.35 1031.09 Q2315.29 1026.49 2315.29 1017.76 Q2315.29 1009.01 2318.35 1004.43 Q2321.43 999.819 2327.24 999.819 Z" fill="#000000" fill-rule="nonzero" fill-opacity="1" /><path clip-path="url(#clip600)" d="M1253.45 1071.7 L1253.45 1081.82 L1265.51 1081.82 L1265.51 1086.37 L1253.45 1086.37 L1253.45 1105.72 Q1253.45 1110.08 1254.63 1111.32 Q1255.84 1112.57 1259.5 1112.57 L1265.51 1112.57 L1265.51 1117.47 L1259.5 1117.47 Q1252.72 1117.47 1250.14 1114.95 Q1247.56 1112.41 1247.56 1105.72 L1247.56 1086.37 L1243.26 1086.37 L1243.26 1081.82 L1247.56 1081.82 L1247.56 1071.7 L1253.45 1071.7 Z" fill="#000000" fill-rule="nonzero" fill-opacity="1" /><polyline clip-path="url(#clip600)" style="stroke:#000000; stroke-linecap:round; stroke-linejoin:round; stroke-width:4; stroke-opacity:1; fill:none" points="156.02,972.604 156.02,607.244 "/>
<polyline clip-path="url(#clip600)" style="stroke:#000000; stroke-linecap:round; stroke-linejoin:round; stroke-width:4; stroke-opacity:1; fill:none" points="156.02,886.281 174.917,886.281 "/>
<polyline clip-path="url(#clip600)" style="stroke:#000000; stroke-linecap:round; stroke-linejoin:round; stroke-width:4; stroke-opacity:1; fill:none" points="156.02,796.715 174.917,796.715 "/>
<polyline clip-path="url(#clip600)" style="stroke:#000000; stroke-linecap:round; stroke-linejoin:round; stroke-width:4; stroke-opacity:1; fill:none" points="156.02,707.15 174.917,707.15 "/>
<polyline clip-path="url(#clip600)" style="stroke:#000000; stroke-linecap:round; stroke-linejoin:round; stroke-width:4; stroke-opacity:1; fill:none" points="156.02,617.584 174.917,617.584 "/>
<path clip-path="url(#clip600)" d="M63.7467 872.079 Q60.1356 872.079 58.3069 875.644 Q56.5014 879.186 56.5014 886.315 Q56.5014 893.422 58.3069 896.987 Q60.1356 900.528 63.7467 900.528 Q67.3809 900.528 69.1865 896.987 Q71.0152 893.422 71.0152 886.315 Q71.0152 879.186 69.1865 875.644 Q67.3809 872.079 63.7467 872.079 M63.7467 868.376 Q69.5568 868.376 72.6124 872.982 Q75.6911 877.566 75.6911 886.315 Q75.6911 895.042 72.6124 899.649 Q69.5568 904.232 63.7467 904.232 Q57.9365 904.232 54.8578 899.649 Q51.8023 895.042 51.8023 886.315 Q51.8023 877.566 54.8578 872.982 Q57.9365 868.376 63.7467 868.376 Z" fill="#000000" fill-rule="nonzero" fill-opacity="1" /><path clip-path="url(#clip600)" d="M83.9086 897.681 L88.7928 897.681 L88.7928 903.561 L83.9086 903.561 L83.9086 897.681 Z" fill="#000000" fill-rule="nonzero" fill-opacity="1" /><path clip-path="url(#clip600)" d="M97.7974 869.001 L120.02 869.001 L120.02 870.991 L107.473 903.561 L102.589 903.561 L114.395 872.936 L97.7974 872.936 L97.7974 869.001 Z" fill="#000000" fill-rule="nonzero" fill-opacity="1" /><path clip-path="url(#clip600)" d="M62.9365 782.514 Q59.3254 782.514 57.4967 786.079 Q55.6912 789.62 55.6912 796.75 Q55.6912 803.856 57.4967 807.421 Q59.3254 810.963 62.9365 810.963 Q66.5707 810.963 68.3763 807.421 Q70.205 803.856 70.205 796.75 Q70.205 789.62 68.3763 786.079 Q66.5707 782.514 62.9365 782.514 M62.9365 778.81 Q68.7467 778.81 71.8022 783.417 Q74.8809 788 74.8809 796.75 Q74.8809 805.477 71.8022 810.083 Q68.7467 814.667 62.9365 814.667 Q57.1264 814.667 54.0477 810.083 Q50.9921 805.477 50.9921 796.75 Q50.9921 788 54.0477 783.417 Q57.1264 778.81 62.9365 778.81 Z" fill="#000000" fill-rule="nonzero" fill-opacity="1" /><path clip-path="url(#clip600)" d="M83.0984 808.116 L87.9827 808.116 L87.9827 813.995 L83.0984 813.995 L83.0984 808.116 Z" fill="#000000" fill-rule="nonzero" fill-opacity="1" /><path clip-path="url(#clip600)" d="M108.168 797.583 Q104.834 797.583 102.913 799.366 Q101.015 801.148 101.015 804.273 Q101.015 807.398 102.913 809.18 Q104.834 810.963 108.168 810.963 Q111.501 810.963 113.422 809.18 Q115.344 807.375 115.344 804.273 Q115.344 801.148 113.422 799.366 Q111.524 797.583 108.168 797.583 M103.492 795.593 Q100.483 794.852 98.7928 792.792 Q97.1261 790.731 97.1261 787.769 Q97.1261 783.625 100.066 781.218 Q103.029 778.81 108.168 778.81 Q113.33 778.81 116.27 781.218 Q119.209 783.625 119.209 787.769 Q119.209 790.731 117.52 792.792 Q115.853 794.852 112.867 795.593 Q116.246 796.38 118.121 798.671 Q120.02 800.963 120.02 804.273 Q120.02 809.296 116.941 811.981 Q113.885 814.667 108.168 814.667 Q102.45 814.667 99.3715 811.981 Q96.316 809.296 96.316 804.273 Q96.316 800.963 98.2141 798.671 Q100.112 796.38 103.492 795.593 M101.779 788.208 Q101.779 790.894 103.446 792.398 Q105.135 793.903 108.168 793.903 Q111.177 793.903 112.867 792.398 Q114.58 790.894 114.58 788.208 Q114.58 785.523 112.867 784.019 Q111.177 782.514 108.168 782.514 Q105.135 782.514 103.446 784.019 Q101.779 785.523 101.779 788.208 Z" fill="#000000" fill-rule="nonzero" fill-opacity="1" /><path clip-path="url(#clip600)" d="M63.0291 692.948 Q59.418 692.948 57.5893 696.513 Q55.7838 700.055 55.7838 707.184 Q55.7838 714.291 57.5893 717.856 Q59.418 721.397 63.0291 721.397 Q66.6633 721.397 68.4689 717.856 Q70.2976 714.291 70.2976 707.184 Q70.2976 700.055 68.4689 696.513 Q66.6633 692.948 63.0291 692.948 M63.0291 689.245 Q68.8393 689.245 71.8948 693.851 Q74.9735 698.435 74.9735 707.184 Q74.9735 715.911 71.8948 720.518 Q68.8393 725.101 63.0291 725.101 Q57.2189 725.101 54.1403 720.518 Q51.0847 715.911 51.0847 707.184 Q51.0847 698.435 54.1403 693.851 Q57.2189 689.245 63.0291 689.245 Z" fill="#000000" fill-rule="nonzero" fill-opacity="1" /><path clip-path="url(#clip600)" d="M83.191 718.55 L88.0753 718.55 L88.0753 724.43 L83.191 724.43 L83.191 718.55 Z" fill="#000000" fill-rule="nonzero" fill-opacity="1" /><path clip-path="url(#clip600)" d="M98.3993 723.712 L98.3993 719.453 Q100.159 720.286 101.964 720.726 Q103.77 721.166 105.506 721.166 Q110.135 721.166 112.566 718.064 Q115.02 714.939 115.367 708.596 Q114.024 710.587 111.964 711.652 Q109.904 712.717 107.404 712.717 Q102.219 712.717 99.1863 709.592 Q96.1771 706.444 96.1771 701.004 Q96.1771 695.68 99.3252 692.462 Q102.473 689.245 107.705 689.245 Q113.7 689.245 116.848 693.851 Q120.02 698.435 120.02 707.184 Q120.02 715.356 116.131 720.24 Q112.265 725.101 105.714 725.101 Q103.955 725.101 102.149 724.754 Q100.344 724.407 98.3993 723.712 M107.705 709.059 Q110.853 709.059 112.682 706.907 Q114.533 704.754 114.533 701.004 Q114.533 697.277 112.682 695.124 Q110.853 692.948 107.705 692.948 Q104.557 692.948 102.705 695.124 Q100.876 697.277 100.876 701.004 Q100.876 704.754 102.705 706.907 Q104.557 709.059 107.705 709.059 Z" fill="#000000" fill-rule="nonzero" fill-opacity="1" /><path clip-path="url(#clip600)" d="M53.6541 630.929 L61.293 630.929 L61.293 604.563 L52.9829 606.23 L52.9829 601.971 L61.2467 600.304 L65.9226 600.304 L65.9226 630.929 L73.5614 630.929 L73.5614 634.864 L53.6541 634.864 L53.6541 630.929 Z" fill="#000000" fill-rule="nonzero" fill-opacity="1" /><path clip-path="url(#clip600)" d="M83.0058 628.985 L87.8901 628.985 L87.8901 634.864 L83.0058 634.864 L83.0058 628.985 Z" fill="#000000" fill-rule="nonzero" fill-opacity="1" /><path clip-path="url(#clip600)" d="M108.075 603.383 Q104.464 603.383 102.635 606.948 Q100.83 610.489 100.83 617.619 Q100.83 624.725 102.635 628.29 Q104.464 631.832 108.075 631.832 Q111.709 631.832 113.515 628.29 Q115.344 624.725 115.344 617.619 Q115.344 610.489 113.515 606.948 Q111.709 603.383 108.075 603.383 M108.075 599.679 Q113.885 599.679 116.941 604.286 Q120.02 608.869 120.02 617.619 Q120.02 626.346 116.941 630.952 Q113.885 635.536 108.075 635.536 Q102.265 635.536 99.1863 630.952 Q96.1308 626.346 96.1308 617.619 Q96.1308 608.869 99.1863 604.286 Q102.265 599.679 108.075 599.679 Z" fill="#000000" fill-rule="nonzero" fill-opacity="1" /><polyline clip-path="url(#clip604)" style="stroke:#009af9; stroke-linecap:round; stroke-linejoin:round; stroke-width:4; stroke-opacity:1; fill:none" points="218.191,617.585 226.481,617.585 234.77,617.585 243.06,617.585 251.35,617.585 259.639,617.585 267.929,617.585 276.218,617.585 284.508,617.585 292.797,617.585 301.087,617.585 309.377,617.585 317.666,617.585 325.956,617.585 334.245,617.585 342.535,617.585 350.824,617.585 359.114,617.586 367.404,617.586 375.693,617.586 383.983,617.586 392.272,617.586 400.562,617.586 408.851,617.586 417.141,617.586 425.431,617.587 433.72,617.587 442.01,617.587 450.299,617.587 458.589,617.588 466.878,617.588 475.168,617.588 483.458,617.589 491.747,617.589 500.037,617.59 508.326,617.591 516.616,617.592 524.905,617.593 533.195,617.594 541.485,617.596 549.774,617.598 558.064,617.601 566.353,617.605 574.643,617.611 582.932,617.618 591.222,617.63 599.512,617.649 607.801,617.681 616.091,617.744 624.38,617.898 632.67,618.445 640.959,624.394 649.249,884.681 657.539,917.738 665.828,891.842 674.118,912.146 682.407,896.239 690.697,908.712 698.986,898.936 707.276,906.603 715.566,900.592 723.855,905.306 732.145,901.61 740.434,904.508 748.724,902.236 757.013,904.018 765.303,902.621 773.593,903.716 781.882,902.857 790.172,903.531 798.461,903.003 806.751,903.417 815.04,903.092 823.33,903.347 831.62,903.147 839.909,903.304 848.199,903.181 856.488,903.277 864.778,903.202 873.067,903.261 881.357,903.215 889.647,903.251 897.936,903.223 906.226,903.244 914.515,903.228 922.805,903.24 931.094,903.231 939.384,903.237 947.674,903.233 955.963,903.235 964.253,903.235 972.542,903.233 980.832,903.237 989.121,903.231 997.411,903.24 1005.7,903.228 1013.99,903.244 1022.28,903.223 1030.57,903.25 1038.86,903.216 1047.15,903.259 1055.44,903.204 1063.73,903.274 1072.02,903.184 1080.31,903.299 1088.6,903.152 1096.89,903.34 1105.18,903.101 1113.47,903.406 1121.75,903.017 1130.04,903.513 1138.33,902.88 1146.62,903.687 1154.91,902.658 1163.2,903.97 1171.49,902.297 1179.78,904.43 1188.07,901.71 1196.36,905.179 1204.65,900.754 1212.94,906.397 1221.23,899.199 1229.52,908.377 1237.81,896.669 1246.1,911.596 1254.39,892.549 1262.68,916.833 1270.97,885.83 1279.26,925.361 1287.55,874.834 1295.84,939.305 1304.13,856.675 1312.41,962.263 1320.7,632.432 1328.99,618.709 1337.28,617.958 1345.57,617.769 1353.86,617.694 1362.15,617.657 1370.44,617.636 1378.73,617.623 1387.02,617.615 1395.31,617.609 1403.6,617.604 1411.89,617.601 1420.18,617.598 1428.47,617.596 1436.76,617.595 1445.05,617.594 1453.34,617.592 1461.63,617.592 1469.92,617.591 1478.21,617.59 1486.5,617.59 1494.79,617.589 1503.07,617.589 1511.36,617.588 1519.65,617.588 1527.94,617.588 1536.23,617.588 1544.52,617.587 1552.81,617.587 1561.1,617.587 1569.39,617.587 1577.68,617.587 1585.97,617.586 1594.26,617.586 1602.55,617.586 1610.84,617.586 1619.13,617.586 1627.42,617.586 1635.71,617.586 1644,617.586 1652.29,617.586 1660.58,617.586 1668.87,617.586 1677.16,617.586 1685.45,617.586 1693.73,617.585 1702.02,617.585 1710.31,617.585 1718.6,617.585 1726.89,617.585 1735.18,617.585 1743.47,617.585 1751.76,617.585 1760.05,617.585 1768.34,617.585 1776.63,617.585 1784.92,617.585 1793.21,617.585 1801.5,617.585 1809.79,617.585 1818.08,617.585 1826.37,617.585 1834.66,617.585 1842.95,617.585 1851.24,617.585 1859.53,617.585 1867.82,617.585 1876.11,617.585 1884.4,617.585 1892.68,617.585 1900.97,617.585 1909.26,617.585 1917.55,617.585 1925.84,617.585 1934.13,617.585 1942.42,617.585 1950.71,617.585 1959,617.585 1967.29,617.585 1975.58,617.585 1983.87,617.585 1992.16,617.585 2000.45,617.585 2008.74,617.585 2017.03,617.585 2025.32,617.585 2033.61,617.585 2041.9,617.585 2050.19,617.585 2058.48,617.585 2066.77,617.585 2075.06,617.585 2083.34,617.585 2091.63,617.585 2099.92,617.585 2108.21,617.585 2116.5,617.585 2124.79,617.585 2133.08,617.585 2141.37,617.585 2149.66,617.585 2157.95,617.585 2166.24,617.585 2174.53,617.585 2182.82,617.585 2191.11,617.585 2199.4,617.585 2207.69,617.584 2215.98,617.584 2224.27,617.584 2232.56,617.584 2240.85,617.584 2249.14,617.584 2257.43,617.584 2265.72,617.584 2274,617.584 2282.29,617.584 2290.58,617.585 "/>
<path clip-path="url(#clip600)" d="M2038.14 960.425 L2279.53 960.425 L2279.53 856.745 L2038.14 856.745  Z" fill="#ffffff" fill-rule="evenodd" fill-opacity="1"/>
<polyline clip-path="url(#clip600)" style="stroke:#000000; stroke-linecap:round; stroke-linejoin:round; stroke-width:4; stroke-opacity:1; fill:none" points="2038.14,960.425 2279.53,960.425 2279.53,856.745 2038.14,856.745 2038.14,960.425 "/>
<polyline clip-path="url(#clip600)" style="stroke:#009af9; stroke-linecap:round; stroke-linejoin:round; stroke-width:4; stroke-opacity:1; fill:none" points="2062.55,908.585 2209,908.585 "/>
<path clip-path="url(#clip600)" d="M2233.41 915.634 L2233.41 899.939 L2237.67 899.939 L2237.67 915.472 Q2237.67 919.152 2239.1 921.004 Q2240.54 922.833 2243.41 922.833 Q2246.86 922.833 2248.85 920.634 Q2250.86 918.435 2250.86 914.638 L2250.86 899.939 L2255.12 899.939 L2255.12 925.865 L2250.86 925.865 L2250.86 921.884 Q2249.31 924.245 2247.25 925.402 Q2245.22 926.536 2242.51 926.536 Q2238.04 926.536 2235.73 923.759 Q2233.41 920.981 2233.41 915.634 M2244.13 899.314 L2244.13 899.314 Z" fill="#000000" fill-rule="nonzero" fill-opacity="1" /></svg>
