<?xml version="1.0" encoding="utf-8"?>
<svg xmlns="http://www.w3.org/2000/svg" xmlns:xlink="http://www.w3.org/1999/xlink" width="600" height="400" viewBox="0 0 2400 1600">
<defs>
  <clipPath id="clip470">
    <rect x="0" y="0" width="2400" height="1600"/>
  </clipPath>
</defs>
<path clip-path="url(#clip470)" d="M0 1600 L2400 1600 L2400 0 L0 0  Z" fill="#ffffff" fill-rule="evenodd" fill-opacity="1"/>
<defs>
  <clipPath id="clip471">
    <rect x="480" y="0" width="1681" height="1600"/>
  </clipPath>
</defs>
<path clip-path="url(#clip470)" d="M202.227 1423.18 L2352.76 1423.18 L2352.76 47.2441 L202.227 47.2441  Z" fill="#ffffff" fill-rule="evenodd" fill-opacity="1"/>
<defs>
  <clipPath id="clip472">
    <rect x="202" y="47" width="2152" height="1377"/>
  </clipPath>
</defs>
<polyline clip-path="url(#clip472)" style="stroke:#000000; stroke-linecap:round; stroke-linejoin:round; stroke-width:2; stroke-opacity:0.1; fill:none" points="202.227,1423.18 202.227,47.2441 "/>
<polyline clip-path="url(#clip472)" style="stroke:#000000; stroke-linecap:round; stroke-linejoin:round; stroke-width:2; stroke-opacity:0.1; fill:none" points="632.333,1423.18 632.333,47.2441 "/>
<polyline clip-path="url(#clip472)" style="stroke:#000000; stroke-linecap:round; stroke-linejoin:round; stroke-width:2; stroke-opacity:0.1; fill:none" points="1062.44,1423.18 1062.44,47.2441 "/>
<polyline clip-path="url(#clip472)" style="stroke:#000000; stroke-linecap:round; stroke-linejoin:round; stroke-width:2; stroke-opacity:0.1; fill:none" points="1492.54,1423.18 1492.54,47.2441 "/>
<polyline clip-path="url(#clip472)" style="stroke:#000000; stroke-linecap:round; stroke-linejoin:round; stroke-width:2; stroke-opacity:0.1; fill:none" points="1922.65,1423.18 1922.65,47.2441 "/>
<polyline clip-path="url(#clip472)" style="stroke:#000000; stroke-linecap:round; stroke-linejoin:round; stroke-width:2; stroke-opacity:0.1; fill:none" points="2352.76,1423.18 2352.76,47.2441 "/>
<polyline clip-path="url(#clip472)" style="stroke:#000000; stroke-linecap:round; stroke-linejoin:round; stroke-width:2; stroke-opacity:0.1; fill:none" points="202.227,1423.18 2352.76,1423.18 "/>
<polyline clip-path="url(#clip472)" style="stroke:#000000; stroke-linecap:round; stroke-linejoin:round; stroke-width:2; stroke-opacity:0.1; fill:none" points="202.227,1147.99 2352.76,1147.99 "/>
<polyline clip-path="url(#clip472)" style="stroke:#000000; stroke-linecap:round; stroke-linejoin:round; stroke-width:2; stroke-opacity:0.1; fill:none" points="202.227,872.806 2352.76,872.806 "/>
<polyline clip-path="url(#clip472)" style="stroke:#000000; stroke-linecap:round; stroke-linejoin:round; stroke-width:2; stroke-opacity:0.1; fill:none" points="202.227,597.618 2352.76,597.618 "/>
<polyline clip-path="url(#clip472)" style="stroke:#000000; stroke-linecap:round; stroke-linejoin:round; stroke-width:2; stroke-opacity:0.1; fill:none" points="202.227,322.431 2352.76,322.431 "/>
<polyline clip-path="url(#clip472)" style="stroke:#000000; stroke-linecap:round; stroke-linejoin:round; stroke-width:2; stroke-opacity:0.1; fill:none" points="202.227,47.2441 2352.76,47.2441 "/>
<polyline clip-path="url(#clip470)" style="stroke:#000000; stroke-linecap:round; stroke-linejoin:round; stroke-width:4; stroke-opacity:1; fill:none" points="202.227,1423.18 2352.76,1423.18 "/>
<polyline clip-path="url(#clip470)" style="stroke:#000000; stroke-linecap:round; stroke-linejoin:round; stroke-width:4; stroke-opacity:1; fill:none" points="202.227,1423.18 202.227,1404.28 "/>
<polyline clip-path="url(#clip470)" style="stroke:#000000; stroke-linecap:round; stroke-linejoin:round; stroke-width:4; stroke-opacity:1; fill:none" points="632.333,1423.18 632.333,1404.28 "/>
<polyline clip-path="url(#clip470)" style="stroke:#000000; stroke-linecap:round; stroke-linejoin:round; stroke-width:4; stroke-opacity:1; fill:none" points="1062.44,1423.18 1062.44,1404.28 "/>
<polyline clip-path="url(#clip470)" style="stroke:#000000; stroke-linecap:round; stroke-linejoin:round; stroke-width:4; stroke-opacity:1; fill:none" points="1492.54,1423.18 1492.54,1404.28 "/>
<polyline clip-path="url(#clip470)" style="stroke:#000000; stroke-linecap:round; stroke-linejoin:round; stroke-width:4; stroke-opacity:1; fill:none" points="1922.65,1423.18 1922.65,1404.28 "/>
<polyline clip-path="url(#clip470)" style="stroke:#000000; stroke-linecap:round; stroke-linejoin:round; stroke-width:4; stroke-opacity:1; fill:none" points="2352.76,1423.18 2352.76,1404.28 "/>
<path clip-path="url(#clip470)" d="M202.227 1454.1 Q198.616 1454.1 196.788 1457.66 Q194.982 1461.2 194.982 1468.33 Q194.982 1475.44 196.788 1479.01 Q198.616 1482.55 202.227 1482.55 Q205.862 1482.55 207.667 1479.01 Q209.496 1475.44 209.496 1468.33 Q209.496 1461.2 207.667 1457.66 Q205.862 1454.1 202.227 1454.1 M202.227 1450.39 Q208.038 1450.39 211.093 1455 Q214.172 1459.58 214.172 1468.33 Q214.172 1477.06 211.093 1481.67 Q208.038 1486.25 202.227 1486.25 Q196.417 1486.25 193.339 1481.67 Q190.283 1477.06 190.283 1468.33 Q190.283 1459.58 193.339 1455 Q196.417 1450.39 202.227 1450.39 Z" fill="#000000" fill-rule="nonzero" fill-opacity="1" /><path clip-path="url(#clip470)" d="M626.986 1481.64 L643.305 1481.64 L643.305 1485.58 L621.361 1485.58 L621.361 1481.64 Q624.023 1478.89 628.606 1474.26 Q633.213 1469.61 634.393 1468.27 Q636.639 1465.74 637.518 1464.01 Q638.421 1462.25 638.421 1460.56 Q638.421 1457.8 636.477 1456.07 Q634.555 1454.33 631.454 1454.33 Q629.254 1454.33 626.801 1455.09 Q624.37 1455.86 621.592 1457.41 L621.592 1452.69 Q624.417 1451.55 626.87 1450.97 Q629.324 1450.39 631.361 1450.39 Q636.731 1450.39 639.926 1453.08 Q643.12 1455.77 643.12 1460.26 Q643.12 1462.39 642.31 1464.31 Q641.523 1466.2 639.416 1468.8 Q638.838 1469.47 635.736 1472.69 Q632.634 1475.88 626.986 1481.64 Z" fill="#000000" fill-rule="nonzero" fill-opacity="1" /><path clip-path="url(#clip470)" d="M1065.45 1455.09 L1053.64 1473.54 L1065.45 1473.54 L1065.45 1455.09 M1064.22 1451.02 L1070.1 1451.02 L1070.1 1473.54 L1075.03 1473.54 L1075.03 1477.43 L1070.1 1477.43 L1070.1 1485.58 L1065.45 1485.58 L1065.45 1477.43 L1049.85 1477.43 L1049.85 1472.92 L1064.22 1451.02 Z" fill="#000000" fill-rule="nonzero" fill-opacity="1" /><path clip-path="url(#clip470)" d="M1492.95 1466.44 Q1489.8 1466.44 1487.95 1468.59 Q1486.12 1470.74 1486.12 1474.49 Q1486.12 1478.22 1487.95 1480.39 Q1489.8 1482.55 1492.95 1482.55 Q1496.1 1482.55 1497.93 1480.39 Q1499.78 1478.22 1499.78 1474.49 Q1499.78 1470.74 1497.93 1468.59 Q1496.1 1466.44 1492.95 1466.44 M1502.23 1451.78 L1502.23 1456.04 Q1500.47 1455.21 1498.67 1454.77 Q1496.88 1454.33 1495.13 1454.33 Q1490.5 1454.33 1488.04 1457.45 Q1485.61 1460.58 1485.26 1466.9 Q1486.63 1464.89 1488.69 1463.82 Q1490.75 1462.73 1493.23 1462.73 Q1498.44 1462.73 1501.44 1465.9 Q1504.48 1469.05 1504.48 1474.49 Q1504.48 1479.82 1501.33 1483.03 Q1498.18 1486.25 1492.95 1486.25 Q1486.95 1486.25 1483.78 1481.67 Q1480.61 1477.06 1480.61 1468.33 Q1480.61 1460.14 1484.5 1455.28 Q1488.39 1450.39 1494.94 1450.39 Q1496.7 1450.39 1498.48 1450.74 Q1500.29 1451.09 1502.23 1451.78 Z" fill="#000000" fill-rule="nonzero" fill-opacity="1" /><path clip-path="url(#clip470)" d="M1922.65 1469.17 Q1919.32 1469.17 1917.4 1470.95 Q1915.5 1472.73 1915.5 1475.86 Q1915.5 1478.98 1917.4 1480.77 Q1919.32 1482.55 1922.65 1482.55 Q1925.98 1482.55 1927.9 1480.77 Q1929.83 1478.96 1929.83 1475.86 Q1929.83 1472.73 1927.9 1470.95 Q1926.01 1469.17 1922.65 1469.17 M1917.97 1467.18 Q1914.97 1466.44 1913.28 1464.38 Q1911.61 1462.32 1911.61 1459.35 Q1911.61 1455.21 1914.55 1452.8 Q1917.51 1450.39 1922.65 1450.39 Q1927.81 1450.39 1930.75 1452.8 Q1933.69 1455.21 1933.69 1459.35 Q1933.69 1462.32 1932 1464.38 Q1930.34 1466.44 1927.35 1467.18 Q1930.73 1467.96 1932.6 1470.26 Q1934.5 1472.55 1934.5 1475.86 Q1934.5 1480.88 1931.42 1483.57 Q1928.37 1486.25 1922.65 1486.25 Q1916.93 1486.25 1913.85 1483.57 Q1910.8 1480.88 1910.8 1475.86 Q1910.8 1472.55 1912.7 1470.26 Q1914.59 1467.96 1917.97 1467.18 M1916.26 1459.79 Q1916.26 1462.48 1917.93 1463.98 Q1919.62 1465.49 1922.65 1465.49 Q1925.66 1465.49 1927.35 1463.98 Q1929.06 1462.48 1929.06 1459.79 Q1929.06 1457.11 1927.35 1455.6 Q1925.66 1454.1 1922.65 1454.1 Q1919.62 1454.1 1917.93 1455.6 Q1916.26 1457.11 1916.26 1459.79 Z" fill="#000000" fill-rule="nonzero" fill-opacity="1" /><path clip-path="url(#clip470)" d="M2327.44 1481.64 L2335.08 1481.64 L2335.08 1455.28 L2326.77 1456.95 L2326.77 1452.69 L2335.04 1451.02 L2339.71 1451.02 L2339.71 1481.64 L2347.35 1481.64 L2347.35 1485.58 L2327.44 1485.58 L2327.44 1481.64 Z" fill="#000000" fill-rule="nonzero" fill-opacity="1" /><path clip-path="url(#clip470)" d="M2366.8 1454.1 Q2363.18 1454.1 2361.36 1457.66 Q2359.55 1461.2 2359.55 1468.33 Q2359.55 1475.44 2361.36 1479.01 Q2363.18 1482.55 2366.8 1482.55 Q2370.43 1482.55 2372.23 1479.01 Q2374.06 1475.44 2374.06 1468.33 Q2374.06 1461.2 2372.23 1457.66 Q2370.43 1454.1 2366.8 1454.1 M2366.8 1450.39 Q2372.61 1450.39 2375.66 1455 Q2378.74 1459.58 2378.74 1468.33 Q2378.74 1477.06 2375.66 1481.67 Q2372.61 1486.25 2366.8 1486.25 Q2360.99 1486.25 2357.91 1481.67 Q2354.85 1477.06 2354.85 1468.33 Q2354.85 1459.58 2357.91 1455 Q2360.99 1450.39 2366.8 1450.39 Z" fill="#000000" fill-rule="nonzero" fill-opacity="1" /><path clip-path="url(#clip470)" d="M1151.86 1520.52 L1192.06 1520.52 L1192.06 1525.93 L1175.19 1525.93 L1175.19 1568.04 L1168.73 1568.04 L1168.73 1525.93 L1151.86 1525.93 L1151.86 1520.52 Z" fill="#000000" fill-rule="nonzero" fill-opacity="1" /><path clip-path="url(#clip470)" d="M1196.01 1532.4 L1201.87 1532.4 L1201.87 1568.04 L1196.01 1568.04 L1196.01 1532.4 M1196.01 1518.52 L1201.87 1518.52 L1201.87 1525.93 L1196.01 1525.93 L1196.01 1518.52 Z" fill="#000000" fill-rule="nonzero" fill-opacity="1" /><path clip-path="url(#clip470)" d="M1241.88 1539.24 Q1244.07 1535.29 1247.13 1533.41 Q1250.18 1531.54 1254.32 1531.54 Q1259.89 1531.54 1262.91 1535.45 Q1265.94 1539.33 1265.94 1546.53 L1265.94 1568.04 L1260.05 1568.04 L1260.05 1546.72 Q1260.05 1541.59 1258.24 1539.11 Q1256.42 1536.63 1252.7 1536.63 Q1248.15 1536.63 1245.5 1539.65 Q1242.86 1542.68 1242.86 1547.9 L1242.86 1568.04 L1236.97 1568.04 L1236.97 1546.72 Q1236.97 1541.56 1235.16 1539.11 Q1233.35 1536.63 1229.56 1536.63 Q1225.07 1536.63 1222.43 1539.68 Q1219.79 1542.71 1219.79 1547.9 L1219.79 1568.04 L1213.9 1568.04 L1213.9 1532.4 L1219.79 1532.4 L1219.79 1537.93 Q1221.79 1534.66 1224.59 1533.1 Q1227.39 1531.54 1231.24 1531.54 Q1235.13 1531.54 1237.83 1533.51 Q1240.57 1535.48 1241.88 1539.24 Z" fill="#000000" fill-rule="nonzero" fill-opacity="1" /><path clip-path="url(#clip470)" d="M1308.11 1548.76 L1308.11 1551.62 L1281.18 1551.62 Q1281.57 1557.67 1284.81 1560.85 Q1288.09 1564 1293.92 1564 Q1297.29 1564 1300.44 1563.17 Q1303.62 1562.35 1306.74 1560.69 L1306.74 1566.23 Q1303.59 1567.57 1300.28 1568.27 Q1296.97 1568.97 1293.57 1568.97 Q1285.04 1568.97 1280.04 1564 Q1275.07 1559.04 1275.07 1550.57 Q1275.07 1541.82 1279.78 1536.69 Q1284.53 1531.54 1292.55 1531.54 Q1299.74 1531.54 1303.91 1536.18 Q1308.11 1540.8 1308.11 1548.76 M1302.25 1547.04 Q1302.19 1542.23 1299.55 1539.37 Q1296.94 1536.5 1292.61 1536.5 Q1287.71 1536.5 1284.75 1539.27 Q1281.82 1542.04 1281.37 1547.07 L1302.25 1547.04 Z" fill="#000000" fill-rule="nonzero" fill-opacity="1" /><path clip-path="url(#clip470)" d="M1352.51 1518.58 Q1348.25 1525.9 1346.18 1533.06 Q1344.11 1540.23 1344.11 1547.58 Q1344.11 1554.93 1346.18 1562.16 Q1348.28 1569.35 1352.51 1576.64 L1347.42 1576.64 Q1342.64 1569.16 1340.26 1561.93 Q1337.9 1554.71 1337.9 1547.58 Q1337.9 1540.48 1340.26 1533.29 Q1342.61 1526.09 1347.42 1518.58 L1352.51 1518.58 Z" fill="#000000" fill-rule="nonzero" fill-opacity="1" /><path clip-path="url(#clip470)" d="M1369.67 1522.27 L1369.67 1532.4 L1381.73 1532.4 L1381.73 1536.95 L1369.67 1536.95 L1369.67 1556.3 Q1369.67 1560.66 1370.84 1561.9 Q1372.05 1563.14 1375.71 1563.14 L1381.73 1563.14 L1381.73 1568.04 L1375.71 1568.04 Q1368.94 1568.04 1366.36 1565.53 Q1363.78 1562.98 1363.78 1556.3 L1363.78 1536.95 L1359.48 1536.95 L1359.48 1532.4 L1363.78 1532.4 L1363.78 1522.27 L1369.67 1522.27 Z" fill="#000000" fill-rule="nonzero" fill-opacity="1" /><path clip-path="url(#clip470)" d="M1388.51 1518.58 L1393.6 1518.58 Q1398.38 1526.09 1400.73 1533.29 Q1403.12 1540.48 1403.12 1547.58 Q1403.12 1554.71 1400.73 1561.93 Q1398.38 1569.16 1393.6 1576.64 L1388.51 1576.64 Q1392.74 1569.35 1394.81 1562.16 Q1396.91 1554.93 1396.91 1547.58 Q1396.91 1540.23 1394.81 1533.06 Q1392.74 1525.9 1388.51 1518.58 Z" fill="#000000" fill-rule="nonzero" fill-opacity="1" /><polyline clip-path="url(#clip470)" style="stroke:#000000; stroke-linecap:round; stroke-linejoin:round; stroke-width:4; stroke-opacity:1; fill:none" points="202.227,1423.18 202.227,47.2441 "/>
<polyline clip-path="url(#clip470)" style="stroke:#000000; stroke-linecap:round; stroke-linejoin:round; stroke-width:4; stroke-opacity:1; fill:none" points="202.227,1423.18 221.125,1423.18 "/>
<polyline clip-path="url(#clip470)" style="stroke:#000000; stroke-linecap:round; stroke-linejoin:round; stroke-width:4; stroke-opacity:1; fill:none" points="202.227,1147.99 221.125,1147.99 "/>
<polyline clip-path="url(#clip470)" style="stroke:#000000; stroke-linecap:round; stroke-linejoin:round; stroke-width:4; stroke-opacity:1; fill:none" points="202.227,872.806 221.125,872.806 "/>
<polyline clip-path="url(#clip470)" style="stroke:#000000; stroke-linecap:round; stroke-linejoin:round; stroke-width:4; stroke-opacity:1; fill:none" points="202.227,597.618 221.125,597.618 "/>
<polyline clip-path="url(#clip470)" style="stroke:#000000; stroke-linecap:round; stroke-linejoin:round; stroke-width:4; stroke-opacity:1; fill:none" points="202.227,322.431 221.125,322.431 "/>
<polyline clip-path="url(#clip470)" style="stroke:#000000; stroke-linecap:round; stroke-linejoin:round; stroke-width:4; stroke-opacity:1; fill:none" points="202.227,47.2441 221.125,47.2441 "/>
<path clip-path="url(#clip470)" d="M154.283 1408.98 Q150.672 1408.98 148.843 1412.54 Q147.038 1416.08 147.038 1423.21 Q147.038 1430.32 148.843 1433.89 Q150.672 1437.43 154.283 1437.43 Q157.917 1437.43 159.723 1433.89 Q161.552 1430.32 161.552 1423.21 Q161.552 1416.08 159.723 1412.54 Q157.917 1408.98 154.283 1408.98 M154.283 1405.27 Q160.093 1405.27 163.149 1409.88 Q166.227 1414.46 166.227 1423.21 Q166.227 1431.94 163.149 1436.55 Q160.093 1441.13 154.283 1441.13 Q148.473 1441.13 145.394 1436.55 Q142.339 1431.94 142.339 1423.21 Q142.339 1414.46 145.394 1409.88 Q148.473 1405.27 154.283 1405.27 Z" fill="#000000" fill-rule="nonzero" fill-opacity="1" /><path clip-path="url(#clip470)" d="M149.908 1161.34 L166.227 1161.34 L166.227 1165.27 L144.283 1165.27 L144.283 1161.34 Q146.945 1158.58 151.528 1153.95 Q156.135 1149.3 157.315 1147.96 Q159.561 1145.43 160.44 1143.7 Q161.343 1141.94 161.343 1140.25 Q161.343 1137.5 159.399 1135.76 Q157.478 1134.02 154.376 1134.02 Q152.177 1134.02 149.723 1134.79 Q147.292 1135.55 144.515 1137.1 L144.515 1132.38 Q147.339 1131.25 149.792 1130.67 Q152.246 1130.09 154.283 1130.09 Q159.653 1130.09 162.848 1132.77 Q166.042 1135.46 166.042 1139.95 Q166.042 1142.08 165.232 1144 Q164.445 1145.9 162.339 1148.49 Q161.76 1149.16 158.658 1152.38 Q155.556 1155.57 149.908 1161.34 Z" fill="#000000" fill-rule="nonzero" fill-opacity="1" /><path clip-path="url(#clip470)" d="M156.644 859.6 L144.839 878.049 L156.644 878.049 L156.644 859.6 M155.417 855.526 L161.297 855.526 L161.297 878.049 L166.227 878.049 L166.227 881.937 L161.297 881.937 L161.297 890.086 L156.644 890.086 L156.644 881.937 L141.042 881.937 L141.042 877.424 L155.417 855.526 Z" fill="#000000" fill-rule="nonzero" fill-opacity="1" /><path clip-path="url(#clip470)" d="M154.7 595.755 Q151.552 595.755 149.7 597.908 Q147.871 600.061 147.871 603.81 Q147.871 607.537 149.7 609.713 Q151.552 611.866 154.7 611.866 Q157.848 611.866 159.677 609.713 Q161.528 607.537 161.528 603.81 Q161.528 600.061 159.677 597.908 Q157.848 595.755 154.7 595.755 M163.982 581.102 L163.982 585.362 Q162.223 584.528 160.417 584.088 Q158.635 583.649 156.876 583.649 Q152.246 583.649 149.792 586.774 Q147.362 589.899 147.015 596.218 Q148.38 594.204 150.441 593.139 Q152.501 592.051 154.978 592.051 Q160.186 592.051 163.195 595.223 Q166.227 598.371 166.227 603.81 Q166.227 609.135 163.079 612.352 Q159.931 615.57 154.7 615.57 Q148.704 615.57 145.533 610.986 Q142.362 606.38 142.362 597.653 Q142.362 589.459 146.251 584.598 Q150.14 579.713 156.69 579.713 Q158.45 579.713 160.232 580.061 Q162.038 580.408 163.982 581.102 Z" fill="#000000" fill-rule="nonzero" fill-opacity="1" /><path clip-path="url(#clip470)" d="M154.376 323.299 Q151.042 323.299 149.121 325.082 Q147.223 326.864 147.223 329.989 Q147.223 333.114 149.121 334.896 Q151.042 336.679 154.376 336.679 Q157.709 336.679 159.63 334.896 Q161.552 333.091 161.552 329.989 Q161.552 326.864 159.63 325.082 Q157.732 323.299 154.376 323.299 M149.7 321.309 Q146.691 320.568 145.001 318.508 Q143.334 316.447 143.334 313.485 Q143.334 309.341 146.274 306.934 Q149.237 304.526 154.376 304.526 Q159.538 304.526 162.477 306.934 Q165.417 309.341 165.417 313.485 Q165.417 316.447 163.727 318.508 Q162.061 320.568 159.075 321.309 Q162.454 322.096 164.329 324.387 Q166.227 326.679 166.227 329.989 Q166.227 335.012 163.149 337.697 Q160.093 340.383 154.376 340.383 Q148.658 340.383 145.579 337.697 Q142.524 335.012 142.524 329.989 Q142.524 326.679 144.422 324.387 Q146.32 322.096 149.7 321.309 M147.987 313.924 Q147.987 316.61 149.653 318.114 Q151.343 319.619 154.376 319.619 Q157.385 319.619 159.075 318.114 Q160.788 316.61 160.788 313.924 Q160.788 311.239 159.075 309.735 Q157.385 308.23 154.376 308.23 Q151.343 308.23 149.653 309.735 Q147.987 311.239 147.987 313.924 Z" fill="#000000" fill-rule="nonzero" fill-opacity="1" /><path clip-path="url(#clip470)" d="M114.931 60.5889 L122.57 60.5889 L122.57 34.2233 L114.26 35.89 L114.26 31.6308 L122.524 29.9641 L127.2 29.9641 L127.2 60.5889 L134.839 60.5889 L134.839 64.5241 L114.931 64.5241 L114.931 60.5889 Z" fill="#000000" fill-rule="nonzero" fill-opacity="1" /><path clip-path="url(#clip470)" d="M154.283 33.0428 Q150.672 33.0428 148.843 36.6076 Q147.038 40.1492 147.038 47.2788 Q147.038 54.3853 148.843 57.9501 Q150.672 61.4917 154.283 61.4917 Q157.917 61.4917 159.723 57.9501 Q161.552 54.3853 161.552 47.2788 Q161.552 40.1492 159.723 36.6076 Q157.917 33.0428 154.283 33.0428 M154.283 29.3391 Q160.093 29.3391 163.149 33.9456 Q166.227 38.5289 166.227 47.2788 Q166.227 56.0056 163.149 60.6121 Q160.093 65.1954 154.283 65.1954 Q148.473 65.1954 145.394 60.6121 Q142.339 56.0056 142.339 47.2788 Q142.339 38.5289 145.394 33.9456 Q148.473 29.3391 154.283 29.3391 Z" fill="#000000" fill-rule="nonzero" fill-opacity="1" /><path clip-path="url(#clip470)" d="M16.4842 878.806 L16.4842 869.226 L48.8219 857.099 L16.4842 844.909 L16.4842 835.329 L64.0042 835.329 L64.0042 841.599 L22.277 841.599 L54.8694 853.853 L54.8694 860.314 L22.277 872.568 L64.0042 872.568 L64.0042 878.806 L16.4842 878.806 Z" fill="#000000" fill-rule="nonzero" fill-opacity="1" /><path clip-path="url(#clip470)" d="M46.0847 806.619 Q46.0847 813.717 47.7079 816.454 Q49.3312 819.192 53.2461 819.192 Q56.3653 819.192 58.2114 817.155 Q60.0256 815.086 60.0256 811.553 Q60.0256 806.683 56.5881 803.755 Q53.1188 800.795 47.3897 800.795 L46.0847 800.795 L46.0847 806.619 M43.6657 794.938 L64.0042 794.938 L64.0042 800.795 L58.5933 800.795 Q61.8398 802.8 63.3994 805.792 Q64.9272 808.784 64.9272 813.112 Q64.9272 818.587 61.8716 821.833 Q58.7843 825.048 53.6281 825.048 Q47.6125 825.048 44.5569 821.038 Q41.5014 816.995 41.5014 809.006 L41.5014 800.795 L40.9285 800.795 Q36.8862 800.795 34.6901 803.468 Q32.4621 806.11 32.4621 810.916 Q32.4621 813.972 33.1941 816.868 Q33.9262 819.764 35.3903 822.438 L29.9795 822.438 Q28.7381 819.223 28.1334 816.2 Q27.4968 813.176 27.4968 810.311 Q27.4968 802.577 31.5072 798.758 Q35.5176 794.938 43.6657 794.938 Z" fill="#000000" fill-rule="nonzero" fill-opacity="1" /><path clip-path="url(#clip470)" d="M29.4065 760.15 L34.9447 760.15 Q33.6716 762.632 33.035 765.306 Q32.3984 767.979 32.3984 770.844 Q32.3984 775.205 33.7352 777.401 Q35.072 779.565 37.7456 779.565 Q39.7826 779.565 40.9603 778.005 Q42.1061 776.446 43.1565 771.735 L43.6021 769.73 Q44.9389 763.492 47.3897 760.882 Q49.8086 758.24 54.1691 758.24 Q59.1344 758.24 62.0308 762.187 Q64.9272 766.102 64.9272 772.977 Q64.9272 775.841 64.3543 778.96 Q63.8132 782.048 62.6992 785.485 L56.6518 785.485 Q58.3387 782.239 59.198 779.088 Q60.0256 775.937 60.0256 772.849 Q60.0256 768.711 58.6251 766.484 Q57.1929 764.256 54.6147 764.256 Q52.2276 764.256 50.9545 765.879 Q49.6813 767.47 48.5037 772.913 L48.0262 774.95 Q46.8804 780.393 44.5251 782.812 Q42.138 785.231 38.0002 785.231 Q32.9713 785.231 30.2341 781.666 Q27.4968 778.101 27.4968 771.544 Q27.4968 768.298 27.9743 765.433 Q28.4517 762.569 29.4065 760.15 Z" fill="#000000" fill-rule="nonzero" fill-opacity="1" /><path clip-path="url(#clip470)" d="M29.4065 726.189 L34.9447 726.189 Q33.6716 728.671 33.035 731.345 Q32.3984 734.018 32.3984 736.883 Q32.3984 741.243 33.7352 743.44 Q35.072 745.604 37.7456 745.604 Q39.7826 745.604 40.9603 744.044 Q42.1061 742.485 43.1565 737.774 L43.6021 735.769 Q44.9389 729.531 47.3897 726.921 Q49.8086 724.279 54.1691 724.279 Q59.1344 724.279 62.0308 728.226 Q64.9272 732.141 64.9272 739.015 Q64.9272 741.88 64.3543 744.999 Q63.8132 748.087 62.6992 751.524 L56.6518 751.524 Q58.3387 748.278 59.198 745.127 Q60.0256 741.976 60.0256 738.888 Q60.0256 734.75 58.6251 732.522 Q57.1929 730.294 54.6147 730.294 Q52.2276 730.294 50.9545 731.918 Q49.6813 733.509 48.5037 738.952 L48.0262 740.989 Q46.8804 746.432 44.5251 748.85 Q42.138 751.269 38.0002 751.269 Q32.9713 751.269 30.2341 747.705 Q27.4968 744.14 27.4968 737.583 Q27.4968 734.337 27.9743 731.472 Q28.4517 728.608 29.4065 726.189 Z" fill="#000000" fill-rule="nonzero" fill-opacity="1" /><path clip-path="url(#clip470)" d="M14.5426 680.165 Q21.8632 684.43 29.0246 686.498 Q36.186 688.567 43.5384 688.567 Q50.8908 688.567 58.1159 686.498 Q65.3091 684.398 72.5979 680.165 L72.5979 685.257 Q65.1182 690.031 57.8931 692.419 Q50.668 694.774 43.5384 694.774 Q36.4406 694.774 29.2474 692.419 Q22.0542 690.063 14.5426 685.257 L14.5426 680.165 Z" fill="#000000" fill-rule="nonzero" fill-opacity="1" /><path clip-path="url(#clip470)" d="M35.1993 641.047 Q31.2526 638.851 29.3747 635.796 Q27.4968 632.74 27.4968 628.602 Q27.4968 623.032 31.4117 620.009 Q35.2948 616.985 42.4881 616.985 L64.0042 616.985 L64.0042 622.873 L42.679 622.873 Q37.5546 622.873 35.072 624.687 Q32.5894 626.502 32.5894 630.226 Q32.5894 634.777 35.6131 637.419 Q38.6368 640.061 43.8567 640.061 L64.0042 640.061 L64.0042 645.949 L42.679 645.949 Q37.5228 645.949 35.072 647.763 Q32.5894 649.577 32.5894 653.365 Q32.5894 657.853 35.6449 660.494 Q38.6686 663.136 43.8567 663.136 L64.0042 663.136 L64.0042 669.025 L28.3562 669.025 L28.3562 663.136 L33.8944 663.136 Q30.616 661.131 29.0564 658.33 Q27.4968 655.529 27.4968 651.678 Q27.4968 647.795 29.4702 645.089 Q31.4436 642.352 35.1993 641.047 Z" fill="#000000" fill-rule="nonzero" fill-opacity="1" /><path clip-path="url(#clip470)" d="M14.5426 606.227 L14.5426 601.134 Q22.0542 596.36 29.2474 594.005 Q36.4406 591.618 43.5384 591.618 Q50.668 591.618 57.8931 594.005 Q65.1182 596.36 72.5979 601.134 L72.5979 606.227 Q65.3091 601.994 58.1159 599.925 Q50.8908 597.824 43.5384 597.824 Q36.186 597.824 29.0246 599.925 Q21.8632 601.994 14.5426 606.227 Z" fill="#000000" fill-rule="nonzero" fill-opacity="1" /><path clip-path="url(#clip472)" d="M202.227 1168.68 L1343.5 1168.68 L1343.5 1168.68 L1342.63 1168.87 L1333.97 1170.82 L1264.4 1186.86 L1095.05 1229.12 L857.956 1299.52 L610.129 1403.87 L577.925 1423.18 L577.925 1423.18 L202.227 1423.18 L202.227 1168.68  Z" fill="#a52a2a" fill-rule="evenodd" fill-opacity="0.35"/>
<polyline clip-path="url(#clip472)" style="stroke:#000000; stroke-linecap:round; stroke-linejoin:round; stroke-width:4; stroke-opacity:0; fill:none" points="202.227,1168.68 1343.5,1168.68 1342.63,1168.87 1333.97,1170.82 1264.4,1186.86 1095.05,1229.12 857.956,1299.52 610.129,1403.87 577.925,1423.18 202.227,1423.18 202.227,1168.68 "/>
<path clip-path="url(#clip472)" d="M202.227 1168.68 L1343.5 1168.68 L1343.5 1168.68 L1342.63 1167.65 L1333.97 1157.14 L1308.69 1123.95 L1266.66 1059.37 L1211.44 952.869 L1139.4 765.711 L1049.94 426.542 L980.581 47.2441 L980.581 47.2441 L202.227 47.2441 L202.227 1168.68  Z" fill="#0000ff" fill-rule="evenodd" fill-opacity="0.35"/>
<polyline clip-path="url(#clip472)" style="stroke:#000000; stroke-linecap:round; stroke-linejoin:round; stroke-width:4; stroke-opacity:0; fill:none" points="202.227,1168.68 1343.5,1168.68 1342.63,1167.65 1333.97,1157.14 1308.69,1123.95 1266.66,1059.37 1211.44,952.869 1139.4,765.711 1049.94,426.542 980.581,47.2441 202.227,47.2441 202.227,1168.68 "/>
<path clip-path="url(#clip472)" d="M202.227 1168.68 L1343.5 1168.68 L1343.5 1168.68 L1342.63 1168.87 L1333.97 1170.82 L1264.4 1186.86 L1095.05 1229.12 L857.956 1299.52 L610.129 1403.87 L577.925 1423.18 L577.925 1423.18 L202.227 1423.18 L202.227 1168.68  Z" fill="#a52a2a" fill-rule="evenodd" fill-opacity="0.35"/>
<polyline clip-path="url(#clip472)" style="stroke:#000000; stroke-linecap:round; stroke-linejoin:round; stroke-width:4; stroke-opacity:0; fill:none" points="202.227,1168.68 1343.5,1168.68 1342.63,1168.87 1333.97,1170.82 1264.4,1186.86 1095.05,1229.12 857.956,1299.52 610.129,1403.87 577.925,1423.18 202.227,1423.18 202.227,1168.68 "/>
<path clip-path="url(#clip472)" d="M980.581 47.2441 L980.581 47.2441 L1049.94 426.542 L1139.4 765.711 L1211.44 952.869 L1266.66 1059.37 L1308.69 1123.95 L1333.97 1157.14 L1342.63 1167.65 L1343.5 1168.68 L1343.5 1168.68 L1399.03 1154.99 L1486.56 1126.9 L1570.81 1087.71 L1646.5 1033.64 L1711.24 958.836 L1763.69 856.424 L1804.66 716.623 L1835.8 526.326 L1859.11 266.65 L1870.97 47.2441 L202.227 47.2441 L980.581 47.2441  Z" fill="#9acd32" fill-rule="evenodd" fill-opacity="0.35"/>
<polyline clip-path="url(#clip472)" style="stroke:#000000; stroke-linecap:round; stroke-linejoin:round; stroke-width:4; stroke-opacity:0; fill:none" points="980.581,47.2441 980.581,47.2441 1049.94,426.542 1139.4,765.711 1211.44,952.869 1266.66,1059.37 1308.69,1123.95 1333.97,1157.14 1342.63,1167.65 1343.5,1168.68 1399.03,1154.99 1486.56,1126.9 1570.81,1087.71 1646.5,1033.64 1711.24,958.836 1763.69,856.424 1804.66,716.623 1835.8,526.326 1859.11,266.65 1870.97,47.2441 202.227,47.2441 980.581,47.2441 "/>
<path clip-path="url(#clip472)" d="M577.925 1423.18 L577.925 1423.18 L610.129 1403.87 L857.956 1299.52 L1095.05 1229.12 L1264.4 1186.86 L1333.97 1170.82 L1342.63 1168.87 L1343.5 1168.68 L1343.5 1168.68 L1399.03 1154.99 L1486.56 1126.9 L1570.81 1087.71 L1646.5 1033.64 L1711.24 958.836 L1763.69 856.424 L1804.66 716.623 L1835.8 526.326 L1859.11 266.65 L1870.97 47.2441 L2352.76 47.2441 L2352.76 1423.18 L202.227 1423.18 L577.925 1423.18  Z" fill="#ff0000" fill-rule="evenodd" fill-opacity="0.35"/>
<polyline clip-path="url(#clip472)" style="stroke:#000000; stroke-linecap:round; stroke-linejoin:round; stroke-width:4; stroke-opacity:0; fill:none" points="577.925,1423.18 577.925,1423.18 610.129,1403.87 857.956,1299.52 1095.05,1229.12 1264.4,1186.86 1333.97,1170.82 1342.63,1168.87 1343.5,1168.68 1399.03,1154.99 1486.56,1126.9 1570.81,1087.71 1646.5,1033.64 1711.24,958.836 1763.69,856.424 1804.66,716.623 1835.8,526.326 1859.11,266.65 1870.97,47.2441 2352.76,47.2441 2352.76,1423.18 202.227,1423.18 577.925,1423.18 "/>
<polyline clip-path="url(#clip472)" style="stroke:#808080; stroke-linecap:round; stroke-linejoin:round; stroke-width:4; stroke-opacity:1; fill:none" points="1343.5,1168.68 1342.63,1167.65 1333.97,1157.14 1308.69,1123.95 1266.66,1059.37 1211.44,952.869 1139.4,765.711 1049.94,426.542 980.581,47.2441 "/>
<polyline clip-path="url(#clip472)" style="stroke:#808080; stroke-linecap:round; stroke-linejoin:round; stroke-width:4; stroke-opacity:1; fill:none" points="1343.5,1168.68 1342.63,1168.87 1333.97,1170.82 1264.4,1186.86 1095.05,1229.12 857.956,1299.52 610.129,1403.87 577.925,1423.18 "/>
<polyline clip-path="url(#clip472)" style="stroke:#008000; stroke-linecap:round; stroke-linejoin:round; stroke-width:12; stroke-opacity:1; fill:none" points="202.227,1168.68 1343.5,1168.68 "/>
<polyline clip-path="url(#clip472)" style="stroke:#ffd700; stroke-linecap:round; stroke-linejoin:round; stroke-width:12; stroke-opacity:1; fill:none" points="1343.5,1168.68 1399.03,1154.99 1486.56,1126.9 1570.81,1087.71 1646.5,1033.64 1711.24,958.836 1763.69,856.424 1804.66,716.623 1835.8,526.326 1859.11,266.65 1870.97,47.2441 "/>
<path clip-path="url(#clip470)" d="M1708.2 1377.32 L2281.07 1377.32 L2281.07 962.595 L1708.2 962.595  Z" fill="#ffffff" fill-rule="evenodd" fill-opacity="1"/>
<polyline clip-path="url(#clip470)" style="stroke:#000000; stroke-linecap:round; stroke-linejoin:round; stroke-width:4; stroke-opacity:1; fill:none" points="1708.2,1377.32 2281.07,1377.32 2281.07,962.595 1708.2,962.595 1708.2,1377.32 "/>
<path clip-path="url(#clip470)" d="M1732.09 1035.17 L1875.46 1035.17 L1875.46 993.699 L1732.09 993.699 L1732.09 1035.17  Z" fill="#a52a2a" fill-rule="evenodd" fill-opacity="0.35"/>
<polyline clip-path="url(#clip470)" style="stroke:#000000; stroke-linecap:round; stroke-linejoin:round; stroke-width:4; stroke-opacity:0; fill:none" points="1732.09,1035.17 1875.46,1035.17 1875.46,993.699 1732.09,993.699 1732.09,1035.17 "/>
<path clip-path="url(#clip470)" d="M1899.35 1021.48 L1899.35 1005.79 L1903.61 1005.79 L1903.61 1021.32 Q1903.61 1025 1905.05 1026.85 Q1906.48 1028.68 1909.35 1028.68 Q1912.8 1028.68 1914.79 1026.48 Q1916.81 1024.28 1916.81 1020.49 L1916.81 1005.79 L1921.07 1005.79 L1921.07 1031.72 L1916.81 1031.72 L1916.81 1027.73 Q1915.26 1030.09 1913.2 1031.25 Q1911.16 1032.39 1908.45 1032.39 Q1903.98 1032.39 1901.67 1029.61 Q1899.35 1026.83 1899.35 1021.48 M1910.07 1005.16 L1910.07 1005.16 Z" fill="#000000" fill-rule="nonzero" fill-opacity="1" /><path clip-path="url(#clip470)" d="M1939.1 1015.07 L1939.1 1022.29 L1947.22 1022.29 L1947.22 1024.49 L1939.1 1024.49 L1939.1 1031.72 L1936.67 1031.72 L1936.67 1024.49 L1928.54 1024.49 L1928.54 1022.29 L1936.67 1022.29 L1936.67 1015.07 L1939.1 1015.07 Z" fill="#000000" fill-rule="nonzero" fill-opacity="1" /><path clip-path="url(#clip470)" d="M1980.3 1012.43 Q1978.45 1012.43 1977.18 1013.73 Q1975.91 1015 1975.91 1016.85 Q1975.91 1018.68 1977.18 1019.96 Q1978.45 1021.21 1980.3 1021.21 Q1982.16 1021.21 1983.43 1019.96 Q1984.7 1018.68 1984.7 1016.85 Q1984.7 1015.03 1983.41 1013.73 Q1982.13 1012.43 1980.3 1012.43 M1980.3 1009.45 Q1981.78 1009.45 1983.15 1010.03 Q1984.52 1010.58 1985.51 1011.65 Q1986.58 1012.69 1987.11 1014.01 Q1987.64 1015.33 1987.64 1016.85 Q1987.64 1019.91 1985.49 1022.04 Q1983.36 1024.15 1980.26 1024.15 Q1977.13 1024.15 1975.05 1022.06 Q1972.97 1019.98 1972.97 1016.85 Q1972.97 1013.75 1975.1 1011.6 Q1977.22 1009.45 1980.3 1009.45 Z" fill="#000000" fill-rule="nonzero" fill-opacity="1" /><path clip-path="url(#clip470)" d="M2014.24 1021.48 L2014.24 1005.79 L2018.5 1005.79 L2018.5 1021.32 Q2018.5 1025 2019.93 1026.85 Q2021.37 1028.68 2024.24 1028.68 Q2027.69 1028.68 2029.68 1026.48 Q2031.69 1024.28 2031.69 1020.49 L2031.69 1005.79 L2035.95 1005.79 L2035.95 1031.72 L2031.69 1031.72 L2031.69 1027.73 Q2030.14 1030.09 2028.08 1031.25 Q2026.04 1032.39 2023.34 1032.39 Q2018.87 1032.39 2016.55 1029.61 Q2014.24 1026.83 2014.24 1021.48 M2024.96 1005.16 L2024.96 1005.16 Z" fill="#000000" fill-rule="nonzero" fill-opacity="1" /><path clip-path="url(#clip470)" d="M2054.56 1017.25 L2054.56 1019.49 Q2053.43 1018.98 2052.2 1018.73 Q2051 1018.47 2049.68 1018.47 Q2047.66 1018.47 2046.67 1019.01 Q2045.67 1019.56 2045.67 1020.65 Q2045.67 1021.48 2046.39 1021.95 Q2047.11 1022.43 2049.26 1022.85 L2050.19 1023.03 Q2053.08 1023.59 2054.24 1024.56 Q2055.44 1025.56 2055.44 1027.34 Q2055.44 1029.35 2053.64 1030.53 Q2051.85 1031.72 2048.71 1031.72 Q2047.39 1031.72 2045.95 1031.48 Q2044.54 1031.25 2042.97 1030.81 L2042.97 1028.34 Q2044.45 1029.03 2045.9 1029.38 Q2047.34 1029.72 2048.75 1029.72 Q2050.65 1029.72 2051.67 1029.15 Q2052.69 1028.57 2052.69 1027.53 Q2052.69 1026.55 2051.95 1026.02 Q2051.3 1025.56 2048.73 1025.03 L2047.8 1024.84 Q2045.3 1024.35 2044.19 1023.41 Q2043.08 1022.43 2043.08 1020.74 Q2043.08 1018.71 2044.72 1017.6 Q2046.34 1016.46 2049.35 1016.46 Q2050.84 1016.46 2052.15 1016.67 Q2053.47 1016.85 2054.56 1017.25 Z" fill="#000000" fill-rule="nonzero" fill-opacity="1" /><path clip-path="url(#clip470)" d="M2087.85 1012.43 Q2086 1012.43 2084.72 1013.73 Q2083.45 1015 2083.45 1016.85 Q2083.45 1018.68 2084.72 1019.96 Q2086 1021.21 2087.85 1021.21 Q2089.7 1021.21 2090.97 1019.96 Q2092.25 1018.68 2092.25 1016.85 Q2092.25 1015.03 2090.95 1013.73 Q2089.68 1012.43 2087.85 1012.43 M2087.85 1009.45 Q2089.33 1009.45 2090.7 1010.03 Q2092.06 1010.58 2093.06 1011.65 Q2094.12 1012.69 2094.65 1014.01 Q2095.19 1015.33 2095.19 1016.85 Q2095.19 1019.91 2093.03 1022.04 Q2090.9 1024.15 2087.8 1024.15 Q2084.68 1024.15 2082.59 1022.06 Q2080.51 1019.98 2080.51 1016.85 Q2080.51 1013.75 2082.64 1011.6 Q2084.77 1009.45 2087.85 1009.45 Z" fill="#000000" fill-rule="nonzero" fill-opacity="1" /><path clip-path="url(#clip470)" d="M2121.78 1021.48 L2121.78 1005.79 L2126.04 1005.79 L2126.04 1021.32 Q2126.04 1025 2127.48 1026.85 Q2128.91 1028.68 2131.78 1028.68 Q2135.23 1028.68 2137.22 1026.48 Q2139.24 1024.28 2139.24 1020.49 L2139.24 1005.79 L2143.5 1005.79 L2143.5 1031.72 L2139.24 1031.72 L2139.24 1027.73 Q2137.69 1030.09 2135.63 1031.25 Q2133.59 1032.39 2130.88 1032.39 Q2126.41 1032.39 2124.1 1029.61 Q2121.78 1026.83 2121.78 1021.48 M2132.5 1005.16 L2132.5 1005.16 Z" fill="#000000" fill-rule="nonzero" fill-opacity="1" /><path clip-path="url(#clip470)" d="M2161.53 1015.07 L2161.53 1022.29 L2169.65 1022.29 L2169.65 1024.49 L2161.53 1024.49 L2161.53 1031.72 L2159.1 1031.72 L2159.1 1024.49 L2150.97 1024.49 L2150.97 1022.29 L2159.1 1022.29 L2159.1 1015.07 L2161.53 1015.07 Z" fill="#000000" fill-rule="nonzero" fill-opacity="1" /><path clip-path="url(#clip470)" d="M1732.09 1087.01 L1875.46 1087.01 L1875.46 1045.54 L1732.09 1045.54 L1732.09 1087.01  Z" fill="#0000ff" fill-rule="evenodd" fill-opacity="0.35"/>
<polyline clip-path="url(#clip470)" style="stroke:#000000; stroke-linecap:round; stroke-linejoin:round; stroke-width:4; stroke-opacity:0; fill:none" points="1732.09,1087.01 1875.46,1087.01 1875.46,1045.54 1732.09,1045.54 1732.09,1087.01 "/>
<path clip-path="url(#clip470)" d="M1899.35 1073.32 L1899.35 1057.63 L1903.61 1057.63 L1903.61 1073.16 Q1903.61 1076.84 1905.05 1078.69 Q1906.48 1080.52 1909.35 1080.52 Q1912.8 1080.52 1914.79 1078.32 Q1916.81 1076.12 1916.81 1072.33 L1916.81 1057.63 L1921.07 1057.63 L1921.07 1083.56 L1916.81 1083.56 L1916.81 1079.57 Q1915.26 1081.93 1913.2 1083.09 Q1911.16 1084.23 1908.45 1084.23 Q1903.98 1084.23 1901.67 1081.45 Q1899.35 1078.67 1899.35 1073.32 M1910.07 1057 L1910.07 1057 Z" fill="#000000" fill-rule="nonzero" fill-opacity="1" /><path clip-path="url(#clip470)" d="M1928.54 1074.13 L1947.22 1074.13 L1947.22 1076.33 L1928.54 1076.33 L1928.54 1074.13 Z" fill="#000000" fill-rule="nonzero" fill-opacity="1" /><path clip-path="url(#clip470)" d="M1980.3 1064.27 Q1978.45 1064.27 1977.18 1065.57 Q1975.91 1066.84 1975.91 1068.69 Q1975.91 1070.52 1977.18 1071.8 Q1978.45 1073.05 1980.3 1073.05 Q1982.16 1073.05 1983.43 1071.8 Q1984.7 1070.52 1984.7 1068.69 Q1984.7 1066.87 1983.41 1065.57 Q1982.13 1064.27 1980.3 1064.27 M1980.3 1061.29 Q1981.78 1061.29 1983.15 1061.87 Q1984.52 1062.42 1985.51 1063.49 Q1986.58 1064.53 1987.11 1065.85 Q1987.64 1067.17 1987.64 1068.69 Q1987.64 1071.75 1985.49 1073.88 Q1983.36 1075.99 1980.26 1075.99 Q1977.13 1075.99 1975.05 1073.9 Q1972.97 1071.82 1972.97 1068.69 Q1972.97 1065.59 1975.1 1063.44 Q1977.22 1061.29 1980.3 1061.29 Z" fill="#000000" fill-rule="nonzero" fill-opacity="1" /><path clip-path="url(#clip470)" d="M2014.24 1073.32 L2014.24 1057.63 L2018.5 1057.63 L2018.5 1073.16 Q2018.5 1076.84 2019.93 1078.69 Q2021.37 1080.52 2024.24 1080.52 Q2027.69 1080.52 2029.68 1078.32 Q2031.69 1076.12 2031.69 1072.33 L2031.69 1057.63 L2035.95 1057.63 L2035.95 1083.56 L2031.69 1083.56 L2031.69 1079.57 Q2030.14 1081.93 2028.08 1083.09 Q2026.04 1084.23 2023.34 1084.23 Q2018.87 1084.23 2016.55 1081.45 Q2014.24 1078.67 2014.24 1073.32 M2024.96 1057 L2024.96 1057 Z" fill="#000000" fill-rule="nonzero" fill-opacity="1" /><path clip-path="url(#clip470)" d="M2054.56 1069.09 L2054.56 1071.33 Q2053.43 1070.82 2052.2 1070.57 Q2051 1070.31 2049.68 1070.31 Q2047.66 1070.31 2046.67 1070.85 Q2045.67 1071.4 2045.67 1072.49 Q2045.67 1073.32 2046.39 1073.79 Q2047.11 1074.27 2049.26 1074.69 L2050.19 1074.87 Q2053.08 1075.43 2054.24 1076.4 Q2055.44 1077.4 2055.44 1079.18 Q2055.44 1081.19 2053.64 1082.37 Q2051.85 1083.56 2048.71 1083.56 Q2047.39 1083.56 2045.95 1083.32 Q2044.54 1083.09 2042.97 1082.65 L2042.97 1080.18 Q2044.45 1080.87 2045.9 1081.22 Q2047.34 1081.56 2048.75 1081.56 Q2050.65 1081.56 2051.67 1080.99 Q2052.69 1080.41 2052.69 1079.37 Q2052.69 1078.39 2051.95 1077.86 Q2051.3 1077.4 2048.73 1076.87 L2047.8 1076.68 Q2045.3 1076.19 2044.19 1075.25 Q2043.08 1074.27 2043.08 1072.58 Q2043.08 1070.55 2044.72 1069.44 Q2046.34 1068.3 2049.35 1068.3 Q2050.84 1068.3 2052.15 1068.51 Q2053.47 1068.69 2054.56 1069.09 Z" fill="#000000" fill-rule="nonzero" fill-opacity="1" /><path clip-path="url(#clip470)" d="M2087.85 1064.27 Q2086 1064.27 2084.72 1065.57 Q2083.45 1066.84 2083.45 1068.69 Q2083.45 1070.52 2084.72 1071.8 Q2086 1073.05 2087.85 1073.05 Q2089.7 1073.05 2090.97 1071.8 Q2092.25 1070.52 2092.25 1068.69 Q2092.25 1066.87 2090.95 1065.57 Q2089.68 1064.27 2087.85 1064.27 M2087.85 1061.29 Q2089.33 1061.29 2090.7 1061.87 Q2092.06 1062.42 2093.06 1063.49 Q2094.12 1064.53 2094.65 1065.85 Q2095.19 1067.17 2095.19 1068.69 Q2095.19 1071.75 2093.03 1073.88 Q2090.9 1075.99 2087.8 1075.99 Q2084.68 1075.99 2082.59 1073.9 Q2080.51 1071.82 2080.51 1068.69 Q2080.51 1065.59 2082.64 1063.44 Q2084.77 1061.29 2087.85 1061.29 Z" fill="#000000" fill-rule="nonzero" fill-opacity="1" /><path clip-path="url(#clip470)" d="M2121.78 1073.32 L2121.78 1057.63 L2126.04 1057.63 L2126.04 1073.16 Q2126.04 1076.84 2127.48 1078.69 Q2128.91 1080.52 2131.78 1080.52 Q2135.23 1080.52 2137.22 1078.32 Q2139.24 1076.12 2139.24 1072.33 L2139.24 1057.63 L2143.5 1057.63 L2143.5 1083.56 L2139.24 1083.56 L2139.24 1079.57 Q2137.69 1081.93 2135.63 1083.09 Q2133.59 1084.23 2130.88 1084.23 Q2126.41 1084.23 2124.1 1081.45 Q2121.78 1078.67 2121.78 1073.32 M2132.5 1057 L2132.5 1057 Z" fill="#000000" fill-rule="nonzero" fill-opacity="1" /><path clip-path="url(#clip470)" d="M2161.53 1066.91 L2161.53 1074.13 L2169.65 1074.13 L2169.65 1076.33 L2161.53 1076.33 L2161.53 1083.56 L2159.1 1083.56 L2159.1 1076.33 L2150.97 1076.33 L2150.97 1074.13 L2159.1 1074.13 L2159.1 1066.91 L2161.53 1066.91 Z" fill="#000000" fill-rule="nonzero" fill-opacity="1" /><path clip-path="url(#clip470)" d="M1732.09 1138.85 L1875.46 1138.85 L1875.46 1097.38 L1732.09 1097.38 L1732.09 1138.85  Z" fill="#a52a2a" fill-rule="evenodd" fill-opacity="0.35"/>
<polyline clip-path="url(#clip470)" style="stroke:#000000; stroke-linecap:round; stroke-linejoin:round; stroke-width:4; stroke-opacity:0; fill:none" points="1732.09,1138.85 1875.46,1138.85 1875.46,1097.38 1732.09,1097.38 1732.09,1138.85 "/>
<path clip-path="url(#clip470)" d="M1899.35 1125.16 L1899.35 1109.47 L1903.61 1109.47 L1903.61 1125 Q1903.61 1128.68 1905.05 1130.53 Q1906.48 1132.36 1909.35 1132.36 Q1912.8 1132.36 1914.79 1130.16 Q1916.81 1127.96 1916.81 1124.17 L1916.81 1109.47 L1921.07 1109.47 L1921.07 1135.4 L1916.81 1135.4 L1916.81 1131.41 Q1915.26 1133.77 1913.2 1134.93 Q1911.16 1136.07 1908.45 1136.07 Q1903.98 1136.07 1901.67 1133.29 Q1899.35 1130.51 1899.35 1125.16 M1910.07 1108.84 L1910.07 1108.84 Z" fill="#000000" fill-rule="nonzero" fill-opacity="1" /><path clip-path="url(#clip470)" d="M1939.1 1118.75 L1939.1 1125.97 L1947.22 1125.97 L1947.22 1128.17 L1939.1 1128.17 L1939.1 1135.4 L1936.67 1135.4 L1936.67 1128.17 L1928.54 1128.17 L1928.54 1125.97 L1936.67 1125.97 L1936.67 1118.75 L1939.1 1118.75 Z" fill="#000000" fill-rule="nonzero" fill-opacity="1" /><path clip-path="url(#clip470)" d="M1980.3 1116.11 Q1978.45 1116.11 1977.18 1117.41 Q1975.91 1118.68 1975.91 1120.53 Q1975.91 1122.36 1977.18 1123.64 Q1978.45 1124.89 1980.3 1124.89 Q1982.16 1124.89 1983.43 1123.64 Q1984.7 1122.36 1984.7 1120.53 Q1984.7 1118.71 1983.41 1117.41 Q1982.13 1116.11 1980.3 1116.11 M1980.3 1113.13 Q1981.78 1113.13 1983.15 1113.71 Q1984.52 1114.26 1985.51 1115.33 Q1986.58 1116.37 1987.11 1117.69 Q1987.64 1119.01 1987.64 1120.53 Q1987.64 1123.59 1985.49 1125.72 Q1983.36 1127.83 1980.26 1127.83 Q1977.13 1127.83 1975.05 1125.74 Q1972.97 1123.66 1972.97 1120.53 Q1972.97 1117.43 1975.1 1115.28 Q1977.22 1113.13 1980.3 1113.13 Z" fill="#000000" fill-rule="nonzero" fill-opacity="1" /><path clip-path="url(#clip470)" d="M2014.24 1125.16 L2014.24 1109.47 L2018.5 1109.47 L2018.5 1125 Q2018.5 1128.68 2019.93 1130.53 Q2021.37 1132.36 2024.24 1132.36 Q2027.69 1132.36 2029.68 1130.16 Q2031.69 1127.96 2031.69 1124.17 L2031.69 1109.47 L2035.95 1109.47 L2035.95 1135.4 L2031.69 1135.4 L2031.69 1131.41 Q2030.14 1133.77 2028.08 1134.93 Q2026.04 1136.07 2023.34 1136.07 Q2018.87 1136.07 2016.55 1133.29 Q2014.24 1130.51 2014.24 1125.16 M2024.96 1108.84 L2024.96 1108.84 Z" fill="#000000" fill-rule="nonzero" fill-opacity="1" /><path clip-path="url(#clip470)" d="M2054.56 1120.93 L2054.56 1123.17 Q2053.43 1122.66 2052.2 1122.41 Q2051 1122.15 2049.68 1122.15 Q2047.66 1122.15 2046.67 1122.69 Q2045.67 1123.24 2045.67 1124.33 Q2045.67 1125.16 2046.39 1125.63 Q2047.11 1126.11 2049.26 1126.53 L2050.19 1126.71 Q2053.08 1127.27 2054.24 1128.24 Q2055.44 1129.24 2055.44 1131.02 Q2055.44 1133.03 2053.64 1134.21 Q2051.85 1135.4 2048.71 1135.4 Q2047.39 1135.4 2045.95 1135.16 Q2044.54 1134.93 2042.97 1134.49 L2042.97 1132.02 Q2044.45 1132.71 2045.9 1133.06 Q2047.34 1133.4 2048.75 1133.4 Q2050.65 1133.4 2051.67 1132.83 Q2052.69 1132.25 2052.69 1131.21 Q2052.69 1130.23 2051.95 1129.7 Q2051.3 1129.24 2048.73 1128.71 L2047.8 1128.52 Q2045.3 1128.03 2044.19 1127.09 Q2043.08 1126.11 2043.08 1124.42 Q2043.08 1122.39 2044.72 1121.28 Q2046.34 1120.14 2049.35 1120.14 Q2050.84 1120.14 2052.15 1120.35 Q2053.47 1120.53 2054.56 1120.93 Z" fill="#000000" fill-rule="nonzero" fill-opacity="1" /><path clip-path="url(#clip470)" d="M2087.85 1116.11 Q2086 1116.11 2084.72 1117.41 Q2083.45 1118.68 2083.45 1120.53 Q2083.45 1122.36 2084.72 1123.64 Q2086 1124.89 2087.85 1124.89 Q2089.7 1124.89 2090.97 1123.64 Q2092.25 1122.36 2092.25 1120.53 Q2092.25 1118.71 2090.95 1117.41 Q2089.68 1116.11 2087.85 1116.11 M2087.85 1113.13 Q2089.33 1113.13 2090.7 1113.71 Q2092.06 1114.26 2093.06 1115.33 Q2094.12 1116.37 2094.65 1117.69 Q2095.19 1119.01 2095.19 1120.53 Q2095.19 1123.59 2093.03 1125.72 Q2090.9 1127.83 2087.8 1127.83 Q2084.68 1127.83 2082.59 1125.74 Q2080.51 1123.66 2080.51 1120.53 Q2080.51 1117.43 2082.64 1115.28 Q2084.77 1113.13 2087.85 1113.13 Z" fill="#000000" fill-rule="nonzero" fill-opacity="1" /><path clip-path="url(#clip470)" d="M2121.78 1125.16 L2121.78 1109.47 L2126.04 1109.47 L2126.04 1125 Q2126.04 1128.68 2127.48 1130.53 Q2128.91 1132.36 2131.78 1132.36 Q2135.23 1132.36 2137.22 1130.16 Q2139.24 1127.96 2139.24 1124.17 L2139.24 1109.47 L2143.5 1109.47 L2143.5 1135.4 L2139.24 1135.4 L2139.24 1131.41 Q2137.69 1133.77 2135.63 1134.93 Q2133.59 1136.07 2130.88 1136.07 Q2126.41 1136.07 2124.1 1133.29 Q2121.78 1130.51 2121.78 1125.16 M2132.5 1108.84 L2132.5 1108.84 Z" fill="#000000" fill-rule="nonzero" fill-opacity="1" /><path clip-path="url(#clip470)" d="M2161.53 1118.75 L2161.53 1125.97 L2169.65 1125.97 L2169.65 1128.17 L2161.53 1128.17 L2161.53 1135.4 L2159.1 1135.4 L2159.1 1128.17 L2150.97 1128.17 L2150.97 1125.97 L2159.1 1125.97 L2159.1 1118.75 L2161.53 1118.75 Z" fill="#000000" fill-rule="nonzero" fill-opacity="1" /><path clip-path="url(#clip470)" d="M1732.09 1190.69 L1875.46 1190.69 L1875.46 1149.22 L1732.09 1149.22 L1732.09 1190.69  Z" fill="#9acd32" fill-rule="evenodd" fill-opacity="0.35"/>
<polyline clip-path="url(#clip470)" style="stroke:#000000; stroke-linecap:round; stroke-linejoin:round; stroke-width:4; stroke-opacity:0; fill:none" points="1732.09,1190.69 1875.46,1190.69 1875.46,1149.22 1732.09,1149.22 1732.09,1190.69 "/>
<path clip-path="url(#clip470)" d="M1899.35 1177 L1899.35 1161.31 L1903.61 1161.31 L1903.61 1176.84 Q1903.61 1180.52 1905.05 1182.37 Q1906.48 1184.2 1909.35 1184.2 Q1912.8 1184.2 1914.79 1182 Q1916.81 1179.8 1916.81 1176.01 L1916.81 1161.31 L1921.07 1161.31 L1921.07 1187.24 L1916.81 1187.24 L1916.81 1183.25 Q1915.26 1185.61 1913.2 1186.77 Q1911.16 1187.91 1908.45 1187.91 Q1903.98 1187.91 1901.67 1185.13 Q1899.35 1182.35 1899.35 1177 M1910.07 1160.68 L1910.07 1160.68 Z" fill="#000000" fill-rule="nonzero" fill-opacity="1" /><path clip-path="url(#clip470)" d="M1928.54 1177.81 L1947.22 1177.81 L1947.22 1180.01 L1928.54 1180.01 L1928.54 1177.81 Z" fill="#000000" fill-rule="nonzero" fill-opacity="1" /><path clip-path="url(#clip470)" d="M1980.3 1167.95 Q1978.45 1167.95 1977.18 1169.25 Q1975.91 1170.52 1975.91 1172.37 Q1975.91 1174.2 1977.18 1175.48 Q1978.45 1176.73 1980.3 1176.73 Q1982.16 1176.73 1983.43 1175.48 Q1984.7 1174.2 1984.7 1172.37 Q1984.7 1170.55 1983.41 1169.25 Q1982.13 1167.95 1980.3 1167.95 M1980.3 1164.97 Q1981.78 1164.97 1983.15 1165.55 Q1984.52 1166.1 1985.51 1167.17 Q1986.58 1168.21 1987.11 1169.53 Q1987.64 1170.85 1987.64 1172.37 Q1987.64 1175.43 1985.49 1177.56 Q1983.36 1179.67 1980.26 1179.67 Q1977.13 1179.67 1975.05 1177.58 Q1972.97 1175.5 1972.97 1172.37 Q1972.97 1169.27 1975.1 1167.12 Q1977.22 1164.97 1980.3 1164.97 Z" fill="#000000" fill-rule="nonzero" fill-opacity="1" /><path clip-path="url(#clip470)" d="M2014.24 1177 L2014.24 1161.31 L2018.5 1161.31 L2018.5 1176.84 Q2018.5 1180.52 2019.93 1182.37 Q2021.37 1184.2 2024.24 1184.2 Q2027.69 1184.2 2029.68 1182 Q2031.69 1179.8 2031.69 1176.01 L2031.69 1161.31 L2035.95 1161.31 L2035.95 1187.24 L2031.69 1187.24 L2031.69 1183.25 Q2030.14 1185.61 2028.08 1186.77 Q2026.04 1187.91 2023.34 1187.91 Q2018.87 1187.91 2016.55 1185.13 Q2014.24 1182.35 2014.24 1177 M2024.96 1160.68 L2024.96 1160.68 Z" fill="#000000" fill-rule="nonzero" fill-opacity="1" /><path clip-path="url(#clip470)" d="M2053.98 1170.59 L2053.98 1177.81 L2062.11 1177.81 L2062.11 1180.01 L2053.98 1180.01 L2053.98 1187.24 L2051.55 1187.24 L2051.55 1180.01 L2043.43 1180.01 L2043.43 1177.81 L2051.55 1177.81 L2051.55 1170.59 L2053.98 1170.59 Z" fill="#000000" fill-rule="nonzero" fill-opacity="1" /><path clip-path="url(#clip470)" d="M1732.09 1242.53 L1875.46 1242.53 L1875.46 1201.06 L1732.09 1201.06 L1732.09 1242.53  Z" fill="#ff0000" fill-rule="evenodd" fill-opacity="0.35"/>
<polyline clip-path="url(#clip470)" style="stroke:#000000; stroke-linecap:round; stroke-linejoin:round; stroke-width:4; stroke-opacity:0; fill:none" points="1732.09,1242.53 1875.46,1242.53 1875.46,1201.06 1732.09,1201.06 1732.09,1242.53 "/>
<path clip-path="url(#clip470)" d="M1899.35 1228.84 L1899.35 1213.15 L1903.61 1213.15 L1903.61 1228.68 Q1903.61 1232.36 1905.05 1234.21 Q1906.48 1236.04 1909.35 1236.04 Q1912.8 1236.04 1914.79 1233.84 Q1916.81 1231.64 1916.81 1227.85 L1916.81 1213.15 L1921.07 1213.15 L1921.07 1239.08 L1916.81 1239.08 L1916.81 1235.09 Q1915.26 1237.45 1913.2 1238.61 Q1911.16 1239.75 1908.45 1239.75 Q1903.98 1239.75 1901.67 1236.97 Q1899.35 1234.19 1899.35 1228.84 M1910.07 1212.52 L1910.07 1212.52 Z" fill="#000000" fill-rule="nonzero" fill-opacity="1" /><path clip-path="url(#clip470)" d="M1939.1 1222.43 L1939.1 1229.65 L1947.22 1229.65 L1947.22 1231.85 L1939.1 1231.85 L1939.1 1239.08 L1936.67 1239.08 L1936.67 1231.85 L1928.54 1231.85 L1928.54 1229.65 L1936.67 1229.65 L1936.67 1222.43 L1939.1 1222.43 Z" fill="#000000" fill-rule="nonzero" fill-opacity="1" /><polyline clip-path="url(#clip470)" style="stroke:#008000; stroke-linecap:round; stroke-linejoin:round; stroke-width:12; stroke-opacity:1; fill:none" points="1732.09,1273.64 1875.46,1273.64 "/>
<path clip-path="url(#clip470)" d="M1899.35 1280.68 L1899.35 1264.99 L1903.61 1264.99 L1903.61 1280.52 Q1903.61 1284.2 1905.05 1286.05 Q1906.48 1287.88 1909.35 1287.88 Q1912.8 1287.88 1914.79 1285.68 Q1916.81 1283.48 1916.81 1279.69 L1916.81 1264.99 L1921.07 1264.99 L1921.07 1290.92 L1916.81 1290.92 L1916.81 1286.93 Q1915.26 1289.29 1913.2 1290.45 Q1911.16 1291.59 1908.45 1291.59 Q1903.98 1291.59 1901.67 1288.81 Q1899.35 1286.03 1899.35 1280.68 M1910.07 1264.36 L1910.07 1264.36 Z" fill="#000000" fill-rule="nonzero" fill-opacity="1" /><path clip-path="url(#clip470)" d="M1939.68 1276.45 L1939.68 1278.69 Q1938.54 1278.18 1937.32 1277.93 Q1936.11 1277.67 1934.79 1277.67 Q1932.78 1277.67 1931.79 1278.21 Q1930.79 1278.76 1930.79 1279.85 Q1930.79 1280.68 1931.51 1281.15 Q1932.22 1281.63 1934.38 1282.05 L1935.3 1282.23 Q1938.2 1282.79 1939.35 1283.76 Q1940.56 1284.76 1940.56 1286.54 Q1940.56 1288.55 1938.75 1289.73 Q1936.97 1290.92 1933.82 1290.92 Q1932.5 1290.92 1931.07 1290.68 Q1929.66 1290.45 1928.08 1290.01 L1928.08 1287.54 Q1929.56 1288.23 1931.02 1288.58 Q1932.46 1288.92 1933.87 1288.92 Q1935.77 1288.92 1936.79 1288.35 Q1937.8 1287.77 1937.8 1286.73 Q1937.8 1285.75 1937.06 1285.22 Q1936.41 1284.76 1933.85 1284.23 L1932.92 1284.04 Q1930.42 1283.55 1929.31 1282.61 Q1928.2 1281.63 1928.2 1279.94 Q1928.2 1277.91 1929.84 1276.8 Q1931.46 1275.66 1934.47 1275.66 Q1935.95 1275.66 1937.27 1275.87 Q1938.59 1276.05 1939.68 1276.45 Z" fill="#000000" fill-rule="nonzero" fill-opacity="1" /><polyline clip-path="url(#clip470)" style="stroke:#ffd700; stroke-linecap:round; stroke-linejoin:round; stroke-width:12; stroke-opacity:1; fill:none" points="1732.09,1325.48 1875.46,1325.48 "/>
<path clip-path="url(#clip470)" d="M1917.78 1317.59 L1917.78 1321.62 Q1915.97 1320.7 1914.03 1320.23 Q1912.09 1319.77 1910 1319.77 Q1906.83 1319.77 1905.23 1320.74 Q1903.66 1321.71 1903.66 1323.66 Q1903.66 1325.14 1904.79 1326 Q1905.93 1326.83 1909.35 1327.59 L1910.81 1327.92 Q1915.35 1328.89 1917.25 1330.67 Q1919.17 1332.43 1919.17 1335.6 Q1919.17 1339.21 1916.3 1341.32 Q1913.45 1343.43 1908.45 1343.43 Q1906.37 1343.43 1904.1 1343.01 Q1901.85 1342.62 1899.35 1341.81 L1899.35 1337.41 Q1901.72 1338.63 1904.01 1339.26 Q1906.3 1339.86 1908.54 1339.86 Q1911.55 1339.86 1913.17 1338.84 Q1914.79 1337.8 1914.79 1335.93 Q1914.79 1334.19 1913.61 1333.26 Q1912.46 1332.34 1908.5 1331.48 L1907.02 1331.14 Q1903.06 1330.3 1901.3 1328.59 Q1899.54 1326.85 1899.54 1323.84 Q1899.54 1320.19 1902.13 1318.2 Q1904.73 1316.2 1909.49 1316.2 Q1911.85 1316.2 1913.94 1316.55 Q1916.02 1316.9 1917.78 1317.59 Z" fill="#000000" fill-rule="nonzero" fill-opacity="1" /><path clip-path="url(#clip470)" d="M1923.47 1316.83 L1927.73 1316.83 L1933.06 1337.06 L1938.36 1316.83 L1943.38 1316.83 L1948.71 1337.06 L1954.01 1316.83 L1958.27 1316.83 L1951.48 1342.76 L1946.46 1342.76 L1940.88 1321.51 L1935.28 1342.76 L1930.26 1342.76 L1923.47 1316.83 Z" fill="#000000" fill-rule="nonzero" fill-opacity="1" /><path clip-path="url(#clip470)" d="M1964.72 1316.83 L1968.98 1316.83 L1968.98 1342.76 L1964.72 1342.76 L1964.72 1316.83 M1964.72 1306.74 L1968.98 1306.74 L1968.98 1312.13 L1964.72 1312.13 L1964.72 1306.74 Z" fill="#000000" fill-rule="nonzero" fill-opacity="1" /><path clip-path="url(#clip470)" d="M1982.11 1309.47 L1982.11 1316.83 L1990.88 1316.83 L1990.88 1320.14 L1982.11 1320.14 L1982.11 1334.21 Q1982.11 1337.38 1982.97 1338.29 Q1983.84 1339.19 1986.51 1339.19 L1990.88 1339.19 L1990.88 1342.76 L1986.51 1342.76 Q1981.58 1342.76 1979.7 1340.93 Q1977.83 1339.07 1977.83 1334.21 L1977.83 1320.14 L1974.7 1320.14 L1974.7 1316.83 L1977.83 1316.83 L1977.83 1309.47 L1982.11 1309.47 Z" fill="#000000" fill-rule="nonzero" fill-opacity="1" /><path clip-path="url(#clip470)" d="M2015.14 1317.82 L2015.14 1321.81 Q2013.34 1320.81 2011.51 1320.32 Q2009.7 1319.82 2007.85 1319.82 Q2003.71 1319.82 2001.41 1322.45 Q1999.12 1325.07 1999.12 1329.82 Q1999.12 1334.56 2001.41 1337.2 Q2003.71 1339.82 2007.85 1339.82 Q2009.7 1339.82 2011.51 1339.33 Q2013.34 1338.82 2015.14 1337.82 L2015.14 1341.76 Q2013.36 1342.59 2011.44 1343.01 Q2009.54 1343.43 2007.39 1343.43 Q2001.53 1343.43 1998.08 1339.75 Q1994.63 1336.07 1994.63 1329.82 Q1994.63 1323.47 1998.1 1319.84 Q2001.6 1316.2 2007.66 1316.2 Q2009.63 1316.2 2011.51 1316.62 Q2013.38 1317.01 2015.14 1317.82 Z" fill="#000000" fill-rule="nonzero" fill-opacity="1" /><path clip-path="url(#clip470)" d="M2044.1 1327.11 L2044.1 1342.76 L2039.84 1342.76 L2039.84 1327.25 Q2039.84 1323.57 2038.4 1321.74 Q2036.97 1319.91 2034.1 1319.91 Q2030.65 1319.91 2028.66 1322.11 Q2026.67 1324.31 2026.67 1328.1 L2026.67 1342.76 L2022.39 1342.76 L2022.39 1306.74 L2026.67 1306.74 L2026.67 1320.86 Q2028.2 1318.52 2030.26 1317.36 Q2032.34 1316.2 2035.05 1316.2 Q2039.52 1316.2 2041.81 1318.98 Q2044.1 1321.74 2044.1 1327.11 Z" fill="#000000" fill-rule="nonzero" fill-opacity="1" /><path clip-path="url(#clip470)" d="M2052.59 1316.83 L2056.85 1316.83 L2056.85 1342.76 L2052.59 1342.76 L2052.59 1316.83 M2052.59 1306.74 L2056.85 1306.74 L2056.85 1312.13 L2052.59 1312.13 L2052.59 1306.74 Z" fill="#000000" fill-rule="nonzero" fill-opacity="1" /><path clip-path="url(#clip470)" d="M2087.32 1327.11 L2087.32 1342.76 L2083.06 1342.76 L2083.06 1327.25 Q2083.06 1323.57 2081.62 1321.74 Q2080.19 1319.91 2077.32 1319.91 Q2073.87 1319.91 2071.88 1322.11 Q2069.89 1324.31 2069.89 1328.1 L2069.89 1342.76 L2065.6 1342.76 L2065.6 1316.83 L2069.89 1316.83 L2069.89 1320.86 Q2071.41 1318.52 2073.47 1317.36 Q2075.56 1316.2 2078.27 1316.2 Q2082.73 1316.2 2085.03 1318.98 Q2087.32 1321.74 2087.32 1327.11 Z" fill="#000000" fill-rule="nonzero" fill-opacity="1" /><path clip-path="url(#clip470)" d="M2112.87 1329.49 Q2112.87 1324.86 2110.95 1322.32 Q2109.05 1319.77 2105.6 1319.77 Q2102.18 1319.77 2100.26 1322.32 Q2098.36 1324.86 2098.36 1329.49 Q2098.36 1334.1 2100.26 1336.64 Q2102.18 1339.19 2105.6 1339.19 Q2109.05 1339.19 2110.95 1336.64 Q2112.87 1334.1 2112.87 1329.49 M2117.13 1339.54 Q2117.13 1346.16 2114.19 1349.38 Q2111.25 1352.62 2105.19 1352.62 Q2102.94 1352.62 2100.95 1352.27 Q2098.96 1351.95 2097.09 1351.25 L2097.09 1347.11 Q2098.96 1348.13 2100.79 1348.61 Q2102.62 1349.1 2104.52 1349.1 Q2108.71 1349.1 2110.79 1346.9 Q2112.87 1344.72 2112.87 1340.3 L2112.87 1338.2 Q2111.55 1340.49 2109.49 1341.62 Q2107.43 1342.76 2104.56 1342.76 Q2099.79 1342.76 2096.88 1339.12 Q2093.96 1335.49 2093.96 1329.49 Q2093.96 1323.47 2096.88 1319.84 Q2099.79 1316.2 2104.56 1316.2 Q2107.43 1316.2 2109.49 1317.34 Q2111.55 1318.47 2112.87 1320.76 L2112.87 1316.83 L2117.13 1316.83 L2117.13 1339.54 Z" fill="#000000" fill-rule="nonzero" fill-opacity="1" /><path clip-path="url(#clip470)" d="M2140.97 1306.74 L2145.23 1306.74 L2145.23 1342.76 L2140.97 1342.76 L2140.97 1306.74 Z" fill="#000000" fill-rule="nonzero" fill-opacity="1" /><path clip-path="url(#clip470)" d="M2164.19 1319.82 Q2160.77 1319.82 2158.77 1322.5 Q2156.78 1325.16 2156.78 1329.82 Q2156.78 1334.47 2158.75 1337.15 Q2160.74 1339.82 2164.19 1339.82 Q2167.59 1339.82 2169.58 1337.13 Q2171.58 1334.45 2171.58 1329.82 Q2171.58 1325.21 2169.58 1322.52 Q2167.59 1319.82 2164.19 1319.82 M2164.19 1316.2 Q2169.75 1316.2 2172.92 1319.82 Q2176.09 1323.43 2176.09 1329.82 Q2176.09 1336.18 2172.92 1339.82 Q2169.75 1343.43 2164.19 1343.43 Q2158.61 1343.43 2155.44 1339.82 Q2152.29 1336.18 2152.29 1329.82 Q2152.29 1323.43 2155.44 1319.82 Q2158.61 1316.2 2164.19 1316.2 Z" fill="#000000" fill-rule="nonzero" fill-opacity="1" /><path clip-path="url(#clip470)" d="M2201.81 1317.82 L2201.81 1321.81 Q2200 1320.81 2198.17 1320.32 Q2196.37 1319.82 2194.52 1319.82 Q2190.37 1319.82 2188.08 1322.45 Q2185.79 1325.07 2185.79 1329.82 Q2185.79 1334.56 2188.08 1337.2 Q2190.37 1339.82 2194.52 1339.82 Q2196.37 1339.82 2198.17 1339.33 Q2200 1338.82 2201.81 1337.82 L2201.81 1341.76 Q2200.02 1342.59 2198.1 1343.01 Q2196.2 1343.43 2194.05 1343.43 Q2188.2 1343.43 2184.75 1339.75 Q2181.3 1336.07 2181.3 1329.82 Q2181.3 1323.47 2184.77 1319.84 Q2188.27 1316.2 2194.33 1316.2 Q2196.3 1316.2 2198.17 1316.62 Q2200.05 1317.01 2201.81 1317.82 Z" fill="#000000" fill-rule="nonzero" fill-opacity="1" /><path clip-path="url(#clip470)" d="M2208.77 1332.52 L2208.77 1316.83 L2213.03 1316.83 L2213.03 1332.36 Q2213.03 1336.04 2214.47 1337.89 Q2215.9 1339.72 2218.77 1339.72 Q2222.22 1339.72 2224.21 1337.52 Q2226.23 1335.32 2226.23 1331.53 L2226.23 1316.83 L2230.49 1316.83 L2230.49 1342.76 L2226.23 1342.76 L2226.23 1338.77 Q2224.68 1341.13 2222.62 1342.29 Q2220.58 1343.43 2217.87 1343.43 Q2213.4 1343.43 2211.09 1340.65 Q2208.77 1337.87 2208.77 1332.52 M2219.49 1316.2 L2219.49 1316.2 Z" fill="#000000" fill-rule="nonzero" fill-opacity="1" /><path clip-path="url(#clip470)" d="M2255.79 1317.59 L2255.79 1321.62 Q2253.98 1320.7 2252.04 1320.23 Q2250.09 1319.77 2248.01 1319.77 Q2244.84 1319.77 2243.24 1320.74 Q2241.67 1321.71 2241.67 1323.66 Q2241.67 1325.14 2242.8 1326 Q2243.94 1326.83 2247.36 1327.59 L2248.82 1327.92 Q2253.36 1328.89 2255.26 1330.67 Q2257.18 1332.43 2257.18 1335.6 Q2257.18 1339.21 2254.31 1341.32 Q2251.46 1343.43 2246.46 1343.43 Q2244.38 1343.43 2242.11 1343.01 Q2239.86 1342.62 2237.36 1341.81 L2237.36 1337.41 Q2239.72 1338.63 2242.01 1339.26 Q2244.31 1339.86 2246.55 1339.86 Q2249.56 1339.86 2251.18 1338.84 Q2252.8 1337.8 2252.8 1335.93 Q2252.8 1334.19 2251.62 1333.26 Q2250.46 1332.34 2246.51 1331.48 L2245.02 1331.14 Q2241.07 1330.3 2239.31 1328.59 Q2237.55 1326.85 2237.55 1323.84 Q2237.55 1320.19 2240.14 1318.2 Q2242.73 1316.2 2247.5 1316.2 Q2249.86 1316.2 2251.95 1316.55 Q2254.03 1316.9 2255.79 1317.59 Z" fill="#000000" fill-rule="nonzero" fill-opacity="1" /></svg>
