<?xml version="1.0" encoding="utf-8"?>
<svg xmlns="http://www.w3.org/2000/svg" xmlns:xlink="http://www.w3.org/1999/xlink" width="600" height="400" viewBox="0 0 2400 1600">
<defs>
  <clipPath id="clip360">
    <rect x="0" y="0" width="2400" height="1600"/>
  </clipPath>
</defs>
<path clip-path="url(#clip360)" d="M0 1600 L2400 1600 L2400 0 L0 0  Z" fill="#ffffff" fill-rule="evenodd" fill-opacity="1"/>
<defs>
  <clipPath id="clip361">
    <rect x="480" y="0" width="1681" height="1600"/>
  </clipPath>
</defs>
<path clip-path="url(#clip360)" d="M147.709 1486.45 L2352.76 1486.45 L2352.76 47.2441 L147.709 47.2441  Z" fill="#ffffff" fill-rule="evenodd" fill-opacity="1"/>
<defs>
  <clipPath id="clip362">
    <rect x="147" y="47" width="2206" height="1440"/>
  </clipPath>
</defs>
<polyline clip-path="url(#clip362)" style="stroke:#000000; stroke-linecap:round; stroke-linejoin:round; stroke-width:2; stroke-opacity:0.1; fill:none" points="147.709,1486.45 147.709,47.2441 "/>
<polyline clip-path="url(#clip362)" style="stroke:#000000; stroke-linecap:round; stroke-linejoin:round; stroke-width:2; stroke-opacity:0.1; fill:none" points="882.725,1486.45 882.725,47.2441 "/>
<polyline clip-path="url(#clip362)" style="stroke:#000000; stroke-linecap:round; stroke-linejoin:round; stroke-width:2; stroke-opacity:0.1; fill:none" points="1617.74,1486.45 1617.74,47.2441 "/>
<polyline clip-path="url(#clip362)" style="stroke:#000000; stroke-linecap:round; stroke-linejoin:round; stroke-width:2; stroke-opacity:0.1; fill:none" points="2352.76,1486.45 2352.76,47.2441 "/>
<polyline clip-path="url(#clip362)" style="stroke:#000000; stroke-linecap:round; stroke-linejoin:round; stroke-width:2; stroke-opacity:0.1; fill:none" points="147.709,1274.01 2352.76,1274.01 "/>
<polyline clip-path="url(#clip362)" style="stroke:#000000; stroke-linecap:round; stroke-linejoin:round; stroke-width:2; stroke-opacity:0.1; fill:none" points="147.709,897.409 2352.76,897.409 "/>
<polyline clip-path="url(#clip362)" style="stroke:#000000; stroke-linecap:round; stroke-linejoin:round; stroke-width:2; stroke-opacity:0.1; fill:none" points="147.709,520.812 2352.76,520.812 "/>
<polyline clip-path="url(#clip362)" style="stroke:#000000; stroke-linecap:round; stroke-linejoin:round; stroke-width:2; stroke-opacity:0.1; fill:none" points="147.709,144.215 2352.76,144.215 "/>
<polyline clip-path="url(#clip360)" style="stroke:#000000; stroke-linecap:round; stroke-linejoin:round; stroke-width:4; stroke-opacity:1; fill:none" points="147.709,1486.45 2352.76,1486.45 "/>
<polyline clip-path="url(#clip360)" style="stroke:#000000; stroke-linecap:round; stroke-linejoin:round; stroke-width:4; stroke-opacity:1; fill:none" points="147.709,1486.45 147.709,1467.55 "/>
<polyline clip-path="url(#clip360)" style="stroke:#000000; stroke-linecap:round; stroke-linejoin:round; stroke-width:4; stroke-opacity:1; fill:none" points="882.725,1486.45 882.725,1467.55 "/>
<polyline clip-path="url(#clip360)" style="stroke:#000000; stroke-linecap:round; stroke-linejoin:round; stroke-width:4; stroke-opacity:1; fill:none" points="1617.74,1486.45 1617.74,1467.55 "/>
<polyline clip-path="url(#clip360)" style="stroke:#000000; stroke-linecap:round; stroke-linejoin:round; stroke-width:4; stroke-opacity:1; fill:none" points="2352.76,1486.45 2352.76,1467.55 "/>
<path clip-path="url(#clip360)" d="M147.709 1517.37 Q144.098 1517.37 142.27 1520.93 Q140.464 1524.47 140.464 1531.6 Q140.464 1538.71 142.27 1542.27 Q144.098 1545.82 147.709 1545.82 Q151.344 1545.82 153.149 1542.27 Q154.978 1538.71 154.978 1531.6 Q154.978 1524.47 153.149 1520.93 Q151.344 1517.37 147.709 1517.37 M147.709 1513.66 Q153.52 1513.66 156.575 1518.27 Q159.654 1522.85 159.654 1531.6 Q159.654 1540.33 156.575 1544.94 Q153.52 1549.52 147.709 1549.52 Q141.899 1549.52 138.821 1544.94 Q135.765 1540.33 135.765 1531.6 Q135.765 1522.85 138.821 1518.27 Q141.899 1513.66 147.709 1513.66 Z" fill="#000000" fill-rule="nonzero" fill-opacity="1" /><path clip-path="url(#clip360)" d="M857.413 1544.91 L865.051 1544.91 L865.051 1518.55 L856.741 1520.21 L856.741 1515.95 L865.005 1514.29 L869.681 1514.29 L869.681 1544.91 L877.32 1544.91 L877.32 1548.85 L857.413 1548.85 L857.413 1544.91 Z" fill="#000000" fill-rule="nonzero" fill-opacity="1" /><path clip-path="url(#clip360)" d="M896.764 1517.37 Q893.153 1517.37 891.324 1520.93 Q889.519 1524.47 889.519 1531.6 Q889.519 1538.71 891.324 1542.27 Q893.153 1545.82 896.764 1545.82 Q900.398 1545.82 902.204 1542.27 Q904.033 1538.71 904.033 1531.6 Q904.033 1524.47 902.204 1520.93 Q900.398 1517.37 896.764 1517.37 M896.764 1513.66 Q902.574 1513.66 905.63 1518.27 Q908.709 1522.85 908.709 1531.6 Q908.709 1540.33 905.63 1544.94 Q902.574 1549.52 896.764 1549.52 Q890.954 1549.52 887.875 1544.94 Q884.82 1540.33 884.82 1531.6 Q884.82 1522.85 887.875 1518.27 Q890.954 1513.66 896.764 1513.66 Z" fill="#000000" fill-rule="nonzero" fill-opacity="1" /><path clip-path="url(#clip360)" d="M1596.51 1544.91 L1612.83 1544.91 L1612.83 1548.85 L1590.89 1548.85 L1590.89 1544.91 Q1593.55 1542.16 1598.13 1537.53 Q1602.74 1532.88 1603.92 1531.53 Q1606.17 1529.01 1607.05 1527.27 Q1607.95 1525.51 1607.95 1523.82 Q1607.95 1521.07 1606 1519.33 Q1604.08 1517.6 1600.98 1517.6 Q1598.78 1517.6 1596.33 1518.36 Q1593.9 1519.13 1591.12 1520.68 L1591.12 1515.95 Q1593.94 1514.82 1596.4 1514.24 Q1598.85 1513.66 1600.89 1513.66 Q1606.26 1513.66 1609.45 1516.35 Q1612.65 1519.03 1612.65 1523.52 Q1612.65 1525.65 1611.84 1527.57 Q1611.05 1529.47 1608.94 1532.07 Q1608.37 1532.74 1605.26 1535.95 Q1602.16 1539.15 1596.51 1544.91 Z" fill="#000000" fill-rule="nonzero" fill-opacity="1" /><path clip-path="url(#clip360)" d="M1632.65 1517.37 Q1629.04 1517.37 1627.21 1520.93 Q1625.4 1524.47 1625.4 1531.6 Q1625.4 1538.71 1627.21 1542.27 Q1629.04 1545.82 1632.65 1545.82 Q1636.28 1545.82 1638.09 1542.27 Q1639.92 1538.71 1639.92 1531.6 Q1639.92 1524.47 1638.09 1520.93 Q1636.28 1517.37 1632.65 1517.37 M1632.65 1513.66 Q1638.46 1513.66 1641.51 1518.27 Q1644.59 1522.85 1644.59 1531.6 Q1644.59 1540.33 1641.51 1544.94 Q1638.46 1549.52 1632.65 1549.52 Q1626.84 1549.52 1623.76 1544.94 Q1620.7 1540.33 1620.7 1531.6 Q1620.7 1522.85 1623.76 1518.27 Q1626.84 1513.66 1632.65 1513.66 Z" fill="#000000" fill-rule="nonzero" fill-opacity="1" /><path clip-path="url(#clip360)" d="M2341.6 1530.21 Q2344.96 1530.93 2346.83 1533.2 Q2348.73 1535.47 2348.73 1538.8 Q2348.73 1543.92 2345.21 1546.72 Q2341.69 1549.52 2335.21 1549.52 Q2333.03 1549.52 2330.72 1549.08 Q2328.43 1548.66 2325.97 1547.81 L2325.97 1543.29 Q2327.92 1544.43 2330.23 1545.01 Q2332.55 1545.58 2335.07 1545.58 Q2339.47 1545.58 2341.76 1543.85 Q2344.08 1542.11 2344.08 1538.8 Q2344.08 1535.75 2341.92 1534.03 Q2339.79 1532.3 2335.97 1532.3 L2331.95 1532.3 L2331.95 1528.45 L2336.16 1528.45 Q2339.61 1528.45 2341.44 1527.09 Q2343.27 1525.7 2343.27 1523.11 Q2343.27 1520.45 2341.37 1519.03 Q2339.49 1517.6 2335.97 1517.6 Q2334.05 1517.6 2331.85 1518.01 Q2329.65 1518.43 2327.02 1519.31 L2327.02 1515.14 Q2329.68 1514.4 2331.99 1514.03 Q2334.33 1513.66 2336.39 1513.66 Q2341.71 1513.66 2344.82 1516.09 Q2347.92 1518.5 2347.92 1522.62 Q2347.92 1525.49 2346.27 1527.48 Q2344.63 1529.45 2341.6 1530.21 Z" fill="#000000" fill-rule="nonzero" fill-opacity="1" /><path clip-path="url(#clip360)" d="M2367.59 1517.37 Q2363.98 1517.37 2362.15 1520.93 Q2360.35 1524.47 2360.35 1531.6 Q2360.35 1538.71 2362.15 1542.27 Q2363.98 1545.82 2367.59 1545.82 Q2371.23 1545.82 2373.03 1542.27 Q2374.86 1538.71 2374.86 1531.6 Q2374.86 1524.47 2373.03 1520.93 Q2371.23 1517.37 2367.59 1517.37 M2367.59 1513.66 Q2373.4 1513.66 2376.46 1518.27 Q2379.54 1522.85 2379.54 1531.6 Q2379.54 1540.33 2376.46 1544.94 Q2373.4 1549.52 2367.59 1549.52 Q2361.78 1549.52 2358.7 1544.94 Q2355.65 1540.33 2355.65 1531.6 Q2355.65 1522.85 2358.7 1518.27 Q2361.78 1513.66 2367.59 1513.66 Z" fill="#000000" fill-rule="nonzero" fill-opacity="1" /><polyline clip-path="url(#clip360)" style="stroke:#000000; stroke-linecap:round; stroke-linejoin:round; stroke-width:4; stroke-opacity:1; fill:none" points="147.709,1486.45 147.709,47.2441 "/>
<polyline clip-path="url(#clip360)" style="stroke:#000000; stroke-linecap:round; stroke-linejoin:round; stroke-width:4; stroke-opacity:1; fill:none" points="147.709,1274.01 166.607,1274.01 "/>
<polyline clip-path="url(#clip360)" style="stroke:#000000; stroke-linecap:round; stroke-linejoin:round; stroke-width:4; stroke-opacity:1; fill:none" points="147.709,897.409 166.607,897.409 "/>
<polyline clip-path="url(#clip360)" style="stroke:#000000; stroke-linecap:round; stroke-linejoin:round; stroke-width:4; stroke-opacity:1; fill:none" points="147.709,520.812 166.607,520.812 "/>
<polyline clip-path="url(#clip360)" style="stroke:#000000; stroke-linecap:round; stroke-linejoin:round; stroke-width:4; stroke-opacity:1; fill:none" points="147.709,144.215 166.607,144.215 "/>
<path clip-path="url(#clip360)" d="M50.9921 1274.46 L80.6679 1274.46 L80.6679 1278.39 L50.9921 1278.39 L50.9921 1274.46 Z" fill="#000000" fill-rule="nonzero" fill-opacity="1" /><path clip-path="url(#clip360)" d="M90.8067 1256.73 L109.163 1256.73 L109.163 1260.66 L95.0891 1260.66 L95.0891 1269.13 Q96.1076 1268.79 97.1261 1268.62 Q98.1447 1268.44 99.1632 1268.44 Q104.95 1268.44 108.33 1271.61 Q111.709 1274.78 111.709 1280.2 Q111.709 1285.78 108.237 1288.88 Q104.765 1291.96 98.4456 1291.96 Q96.2697 1291.96 94.0012 1291.59 Q91.7558 1291.22 89.3484 1290.48 L89.3484 1285.78 Q91.4317 1286.91 93.6539 1287.47 Q95.8761 1288.02 98.353 1288.02 Q102.358 1288.02 104.696 1285.92 Q107.033 1283.81 107.033 1280.2 Q107.033 1276.59 104.696 1274.48 Q102.358 1272.37 98.353 1272.37 Q96.478 1272.37 94.603 1272.79 Q92.7512 1273.21 90.8067 1274.09 L90.8067 1256.73 Z" fill="#000000" fill-rule="nonzero" fill-opacity="1" /><path clip-path="url(#clip360)" d="M99.765 883.208 Q96.1539 883.208 94.3252 886.773 Q92.5197 890.315 92.5197 897.444 Q92.5197 904.551 94.3252 908.115 Q96.1539 911.657 99.765 911.657 Q103.399 911.657 105.205 908.115 Q107.033 904.551 107.033 897.444 Q107.033 890.315 105.205 886.773 Q103.399 883.208 99.765 883.208 M99.765 879.504 Q105.575 879.504 108.631 884.111 Q111.709 888.694 111.709 897.444 Q111.709 906.171 108.631 910.777 Q105.575 915.361 99.765 915.361 Q93.9549 915.361 90.8762 910.777 Q87.8206 906.171 87.8206 897.444 Q87.8206 888.694 90.8762 884.111 Q93.9549 879.504 99.765 879.504 Z" fill="#000000" fill-rule="nonzero" fill-opacity="1" /><path clip-path="url(#clip360)" d="M90.8067 503.532 L109.163 503.532 L109.163 507.467 L95.0891 507.467 L95.0891 515.939 Q96.1076 515.592 97.1261 515.43 Q98.1447 515.245 99.1632 515.245 Q104.95 515.245 108.33 518.416 Q111.709 521.588 111.709 527.004 Q111.709 532.583 108.237 535.685 Q104.765 538.763 98.4456 538.763 Q96.2697 538.763 94.0012 538.393 Q91.7558 538.023 89.3484 537.282 L89.3484 532.583 Q91.4317 533.717 93.6539 534.273 Q95.8761 534.828 98.353 534.828 Q102.358 534.828 104.696 532.722 Q107.033 530.615 107.033 527.004 Q107.033 523.393 104.696 521.287 Q102.358 519.18 98.353 519.18 Q96.478 519.18 94.603 519.597 Q92.7512 520.014 90.8067 520.893 L90.8067 503.532 Z" fill="#000000" fill-rule="nonzero" fill-opacity="1" /><path clip-path="url(#clip360)" d="M60.4134 157.56 L68.0522 157.56 L68.0522 131.194 L59.7421 132.861 L59.7421 128.601 L68.0059 126.935 L72.6818 126.935 L72.6818 157.56 L80.3207 157.56 L80.3207 161.495 L60.4134 161.495 L60.4134 157.56 Z" fill="#000000" fill-rule="nonzero" fill-opacity="1" /><path clip-path="url(#clip360)" d="M99.765 130.013 Q96.1539 130.013 94.3252 133.578 Q92.5197 137.12 92.5197 144.25 Q92.5197 151.356 94.3252 154.921 Q96.1539 158.462 99.765 158.462 Q103.399 158.462 105.205 154.921 Q107.033 151.356 107.033 144.25 Q107.033 137.12 105.205 133.578 Q103.399 130.013 99.765 130.013 M99.765 126.31 Q105.575 126.31 108.631 130.916 Q111.709 135.5 111.709 144.25 Q111.709 152.976 108.631 157.583 Q105.575 162.166 99.765 162.166 Q93.9549 162.166 90.8762 157.583 Q87.8206 152.976 87.8206 144.25 Q87.8206 135.5 90.8762 130.916 Q93.9549 126.31 99.765 126.31 Z" fill="#000000" fill-rule="nonzero" fill-opacity="1" /><polyline clip-path="url(#clip362)" style="stroke:#009af9; stroke-linecap:round; stroke-linejoin:round; stroke-width:4; stroke-opacity:1; fill:none" points="147.709,1413.6 159.092,1416.04 170.474,1418.38 237.138,1430.18 303.802,1438.66 334.814,1441.49 365.826,1443.59 407.394,1445.3 448.962,1445.72 517.657,1443.59 581.537,1438.47 621.633,1433.7 661.729,1427.74 697.695,1421.37 733.661,1414.05 815.997,1393.65 877.544,1375.12 916.903,1361.79 956.262,1347.3 992.186,1333.08 1028.11,1317.9 1068.99,1299.45 1109.88,1279.76 1142.29,1263.26 1174.7,1245.99 1214.97,1223.44 1255.23,1199.69 1286.07,1180.68 1316.91,1160.97 1360.39,1131.97 1403.86,1101.57 1436.35,1077.94 1468.84,1053.52 1505.79,1024.79 1542.73,995.051 1579.33,964.597 1615.92,933.149 1656.17,897.399 1696.43,860.444 1727.18,831.406 1757.93,801.664 1796.73,763.129 1835.53,723.475 1871.42,685.802 1907.31,647.172 1944.32,606.329 1981.33,564.466 2018.85,520.995 2056.37,476.476 2095.54,428.874 2134.71,380.131 2165.57,340.93 2196.43,301.021 2266.71,207.492 2336.99,110.292 2344.87,99.1571 2352.76,87.9763 "/>
</svg>
