<?xml version="1.0" encoding="utf-8"?>
<svg xmlns="http://www.w3.org/2000/svg" xmlns:xlink="http://www.w3.org/1999/xlink" width="600" height="280" viewBox="0 0 2400 1120">
<defs>
  <clipPath id="clip050">
    <rect x="0" y="0" width="2400" height="1120"/>
  </clipPath>
</defs>
<path clip-path="url(#clip050)" d="M0 1120 L2400 1120 L2400 0 L0 0  Z" fill="#ffffff" fill-rule="evenodd" fill-opacity="1"/>
<defs>
  <clipPath id="clip051">
    <rect x="480" y="0" width="1681" height="1120"/>
  </clipPath>
</defs>
<path clip-path="url(#clip050)" d="M155.765 412.604 L1133.55 412.604 L1133.55 47.2441 L155.765 47.2441  Z" fill="#ffffff" fill-rule="evenodd" fill-opacity="1"/>
<defs>
  <clipPath id="clip052">
    <rect x="155" y="47" width="979" height="366"/>
  </clipPath>
</defs>
<polyline clip-path="url(#clip052)" style="stroke:#000000; stroke-linecap:round; stroke-linejoin:round; stroke-width:2; stroke-opacity:0.1; fill:none" points="183.438,412.604 183.438,47.2441 "/>
<polyline clip-path="url(#clip052)" style="stroke:#000000; stroke-linecap:round; stroke-linejoin:round; stroke-width:2; stroke-opacity:0.1; fill:none" points="414.049,412.604 414.049,47.2441 "/>
<polyline clip-path="url(#clip052)" style="stroke:#000000; stroke-linecap:round; stroke-linejoin:round; stroke-width:2; stroke-opacity:0.1; fill:none" points="644.66,412.604 644.66,47.2441 "/>
<polyline clip-path="url(#clip052)" style="stroke:#000000; stroke-linecap:round; stroke-linejoin:round; stroke-width:2; stroke-opacity:0.1; fill:none" points="875.271,412.604 875.271,47.2441 "/>
<polyline clip-path="url(#clip052)" style="stroke:#000000; stroke-linecap:round; stroke-linejoin:round; stroke-width:2; stroke-opacity:0.1; fill:none" points="1105.88,412.604 1105.88,47.2441 "/>
<polyline clip-path="url(#clip052)" style="stroke:#000000; stroke-linecap:round; stroke-linejoin:round; stroke-width:2; stroke-opacity:0.1; fill:none" points="155.765,402.263 1133.55,402.263 "/>
<polyline clip-path="url(#clip052)" style="stroke:#000000; stroke-linecap:round; stroke-linejoin:round; stroke-width:2; stroke-opacity:0.1; fill:none" points="155.765,323.358 1133.55,323.358 "/>
<polyline clip-path="url(#clip052)" style="stroke:#000000; stroke-linecap:round; stroke-linejoin:round; stroke-width:2; stroke-opacity:0.1; fill:none" points="155.765,244.452 1133.55,244.452 "/>
<polyline clip-path="url(#clip052)" style="stroke:#000000; stroke-linecap:round; stroke-linejoin:round; stroke-width:2; stroke-opacity:0.1; fill:none" points="155.765,165.546 1133.55,165.546 "/>
<polyline clip-path="url(#clip052)" style="stroke:#000000; stroke-linecap:round; stroke-linejoin:round; stroke-width:2; stroke-opacity:0.1; fill:none" points="155.765,86.6397 1133.55,86.6397 "/>
<polyline clip-path="url(#clip050)" style="stroke:#000000; stroke-linecap:round; stroke-linejoin:round; stroke-width:4; stroke-opacity:1; fill:none" points="155.765,412.604 1133.55,412.604 "/>
<polyline clip-path="url(#clip050)" style="stroke:#000000; stroke-linecap:round; stroke-linejoin:round; stroke-width:4; stroke-opacity:1; fill:none" points="183.438,412.604 183.438,393.706 "/>
<polyline clip-path="url(#clip050)" style="stroke:#000000; stroke-linecap:round; stroke-linejoin:round; stroke-width:4; stroke-opacity:1; fill:none" points="414.049,412.604 414.049,393.706 "/>
<polyline clip-path="url(#clip050)" style="stroke:#000000; stroke-linecap:round; stroke-linejoin:round; stroke-width:4; stroke-opacity:1; fill:none" points="644.66,412.604 644.66,393.706 "/>
<polyline clip-path="url(#clip050)" style="stroke:#000000; stroke-linecap:round; stroke-linejoin:round; stroke-width:4; stroke-opacity:1; fill:none" points="875.271,412.604 875.271,393.706 "/>
<polyline clip-path="url(#clip050)" style="stroke:#000000; stroke-linecap:round; stroke-linejoin:round; stroke-width:4; stroke-opacity:1; fill:none" points="1105.88,412.604 1105.88,393.706 "/>
<path clip-path="url(#clip050)" d="M160.823 443.523 Q157.211 443.523 155.383 447.087 Q153.577 450.629 153.577 457.759 Q153.577 464.865 155.383 468.43 Q157.211 471.971 160.823 471.971 Q164.457 471.971 166.262 468.43 Q168.091 464.865 168.091 457.759 Q168.091 450.629 166.262 447.087 Q164.457 443.523 160.823 443.523 M160.823 439.819 Q166.633 439.819 169.688 444.425 Q172.767 449.009 172.767 457.759 Q172.767 466.485 169.688 471.092 Q166.633 475.675 160.823 475.675 Q155.012 475.675 151.934 471.092 Q148.878 466.485 148.878 457.759 Q148.878 449.009 151.934 444.425 Q155.012 439.819 160.823 439.819 Z" fill="#000000" fill-rule="nonzero" fill-opacity="1" /><path clip-path="url(#clip050)" d="M180.985 469.124 L185.869 469.124 L185.869 475.004 L180.985 475.004 L180.985 469.124 Z" fill="#000000" fill-rule="nonzero" fill-opacity="1" /><path clip-path="url(#clip050)" d="M206.054 443.523 Q202.443 443.523 200.614 447.087 Q198.808 450.629 198.808 457.759 Q198.808 464.865 200.614 468.43 Q202.443 471.971 206.054 471.971 Q209.688 471.971 211.494 468.43 Q213.322 464.865 213.322 457.759 Q213.322 450.629 211.494 447.087 Q209.688 443.523 206.054 443.523 M206.054 439.819 Q211.864 439.819 214.92 444.425 Q217.998 449.009 217.998 457.759 Q217.998 466.485 214.92 471.092 Q211.864 475.675 206.054 475.675 Q200.244 475.675 197.165 471.092 Q194.109 466.485 194.109 457.759 Q194.109 449.009 197.165 444.425 Q200.244 439.819 206.054 439.819 Z" fill="#000000" fill-rule="nonzero" fill-opacity="1" /><path clip-path="url(#clip050)" d="M385.785 471.069 L402.105 471.069 L402.105 475.004 L380.16 475.004 L380.16 471.069 Q382.822 468.314 387.406 463.684 Q392.012 459.032 393.193 457.689 Q395.438 455.166 396.318 453.43 Q397.22 451.671 397.22 449.981 Q397.22 447.226 395.276 445.49 Q393.355 443.754 390.253 443.754 Q388.054 443.754 385.6 444.518 Q383.17 445.282 380.392 446.833 L380.392 442.111 Q383.216 440.976 385.67 440.398 Q388.123 439.819 390.16 439.819 Q395.531 439.819 398.725 442.504 Q401.919 445.189 401.919 449.68 Q401.919 451.81 401.109 453.731 Q400.322 455.629 398.216 458.222 Q397.637 458.893 394.535 462.11 Q391.433 465.305 385.785 471.069 Z" fill="#000000" fill-rule="nonzero" fill-opacity="1" /><path clip-path="url(#clip050)" d="M411.919 469.124 L416.804 469.124 L416.804 475.004 L411.919 475.004 L411.919 469.124 Z" fill="#000000" fill-rule="nonzero" fill-opacity="1" /><path clip-path="url(#clip050)" d="M427.035 440.444 L445.391 440.444 L445.391 444.379 L431.317 444.379 L431.317 452.851 Q432.336 452.504 433.354 452.342 Q434.373 452.157 435.391 452.157 Q441.178 452.157 444.558 455.328 Q447.938 458.499 447.938 463.916 Q447.938 469.495 444.465 472.596 Q440.993 475.675 434.674 475.675 Q432.498 475.675 430.229 475.305 Q427.984 474.934 425.577 474.194 L425.577 469.495 Q427.66 470.629 429.882 471.184 Q432.104 471.74 434.581 471.74 Q438.586 471.74 440.924 469.634 Q443.262 467.527 443.262 463.916 Q443.262 460.305 440.924 458.198 Q438.586 456.092 434.581 456.092 Q432.706 456.092 430.831 456.509 Q428.979 456.925 427.035 457.805 L427.035 440.444 Z" fill="#000000" fill-rule="nonzero" fill-opacity="1" /><path clip-path="url(#clip050)" d="M611.824 440.444 L630.181 440.444 L630.181 444.379 L616.107 444.379 L616.107 452.851 Q617.125 452.504 618.144 452.342 Q619.162 452.157 620.181 452.157 Q625.968 452.157 629.347 455.328 Q632.727 458.499 632.727 463.916 Q632.727 469.495 629.255 472.596 Q625.783 475.675 619.463 475.675 Q617.287 475.675 615.019 475.305 Q612.773 474.934 610.366 474.194 L610.366 469.495 Q612.449 470.629 614.671 471.184 Q616.894 471.74 619.371 471.74 Q623.375 471.74 625.713 469.634 Q628.051 467.527 628.051 463.916 Q628.051 460.305 625.713 458.198 Q623.375 456.092 619.371 456.092 Q617.496 456.092 615.621 456.509 Q613.769 456.925 611.824 457.805 L611.824 440.444 Z" fill="#000000" fill-rule="nonzero" fill-opacity="1" /><path clip-path="url(#clip050)" d="M641.94 469.124 L646.824 469.124 L646.824 475.004 L641.94 475.004 L641.94 469.124 Z" fill="#000000" fill-rule="nonzero" fill-opacity="1" /><path clip-path="url(#clip050)" d="M667.009 443.523 Q663.398 443.523 661.569 447.087 Q659.764 450.629 659.764 457.759 Q659.764 464.865 661.569 468.43 Q663.398 471.971 667.009 471.971 Q670.643 471.971 672.449 468.43 Q674.278 464.865 674.278 457.759 Q674.278 450.629 672.449 447.087 Q670.643 443.523 667.009 443.523 M667.009 439.819 Q672.819 439.819 675.875 444.425 Q678.954 449.009 678.954 457.759 Q678.954 466.485 675.875 471.092 Q672.819 475.675 667.009 475.675 Q661.199 475.675 658.12 471.092 Q655.065 466.485 655.065 457.759 Q655.065 449.009 658.12 444.425 Q661.199 439.819 667.009 439.819 Z" fill="#000000" fill-rule="nonzero" fill-opacity="1" /><path clip-path="url(#clip050)" d="M841.59 440.444 L863.812 440.444 L863.812 442.435 L851.266 475.004 L846.382 475.004 L858.187 444.379 L841.59 444.379 L841.59 440.444 Z" fill="#000000" fill-rule="nonzero" fill-opacity="1" /><path clip-path="url(#clip050)" d="M872.933 469.124 L877.817 469.124 L877.817 475.004 L872.933 475.004 L872.933 469.124 Z" fill="#000000" fill-rule="nonzero" fill-opacity="1" /><path clip-path="url(#clip050)" d="M888.048 440.444 L906.405 440.444 L906.405 444.379 L892.331 444.379 L892.331 452.851 Q893.349 452.504 894.368 452.342 Q895.386 452.157 896.405 452.157 Q902.192 452.157 905.571 455.328 Q908.951 458.499 908.951 463.916 Q908.951 469.495 905.479 472.596 Q902.007 475.675 895.687 475.675 Q893.511 475.675 891.243 475.305 Q888.997 474.934 886.59 474.194 L886.59 469.495 Q888.673 470.629 890.895 471.184 Q893.118 471.74 895.595 471.74 Q899.599 471.74 901.937 469.634 Q904.275 467.527 904.275 463.916 Q904.275 460.305 901.937 458.198 Q899.599 456.092 895.595 456.092 Q893.72 456.092 891.845 456.509 Q889.993 456.925 888.048 457.805 L888.048 440.444 Z" fill="#000000" fill-rule="nonzero" fill-opacity="1" /><path clip-path="url(#clip050)" d="M1057.95 471.069 L1065.59 471.069 L1065.59 444.703 L1057.28 446.37 L1057.28 442.111 L1065.55 440.444 L1070.22 440.444 L1070.22 471.069 L1077.86 471.069 L1077.86 475.004 L1057.95 475.004 L1057.95 471.069 Z" fill="#000000" fill-rule="nonzero" fill-opacity="1" /><path clip-path="url(#clip050)" d="M1097.3 443.523 Q1093.69 443.523 1091.87 447.087 Q1090.06 450.629 1090.06 457.759 Q1090.06 464.865 1091.87 468.43 Q1093.69 471.971 1097.3 471.971 Q1100.94 471.971 1102.74 468.43 Q1104.57 464.865 1104.57 457.759 Q1104.57 450.629 1102.74 447.087 Q1100.94 443.523 1097.3 443.523 M1097.3 439.819 Q1103.12 439.819 1106.17 444.425 Q1109.25 449.009 1109.25 457.759 Q1109.25 466.485 1106.17 471.092 Q1103.12 475.675 1097.3 475.675 Q1091.49 475.675 1088.42 471.092 Q1085.36 466.485 1085.36 457.759 Q1085.36 449.009 1088.42 444.425 Q1091.49 439.819 1097.3 439.819 Z" fill="#000000" fill-rule="nonzero" fill-opacity="1" /><path clip-path="url(#clip050)" d="M1117.47 469.124 L1122.35 469.124 L1122.35 475.004 L1117.47 475.004 L1117.47 469.124 Z" fill="#000000" fill-rule="nonzero" fill-opacity="1" /><path clip-path="url(#clip050)" d="M1142.54 443.523 Q1138.93 443.523 1137.1 447.087 Q1135.29 450.629 1135.29 457.759 Q1135.29 464.865 1137.1 468.43 Q1138.93 471.971 1142.54 471.971 Q1146.17 471.971 1147.98 468.43 Q1149.8 464.865 1149.8 457.759 Q1149.8 450.629 1147.98 447.087 Q1146.17 443.523 1142.54 443.523 M1142.54 439.819 Q1148.35 439.819 1151.4 444.425 Q1154.48 449.009 1154.48 457.759 Q1154.48 466.485 1151.4 471.092 Q1148.35 475.675 1142.54 475.675 Q1136.73 475.675 1133.65 471.092 Q1130.59 466.485 1130.59 457.759 Q1130.59 449.009 1133.65 444.425 Q1136.73 439.819 1142.54 439.819 Z" fill="#000000" fill-rule="nonzero" fill-opacity="1" /><path clip-path="url(#clip050)" d="M643.721 511.698 L643.721 521.82 L655.784 521.82 L655.784 526.371 L643.721 526.371 L643.721 545.723 Q643.721 550.084 644.898 551.325 Q646.108 552.566 649.768 552.566 L655.784 552.566 L655.784 557.468 L649.768 557.468 Q642.989 557.468 640.411 554.953 Q637.833 552.407 637.833 545.723 L637.833 526.371 L633.536 526.371 L633.536 521.82 L637.833 521.82 L637.833 511.698 L643.721 511.698 Z" fill="#000000" fill-rule="nonzero" fill-opacity="1" /><polyline clip-path="url(#clip050)" style="stroke:#000000; stroke-linecap:round; stroke-linejoin:round; stroke-width:4; stroke-opacity:1; fill:none" points="155.765,412.604 155.765,47.2441 "/>
<polyline clip-path="url(#clip050)" style="stroke:#000000; stroke-linecap:round; stroke-linejoin:round; stroke-width:4; stroke-opacity:1; fill:none" points="155.765,402.263 174.663,402.263 "/>
<polyline clip-path="url(#clip050)" style="stroke:#000000; stroke-linecap:round; stroke-linejoin:round; stroke-width:4; stroke-opacity:1; fill:none" points="155.765,323.358 174.663,323.358 "/>
<polyline clip-path="url(#clip050)" style="stroke:#000000; stroke-linecap:round; stroke-linejoin:round; stroke-width:4; stroke-opacity:1; fill:none" points="155.765,244.452 174.663,244.452 "/>
<polyline clip-path="url(#clip050)" style="stroke:#000000; stroke-linecap:round; stroke-linejoin:round; stroke-width:4; stroke-opacity:1; fill:none" points="155.765,165.546 174.663,165.546 "/>
<polyline clip-path="url(#clip050)" style="stroke:#000000; stroke-linecap:round; stroke-linejoin:round; stroke-width:4; stroke-opacity:1; fill:none" points="155.765,86.6397 174.663,86.6397 "/>
<path clip-path="url(#clip050)" d="M53.3995 415.608 L61.0384 415.608 L61.0384 389.243 L52.7282 390.909 L52.7282 386.65 L60.9921 384.983 L65.668 384.983 L65.668 415.608 L73.3068 415.608 L73.3068 419.543 L53.3995 419.543 L53.3995 415.608 Z" fill="#000000" fill-rule="nonzero" fill-opacity="1" /><path clip-path="url(#clip050)" d="M82.7512 413.664 L87.6354 413.664 L87.6354 419.543 L82.7512 419.543 L82.7512 413.664 Z" fill="#000000" fill-rule="nonzero" fill-opacity="1" /><path clip-path="url(#clip050)" d="M107.821 388.062 Q104.209 388.062 102.381 391.627 Q100.575 395.169 100.575 402.298 Q100.575 409.405 102.381 412.969 Q104.209 416.511 107.821 416.511 Q111.455 416.511 113.26 412.969 Q115.089 409.405 115.089 402.298 Q115.089 395.169 113.26 391.627 Q111.455 388.062 107.821 388.062 M107.821 384.358 Q113.631 384.358 116.686 388.965 Q119.765 393.548 119.765 402.298 Q119.765 411.025 116.686 415.631 Q113.631 420.215 107.821 420.215 Q102.01 420.215 98.9317 415.631 Q95.8761 411.025 95.8761 402.298 Q95.8761 393.548 98.9317 388.965 Q102.01 384.358 107.821 384.358 Z" fill="#000000" fill-rule="nonzero" fill-opacity="1" /><path clip-path="url(#clip050)" d="M54.3949 336.702 L62.0337 336.702 L62.0337 310.337 L53.7236 312.003 L53.7236 307.744 L61.9874 306.078 L66.6633 306.078 L66.6633 336.702 L74.3022 336.702 L74.3022 340.638 L54.3949 340.638 L54.3949 336.702 Z" fill="#000000" fill-rule="nonzero" fill-opacity="1" /><path clip-path="url(#clip050)" d="M83.7466 334.758 L88.6308 334.758 L88.6308 340.638 L83.7466 340.638 L83.7466 334.758 Z" fill="#000000" fill-rule="nonzero" fill-opacity="1" /><path clip-path="url(#clip050)" d="M98.8622 306.078 L117.219 306.078 L117.219 310.013 L103.145 310.013 L103.145 318.485 Q104.163 318.138 105.182 317.976 Q106.2 317.79 107.219 317.79 Q113.006 317.79 116.385 320.962 Q119.765 324.133 119.765 329.55 Q119.765 335.128 116.293 338.23 Q112.82 341.309 106.501 341.309 Q104.325 341.309 102.057 340.938 Q99.8113 340.568 97.4039 339.827 L97.4039 335.128 Q99.4872 336.263 101.709 336.818 Q103.932 337.374 106.408 337.374 Q110.413 337.374 112.751 335.267 Q115.089 333.161 115.089 329.55 Q115.089 325.939 112.751 323.832 Q110.413 321.726 106.408 321.726 Q104.534 321.726 102.659 322.142 Q100.807 322.559 98.8622 323.439 L98.8622 306.078 Z" fill="#000000" fill-rule="nonzero" fill-opacity="1" /><path clip-path="url(#clip050)" d="M56.6171 257.796 L72.9365 257.796 L72.9365 261.732 L50.9921 261.732 L50.9921 257.796 Q53.6541 255.042 58.2375 250.412 Q62.8439 245.759 64.0245 244.417 Q66.2698 241.894 67.1494 240.158 Q68.0522 238.398 68.0522 236.709 Q68.0522 233.954 66.1078 232.218 Q64.1865 230.482 61.0847 230.482 Q58.8856 230.482 56.4319 231.246 Q54.0014 232.01 51.2236 233.56 L51.2236 228.838 Q54.0477 227.704 56.5014 227.125 Q58.955 226.547 60.9921 226.547 Q66.3624 226.547 69.5568 229.232 Q72.7513 231.917 72.7513 236.408 Q72.7513 238.537 71.9411 240.459 Q71.1541 242.357 69.0476 244.949 Q68.4689 245.621 65.367 248.838 Q62.2652 252.033 56.6171 257.796 Z" fill="#000000" fill-rule="nonzero" fill-opacity="1" /><path clip-path="url(#clip050)" d="M82.7512 255.852 L87.6354 255.852 L87.6354 261.732 L82.7512 261.732 L82.7512 255.852 Z" fill="#000000" fill-rule="nonzero" fill-opacity="1" /><path clip-path="url(#clip050)" d="M107.821 230.25 Q104.209 230.25 102.381 233.815 Q100.575 237.357 100.575 244.486 Q100.575 251.593 102.381 255.158 Q104.209 258.699 107.821 258.699 Q111.455 258.699 113.26 255.158 Q115.089 251.593 115.089 244.486 Q115.089 237.357 113.26 233.815 Q111.455 230.25 107.821 230.25 M107.821 226.547 Q113.631 226.547 116.686 231.153 Q119.765 235.736 119.765 244.486 Q119.765 253.213 116.686 257.82 Q113.631 262.403 107.821 262.403 Q102.01 262.403 98.9317 257.82 Q95.8761 253.213 95.8761 244.486 Q95.8761 235.736 98.9317 231.153 Q102.01 226.547 107.821 226.547 Z" fill="#000000" fill-rule="nonzero" fill-opacity="1" /><path clip-path="url(#clip050)" d="M57.6125 178.891 L73.9318 178.891 L73.9318 182.826 L51.9875 182.826 L51.9875 178.891 Q54.6495 176.136 59.2328 171.506 Q63.8393 166.854 65.0198 165.511 Q67.2652 162.988 68.1448 161.252 Q69.0476 159.492 69.0476 157.803 Q69.0476 155.048 67.1032 153.312 Q65.1819 151.576 62.08 151.576 Q59.881 151.576 57.4273 152.34 Q54.9967 153.104 52.219 154.655 L52.219 149.932 Q55.043 148.798 57.4967 148.219 Q59.9504 147.641 61.9874 147.641 Q67.3578 147.641 70.5522 150.326 Q73.7466 153.011 73.7466 157.502 Q73.7466 159.631 72.9365 161.553 Q72.1494 163.451 70.0429 166.043 Q69.4642 166.715 66.3624 169.932 Q63.2606 173.127 57.6125 178.891 Z" fill="#000000" fill-rule="nonzero" fill-opacity="1" /><path clip-path="url(#clip050)" d="M83.7466 176.946 L88.6308 176.946 L88.6308 182.826 L83.7466 182.826 L83.7466 176.946 Z" fill="#000000" fill-rule="nonzero" fill-opacity="1" /><path clip-path="url(#clip050)" d="M98.8622 148.266 L117.219 148.266 L117.219 152.201 L103.145 152.201 L103.145 160.673 Q104.163 160.326 105.182 160.164 Q106.2 159.979 107.219 159.979 Q113.006 159.979 116.385 163.15 Q119.765 166.321 119.765 171.738 Q119.765 177.316 116.293 180.418 Q112.82 183.497 106.501 183.497 Q104.325 183.497 102.057 183.127 Q99.8113 182.756 97.4039 182.015 L97.4039 177.316 Q99.4872 178.451 101.709 179.006 Q103.932 179.562 106.408 179.562 Q110.413 179.562 112.751 177.455 Q115.089 175.349 115.089 171.738 Q115.089 168.127 112.751 166.02 Q110.413 163.914 106.408 163.914 Q104.534 163.914 102.659 164.33 Q100.807 164.747 98.8622 165.627 L98.8622 148.266 Z" fill="#000000" fill-rule="nonzero" fill-opacity="1" /><path clip-path="url(#clip050)" d="M66.7559 85.2856 Q70.1124 86.0032 71.9874 88.2717 Q73.8855 90.5402 73.8855 93.8735 Q73.8855 98.9892 70.367 101.79 Q66.8485 104.591 60.3671 104.591 Q58.1912 104.591 55.8764 104.151 Q53.5847 103.735 51.131 102.878 L51.131 98.3642 Q53.0754 99.4985 55.3903 100.077 Q57.7051 100.656 60.2282 100.656 Q64.6263 100.656 66.918 98.9198 Q69.2328 97.1837 69.2328 93.8735 Q69.2328 90.818 67.08 89.105 Q64.9504 87.3689 61.131 87.3689 L57.1032 87.3689 L57.1032 83.5263 L61.3161 83.5263 Q64.7652 83.5263 66.5939 82.1606 Q68.4226 80.7717 68.4226 78.1791 Q68.4226 75.5171 66.5245 74.1051 Q64.6495 72.6699 61.131 72.6699 Q59.2097 72.6699 57.0106 73.0866 Q54.8115 73.5032 52.1727 74.3829 L52.1727 70.2162 Q54.8347 69.4755 57.1495 69.1051 Q59.4875 68.7348 61.5476 68.7348 Q66.8717 68.7348 69.9735 71.1653 Q73.0753 73.5727 73.0753 77.693 Q73.0753 80.5634 71.4318 82.5541 Q69.7883 84.5217 66.7559 85.2856 Z" fill="#000000" fill-rule="nonzero" fill-opacity="1" /><path clip-path="url(#clip050)" d="M82.7512 98.0402 L87.6354 98.0402 L87.6354 103.92 L82.7512 103.92 L82.7512 98.0402 Z" fill="#000000" fill-rule="nonzero" fill-opacity="1" /><path clip-path="url(#clip050)" d="M107.821 72.4384 Q104.209 72.4384 102.381 76.0032 Q100.575 79.5449 100.575 86.6745 Q100.575 93.7809 102.381 97.3457 Q104.209 100.887 107.821 100.887 Q111.455 100.887 113.26 97.3457 Q115.089 93.7809 115.089 86.6745 Q115.089 79.5449 113.26 76.0032 Q111.455 72.4384 107.821 72.4384 M107.821 68.7348 Q113.631 68.7348 116.686 73.3412 Q119.765 77.9245 119.765 86.6745 Q119.765 95.4013 116.686 100.008 Q113.631 104.591 107.821 104.591 Q102.01 104.591 98.9317 100.008 Q95.8761 95.4013 95.8761 86.6745 Q95.8761 77.9245 98.9317 73.3412 Q102.01 68.7348 107.821 68.7348 Z" fill="#000000" fill-rule="nonzero" fill-opacity="1" /><polyline clip-path="url(#clip052)" style="stroke:#009af9; stroke-linecap:round; stroke-linejoin:round; stroke-width:4; stroke-opacity:1; fill:none" points="183.438,402.263 189.377,397.223 195.317,392.261 201.256,387.374 207.195,382.557 213.134,377.809 219.073,373.126 225.013,368.506 230.952,363.946 236.891,359.444 242.83,354.999 248.769,350.606 254.708,346.266 260.648,341.976 266.587,337.734 272.526,333.54 278.465,329.39 284.404,325.284 290.344,321.221 296.283,317.199 302.222,313.217 308.161,309.274 314.1,305.368 320.039,301.499 325.979,297.666 331.918,293.867 337.857,290.102 343.796,286.37 349.735,282.67 355.675,279.001 361.614,275.363 367.553,271.754 373.492,268.174 382.851,268.174 392.21,268.174 401.568,268.174 410.927,268.174 420.286,268.174 429.645,268.174 439.003,268.174 448.362,268.174 457.721,268.174 467.08,268.174 476.438,268.174 485.797,268.174 495.156,268.174 504.515,268.174 513.873,268.174 523.232,268.174 532.591,268.174 541.95,268.174 551.308,268.174 560.667,268.174 570.026,268.174 579.385,268.174 588.744,268.174 598.102,268.174 607.461,268.174 616.82,268.174 626.179,268.174 635.537,268.174 644.896,268.174 654.255,268.174 663.614,268.174 672.972,268.174 686.501,260.124 700.029,252.214 713.558,244.435 727.086,236.783 740.614,229.25 754.143,221.831 767.671,214.522 781.2,207.318 794.728,200.213 808.256,193.205 821.785,186.29 835.313,179.463 848.842,172.721 862.37,166.062 875.898,159.482 889.427,152.979 902.955,146.55 916.484,140.193 930.012,133.905 943.54,127.683 957.069,121.527 970.597,115.434 984.126,109.401 997.654,103.428 1011.18,97.5122 1024.71,91.6523 1038.24,85.8468 1051.77,80.0942 1065.3,74.3929 1078.82,68.7417 1092.35,63.1393 1105.88,57.5845 "/>
<path clip-path="url(#clip050)" d="M188.358 163.103 L323.984 163.103 L323.984 59.4228 L188.358 59.4228  Z" fill="#ffffff" fill-rule="evenodd" fill-opacity="1"/>
<polyline clip-path="url(#clip050)" style="stroke:#000000; stroke-linecap:round; stroke-linejoin:round; stroke-width:4; stroke-opacity:1; fill:none" points="188.358,163.103 323.984,163.103 323.984,59.4228 188.358,59.4228 188.358,163.103 "/>
<polyline clip-path="url(#clip050)" style="stroke:#009af9; stroke-linecap:round; stroke-linejoin:round; stroke-width:4; stroke-opacity:1; fill:none" points="199.222,111.263 264.408,111.263 "/>
<path clip-path="url(#clip050)" d="M295.62 107.594 Q297.217 104.723 299.439 103.358 Q301.661 101.992 304.671 101.992 Q308.721 101.992 310.92 104.839 Q313.12 107.663 313.12 112.895 L313.12 128.543 L308.837 128.543 L308.837 113.034 Q308.837 109.307 307.518 107.501 Q306.198 105.696 303.49 105.696 Q300.18 105.696 298.259 107.895 Q296.337 110.094 296.337 113.89 L296.337 128.543 L292.055 128.543 L292.055 113.034 Q292.055 109.284 290.735 107.501 Q289.416 105.696 286.661 105.696 Q283.397 105.696 281.476 107.918 Q279.555 110.117 279.555 113.89 L279.555 128.543 L275.273 128.543 L275.273 102.617 L279.555 102.617 L279.555 106.645 Q281.013 104.26 283.05 103.126 Q285.087 101.992 287.888 101.992 Q290.712 101.992 292.68 103.427 Q294.671 104.862 295.62 107.594 Z" fill="#000000" fill-rule="nonzero" fill-opacity="1" /><path clip-path="url(#clip050)" d="M1375.22 412.604 L2352.76 412.604 L2352.76 47.2441 L1375.22 47.2441  Z" fill="#ffffff" fill-rule="evenodd" fill-opacity="1"/>
<defs>
  <clipPath id="clip053">
    <rect x="1375" y="47" width="979" height="366"/>
  </clipPath>
</defs>
<polyline clip-path="url(#clip053)" style="stroke:#000000; stroke-linecap:round; stroke-linejoin:round; stroke-width:2; stroke-opacity:0.1; fill:none" points="1402.89,412.604 1402.89,47.2441 "/>
<polyline clip-path="url(#clip053)" style="stroke:#000000; stroke-linecap:round; stroke-linejoin:round; stroke-width:2; stroke-opacity:0.1; fill:none" points="1633.44,412.604 1633.44,47.2441 "/>
<polyline clip-path="url(#clip053)" style="stroke:#000000; stroke-linecap:round; stroke-linejoin:round; stroke-width:2; stroke-opacity:0.1; fill:none" points="1863.99,412.604 1863.99,47.2441 "/>
<polyline clip-path="url(#clip053)" style="stroke:#000000; stroke-linecap:round; stroke-linejoin:round; stroke-width:2; stroke-opacity:0.1; fill:none" points="2094.54,412.604 2094.54,47.2441 "/>
<polyline clip-path="url(#clip053)" style="stroke:#000000; stroke-linecap:round; stroke-linejoin:round; stroke-width:2; stroke-opacity:0.1; fill:none" points="2325.09,412.604 2325.09,47.2441 "/>
<polyline clip-path="url(#clip053)" style="stroke:#000000; stroke-linecap:round; stroke-linejoin:round; stroke-width:2; stroke-opacity:0.1; fill:none" points="1375.22,387.736 2352.76,387.736 "/>
<polyline clip-path="url(#clip053)" style="stroke:#000000; stroke-linecap:round; stroke-linejoin:round; stroke-width:2; stroke-opacity:0.1; fill:none" points="1375.22,321.706 2352.76,321.706 "/>
<polyline clip-path="url(#clip053)" style="stroke:#000000; stroke-linecap:round; stroke-linejoin:round; stroke-width:2; stroke-opacity:0.1; fill:none" points="1375.22,255.675 2352.76,255.675 "/>
<polyline clip-path="url(#clip053)" style="stroke:#000000; stroke-linecap:round; stroke-linejoin:round; stroke-width:2; stroke-opacity:0.1; fill:none" points="1375.22,189.645 2352.76,189.645 "/>
<polyline clip-path="url(#clip053)" style="stroke:#000000; stroke-linecap:round; stroke-linejoin:round; stroke-width:2; stroke-opacity:0.1; fill:none" points="1375.22,123.615 2352.76,123.615 "/>
<polyline clip-path="url(#clip053)" style="stroke:#000000; stroke-linecap:round; stroke-linejoin:round; stroke-width:2; stroke-opacity:0.1; fill:none" points="1375.22,57.5845 2352.76,57.5845 "/>
<polyline clip-path="url(#clip050)" style="stroke:#000000; stroke-linecap:round; stroke-linejoin:round; stroke-width:4; stroke-opacity:1; fill:none" points="1375.22,412.604 2352.76,412.604 "/>
<polyline clip-path="url(#clip050)" style="stroke:#000000; stroke-linecap:round; stroke-linejoin:round; stroke-width:4; stroke-opacity:1; fill:none" points="1402.89,412.604 1402.89,393.706 "/>
<polyline clip-path="url(#clip050)" style="stroke:#000000; stroke-linecap:round; stroke-linejoin:round; stroke-width:4; stroke-opacity:1; fill:none" points="1633.44,412.604 1633.44,393.706 "/>
<polyline clip-path="url(#clip050)" style="stroke:#000000; stroke-linecap:round; stroke-linejoin:round; stroke-width:4; stroke-opacity:1; fill:none" points="1863.99,412.604 1863.99,393.706 "/>
<polyline clip-path="url(#clip050)" style="stroke:#000000; stroke-linecap:round; stroke-linejoin:round; stroke-width:4; stroke-opacity:1; fill:none" points="2094.54,412.604 2094.54,393.706 "/>
<polyline clip-path="url(#clip050)" style="stroke:#000000; stroke-linecap:round; stroke-linejoin:round; stroke-width:4; stroke-opacity:1; fill:none" points="2325.09,412.604 2325.09,393.706 "/>
<path clip-path="url(#clip050)" d="M1380.27 443.523 Q1376.66 443.523 1374.83 447.087 Q1373.03 450.629 1373.03 457.759 Q1373.03 464.865 1374.83 468.43 Q1376.66 471.971 1380.27 471.971 Q1383.91 471.971 1385.71 468.43 Q1387.54 464.865 1387.54 457.759 Q1387.54 450.629 1385.71 447.087 Q1383.91 443.523 1380.27 443.523 M1380.27 439.819 Q1386.08 439.819 1389.14 444.425 Q1392.22 449.009 1392.22 457.759 Q1392.22 466.485 1389.14 471.092 Q1386.08 475.675 1380.27 475.675 Q1374.46 475.675 1371.38 471.092 Q1368.33 466.485 1368.33 457.759 Q1368.33 449.009 1371.38 444.425 Q1374.46 439.819 1380.27 439.819 Z" fill="#000000" fill-rule="nonzero" fill-opacity="1" /><path clip-path="url(#clip050)" d="M1400.43 469.124 L1405.32 469.124 L1405.32 475.004 L1400.43 475.004 L1400.43 469.124 Z" fill="#000000" fill-rule="nonzero" fill-opacity="1" /><path clip-path="url(#clip050)" d="M1425.5 443.523 Q1421.89 443.523 1420.06 447.087 Q1418.26 450.629 1418.26 457.759 Q1418.26 464.865 1420.06 468.43 Q1421.89 471.971 1425.5 471.971 Q1429.14 471.971 1430.94 468.43 Q1432.77 464.865 1432.77 457.759 Q1432.77 450.629 1430.94 447.087 Q1429.14 443.523 1425.5 443.523 M1425.5 439.819 Q1431.31 439.819 1434.37 444.425 Q1437.45 449.009 1437.45 457.759 Q1437.45 466.485 1434.37 471.092 Q1431.31 475.675 1425.5 475.675 Q1419.69 475.675 1416.61 471.092 Q1413.56 466.485 1413.56 457.759 Q1413.56 449.009 1416.61 444.425 Q1419.69 439.819 1425.5 439.819 Z" fill="#000000" fill-rule="nonzero" fill-opacity="1" /><path clip-path="url(#clip050)" d="M1605.17 471.069 L1621.49 471.069 L1621.49 475.004 L1599.55 475.004 L1599.55 471.069 Q1602.21 468.314 1606.79 463.684 Q1611.4 459.032 1612.58 457.689 Q1614.83 455.166 1615.71 453.43 Q1616.61 451.671 1616.61 449.981 Q1616.61 447.226 1614.66 445.49 Q1612.74 443.754 1609.64 443.754 Q1607.44 443.754 1604.99 444.518 Q1602.56 445.282 1599.78 446.833 L1599.78 442.111 Q1602.6 440.976 1605.06 440.398 Q1607.51 439.819 1609.55 439.819 Q1614.92 439.819 1618.11 442.504 Q1621.31 445.189 1621.31 449.68 Q1621.31 451.81 1620.5 453.731 Q1619.71 455.629 1617.6 458.222 Q1617.03 458.893 1613.92 462.11 Q1610.82 465.305 1605.17 471.069 Z" fill="#000000" fill-rule="nonzero" fill-opacity="1" /><path clip-path="url(#clip050)" d="M1631.31 469.124 L1636.19 469.124 L1636.19 475.004 L1631.31 475.004 L1631.31 469.124 Z" fill="#000000" fill-rule="nonzero" fill-opacity="1" /><path clip-path="url(#clip050)" d="M1646.42 440.444 L1664.78 440.444 L1664.78 444.379 L1650.71 444.379 L1650.71 452.851 Q1651.72 452.504 1652.74 452.342 Q1653.76 452.157 1654.78 452.157 Q1660.57 452.157 1663.95 455.328 Q1667.33 458.499 1667.33 463.916 Q1667.33 469.495 1663.85 472.596 Q1660.38 475.675 1654.06 475.675 Q1651.89 475.675 1649.62 475.305 Q1647.37 474.934 1644.97 474.194 L1644.97 469.495 Q1647.05 470.629 1649.27 471.184 Q1651.49 471.74 1653.97 471.74 Q1657.97 471.74 1660.31 469.634 Q1662.65 467.527 1662.65 463.916 Q1662.65 460.305 1660.31 458.198 Q1657.97 456.092 1653.97 456.092 Q1652.09 456.092 1650.22 456.509 Q1648.37 456.925 1646.42 457.805 L1646.42 440.444 Z" fill="#000000" fill-rule="nonzero" fill-opacity="1" /><path clip-path="url(#clip050)" d="M1831.15 440.444 L1849.51 440.444 L1849.51 444.379 L1835.44 444.379 L1835.44 452.851 Q1836.45 452.504 1837.47 452.342 Q1838.49 452.157 1839.51 452.157 Q1845.3 452.157 1848.68 455.328 Q1852.06 458.499 1852.06 463.916 Q1852.06 469.495 1848.58 472.596 Q1845.11 475.675 1838.79 475.675 Q1836.62 475.675 1834.35 475.305 Q1832.1 474.934 1829.69 474.194 L1829.69 469.495 Q1831.78 470.629 1834 471.184 Q1836.22 471.74 1838.7 471.74 Q1842.7 471.74 1845.04 469.634 Q1847.38 467.527 1847.38 463.916 Q1847.38 460.305 1845.04 458.198 Q1842.7 456.092 1838.7 456.092 Q1836.82 456.092 1834.95 456.509 Q1833.1 456.925 1831.15 457.805 L1831.15 440.444 Z" fill="#000000" fill-rule="nonzero" fill-opacity="1" /><path clip-path="url(#clip050)" d="M1861.27 469.124 L1866.15 469.124 L1866.15 475.004 L1861.27 475.004 L1861.27 469.124 Z" fill="#000000" fill-rule="nonzero" fill-opacity="1" /><path clip-path="url(#clip050)" d="M1886.34 443.523 Q1882.73 443.523 1880.9 447.087 Q1879.09 450.629 1879.09 457.759 Q1879.09 464.865 1880.9 468.43 Q1882.73 471.971 1886.34 471.971 Q1889.97 471.971 1891.78 468.43 Q1893.61 464.865 1893.61 457.759 Q1893.61 450.629 1891.78 447.087 Q1889.97 443.523 1886.34 443.523 M1886.34 439.819 Q1892.15 439.819 1895.2 444.425 Q1898.28 449.009 1898.28 457.759 Q1898.28 466.485 1895.2 471.092 Q1892.15 475.675 1886.34 475.675 Q1880.53 475.675 1877.45 471.092 Q1874.39 466.485 1874.39 457.759 Q1874.39 449.009 1877.45 444.425 Q1880.53 439.819 1886.34 439.819 Z" fill="#000000" fill-rule="nonzero" fill-opacity="1" /><path clip-path="url(#clip050)" d="M2060.86 440.444 L2083.08 440.444 L2083.08 442.435 L2070.53 475.004 L2065.65 475.004 L2077.46 444.379 L2060.86 444.379 L2060.86 440.444 Z" fill="#000000" fill-rule="nonzero" fill-opacity="1" /><path clip-path="url(#clip050)" d="M2092.2 469.124 L2097.09 469.124 L2097.09 475.004 L2092.2 475.004 L2092.2 469.124 Z" fill="#000000" fill-rule="nonzero" fill-opacity="1" /><path clip-path="url(#clip050)" d="M2107.32 440.444 L2125.67 440.444 L2125.67 444.379 L2111.6 444.379 L2111.6 452.851 Q2112.62 452.504 2113.64 452.342 Q2114.65 452.157 2115.67 452.157 Q2121.46 452.157 2124.84 455.328 Q2128.22 458.499 2128.22 463.916 Q2128.22 469.495 2124.75 472.596 Q2121.28 475.675 2114.96 475.675 Q2112.78 475.675 2110.51 475.305 Q2108.27 474.934 2105.86 474.194 L2105.86 469.495 Q2107.94 470.629 2110.16 471.184 Q2112.39 471.74 2114.86 471.74 Q2118.87 471.74 2121.21 469.634 Q2123.54 467.527 2123.54 463.916 Q2123.54 460.305 2121.21 458.198 Q2118.87 456.092 2114.86 456.092 Q2112.99 456.092 2111.11 456.509 Q2109.26 456.925 2107.32 457.805 L2107.32 440.444 Z" fill="#000000" fill-rule="nonzero" fill-opacity="1" /><path clip-path="url(#clip050)" d="M2277.16 471.069 L2284.8 471.069 L2284.8 444.703 L2276.49 446.37 L2276.49 442.111 L2284.75 440.444 L2289.43 440.444 L2289.43 471.069 L2297.07 471.069 L2297.07 475.004 L2277.16 475.004 L2277.16 471.069 Z" fill="#000000" fill-rule="nonzero" fill-opacity="1" /><path clip-path="url(#clip050)" d="M2316.51 443.523 Q2312.9 443.523 2311.07 447.087 Q2309.27 450.629 2309.27 457.759 Q2309.27 464.865 2311.07 468.43 Q2312.9 471.971 2316.51 471.971 Q2320.15 471.971 2321.95 468.43 Q2323.78 464.865 2323.78 457.759 Q2323.78 450.629 2321.95 447.087 Q2320.15 443.523 2316.51 443.523 M2316.51 439.819 Q2322.32 439.819 2325.38 444.425 Q2328.46 449.009 2328.46 457.759 Q2328.46 466.485 2325.38 471.092 Q2322.32 475.675 2316.51 475.675 Q2310.7 475.675 2307.62 471.092 Q2304.57 466.485 2304.57 457.759 Q2304.57 449.009 2307.62 444.425 Q2310.7 439.819 2316.51 439.819 Z" fill="#000000" fill-rule="nonzero" fill-opacity="1" /><path clip-path="url(#clip050)" d="M2336.68 469.124 L2341.56 469.124 L2341.56 475.004 L2336.68 475.004 L2336.68 469.124 Z" fill="#000000" fill-rule="nonzero" fill-opacity="1" /><path clip-path="url(#clip050)" d="M2361.74 443.523 Q2358.13 443.523 2356.3 447.087 Q2354.5 450.629 2354.5 457.759 Q2354.5 464.865 2356.3 468.43 Q2358.13 471.971 2361.74 471.971 Q2365.38 471.971 2367.18 468.43 Q2369.01 464.865 2369.01 457.759 Q2369.01 450.629 2367.18 447.087 Q2365.38 443.523 2361.74 443.523 M2361.74 439.819 Q2367.55 439.819 2370.61 444.425 Q2373.69 449.009 2373.69 457.759 Q2373.69 466.485 2370.61 471.092 Q2367.55 475.675 2361.74 475.675 Q2355.93 475.675 2352.86 471.092 Q2349.8 466.485 2349.8 457.759 Q2349.8 449.009 2352.86 444.425 Q2355.93 439.819 2361.74 439.819 Z" fill="#000000" fill-rule="nonzero" fill-opacity="1" /><path clip-path="url(#clip050)" d="M1863.05 511.698 L1863.05 521.82 L1875.11 521.82 L1875.11 526.371 L1863.05 526.371 L1863.05 545.723 Q1863.05 550.084 1864.23 551.325 Q1865.44 552.566 1869.1 552.566 L1875.11 552.566 L1875.11 557.468 L1869.1 557.468 Q1862.32 557.468 1859.74 554.953 Q1857.16 552.407 1857.16 545.723 L1857.16 526.371 L1852.86 526.371 L1852.86 521.82 L1857.16 521.82 L1857.16 511.698 L1863.05 511.698 Z" fill="#000000" fill-rule="nonzero" fill-opacity="1" /><polyline clip-path="url(#clip050)" style="stroke:#000000; stroke-linecap:round; stroke-linejoin:round; stroke-width:4; stroke-opacity:1; fill:none" points="1375.22,412.604 1375.22,47.2441 "/>
<polyline clip-path="url(#clip050)" style="stroke:#000000; stroke-linecap:round; stroke-linejoin:round; stroke-width:4; stroke-opacity:1; fill:none" points="1375.22,387.736 1394.12,387.736 "/>
<polyline clip-path="url(#clip050)" style="stroke:#000000; stroke-linecap:round; stroke-linejoin:round; stroke-width:4; stroke-opacity:1; fill:none" points="1375.22,321.706 1394.12,321.706 "/>
<polyline clip-path="url(#clip050)" style="stroke:#000000; stroke-linecap:round; stroke-linejoin:round; stroke-width:4; stroke-opacity:1; fill:none" points="1375.22,255.675 1394.12,255.675 "/>
<polyline clip-path="url(#clip050)" style="stroke:#000000; stroke-linecap:round; stroke-linejoin:round; stroke-width:4; stroke-opacity:1; fill:none" points="1375.22,189.645 1394.12,189.645 "/>
<polyline clip-path="url(#clip050)" style="stroke:#000000; stroke-linecap:round; stroke-linejoin:round; stroke-width:4; stroke-opacity:1; fill:none" points="1375.22,123.615 1394.12,123.615 "/>
<polyline clip-path="url(#clip050)" style="stroke:#000000; stroke-linecap:round; stroke-linejoin:round; stroke-width:4; stroke-opacity:1; fill:none" points="1375.22,57.5845 1394.12,57.5845 "/>
<path clip-path="url(#clip050)" d="M1233.27 388.187 L1262.95 388.187 L1262.95 392.122 L1233.27 392.122 L1233.27 388.187 Z" fill="#000000" fill-rule="nonzero" fill-opacity="1" /><path clip-path="url(#clip050)" d="M1283.04 373.535 Q1279.43 373.535 1277.6 377.099 Q1275.8 380.641 1275.8 387.771 Q1275.8 394.877 1277.6 398.442 Q1279.43 401.983 1283.04 401.983 Q1286.67 401.983 1288.48 398.442 Q1290.31 394.877 1290.31 387.771 Q1290.31 380.641 1288.48 377.099 Q1286.67 373.535 1283.04 373.535 M1283.04 369.831 Q1288.85 369.831 1291.91 374.437 Q1294.98 379.021 1294.98 387.771 Q1294.98 396.497 1291.91 401.104 Q1288.85 405.687 1283.04 405.687 Q1277.23 405.687 1274.15 401.104 Q1271.1 396.497 1271.1 387.771 Q1271.1 379.021 1274.15 374.437 Q1277.23 369.831 1283.04 369.831 Z" fill="#000000" fill-rule="nonzero" fill-opacity="1" /><path clip-path="url(#clip050)" d="M1303.2 399.136 L1308.09 399.136 L1308.09 405.016 L1303.2 405.016 L1303.2 399.136 Z" fill="#000000" fill-rule="nonzero" fill-opacity="1" /><path clip-path="url(#clip050)" d="M1318.32 370.456 L1336.67 370.456 L1336.67 374.391 L1322.6 374.391 L1322.6 382.863 Q1323.62 382.516 1324.64 382.354 Q1325.66 382.169 1326.67 382.169 Q1332.46 382.169 1335.84 385.34 Q1339.22 388.511 1339.22 393.928 Q1339.22 399.507 1335.75 402.608 Q1332.28 405.687 1325.96 405.687 Q1323.78 405.687 1321.51 405.317 Q1319.27 404.946 1316.86 404.206 L1316.86 399.507 Q1318.94 400.641 1321.17 401.196 Q1323.39 401.752 1325.86 401.752 Q1329.87 401.752 1332.21 399.645 Q1334.54 397.539 1334.54 393.928 Q1334.54 390.317 1332.21 388.21 Q1329.87 386.104 1325.86 386.104 Q1323.99 386.104 1322.11 386.521 Q1320.26 386.937 1318.32 387.817 L1318.32 370.456 Z" fill="#000000" fill-rule="nonzero" fill-opacity="1" /><path clip-path="url(#clip050)" d="M1231.79 322.157 L1261.47 322.157 L1261.47 326.092 L1231.79 326.092 L1231.79 322.157 Z" fill="#000000" fill-rule="nonzero" fill-opacity="1" /><path clip-path="url(#clip050)" d="M1281.56 307.504 Q1277.95 307.504 1276.12 311.069 Q1274.31 314.611 1274.31 321.74 Q1274.31 328.847 1276.12 332.412 Q1277.95 335.953 1281.56 335.953 Q1285.19 335.953 1287 332.412 Q1288.83 328.847 1288.83 321.74 Q1288.83 314.611 1287 311.069 Q1285.19 307.504 1281.56 307.504 M1281.56 303.801 Q1287.37 303.801 1290.42 308.407 Q1293.5 312.99 1293.5 321.74 Q1293.5 330.467 1290.42 335.074 Q1287.37 339.657 1281.56 339.657 Q1275.75 339.657 1272.67 335.074 Q1269.61 330.467 1269.61 321.74 Q1269.61 312.99 1272.67 308.407 Q1275.75 303.801 1281.56 303.801 Z" fill="#000000" fill-rule="nonzero" fill-opacity="1" /><path clip-path="url(#clip050)" d="M1301.72 333.106 L1306.61 333.106 L1306.61 338.986 L1301.72 338.986 L1301.72 333.106 Z" fill="#000000" fill-rule="nonzero" fill-opacity="1" /><path clip-path="url(#clip050)" d="M1329.64 308.5 L1317.83 326.949 L1329.64 326.949 L1329.64 308.5 M1328.41 304.426 L1334.29 304.426 L1334.29 326.949 L1339.22 326.949 L1339.22 330.837 L1334.29 330.837 L1334.29 338.986 L1329.64 338.986 L1329.64 330.837 L1314.04 330.837 L1314.04 326.324 L1328.41 304.426 Z" fill="#000000" fill-rule="nonzero" fill-opacity="1" /><path clip-path="url(#clip050)" d="M1232.93 256.127 L1262.6 256.127 L1262.6 260.062 L1232.93 260.062 L1232.93 256.127 Z" fill="#000000" fill-rule="nonzero" fill-opacity="1" /><path clip-path="url(#clip050)" d="M1282.69 241.474 Q1279.08 241.474 1277.25 245.039 Q1275.45 248.58 1275.45 255.71 Q1275.45 262.816 1277.25 266.381 Q1279.08 269.923 1282.69 269.923 Q1286.33 269.923 1288.13 266.381 Q1289.96 262.816 1289.96 255.71 Q1289.96 248.58 1288.13 245.039 Q1286.33 241.474 1282.69 241.474 M1282.69 237.77 Q1288.5 237.77 1291.56 242.377 Q1294.64 246.96 1294.64 255.71 Q1294.64 264.437 1291.56 269.043 Q1288.5 273.627 1282.69 273.627 Q1276.88 273.627 1273.8 269.043 Q1270.75 264.437 1270.75 255.71 Q1270.75 246.96 1273.8 242.377 Q1276.88 237.77 1282.69 237.77 Z" fill="#000000" fill-rule="nonzero" fill-opacity="1" /><path clip-path="url(#clip050)" d="M1302.86 267.076 L1307.74 267.076 L1307.74 272.955 L1302.86 272.955 L1302.86 267.076 Z" fill="#000000" fill-rule="nonzero" fill-opacity="1" /><path clip-path="url(#clip050)" d="M1332.09 254.321 Q1335.45 255.039 1337.32 257.307 Q1339.22 259.576 1339.22 262.909 Q1339.22 268.025 1335.7 270.826 Q1332.18 273.627 1325.7 273.627 Q1323.53 273.627 1321.21 273.187 Q1318.92 272.77 1316.47 271.914 L1316.47 267.4 Q1318.41 268.534 1320.73 269.113 Q1323.04 269.691 1325.56 269.691 Q1329.96 269.691 1332.25 267.955 Q1334.57 266.219 1334.57 262.909 Q1334.57 259.854 1332.42 258.141 Q1330.29 256.404 1326.47 256.404 L1322.44 256.404 L1322.44 252.562 L1326.65 252.562 Q1330.1 252.562 1331.93 251.196 Q1333.76 249.807 1333.76 247.215 Q1333.76 244.553 1331.86 243.141 Q1329.98 241.705 1326.47 241.705 Q1324.54 241.705 1322.35 242.122 Q1320.15 242.539 1317.51 243.418 L1317.51 239.252 Q1320.17 238.511 1322.48 238.141 Q1324.82 237.77 1326.88 237.77 Q1332.21 237.77 1335.31 240.201 Q1338.41 242.608 1338.41 246.729 Q1338.41 249.599 1336.77 251.59 Q1335.12 253.557 1332.09 254.321 Z" fill="#000000" fill-rule="nonzero" fill-opacity="1" /><path clip-path="url(#clip050)" d="M1233.87 190.096 L1263.55 190.096 L1263.55 194.032 L1233.87 194.032 L1233.87 190.096 Z" fill="#000000" fill-rule="nonzero" fill-opacity="1" /><path clip-path="url(#clip050)" d="M1283.64 175.444 Q1280.03 175.444 1278.2 179.008 Q1276.4 182.55 1276.4 189.68 Q1276.4 196.786 1278.2 200.351 Q1280.03 203.893 1283.64 203.893 Q1287.28 203.893 1289.08 200.351 Q1290.91 196.786 1290.91 189.68 Q1290.91 182.55 1289.08 179.008 Q1287.28 175.444 1283.64 175.444 M1283.64 171.74 Q1289.45 171.74 1292.51 176.346 Q1295.59 180.93 1295.59 189.68 Q1295.59 198.407 1292.51 203.013 Q1289.45 207.596 1283.64 207.596 Q1277.83 207.596 1274.75 203.013 Q1271.7 198.407 1271.7 189.68 Q1271.7 180.93 1274.75 176.346 Q1277.83 171.74 1283.64 171.74 Z" fill="#000000" fill-rule="nonzero" fill-opacity="1" /><path clip-path="url(#clip050)" d="M1303.8 201.045 L1308.69 201.045 L1308.69 206.925 L1303.8 206.925 L1303.8 201.045 Z" fill="#000000" fill-rule="nonzero" fill-opacity="1" /><path clip-path="url(#clip050)" d="M1322.9 202.99 L1339.22 202.99 L1339.22 206.925 L1317.28 206.925 L1317.28 202.99 Q1319.94 200.235 1324.52 195.606 Q1329.13 190.953 1330.31 189.61 Q1332.55 187.087 1333.43 185.351 Q1334.34 183.592 1334.34 181.902 Q1334.34 179.147 1332.39 177.411 Q1330.47 175.675 1327.37 175.675 Q1325.17 175.675 1322.72 176.439 Q1320.29 177.203 1317.51 178.754 L1317.51 174.032 Q1320.33 172.897 1322.79 172.319 Q1325.24 171.74 1327.28 171.74 Q1332.65 171.74 1335.84 174.425 Q1339.04 177.11 1339.04 181.601 Q1339.04 183.731 1338.23 185.652 Q1337.44 187.55 1335.33 190.143 Q1334.75 190.814 1331.65 194.032 Q1328.55 197.226 1322.9 202.99 Z" fill="#000000" fill-rule="nonzero" fill-opacity="1" /><path clip-path="url(#clip050)" d="M1233.5 124.066 L1263.18 124.066 L1263.18 128.001 L1233.5 128.001 L1233.5 124.066 Z" fill="#000000" fill-rule="nonzero" fill-opacity="1" /><path clip-path="url(#clip050)" d="M1283.27 109.413 Q1279.66 109.413 1277.83 112.978 Q1276.03 116.52 1276.03 123.649 Q1276.03 130.756 1277.83 134.321 Q1279.66 137.862 1283.27 137.862 Q1286.91 137.862 1288.71 134.321 Q1290.54 130.756 1290.54 123.649 Q1290.54 116.52 1288.71 112.978 Q1286.91 109.413 1283.27 109.413 M1283.27 105.71 Q1289.08 105.71 1292.14 110.316 Q1295.22 114.9 1295.22 123.649 Q1295.22 132.376 1292.14 136.983 Q1289.08 141.566 1283.27 141.566 Q1277.46 141.566 1274.38 136.983 Q1271.33 132.376 1271.33 123.649 Q1271.33 114.9 1274.38 110.316 Q1277.46 105.71 1283.27 105.71 Z" fill="#000000" fill-rule="nonzero" fill-opacity="1" /><path clip-path="url(#clip050)" d="M1303.43 135.015 L1308.32 135.015 L1308.32 140.895 L1303.43 140.895 L1303.43 135.015 Z" fill="#000000" fill-rule="nonzero" fill-opacity="1" /><path clip-path="url(#clip050)" d="M1319.31 136.96 L1326.95 136.96 L1326.95 110.594 L1318.64 112.261 L1318.64 108.001 L1326.91 106.335 L1331.58 106.335 L1331.58 136.96 L1339.22 136.96 L1339.22 140.895 L1319.31 140.895 L1319.31 136.96 Z" fill="#000000" fill-rule="nonzero" fill-opacity="1" /><path clip-path="url(#clip050)" d="M1282.05 43.3832 Q1278.43 43.3832 1276.61 46.9479 Q1274.8 50.4896 1274.8 57.6192 Q1274.8 64.7256 1276.61 68.2904 Q1278.43 71.8321 1282.05 71.8321 Q1285.68 71.8321 1287.48 68.2904 Q1289.31 64.7256 1289.31 57.6192 Q1289.31 50.4896 1287.48 46.9479 Q1285.68 43.3832 1282.05 43.3832 M1282.05 39.6795 Q1287.86 39.6795 1290.91 44.2859 Q1293.99 48.8692 1293.99 57.6192 Q1293.99 66.346 1290.91 70.9524 Q1287.86 75.5358 1282.05 75.5358 Q1276.24 75.5358 1273.16 70.9524 Q1270.1 66.346 1270.1 57.6192 Q1270.1 48.8692 1273.16 44.2859 Q1276.24 39.6795 1282.05 39.6795 Z" fill="#000000" fill-rule="nonzero" fill-opacity="1" /><path clip-path="url(#clip050)" d="M1302.21 68.9849 L1307.09 68.9849 L1307.09 74.8645 L1302.21 74.8645 L1302.21 68.9849 Z" fill="#000000" fill-rule="nonzero" fill-opacity="1" /><path clip-path="url(#clip050)" d="M1327.28 43.3832 Q1323.67 43.3832 1321.84 46.9479 Q1320.03 50.4896 1320.03 57.6192 Q1320.03 64.7256 1321.84 68.2904 Q1323.67 71.8321 1327.28 71.8321 Q1330.91 71.8321 1332.72 68.2904 Q1334.54 64.7256 1334.54 57.6192 Q1334.54 50.4896 1332.72 46.9479 Q1330.91 43.3832 1327.28 43.3832 M1327.28 39.6795 Q1333.09 39.6795 1336.14 44.2859 Q1339.22 48.8692 1339.22 57.6192 Q1339.22 66.346 1336.14 70.9524 Q1333.09 75.5358 1327.28 75.5358 Q1321.47 75.5358 1318.39 70.9524 Q1315.33 66.346 1315.33 57.6192 Q1315.33 48.8692 1318.39 44.2859 Q1321.47 39.6795 1327.28 39.6795 Z" fill="#000000" fill-rule="nonzero" fill-opacity="1" /><polyline clip-path="url(#clip053)" style="stroke:#009af9; stroke-linecap:round; stroke-linejoin:round; stroke-width:4; stroke-opacity:1; fill:none" points="1402.89,402.263 1408.82,397.223 1414.76,392.261 1420.7,387.374 1426.64,382.557 1432.58,377.809 1438.51,373.126 1444.45,368.506 1450.39,363.946 1456.33,359.444 1462.26,354.999 1468.2,350.606 1474.14,346.266 1480.08,341.976 1486.01,337.734 1491.95,333.54 1497.89,329.39 1503.83,325.284 1509.76,321.221 1515.7,317.199 1521.64,313.217 1527.58,309.274 1533.51,305.368 1539.45,301.499 1545.39,297.666 1551.33,293.867 1557.27,290.102 1563.2,286.37 1569.14,282.67 1575.08,279.001 1581.02,275.363 1586.95,271.754 1592.89,268.174 1602.25,268.174 1611.6,268.174 1620.96,268.174 1630.32,268.174 1639.67,268.174 1649.03,268.174 1658.39,268.174 1667.74,268.174 1677.1,268.174 1686.45,268.174 1695.81,268.174 1705.17,268.174 1714.52,268.174 1723.88,268.174 1733.24,268.174 1742.59,268.174 1751.95,268.174 1761.31,268.174 1770.66,268.174 1780.02,268.174 1789.37,268.174 1798.73,268.174 1808.09,268.174 1817.44,268.174 1826.8,268.174 1836.16,268.174 1845.51,268.174 1854.87,268.174 1864.22,268.174 1873.58,268.174 1882.94,268.174 1892.29,268.174 1905.82,260.124 1919.34,252.214 1932.87,244.435 1946.39,236.783 1959.92,229.25 1973.44,221.831 1986.97,214.522 2000.49,207.318 2014.02,200.213 2027.54,193.205 2041.07,186.29 2054.59,179.463 2068.12,172.721 2081.64,166.062 2095.17,159.482 2108.69,152.979 2122.22,146.55 2135.74,140.193 2149.27,133.905 2162.79,127.683 2176.32,121.527 2189.84,115.434 2203.37,109.401 2216.89,103.428 2230.42,97.5122 2243.94,91.6523 2257.47,85.8468 2270.99,80.0942 2284.52,74.3929 2298.04,68.7417 2311.56,63.1393 2325.09,57.5845 "/>
<path clip-path="url(#clip050)" d="M1407.81 163.103 L1573.5 163.103 L1573.5 59.4228 L1407.81 59.4228  Z" fill="#ffffff" fill-rule="evenodd" fill-opacity="1"/>
<polyline clip-path="url(#clip050)" style="stroke:#000000; stroke-linecap:round; stroke-linejoin:round; stroke-width:4; stroke-opacity:1; fill:none" points="1407.81,163.103 1573.5,163.103 1573.5,59.4228 1407.81,59.4228 1407.81,163.103 "/>
<polyline clip-path="url(#clip050)" style="stroke:#009af9; stroke-linecap:round; stroke-linejoin:round; stroke-width:4; stroke-opacity:1; fill:none" points="1418.67,111.263 1483.84,111.263 "/>
<path clip-path="url(#clip050)" d="M1498.98 124.654 L1498.98 138.404 L1494.7 138.404 L1494.7 102.617 L1498.98 102.617 L1498.98 106.552 Q1500.32 104.237 1502.36 103.126 Q1504.42 101.992 1507.27 101.992 Q1511.99 101.992 1514.93 105.742 Q1517.89 109.492 1517.89 115.603 Q1517.89 121.714 1514.93 125.464 Q1511.99 129.214 1507.27 129.214 Q1504.42 129.214 1502.36 128.103 Q1500.32 126.969 1498.98 124.654 M1513.47 115.603 Q1513.47 110.904 1511.53 108.242 Q1509.6 105.557 1506.23 105.557 Q1502.85 105.557 1500.9 108.242 Q1498.98 110.904 1498.98 115.603 Q1498.98 120.302 1500.9 122.987 Q1502.85 125.649 1506.23 125.649 Q1509.6 125.649 1511.53 122.987 Q1513.47 120.302 1513.47 115.603 Z" fill="#000000" fill-rule="nonzero" fill-opacity="1" /><path clip-path="url(#clip050)" d="M1545.14 107.594 Q1546.73 104.723 1548.96 103.358 Q1551.18 101.992 1554.19 101.992 Q1558.24 101.992 1560.44 104.839 Q1562.64 107.663 1562.64 112.895 L1562.64 128.543 L1558.35 128.543 L1558.35 113.034 Q1558.35 109.307 1557.03 107.501 Q1555.72 105.696 1553.01 105.696 Q1549.7 105.696 1547.78 107.895 Q1545.85 110.094 1545.85 113.89 L1545.85 128.543 L1541.57 128.543 L1541.57 113.034 Q1541.57 109.284 1540.25 107.501 Q1538.93 105.696 1536.18 105.696 Q1532.91 105.696 1530.99 107.918 Q1529.07 110.117 1529.07 113.89 L1529.07 128.543 L1524.79 128.543 L1524.79 102.617 L1529.07 102.617 L1529.07 106.645 Q1530.53 104.26 1532.57 103.126 Q1534.6 101.992 1537.41 101.992 Q1540.23 101.992 1542.2 103.427 Q1544.19 104.862 1545.14 107.594 Z" fill="#000000" fill-rule="nonzero" fill-opacity="1" /><path clip-path="url(#clip050)" d="M156.02 972.604 L2352.76 972.604 L2352.76 607.244 L156.02 607.244  Z" fill="#ffffff" fill-rule="evenodd" fill-opacity="1"/>
<defs>
  <clipPath id="clip054">
    <rect x="156" y="607" width="2198" height="366"/>
  </clipPath>
</defs>
<polyline clip-path="url(#clip054)" style="stroke:#000000; stroke-linecap:round; stroke-linejoin:round; stroke-width:2; stroke-opacity:0.1; fill:none" points="218.191,972.604 218.191,607.244 "/>
<polyline clip-path="url(#clip054)" style="stroke:#000000; stroke-linecap:round; stroke-linejoin:round; stroke-width:2; stroke-opacity:0.1; fill:none" points="736.29,972.604 736.29,607.244 "/>
<polyline clip-path="url(#clip054)" style="stroke:#000000; stroke-linecap:round; stroke-linejoin:round; stroke-width:2; stroke-opacity:0.1; fill:none" points="1254.39,972.604 1254.39,607.244 "/>
<polyline clip-path="url(#clip054)" style="stroke:#000000; stroke-linecap:round; stroke-linejoin:round; stroke-width:2; stroke-opacity:0.1; fill:none" points="1772.49,972.604 1772.49,607.244 "/>
<polyline clip-path="url(#clip054)" style="stroke:#000000; stroke-linecap:round; stroke-linejoin:round; stroke-width:2; stroke-opacity:0.1; fill:none" points="2290.58,972.604 2290.58,607.244 "/>
<polyline clip-path="url(#clip054)" style="stroke:#000000; stroke-linecap:round; stroke-linejoin:round; stroke-width:2; stroke-opacity:0.1; fill:none" points="156.02,941.806 2352.76,941.806 "/>
<polyline clip-path="url(#clip054)" style="stroke:#000000; stroke-linecap:round; stroke-linejoin:round; stroke-width:2; stroke-opacity:0.1; fill:none" points="156.02,833.732 2352.76,833.732 "/>
<polyline clip-path="url(#clip054)" style="stroke:#000000; stroke-linecap:round; stroke-linejoin:round; stroke-width:2; stroke-opacity:0.1; fill:none" points="156.02,725.658 2352.76,725.658 "/>
<polyline clip-path="url(#clip054)" style="stroke:#000000; stroke-linecap:round; stroke-linejoin:round; stroke-width:2; stroke-opacity:0.1; fill:none" points="156.02,617.584 2352.76,617.584 "/>
<polyline clip-path="url(#clip050)" style="stroke:#000000; stroke-linecap:round; stroke-linejoin:round; stroke-width:4; stroke-opacity:1; fill:none" points="156.02,972.604 2352.76,972.604 "/>
<polyline clip-path="url(#clip050)" style="stroke:#000000; stroke-linecap:round; stroke-linejoin:round; stroke-width:4; stroke-opacity:1; fill:none" points="218.191,972.604 218.191,953.706 "/>
<polyline clip-path="url(#clip050)" style="stroke:#000000; stroke-linecap:round; stroke-linejoin:round; stroke-width:4; stroke-opacity:1; fill:none" points="736.29,972.604 736.29,953.706 "/>
<polyline clip-path="url(#clip050)" style="stroke:#000000; stroke-linecap:round; stroke-linejoin:round; stroke-width:4; stroke-opacity:1; fill:none" points="1254.39,972.604 1254.39,953.706 "/>
<polyline clip-path="url(#clip050)" style="stroke:#000000; stroke-linecap:round; stroke-linejoin:round; stroke-width:4; stroke-opacity:1; fill:none" points="1772.49,972.604 1772.49,953.706 "/>
<polyline clip-path="url(#clip050)" style="stroke:#000000; stroke-linecap:round; stroke-linejoin:round; stroke-width:4; stroke-opacity:1; fill:none" points="2290.58,972.604 2290.58,953.706 "/>
<path clip-path="url(#clip050)" d="M195.576 1003.52 Q191.965 1003.52 190.136 1007.09 Q188.33 1010.63 188.33 1017.76 Q188.33 1024.87 190.136 1028.43 Q191.965 1031.97 195.576 1031.97 Q199.21 1031.97 201.015 1028.43 Q202.844 1024.87 202.844 1017.76 Q202.844 1010.63 201.015 1007.09 Q199.21 1003.52 195.576 1003.52 M195.576 999.819 Q201.386 999.819 204.441 1004.43 Q207.52 1009.01 207.52 1017.76 Q207.52 1026.49 204.441 1031.09 Q201.386 1035.68 195.576 1035.68 Q189.766 1035.68 186.687 1031.09 Q183.631 1026.49 183.631 1017.76 Q183.631 1009.01 186.687 1004.43 Q189.766 999.819 195.576 999.819 Z" fill="#000000" fill-rule="nonzero" fill-opacity="1" /><path clip-path="url(#clip050)" d="M215.738 1029.12 L220.622 1029.12 L220.622 1035 L215.738 1035 L215.738 1029.12 Z" fill="#000000" fill-rule="nonzero" fill-opacity="1" /><path clip-path="url(#clip050)" d="M240.807 1003.52 Q237.196 1003.52 235.367 1007.09 Q233.562 1010.63 233.562 1017.76 Q233.562 1024.87 235.367 1028.43 Q237.196 1031.97 240.807 1031.97 Q244.441 1031.97 246.247 1028.43 Q248.075 1024.87 248.075 1017.76 Q248.075 1010.63 246.247 1007.09 Q244.441 1003.52 240.807 1003.52 M240.807 999.819 Q246.617 999.819 249.673 1004.43 Q252.751 1009.01 252.751 1017.76 Q252.751 1026.49 249.673 1031.09 Q246.617 1035.68 240.807 1035.68 Q234.997 1035.68 231.918 1031.09 Q228.863 1026.49 228.863 1017.76 Q228.863 1009.01 231.918 1004.43 Q234.997 999.819 240.807 999.819 Z" fill="#000000" fill-rule="nonzero" fill-opacity="1" /><path clip-path="url(#clip050)" d="M708.026 1031.07 L724.345 1031.07 L724.345 1035 L702.401 1035 L702.401 1031.07 Q705.063 1028.31 709.646 1023.68 Q714.253 1019.03 715.433 1017.69 Q717.679 1015.17 718.558 1013.43 Q719.461 1011.67 719.461 1009.98 Q719.461 1007.23 717.516 1005.49 Q715.595 1003.75 712.493 1003.75 Q710.294 1003.75 707.841 1004.52 Q705.41 1005.28 702.632 1006.83 L702.632 1002.11 Q705.456 1000.98 707.91 1000.4 Q710.364 999.819 712.401 999.819 Q717.771 999.819 720.966 1002.5 Q724.16 1005.19 724.16 1009.68 Q724.16 1011.81 723.35 1013.73 Q722.563 1015.63 720.456 1018.22 Q719.878 1018.89 716.776 1022.11 Q713.674 1025.3 708.026 1031.07 Z" fill="#000000" fill-rule="nonzero" fill-opacity="1" /><path clip-path="url(#clip050)" d="M734.16 1029.12 L739.044 1029.12 L739.044 1035 L734.16 1035 L734.16 1029.12 Z" fill="#000000" fill-rule="nonzero" fill-opacity="1" /><path clip-path="url(#clip050)" d="M749.276 1000.44 L767.632 1000.44 L767.632 1004.38 L753.558 1004.38 L753.558 1012.85 Q754.576 1012.5 755.595 1012.34 Q756.613 1012.16 757.632 1012.16 Q763.419 1012.16 766.799 1015.33 Q770.178 1018.5 770.178 1023.92 Q770.178 1029.49 766.706 1032.6 Q763.234 1035.68 756.914 1035.68 Q754.738 1035.68 752.47 1035.3 Q750.225 1034.93 747.817 1034.19 L747.817 1029.49 Q749.901 1030.63 752.123 1031.18 Q754.345 1031.74 756.822 1031.74 Q760.826 1031.74 763.164 1029.63 Q765.502 1027.53 765.502 1023.92 Q765.502 1020.3 763.164 1018.2 Q760.826 1016.09 756.822 1016.09 Q754.947 1016.09 753.072 1016.51 Q751.22 1016.93 749.276 1017.8 L749.276 1000.44 Z" fill="#000000" fill-rule="nonzero" fill-opacity="1" /><path clip-path="url(#clip050)" d="M1221.55 1000.44 L1239.91 1000.44 L1239.91 1004.38 L1225.83 1004.38 L1225.83 1012.85 Q1226.85 1012.5 1227.87 1012.34 Q1228.89 1012.16 1229.91 1012.16 Q1235.7 1012.16 1239.08 1015.33 Q1242.45 1018.5 1242.45 1023.92 Q1242.45 1029.49 1238.98 1032.6 Q1235.51 1035.68 1229.19 1035.68 Q1227.02 1035.68 1224.75 1035.3 Q1222.5 1034.93 1220.09 1034.19 L1220.09 1029.49 Q1222.18 1030.63 1224.4 1031.18 Q1226.62 1031.74 1229.1 1031.74 Q1233.1 1031.74 1235.44 1029.63 Q1237.78 1027.53 1237.78 1023.92 Q1237.78 1020.3 1235.44 1018.2 Q1233.1 1016.09 1229.1 1016.09 Q1227.22 1016.09 1225.35 1016.51 Q1223.5 1016.93 1221.55 1017.8 L1221.55 1000.44 Z" fill="#000000" fill-rule="nonzero" fill-opacity="1" /><path clip-path="url(#clip050)" d="M1251.67 1029.12 L1256.55 1029.12 L1256.55 1035 L1251.67 1035 L1251.67 1029.12 Z" fill="#000000" fill-rule="nonzero" fill-opacity="1" /><path clip-path="url(#clip050)" d="M1276.74 1003.52 Q1273.13 1003.52 1271.3 1007.09 Q1269.49 1010.63 1269.49 1017.76 Q1269.49 1024.87 1271.3 1028.43 Q1273.13 1031.97 1276.74 1031.97 Q1280.37 1031.97 1282.18 1028.43 Q1284.01 1024.87 1284.01 1017.76 Q1284.01 1010.63 1282.18 1007.09 Q1280.37 1003.52 1276.74 1003.52 M1276.74 999.819 Q1282.55 999.819 1285.6 1004.43 Q1288.68 1009.01 1288.68 1017.76 Q1288.68 1026.49 1285.6 1031.09 Q1282.55 1035.68 1276.74 1035.68 Q1270.93 1035.68 1267.85 1031.09 Q1264.79 1026.49 1264.79 1017.76 Q1264.79 1009.01 1267.85 1004.43 Q1270.93 999.819 1276.74 999.819 Z" fill="#000000" fill-rule="nonzero" fill-opacity="1" /><path clip-path="url(#clip050)" d="M1738.81 1000.44 L1761.03 1000.44 L1761.03 1002.43 L1748.48 1035 L1743.6 1035 L1755.4 1004.38 L1738.81 1004.38 L1738.81 1000.44 Z" fill="#000000" fill-rule="nonzero" fill-opacity="1" /><path clip-path="url(#clip050)" d="M1770.15 1029.12 L1775.03 1029.12 L1775.03 1035 L1770.15 1035 L1770.15 1029.12 Z" fill="#000000" fill-rule="nonzero" fill-opacity="1" /><path clip-path="url(#clip050)" d="M1785.26 1000.44 L1803.62 1000.44 L1803.62 1004.38 L1789.55 1004.38 L1789.55 1012.85 Q1790.56 1012.5 1791.58 1012.34 Q1792.6 1012.16 1793.62 1012.16 Q1799.41 1012.16 1802.79 1015.33 Q1806.17 1018.5 1806.17 1023.92 Q1806.17 1029.49 1802.69 1032.6 Q1799.22 1035.68 1792.9 1035.68 Q1790.73 1035.68 1788.46 1035.3 Q1786.21 1034.93 1783.81 1034.19 L1783.81 1029.49 Q1785.89 1030.63 1788.11 1031.18 Q1790.33 1031.74 1792.81 1031.74 Q1796.81 1031.74 1799.15 1029.63 Q1801.49 1027.53 1801.49 1023.92 Q1801.49 1020.3 1799.15 1018.2 Q1796.81 1016.09 1792.81 1016.09 Q1790.93 1016.09 1789.06 1016.51 Q1787.21 1016.93 1785.26 1017.8 L1785.26 1000.44 Z" fill="#000000" fill-rule="nonzero" fill-opacity="1" /><path clip-path="url(#clip050)" d="M2242.66 1031.07 L2250.29 1031.07 L2250.29 1004.7 L2241.98 1006.37 L2241.98 1002.11 L2250.25 1000.44 L2254.92 1000.44 L2254.92 1031.07 L2262.56 1031.07 L2262.56 1035 L2242.66 1035 L2242.66 1031.07 Z" fill="#000000" fill-rule="nonzero" fill-opacity="1" /><path clip-path="url(#clip050)" d="M2282.01 1003.52 Q2278.4 1003.52 2276.57 1007.09 Q2274.76 1010.63 2274.76 1017.76 Q2274.76 1024.87 2276.57 1028.43 Q2278.4 1031.97 2282.01 1031.97 Q2285.64 1031.97 2287.45 1028.43 Q2289.28 1024.87 2289.28 1017.76 Q2289.28 1010.63 2287.45 1007.09 Q2285.64 1003.52 2282.01 1003.52 M2282.01 999.819 Q2287.82 999.819 2290.87 1004.43 Q2293.95 1009.01 2293.95 1017.76 Q2293.95 1026.49 2290.87 1031.09 Q2287.82 1035.68 2282.01 1035.68 Q2276.2 1035.68 2273.12 1031.09 Q2270.06 1026.49 2270.06 1017.76 Q2270.06 1009.01 2273.12 1004.43 Q2276.2 999.819 2282.01 999.819 Z" fill="#000000" fill-rule="nonzero" fill-opacity="1" /><path clip-path="url(#clip050)" d="M2302.17 1029.12 L2307.05 1029.12 L2307.05 1035 L2302.17 1035 L2302.17 1029.12 Z" fill="#000000" fill-rule="nonzero" fill-opacity="1" /><path clip-path="url(#clip050)" d="M2327.24 1003.52 Q2323.63 1003.52 2321.8 1007.09 Q2319.99 1010.63 2319.99 1017.76 Q2319.99 1024.87 2321.8 1028.43 Q2323.63 1031.97 2327.24 1031.97 Q2330.87 1031.97 2332.68 1028.43 Q2334.51 1024.87 2334.51 1017.76 Q2334.51 1010.63 2332.68 1007.09 Q2330.87 1003.52 2327.24 1003.52 M2327.24 999.819 Q2333.05 999.819 2336.1 1004.43 Q2339.18 1009.01 2339.18 1017.76 Q2339.18 1026.49 2336.1 1031.09 Q2333.05 1035.68 2327.24 1035.68 Q2321.43 1035.68 2318.35 1031.09 Q2315.29 1026.49 2315.29 1017.76 Q2315.29 1009.01 2318.35 1004.43 Q2321.43 999.819 2327.24 999.819 Z" fill="#000000" fill-rule="nonzero" fill-opacity="1" /><path clip-path="url(#clip050)" d="M1253.45 1071.7 L1253.45 1081.82 L1265.51 1081.82 L1265.51 1086.37 L1253.45 1086.37 L1253.45 1105.72 Q1253.45 1110.08 1254.63 1111.32 Q1255.84 1112.57 1259.5 1112.57 L1265.51 1112.57 L1265.51 1117.47 L1259.5 1117.47 Q1252.72 1117.47 1250.14 1114.95 Q1247.56 1112.41 1247.56 1105.72 L1247.56 1086.37 L1243.26 1086.37 L1243.26 1081.82 L1247.56 1081.82 L1247.56 1071.7 L1253.45 1071.7 Z" fill="#000000" fill-rule="nonzero" fill-opacity="1" /><polyline clip-path="url(#clip050)" style="stroke:#000000; stroke-linecap:round; stroke-linejoin:round; stroke-width:4; stroke-opacity:1; fill:none" points="156.02,972.604 156.02,607.244 "/>
<polyline clip-path="url(#clip050)" style="stroke:#000000; stroke-linecap:round; stroke-linejoin:round; stroke-width:4; stroke-opacity:1; fill:none" points="156.02,941.806 174.917,941.806 "/>
<polyline clip-path="url(#clip050)" style="stroke:#000000; stroke-linecap:round; stroke-linejoin:round; stroke-width:4; stroke-opacity:1; fill:none" points="156.02,833.732 174.917,833.732 "/>
<polyline clip-path="url(#clip050)" style="stroke:#000000; stroke-linecap:round; stroke-linejoin:round; stroke-width:4; stroke-opacity:1; fill:none" points="156.02,725.658 174.917,725.658 "/>
<polyline clip-path="url(#clip050)" style="stroke:#000000; stroke-linecap:round; stroke-linejoin:round; stroke-width:4; stroke-opacity:1; fill:none" points="156.02,617.584 174.917,617.584 "/>
<path clip-path="url(#clip050)" d="M63.7467 927.605 Q60.1356 927.605 58.3069 931.17 Q56.5014 934.711 56.5014 941.841 Q56.5014 948.947 58.3069 952.512 Q60.1356 956.054 63.7467 956.054 Q67.3809 956.054 69.1865 952.512 Q71.0152 948.947 71.0152 941.841 Q71.0152 934.711 69.1865 931.17 Q67.3809 927.605 63.7467 927.605 M63.7467 923.901 Q69.5568 923.901 72.6124 928.508 Q75.6911 933.091 75.6911 941.841 Q75.6911 950.568 72.6124 955.174 Q69.5568 959.757 63.7467 959.757 Q57.9365 959.757 54.8578 955.174 Q51.8023 950.568 51.8023 941.841 Q51.8023 933.091 54.8578 928.508 Q57.9365 923.901 63.7467 923.901 Z" fill="#000000" fill-rule="nonzero" fill-opacity="1" /><path clip-path="url(#clip050)" d="M83.9086 953.207 L88.7928 953.207 L88.7928 959.086 L83.9086 959.086 L83.9086 953.207 Z" fill="#000000" fill-rule="nonzero" fill-opacity="1" /><path clip-path="url(#clip050)" d="M97.7974 924.526 L120.02 924.526 L120.02 926.517 L107.473 959.086 L102.589 959.086 L114.395 928.461 L97.7974 928.461 L97.7974 924.526 Z" fill="#000000" fill-rule="nonzero" fill-opacity="1" /><path clip-path="url(#clip050)" d="M62.9365 819.531 Q59.3254 819.531 57.4967 823.096 Q55.6912 826.637 55.6912 833.767 Q55.6912 840.873 57.4967 844.438 Q59.3254 847.98 62.9365 847.98 Q66.5707 847.98 68.3763 844.438 Q70.205 840.873 70.205 833.767 Q70.205 826.637 68.3763 823.096 Q66.5707 819.531 62.9365 819.531 M62.9365 815.827 Q68.7467 815.827 71.8022 820.434 Q74.8809 825.017 74.8809 833.767 Q74.8809 842.494 71.8022 847.1 Q68.7467 851.684 62.9365 851.684 Q57.1264 851.684 54.0477 847.1 Q50.9921 842.494 50.9921 833.767 Q50.9921 825.017 54.0477 820.434 Q57.1264 815.827 62.9365 815.827 Z" fill="#000000" fill-rule="nonzero" fill-opacity="1" /><path clip-path="url(#clip050)" d="M83.0984 845.133 L87.9827 845.133 L87.9827 851.012 L83.0984 851.012 L83.0984 845.133 Z" fill="#000000" fill-rule="nonzero" fill-opacity="1" /><path clip-path="url(#clip050)" d="M108.168 834.6 Q104.834 834.6 102.913 836.383 Q101.015 838.165 101.015 841.29 Q101.015 844.415 102.913 846.197 Q104.834 847.98 108.168 847.98 Q111.501 847.98 113.422 846.197 Q115.344 844.392 115.344 841.29 Q115.344 838.165 113.422 836.383 Q111.524 834.6 108.168 834.6 M103.492 832.61 Q100.483 831.869 98.7928 829.809 Q97.1261 827.748 97.1261 824.786 Q97.1261 820.642 100.066 818.235 Q103.029 815.827 108.168 815.827 Q113.33 815.827 116.27 818.235 Q119.209 820.642 119.209 824.786 Q119.209 827.748 117.52 829.809 Q115.853 831.869 112.867 832.61 Q116.246 833.397 118.121 835.688 Q120.02 837.98 120.02 841.29 Q120.02 846.313 116.941 848.998 Q113.885 851.684 108.168 851.684 Q102.45 851.684 99.3715 848.998 Q96.316 846.313 96.316 841.29 Q96.316 837.98 98.2141 835.688 Q100.112 833.397 103.492 832.61 M101.779 825.225 Q101.779 827.91 103.446 829.415 Q105.135 830.92 108.168 830.92 Q111.177 830.92 112.867 829.415 Q114.58 827.91 114.58 825.225 Q114.58 822.54 112.867 821.036 Q111.177 819.531 108.168 819.531 Q105.135 819.531 103.446 821.036 Q101.779 822.54 101.779 825.225 Z" fill="#000000" fill-rule="nonzero" fill-opacity="1" /><path clip-path="url(#clip050)" d="M63.0291 711.457 Q59.418 711.457 57.5893 715.022 Q55.7838 718.563 55.7838 725.693 Q55.7838 732.8 57.5893 736.364 Q59.418 739.906 63.0291 739.906 Q66.6633 739.906 68.4689 736.364 Q70.2976 732.8 70.2976 725.693 Q70.2976 718.563 68.4689 715.022 Q66.6633 711.457 63.0291 711.457 M63.0291 707.753 Q68.8393 707.753 71.8948 712.36 Q74.9735 716.943 74.9735 725.693 Q74.9735 734.42 71.8948 739.026 Q68.8393 743.61 63.0291 743.61 Q57.2189 743.61 54.1403 739.026 Q51.0847 734.42 51.0847 725.693 Q51.0847 716.943 54.1403 712.36 Q57.2189 707.753 63.0291 707.753 Z" fill="#000000" fill-rule="nonzero" fill-opacity="1" /><path clip-path="url(#clip050)" d="M83.191 737.059 L88.0753 737.059 L88.0753 742.938 L83.191 742.938 L83.191 737.059 Z" fill="#000000" fill-rule="nonzero" fill-opacity="1" /><path clip-path="url(#clip050)" d="M98.3993 742.221 L98.3993 737.962 Q100.159 738.795 101.964 739.235 Q103.77 739.674 105.506 739.674 Q110.135 739.674 112.566 736.573 Q115.02 733.448 115.367 727.105 Q114.024 729.096 111.964 730.161 Q109.904 731.225 107.404 731.225 Q102.219 731.225 99.1863 728.1 Q96.1771 724.952 96.1771 719.513 Q96.1771 714.188 99.3252 710.971 Q102.473 707.753 107.705 707.753 Q113.7 707.753 116.848 712.36 Q120.02 716.943 120.02 725.693 Q120.02 733.864 116.131 738.749 Q112.265 743.61 105.714 743.61 Q103.955 743.61 102.149 743.262 Q100.344 742.915 98.3993 742.221 M107.705 727.568 Q110.853 727.568 112.682 725.415 Q114.533 723.263 114.533 719.513 Q114.533 715.786 112.682 713.633 Q110.853 711.457 107.705 711.457 Q104.557 711.457 102.705 713.633 Q100.876 715.786 100.876 719.513 Q100.876 723.263 102.705 725.415 Q104.557 727.568 107.705 727.568 Z" fill="#000000" fill-rule="nonzero" fill-opacity="1" /><path clip-path="url(#clip050)" d="M53.6541 630.929 L61.293 630.929 L61.293 604.564 L52.9829 606.23 L52.9829 601.971 L61.2467 600.304 L65.9226 600.304 L65.9226 630.929 L73.5614 630.929 L73.5614 634.864 L53.6541 634.864 L53.6541 630.929 Z" fill="#000000" fill-rule="nonzero" fill-opacity="1" /><path clip-path="url(#clip050)" d="M83.0058 628.985 L87.8901 628.985 L87.8901 634.864 L83.0058 634.864 L83.0058 628.985 Z" fill="#000000" fill-rule="nonzero" fill-opacity="1" /><path clip-path="url(#clip050)" d="M108.075 603.383 Q104.464 603.383 102.635 606.948 Q100.83 610.49 100.83 617.619 Q100.83 624.726 102.635 628.29 Q104.464 631.832 108.075 631.832 Q111.709 631.832 113.515 628.29 Q115.344 624.726 115.344 617.619 Q115.344 610.49 113.515 606.948 Q111.709 603.383 108.075 603.383 M108.075 599.679 Q113.885 599.679 116.941 604.286 Q120.02 608.869 120.02 617.619 Q120.02 626.346 116.941 630.952 Q113.885 635.536 108.075 635.536 Q102.265 635.536 99.1863 630.952 Q96.1308 626.346 96.1308 617.619 Q96.1308 608.869 99.1863 604.286 Q102.265 599.679 108.075 599.679 Z" fill="#000000" fill-rule="nonzero" fill-opacity="1" /><polyline clip-path="url(#clip054)" style="stroke:#009af9; stroke-linecap:round; stroke-linejoin:round; stroke-width:4; stroke-opacity:1; fill:none" points="218.191,617.584 231.535,617.584 244.878,617.584 258.221,617.584 271.564,617.584 284.907,617.584 298.25,617.584 311.594,617.584 324.937,617.584 338.28,617.584 351.623,617.584 364.966,617.584 378.31,617.584 391.653,617.584 404.996,617.584 418.339,617.584 431.682,617.584 445.025,617.584 458.369,617.584 471.712,617.584 485.055,617.584 498.398,617.584 511.741,617.584 525.085,617.584 538.428,617.584 551.771,617.584 565.114,617.584 578.457,617.584 591.8,617.584 605.144,617.584 618.487,617.584 631.83,617.584 645.173,962.263 666.199,962.263 687.225,962.263 708.25,962.263 729.276,962.263 750.302,962.263 771.327,962.263 792.353,962.263 813.379,962.263 834.404,962.263 855.43,962.263 876.456,962.263 897.482,962.263 918.507,962.263 939.533,962.263 960.559,962.263 981.584,962.263 1002.61,962.263 1023.64,962.263 1044.66,962.263 1065.69,962.263 1086.71,962.263 1107.74,962.263 1128.76,962.263 1149.79,962.263 1170.82,962.263 1191.84,962.263 1212.87,962.263 1233.89,962.263 1254.92,962.263 1275.94,962.263 1296.97,962.263 1318,617.584 1348.39,617.584 1378.78,617.584 1409.18,617.584 1439.57,617.584 1469.96,617.584 1500.36,617.584 1530.75,617.584 1561.14,617.584 1591.54,617.584 1621.93,617.584 1652.32,617.584 1682.72,617.584 1713.11,617.584 1743.5,617.584 1773.9,617.584 1804.29,617.584 1834.68,617.584 1865.08,617.584 1895.47,617.584 1925.86,617.584 1956.26,617.584 1986.65,617.584 2017.04,617.584 2047.44,617.584 2077.83,617.584 2108.22,617.584 2138.62,617.584 2169.01,617.584 2199.4,617.584 2229.8,617.584 2260.19,617.584 2290.58,617.584 "/>
<path clip-path="url(#clip050)" d="M2038.14 960.425 L2279.53 960.425 L2279.53 856.745 L2038.14 856.745  Z" fill="#ffffff" fill-rule="evenodd" fill-opacity="1"/>
<polyline clip-path="url(#clip050)" style="stroke:#000000; stroke-linecap:round; stroke-linejoin:round; stroke-width:4; stroke-opacity:1; fill:none" points="2038.14,960.425 2279.53,960.425 2279.53,856.745 2038.14,856.745 2038.14,960.425 "/>
<polyline clip-path="url(#clip050)" style="stroke:#009af9; stroke-linecap:round; stroke-linejoin:round; stroke-width:4; stroke-opacity:1; fill:none" points="2062.55,908.585 2209,908.585 "/>
<path clip-path="url(#clip050)" d="M2233.41 915.634 L2233.41 899.939 L2237.67 899.939 L2237.67 915.472 Q2237.67 919.152 2239.1 921.004 Q2240.54 922.833 2243.41 922.833 Q2246.86 922.833 2248.85 920.634 Q2250.86 918.435 2250.86 914.638 L2250.86 899.939 L2255.12 899.939 L2255.12 925.865 L2250.86 925.865 L2250.86 921.884 Q2249.31 924.245 2247.25 925.402 Q2245.22 926.536 2242.51 926.536 Q2238.04 926.536 2235.73 923.759 Q2233.41 920.981 2233.41 915.634 M2244.13 899.314 L2244.13 899.314 Z" fill="#000000" fill-rule="nonzero" fill-opacity="1" /></svg>
