<?xml version="1.0" encoding="utf-8"?>
<svg xmlns="http://www.w3.org/2000/svg" xmlns:xlink="http://www.w3.org/1999/xlink" width="600" height="400" viewBox="0 0 2400 1600">
<defs>
  <clipPath id="clip420">
    <rect x="0" y="0" width="2400" height="1600"/>
  </clipPath>
</defs>
<path clip-path="url(#clip420)" d="M0 1600 L2400 1600 L2400 0 L0 0  Z" fill="#ffffff" fill-rule="evenodd" fill-opacity="1"/>
<defs>
  <clipPath id="clip421">
    <rect x="480" y="0" width="1681" height="1600"/>
  </clipPath>
</defs>
<path clip-path="url(#clip420)" d="M250.028 1423.18 L2352.76 1423.18 L2352.76 47.2441 L250.028 47.2441  Z" fill="#ffffff" fill-rule="evenodd" fill-opacity="1"/>
<defs>
  <clipPath id="clip422">
    <rect x="250" y="47" width="2104" height="1377"/>
  </clipPath>
</defs>
<polyline clip-path="url(#clip422)" style="stroke:#000000; stroke-linecap:round; stroke-linejoin:round; stroke-width:2; stroke-opacity:0.1; fill:none" points="250.028,1423.18 250.028,47.2441 "/>
<polyline clip-path="url(#clip422)" style="stroke:#000000; stroke-linecap:round; stroke-linejoin:round; stroke-width:2; stroke-opacity:0.1; fill:none" points="775.71,1423.18 775.71,47.2441 "/>
<polyline clip-path="url(#clip422)" style="stroke:#000000; stroke-linecap:round; stroke-linejoin:round; stroke-width:2; stroke-opacity:0.1; fill:none" points="1301.39,1423.18 1301.39,47.2441 "/>
<polyline clip-path="url(#clip422)" style="stroke:#000000; stroke-linecap:round; stroke-linejoin:round; stroke-width:2; stroke-opacity:0.1; fill:none" points="1827.07,1423.18 1827.07,47.2441 "/>
<polyline clip-path="url(#clip422)" style="stroke:#000000; stroke-linecap:round; stroke-linejoin:round; stroke-width:2; stroke-opacity:0.1; fill:none" points="250.028,1423.18 2352.76,1423.18 "/>
<polyline clip-path="url(#clip422)" style="stroke:#000000; stroke-linecap:round; stroke-linejoin:round; stroke-width:2; stroke-opacity:0.1; fill:none" points="250.028,1147.99 2352.76,1147.99 "/>
<polyline clip-path="url(#clip422)" style="stroke:#000000; stroke-linecap:round; stroke-linejoin:round; stroke-width:2; stroke-opacity:0.1; fill:none" points="250.028,872.806 2352.76,872.806 "/>
<polyline clip-path="url(#clip422)" style="stroke:#000000; stroke-linecap:round; stroke-linejoin:round; stroke-width:2; stroke-opacity:0.1; fill:none" points="250.028,597.618 2352.76,597.618 "/>
<polyline clip-path="url(#clip422)" style="stroke:#000000; stroke-linecap:round; stroke-linejoin:round; stroke-width:2; stroke-opacity:0.1; fill:none" points="250.028,322.431 2352.76,322.431 "/>
<polyline clip-path="url(#clip420)" style="stroke:#000000; stroke-linecap:round; stroke-linejoin:round; stroke-width:4; stroke-opacity:1; fill:none" points="250.028,1423.18 2352.76,1423.18 "/>
<polyline clip-path="url(#clip420)" style="stroke:#000000; stroke-linecap:round; stroke-linejoin:round; stroke-width:4; stroke-opacity:1; fill:none" points="250.028,1423.18 250.028,1404.28 "/>
<polyline clip-path="url(#clip420)" style="stroke:#000000; stroke-linecap:round; stroke-linejoin:round; stroke-width:4; stroke-opacity:1; fill:none" points="775.71,1423.18 775.71,1404.28 "/>
<polyline clip-path="url(#clip420)" style="stroke:#000000; stroke-linecap:round; stroke-linejoin:round; stroke-width:4; stroke-opacity:1; fill:none" points="1301.39,1423.18 1301.39,1404.28 "/>
<polyline clip-path="url(#clip420)" style="stroke:#000000; stroke-linecap:round; stroke-linejoin:round; stroke-width:4; stroke-opacity:1; fill:none" points="1827.07,1423.18 1827.07,1404.28 "/>
<path clip-path="url(#clip420)" d="M212.332 1454.1 Q208.72 1454.1 206.892 1457.66 Q205.086 1461.2 205.086 1468.33 Q205.086 1475.44 206.892 1479.01 Q208.72 1482.55 212.332 1482.55 Q215.966 1482.55 217.771 1479.01 Q219.6 1475.44 219.6 1468.33 Q219.6 1461.2 217.771 1457.66 Q215.966 1454.1 212.332 1454.1 M212.332 1450.39 Q218.142 1450.39 221.197 1455 Q224.276 1459.58 224.276 1468.33 Q224.276 1477.06 221.197 1481.67 Q218.142 1486.25 212.332 1486.25 Q206.521 1486.25 203.443 1481.67 Q200.387 1477.06 200.387 1468.33 Q200.387 1459.58 203.443 1455 Q206.521 1450.39 212.332 1450.39 Z" fill="#000000" fill-rule="nonzero" fill-opacity="1" /><path clip-path="url(#clip420)" d="M232.494 1479.7 L237.378 1479.7 L237.378 1485.58 L232.494 1485.58 L232.494 1479.7 Z" fill="#000000" fill-rule="nonzero" fill-opacity="1" /><path clip-path="url(#clip420)" d="M257.563 1454.1 Q253.952 1454.1 252.123 1457.66 Q250.317 1461.2 250.317 1468.33 Q250.317 1475.44 252.123 1479.01 Q253.952 1482.55 257.563 1482.55 Q261.197 1482.55 263.003 1479.01 Q264.831 1475.44 264.831 1468.33 Q264.831 1461.2 263.003 1457.66 Q261.197 1454.1 257.563 1454.1 M257.563 1450.39 Q263.373 1450.39 266.429 1455 Q269.507 1459.58 269.507 1468.33 Q269.507 1477.06 266.429 1481.67 Q263.373 1486.25 257.563 1486.25 Q251.753 1486.25 248.674 1481.67 Q245.618 1477.06 245.618 1468.33 Q245.618 1459.58 248.674 1455 Q251.753 1450.39 257.563 1450.39 Z" fill="#000000" fill-rule="nonzero" fill-opacity="1" /><path clip-path="url(#clip420)" d="M287.725 1454.1 Q284.114 1454.1 282.285 1457.66 Q280.479 1461.2 280.479 1468.33 Q280.479 1475.44 282.285 1479.01 Q284.114 1482.55 287.725 1482.55 Q291.359 1482.55 293.164 1479.01 Q294.993 1475.44 294.993 1468.33 Q294.993 1461.2 293.164 1457.66 Q291.359 1454.1 287.725 1454.1 M287.725 1450.39 Q293.535 1450.39 296.59 1455 Q299.669 1459.58 299.669 1468.33 Q299.669 1477.06 296.59 1481.67 Q293.535 1486.25 287.725 1486.25 Q281.915 1486.25 278.836 1481.67 Q275.78 1477.06 275.78 1468.33 Q275.78 1459.58 278.836 1455 Q281.915 1450.39 287.725 1450.39 Z" fill="#000000" fill-rule="nonzero" fill-opacity="1" /><path clip-path="url(#clip420)" d="M738.627 1454.1 Q735.016 1454.1 733.187 1457.66 Q731.382 1461.2 731.382 1468.33 Q731.382 1475.44 733.187 1479.01 Q735.016 1482.55 738.627 1482.55 Q742.261 1482.55 744.067 1479.01 Q745.895 1475.44 745.895 1468.33 Q745.895 1461.2 744.067 1457.66 Q742.261 1454.1 738.627 1454.1 M738.627 1450.39 Q744.437 1450.39 747.493 1455 Q750.571 1459.58 750.571 1468.33 Q750.571 1477.06 747.493 1481.67 Q744.437 1486.25 738.627 1486.25 Q732.817 1486.25 729.738 1481.67 Q726.683 1477.06 726.683 1468.33 Q726.683 1459.58 729.738 1455 Q732.817 1450.39 738.627 1450.39 Z" fill="#000000" fill-rule="nonzero" fill-opacity="1" /><path clip-path="url(#clip420)" d="M758.789 1479.7 L763.673 1479.7 L763.673 1485.58 L758.789 1485.58 L758.789 1479.7 Z" fill="#000000" fill-rule="nonzero" fill-opacity="1" /><path clip-path="url(#clip420)" d="M783.858 1454.1 Q780.247 1454.1 778.418 1457.66 Q776.613 1461.2 776.613 1468.33 Q776.613 1475.44 778.418 1479.01 Q780.247 1482.55 783.858 1482.55 Q787.492 1482.55 789.298 1479.01 Q791.127 1475.44 791.127 1468.33 Q791.127 1461.2 789.298 1457.66 Q787.492 1454.1 783.858 1454.1 M783.858 1450.39 Q789.668 1450.39 792.724 1455 Q795.803 1459.58 795.803 1468.33 Q795.803 1477.06 792.724 1481.67 Q789.668 1486.25 783.858 1486.25 Q778.048 1486.25 774.969 1481.67 Q771.914 1477.06 771.914 1468.33 Q771.914 1459.58 774.969 1455 Q778.048 1450.39 783.858 1450.39 Z" fill="#000000" fill-rule="nonzero" fill-opacity="1" /><path clip-path="url(#clip420)" d="M804.83 1481.64 L812.469 1481.64 L812.469 1455.28 L804.159 1456.95 L804.159 1452.69 L812.423 1451.02 L817.099 1451.02 L817.099 1481.64 L824.738 1481.64 L824.738 1485.58 L804.83 1485.58 L804.83 1481.64 Z" fill="#000000" fill-rule="nonzero" fill-opacity="1" /><path clip-path="url(#clip420)" d="M1264.49 1454.1 Q1260.88 1454.1 1259.05 1457.66 Q1257.25 1461.2 1257.25 1468.33 Q1257.25 1475.44 1259.05 1479.01 Q1260.88 1482.55 1264.49 1482.55 Q1268.13 1482.55 1269.93 1479.01 Q1271.76 1475.44 1271.76 1468.33 Q1271.76 1461.2 1269.93 1457.66 Q1268.13 1454.1 1264.49 1454.1 M1264.49 1450.39 Q1270.3 1450.39 1273.36 1455 Q1276.44 1459.58 1276.44 1468.33 Q1276.44 1477.06 1273.36 1481.67 Q1270.3 1486.25 1264.49 1486.25 Q1258.68 1486.25 1255.61 1481.67 Q1252.55 1477.06 1252.55 1468.33 Q1252.55 1459.58 1255.61 1455 Q1258.68 1450.39 1264.49 1450.39 Z" fill="#000000" fill-rule="nonzero" fill-opacity="1" /><path clip-path="url(#clip420)" d="M1284.66 1479.7 L1289.54 1479.7 L1289.54 1485.58 L1284.66 1485.58 L1284.66 1479.7 Z" fill="#000000" fill-rule="nonzero" fill-opacity="1" /><path clip-path="url(#clip420)" d="M1309.73 1454.1 Q1306.11 1454.1 1304.29 1457.66 Q1302.48 1461.2 1302.48 1468.33 Q1302.48 1475.44 1304.29 1479.01 Q1306.11 1482.55 1309.73 1482.55 Q1313.36 1482.55 1315.17 1479.01 Q1316.99 1475.44 1316.99 1468.33 Q1316.99 1461.2 1315.17 1457.66 Q1313.36 1454.1 1309.73 1454.1 M1309.73 1450.39 Q1315.54 1450.39 1318.59 1455 Q1321.67 1459.58 1321.67 1468.33 Q1321.67 1477.06 1318.59 1481.67 Q1315.54 1486.25 1309.73 1486.25 Q1303.92 1486.25 1300.84 1481.67 Q1297.78 1477.06 1297.78 1468.33 Q1297.78 1459.58 1300.84 1455 Q1303.92 1450.39 1309.73 1450.39 Z" fill="#000000" fill-rule="nonzero" fill-opacity="1" /><path clip-path="url(#clip420)" d="M1333.91 1481.64 L1350.23 1481.64 L1350.23 1485.58 L1328.29 1485.58 L1328.29 1481.64 Q1330.95 1478.89 1335.54 1474.26 Q1340.14 1469.61 1341.32 1468.27 Q1343.57 1465.74 1344.45 1464.01 Q1345.35 1462.25 1345.35 1460.56 Q1345.35 1457.8 1343.41 1456.07 Q1341.48 1454.33 1338.38 1454.33 Q1336.18 1454.33 1333.73 1455.09 Q1331.3 1455.86 1328.52 1457.41 L1328.52 1452.69 Q1331.35 1451.55 1333.8 1450.97 Q1336.25 1450.39 1338.29 1450.39 Q1343.66 1450.39 1346.85 1453.08 Q1350.05 1455.77 1350.05 1460.26 Q1350.05 1462.39 1349.24 1464.31 Q1348.45 1466.2 1346.35 1468.8 Q1345.77 1469.47 1342.66 1472.69 Q1339.56 1475.88 1333.91 1481.64 Z" fill="#000000" fill-rule="nonzero" fill-opacity="1" /><path clip-path="url(#clip420)" d="M1789.7 1454.1 Q1786.09 1454.1 1784.26 1457.66 Q1782.46 1461.2 1782.46 1468.33 Q1782.46 1475.44 1784.26 1479.01 Q1786.09 1482.55 1789.7 1482.55 Q1793.34 1482.55 1795.14 1479.01 Q1796.97 1475.44 1796.97 1468.33 Q1796.97 1461.2 1795.14 1457.66 Q1793.34 1454.1 1789.7 1454.1 M1789.7 1450.39 Q1795.51 1450.39 1798.57 1455 Q1801.65 1459.58 1801.65 1468.33 Q1801.65 1477.06 1798.57 1481.67 Q1795.51 1486.25 1789.7 1486.25 Q1783.89 1486.25 1780.81 1481.67 Q1777.76 1477.06 1777.76 1468.33 Q1777.76 1459.58 1780.81 1455 Q1783.89 1450.39 1789.7 1450.39 Z" fill="#000000" fill-rule="nonzero" fill-opacity="1" /><path clip-path="url(#clip420)" d="M1809.86 1479.7 L1814.75 1479.7 L1814.75 1485.58 L1809.86 1485.58 L1809.86 1479.7 Z" fill="#000000" fill-rule="nonzero" fill-opacity="1" /><path clip-path="url(#clip420)" d="M1834.93 1454.1 Q1831.32 1454.1 1829.49 1457.66 Q1827.69 1461.2 1827.69 1468.33 Q1827.69 1475.44 1829.49 1479.01 Q1831.32 1482.55 1834.93 1482.55 Q1838.57 1482.55 1840.37 1479.01 Q1842.2 1475.44 1842.2 1468.33 Q1842.2 1461.2 1840.37 1457.66 Q1838.57 1454.1 1834.93 1454.1 M1834.93 1450.39 Q1840.74 1450.39 1843.8 1455 Q1846.88 1459.58 1846.88 1468.33 Q1846.88 1477.06 1843.8 1481.67 Q1840.74 1486.25 1834.93 1486.25 Q1829.12 1486.25 1826.04 1481.67 Q1822.99 1477.06 1822.99 1468.33 Q1822.99 1459.58 1826.04 1455 Q1829.12 1450.39 1834.93 1450.39 Z" fill="#000000" fill-rule="nonzero" fill-opacity="1" /><path clip-path="url(#clip420)" d="M1869.26 1466.95 Q1872.62 1467.66 1874.49 1469.93 Q1876.39 1472.2 1876.39 1475.53 Q1876.39 1480.65 1872.87 1483.45 Q1869.35 1486.25 1862.87 1486.25 Q1860.7 1486.25 1858.38 1485.81 Q1856.09 1485.39 1853.64 1484.54 L1853.64 1480.02 Q1855.58 1481.16 1857.9 1481.74 Q1860.21 1482.32 1862.73 1482.32 Q1867.13 1482.32 1869.42 1480.58 Q1871.74 1478.84 1871.74 1475.53 Q1871.74 1472.48 1869.59 1470.77 Q1867.46 1469.03 1863.64 1469.03 L1859.61 1469.03 L1859.61 1465.19 L1863.82 1465.19 Q1867.27 1465.19 1869.1 1463.82 Q1870.93 1462.43 1870.93 1459.84 Q1870.93 1457.18 1869.03 1455.77 Q1867.15 1454.33 1863.64 1454.33 Q1861.71 1454.33 1859.52 1454.75 Q1857.32 1455.16 1854.68 1456.04 L1854.68 1451.88 Q1857.34 1451.14 1859.65 1450.77 Q1861.99 1450.39 1864.05 1450.39 Q1869.38 1450.39 1872.48 1452.83 Q1875.58 1455.23 1875.58 1459.35 Q1875.58 1462.22 1873.94 1464.21 Q1872.29 1466.18 1869.26 1466.95 Z" fill="#000000" fill-rule="nonzero" fill-opacity="1" /><path clip-path="url(#clip420)" d="M1169.89 1568.04 L1151.75 1520.52 L1158.47 1520.52 L1173.52 1560.53 L1188.61 1520.52 L1195.29 1520.52 L1177.18 1568.04 L1169.89 1568.04 Z" fill="#000000" fill-rule="nonzero" fill-opacity="1" /><path clip-path="url(#clip420)" d="M1210.73 1536.5 Q1206.02 1536.5 1203.28 1540.19 Q1200.54 1543.85 1200.54 1550.25 Q1200.54 1556.65 1203.25 1560.34 Q1205.99 1564 1210.73 1564 Q1215.41 1564 1218.14 1560.31 Q1220.88 1556.62 1220.88 1550.25 Q1220.88 1543.92 1218.14 1540.23 Q1215.41 1536.5 1210.73 1536.5 M1210.73 1531.54 Q1218.37 1531.54 1222.73 1536.5 Q1227.09 1541.47 1227.09 1550.25 Q1227.09 1559 1222.73 1564 Q1218.37 1568.97 1210.73 1568.97 Q1203.06 1568.97 1198.7 1564 Q1194.37 1559 1194.37 1550.25 Q1194.37 1541.47 1198.7 1536.5 Q1203.06 1531.54 1210.73 1531.54 Z" fill="#000000" fill-rule="nonzero" fill-opacity="1" /><path clip-path="url(#clip420)" d="M1236.8 1518.52 L1242.65 1518.52 L1242.65 1568.04 L1236.8 1568.04 L1236.8 1518.52 Z" fill="#000000" fill-rule="nonzero" fill-opacity="1" /><path clip-path="url(#clip420)" d="M1254.3 1553.98 L1254.3 1532.4 L1260.16 1532.4 L1260.16 1553.75 Q1260.16 1558.81 1262.13 1561.36 Q1264.1 1563.87 1268.05 1563.87 Q1272.79 1563.87 1275.53 1560.85 Q1278.3 1557.83 1278.3 1552.61 L1278.3 1532.4 L1284.16 1532.4 L1284.16 1568.04 L1278.3 1568.04 L1278.3 1562.57 Q1276.17 1565.82 1273.34 1567.41 Q1270.53 1568.97 1266.81 1568.97 Q1260.67 1568.97 1257.48 1565.15 Q1254.3 1561.33 1254.3 1553.98 M1269.04 1531.54 L1269.04 1531.54 Z" fill="#000000" fill-rule="nonzero" fill-opacity="1" /><path clip-path="url(#clip420)" d="M1323.97 1539.24 Q1326.17 1535.29 1329.23 1533.41 Q1332.28 1531.54 1336.42 1531.54 Q1341.99 1531.54 1345.01 1535.45 Q1348.04 1539.33 1348.04 1546.53 L1348.04 1568.04 L1342.15 1568.04 L1342.15 1546.72 Q1342.15 1541.59 1340.33 1539.11 Q1338.52 1536.63 1334.8 1536.63 Q1330.24 1536.63 1327.6 1539.65 Q1324.96 1542.68 1324.96 1547.9 L1324.96 1568.04 L1319.07 1568.04 L1319.07 1546.72 Q1319.07 1541.56 1317.26 1539.11 Q1315.44 1536.63 1311.66 1536.63 Q1307.17 1536.63 1304.53 1539.68 Q1301.89 1542.71 1301.89 1547.9 L1301.89 1568.04 L1296 1568.04 L1296 1532.4 L1301.89 1532.4 L1301.89 1537.93 Q1303.89 1534.66 1306.69 1533.1 Q1309.49 1531.54 1313.34 1531.54 Q1317.23 1531.54 1319.93 1533.51 Q1322.67 1535.48 1323.97 1539.24 Z" fill="#000000" fill-rule="nonzero" fill-opacity="1" /><path clip-path="url(#clip420)" d="M1390.21 1548.76 L1390.21 1551.62 L1363.28 1551.62 Q1363.66 1557.67 1366.91 1560.85 Q1370.19 1564 1376.01 1564 Q1379.39 1564 1382.54 1563.17 Q1385.72 1562.35 1388.84 1560.69 L1388.84 1566.23 Q1385.69 1567.57 1382.38 1568.27 Q1379.07 1568.97 1375.66 1568.97 Q1367.13 1568.97 1362.14 1564 Q1357.17 1559.04 1357.17 1550.57 Q1357.17 1541.82 1361.88 1536.69 Q1366.62 1531.54 1374.65 1531.54 Q1381.84 1531.54 1386.01 1536.18 Q1390.21 1540.8 1390.21 1548.76 M1384.35 1547.04 Q1384.29 1542.23 1381.65 1539.37 Q1379.04 1536.5 1374.71 1536.5 Q1369.81 1536.5 1366.85 1539.27 Q1363.92 1542.04 1363.47 1547.07 L1384.35 1547.04 Z" fill="#000000" fill-rule="nonzero" fill-opacity="1" /><path clip-path="url(#clip420)" d="M1416.34 1532.4 L1422.55 1532.4 L1433.69 1562.31 L1444.83 1532.4 L1451.03 1532.4 L1437.67 1568.04 L1429.71 1568.04 L1416.34 1532.4 Z" fill="#000000" fill-rule="nonzero" fill-opacity="1" /><polyline clip-path="url(#clip420)" style="stroke:#000000; stroke-linecap:round; stroke-linejoin:round; stroke-width:4; stroke-opacity:1; fill:none" points="250.028,1423.18 250.028,47.2441 "/>
<polyline clip-path="url(#clip420)" style="stroke:#000000; stroke-linecap:round; stroke-linejoin:round; stroke-width:4; stroke-opacity:1; fill:none" points="250.028,1423.18 268.926,1423.18 "/>
<polyline clip-path="url(#clip420)" style="stroke:#000000; stroke-linecap:round; stroke-linejoin:round; stroke-width:4; stroke-opacity:1; fill:none" points="250.028,1147.99 268.926,1147.99 "/>
<polyline clip-path="url(#clip420)" style="stroke:#000000; stroke-linecap:round; stroke-linejoin:round; stroke-width:4; stroke-opacity:1; fill:none" points="250.028,872.806 268.926,872.806 "/>
<polyline clip-path="url(#clip420)" style="stroke:#000000; stroke-linecap:round; stroke-linejoin:round; stroke-width:4; stroke-opacity:1; fill:none" points="250.028,597.618 268.926,597.618 "/>
<polyline clip-path="url(#clip420)" style="stroke:#000000; stroke-linecap:round; stroke-linejoin:round; stroke-width:4; stroke-opacity:1; fill:none" points="250.028,322.431 268.926,322.431 "/>
<path clip-path="url(#clip420)" d="M126.691 1408.98 Q123.08 1408.98 121.251 1412.54 Q119.445 1416.08 119.445 1423.21 Q119.445 1430.32 121.251 1433.89 Q123.08 1437.43 126.691 1437.43 Q130.325 1437.43 132.13 1433.89 Q133.959 1430.32 133.959 1423.21 Q133.959 1416.08 132.13 1412.54 Q130.325 1408.98 126.691 1408.98 M126.691 1405.27 Q132.501 1405.27 135.556 1409.88 Q138.635 1414.46 138.635 1423.21 Q138.635 1431.94 135.556 1436.55 Q132.501 1441.13 126.691 1441.13 Q120.88 1441.13 117.802 1436.55 Q114.746 1431.94 114.746 1423.21 Q114.746 1414.46 117.802 1409.88 Q120.88 1405.27 126.691 1405.27 Z" fill="#000000" fill-rule="nonzero" fill-opacity="1" /><path clip-path="url(#clip420)" d="M146.853 1434.58 L151.737 1434.58 L151.737 1440.46 L146.853 1440.46 L146.853 1434.58 Z" fill="#000000" fill-rule="nonzero" fill-opacity="1" /><path clip-path="url(#clip420)" d="M171.922 1408.98 Q168.311 1408.98 166.482 1412.54 Q164.677 1416.08 164.677 1423.21 Q164.677 1430.32 166.482 1433.89 Q168.311 1437.43 171.922 1437.43 Q175.556 1437.43 177.362 1433.89 Q179.19 1430.32 179.19 1423.21 Q179.19 1416.08 177.362 1412.54 Q175.556 1408.98 171.922 1408.98 M171.922 1405.27 Q177.732 1405.27 180.788 1409.88 Q183.866 1414.46 183.866 1423.21 Q183.866 1431.94 180.788 1436.55 Q177.732 1441.13 171.922 1441.13 Q166.112 1441.13 163.033 1436.55 Q159.978 1431.94 159.978 1423.21 Q159.978 1414.46 163.033 1409.88 Q166.112 1405.27 171.922 1405.27 Z" fill="#000000" fill-rule="nonzero" fill-opacity="1" /><path clip-path="url(#clip420)" d="M202.084 1408.98 Q198.473 1408.98 196.644 1412.54 Q194.838 1416.08 194.838 1423.21 Q194.838 1430.32 196.644 1433.89 Q198.473 1437.43 202.084 1437.43 Q205.718 1437.43 207.524 1433.89 Q209.352 1430.32 209.352 1423.21 Q209.352 1416.08 207.524 1412.54 Q205.718 1408.98 202.084 1408.98 M202.084 1405.27 Q207.894 1405.27 210.949 1409.88 Q214.028 1414.46 214.028 1423.21 Q214.028 1431.94 210.949 1436.55 Q207.894 1441.13 202.084 1441.13 Q196.274 1441.13 193.195 1436.55 Q190.139 1431.94 190.139 1423.21 Q190.139 1414.46 193.195 1409.88 Q196.274 1405.27 202.084 1405.27 Z" fill="#000000" fill-rule="nonzero" fill-opacity="1" /><path clip-path="url(#clip420)" d="M127.917 1133.79 Q124.306 1133.79 122.478 1137.36 Q120.672 1140.9 120.672 1148.03 Q120.672 1155.13 122.478 1158.7 Q124.306 1162.24 127.917 1162.24 Q131.552 1162.24 133.357 1158.7 Q135.186 1155.13 135.186 1148.03 Q135.186 1140.9 133.357 1137.36 Q131.552 1133.79 127.917 1133.79 M127.917 1130.09 Q133.728 1130.09 136.783 1134.69 Q139.862 1139.28 139.862 1148.03 Q139.862 1156.75 136.783 1161.36 Q133.728 1165.94 127.917 1165.94 Q122.107 1165.94 119.029 1161.36 Q115.973 1156.75 115.973 1148.03 Q115.973 1139.28 119.029 1134.69 Q122.107 1130.09 127.917 1130.09 Z" fill="#000000" fill-rule="nonzero" fill-opacity="1" /><path clip-path="url(#clip420)" d="M148.079 1159.39 L152.964 1159.39 L152.964 1165.27 L148.079 1165.27 L148.079 1159.39 Z" fill="#000000" fill-rule="nonzero" fill-opacity="1" /><path clip-path="url(#clip420)" d="M173.149 1133.79 Q169.538 1133.79 167.709 1137.36 Q165.903 1140.9 165.903 1148.03 Q165.903 1155.13 167.709 1158.7 Q169.538 1162.24 173.149 1162.24 Q176.783 1162.24 178.589 1158.7 Q180.417 1155.13 180.417 1148.03 Q180.417 1140.9 178.589 1137.36 Q176.783 1133.79 173.149 1133.79 M173.149 1130.09 Q178.959 1130.09 182.014 1134.69 Q185.093 1139.28 185.093 1148.03 Q185.093 1156.75 182.014 1161.36 Q178.959 1165.94 173.149 1165.94 Q167.339 1165.94 164.26 1161.36 Q161.204 1156.75 161.204 1148.03 Q161.204 1139.28 164.26 1134.69 Q167.339 1130.09 173.149 1130.09 Z" fill="#000000" fill-rule="nonzero" fill-opacity="1" /><path clip-path="url(#clip420)" d="M194.121 1161.34 L201.76 1161.34 L201.76 1134.97 L193.45 1136.64 L193.45 1132.38 L201.713 1130.71 L206.389 1130.71 L206.389 1161.34 L214.028 1161.34 L214.028 1165.27 L194.121 1165.27 L194.121 1161.34 Z" fill="#000000" fill-rule="nonzero" fill-opacity="1" /><path clip-path="url(#clip420)" d="M128.288 858.604 Q124.677 858.604 122.848 862.169 Q121.043 865.711 121.043 872.84 Q121.043 879.947 122.848 883.512 Q124.677 887.053 128.288 887.053 Q131.922 887.053 133.728 883.512 Q135.556 879.947 135.556 872.84 Q135.556 865.711 133.728 862.169 Q131.922 858.604 128.288 858.604 M128.288 854.901 Q134.098 854.901 137.154 859.507 Q140.232 864.09 140.232 872.84 Q140.232 881.567 137.154 886.174 Q134.098 890.757 128.288 890.757 Q122.478 890.757 119.399 886.174 Q116.343 881.567 116.343 872.84 Q116.343 864.09 119.399 859.507 Q122.478 854.901 128.288 854.901 Z" fill="#000000" fill-rule="nonzero" fill-opacity="1" /><path clip-path="url(#clip420)" d="M148.45 884.206 L153.334 884.206 L153.334 890.086 L148.45 890.086 L148.45 884.206 Z" fill="#000000" fill-rule="nonzero" fill-opacity="1" /><path clip-path="url(#clip420)" d="M173.519 858.604 Q169.908 858.604 168.079 862.169 Q166.274 865.711 166.274 872.84 Q166.274 879.947 168.079 883.512 Q169.908 887.053 173.519 887.053 Q177.153 887.053 178.959 883.512 Q180.788 879.947 180.788 872.84 Q180.788 865.711 178.959 862.169 Q177.153 858.604 173.519 858.604 M173.519 854.901 Q179.329 854.901 182.385 859.507 Q185.463 864.09 185.463 872.84 Q185.463 881.567 182.385 886.174 Q179.329 890.757 173.519 890.757 Q167.709 890.757 164.63 886.174 Q161.575 881.567 161.575 872.84 Q161.575 864.09 164.63 859.507 Q167.709 854.901 173.519 854.901 Z" fill="#000000" fill-rule="nonzero" fill-opacity="1" /><path clip-path="url(#clip420)" d="M197.709 886.15 L214.028 886.15 L214.028 890.086 L192.084 890.086 L192.084 886.15 Q194.746 883.396 199.329 878.766 Q203.936 874.113 205.116 872.771 Q207.362 870.248 208.241 868.512 Q209.144 866.752 209.144 865.063 Q209.144 862.308 207.199 860.572 Q205.278 858.836 202.176 858.836 Q199.977 858.836 197.524 859.6 Q195.093 860.363 192.315 861.914 L192.315 857.192 Q195.139 856.058 197.593 855.479 Q200.047 854.901 202.084 854.901 Q207.454 854.901 210.649 857.586 Q213.843 860.271 213.843 864.762 Q213.843 866.891 213.033 868.813 Q212.246 870.711 210.139 873.303 Q209.561 873.975 206.459 877.192 Q203.357 880.387 197.709 886.15 Z" fill="#000000" fill-rule="nonzero" fill-opacity="1" /><path clip-path="url(#clip420)" d="M127.339 583.417 Q123.728 583.417 121.899 586.982 Q120.093 590.524 120.093 597.653 Q120.093 604.76 121.899 608.324 Q123.728 611.866 127.339 611.866 Q130.973 611.866 132.779 608.324 Q134.607 604.76 134.607 597.653 Q134.607 590.524 132.779 586.982 Q130.973 583.417 127.339 583.417 M127.339 579.713 Q133.149 579.713 136.204 584.32 Q139.283 588.903 139.283 597.653 Q139.283 606.38 136.204 610.986 Q133.149 615.57 127.339 615.57 Q121.529 615.57 118.45 610.986 Q115.394 606.38 115.394 597.653 Q115.394 588.903 118.45 584.32 Q121.529 579.713 127.339 579.713 Z" fill="#000000" fill-rule="nonzero" fill-opacity="1" /><path clip-path="url(#clip420)" d="M147.501 609.019 L152.385 609.019 L152.385 614.898 L147.501 614.898 L147.501 609.019 Z" fill="#000000" fill-rule="nonzero" fill-opacity="1" /><path clip-path="url(#clip420)" d="M172.57 583.417 Q168.959 583.417 167.13 586.982 Q165.325 590.524 165.325 597.653 Q165.325 604.76 167.13 608.324 Q168.959 611.866 172.57 611.866 Q176.204 611.866 178.01 608.324 Q179.839 604.76 179.839 597.653 Q179.839 590.524 178.01 586.982 Q176.204 583.417 172.57 583.417 M172.57 579.713 Q178.38 579.713 181.436 584.32 Q184.514 588.903 184.514 597.653 Q184.514 606.38 181.436 610.986 Q178.38 615.57 172.57 615.57 Q166.76 615.57 163.681 610.986 Q160.626 606.38 160.626 597.653 Q160.626 588.903 163.681 584.32 Q166.76 579.713 172.57 579.713 Z" fill="#000000" fill-rule="nonzero" fill-opacity="1" /><path clip-path="url(#clip420)" d="M206.899 596.264 Q210.255 596.982 212.13 599.25 Q214.028 601.519 214.028 604.852 Q214.028 609.968 210.51 612.769 Q206.991 615.57 200.51 615.57 Q198.334 615.57 196.019 615.13 Q193.727 614.713 191.274 613.857 L191.274 609.343 Q193.218 610.477 195.533 611.056 Q197.848 611.635 200.371 611.635 Q204.769 611.635 207.061 609.898 Q209.375 608.162 209.375 604.852 Q209.375 601.797 207.223 600.084 Q205.093 598.348 201.274 598.348 L197.246 598.348 L197.246 594.505 L201.459 594.505 Q204.908 594.505 206.737 593.139 Q208.565 591.75 208.565 589.158 Q208.565 586.496 206.667 585.084 Q204.792 583.649 201.274 583.649 Q199.352 583.649 197.153 584.065 Q194.954 584.482 192.315 585.362 L192.315 581.195 Q194.977 580.454 197.292 580.084 Q199.63 579.713 201.69 579.713 Q207.014 579.713 210.116 582.144 Q213.218 584.551 213.218 588.672 Q213.218 591.542 211.574 593.533 Q209.931 595.5 206.899 596.264 Z" fill="#000000" fill-rule="nonzero" fill-opacity="1" /><path clip-path="url(#clip420)" d="M126.205 308.23 Q122.593 308.23 120.765 311.795 Q118.959 315.336 118.959 322.466 Q118.959 329.572 120.765 333.137 Q122.593 336.679 126.205 336.679 Q129.839 336.679 131.644 333.137 Q133.473 329.572 133.473 322.466 Q133.473 315.336 131.644 311.795 Q129.839 308.23 126.205 308.23 M126.205 304.526 Q132.015 304.526 135.07 309.133 Q138.149 313.716 138.149 322.466 Q138.149 331.193 135.07 335.799 Q132.015 340.383 126.205 340.383 Q120.394 340.383 117.316 335.799 Q114.26 331.193 114.26 322.466 Q114.26 313.716 117.316 309.133 Q120.394 304.526 126.205 304.526 Z" fill="#000000" fill-rule="nonzero" fill-opacity="1" /><path clip-path="url(#clip420)" d="M146.366 333.832 L151.251 333.832 L151.251 339.711 L146.366 339.711 L146.366 333.832 Z" fill="#000000" fill-rule="nonzero" fill-opacity="1" /><path clip-path="url(#clip420)" d="M171.436 308.23 Q167.825 308.23 165.996 311.795 Q164.19 315.336 164.19 322.466 Q164.19 329.572 165.996 333.137 Q167.825 336.679 171.436 336.679 Q175.07 336.679 176.876 333.137 Q178.704 329.572 178.704 322.466 Q178.704 315.336 176.876 311.795 Q175.07 308.23 171.436 308.23 M171.436 304.526 Q177.246 304.526 180.301 309.133 Q183.38 313.716 183.38 322.466 Q183.38 331.193 180.301 335.799 Q177.246 340.383 171.436 340.383 Q165.626 340.383 162.547 335.799 Q159.491 331.193 159.491 322.466 Q159.491 313.716 162.547 309.133 Q165.626 304.526 171.436 304.526 Z" fill="#000000" fill-rule="nonzero" fill-opacity="1" /><path clip-path="url(#clip420)" d="M204.445 309.225 L192.639 327.674 L204.445 327.674 L204.445 309.225 M203.218 305.151 L209.098 305.151 L209.098 327.674 L214.028 327.674 L214.028 331.563 L209.098 331.563 L209.098 339.711 L204.445 339.711 L204.445 331.563 L188.843 331.563 L188.843 327.049 L203.218 305.151 Z" fill="#000000" fill-rule="nonzero" fill-opacity="1" /><path clip-path="url(#clip420)" d="M16.4842 853.407 L16.4842 843.827 L48.8219 831.7 L16.4842 819.51 L16.4842 809.929 L64.0042 809.929 L64.0042 816.2 L22.277 816.2 L54.8694 828.454 L54.8694 834.915 L22.277 847.169 L64.0042 847.169 L64.0042 853.407 L16.4842 853.407 Z" fill="#000000" fill-rule="nonzero" fill-opacity="1" /><path clip-path="url(#clip420)" d="M46.0847 781.22 Q46.0847 788.318 47.7079 791.055 Q49.3312 793.792 53.2461 793.792 Q56.3653 793.792 58.2114 791.755 Q60.0256 789.687 60.0256 786.154 Q60.0256 781.284 56.5881 778.356 Q53.1188 775.395 47.3897 775.395 L46.0847 775.395 L46.0847 781.22 M43.6657 769.539 L64.0042 769.539 L64.0042 775.395 L58.5933 775.395 Q61.8398 777.401 63.3994 780.393 Q64.9272 783.384 64.9272 787.713 Q64.9272 793.188 61.8716 796.434 Q58.7843 799.649 53.6281 799.649 Q47.6125 799.649 44.5569 795.638 Q41.5014 791.596 41.5014 783.607 L41.5014 775.395 L40.9285 775.395 Q36.8862 775.395 34.6901 778.069 Q32.4621 780.711 32.4621 785.517 Q32.4621 788.573 33.1941 791.469 Q33.9262 794.365 35.3903 797.039 L29.9795 797.039 Q28.7381 793.824 28.1334 790.801 Q27.4968 787.777 27.4968 784.912 Q27.4968 777.178 31.5072 773.358 Q35.5176 769.539 43.6657 769.539 Z" fill="#000000" fill-rule="nonzero" fill-opacity="1" /><path clip-path="url(#clip420)" d="M29.4065 734.75 L34.9447 734.75 Q33.6716 737.233 33.035 739.907 Q32.3984 742.58 32.3984 745.445 Q32.3984 749.805 33.7352 752.002 Q35.072 754.166 37.7456 754.166 Q39.7826 754.166 40.9603 752.606 Q42.1061 751.047 43.1565 746.336 L43.6021 744.331 Q44.9389 738.092 47.3897 735.483 Q49.8086 732.841 54.1691 732.841 Q59.1344 732.841 62.0308 736.787 Q64.9272 740.702 64.9272 747.577 Q64.9272 750.442 64.3543 753.561 Q63.8132 756.648 62.6992 760.086 L56.6518 760.086 Q58.3387 756.839 59.198 753.688 Q60.0256 750.537 60.0256 747.45 Q60.0256 743.312 58.6251 741.084 Q57.1929 738.856 54.6147 738.856 Q52.2276 738.856 50.9545 740.48 Q49.6813 742.071 48.5037 747.514 L48.0262 749.551 Q46.8804 754.993 44.5251 757.412 Q42.138 759.831 38.0002 759.831 Q32.9713 759.831 30.2341 756.267 Q27.4968 752.702 27.4968 746.145 Q27.4968 742.899 27.9743 740.034 Q28.4517 737.169 29.4065 734.75 Z" fill="#000000" fill-rule="nonzero" fill-opacity="1" /><path clip-path="url(#clip420)" d="M29.4065 700.789 L34.9447 700.789 Q33.6716 703.272 33.035 705.946 Q32.3984 708.619 32.3984 711.484 Q32.3984 715.844 33.7352 718.04 Q35.072 720.205 37.7456 720.205 Q39.7826 720.205 40.9603 718.645 Q42.1061 717.086 43.1565 712.375 L43.6021 710.37 Q44.9389 704.131 47.3897 701.521 Q49.8086 698.88 54.1691 698.88 Q59.1344 698.88 62.0308 702.826 Q64.9272 706.741 64.9272 713.616 Q64.9272 716.481 64.3543 719.6 Q63.8132 722.687 62.6992 726.125 L56.6518 726.125 Q58.3387 722.878 59.198 719.727 Q60.0256 716.576 60.0256 713.489 Q60.0256 709.351 58.6251 707.123 Q57.1929 704.895 54.6147 704.895 Q52.2276 704.895 50.9545 706.519 Q49.6813 708.11 48.5037 713.553 L48.0262 715.59 Q46.8804 721.032 44.5251 723.451 Q42.138 725.87 38.0002 725.87 Q32.9713 725.87 30.2341 722.305 Q27.4968 718.741 27.4968 712.184 Q27.4968 708.938 27.9743 706.073 Q28.4517 703.208 29.4065 700.789 Z" fill="#000000" fill-rule="nonzero" fill-opacity="1" /><path clip-path="url(#clip420)" d="M35.1993 641.079 Q31.2526 638.883 29.3747 635.827 Q27.4968 632.772 27.4968 628.634 Q27.4968 623.064 31.4117 620.04 Q35.2948 617.017 42.4881 617.017 L64.0042 617.017 L64.0042 622.905 L42.679 622.905 Q37.5546 622.905 35.072 624.719 Q32.5894 626.533 32.5894 630.257 Q32.5894 634.809 35.6131 637.451 Q38.6368 640.092 43.8567 640.092 L64.0042 640.092 L64.0042 645.981 L42.679 645.981 Q37.5228 645.981 35.072 647.795 Q32.5894 649.609 32.5894 653.397 Q32.5894 657.885 35.6449 660.526 Q38.6686 663.168 43.8567 663.168 L64.0042 663.168 L64.0042 669.056 L28.3562 669.056 L28.3562 663.168 L33.8944 663.168 Q30.616 661.163 29.0564 658.362 Q27.4968 655.561 27.4968 651.71 Q27.4968 647.827 29.4702 645.121 Q31.4436 642.384 35.1993 641.079 Z" fill="#000000" fill-rule="nonzero" fill-opacity="1" /><path clip-path="url(#clip422)" d="M250.028 1088.78 L1933.51 1088.78 L1933.51 1088.78 L1933.51 1088.77 L1933.53 1088.66 L1933.73 1087.54 L1935.76 1076.17 L1943.62 1028.19 L1958.23 920.739 L1977.88 728.703 L2002.57 380.439 L2019.4 47.2441 L2019.4 47.2441 L250.028 47.2441 L250.028 1088.78  Z" fill="#0000ff" fill-rule="evenodd" fill-opacity="0.35"/>
<polyline clip-path="url(#clip422)" style="stroke:#000000; stroke-linecap:round; stroke-linejoin:round; stroke-width:4; stroke-opacity:0; fill:none" points="250.028,1088.78 1933.51,1088.78 1933.51,1088.77 1933.53,1088.66 1933.73,1087.54 1935.76,1076.17 1943.62,1028.19 1958.23,920.739 1977.88,728.703 2002.57,380.439 2019.4,47.2441 250.028,47.2441 250.028,1088.78 "/>
<path clip-path="url(#clip422)" d="M250.028 1088.78 L1933.51 1088.78 L1933.51 1088.78 L1933.5 1088.78 L1933.46 1088.83 L1933.02 1089.33 L1928.66 1094.32 L1885.03 1144.2 L1641.02 1423.18 L1641.02 1423.18 L250.028 1423.18 L250.028 1088.78  Z" fill="#a52a2a" fill-rule="evenodd" fill-opacity="0.35"/>
<polyline clip-path="url(#clip422)" style="stroke:#000000; stroke-linecap:round; stroke-linejoin:round; stroke-width:4; stroke-opacity:0; fill:none" points="250.028,1088.78 1933.51,1088.78 1933.5,1088.78 1933.46,1088.83 1933.02,1089.33 1928.66,1094.32 1885.03,1144.2 1641.02,1423.18 250.028,1423.18 250.028,1088.78 "/>
<polyline clip-path="url(#clip422)" style="stroke:#808080; stroke-linecap:round; stroke-linejoin:round; stroke-width:4; stroke-opacity:1; fill:none" points="1933.51,1088.78 1933.51,1088.77 1933.53,1088.66 1933.73,1087.54 1935.76,1076.17 1943.62,1028.19 1958.23,920.739 1977.88,728.703 2002.57,380.439 2019.4,47.2441 "/>
<polyline clip-path="url(#clip422)" style="stroke:#808080; stroke-linecap:round; stroke-linejoin:round; stroke-width:4; stroke-opacity:1; fill:none" points="1933.51,1088.78 1933.5,1088.78 1933.46,1088.83 1933.02,1089.33 1928.66,1094.32 1885.03,1144.2 1641.02,1423.18 "/>
<path clip-path="url(#clip422)" d="M2019.4 47.2441 L2019.4 47.2441 L2002.57 380.439 L1977.88 728.703 L1958.23 920.739 L1943.62 1028.19 L1935.76 1076.17 L1933.73 1087.54 L1933.53 1088.66 L1933.51 1088.77 L1933.51 1088.78 L1933.51 1088.78 L1992.36 998.596 L2027.37 908.415 L2050.6 818.233 L2067.13 728.051 L2079.49 637.87 L2089.09 547.688 L2096.75 457.507 L2103.02 367.325 L2108.23 277.143 L2108.23 277.143 L2109.56 251.599 L2110.82 226.055 L2112.02 200.51 L2113.18 174.966 L2114.28 149.421 L2115.34 123.877 L2116.36 98.3328 L2117.33 72.7884 L2118.27 47.2441 L250.028 47.2441 L2019.4 47.2441  Z" fill="#9acd32" fill-rule="evenodd" fill-opacity="0.35"/>
<polyline clip-path="url(#clip422)" style="stroke:#000000; stroke-linecap:round; stroke-linejoin:round; stroke-width:4; stroke-opacity:0; fill:none" points="2019.4,47.2441 2019.4,47.2441 2002.57,380.439 1977.88,728.703 1958.23,920.739 1943.62,1028.19 1935.76,1076.17 1933.73,1087.54 1933.53,1088.66 1933.51,1088.77 1933.51,1088.78 1933.51,1088.78 1992.36,998.596 2027.37,908.415 2050.6,818.233 2067.13,728.051 2079.49,637.87 2089.09,547.688 2096.75,457.507 2103.02,367.325 2108.23,277.143 2109.56,251.599 2110.82,226.055 2112.02,200.51 2113.18,174.966 2114.28,149.421 2115.34,123.877 2116.36,98.3328 2117.33,72.7884 2118.27,47.2441 250.028,47.2441 2019.4,47.2441 "/>
<path clip-path="url(#clip422)" d="M1641.02 1423.18 L1641.02 1423.18 L1885.03 1144.2 L1928.66 1094.32 L1933.02 1089.33 L1933.46 1088.83 L1933.5 1088.78 L1933.51 1088.78 L1933.51 1088.78 L1992.36 998.596 L2027.37 908.415 L2050.6 818.233 L2067.13 728.051 L2079.49 637.87 L2089.09 547.688 L2096.75 457.507 L2103.02 367.325 L2108.23 277.143 L2108.23 277.143 L2109.56 251.599 L2110.82 226.055 L2112.02 200.51 L2113.18 174.966 L2114.28 149.421 L2115.34 123.877 L2116.36 98.3328 L2117.33 72.7884 L2118.27 47.2441 L250.028 47.2441 L2352.76 47.2441 L2352.76 1423.18 L250.028 1423.18 L1641.02 1423.18  Z" fill="#ff0000" fill-rule="evenodd" fill-opacity="0.35"/>
<polyline clip-path="url(#clip422)" style="stroke:#000000; stroke-linecap:round; stroke-linejoin:round; stroke-width:4; stroke-opacity:0; fill:none" points="1641.02,1423.18 1641.02,1423.18 1885.03,1144.2 1928.66,1094.32 1933.02,1089.33 1933.46,1088.83 1933.5,1088.78 1933.51,1088.78 1933.51,1088.78 1992.36,998.596 2027.37,908.415 2050.6,818.233 2067.13,728.051 2079.49,637.87 2089.09,547.688 2096.75,457.507 2103.02,367.325 2108.23,277.143 2109.56,251.599 2110.82,226.055 2112.02,200.51 2113.18,174.966 2114.28,149.421 2115.34,123.877 2116.36,98.3328 2117.33,72.7884 2118.27,47.2441 250.028,47.2441 2352.76,47.2441 2352.76,1423.18 250.028,1423.18 1641.02,1423.18 "/>
<polyline clip-path="url(#clip422)" style="stroke:#808080; stroke-linecap:round; stroke-linejoin:round; stroke-width:12; stroke-opacity:1; fill:none" points="2108.23,277.143 2109.56,251.599 2110.82,226.055 2112.02,200.51 2113.18,174.966 2114.28,149.421 2115.34,123.877 2116.36,98.3328 2117.33,72.7884 2118.27,47.2441 "/>
<polyline clip-path="url(#clip422)" style="stroke:#ffd700; stroke-linecap:round; stroke-linejoin:round; stroke-width:12; stroke-opacity:1; fill:none" points="1933.51,1088.78 1992.36,998.596 2027.37,908.415 2050.6,818.233 2067.13,728.051 2079.49,637.87 2089.09,547.688 2096.75,457.507 2103.02,367.325 2108.23,277.143 "/>
<polyline clip-path="url(#clip422)" style="stroke:#008000; stroke-linecap:round; stroke-linejoin:round; stroke-width:12; stroke-opacity:1; fill:none" points="250.028,1088.78 1933.51,1088.78 "/>
<path clip-path="url(#clip420)" d="M320.119 1377.32 L890.32 1377.32 L890.32 962.595 L320.119 962.595  Z" fill="#ffffff" fill-rule="evenodd" fill-opacity="1"/>
<polyline clip-path="url(#clip420)" style="stroke:#000000; stroke-linecap:round; stroke-linejoin:round; stroke-width:4; stroke-opacity:1; fill:none" points="320.119,1377.32 890.32,1377.32 890.32,962.595 320.119,962.595 320.119,1377.32 "/>
<path clip-path="url(#clip420)" d="M343.483 1035.17 L483.665 1035.17 L483.665 993.699 L343.483 993.699 L343.483 1035.17  Z" fill="#0000ff" fill-rule="evenodd" fill-opacity="0.35"/>
<polyline clip-path="url(#clip420)" style="stroke:#000000; stroke-linecap:round; stroke-linejoin:round; stroke-width:4; stroke-opacity:0; fill:none" points="343.483,1035.17 483.665,1035.17 483.665,993.699 343.483,993.699 343.483,1035.17 "/>
<path clip-path="url(#clip420)" d="M507.028 1021.48 L507.028 1005.79 L511.287 1005.79 L511.287 1021.32 Q511.287 1025 512.723 1026.85 Q514.158 1028.68 517.028 1028.68 Q520.477 1028.68 522.468 1026.48 Q524.482 1024.28 524.482 1020.49 L524.482 1005.79 L528.741 1005.79 L528.741 1031.72 L524.482 1031.72 L524.482 1027.73 Q522.931 1030.09 520.871 1031.25 Q518.834 1032.39 516.125 1032.39 Q511.658 1032.39 509.343 1029.61 Q507.028 1026.83 507.028 1021.48 M517.746 1005.16 L517.746 1005.16 Z" fill="#000000" fill-rule="nonzero" fill-opacity="1" /><path clip-path="url(#clip420)" d="M536.218 1022.29 L554.898 1022.29 L554.898 1024.49 L536.218 1024.49 L536.218 1022.29 Z" fill="#000000" fill-rule="nonzero" fill-opacity="1" /><path clip-path="url(#clip420)" d="M587.977 1012.43 Q586.125 1012.43 584.852 1013.73 Q583.579 1015 583.579 1016.85 Q583.579 1018.68 584.852 1019.96 Q586.125 1021.21 587.977 1021.21 Q589.829 1021.21 591.102 1019.96 Q592.375 1018.68 592.375 1016.85 Q592.375 1015.03 591.079 1013.73 Q589.806 1012.43 587.977 1012.43 M587.977 1009.45 Q589.458 1009.45 590.824 1010.03 Q592.19 1010.58 593.185 1011.65 Q594.25 1012.69 594.782 1014.01 Q595.315 1015.33 595.315 1016.85 Q595.315 1019.91 593.162 1022.04 Q591.032 1024.15 587.931 1024.15 Q584.806 1024.15 582.722 1022.06 Q580.639 1019.98 580.639 1016.85 Q580.639 1013.75 582.769 1011.6 Q584.898 1009.45 587.977 1009.45 Z" fill="#000000" fill-rule="nonzero" fill-opacity="1" /><path clip-path="url(#clip420)" d="M621.912 1021.48 L621.912 1005.79 L626.171 1005.79 L626.171 1021.32 Q626.171 1025 627.606 1026.85 Q629.041 1028.68 631.912 1028.68 Q635.361 1028.68 637.352 1026.48 Q639.365 1024.28 639.365 1020.49 L639.365 1005.79 L643.625 1005.79 L643.625 1031.72 L639.365 1031.72 L639.365 1027.73 Q637.815 1030.09 635.754 1031.25 Q633.717 1032.39 631.009 1032.39 Q626.541 1032.39 624.227 1029.61 Q621.912 1026.83 621.912 1021.48 M632.629 1005.16 L632.629 1005.16 Z" fill="#000000" fill-rule="nonzero" fill-opacity="1" /><path clip-path="url(#clip420)" d="M662.236 1017.25 L662.236 1019.49 Q661.101 1018.98 659.875 1018.73 Q658.671 1018.47 657.351 1018.47 Q655.338 1018.47 654.342 1019.01 Q653.347 1019.56 653.347 1020.65 Q653.347 1021.48 654.064 1021.95 Q654.782 1022.43 656.935 1022.85 L657.861 1023.03 Q660.754 1023.59 661.912 1024.56 Q663.115 1025.56 663.115 1027.34 Q663.115 1029.35 661.31 1030.53 Q659.527 1031.72 656.379 1031.72 Q655.06 1031.72 653.625 1031.48 Q652.213 1031.25 650.639 1030.81 L650.639 1028.34 Q652.12 1029.03 653.578 1029.38 Q655.014 1029.72 656.426 1029.72 Q658.324 1029.72 659.342 1029.15 Q660.361 1028.57 660.361 1027.53 Q660.361 1026.55 659.62 1026.02 Q658.972 1025.56 656.402 1025.03 L655.476 1024.84 Q652.976 1024.35 651.865 1023.41 Q650.754 1022.43 650.754 1020.74 Q650.754 1018.71 652.398 1017.6 Q654.018 1016.46 657.027 1016.46 Q658.509 1016.46 659.828 1016.67 Q661.148 1016.85 662.236 1017.25 Z" fill="#000000" fill-rule="nonzero" fill-opacity="1" /><path clip-path="url(#clip420)" d="M695.523 1012.43 Q693.671 1012.43 692.398 1013.73 Q691.124 1015 691.124 1016.85 Q691.124 1018.68 692.398 1019.96 Q693.671 1021.21 695.523 1021.21 Q697.374 1021.21 698.648 1019.96 Q699.921 1018.68 699.921 1016.85 Q699.921 1015.03 698.624 1013.73 Q697.351 1012.43 695.523 1012.43 M695.523 1009.45 Q697.004 1009.45 698.37 1010.03 Q699.736 1010.58 700.731 1011.65 Q701.796 1012.69 702.328 1014.01 Q702.86 1015.33 702.86 1016.85 Q702.86 1019.91 700.708 1022.04 Q698.578 1024.15 695.476 1024.15 Q692.351 1024.15 690.268 1022.06 Q688.185 1019.98 688.185 1016.85 Q688.185 1013.75 690.314 1011.6 Q692.444 1009.45 695.523 1009.45 Z" fill="#000000" fill-rule="nonzero" fill-opacity="1" /><path clip-path="url(#clip420)" d="M729.458 1021.48 L729.458 1005.79 L733.717 1005.79 L733.717 1021.32 Q733.717 1025 735.152 1026.85 Q736.587 1028.68 739.458 1028.68 Q742.907 1028.68 744.897 1026.48 Q746.911 1024.28 746.911 1020.49 L746.911 1005.79 L751.17 1005.79 L751.17 1031.72 L746.911 1031.72 L746.911 1027.73 Q745.36 1030.09 743.3 1031.25 Q741.263 1032.39 738.555 1032.39 Q734.087 1032.39 731.772 1029.61 Q729.458 1026.83 729.458 1021.48 M740.175 1005.16 L740.175 1005.16 Z" fill="#000000" fill-rule="nonzero" fill-opacity="1" /><path clip-path="url(#clip420)" d="M769.203 1015.07 L769.203 1022.29 L777.328 1022.29 L777.328 1024.49 L769.203 1024.49 L769.203 1031.72 L766.772 1031.72 L766.772 1024.49 L758.647 1024.49 L758.647 1022.29 L766.772 1022.29 L766.772 1015.07 L769.203 1015.07 Z" fill="#000000" fill-rule="nonzero" fill-opacity="1" /><path clip-path="url(#clip420)" d="M343.483 1087.01 L483.665 1087.01 L483.665 1045.54 L343.483 1045.54 L343.483 1087.01  Z" fill="#a52a2a" fill-rule="evenodd" fill-opacity="0.35"/>
<polyline clip-path="url(#clip420)" style="stroke:#000000; stroke-linecap:round; stroke-linejoin:round; stroke-width:4; stroke-opacity:0; fill:none" points="343.483,1087.01 483.665,1087.01 483.665,1045.54 343.483,1045.54 343.483,1087.01 "/>
<path clip-path="url(#clip420)" d="M507.028 1073.32 L507.028 1057.63 L511.287 1057.63 L511.287 1073.16 Q511.287 1076.84 512.723 1078.69 Q514.158 1080.52 517.028 1080.52 Q520.477 1080.52 522.468 1078.32 Q524.482 1076.12 524.482 1072.33 L524.482 1057.63 L528.741 1057.63 L528.741 1083.56 L524.482 1083.56 L524.482 1079.57 Q522.931 1081.93 520.871 1083.09 Q518.834 1084.23 516.125 1084.23 Q511.658 1084.23 509.343 1081.45 Q507.028 1078.67 507.028 1073.32 M517.746 1057 L517.746 1057 Z" fill="#000000" fill-rule="nonzero" fill-opacity="1" /><path clip-path="url(#clip420)" d="M546.773 1066.91 L546.773 1074.13 L554.898 1074.13 L554.898 1076.33 L546.773 1076.33 L546.773 1083.56 L544.343 1083.56 L544.343 1076.33 L536.218 1076.33 L536.218 1074.13 L544.343 1074.13 L544.343 1066.91 L546.773 1066.91 Z" fill="#000000" fill-rule="nonzero" fill-opacity="1" /><path clip-path="url(#clip420)" d="M587.977 1064.27 Q586.125 1064.27 584.852 1065.57 Q583.579 1066.84 583.579 1068.69 Q583.579 1070.52 584.852 1071.8 Q586.125 1073.05 587.977 1073.05 Q589.829 1073.05 591.102 1071.8 Q592.375 1070.52 592.375 1068.69 Q592.375 1066.87 591.079 1065.57 Q589.806 1064.27 587.977 1064.27 M587.977 1061.29 Q589.458 1061.29 590.824 1061.87 Q592.19 1062.42 593.185 1063.49 Q594.25 1064.53 594.782 1065.85 Q595.315 1067.17 595.315 1068.69 Q595.315 1071.75 593.162 1073.88 Q591.032 1075.99 587.931 1075.99 Q584.806 1075.99 582.722 1073.9 Q580.639 1071.82 580.639 1068.69 Q580.639 1065.59 582.769 1063.44 Q584.898 1061.29 587.977 1061.29 Z" fill="#000000" fill-rule="nonzero" fill-opacity="1" /><path clip-path="url(#clip420)" d="M621.912 1073.32 L621.912 1057.63 L626.171 1057.63 L626.171 1073.16 Q626.171 1076.84 627.606 1078.69 Q629.041 1080.52 631.912 1080.52 Q635.361 1080.52 637.352 1078.32 Q639.365 1076.12 639.365 1072.33 L639.365 1057.63 L643.625 1057.63 L643.625 1083.56 L639.365 1083.56 L639.365 1079.57 Q637.815 1081.93 635.754 1083.09 Q633.717 1084.23 631.009 1084.23 Q626.541 1084.23 624.227 1081.45 Q621.912 1078.67 621.912 1073.32 M632.629 1057 L632.629 1057 Z" fill="#000000" fill-rule="nonzero" fill-opacity="1" /><path clip-path="url(#clip420)" d="M662.236 1069.09 L662.236 1071.33 Q661.101 1070.82 659.875 1070.57 Q658.671 1070.31 657.351 1070.31 Q655.338 1070.31 654.342 1070.85 Q653.347 1071.4 653.347 1072.49 Q653.347 1073.32 654.064 1073.79 Q654.782 1074.27 656.935 1074.69 L657.861 1074.87 Q660.754 1075.43 661.912 1076.4 Q663.115 1077.4 663.115 1079.18 Q663.115 1081.19 661.31 1082.37 Q659.527 1083.56 656.379 1083.56 Q655.06 1083.56 653.625 1083.32 Q652.213 1083.09 650.639 1082.65 L650.639 1080.18 Q652.12 1080.87 653.578 1081.22 Q655.014 1081.56 656.426 1081.56 Q658.324 1081.56 659.342 1080.99 Q660.361 1080.41 660.361 1079.37 Q660.361 1078.39 659.62 1077.86 Q658.972 1077.4 656.402 1076.87 L655.476 1076.68 Q652.976 1076.19 651.865 1075.25 Q650.754 1074.27 650.754 1072.58 Q650.754 1070.55 652.398 1069.44 Q654.018 1068.3 657.027 1068.3 Q658.509 1068.3 659.828 1068.51 Q661.148 1068.69 662.236 1069.09 Z" fill="#000000" fill-rule="nonzero" fill-opacity="1" /><path clip-path="url(#clip420)" d="M695.523 1064.27 Q693.671 1064.27 692.398 1065.57 Q691.124 1066.84 691.124 1068.69 Q691.124 1070.52 692.398 1071.8 Q693.671 1073.05 695.523 1073.05 Q697.374 1073.05 698.648 1071.8 Q699.921 1070.52 699.921 1068.69 Q699.921 1066.87 698.624 1065.57 Q697.351 1064.27 695.523 1064.27 M695.523 1061.29 Q697.004 1061.29 698.37 1061.87 Q699.736 1062.42 700.731 1063.49 Q701.796 1064.53 702.328 1065.85 Q702.86 1067.17 702.86 1068.69 Q702.86 1071.75 700.708 1073.88 Q698.578 1075.99 695.476 1075.99 Q692.351 1075.99 690.268 1073.9 Q688.185 1071.82 688.185 1068.69 Q688.185 1065.59 690.314 1063.44 Q692.444 1061.29 695.523 1061.29 Z" fill="#000000" fill-rule="nonzero" fill-opacity="1" /><path clip-path="url(#clip420)" d="M729.458 1073.32 L729.458 1057.63 L733.717 1057.63 L733.717 1073.16 Q733.717 1076.84 735.152 1078.69 Q736.587 1080.52 739.458 1080.52 Q742.907 1080.52 744.897 1078.32 Q746.911 1076.12 746.911 1072.33 L746.911 1057.63 L751.17 1057.63 L751.17 1083.56 L746.911 1083.56 L746.911 1079.57 Q745.36 1081.93 743.3 1083.09 Q741.263 1084.23 738.555 1084.23 Q734.087 1084.23 731.772 1081.45 Q729.458 1078.67 729.458 1073.32 M740.175 1057 L740.175 1057 Z" fill="#000000" fill-rule="nonzero" fill-opacity="1" /><path clip-path="url(#clip420)" d="M769.203 1066.91 L769.203 1074.13 L777.328 1074.13 L777.328 1076.33 L769.203 1076.33 L769.203 1083.56 L766.772 1083.56 L766.772 1076.33 L758.647 1076.33 L758.647 1074.13 L766.772 1074.13 L766.772 1066.91 L769.203 1066.91 Z" fill="#000000" fill-rule="nonzero" fill-opacity="1" /><path clip-path="url(#clip420)" d="M343.483 1138.85 L483.665 1138.85 L483.665 1097.38 L343.483 1097.38 L343.483 1138.85  Z" fill="#9acd32" fill-rule="evenodd" fill-opacity="0.35"/>
<polyline clip-path="url(#clip420)" style="stroke:#000000; stroke-linecap:round; stroke-linejoin:round; stroke-width:4; stroke-opacity:0; fill:none" points="343.483,1138.85 483.665,1138.85 483.665,1097.38 343.483,1097.38 343.483,1138.85 "/>
<path clip-path="url(#clip420)" d="M507.028 1125.16 L507.028 1109.47 L511.287 1109.47 L511.287 1125 Q511.287 1128.68 512.723 1130.53 Q514.158 1132.36 517.028 1132.36 Q520.477 1132.36 522.468 1130.16 Q524.482 1127.96 524.482 1124.17 L524.482 1109.47 L528.741 1109.47 L528.741 1135.4 L524.482 1135.4 L524.482 1131.41 Q522.931 1133.77 520.871 1134.93 Q518.834 1136.07 516.125 1136.07 Q511.658 1136.07 509.343 1133.29 Q507.028 1130.51 507.028 1125.16 M517.746 1108.84 L517.746 1108.84 Z" fill="#000000" fill-rule="nonzero" fill-opacity="1" /><path clip-path="url(#clip420)" d="M536.218 1125.97 L554.898 1125.97 L554.898 1128.17 L536.218 1128.17 L536.218 1125.97 Z" fill="#000000" fill-rule="nonzero" fill-opacity="1" /><path clip-path="url(#clip420)" d="M587.977 1116.11 Q586.125 1116.11 584.852 1117.41 Q583.579 1118.68 583.579 1120.53 Q583.579 1122.36 584.852 1123.64 Q586.125 1124.89 587.977 1124.89 Q589.829 1124.89 591.102 1123.64 Q592.375 1122.36 592.375 1120.53 Q592.375 1118.71 591.079 1117.41 Q589.806 1116.11 587.977 1116.11 M587.977 1113.13 Q589.458 1113.13 590.824 1113.71 Q592.19 1114.26 593.185 1115.33 Q594.25 1116.37 594.782 1117.69 Q595.315 1119.01 595.315 1120.53 Q595.315 1123.59 593.162 1125.72 Q591.032 1127.83 587.931 1127.83 Q584.806 1127.83 582.722 1125.74 Q580.639 1123.66 580.639 1120.53 Q580.639 1117.43 582.769 1115.28 Q584.898 1113.13 587.977 1113.13 Z" fill="#000000" fill-rule="nonzero" fill-opacity="1" /><path clip-path="url(#clip420)" d="M621.912 1125.16 L621.912 1109.47 L626.171 1109.47 L626.171 1125 Q626.171 1128.68 627.606 1130.53 Q629.041 1132.36 631.912 1132.36 Q635.361 1132.36 637.352 1130.16 Q639.365 1127.96 639.365 1124.17 L639.365 1109.47 L643.625 1109.47 L643.625 1135.4 L639.365 1135.4 L639.365 1131.41 Q637.815 1133.77 635.754 1134.93 Q633.717 1136.07 631.009 1136.07 Q626.541 1136.07 624.227 1133.29 Q621.912 1130.51 621.912 1125.16 M632.629 1108.84 L632.629 1108.84 Z" fill="#000000" fill-rule="nonzero" fill-opacity="1" /><path clip-path="url(#clip420)" d="M661.657 1118.75 L661.657 1125.97 L669.782 1125.97 L669.782 1128.17 L661.657 1128.17 L661.657 1135.4 L659.226 1135.4 L659.226 1128.17 L651.102 1128.17 L651.102 1125.97 L659.226 1125.97 L659.226 1118.75 L661.657 1118.75 Z" fill="#000000" fill-rule="nonzero" fill-opacity="1" /><path clip-path="url(#clip420)" d="M343.483 1190.69 L483.665 1190.69 L483.665 1149.22 L343.483 1149.22 L343.483 1190.69  Z" fill="#ff0000" fill-rule="evenodd" fill-opacity="0.35"/>
<polyline clip-path="url(#clip420)" style="stroke:#000000; stroke-linecap:round; stroke-linejoin:round; stroke-width:4; stroke-opacity:0; fill:none" points="343.483,1190.69 483.665,1190.69 483.665,1149.22 343.483,1149.22 343.483,1190.69 "/>
<path clip-path="url(#clip420)" d="M507.028 1177 L507.028 1161.31 L511.287 1161.31 L511.287 1176.84 Q511.287 1180.52 512.723 1182.37 Q514.158 1184.2 517.028 1184.2 Q520.477 1184.2 522.468 1182 Q524.482 1179.8 524.482 1176.01 L524.482 1161.31 L528.741 1161.31 L528.741 1187.24 L524.482 1187.24 L524.482 1183.25 Q522.931 1185.61 520.871 1186.77 Q518.834 1187.91 516.125 1187.91 Q511.658 1187.91 509.343 1185.13 Q507.028 1182.35 507.028 1177 M517.746 1160.68 L517.746 1160.68 Z" fill="#000000" fill-rule="nonzero" fill-opacity="1" /><path clip-path="url(#clip420)" d="M546.773 1170.59 L546.773 1177.81 L554.898 1177.81 L554.898 1180.01 L546.773 1180.01 L546.773 1187.24 L544.343 1187.24 L544.343 1180.01 L536.218 1180.01 L536.218 1177.81 L544.343 1177.81 L544.343 1170.59 L546.773 1170.59 Z" fill="#000000" fill-rule="nonzero" fill-opacity="1" /><polyline clip-path="url(#clip420)" style="stroke:#808080; stroke-linecap:round; stroke-linejoin:round; stroke-width:12; stroke-opacity:1; fill:none" points="343.483,1221.8 483.665,1221.8 "/>
<path clip-path="url(#clip420)" d="M525.94 1217.08 L525.94 1203.06 L530.199 1203.06 L530.199 1239.08 L525.94 1239.08 L525.94 1235.19 Q524.598 1237.5 522.537 1238.64 Q520.5 1239.75 517.63 1239.75 Q512.931 1239.75 509.968 1236 Q507.028 1232.25 507.028 1226.14 Q507.028 1220.02 509.968 1216.27 Q512.931 1212.52 517.63 1212.52 Q520.5 1212.52 522.537 1213.66 Q524.598 1214.77 525.94 1217.08 M511.426 1226.14 Q511.426 1230.83 513.348 1233.52 Q515.292 1236.18 518.672 1236.18 Q522.051 1236.18 523.996 1233.52 Q525.94 1230.83 525.94 1226.14 Q525.94 1221.44 523.996 1218.77 Q522.051 1216.09 518.672 1216.09 Q515.292 1216.09 513.348 1218.77 Q511.426 1221.44 511.426 1226.14 Z" fill="#000000" fill-rule="nonzero" fill-opacity="1" /><path clip-path="url(#clip420)" d="M538.972 1213.15 L543.232 1213.15 L543.232 1239.08 L538.972 1239.08 L538.972 1213.15 M538.972 1203.06 L543.232 1203.06 L543.232 1208.45 L538.972 1208.45 L538.972 1203.06 Z" fill="#000000" fill-rule="nonzero" fill-opacity="1" /><path clip-path="url(#clip420)" d="M568.671 1213.91 L568.671 1217.94 Q566.866 1217.02 564.921 1216.55 Q562.977 1216.09 560.894 1216.09 Q557.722 1216.09 556.125 1217.06 Q554.551 1218.03 554.551 1219.98 Q554.551 1221.46 555.685 1222.32 Q556.82 1223.15 560.246 1223.91 L561.704 1224.24 Q566.241 1225.21 568.139 1226.99 Q570.06 1228.75 570.06 1231.92 Q570.06 1235.53 567.19 1237.64 Q564.343 1239.75 559.343 1239.75 Q557.259 1239.75 554.991 1239.33 Q552.746 1238.94 550.246 1238.13 L550.246 1233.73 Q552.607 1234.95 554.898 1235.58 Q557.19 1236.18 559.435 1236.18 Q562.445 1236.18 564.065 1235.16 Q565.685 1234.12 565.685 1232.25 Q565.685 1230.51 564.505 1229.58 Q563.347 1228.66 559.389 1227.8 L557.908 1227.46 Q553.949 1226.62 552.19 1224.91 Q550.431 1223.17 550.431 1220.16 Q550.431 1216.51 553.023 1214.52 Q555.616 1212.52 560.384 1212.52 Q562.745 1212.52 564.829 1212.87 Q566.912 1213.22 568.671 1213.91 Z" fill="#000000" fill-rule="nonzero" fill-opacity="1" /><path clip-path="url(#clip420)" d="M580.963 1235.19 L580.963 1248.94 L576.681 1248.94 L576.681 1213.15 L580.963 1213.15 L580.963 1217.08 Q582.306 1214.77 584.343 1213.66 Q586.403 1212.52 589.25 1212.52 Q593.972 1212.52 596.912 1216.27 Q599.875 1220.02 599.875 1226.14 Q599.875 1232.25 596.912 1236 Q593.972 1239.75 589.25 1239.75 Q586.403 1239.75 584.343 1238.64 Q582.306 1237.5 580.963 1235.19 M595.454 1226.14 Q595.454 1221.44 593.509 1218.77 Q591.588 1216.09 588.208 1216.09 Q584.829 1216.09 582.884 1218.77 Q580.963 1221.44 580.963 1226.14 Q580.963 1230.83 582.884 1233.52 Q584.829 1236.18 588.208 1236.18 Q591.588 1236.18 593.509 1233.52 Q595.454 1230.83 595.454 1226.14 Z" fill="#000000" fill-rule="nonzero" fill-opacity="1" /><path clip-path="url(#clip420)" d="M629.111 1225.05 L629.111 1227.13 L609.528 1227.13 Q609.805 1231.53 612.167 1233.84 Q614.551 1236.14 618.787 1236.14 Q621.241 1236.14 623.532 1235.53 Q625.847 1234.93 628.116 1233.73 L628.116 1237.76 Q625.824 1238.73 623.416 1239.24 Q621.009 1239.75 618.532 1239.75 Q612.329 1239.75 608.694 1236.14 Q605.083 1232.52 605.083 1226.37 Q605.083 1220 608.509 1216.27 Q611.958 1212.52 617.791 1212.52 Q623.023 1212.52 626.055 1215.9 Q629.111 1219.26 629.111 1225.05 M624.852 1223.8 Q624.805 1220.3 622.884 1218.22 Q620.986 1216.14 617.838 1216.14 Q614.273 1216.14 612.12 1218.15 Q609.991 1220.16 609.667 1223.82 L624.852 1223.8 Z" fill="#000000" fill-rule="nonzero" fill-opacity="1" /><path clip-path="url(#clip420)" d="M651.125 1217.13 Q650.407 1216.71 649.551 1216.53 Q648.717 1216.32 647.699 1216.32 Q644.088 1216.32 642.143 1218.68 Q640.222 1221.02 640.222 1225.42 L640.222 1239.08 L635.94 1239.08 L635.94 1213.15 L640.222 1213.15 L640.222 1217.18 Q641.565 1214.82 643.717 1213.68 Q645.87 1212.52 648.949 1212.52 Q649.389 1212.52 649.921 1212.59 Q650.453 1212.64 651.102 1212.76 L651.125 1217.13 Z" fill="#000000" fill-rule="nonzero" fill-opacity="1" /><path clip-path="url(#clip420)" d="M672.12 1213.91 L672.12 1217.94 Q670.314 1217.02 668.37 1216.55 Q666.425 1216.09 664.342 1216.09 Q661.171 1216.09 659.574 1217.06 Q658 1218.03 658 1219.98 Q658 1221.46 659.134 1222.32 Q660.268 1223.15 663.694 1223.91 L665.152 1224.24 Q669.689 1225.21 671.588 1226.99 Q673.509 1228.75 673.509 1231.92 Q673.509 1235.53 670.638 1237.64 Q667.791 1239.75 662.791 1239.75 Q660.708 1239.75 658.439 1239.33 Q656.194 1238.94 653.694 1238.13 L653.694 1233.73 Q656.055 1234.95 658.347 1235.58 Q660.638 1236.18 662.884 1236.18 Q665.893 1236.18 667.513 1235.16 Q669.134 1234.12 669.134 1232.25 Q669.134 1230.51 667.953 1229.58 Q666.796 1228.66 662.838 1227.8 L661.356 1227.46 Q657.398 1226.62 655.639 1224.91 Q653.879 1223.17 653.879 1220.16 Q653.879 1216.51 656.472 1214.52 Q659.064 1212.52 663.833 1212.52 Q666.194 1212.52 668.277 1212.87 Q670.361 1213.22 672.12 1213.91 Z" fill="#000000" fill-rule="nonzero" fill-opacity="1" /><path clip-path="url(#clip420)" d="M680.291 1213.15 L684.55 1213.15 L684.55 1239.08 L680.291 1239.08 L680.291 1213.15 M680.291 1203.06 L684.55 1203.06 L684.55 1208.45 L680.291 1208.45 L680.291 1203.06 Z" fill="#000000" fill-rule="nonzero" fill-opacity="1" /><path clip-path="url(#clip420)" d="M705.245 1226.04 Q700.083 1226.04 698.092 1227.22 Q696.101 1228.4 696.101 1231.25 Q696.101 1233.52 697.583 1234.86 Q699.087 1236.18 701.657 1236.18 Q705.198 1236.18 707.328 1233.68 Q709.481 1231.16 709.481 1226.99 L709.481 1226.04 L705.245 1226.04 M713.74 1224.28 L713.74 1239.08 L709.481 1239.08 L709.481 1235.14 Q708.022 1237.5 705.847 1238.64 Q703.671 1239.75 700.523 1239.75 Q696.541 1239.75 694.18 1237.52 Q691.842 1235.28 691.842 1231.53 Q691.842 1227.15 694.759 1224.93 Q697.698 1222.71 703.509 1222.71 L709.481 1222.71 L709.481 1222.29 Q709.481 1219.35 707.536 1217.76 Q705.615 1216.14 702.12 1216.14 Q699.898 1216.14 697.791 1216.67 Q695.685 1217.2 693.74 1218.27 L693.74 1214.33 Q696.078 1213.43 698.277 1212.99 Q700.476 1212.52 702.56 1212.52 Q708.185 1212.52 710.962 1215.44 Q713.74 1218.36 713.74 1224.28 Z" fill="#000000" fill-rule="nonzero" fill-opacity="1" /><path clip-path="url(#clip420)" d="M722.513 1203.06 L726.772 1203.06 L726.772 1239.08 L722.513 1239.08 L722.513 1203.06 Z" fill="#000000" fill-rule="nonzero" fill-opacity="1" /><path clip-path="url(#clip420)" d="M750.754 1203.06 L755.013 1203.06 L755.013 1239.08 L750.754 1239.08 L750.754 1203.06 Z" fill="#000000" fill-rule="nonzero" fill-opacity="1" /><path clip-path="url(#clip420)" d="M773.971 1216.14 Q770.545 1216.14 768.555 1218.82 Q766.564 1221.48 766.564 1226.14 Q766.564 1230.79 768.531 1233.47 Q770.522 1236.14 773.971 1236.14 Q777.374 1236.14 779.365 1233.45 Q781.355 1230.77 781.355 1226.14 Q781.355 1221.53 779.365 1218.84 Q777.374 1216.14 773.971 1216.14 M773.971 1212.52 Q779.527 1212.52 782.698 1216.14 Q785.869 1219.75 785.869 1226.14 Q785.869 1232.5 782.698 1236.14 Q779.527 1239.75 773.971 1239.75 Q768.393 1239.75 765.221 1236.14 Q762.073 1232.5 762.073 1226.14 Q762.073 1219.75 765.221 1216.14 Q768.393 1212.52 773.971 1212.52 Z" fill="#000000" fill-rule="nonzero" fill-opacity="1" /><path clip-path="url(#clip420)" d="M811.587 1214.14 L811.587 1218.13 Q809.781 1217.13 807.953 1216.64 Q806.147 1216.14 804.295 1216.14 Q800.152 1216.14 797.86 1218.77 Q795.568 1221.39 795.568 1226.14 Q795.568 1230.88 797.86 1233.52 Q800.152 1236.14 804.295 1236.14 Q806.147 1236.14 807.953 1235.65 Q809.781 1235.14 811.587 1234.14 L811.587 1238.08 Q809.804 1238.91 807.883 1239.33 Q805.985 1239.75 803.832 1239.75 Q797.976 1239.75 794.527 1236.07 Q791.078 1232.39 791.078 1226.14 Q791.078 1219.79 794.55 1216.16 Q798.045 1212.52 804.11 1212.52 Q806.078 1212.52 807.953 1212.94 Q809.828 1213.33 811.587 1214.14 Z" fill="#000000" fill-rule="nonzero" fill-opacity="1" /><path clip-path="url(#clip420)" d="M818.554 1228.84 L818.554 1213.15 L822.814 1213.15 L822.814 1228.68 Q822.814 1232.36 824.249 1234.21 Q825.684 1236.04 828.554 1236.04 Q832.003 1236.04 833.994 1233.84 Q836.008 1231.64 836.008 1227.85 L836.008 1213.15 L840.267 1213.15 L840.267 1239.08 L836.008 1239.08 L836.008 1235.09 Q834.457 1237.45 832.397 1238.61 Q830.36 1239.75 827.651 1239.75 Q823.184 1239.75 820.869 1236.97 Q818.554 1234.19 818.554 1228.84 M829.272 1212.52 L829.272 1212.52 Z" fill="#000000" fill-rule="nonzero" fill-opacity="1" /><path clip-path="url(#clip420)" d="M865.568 1213.91 L865.568 1217.94 Q863.762 1217.02 861.818 1216.55 Q859.874 1216.09 857.79 1216.09 Q854.619 1216.09 853.022 1217.06 Q851.448 1218.03 851.448 1219.98 Q851.448 1221.46 852.582 1222.32 Q853.716 1223.15 857.142 1223.91 L858.6 1224.24 Q863.137 1225.21 865.036 1226.99 Q866.957 1228.75 866.957 1231.92 Q866.957 1235.53 864.086 1237.64 Q861.239 1239.75 856.239 1239.75 Q854.156 1239.75 851.887 1239.33 Q849.642 1238.94 847.142 1238.13 L847.142 1233.73 Q849.503 1234.95 851.795 1235.58 Q854.087 1236.18 856.332 1236.18 Q859.341 1236.18 860.961 1235.16 Q862.582 1234.12 862.582 1232.25 Q862.582 1230.51 861.401 1229.58 Q860.244 1228.66 856.286 1227.8 L854.804 1227.46 Q850.846 1226.62 849.087 1224.91 Q847.327 1223.17 847.327 1220.16 Q847.327 1216.51 849.92 1214.52 Q852.512 1212.52 857.281 1212.52 Q859.642 1212.52 861.725 1212.87 Q863.809 1213.22 865.568 1213.91 Z" fill="#000000" fill-rule="nonzero" fill-opacity="1" /><polyline clip-path="url(#clip420)" style="stroke:#ffd700; stroke-linecap:round; stroke-linejoin:round; stroke-width:12; stroke-opacity:1; fill:none" points="343.483,1273.64 483.665,1273.64 "/>
<path clip-path="url(#clip420)" d="M525.454 1265.75 L525.454 1269.78 Q523.648 1268.86 521.704 1268.39 Q519.76 1267.93 517.676 1267.93 Q514.505 1267.93 512.908 1268.9 Q511.334 1269.87 511.334 1271.82 Q511.334 1273.3 512.468 1274.16 Q513.602 1274.99 517.028 1275.75 L518.486 1276.08 Q523.023 1277.05 524.922 1278.83 Q526.843 1280.59 526.843 1283.76 Q526.843 1287.37 523.973 1289.48 Q521.125 1291.59 516.125 1291.59 Q514.042 1291.59 511.774 1291.17 Q509.528 1290.78 507.028 1289.97 L507.028 1285.57 Q509.389 1286.79 511.681 1287.42 Q513.973 1288.02 516.218 1288.02 Q519.227 1288.02 520.848 1287 Q522.468 1285.96 522.468 1284.09 Q522.468 1282.35 521.287 1281.42 Q520.13 1280.5 516.172 1279.64 L514.69 1279.3 Q510.732 1278.46 508.973 1276.75 Q507.213 1275.01 507.213 1272 Q507.213 1268.35 509.806 1266.36 Q512.399 1264.36 517.167 1264.36 Q519.528 1264.36 521.611 1264.71 Q523.695 1265.06 525.454 1265.75 Z" fill="#000000" fill-rule="nonzero" fill-opacity="1" /><path clip-path="url(#clip420)" d="M531.148 1264.99 L535.408 1264.99 L540.732 1285.22 L546.033 1264.99 L551.056 1264.99 L556.38 1285.22 L561.681 1264.99 L565.94 1264.99 L559.158 1290.92 L554.134 1290.92 L548.556 1269.67 L542.954 1290.92 L537.931 1290.92 L531.148 1264.99 Z" fill="#000000" fill-rule="nonzero" fill-opacity="1" /><path clip-path="url(#clip420)" d="M572.398 1264.99 L576.657 1264.99 L576.657 1290.92 L572.398 1290.92 L572.398 1264.99 M572.398 1254.9 L576.657 1254.9 L576.657 1260.29 L572.398 1260.29 L572.398 1254.9 Z" fill="#000000" fill-rule="nonzero" fill-opacity="1" /><path clip-path="url(#clip420)" d="M589.782 1257.63 L589.782 1264.99 L598.555 1264.99 L598.555 1268.3 L589.782 1268.3 L589.782 1282.37 Q589.782 1285.54 590.639 1286.45 Q591.518 1287.35 594.181 1287.35 L598.555 1287.35 L598.555 1290.92 L594.181 1290.92 Q589.25 1290.92 587.375 1289.09 Q585.5 1287.23 585.5 1282.37 L585.5 1268.3 L582.375 1268.3 L582.375 1264.99 L585.5 1264.99 L585.5 1257.63 L589.782 1257.63 Z" fill="#000000" fill-rule="nonzero" fill-opacity="1" /><path clip-path="url(#clip420)" d="M622.815 1265.98 L622.815 1269.97 Q621.009 1268.97 619.18 1268.48 Q617.375 1267.98 615.523 1267.98 Q611.379 1267.98 609.088 1270.61 Q606.796 1273.23 606.796 1277.98 Q606.796 1282.72 609.088 1285.36 Q611.379 1287.98 615.523 1287.98 Q617.375 1287.98 619.18 1287.49 Q621.009 1286.98 622.815 1285.98 L622.815 1289.92 Q621.032 1290.75 619.111 1291.17 Q617.213 1291.59 615.06 1291.59 Q609.204 1291.59 605.755 1287.91 Q602.305 1284.23 602.305 1277.98 Q602.305 1271.63 605.778 1268 Q609.273 1264.36 615.338 1264.36 Q617.305 1264.36 619.18 1264.78 Q621.055 1265.17 622.815 1265.98 Z" fill="#000000" fill-rule="nonzero" fill-opacity="1" /><path clip-path="url(#clip420)" d="M651.773 1275.27 L651.773 1290.92 L647.514 1290.92 L647.514 1275.41 Q647.514 1271.73 646.078 1269.9 Q644.643 1268.07 641.773 1268.07 Q638.324 1268.07 636.333 1270.27 Q634.342 1272.47 634.342 1276.26 L634.342 1290.92 L630.06 1290.92 L630.06 1254.9 L634.342 1254.9 L634.342 1269.02 Q635.87 1266.68 637.93 1265.52 Q640.014 1264.36 642.722 1264.36 Q647.189 1264.36 649.481 1267.14 Q651.773 1269.9 651.773 1275.27 Z" fill="#000000" fill-rule="nonzero" fill-opacity="1" /><path clip-path="url(#clip420)" d="M660.268 1264.99 L664.527 1264.99 L664.527 1290.92 L660.268 1290.92 L660.268 1264.99 M660.268 1254.9 L664.527 1254.9 L664.527 1260.29 L660.268 1260.29 L660.268 1254.9 Z" fill="#000000" fill-rule="nonzero" fill-opacity="1" /><path clip-path="url(#clip420)" d="M694.99 1275.27 L694.99 1290.92 L690.731 1290.92 L690.731 1275.41 Q690.731 1271.73 689.296 1269.9 Q687.861 1268.07 684.99 1268.07 Q681.541 1268.07 679.55 1270.27 Q677.56 1272.47 677.56 1276.26 L677.56 1290.92 L673.277 1290.92 L673.277 1264.99 L677.56 1264.99 L677.56 1269.02 Q679.087 1266.68 681.148 1265.52 Q683.231 1264.36 685.939 1264.36 Q690.407 1264.36 692.699 1267.14 Q694.99 1269.9 694.99 1275.27 Z" fill="#000000" fill-rule="nonzero" fill-opacity="1" /><path clip-path="url(#clip420)" d="M720.546 1277.65 Q720.546 1273.02 718.624 1270.48 Q716.726 1267.93 713.277 1267.93 Q709.851 1267.93 707.93 1270.48 Q706.032 1273.02 706.032 1277.65 Q706.032 1282.26 707.93 1284.8 Q709.851 1287.35 713.277 1287.35 Q716.726 1287.35 718.624 1284.8 Q720.546 1282.26 720.546 1277.65 M724.805 1287.7 Q724.805 1294.32 721.865 1297.54 Q718.925 1300.78 712.86 1300.78 Q710.615 1300.78 708.624 1300.43 Q706.634 1300.11 704.759 1299.41 L704.759 1295.27 Q706.634 1296.29 708.462 1296.77 Q710.291 1297.26 712.189 1297.26 Q716.379 1297.26 718.462 1295.06 Q720.546 1292.88 720.546 1288.46 L720.546 1286.36 Q719.226 1288.65 717.166 1289.78 Q715.106 1290.92 712.235 1290.92 Q707.467 1290.92 704.55 1287.28 Q701.634 1283.65 701.634 1277.65 Q701.634 1271.63 704.55 1268 Q707.467 1264.36 712.235 1264.36 Q715.106 1264.36 717.166 1265.5 Q719.226 1266.63 720.546 1268.92 L720.546 1264.99 L724.805 1264.99 L724.805 1287.7 Z" fill="#000000" fill-rule="nonzero" fill-opacity="1" /><path clip-path="url(#clip420)" d="M748.647 1254.9 L752.907 1254.9 L752.907 1290.92 L748.647 1290.92 L748.647 1254.9 Z" fill="#000000" fill-rule="nonzero" fill-opacity="1" /><path clip-path="url(#clip420)" d="M771.865 1267.98 Q768.439 1267.98 766.448 1270.66 Q764.457 1273.32 764.457 1277.98 Q764.457 1282.63 766.425 1285.31 Q768.416 1287.98 771.865 1287.98 Q775.268 1287.98 777.258 1285.29 Q779.249 1282.61 779.249 1277.98 Q779.249 1273.37 777.258 1270.68 Q775.268 1267.98 771.865 1267.98 M771.865 1264.36 Q777.42 1264.36 780.592 1267.98 Q783.763 1271.59 783.763 1277.98 Q783.763 1284.34 780.592 1287.98 Q777.42 1291.59 771.865 1291.59 Q766.286 1291.59 763.115 1287.98 Q759.967 1284.34 759.967 1277.98 Q759.967 1271.59 763.115 1267.98 Q766.286 1264.36 771.865 1264.36 Z" fill="#000000" fill-rule="nonzero" fill-opacity="1" /><path clip-path="url(#clip420)" d="M809.48 1265.98 L809.48 1269.97 Q807.675 1268.97 805.846 1268.48 Q804.04 1267.98 802.189 1267.98 Q798.045 1267.98 795.754 1270.61 Q793.462 1273.23 793.462 1277.98 Q793.462 1282.72 795.754 1285.36 Q798.045 1287.98 802.189 1287.98 Q804.04 1287.98 805.846 1287.49 Q807.675 1286.98 809.48 1285.98 L809.48 1289.92 Q807.698 1290.75 805.777 1291.17 Q803.878 1291.59 801.726 1291.59 Q795.869 1291.59 792.42 1287.91 Q788.971 1284.23 788.971 1277.98 Q788.971 1271.63 792.443 1268 Q795.939 1264.36 802.003 1264.36 Q803.971 1264.36 805.846 1264.78 Q807.721 1265.17 809.48 1265.98 Z" fill="#000000" fill-rule="nonzero" fill-opacity="1" /><path clip-path="url(#clip420)" d="M816.448 1280.68 L816.448 1264.99 L820.707 1264.99 L820.707 1280.52 Q820.707 1284.2 822.142 1286.05 Q823.577 1287.88 826.448 1287.88 Q829.897 1287.88 831.888 1285.68 Q833.901 1283.48 833.901 1279.69 L833.901 1264.99 L838.161 1264.99 L838.161 1290.92 L833.901 1290.92 L833.901 1286.93 Q832.351 1289.29 830.29 1290.45 Q828.253 1291.59 825.545 1291.59 Q821.077 1291.59 818.763 1288.81 Q816.448 1286.03 816.448 1280.68 M827.165 1264.36 L827.165 1264.36 Z" fill="#000000" fill-rule="nonzero" fill-opacity="1" /><path clip-path="url(#clip420)" d="M863.461 1265.75 L863.461 1269.78 Q861.656 1268.86 859.711 1268.39 Q857.767 1267.93 855.684 1267.93 Q852.512 1267.93 850.915 1268.9 Q849.341 1269.87 849.341 1271.82 Q849.341 1273.3 850.475 1274.16 Q851.61 1274.99 855.036 1275.75 L856.494 1276.08 Q861.031 1277.05 862.929 1278.83 Q864.85 1280.59 864.85 1283.76 Q864.85 1287.37 861.98 1289.48 Q859.133 1291.59 854.133 1291.59 Q852.05 1291.59 849.781 1291.17 Q847.536 1290.78 845.036 1289.97 L845.036 1285.57 Q847.397 1286.79 849.688 1287.42 Q851.98 1288.02 854.225 1288.02 Q857.235 1288.02 858.855 1287 Q860.475 1285.96 860.475 1284.09 Q860.475 1282.35 859.295 1281.42 Q858.137 1280.5 854.179 1279.64 L852.698 1279.3 Q848.739 1278.46 846.98 1276.75 Q845.221 1275.01 845.221 1272 Q845.221 1268.35 847.813 1266.36 Q850.406 1264.36 855.174 1264.36 Q857.536 1264.36 859.619 1264.71 Q861.702 1265.06 863.461 1265.75 Z" fill="#000000" fill-rule="nonzero" fill-opacity="1" /><polyline clip-path="url(#clip420)" style="stroke:#008000; stroke-linecap:round; stroke-linejoin:round; stroke-width:12; stroke-opacity:1; fill:none" points="343.483,1325.48 483.665,1325.48 "/>
<path clip-path="url(#clip420)" d="M507.028 1332.52 L507.028 1316.83 L511.287 1316.83 L511.287 1332.36 Q511.287 1336.04 512.723 1337.89 Q514.158 1339.72 517.028 1339.72 Q520.477 1339.72 522.468 1337.52 Q524.482 1335.32 524.482 1331.53 L524.482 1316.83 L528.741 1316.83 L528.741 1342.76 L524.482 1342.76 L524.482 1338.77 Q522.931 1341.13 520.871 1342.29 Q518.834 1343.43 516.125 1343.43 Q511.658 1343.43 509.343 1340.65 Q507.028 1337.87 507.028 1332.52 M517.746 1316.2 L517.746 1316.2 Z" fill="#000000" fill-rule="nonzero" fill-opacity="1" /><path clip-path="url(#clip420)" d="M547.352 1328.29 L547.352 1330.53 Q546.218 1330.02 544.991 1329.77 Q543.787 1329.51 542.468 1329.51 Q540.454 1329.51 539.459 1330.05 Q538.463 1330.6 538.463 1331.69 Q538.463 1332.52 539.181 1332.99 Q539.898 1333.47 542.051 1333.89 L542.977 1334.07 Q545.871 1334.63 547.028 1335.6 Q548.232 1336.6 548.232 1338.38 Q548.232 1340.39 546.426 1341.57 Q544.644 1342.76 541.496 1342.76 Q540.176 1342.76 538.741 1342.52 Q537.329 1342.29 535.755 1341.85 L535.755 1339.38 Q537.236 1340.07 538.695 1340.42 Q540.13 1340.76 541.542 1340.76 Q543.44 1340.76 544.459 1340.19 Q545.477 1339.61 545.477 1338.57 Q545.477 1337.59 544.736 1337.06 Q544.088 1336.6 541.519 1336.07 L540.593 1335.88 Q538.093 1335.39 536.982 1334.45 Q535.871 1333.47 535.871 1331.78 Q535.871 1329.75 537.514 1328.64 Q539.135 1327.5 542.144 1327.5 Q543.625 1327.5 544.945 1327.71 Q546.264 1327.89 547.352 1328.29 Z" fill="#000000" fill-rule="nonzero" fill-opacity="1" /></svg>
