<?xml version="1.0" encoding="utf-8"?>
<svg xmlns="http://www.w3.org/2000/svg" xmlns:xlink="http://www.w3.org/1999/xlink" width="600" height="400" viewBox="0 0 2400 1600">
<defs>
  <clipPath id="clip300">
    <rect x="0" y="0" width="2400" height="1600"/>
  </clipPath>
</defs>
<path clip-path="url(#clip300)" d="M0 1600 L2400 1600 L2400 0 L0 0  Z" fill="#ffffff" fill-rule="evenodd" fill-opacity="1"/>
<defs>
  <clipPath id="clip301">
    <rect x="480" y="0" width="1681" height="1600"/>
  </clipPath>
</defs>
<path clip-path="url(#clip300)" d="M202.227 1423.18 L2352.76 1423.18 L2352.76 47.2441 L202.227 47.2441  Z" fill="#ffffff" fill-rule="evenodd" fill-opacity="1"/>
<defs>
  <clipPath id="clip302">
    <rect x="202" y="47" width="2152" height="1377"/>
  </clipPath>
</defs>
<polyline clip-path="url(#clip302)" style="stroke:#000000; stroke-linecap:round; stroke-linejoin:round; stroke-width:2; stroke-opacity:0.1; fill:none" points="202.227,1423.18 202.227,47.2441 "/>
<polyline clip-path="url(#clip302)" style="stroke:#000000; stroke-linecap:round; stroke-linejoin:round; stroke-width:2; stroke-opacity:0.1; fill:none" points="632.333,1423.18 632.333,47.2441 "/>
<polyline clip-path="url(#clip302)" style="stroke:#000000; stroke-linecap:round; stroke-linejoin:round; stroke-width:2; stroke-opacity:0.1; fill:none" points="1062.44,1423.18 1062.44,47.2441 "/>
<polyline clip-path="url(#clip302)" style="stroke:#000000; stroke-linecap:round; stroke-linejoin:round; stroke-width:2; stroke-opacity:0.1; fill:none" points="1492.54,1423.18 1492.54,47.2441 "/>
<polyline clip-path="url(#clip302)" style="stroke:#000000; stroke-linecap:round; stroke-linejoin:round; stroke-width:2; stroke-opacity:0.1; fill:none" points="1922.65,1423.18 1922.65,47.2441 "/>
<polyline clip-path="url(#clip302)" style="stroke:#000000; stroke-linecap:round; stroke-linejoin:round; stroke-width:2; stroke-opacity:0.1; fill:none" points="202.227,1423.18 2352.76,1423.18 "/>
<polyline clip-path="url(#clip302)" style="stroke:#000000; stroke-linecap:round; stroke-linejoin:round; stroke-width:2; stroke-opacity:0.1; fill:none" points="202.227,1147.99 2352.76,1147.99 "/>
<polyline clip-path="url(#clip302)" style="stroke:#000000; stroke-linecap:round; stroke-linejoin:round; stroke-width:2; stroke-opacity:0.1; fill:none" points="202.227,872.806 2352.76,872.806 "/>
<polyline clip-path="url(#clip302)" style="stroke:#000000; stroke-linecap:round; stroke-linejoin:round; stroke-width:2; stroke-opacity:0.1; fill:none" points="202.227,597.618 2352.76,597.618 "/>
<polyline clip-path="url(#clip302)" style="stroke:#000000; stroke-linecap:round; stroke-linejoin:round; stroke-width:2; stroke-opacity:0.1; fill:none" points="202.227,322.431 2352.76,322.431 "/>
<polyline clip-path="url(#clip302)" style="stroke:#000000; stroke-linecap:round; stroke-linejoin:round; stroke-width:2; stroke-opacity:0.1; fill:none" points="202.227,47.2441 2352.76,47.2441 "/>
<polyline clip-path="url(#clip300)" style="stroke:#000000; stroke-linecap:round; stroke-linejoin:round; stroke-width:4; stroke-opacity:1; fill:none" points="202.227,1423.18 2352.76,1423.18 "/>
<polyline clip-path="url(#clip300)" style="stroke:#000000; stroke-linecap:round; stroke-linejoin:round; stroke-width:4; stroke-opacity:1; fill:none" points="202.227,1423.18 202.227,1404.28 "/>
<polyline clip-path="url(#clip300)" style="stroke:#000000; stroke-linecap:round; stroke-linejoin:round; stroke-width:4; stroke-opacity:1; fill:none" points="632.333,1423.18 632.333,1404.28 "/>
<polyline clip-path="url(#clip300)" style="stroke:#000000; stroke-linecap:round; stroke-linejoin:round; stroke-width:4; stroke-opacity:1; fill:none" points="1062.44,1423.18 1062.44,1404.28 "/>
<polyline clip-path="url(#clip300)" style="stroke:#000000; stroke-linecap:round; stroke-linejoin:round; stroke-width:4; stroke-opacity:1; fill:none" points="1492.54,1423.18 1492.54,1404.28 "/>
<polyline clip-path="url(#clip300)" style="stroke:#000000; stroke-linecap:round; stroke-linejoin:round; stroke-width:4; stroke-opacity:1; fill:none" points="1922.65,1423.18 1922.65,1404.28 "/>
<path clip-path="url(#clip300)" d="M164.531 1454.1 Q160.92 1454.1 159.091 1457.66 Q157.286 1461.2 157.286 1468.33 Q157.286 1475.44 159.091 1479.01 Q160.92 1482.55 164.531 1482.55 Q168.165 1482.55 169.971 1479.01 Q171.799 1475.44 171.799 1468.33 Q171.799 1461.2 169.971 1457.66 Q168.165 1454.1 164.531 1454.1 M164.531 1450.39 Q170.341 1450.39 173.397 1455 Q176.475 1459.58 176.475 1468.33 Q176.475 1477.06 173.397 1481.67 Q170.341 1486.25 164.531 1486.25 Q158.721 1486.25 155.642 1481.67 Q152.587 1477.06 152.587 1468.33 Q152.587 1459.58 155.642 1455 Q158.721 1450.39 164.531 1450.39 Z" fill="#000000" fill-rule="nonzero" fill-opacity="1" /><path clip-path="url(#clip300)" d="M184.693 1479.7 L189.577 1479.7 L189.577 1485.58 L184.693 1485.58 L184.693 1479.7 Z" fill="#000000" fill-rule="nonzero" fill-opacity="1" /><path clip-path="url(#clip300)" d="M209.762 1454.1 Q206.151 1454.1 204.322 1457.66 Q202.517 1461.2 202.517 1468.33 Q202.517 1475.44 204.322 1479.01 Q206.151 1482.55 209.762 1482.55 Q213.396 1482.55 215.202 1479.01 Q217.031 1475.44 217.031 1468.33 Q217.031 1461.2 215.202 1457.66 Q213.396 1454.1 209.762 1454.1 M209.762 1450.39 Q215.572 1450.39 218.628 1455 Q221.707 1459.58 221.707 1468.33 Q221.707 1477.06 218.628 1481.67 Q215.572 1486.25 209.762 1486.25 Q203.952 1486.25 200.873 1481.67 Q197.818 1477.06 197.818 1468.33 Q197.818 1459.58 200.873 1455 Q203.952 1450.39 209.762 1450.39 Z" fill="#000000" fill-rule="nonzero" fill-opacity="1" /><path clip-path="url(#clip300)" d="M239.924 1454.1 Q236.313 1454.1 234.484 1457.66 Q232.679 1461.2 232.679 1468.33 Q232.679 1475.44 234.484 1479.01 Q236.313 1482.55 239.924 1482.55 Q243.558 1482.55 245.364 1479.01 Q247.193 1475.44 247.193 1468.33 Q247.193 1461.2 245.364 1457.66 Q243.558 1454.1 239.924 1454.1 M239.924 1450.39 Q245.734 1450.39 248.79 1455 Q251.868 1459.58 251.868 1468.33 Q251.868 1477.06 248.79 1481.67 Q245.734 1486.25 239.924 1486.25 Q234.114 1486.25 231.035 1481.67 Q227.98 1477.06 227.98 1468.33 Q227.98 1459.58 231.035 1455 Q234.114 1450.39 239.924 1450.39 Z" fill="#000000" fill-rule="nonzero" fill-opacity="1" /><path clip-path="url(#clip300)" d="M595.134 1454.1 Q591.523 1454.1 589.694 1457.66 Q587.889 1461.2 587.889 1468.33 Q587.889 1475.44 589.694 1479.01 Q591.523 1482.55 595.134 1482.55 Q598.769 1482.55 600.574 1479.01 Q602.403 1475.44 602.403 1468.33 Q602.403 1461.2 600.574 1457.66 Q598.769 1454.1 595.134 1454.1 M595.134 1450.39 Q600.944 1450.39 604 1455 Q607.079 1459.58 607.079 1468.33 Q607.079 1477.06 604 1481.67 Q600.944 1486.25 595.134 1486.25 Q589.324 1486.25 586.245 1481.67 Q583.19 1477.06 583.19 1468.33 Q583.19 1459.58 586.245 1455 Q589.324 1450.39 595.134 1450.39 Z" fill="#000000" fill-rule="nonzero" fill-opacity="1" /><path clip-path="url(#clip300)" d="M615.296 1479.7 L620.18 1479.7 L620.18 1485.58 L615.296 1485.58 L615.296 1479.7 Z" fill="#000000" fill-rule="nonzero" fill-opacity="1" /><path clip-path="url(#clip300)" d="M640.366 1454.1 Q636.754 1454.1 634.926 1457.66 Q633.12 1461.2 633.12 1468.33 Q633.12 1475.44 634.926 1479.01 Q636.754 1482.55 640.366 1482.55 Q644 1482.55 645.805 1479.01 Q647.634 1475.44 647.634 1468.33 Q647.634 1461.2 645.805 1457.66 Q644 1454.1 640.366 1454.1 M640.366 1450.39 Q646.176 1450.39 649.231 1455 Q652.31 1459.58 652.31 1468.33 Q652.31 1477.06 649.231 1481.67 Q646.176 1486.25 640.366 1486.25 Q634.555 1486.25 631.477 1481.67 Q628.421 1477.06 628.421 1468.33 Q628.421 1459.58 631.477 1455 Q634.555 1450.39 640.366 1450.39 Z" fill="#000000" fill-rule="nonzero" fill-opacity="1" /><path clip-path="url(#clip300)" d="M660.574 1451.02 L678.93 1451.02 L678.93 1454.96 L664.856 1454.96 L664.856 1463.43 Q665.875 1463.08 666.893 1462.92 Q667.912 1462.73 668.93 1462.73 Q674.717 1462.73 678.097 1465.9 Q681.476 1469.08 681.476 1474.49 Q681.476 1480.07 678.004 1483.17 Q674.532 1486.25 668.213 1486.25 Q666.037 1486.25 663.768 1485.88 Q661.523 1485.51 659.115 1484.77 L659.115 1480.07 Q661.199 1481.2 663.421 1481.76 Q665.643 1482.32 668.12 1482.32 Q672.125 1482.32 674.463 1480.21 Q676.801 1478.1 676.801 1474.49 Q676.801 1470.88 674.463 1468.77 Q672.125 1466.67 668.12 1466.67 Q666.245 1466.67 664.37 1467.08 Q662.518 1467.5 660.574 1468.38 L660.574 1451.02 Z" fill="#000000" fill-rule="nonzero" fill-opacity="1" /><path clip-path="url(#clip300)" d="M1024.74 1454.1 Q1021.13 1454.1 1019.3 1457.66 Q1017.5 1461.2 1017.5 1468.33 Q1017.5 1475.44 1019.3 1479.01 Q1021.13 1482.55 1024.74 1482.55 Q1028.38 1482.55 1030.18 1479.01 Q1032.01 1475.44 1032.01 1468.33 Q1032.01 1461.2 1030.18 1457.66 Q1028.38 1454.1 1024.74 1454.1 M1024.74 1450.39 Q1030.55 1450.39 1033.61 1455 Q1036.69 1459.58 1036.69 1468.33 Q1036.69 1477.06 1033.61 1481.67 Q1030.55 1486.25 1024.74 1486.25 Q1018.93 1486.25 1015.85 1481.67 Q1012.8 1477.06 1012.8 1468.33 Q1012.8 1459.58 1015.85 1455 Q1018.93 1450.39 1024.74 1450.39 Z" fill="#000000" fill-rule="nonzero" fill-opacity="1" /><path clip-path="url(#clip300)" d="M1044.9 1479.7 L1049.79 1479.7 L1049.79 1485.58 L1044.9 1485.58 L1044.9 1479.7 Z" fill="#000000" fill-rule="nonzero" fill-opacity="1" /><path clip-path="url(#clip300)" d="M1060.78 1481.64 L1068.42 1481.64 L1068.42 1455.28 L1060.11 1456.95 L1060.11 1452.69 L1068.38 1451.02 L1073.05 1451.02 L1073.05 1481.64 L1080.69 1481.64 L1080.69 1485.58 L1060.78 1485.58 L1060.78 1481.64 Z" fill="#000000" fill-rule="nonzero" fill-opacity="1" /><path clip-path="url(#clip300)" d="M1100.14 1454.1 Q1096.52 1454.1 1094.7 1457.66 Q1092.89 1461.2 1092.89 1468.33 Q1092.89 1475.44 1094.7 1479.01 Q1096.52 1482.55 1100.14 1482.55 Q1103.77 1482.55 1105.58 1479.01 Q1107.4 1475.44 1107.4 1468.33 Q1107.4 1461.2 1105.58 1457.66 Q1103.77 1454.1 1100.14 1454.1 M1100.14 1450.39 Q1105.95 1450.39 1109 1455 Q1112.08 1459.58 1112.08 1468.33 Q1112.08 1477.06 1109 1481.67 Q1105.95 1486.25 1100.14 1486.25 Q1094.33 1486.25 1091.25 1481.67 Q1088.19 1477.06 1088.19 1468.33 Q1088.19 1459.58 1091.25 1455 Q1094.33 1450.39 1100.14 1450.39 Z" fill="#000000" fill-rule="nonzero" fill-opacity="1" /><path clip-path="url(#clip300)" d="M1455.35 1454.1 Q1451.73 1454.1 1449.91 1457.66 Q1448.1 1461.2 1448.1 1468.33 Q1448.1 1475.44 1449.91 1479.01 Q1451.73 1482.55 1455.35 1482.55 Q1458.98 1482.55 1460.79 1479.01 Q1462.61 1475.44 1462.61 1468.33 Q1462.61 1461.2 1460.79 1457.66 Q1458.98 1454.1 1455.35 1454.1 M1455.35 1450.39 Q1461.16 1450.39 1464.21 1455 Q1467.29 1459.58 1467.29 1468.33 Q1467.29 1477.06 1464.21 1481.67 Q1461.16 1486.25 1455.35 1486.25 Q1449.54 1486.25 1446.46 1481.67 Q1443.4 1477.06 1443.4 1468.33 Q1443.4 1459.58 1446.46 1455 Q1449.54 1450.39 1455.35 1450.39 Z" fill="#000000" fill-rule="nonzero" fill-opacity="1" /><path clip-path="url(#clip300)" d="M1475.51 1479.7 L1480.39 1479.7 L1480.39 1485.58 L1475.51 1485.58 L1475.51 1479.7 Z" fill="#000000" fill-rule="nonzero" fill-opacity="1" /><path clip-path="url(#clip300)" d="M1491.39 1481.64 L1499.03 1481.64 L1499.03 1455.28 L1490.72 1456.95 L1490.72 1452.69 L1498.98 1451.02 L1503.66 1451.02 L1503.66 1481.64 L1511.29 1481.64 L1511.29 1485.58 L1491.39 1485.58 L1491.39 1481.64 Z" fill="#000000" fill-rule="nonzero" fill-opacity="1" /><path clip-path="url(#clip300)" d="M1520.79 1451.02 L1539.14 1451.02 L1539.14 1454.96 L1525.07 1454.96 L1525.07 1463.43 Q1526.09 1463.08 1527.1 1462.92 Q1528.12 1462.73 1529.14 1462.73 Q1534.93 1462.73 1538.31 1465.9 Q1541.69 1469.08 1541.69 1474.49 Q1541.69 1480.07 1538.22 1483.17 Q1534.74 1486.25 1528.42 1486.25 Q1526.25 1486.25 1523.98 1485.88 Q1521.73 1485.51 1519.33 1484.77 L1519.33 1480.07 Q1521.41 1481.2 1523.63 1481.76 Q1525.85 1482.32 1528.33 1482.32 Q1532.34 1482.32 1534.67 1480.21 Q1537.01 1478.1 1537.01 1474.49 Q1537.01 1470.88 1534.67 1468.77 Q1532.34 1466.67 1528.33 1466.67 Q1526.46 1466.67 1524.58 1467.08 Q1522.73 1467.5 1520.79 1468.38 L1520.79 1451.02 Z" fill="#000000" fill-rule="nonzero" fill-opacity="1" /><path clip-path="url(#clip300)" d="M1884.95 1454.1 Q1881.34 1454.1 1879.51 1457.66 Q1877.71 1461.2 1877.71 1468.33 Q1877.71 1475.44 1879.51 1479.01 Q1881.34 1482.55 1884.95 1482.55 Q1888.59 1482.55 1890.39 1479.01 Q1892.22 1475.44 1892.22 1468.33 Q1892.22 1461.2 1890.39 1457.66 Q1888.59 1454.1 1884.95 1454.1 M1884.95 1450.39 Q1890.76 1450.39 1893.82 1455 Q1896.9 1459.58 1896.9 1468.33 Q1896.9 1477.06 1893.82 1481.67 Q1890.76 1486.25 1884.95 1486.25 Q1879.14 1486.25 1876.06 1481.67 Q1873.01 1477.06 1873.01 1468.33 Q1873.01 1459.58 1876.06 1455 Q1879.14 1450.39 1884.95 1450.39 Z" fill="#000000" fill-rule="nonzero" fill-opacity="1" /><path clip-path="url(#clip300)" d="M1905.12 1479.7 L1910 1479.7 L1910 1485.58 L1905.12 1485.58 L1905.12 1479.7 Z" fill="#000000" fill-rule="nonzero" fill-opacity="1" /><path clip-path="url(#clip300)" d="M1924.21 1481.64 L1940.53 1481.64 L1940.53 1485.58 L1918.59 1485.58 L1918.59 1481.64 Q1921.25 1478.89 1925.83 1474.26 Q1930.44 1469.61 1931.62 1468.27 Q1933.87 1465.74 1934.75 1464.01 Q1935.65 1462.25 1935.65 1460.56 Q1935.65 1457.8 1933.7 1456.07 Q1931.78 1454.33 1928.68 1454.33 Q1926.48 1454.33 1924.03 1455.09 Q1921.6 1455.86 1918.82 1457.41 L1918.82 1452.69 Q1921.64 1451.55 1924.1 1450.97 Q1926.55 1450.39 1928.59 1450.39 Q1933.96 1450.39 1937.15 1453.08 Q1940.35 1455.77 1940.35 1460.26 Q1940.35 1462.39 1939.54 1464.31 Q1938.75 1466.2 1936.64 1468.8 Q1936.06 1469.47 1932.96 1472.69 Q1929.86 1475.88 1924.21 1481.64 Z" fill="#000000" fill-rule="nonzero" fill-opacity="1" /><path clip-path="url(#clip300)" d="M1960.35 1454.1 Q1956.74 1454.1 1954.91 1457.66 Q1953.1 1461.2 1953.1 1468.33 Q1953.1 1475.44 1954.91 1479.01 Q1956.74 1482.55 1960.35 1482.55 Q1963.98 1482.55 1965.79 1479.01 Q1967.62 1475.44 1967.62 1468.33 Q1967.62 1461.2 1965.79 1457.66 Q1963.98 1454.1 1960.35 1454.1 M1960.35 1450.39 Q1966.16 1450.39 1969.21 1455 Q1972.29 1459.58 1972.29 1468.33 Q1972.29 1477.06 1969.21 1481.67 Q1966.16 1486.25 1960.35 1486.25 Q1954.54 1486.25 1951.46 1481.67 Q1948.4 1477.06 1948.4 1468.33 Q1948.4 1459.58 1951.46 1455 Q1954.54 1450.39 1960.35 1450.39 Z" fill="#000000" fill-rule="nonzero" fill-opacity="1" /><path clip-path="url(#clip300)" d="M1169.15 1522.27 L1169.15 1532.4 L1181.21 1532.4 L1181.21 1536.95 L1169.15 1536.95 L1169.15 1556.3 Q1169.15 1560.66 1170.33 1561.9 Q1171.53 1563.14 1175.19 1563.14 L1181.21 1563.14 L1181.21 1568.04 L1175.19 1568.04 Q1168.42 1568.04 1165.84 1565.53 Q1163.26 1562.98 1163.26 1556.3 L1163.26 1536.95 L1158.96 1536.95 L1158.96 1532.4 L1163.26 1532.4 L1163.26 1522.27 L1169.15 1522.27 Z" fill="#000000" fill-rule="nonzero" fill-opacity="1" /><path clip-path="url(#clip300)" d="M1188.91 1532.4 L1194.77 1532.4 L1194.77 1568.04 L1188.91 1568.04 L1188.91 1532.4 M1188.91 1518.52 L1194.77 1518.52 L1194.77 1525.93 L1188.91 1525.93 L1188.91 1518.52 Z" fill="#000000" fill-rule="nonzero" fill-opacity="1" /><path clip-path="url(#clip300)" d="M1234.78 1539.24 Q1236.97 1535.29 1240.03 1533.41 Q1243.09 1531.54 1247.22 1531.54 Q1252.79 1531.54 1255.82 1535.45 Q1258.84 1539.33 1258.84 1546.53 L1258.84 1568.04 L1252.95 1568.04 L1252.95 1546.72 Q1252.95 1541.59 1251.14 1539.11 Q1249.32 1536.63 1245.6 1536.63 Q1241.05 1536.63 1238.41 1539.65 Q1235.76 1542.68 1235.76 1547.9 L1235.76 1568.04 L1229.88 1568.04 L1229.88 1546.72 Q1229.88 1541.56 1228.06 1539.11 Q1226.25 1536.63 1222.46 1536.63 Q1217.97 1536.63 1215.33 1539.68 Q1212.69 1542.71 1212.69 1547.9 L1212.69 1568.04 L1206.8 1568.04 L1206.8 1532.4 L1212.69 1532.4 L1212.69 1537.93 Q1214.69 1534.66 1217.49 1533.1 Q1220.3 1531.54 1224.15 1531.54 Q1228.03 1531.54 1230.74 1533.51 Q1233.47 1535.48 1234.78 1539.24 Z" fill="#000000" fill-rule="nonzero" fill-opacity="1" /><path clip-path="url(#clip300)" d="M1301.01 1548.76 L1301.01 1551.62 L1274.09 1551.62 Q1274.47 1557.67 1277.71 1560.85 Q1280.99 1564 1286.82 1564 Q1290.19 1564 1293.34 1563.17 Q1296.53 1562.35 1299.64 1560.69 L1299.64 1566.23 Q1296.49 1567.57 1293.18 1568.27 Q1289.87 1568.97 1286.47 1568.97 Q1277.94 1568.97 1272.94 1564 Q1267.97 1559.04 1267.97 1550.57 Q1267.97 1541.82 1272.69 1536.69 Q1277.43 1531.54 1285.45 1531.54 Q1292.64 1531.54 1296.81 1536.18 Q1301.01 1540.8 1301.01 1548.76 M1295.16 1547.04 Q1295.09 1542.23 1292.45 1539.37 Q1289.84 1536.5 1285.51 1536.5 Q1280.61 1536.5 1277.65 1539.27 Q1274.72 1542.04 1274.28 1547.07 L1295.16 1547.04 Z" fill="#000000" fill-rule="nonzero" fill-opacity="1" /><path clip-path="url(#clip300)" d="M1345.41 1518.58 Q1341.15 1525.9 1339.08 1533.06 Q1337.01 1540.23 1337.01 1547.58 Q1337.01 1554.93 1339.08 1562.16 Q1341.18 1569.35 1345.41 1576.64 L1340.32 1576.64 Q1335.55 1569.16 1333.16 1561.93 Q1330.8 1554.71 1330.8 1547.58 Q1330.8 1540.48 1333.16 1533.29 Q1335.52 1526.09 1340.32 1518.58 L1345.41 1518.58 Z" fill="#000000" fill-rule="nonzero" fill-opacity="1" /><path clip-path="url(#clip300)" d="M1362.57 1522.27 L1362.57 1532.4 L1374.63 1532.4 L1374.63 1536.95 L1362.57 1536.95 L1362.57 1556.3 Q1362.57 1560.66 1363.75 1561.9 Q1364.96 1563.14 1368.62 1563.14 L1374.63 1563.14 L1374.63 1568.04 L1368.62 1568.04 Q1361.84 1568.04 1359.26 1565.53 Q1356.68 1562.98 1356.68 1556.3 L1356.68 1536.95 L1352.38 1536.95 L1352.38 1532.4 L1356.68 1532.4 L1356.68 1522.27 L1362.57 1522.27 Z" fill="#000000" fill-rule="nonzero" fill-opacity="1" /><path clip-path="url(#clip300)" d="M1381.41 1518.58 L1386.5 1518.58 Q1391.28 1526.09 1393.63 1533.29 Q1396.02 1540.48 1396.02 1547.58 Q1396.02 1554.71 1393.63 1561.93 Q1391.28 1569.16 1386.5 1576.64 L1381.41 1576.64 Q1385.65 1569.35 1387.71 1562.16 Q1389.81 1554.93 1389.81 1547.58 Q1389.81 1540.23 1387.71 1533.06 Q1385.65 1525.9 1381.41 1518.58 Z" fill="#000000" fill-rule="nonzero" fill-opacity="1" /><polyline clip-path="url(#clip300)" style="stroke:#000000; stroke-linecap:round; stroke-linejoin:round; stroke-width:4; stroke-opacity:1; fill:none" points="202.227,1423.18 202.227,47.2441 "/>
<polyline clip-path="url(#clip300)" style="stroke:#000000; stroke-linecap:round; stroke-linejoin:round; stroke-width:4; stroke-opacity:1; fill:none" points="202.227,1423.18 221.125,1423.18 "/>
<polyline clip-path="url(#clip300)" style="stroke:#000000; stroke-linecap:round; stroke-linejoin:round; stroke-width:4; stroke-opacity:1; fill:none" points="202.227,1147.99 221.125,1147.99 "/>
<polyline clip-path="url(#clip300)" style="stroke:#000000; stroke-linecap:round; stroke-linejoin:round; stroke-width:4; stroke-opacity:1; fill:none" points="202.227,872.806 221.125,872.806 "/>
<polyline clip-path="url(#clip300)" style="stroke:#000000; stroke-linecap:round; stroke-linejoin:round; stroke-width:4; stroke-opacity:1; fill:none" points="202.227,597.618 221.125,597.618 "/>
<polyline clip-path="url(#clip300)" style="stroke:#000000; stroke-linecap:round; stroke-linejoin:round; stroke-width:4; stroke-opacity:1; fill:none" points="202.227,322.431 221.125,322.431 "/>
<polyline clip-path="url(#clip300)" style="stroke:#000000; stroke-linecap:round; stroke-linejoin:round; stroke-width:4; stroke-opacity:1; fill:none" points="202.227,47.2441 221.125,47.2441 "/>
<path clip-path="url(#clip300)" d="M154.283 1408.98 Q150.672 1408.98 148.843 1412.54 Q147.038 1416.08 147.038 1423.21 Q147.038 1430.32 148.843 1433.89 Q150.672 1437.43 154.283 1437.43 Q157.917 1437.43 159.723 1433.89 Q161.552 1430.32 161.552 1423.21 Q161.552 1416.08 159.723 1412.54 Q157.917 1408.98 154.283 1408.98 M154.283 1405.27 Q160.093 1405.27 163.149 1409.88 Q166.227 1414.46 166.227 1423.21 Q166.227 1431.94 163.149 1436.55 Q160.093 1441.13 154.283 1441.13 Q148.473 1441.13 145.394 1436.55 Q142.339 1431.94 142.339 1423.21 Q142.339 1414.46 145.394 1409.88 Q148.473 1405.27 154.283 1405.27 Z" fill="#000000" fill-rule="nonzero" fill-opacity="1" /><path clip-path="url(#clip300)" d="M149.908 1161.34 L166.227 1161.34 L166.227 1165.27 L144.283 1165.27 L144.283 1161.34 Q146.945 1158.58 151.528 1153.95 Q156.135 1149.3 157.315 1147.96 Q159.561 1145.43 160.44 1143.7 Q161.343 1141.94 161.343 1140.25 Q161.343 1137.5 159.399 1135.76 Q157.478 1134.02 154.376 1134.02 Q152.177 1134.02 149.723 1134.79 Q147.292 1135.55 144.515 1137.1 L144.515 1132.38 Q147.339 1131.25 149.792 1130.67 Q152.246 1130.09 154.283 1130.09 Q159.653 1130.09 162.848 1132.77 Q166.042 1135.46 166.042 1139.95 Q166.042 1142.08 165.232 1144 Q164.445 1145.9 162.339 1148.49 Q161.76 1149.16 158.658 1152.38 Q155.556 1155.57 149.908 1161.34 Z" fill="#000000" fill-rule="nonzero" fill-opacity="1" /><path clip-path="url(#clip300)" d="M156.644 859.6 L144.839 878.049 L156.644 878.049 L156.644 859.6 M155.417 855.526 L161.297 855.526 L161.297 878.049 L166.227 878.049 L166.227 881.937 L161.297 881.937 L161.297 890.086 L156.644 890.086 L156.644 881.937 L141.042 881.937 L141.042 877.424 L155.417 855.526 Z" fill="#000000" fill-rule="nonzero" fill-opacity="1" /><path clip-path="url(#clip300)" d="M154.7 595.755 Q151.552 595.755 149.7 597.908 Q147.871 600.061 147.871 603.81 Q147.871 607.537 149.7 609.713 Q151.552 611.866 154.7 611.866 Q157.848 611.866 159.677 609.713 Q161.528 607.537 161.528 603.81 Q161.528 600.061 159.677 597.908 Q157.848 595.755 154.7 595.755 M163.982 581.102 L163.982 585.362 Q162.223 584.528 160.417 584.088 Q158.635 583.649 156.876 583.649 Q152.246 583.649 149.792 586.774 Q147.362 589.899 147.015 596.218 Q148.38 594.204 150.441 593.139 Q152.501 592.051 154.978 592.051 Q160.186 592.051 163.195 595.223 Q166.227 598.371 166.227 603.81 Q166.227 609.135 163.079 612.352 Q159.931 615.57 154.7 615.57 Q148.704 615.57 145.533 610.986 Q142.362 606.38 142.362 597.653 Q142.362 589.459 146.251 584.598 Q150.14 579.713 156.69 579.713 Q158.45 579.713 160.232 580.061 Q162.038 580.408 163.982 581.102 Z" fill="#000000" fill-rule="nonzero" fill-opacity="1" /><path clip-path="url(#clip300)" d="M154.376 323.299 Q151.042 323.299 149.121 325.082 Q147.223 326.864 147.223 329.989 Q147.223 333.114 149.121 334.896 Q151.042 336.679 154.376 336.679 Q157.709 336.679 159.63 334.896 Q161.552 333.091 161.552 329.989 Q161.552 326.864 159.63 325.082 Q157.732 323.299 154.376 323.299 M149.7 321.309 Q146.691 320.568 145.001 318.508 Q143.334 316.447 143.334 313.485 Q143.334 309.341 146.274 306.934 Q149.237 304.526 154.376 304.526 Q159.538 304.526 162.477 306.934 Q165.417 309.341 165.417 313.485 Q165.417 316.447 163.727 318.508 Q162.061 320.568 159.075 321.309 Q162.454 322.096 164.329 324.387 Q166.227 326.679 166.227 329.989 Q166.227 335.012 163.149 337.697 Q160.093 340.383 154.376 340.383 Q148.658 340.383 145.579 337.697 Q142.524 335.012 142.524 329.989 Q142.524 326.679 144.422 324.387 Q146.32 322.096 149.7 321.309 M147.987 313.924 Q147.987 316.61 149.653 318.114 Q151.343 319.619 154.376 319.619 Q157.385 319.619 159.075 318.114 Q160.788 316.61 160.788 313.924 Q160.788 311.239 159.075 309.735 Q157.385 308.23 154.376 308.23 Q151.343 308.23 149.653 309.735 Q147.987 311.239 147.987 313.924 Z" fill="#000000" fill-rule="nonzero" fill-opacity="1" /><path clip-path="url(#clip300)" d="M114.931 60.5889 L122.57 60.5889 L122.57 34.2233 L114.26 35.89 L114.26 31.6308 L122.524 29.9641 L127.2 29.9641 L127.2 60.5889 L134.839 60.5889 L134.839 64.5241 L114.931 64.5241 L114.931 60.5889 Z" fill="#000000" fill-rule="nonzero" fill-opacity="1" /><path clip-path="url(#clip300)" d="M154.283 33.0428 Q150.672 33.0428 148.843 36.6076 Q147.038 40.1492 147.038 47.2788 Q147.038 54.3853 148.843 57.9501 Q150.672 61.4917 154.283 61.4917 Q157.917 61.4917 159.723 57.9501 Q161.552 54.3853 161.552 47.2788 Q161.552 40.1492 159.723 36.6076 Q157.917 33.0428 154.283 33.0428 M154.283 29.3391 Q160.093 29.3391 163.149 33.9456 Q166.227 38.5289 166.227 47.2788 Q166.227 56.0056 163.149 60.6121 Q160.093 65.1954 154.283 65.1954 Q148.473 65.1954 145.394 60.6121 Q142.339 56.0056 142.339 47.2788 Q142.339 38.5289 145.394 33.9456 Q148.473 29.3391 154.283 29.3391 Z" fill="#000000" fill-rule="nonzero" fill-opacity="1" /><path clip-path="url(#clip300)" d="M33.7671 988.376 L14.479 988.376 L14.479 982.52 L64.0042 982.52 L64.0042 988.376 L58.657 988.376 Q61.8398 990.222 63.3994 993.055 Q64.9272 995.856 64.9272 999.803 Q64.9272 1006.26 59.771 1010.34 Q54.6147 1014.38 46.212 1014.38 Q37.8093 1014.38 32.6531 1010.34 Q27.4968 1006.26 27.4968 999.803 Q27.4968 995.856 29.0564 993.055 Q30.5842 990.222 33.7671 988.376 M46.212 1008.33 Q52.6732 1008.33 56.3653 1005.69 Q60.0256 1003.02 60.0256 998.37 Q60.0256 993.723 56.3653 991.05 Q52.6732 988.376 46.212 988.376 Q39.7508 988.376 36.0905 991.05 Q32.3984 993.723 32.3984 998.37 Q32.3984 1003.02 36.0905 1005.69 Q39.7508 1008.33 46.212 1008.33 Z" fill="#000000" fill-rule="nonzero" fill-opacity="1" /><path clip-path="url(#clip300)" d="M44.7161 939.965 L47.5806 939.965 L47.5806 966.892 Q53.6281 966.51 56.8109 963.263 Q59.9619 959.985 59.9619 954.16 Q59.9619 950.787 59.1344 947.636 Q58.3069 944.453 56.6518 941.334 L62.1899 941.334 Q63.5267 944.485 64.227 947.795 Q64.9272 951.105 64.9272 954.511 Q64.9272 963.041 59.9619 968.038 Q54.9967 973.003 46.5303 973.003 Q37.7774 973.003 32.6531 968.292 Q27.4968 963.55 27.4968 955.529 Q27.4968 948.336 32.1438 944.166 Q36.7589 939.965 44.7161 939.965 M42.9973 945.821 Q38.1912 945.885 35.3266 948.527 Q32.4621 951.137 32.4621 955.465 Q32.4621 960.367 35.2312 963.327 Q38.0002 966.255 43.0292 966.701 L42.9973 945.821 Z" fill="#000000" fill-rule="nonzero" fill-opacity="1" /><path clip-path="url(#clip300)" d="M58.657 924.687 L77.5631 924.687 L77.5631 930.576 L28.3562 930.576 L28.3562 924.687 L33.7671 924.687 Q30.5842 922.841 29.0564 920.04 Q27.4968 917.208 27.4968 913.293 Q27.4968 906.8 32.6531 902.757 Q37.8093 898.683 46.212 898.683 Q54.6147 898.683 59.771 902.757 Q64.9272 906.8 64.9272 913.293 Q64.9272 917.208 63.3994 920.04 Q61.8398 922.841 58.657 924.687 M46.212 904.763 Q39.7508 904.763 36.0905 907.436 Q32.3984 910.078 32.3984 914.725 Q32.3984 919.372 36.0905 922.045 Q39.7508 924.687 46.212 924.687 Q52.6732 924.687 56.3653 922.045 Q60.0256 919.372 60.0256 914.725 Q60.0256 910.078 56.3653 907.436 Q52.6732 904.763 46.212 904.763 Z" fill="#000000" fill-rule="nonzero" fill-opacity="1" /><path clip-path="url(#clip300)" d="M32.4621 875.162 Q32.4621 879.873 36.1542 882.61 Q39.8145 885.347 46.212 885.347 Q52.6095 885.347 56.3017 882.642 Q59.9619 879.904 59.9619 875.162 Q59.9619 870.483 56.2698 867.746 Q52.5777 865.009 46.212 865.009 Q39.8781 865.009 36.186 867.746 Q32.4621 870.483 32.4621 875.162 M27.4968 875.162 Q27.4968 867.523 32.4621 863.163 Q37.4273 858.802 46.212 858.802 Q54.9649 858.802 59.9619 863.163 Q64.9272 867.523 64.9272 875.162 Q64.9272 882.833 59.9619 887.193 Q54.9649 891.522 46.212 891.522 Q37.4273 891.522 32.4621 887.193 Q27.4968 882.833 27.4968 875.162 Z" fill="#000000" fill-rule="nonzero" fill-opacity="1" /><path clip-path="url(#clip300)" d="M29.4065 826.369 L34.9447 826.369 Q33.6716 828.852 33.035 831.525 Q32.3984 834.199 32.3984 837.063 Q32.3984 841.424 33.7352 843.62 Q35.072 845.784 37.7456 845.784 Q39.7826 845.784 40.9603 844.225 Q42.1061 842.665 43.1565 837.954 L43.6021 835.949 Q44.9389 829.711 47.3897 827.101 Q49.8086 824.459 54.1691 824.459 Q59.1344 824.459 62.0308 828.406 Q64.9272 832.321 64.9272 839.196 Q64.9272 842.06 64.3543 845.18 Q63.8132 848.267 62.6992 851.704 L56.6518 851.704 Q58.3387 848.458 59.198 845.307 Q60.0256 842.156 60.0256 839.068 Q60.0256 834.931 58.6251 832.703 Q57.1929 830.475 54.6147 830.475 Q52.2276 830.475 50.9545 832.098 Q49.6813 833.689 48.5037 839.132 L48.0262 841.169 Q46.8804 846.612 44.5251 849.031 Q42.138 851.45 38.0002 851.45 Q32.9713 851.45 30.2341 847.885 Q27.4968 844.32 27.4968 837.764 Q27.4968 834.517 27.9743 831.652 Q28.4517 828.788 29.4065 826.369 Z" fill="#000000" fill-rule="nonzero" fill-opacity="1" /><path clip-path="url(#clip300)" d="M28.3562 815.133 L28.3562 809.277 L64.0042 809.277 L64.0042 815.133 L28.3562 815.133 M14.479 815.133 L14.479 809.277 L21.895 809.277 L21.895 815.133 L14.479 815.133 Z" fill="#000000" fill-rule="nonzero" fill-opacity="1" /><path clip-path="url(#clip300)" d="M18.2347 791.23 L28.3562 791.23 L28.3562 779.167 L32.9077 779.167 L32.9077 791.23 L52.2594 791.23 Q56.6199 791.23 57.8613 790.053 Q59.1026 788.843 59.1026 785.183 L59.1026 779.167 L64.0042 779.167 L64.0042 785.183 Q64.0042 791.962 61.4897 794.54 Q58.9434 797.118 52.2594 797.118 L32.9077 797.118 L32.9077 801.415 L28.3562 801.415 L28.3562 797.118 L18.2347 797.118 L18.2347 791.23 Z" fill="#000000" fill-rule="nonzero" fill-opacity="1" /><path clip-path="url(#clip300)" d="M35.1993 722.99 Q31.2526 720.794 29.3747 717.738 Q27.4968 714.683 27.4968 710.545 Q27.4968 704.975 31.4117 701.951 Q35.2948 698.927 42.4881 698.927 L64.0042 698.927 L64.0042 704.816 L42.679 704.816 Q37.5546 704.816 35.072 706.63 Q32.5894 708.444 32.5894 712.168 Q32.5894 716.72 35.6131 719.361 Q38.6368 722.003 43.8567 722.003 L64.0042 722.003 L64.0042 727.891 L42.679 727.891 Q37.5228 727.891 35.072 729.706 Q32.5894 731.52 32.5894 735.307 Q32.5894 739.795 35.6449 742.437 Q38.6686 745.079 43.8567 745.079 L64.0042 745.079 L64.0042 750.967 L28.3562 750.967 L28.3562 745.079 L33.8944 745.079 Q30.616 743.074 29.0564 740.273 Q27.4968 737.472 27.4968 733.621 Q27.4968 729.737 29.4702 727.032 Q31.4436 724.295 35.1993 722.99 Z" fill="#000000" fill-rule="nonzero" fill-opacity="1" /><path clip-path="url(#clip300)" d="M46.0847 671.046 Q46.0847 678.143 47.7079 680.881 Q49.3312 683.618 53.2461 683.618 Q56.3653 683.618 58.2114 681.581 Q60.0256 679.512 60.0256 675.979 Q60.0256 671.109 56.5881 668.181 Q53.1188 665.221 47.3897 665.221 L46.0847 665.221 L46.0847 671.046 M43.6657 659.365 L64.0042 659.365 L64.0042 665.221 L58.5933 665.221 Q61.8398 667.226 63.3994 670.218 Q64.9272 673.21 64.9272 677.539 Q64.9272 683.013 61.8716 686.26 Q58.7843 689.474 53.6281 689.474 Q47.6125 689.474 44.5569 685.464 Q41.5014 681.422 41.5014 673.433 L41.5014 665.221 L40.9285 665.221 Q36.8862 665.221 34.6901 667.895 Q32.4621 670.536 32.4621 675.342 Q32.4621 678.398 33.1941 681.294 Q33.9262 684.191 35.3903 686.864 L29.9795 686.864 Q28.7381 683.65 28.1334 680.626 Q27.4968 677.602 27.4968 674.738 Q27.4968 667.003 31.5072 663.184 Q35.5176 659.365 43.6657 659.365 Z" fill="#000000" fill-rule="nonzero" fill-opacity="1" /><path clip-path="url(#clip300)" d="M29.4065 624.576 L34.9447 624.576 Q33.6716 627.059 33.035 629.732 Q32.3984 632.406 32.3984 635.27 Q32.3984 639.631 33.7352 641.827 Q35.072 643.991 37.7456 643.991 Q39.7826 643.991 40.9603 642.432 Q42.1061 640.872 43.1565 636.162 L43.6021 634.156 Q44.9389 627.918 47.3897 625.308 Q49.8086 622.666 54.1691 622.666 Q59.1344 622.666 62.0308 626.613 Q64.9272 630.528 64.9272 637.403 Q64.9272 640.267 64.3543 643.387 Q63.8132 646.474 62.6992 649.911 L56.6518 649.911 Q58.3387 646.665 59.198 643.514 Q60.0256 640.363 60.0256 637.276 Q60.0256 633.138 58.6251 630.91 Q57.1929 628.682 54.6147 628.682 Q52.2276 628.682 50.9545 630.305 Q49.6813 631.897 48.5037 637.339 L48.0262 639.376 Q46.8804 644.819 44.5251 647.238 Q42.138 649.657 38.0002 649.657 Q32.9713 649.657 30.2341 646.092 Q27.4968 642.527 27.4968 635.971 Q27.4968 632.724 27.9743 629.86 Q28.4517 626.995 29.4065 624.576 Z" fill="#000000" fill-rule="nonzero" fill-opacity="1" /><path clip-path="url(#clip300)" d="M29.4065 590.615 L34.9447 590.615 Q33.6716 593.098 33.035 595.771 Q32.3984 598.445 32.3984 601.309 Q32.3984 605.67 33.7352 607.866 Q35.072 610.03 37.7456 610.03 Q39.7826 610.03 40.9603 608.471 Q42.1061 606.911 43.1565 602.201 L43.6021 600.195 Q44.9389 593.957 47.3897 591.347 Q49.8086 588.705 54.1691 588.705 Q59.1344 588.705 62.0308 592.652 Q64.9272 596.567 64.9272 603.442 Q64.9272 606.306 64.3543 609.426 Q63.8132 612.513 62.6992 615.95 L56.6518 615.95 Q58.3387 612.704 59.198 609.553 Q60.0256 606.402 60.0256 603.315 Q60.0256 599.177 58.6251 596.949 Q57.1929 594.721 54.6147 594.721 Q52.2276 594.721 50.9545 596.344 Q49.6813 597.936 48.5037 603.378 L48.0262 605.415 Q46.8804 610.858 44.5251 613.277 Q42.138 615.696 38.0002 615.696 Q32.9713 615.696 30.2341 612.131 Q27.4968 608.566 27.4968 602.01 Q27.4968 598.763 27.9743 595.898 Q28.4517 593.034 29.4065 590.615 Z" fill="#000000" fill-rule="nonzero" fill-opacity="1" /><path clip-path="url(#clip300)" d="M14.5426 544.591 Q21.8632 548.856 29.0246 550.925 Q36.186 552.994 43.5384 552.994 Q50.8908 552.994 58.1159 550.925 Q65.3091 548.824 72.5979 544.591 L72.5979 549.683 Q65.1182 554.458 57.8931 556.845 Q50.668 559.2 43.5384 559.2 Q36.4406 559.2 29.2474 556.845 Q22.0542 554.49 14.5426 549.683 L14.5426 544.591 Z" fill="#000000" fill-rule="nonzero" fill-opacity="1" /><path clip-path="url(#clip300)" d="M35.1993 505.474 Q31.2526 503.277 29.3747 500.222 Q27.4968 497.166 27.4968 493.029 Q27.4968 487.459 31.4117 484.435 Q35.2948 481.411 42.4881 481.411 L64.0042 481.411 L64.0042 487.3 L42.679 487.3 Q37.5546 487.3 35.072 489.114 Q32.5894 490.928 32.5894 494.652 Q32.5894 499.203 35.6131 501.845 Q38.6368 504.487 43.8567 504.487 L64.0042 504.487 L64.0042 510.375 L42.679 510.375 Q37.5228 510.375 35.072 512.189 Q32.5894 514.004 32.5894 517.791 Q32.5894 522.279 35.6449 524.921 Q38.6686 527.563 43.8567 527.563 L64.0042 527.563 L64.0042 533.451 L28.3562 533.451 L28.3562 527.563 L33.8944 527.563 Q30.616 525.557 29.0564 522.757 Q27.4968 519.956 27.4968 516.104 Q27.4968 512.221 29.4702 509.516 Q31.4436 506.779 35.1993 505.474 Z" fill="#000000" fill-rule="nonzero" fill-opacity="1" /><path clip-path="url(#clip300)" d="M14.5426 470.653 L14.5426 465.561 Q22.0542 460.786 29.2474 458.431 Q36.4406 456.044 43.5384 456.044 Q50.668 456.044 57.8931 458.431 Q65.1182 460.786 72.5979 465.561 L72.5979 470.653 Q65.3091 466.42 58.1159 464.351 Q50.8908 462.25 43.5384 462.25 Q36.186 462.25 29.0246 464.351 Q21.8632 466.42 14.5426 470.653 Z" fill="#000000" fill-rule="nonzero" fill-opacity="1" /><path clip-path="url(#clip302)" d="M202.227 991.082 L1097.58 991.082 L1097.58 991.082 L1003.77 248.696 L988.921 47.2441 L988.921 47.2441 L202.227 47.2441 L202.227 991.082  Z" fill="#0000ff" fill-rule="evenodd" fill-opacity="0.35"/>
<polyline clip-path="url(#clip302)" style="stroke:#000000; stroke-linecap:round; stroke-linejoin:round; stroke-width:4; stroke-opacity:0; fill:none" points="202.227,991.082 1097.58,991.082 1003.77,248.696 988.921,47.2441 202.227,47.2441 202.227,991.082 "/>
<path clip-path="url(#clip302)" d="M202.227 991.082 L1097.58 991.082 L1097.58 991.082 L530.551 1208.87 L202.227 1343.42 L202.227 1423.18 L202.227 991.082  Z" fill="#a52a2a" fill-rule="evenodd" fill-opacity="0.35"/>
<polyline clip-path="url(#clip302)" style="stroke:#000000; stroke-linecap:round; stroke-linejoin:round; stroke-width:4; stroke-opacity:0; fill:none" points="202.227,991.082 1097.58,991.082 530.551,1208.87 202.227,1343.42 202.227,1423.18 202.227,991.082 "/>
<polyline clip-path="url(#clip302)" style="stroke:#808080; stroke-linecap:round; stroke-linejoin:round; stroke-width:4; stroke-opacity:1; fill:none" points="1097.58,991.082 1003.77,248.696 988.921,47.2441 "/>
<polyline clip-path="url(#clip302)" style="stroke:#808080; stroke-linecap:round; stroke-linejoin:round; stroke-width:4; stroke-opacity:1; fill:none" points="1097.58,991.082 530.551,1208.87 202.227,1343.42 "/>
<path clip-path="url(#clip302)" d="M988.921 47.2441 L988.921 47.2441 L1003.77 248.696 L1097.58 991.082 L1097.58 991.082 L1140.16 974.65 L1261.24 918.966 L1402.06 830.22 L1530.35 711.32 L1647.72 542.486 L1745.74 310.742 L1813.04 47.2441 L202.227 47.2441 L988.921 47.2441  Z" fill="#9acd32" fill-rule="evenodd" fill-opacity="0.35"/>
<polyline clip-path="url(#clip302)" style="stroke:#000000; stroke-linecap:round; stroke-linejoin:round; stroke-width:4; stroke-opacity:0; fill:none" points="988.921,47.2441 988.921,47.2441 1003.77,248.696 1097.58,991.082 1140.16,974.65 1261.24,918.966 1402.06,830.22 1530.35,711.32 1647.72,542.486 1745.74,310.742 1813.04,47.2441 202.227,47.2441 988.921,47.2441 "/>
<path clip-path="url(#clip302)" d="M202.227 1343.42 L530.551 1208.87 L1097.58 991.082 L1097.58 991.082 L1140.16 974.65 L1261.24 918.966 L1402.06 830.22 L1530.35 711.32 L1647.72 542.486 L1745.74 310.742 L1813.04 47.2441 L2352.76 47.2441 L2352.76 1423.18 L202.227 1423.18 L202.227 1343.42  Z" fill="#ff0000" fill-rule="evenodd" fill-opacity="0.35"/>
<polyline clip-path="url(#clip302)" style="stroke:#000000; stroke-linecap:round; stroke-linejoin:round; stroke-width:4; stroke-opacity:0; fill:none" points="202.227,1343.42 530.551,1208.87 1097.58,991.082 1140.16,974.65 1261.24,918.966 1402.06,830.22 1530.35,711.32 1647.72,542.486 1745.74,310.742 1813.04,47.2441 2352.76,47.2441 2352.76,1423.18 202.227,1423.18 202.227,1343.42 "/>
<polyline clip-path="url(#clip302)" style="stroke:#ffd700; stroke-linecap:round; stroke-linejoin:round; stroke-width:12; stroke-opacity:1; fill:none" points="1097.58,991.082 1140.16,974.65 1261.24,918.966 1402.06,830.22 1530.35,711.32 1647.72,542.486 1745.74,310.742 1813.04,47.2441 "/>
<polyline clip-path="url(#clip302)" style="stroke:#008000; stroke-linecap:round; stroke-linejoin:round; stroke-width:12; stroke-opacity:1; fill:none" points="202.227,991.082 1097.58,991.082 "/>
<path clip-path="url(#clip300)" d="M1708.2 455.989 L2281.07 455.989 L2281.07 93.1086 L1708.2 93.1086  Z" fill="#ffffff" fill-rule="evenodd" fill-opacity="1"/>
<polyline clip-path="url(#clip300)" style="stroke:#000000; stroke-linecap:round; stroke-linejoin:round; stroke-width:4; stroke-opacity:1; fill:none" points="1708.2,455.989 2281.07,455.989 2281.07,93.1086 1708.2,93.1086 1708.2,455.989 "/>
<path clip-path="url(#clip300)" d="M1732.09 165.685 L1875.46 165.685 L1875.46 124.213 L1732.09 124.213 L1732.09 165.685  Z" fill="#0000ff" fill-rule="evenodd" fill-opacity="0.35"/>
<polyline clip-path="url(#clip300)" style="stroke:#000000; stroke-linecap:round; stroke-linejoin:round; stroke-width:4; stroke-opacity:0; fill:none" points="1732.09,165.685 1875.46,165.685 1875.46,124.213 1732.09,124.213 1732.09,165.685 "/>
<path clip-path="url(#clip300)" d="M1899.35 151.997 L1899.35 136.303 L1903.61 136.303 L1903.61 151.835 Q1903.61 155.516 1905.05 157.368 Q1906.48 159.196 1909.35 159.196 Q1912.8 159.196 1914.79 156.997 Q1916.81 154.798 1916.81 151.002 L1916.81 136.303 L1921.07 136.303 L1921.07 162.229 L1916.81 162.229 L1916.81 158.247 Q1915.26 160.608 1913.2 161.766 Q1911.16 162.9 1908.45 162.9 Q1903.98 162.9 1901.67 160.122 Q1899.35 157.344 1899.35 151.997 M1910.07 135.678 L1910.07 135.678 Z" fill="#000000" fill-rule="nonzero" fill-opacity="1" /><path clip-path="url(#clip300)" d="M1928.54 152.807 L1947.22 152.807 L1947.22 155.006 L1928.54 155.006 L1928.54 152.807 Z" fill="#000000" fill-rule="nonzero" fill-opacity="1" /><path clip-path="url(#clip300)" d="M1980.3 142.946 Q1978.45 142.946 1977.18 144.243 Q1975.91 145.516 1975.91 147.368 Q1975.91 149.196 1977.18 150.469 Q1978.45 151.719 1980.3 151.719 Q1982.16 151.719 1983.43 150.469 Q1984.7 149.196 1984.7 147.368 Q1984.7 145.539 1983.41 144.243 Q1982.13 142.946 1980.3 142.946 M1980.3 139.96 Q1981.78 139.96 1983.15 140.539 Q1984.52 141.094 1985.51 142.159 Q1986.58 143.201 1987.11 144.52 Q1987.64 145.84 1987.64 147.368 Q1987.64 150.423 1985.49 152.553 Q1983.36 154.659 1980.26 154.659 Q1977.13 154.659 1975.05 152.576 Q1972.97 150.493 1972.97 147.368 Q1972.97 144.266 1975.1 142.113 Q1977.22 139.96 1980.3 139.96 Z" fill="#000000" fill-rule="nonzero" fill-opacity="1" /><path clip-path="url(#clip300)" d="M2014.24 151.997 L2014.24 136.303 L2018.5 136.303 L2018.5 151.835 Q2018.5 155.516 2019.93 157.368 Q2021.37 159.196 2024.24 159.196 Q2027.69 159.196 2029.68 156.997 Q2031.69 154.798 2031.69 151.002 L2031.69 136.303 L2035.95 136.303 L2035.95 162.229 L2031.69 162.229 L2031.69 158.247 Q2030.14 160.608 2028.08 161.766 Q2026.04 162.9 2023.34 162.9 Q2018.87 162.9 2016.55 160.122 Q2014.24 157.344 2014.24 151.997 M2024.96 135.678 L2024.96 135.678 Z" fill="#000000" fill-rule="nonzero" fill-opacity="1" /><path clip-path="url(#clip300)" d="M2054.56 147.761 L2054.56 150.006 Q2053.43 149.497 2052.2 149.243 Q2051 148.988 2049.68 148.988 Q2047.66 148.988 2046.67 149.52 Q2045.67 150.076 2045.67 151.164 Q2045.67 151.997 2046.39 152.46 Q2047.11 152.946 2049.26 153.363 L2050.19 153.548 Q2053.08 154.104 2054.24 155.076 Q2055.44 156.071 2055.44 157.854 Q2055.44 159.868 2053.64 161.048 Q2051.85 162.229 2048.71 162.229 Q2047.39 162.229 2045.95 161.997 Q2044.54 161.766 2042.97 161.326 L2042.97 158.849 Q2044.45 159.543 2045.9 159.891 Q2047.34 160.238 2048.75 160.238 Q2050.65 160.238 2051.67 159.659 Q2052.69 159.08 2052.69 158.039 Q2052.69 157.067 2051.95 156.534 Q2051.3 156.071 2048.73 155.539 L2047.8 155.354 Q2045.3 154.868 2044.19 153.918 Q2043.08 152.946 2043.08 151.256 Q2043.08 149.219 2044.72 148.108 Q2046.34 146.974 2049.35 146.974 Q2050.84 146.974 2052.15 147.182 Q2053.47 147.368 2054.56 147.761 Z" fill="#000000" fill-rule="nonzero" fill-opacity="1" /><path clip-path="url(#clip300)" d="M2087.85 142.946 Q2086 142.946 2084.72 144.243 Q2083.45 145.516 2083.45 147.368 Q2083.45 149.196 2084.72 150.469 Q2086 151.719 2087.85 151.719 Q2089.7 151.719 2090.97 150.469 Q2092.25 149.196 2092.25 147.368 Q2092.25 145.539 2090.95 144.243 Q2089.68 142.946 2087.85 142.946 M2087.85 139.96 Q2089.33 139.96 2090.7 140.539 Q2092.06 141.094 2093.06 142.159 Q2094.12 143.201 2094.65 144.52 Q2095.19 145.84 2095.19 147.368 Q2095.19 150.423 2093.03 152.553 Q2090.9 154.659 2087.8 154.659 Q2084.68 154.659 2082.59 152.576 Q2080.51 150.493 2080.51 147.368 Q2080.51 144.266 2082.64 142.113 Q2084.77 139.96 2087.85 139.96 Z" fill="#000000" fill-rule="nonzero" fill-opacity="1" /><path clip-path="url(#clip300)" d="M2121.78 151.997 L2121.78 136.303 L2126.04 136.303 L2126.04 151.835 Q2126.04 155.516 2127.48 157.368 Q2128.91 159.196 2131.78 159.196 Q2135.23 159.196 2137.22 156.997 Q2139.24 154.798 2139.24 151.002 L2139.24 136.303 L2143.5 136.303 L2143.5 162.229 L2139.24 162.229 L2139.24 158.247 Q2137.69 160.608 2135.63 161.766 Q2133.59 162.9 2130.88 162.9 Q2126.41 162.9 2124.1 160.122 Q2121.78 157.344 2121.78 151.997 M2132.5 135.678 L2132.5 135.678 Z" fill="#000000" fill-rule="nonzero" fill-opacity="1" /><path clip-path="url(#clip300)" d="M2161.53 145.585 L2161.53 152.807 L2169.65 152.807 L2169.65 155.006 L2161.53 155.006 L2161.53 162.229 L2159.1 162.229 L2159.1 155.006 L2150.97 155.006 L2150.97 152.807 L2159.1 152.807 L2159.1 145.585 L2161.53 145.585 Z" fill="#000000" fill-rule="nonzero" fill-opacity="1" /><path clip-path="url(#clip300)" d="M1732.09 217.525 L1875.46 217.525 L1875.46 176.053 L1732.09 176.053 L1732.09 217.525  Z" fill="#a52a2a" fill-rule="evenodd" fill-opacity="0.35"/>
<polyline clip-path="url(#clip300)" style="stroke:#000000; stroke-linecap:round; stroke-linejoin:round; stroke-width:4; stroke-opacity:0; fill:none" points="1732.09,217.525 1875.46,217.525 1875.46,176.053 1732.09,176.053 1732.09,217.525 "/>
<path clip-path="url(#clip300)" d="M1899.35 203.837 L1899.35 188.143 L1903.61 188.143 L1903.61 203.675 Q1903.61 207.356 1905.05 209.208 Q1906.48 211.036 1909.35 211.036 Q1912.8 211.036 1914.79 208.837 Q1916.81 206.638 1916.81 202.842 L1916.81 188.143 L1921.07 188.143 L1921.07 214.069 L1916.81 214.069 L1916.81 210.087 Q1915.26 212.448 1913.2 213.606 Q1911.16 214.74 1908.45 214.74 Q1903.98 214.74 1901.67 211.962 Q1899.35 209.184 1899.35 203.837 M1910.07 187.518 L1910.07 187.518 Z" fill="#000000" fill-rule="nonzero" fill-opacity="1" /><path clip-path="url(#clip300)" d="M1939.1 197.425 L1939.1 204.647 L1947.22 204.647 L1947.22 206.846 L1939.1 206.846 L1939.1 214.069 L1936.67 214.069 L1936.67 206.846 L1928.54 206.846 L1928.54 204.647 L1936.67 204.647 L1936.67 197.425 L1939.1 197.425 Z" fill="#000000" fill-rule="nonzero" fill-opacity="1" /><path clip-path="url(#clip300)" d="M1980.3 194.786 Q1978.45 194.786 1977.18 196.083 Q1975.91 197.356 1975.91 199.208 Q1975.91 201.036 1977.18 202.309 Q1978.45 203.559 1980.3 203.559 Q1982.16 203.559 1983.43 202.309 Q1984.7 201.036 1984.7 199.208 Q1984.7 197.379 1983.41 196.083 Q1982.13 194.786 1980.3 194.786 M1980.3 191.8 Q1981.78 191.8 1983.15 192.379 Q1984.52 192.934 1985.51 193.999 Q1986.58 195.041 1987.11 196.36 Q1987.64 197.68 1987.64 199.208 Q1987.64 202.263 1985.49 204.393 Q1983.36 206.499 1980.26 206.499 Q1977.13 206.499 1975.05 204.416 Q1972.97 202.333 1972.97 199.208 Q1972.97 196.106 1975.1 193.953 Q1977.22 191.8 1980.3 191.8 Z" fill="#000000" fill-rule="nonzero" fill-opacity="1" /><path clip-path="url(#clip300)" d="M2014.24 203.837 L2014.24 188.143 L2018.5 188.143 L2018.5 203.675 Q2018.5 207.356 2019.93 209.208 Q2021.37 211.036 2024.24 211.036 Q2027.69 211.036 2029.68 208.837 Q2031.69 206.638 2031.69 202.842 L2031.69 188.143 L2035.95 188.143 L2035.95 214.069 L2031.69 214.069 L2031.69 210.087 Q2030.14 212.448 2028.08 213.606 Q2026.04 214.74 2023.34 214.74 Q2018.87 214.74 2016.55 211.962 Q2014.24 209.184 2014.24 203.837 M2024.96 187.518 L2024.96 187.518 Z" fill="#000000" fill-rule="nonzero" fill-opacity="1" /><path clip-path="url(#clip300)" d="M2054.56 199.601 L2054.56 201.846 Q2053.43 201.337 2052.2 201.083 Q2051 200.828 2049.68 200.828 Q2047.66 200.828 2046.67 201.36 Q2045.67 201.916 2045.67 203.004 Q2045.67 203.837 2046.39 204.3 Q2047.11 204.786 2049.26 205.203 L2050.19 205.388 Q2053.08 205.944 2054.24 206.916 Q2055.44 207.911 2055.44 209.694 Q2055.44 211.708 2053.64 212.888 Q2051.85 214.069 2048.71 214.069 Q2047.39 214.069 2045.95 213.837 Q2044.54 213.606 2042.97 213.166 L2042.97 210.689 Q2044.45 211.383 2045.9 211.731 Q2047.34 212.078 2048.75 212.078 Q2050.65 212.078 2051.67 211.499 Q2052.69 210.92 2052.69 209.879 Q2052.69 208.907 2051.95 208.374 Q2051.3 207.911 2048.73 207.379 L2047.8 207.194 Q2045.3 206.708 2044.19 205.758 Q2043.08 204.786 2043.08 203.096 Q2043.08 201.059 2044.72 199.948 Q2046.34 198.814 2049.35 198.814 Q2050.84 198.814 2052.15 199.022 Q2053.47 199.208 2054.56 199.601 Z" fill="#000000" fill-rule="nonzero" fill-opacity="1" /><path clip-path="url(#clip300)" d="M2087.85 194.786 Q2086 194.786 2084.72 196.083 Q2083.45 197.356 2083.45 199.208 Q2083.45 201.036 2084.72 202.309 Q2086 203.559 2087.85 203.559 Q2089.7 203.559 2090.97 202.309 Q2092.25 201.036 2092.25 199.208 Q2092.25 197.379 2090.95 196.083 Q2089.68 194.786 2087.85 194.786 M2087.85 191.8 Q2089.33 191.8 2090.7 192.379 Q2092.06 192.934 2093.06 193.999 Q2094.12 195.041 2094.65 196.36 Q2095.19 197.68 2095.19 199.208 Q2095.19 202.263 2093.03 204.393 Q2090.9 206.499 2087.8 206.499 Q2084.68 206.499 2082.59 204.416 Q2080.51 202.333 2080.51 199.208 Q2080.51 196.106 2082.64 193.953 Q2084.77 191.8 2087.85 191.8 Z" fill="#000000" fill-rule="nonzero" fill-opacity="1" /><path clip-path="url(#clip300)" d="M2121.78 203.837 L2121.78 188.143 L2126.04 188.143 L2126.04 203.675 Q2126.04 207.356 2127.48 209.208 Q2128.91 211.036 2131.78 211.036 Q2135.23 211.036 2137.22 208.837 Q2139.24 206.638 2139.24 202.842 L2139.24 188.143 L2143.5 188.143 L2143.5 214.069 L2139.24 214.069 L2139.24 210.087 Q2137.69 212.448 2135.63 213.606 Q2133.59 214.74 2130.88 214.74 Q2126.41 214.74 2124.1 211.962 Q2121.78 209.184 2121.78 203.837 M2132.5 187.518 L2132.5 187.518 Z" fill="#000000" fill-rule="nonzero" fill-opacity="1" /><path clip-path="url(#clip300)" d="M2161.53 197.425 L2161.53 204.647 L2169.65 204.647 L2169.65 206.846 L2161.53 206.846 L2161.53 214.069 L2159.1 214.069 L2159.1 206.846 L2150.97 206.846 L2150.97 204.647 L2159.1 204.647 L2159.1 197.425 L2161.53 197.425 Z" fill="#000000" fill-rule="nonzero" fill-opacity="1" /><path clip-path="url(#clip300)" d="M1732.09 269.365 L1875.46 269.365 L1875.46 227.893 L1732.09 227.893 L1732.09 269.365  Z" fill="#9acd32" fill-rule="evenodd" fill-opacity="0.35"/>
<polyline clip-path="url(#clip300)" style="stroke:#000000; stroke-linecap:round; stroke-linejoin:round; stroke-width:4; stroke-opacity:0; fill:none" points="1732.09,269.365 1875.46,269.365 1875.46,227.893 1732.09,227.893 1732.09,269.365 "/>
<path clip-path="url(#clip300)" d="M1899.35 255.677 L1899.35 239.983 L1903.61 239.983 L1903.61 255.515 Q1903.61 259.196 1905.05 261.048 Q1906.48 262.876 1909.35 262.876 Q1912.8 262.876 1914.79 260.677 Q1916.81 258.478 1916.81 254.682 L1916.81 239.983 L1921.07 239.983 L1921.07 265.909 L1916.81 265.909 L1916.81 261.927 Q1915.26 264.288 1913.2 265.446 Q1911.16 266.58 1908.45 266.58 Q1903.98 266.58 1901.67 263.802 Q1899.35 261.024 1899.35 255.677 M1910.07 239.358 L1910.07 239.358 Z" fill="#000000" fill-rule="nonzero" fill-opacity="1" /><path clip-path="url(#clip300)" d="M1928.54 256.487 L1947.22 256.487 L1947.22 258.686 L1928.54 258.686 L1928.54 256.487 Z" fill="#000000" fill-rule="nonzero" fill-opacity="1" /><path clip-path="url(#clip300)" d="M1980.3 246.626 Q1978.45 246.626 1977.18 247.923 Q1975.91 249.196 1975.91 251.048 Q1975.91 252.876 1977.18 254.149 Q1978.45 255.399 1980.3 255.399 Q1982.16 255.399 1983.43 254.149 Q1984.7 252.876 1984.7 251.048 Q1984.7 249.219 1983.41 247.923 Q1982.13 246.626 1980.3 246.626 M1980.3 243.64 Q1981.78 243.64 1983.15 244.219 Q1984.52 244.774 1985.51 245.839 Q1986.58 246.881 1987.11 248.2 Q1987.64 249.52 1987.64 251.048 Q1987.64 254.103 1985.49 256.233 Q1983.36 258.339 1980.26 258.339 Q1977.13 258.339 1975.05 256.256 Q1972.97 254.173 1972.97 251.048 Q1972.97 247.946 1975.1 245.793 Q1977.22 243.64 1980.3 243.64 Z" fill="#000000" fill-rule="nonzero" fill-opacity="1" /><path clip-path="url(#clip300)" d="M2014.24 255.677 L2014.24 239.983 L2018.5 239.983 L2018.5 255.515 Q2018.5 259.196 2019.93 261.048 Q2021.37 262.876 2024.24 262.876 Q2027.69 262.876 2029.68 260.677 Q2031.69 258.478 2031.69 254.682 L2031.69 239.983 L2035.95 239.983 L2035.95 265.909 L2031.69 265.909 L2031.69 261.927 Q2030.14 264.288 2028.08 265.446 Q2026.04 266.58 2023.34 266.58 Q2018.87 266.58 2016.55 263.802 Q2014.24 261.024 2014.24 255.677 M2024.96 239.358 L2024.96 239.358 Z" fill="#000000" fill-rule="nonzero" fill-opacity="1" /><path clip-path="url(#clip300)" d="M2053.98 249.265 L2053.98 256.487 L2062.11 256.487 L2062.11 258.686 L2053.98 258.686 L2053.98 265.909 L2051.55 265.909 L2051.55 258.686 L2043.43 258.686 L2043.43 256.487 L2051.55 256.487 L2051.55 249.265 L2053.98 249.265 Z" fill="#000000" fill-rule="nonzero" fill-opacity="1" /><path clip-path="url(#clip300)" d="M1732.09 321.205 L1875.46 321.205 L1875.46 279.733 L1732.09 279.733 L1732.09 321.205  Z" fill="#ff0000" fill-rule="evenodd" fill-opacity="0.35"/>
<polyline clip-path="url(#clip300)" style="stroke:#000000; stroke-linecap:round; stroke-linejoin:round; stroke-width:4; stroke-opacity:0; fill:none" points="1732.09,321.205 1875.46,321.205 1875.46,279.733 1732.09,279.733 1732.09,321.205 "/>
<path clip-path="url(#clip300)" d="M1899.35 307.517 L1899.35 291.823 L1903.61 291.823 L1903.61 307.355 Q1903.61 311.036 1905.05 312.888 Q1906.48 314.716 1909.35 314.716 Q1912.8 314.716 1914.79 312.517 Q1916.81 310.318 1916.81 306.522 L1916.81 291.823 L1921.07 291.823 L1921.07 317.749 L1916.81 317.749 L1916.81 313.767 Q1915.26 316.128 1913.2 317.286 Q1911.16 318.42 1908.45 318.42 Q1903.98 318.42 1901.67 315.642 Q1899.35 312.864 1899.35 307.517 M1910.07 291.198 L1910.07 291.198 Z" fill="#000000" fill-rule="nonzero" fill-opacity="1" /><path clip-path="url(#clip300)" d="M1939.1 301.105 L1939.1 308.327 L1947.22 308.327 L1947.22 310.526 L1939.1 310.526 L1939.1 317.749 L1936.67 317.749 L1936.67 310.526 L1928.54 310.526 L1928.54 308.327 L1936.67 308.327 L1936.67 301.105 L1939.1 301.105 Z" fill="#000000" fill-rule="nonzero" fill-opacity="1" /><polyline clip-path="url(#clip300)" style="stroke:#ffd700; stroke-linecap:round; stroke-linejoin:round; stroke-width:12; stroke-opacity:1; fill:none" points="1732.09,352.309 1875.46,352.309 "/>
<path clip-path="url(#clip300)" d="M1917.78 344.427 L1917.78 348.454 Q1915.97 347.529 1914.03 347.066 Q1912.09 346.603 1910 346.603 Q1906.83 346.603 1905.23 347.575 Q1903.66 348.547 1903.66 350.491 Q1903.66 351.973 1904.79 352.829 Q1905.93 353.663 1909.35 354.427 L1910.81 354.751 Q1915.35 355.723 1917.25 357.505 Q1919.17 359.265 1919.17 362.436 Q1919.17 366.047 1916.3 368.153 Q1913.45 370.26 1908.45 370.26 Q1906.37 370.26 1904.1 369.843 Q1901.85 369.45 1899.35 368.64 L1899.35 364.241 Q1901.72 365.468 1904.01 366.093 Q1906.3 366.695 1908.54 366.695 Q1911.55 366.695 1913.17 365.677 Q1914.79 364.635 1914.79 362.76 Q1914.79 361.024 1913.61 360.098 Q1912.46 359.172 1908.5 358.316 L1907.02 357.968 Q1903.06 357.135 1901.3 355.422 Q1899.54 353.686 1899.54 350.677 Q1899.54 347.019 1902.13 345.029 Q1904.73 343.038 1909.49 343.038 Q1911.85 343.038 1913.94 343.385 Q1916.02 343.732 1917.78 344.427 Z" fill="#000000" fill-rule="nonzero" fill-opacity="1" /><path clip-path="url(#clip300)" d="M1923.47 343.663 L1927.73 343.663 L1933.06 363.894 L1938.36 343.663 L1943.38 343.663 L1948.71 363.894 L1954.01 343.663 L1958.27 343.663 L1951.48 369.589 L1946.46 369.589 L1940.88 348.339 L1935.28 369.589 L1930.26 369.589 L1923.47 343.663 Z" fill="#000000" fill-rule="nonzero" fill-opacity="1" /><path clip-path="url(#clip300)" d="M1964.72 343.663 L1968.98 343.663 L1968.98 369.589 L1964.72 369.589 L1964.72 343.663 M1964.72 333.57 L1968.98 333.57 L1968.98 338.964 L1964.72 338.964 L1964.72 333.57 Z" fill="#000000" fill-rule="nonzero" fill-opacity="1" /><path clip-path="url(#clip300)" d="M1982.11 336.302 L1982.11 343.663 L1990.88 343.663 L1990.88 346.973 L1982.11 346.973 L1982.11 361.047 Q1982.11 364.218 1982.97 365.121 Q1983.84 366.024 1986.51 366.024 L1990.88 366.024 L1990.88 369.589 L1986.51 369.589 Q1981.58 369.589 1979.7 367.76 Q1977.83 365.908 1977.83 361.047 L1977.83 346.973 L1974.7 346.973 L1974.7 343.663 L1977.83 343.663 L1977.83 336.302 L1982.11 336.302 Z" fill="#000000" fill-rule="nonzero" fill-opacity="1" /><path clip-path="url(#clip300)" d="M2015.14 344.658 L2015.14 348.64 Q2013.34 347.644 2011.51 347.158 Q2009.7 346.649 2007.85 346.649 Q2003.71 346.649 2001.41 349.288 Q1999.12 351.904 1999.12 356.649 Q1999.12 361.394 2001.41 364.033 Q2003.71 366.649 2007.85 366.649 Q2009.7 366.649 2011.51 366.163 Q2013.34 365.653 2015.14 364.658 L2015.14 368.593 Q2013.36 369.427 2011.44 369.843 Q2009.54 370.26 2007.39 370.26 Q2001.53 370.26 1998.08 366.579 Q1994.63 362.899 1994.63 356.649 Q1994.63 350.306 1998.1 346.672 Q2001.6 343.038 2007.66 343.038 Q2009.63 343.038 2011.51 343.455 Q2013.38 343.848 2015.14 344.658 Z" fill="#000000" fill-rule="nonzero" fill-opacity="1" /><path clip-path="url(#clip300)" d="M2044.1 353.941 L2044.1 369.589 L2039.84 369.589 L2039.84 354.079 Q2039.84 350.399 2038.4 348.57 Q2036.97 346.742 2034.1 346.742 Q2030.65 346.742 2028.66 348.941 Q2026.67 351.14 2026.67 354.936 L2026.67 369.589 L2022.39 369.589 L2022.39 333.57 L2026.67 333.57 L2026.67 347.691 Q2028.2 345.353 2030.26 344.195 Q2032.34 343.038 2035.05 343.038 Q2039.52 343.038 2041.81 345.816 Q2044.1 348.57 2044.1 353.941 Z" fill="#000000" fill-rule="nonzero" fill-opacity="1" /><path clip-path="url(#clip300)" d="M2052.59 343.663 L2056.85 343.663 L2056.85 369.589 L2052.59 369.589 L2052.59 343.663 M2052.59 333.57 L2056.85 333.57 L2056.85 338.964 L2052.59 338.964 L2052.59 333.57 Z" fill="#000000" fill-rule="nonzero" fill-opacity="1" /><path clip-path="url(#clip300)" d="M2087.32 353.941 L2087.32 369.589 L2083.06 369.589 L2083.06 354.079 Q2083.06 350.399 2081.62 348.57 Q2080.19 346.742 2077.32 346.742 Q2073.87 346.742 2071.88 348.941 Q2069.89 351.14 2069.89 354.936 L2069.89 369.589 L2065.6 369.589 L2065.6 343.663 L2069.89 343.663 L2069.89 347.691 Q2071.41 345.353 2073.47 344.195 Q2075.56 343.038 2078.27 343.038 Q2082.73 343.038 2085.03 345.816 Q2087.32 348.57 2087.32 353.941 Z" fill="#000000" fill-rule="nonzero" fill-opacity="1" /><path clip-path="url(#clip300)" d="M2112.87 356.325 Q2112.87 351.695 2110.95 349.149 Q2109.05 346.603 2105.6 346.603 Q2102.18 346.603 2100.26 349.149 Q2098.36 351.695 2098.36 356.325 Q2098.36 360.931 2100.26 363.478 Q2102.18 366.024 2105.6 366.024 Q2109.05 366.024 2110.95 363.478 Q2112.87 360.931 2112.87 356.325 M2117.13 366.371 Q2117.13 372.991 2114.19 376.209 Q2111.25 379.45 2105.19 379.45 Q2102.94 379.45 2100.95 379.102 Q2098.96 378.778 2097.09 378.084 L2097.09 373.94 Q2098.96 374.959 2100.79 375.445 Q2102.62 375.931 2104.52 375.931 Q2108.71 375.931 2110.79 373.732 Q2112.87 371.556 2112.87 367.135 L2112.87 365.028 Q2111.55 367.32 2109.49 368.454 Q2107.43 369.589 2104.56 369.589 Q2099.79 369.589 2096.88 365.954 Q2093.96 362.32 2093.96 356.325 Q2093.96 350.306 2096.88 346.672 Q2099.79 343.038 2104.56 343.038 Q2107.43 343.038 2109.49 344.172 Q2111.55 345.306 2112.87 347.598 L2112.87 343.663 L2117.13 343.663 L2117.13 366.371 Z" fill="#000000" fill-rule="nonzero" fill-opacity="1" /><path clip-path="url(#clip300)" d="M2140.97 333.57 L2145.23 333.57 L2145.23 369.589 L2140.97 369.589 L2140.97 333.57 Z" fill="#000000" fill-rule="nonzero" fill-opacity="1" /><path clip-path="url(#clip300)" d="M2164.19 346.649 Q2160.77 346.649 2158.77 349.334 Q2156.78 351.996 2156.78 356.649 Q2156.78 361.302 2158.75 363.987 Q2160.74 366.649 2164.19 366.649 Q2167.59 366.649 2169.58 363.964 Q2171.58 361.278 2171.58 356.649 Q2171.58 352.042 2169.58 349.357 Q2167.59 346.649 2164.19 346.649 M2164.19 343.038 Q2169.75 343.038 2172.92 346.649 Q2176.09 350.26 2176.09 356.649 Q2176.09 363.015 2172.92 366.649 Q2169.75 370.26 2164.19 370.26 Q2158.61 370.26 2155.44 366.649 Q2152.29 363.015 2152.29 356.649 Q2152.29 350.26 2155.44 346.649 Q2158.61 343.038 2164.19 343.038 Z" fill="#000000" fill-rule="nonzero" fill-opacity="1" /><path clip-path="url(#clip300)" d="M2201.81 344.658 L2201.81 348.64 Q2200 347.644 2198.17 347.158 Q2196.37 346.649 2194.52 346.649 Q2190.37 346.649 2188.08 349.288 Q2185.79 351.904 2185.79 356.649 Q2185.79 361.394 2188.08 364.033 Q2190.37 366.649 2194.52 366.649 Q2196.37 366.649 2198.17 366.163 Q2200 365.653 2201.81 364.658 L2201.81 368.593 Q2200.02 369.427 2198.1 369.843 Q2196.2 370.26 2194.05 370.26 Q2188.2 370.26 2184.75 366.579 Q2181.3 362.899 2181.3 356.649 Q2181.3 350.306 2184.77 346.672 Q2188.27 343.038 2194.33 343.038 Q2196.3 343.038 2198.17 343.455 Q2200.05 343.848 2201.81 344.658 Z" fill="#000000" fill-rule="nonzero" fill-opacity="1" /><path clip-path="url(#clip300)" d="M2208.77 359.357 L2208.77 343.663 L2213.03 343.663 L2213.03 359.195 Q2213.03 362.876 2214.47 364.728 Q2215.9 366.556 2218.77 366.556 Q2222.22 366.556 2224.21 364.357 Q2226.23 362.158 2226.23 358.362 L2226.23 343.663 L2230.49 343.663 L2230.49 369.589 L2226.23 369.589 L2226.23 365.607 Q2224.68 367.968 2222.62 369.126 Q2220.58 370.26 2217.87 370.26 Q2213.4 370.26 2211.09 367.482 Q2208.77 364.704 2208.77 359.357 M2219.49 343.038 L2219.49 343.038 Z" fill="#000000" fill-rule="nonzero" fill-opacity="1" /><path clip-path="url(#clip300)" d="M2255.79 344.427 L2255.79 348.454 Q2253.98 347.529 2252.04 347.066 Q2250.09 346.603 2248.01 346.603 Q2244.84 346.603 2243.24 347.575 Q2241.67 348.547 2241.67 350.491 Q2241.67 351.973 2242.8 352.829 Q2243.94 353.663 2247.36 354.427 L2248.82 354.751 Q2253.36 355.723 2255.26 357.505 Q2257.18 359.265 2257.18 362.436 Q2257.18 366.047 2254.31 368.153 Q2251.46 370.26 2246.46 370.26 Q2244.38 370.26 2242.11 369.843 Q2239.86 369.45 2237.36 368.64 L2237.36 364.241 Q2239.72 365.468 2242.01 366.093 Q2244.31 366.695 2246.55 366.695 Q2249.56 366.695 2251.18 365.677 Q2252.8 364.635 2252.8 362.76 Q2252.8 361.024 2251.62 360.098 Q2250.46 359.172 2246.51 358.316 L2245.02 357.968 Q2241.07 357.135 2239.31 355.422 Q2237.55 353.686 2237.55 350.677 Q2237.55 347.019 2240.14 345.029 Q2242.73 343.038 2247.5 343.038 Q2249.86 343.038 2251.95 343.385 Q2254.03 343.732 2255.79 344.427 Z" fill="#000000" fill-rule="nonzero" fill-opacity="1" /><polyline clip-path="url(#clip300)" style="stroke:#008000; stroke-linecap:round; stroke-linejoin:round; stroke-width:12; stroke-opacity:1; fill:none" points="1732.09,404.149 1875.46,404.149 "/>
<path clip-path="url(#clip300)" d="M1899.35 411.197 L1899.35 395.503 L1903.61 395.503 L1903.61 411.035 Q1903.61 414.716 1905.05 416.568 Q1906.48 418.396 1909.35 418.396 Q1912.8 418.396 1914.79 416.197 Q1916.81 413.998 1916.81 410.202 L1916.81 395.503 L1921.07 395.503 L1921.07 421.429 L1916.81 421.429 L1916.81 417.447 Q1915.26 419.808 1913.2 420.966 Q1911.16 422.1 1908.45 422.1 Q1903.98 422.1 1901.67 419.322 Q1899.35 416.544 1899.35 411.197 M1910.07 394.878 L1910.07 394.878 Z" fill="#000000" fill-rule="nonzero" fill-opacity="1" /><path clip-path="url(#clip300)" d="M1939.68 406.961 L1939.68 409.206 Q1938.54 408.697 1937.32 408.443 Q1936.11 408.188 1934.79 408.188 Q1932.78 408.188 1931.79 408.72 Q1930.79 409.276 1930.79 410.364 Q1930.79 411.197 1931.51 411.66 Q1932.22 412.146 1934.38 412.563 L1935.3 412.748 Q1938.2 413.304 1939.35 414.276 Q1940.56 415.271 1940.56 417.054 Q1940.56 419.068 1938.75 420.248 Q1936.97 421.429 1933.82 421.429 Q1932.5 421.429 1931.07 421.197 Q1929.66 420.966 1928.08 420.526 L1928.08 418.049 Q1929.56 418.743 1931.02 419.091 Q1932.46 419.438 1933.87 419.438 Q1935.77 419.438 1936.79 418.859 Q1937.8 418.28 1937.8 417.239 Q1937.8 416.267 1937.06 415.734 Q1936.41 415.271 1933.85 414.739 L1932.92 414.554 Q1930.42 414.068 1929.31 413.118 Q1928.2 412.146 1928.2 410.456 Q1928.2 408.419 1929.84 407.308 Q1931.46 406.174 1934.47 406.174 Q1935.95 406.174 1937.27 406.382 Q1938.59 406.568 1939.68 406.961 Z" fill="#000000" fill-rule="nonzero" fill-opacity="1" /></svg>
