<?xml version="1.0" encoding="utf-8"?>
<svg xmlns="http://www.w3.org/2000/svg" xmlns:xlink="http://www.w3.org/1999/xlink" width="600" height="400" viewBox="0 0 2400 1600">
<defs>
  <clipPath id="clip290">
    <rect x="0" y="0" width="2400" height="1600"/>
  </clipPath>
</defs>
<path clip-path="url(#clip290)" d="M0 1600 L2400 1600 L2400 0 L0 0  Z" fill="#ffffff" fill-rule="evenodd" fill-opacity="1"/>
<defs>
  <clipPath id="clip291">
    <rect x="480" y="0" width="1681" height="1600"/>
  </clipPath>
</defs>
<path clip-path="url(#clip290)" d="M202.227 1423.18 L2352.76 1423.18 L2352.76 47.2441 L202.227 47.2441  Z" fill="#ffffff" fill-rule="evenodd" fill-opacity="1"/>
<defs>
  <clipPath id="clip292">
    <rect x="202" y="47" width="2152" height="1377"/>
  </clipPath>
</defs>
<polyline clip-path="url(#clip292)" style="stroke:#000000; stroke-linecap:round; stroke-linejoin:round; stroke-width:2; stroke-opacity:0.1; fill:none" points="202.227,1423.18 202.227,47.2441 "/>
<polyline clip-path="url(#clip292)" style="stroke:#000000; stroke-linecap:round; stroke-linejoin:round; stroke-width:2; stroke-opacity:0.1; fill:none" points="739.86,1423.18 739.86,47.2441 "/>
<polyline clip-path="url(#clip292)" style="stroke:#000000; stroke-linecap:round; stroke-linejoin:round; stroke-width:2; stroke-opacity:0.1; fill:none" points="1277.49,1423.18 1277.49,47.2441 "/>
<polyline clip-path="url(#clip292)" style="stroke:#000000; stroke-linecap:round; stroke-linejoin:round; stroke-width:2; stroke-opacity:0.1; fill:none" points="1815.12,1423.18 1815.12,47.2441 "/>
<polyline clip-path="url(#clip292)" style="stroke:#000000; stroke-linecap:round; stroke-linejoin:round; stroke-width:2; stroke-opacity:0.1; fill:none" points="2352.76,1423.18 2352.76,47.2441 "/>
<polyline clip-path="url(#clip292)" style="stroke:#000000; stroke-linecap:round; stroke-linejoin:round; stroke-width:2; stroke-opacity:0.1; fill:none" points="202.227,1423.18 2352.76,1423.18 "/>
<polyline clip-path="url(#clip292)" style="stroke:#000000; stroke-linecap:round; stroke-linejoin:round; stroke-width:2; stroke-opacity:0.1; fill:none" points="202.227,1147.99 2352.76,1147.99 "/>
<polyline clip-path="url(#clip292)" style="stroke:#000000; stroke-linecap:round; stroke-linejoin:round; stroke-width:2; stroke-opacity:0.1; fill:none" points="202.227,872.806 2352.76,872.806 "/>
<polyline clip-path="url(#clip292)" style="stroke:#000000; stroke-linecap:round; stroke-linejoin:round; stroke-width:2; stroke-opacity:0.1; fill:none" points="202.227,597.618 2352.76,597.618 "/>
<polyline clip-path="url(#clip292)" style="stroke:#000000; stroke-linecap:round; stroke-linejoin:round; stroke-width:2; stroke-opacity:0.1; fill:none" points="202.227,322.431 2352.76,322.431 "/>
<polyline clip-path="url(#clip292)" style="stroke:#000000; stroke-linecap:round; stroke-linejoin:round; stroke-width:2; stroke-opacity:0.1; fill:none" points="202.227,47.2441 2352.76,47.2441 "/>
<polyline clip-path="url(#clip290)" style="stroke:#000000; stroke-linecap:round; stroke-linejoin:round; stroke-width:4; stroke-opacity:1; fill:none" points="202.227,1423.18 2352.76,1423.18 "/>
<polyline clip-path="url(#clip290)" style="stroke:#000000; stroke-linecap:round; stroke-linejoin:round; stroke-width:4; stroke-opacity:1; fill:none" points="202.227,1423.18 202.227,1404.28 "/>
<polyline clip-path="url(#clip290)" style="stroke:#000000; stroke-linecap:round; stroke-linejoin:round; stroke-width:4; stroke-opacity:1; fill:none" points="739.86,1423.18 739.86,1404.28 "/>
<polyline clip-path="url(#clip290)" style="stroke:#000000; stroke-linecap:round; stroke-linejoin:round; stroke-width:4; stroke-opacity:1; fill:none" points="1277.49,1423.18 1277.49,1404.28 "/>
<polyline clip-path="url(#clip290)" style="stroke:#000000; stroke-linecap:round; stroke-linejoin:round; stroke-width:4; stroke-opacity:1; fill:none" points="1815.12,1423.18 1815.12,1404.28 "/>
<polyline clip-path="url(#clip290)" style="stroke:#000000; stroke-linecap:round; stroke-linejoin:round; stroke-width:4; stroke-opacity:1; fill:none" points="2352.76,1423.18 2352.76,1404.28 "/>
<path clip-path="url(#clip290)" d="M202.227 1454.1 Q198.616 1454.1 196.788 1457.66 Q194.982 1461.2 194.982 1468.33 Q194.982 1475.44 196.788 1479.01 Q198.616 1482.55 202.227 1482.55 Q205.862 1482.55 207.667 1479.01 Q209.496 1475.44 209.496 1468.33 Q209.496 1461.2 207.667 1457.66 Q205.862 1454.1 202.227 1454.1 M202.227 1450.39 Q208.038 1450.39 211.093 1455 Q214.172 1459.58 214.172 1468.33 Q214.172 1477.06 211.093 1481.67 Q208.038 1486.25 202.227 1486.25 Q196.417 1486.25 193.339 1481.67 Q190.283 1477.06 190.283 1468.33 Q190.283 1459.58 193.339 1455 Q196.417 1450.39 202.227 1450.39 Z" fill="#000000" fill-rule="nonzero" fill-opacity="1" /><path clip-path="url(#clip290)" d="M714.547 1481.64 L722.186 1481.64 L722.186 1455.28 L713.876 1456.95 L713.876 1452.69 L722.14 1451.02 L726.816 1451.02 L726.816 1481.64 L734.455 1481.64 L734.455 1485.58 L714.547 1485.58 L714.547 1481.64 Z" fill="#000000" fill-rule="nonzero" fill-opacity="1" /><path clip-path="url(#clip290)" d="M753.899 1454.1 Q750.288 1454.1 748.459 1457.66 Q746.654 1461.2 746.654 1468.33 Q746.654 1475.44 748.459 1479.01 Q750.288 1482.55 753.899 1482.55 Q757.533 1482.55 759.339 1479.01 Q761.167 1475.44 761.167 1468.33 Q761.167 1461.2 759.339 1457.66 Q757.533 1454.1 753.899 1454.1 M753.899 1450.39 Q759.709 1450.39 762.765 1455 Q765.843 1459.58 765.843 1468.33 Q765.843 1477.06 762.765 1481.67 Q759.709 1486.25 753.899 1486.25 Q748.089 1486.25 745.01 1481.67 Q741.954 1477.06 741.954 1468.33 Q741.954 1459.58 745.01 1455 Q748.089 1450.39 753.899 1450.39 Z" fill="#000000" fill-rule="nonzero" fill-opacity="1" /><path clip-path="url(#clip290)" d="M1256.26 1481.64 L1272.58 1481.64 L1272.58 1485.58 L1250.64 1485.58 L1250.64 1481.64 Q1253.3 1478.89 1257.89 1474.26 Q1262.49 1469.61 1263.67 1468.27 Q1265.92 1465.74 1266.8 1464.01 Q1267.7 1462.25 1267.7 1460.56 Q1267.7 1457.8 1265.76 1456.07 Q1263.83 1454.33 1260.73 1454.33 Q1258.53 1454.33 1256.08 1455.09 Q1253.65 1455.86 1250.87 1457.41 L1250.87 1452.69 Q1253.7 1451.55 1256.15 1450.97 Q1258.6 1450.39 1260.64 1450.39 Q1266.01 1450.39 1269.2 1453.08 Q1272.4 1455.77 1272.4 1460.26 Q1272.4 1462.39 1271.59 1464.31 Q1270.8 1466.2 1268.7 1468.8 Q1268.12 1469.47 1265.01 1472.69 Q1261.91 1475.88 1256.26 1481.64 Z" fill="#000000" fill-rule="nonzero" fill-opacity="1" /><path clip-path="url(#clip290)" d="M1292.4 1454.1 Q1288.79 1454.1 1286.96 1457.66 Q1285.15 1461.2 1285.15 1468.33 Q1285.15 1475.44 1286.96 1479.01 Q1288.79 1482.55 1292.4 1482.55 Q1296.03 1482.55 1297.84 1479.01 Q1299.67 1475.44 1299.67 1468.33 Q1299.67 1461.2 1297.84 1457.66 Q1296.03 1454.1 1292.4 1454.1 M1292.4 1450.39 Q1298.21 1450.39 1301.26 1455 Q1304.34 1459.58 1304.34 1468.33 Q1304.34 1477.06 1301.26 1481.67 Q1298.21 1486.25 1292.4 1486.25 Q1286.59 1486.25 1283.51 1481.67 Q1280.45 1477.06 1280.45 1468.33 Q1280.45 1459.58 1283.51 1455 Q1286.59 1450.39 1292.4 1450.39 Z" fill="#000000" fill-rule="nonzero" fill-opacity="1" /><path clip-path="url(#clip290)" d="M1803.97 1466.95 Q1807.32 1467.66 1809.2 1469.93 Q1811.1 1472.2 1811.1 1475.53 Q1811.1 1480.65 1807.58 1483.45 Q1804.06 1486.25 1797.58 1486.25 Q1795.4 1486.25 1793.09 1485.81 Q1790.8 1485.39 1788.34 1484.54 L1788.34 1480.02 Q1790.29 1481.16 1792.6 1481.74 Q1794.92 1482.32 1797.44 1482.32 Q1801.84 1482.32 1804.13 1480.58 Q1806.44 1478.84 1806.44 1475.53 Q1806.44 1472.48 1804.29 1470.77 Q1802.16 1469.03 1798.34 1469.03 L1794.31 1469.03 L1794.31 1465.19 L1798.53 1465.19 Q1801.98 1465.19 1803.8 1463.82 Q1805.63 1462.43 1805.63 1459.84 Q1805.63 1457.18 1803.73 1455.77 Q1801.86 1454.33 1798.34 1454.33 Q1796.42 1454.33 1794.22 1454.75 Q1792.02 1455.16 1789.38 1456.04 L1789.38 1451.88 Q1792.05 1451.14 1794.36 1450.77 Q1796.7 1450.39 1798.76 1450.39 Q1804.08 1450.39 1807.18 1452.83 Q1810.29 1455.23 1810.29 1459.35 Q1810.29 1462.22 1808.64 1464.21 Q1807 1466.18 1803.97 1466.95 Z" fill="#000000" fill-rule="nonzero" fill-opacity="1" /><path clip-path="url(#clip290)" d="M1829.96 1454.1 Q1826.35 1454.1 1824.52 1457.66 Q1822.72 1461.2 1822.72 1468.33 Q1822.72 1475.44 1824.52 1479.01 Q1826.35 1482.55 1829.96 1482.55 Q1833.6 1482.55 1835.4 1479.01 Q1837.23 1475.44 1837.23 1468.33 Q1837.23 1461.2 1835.4 1457.66 Q1833.6 1454.1 1829.96 1454.1 M1829.96 1450.39 Q1835.77 1450.39 1838.83 1455 Q1841.91 1459.58 1841.91 1468.33 Q1841.91 1477.06 1838.83 1481.67 Q1835.77 1486.25 1829.96 1486.25 Q1824.15 1486.25 1821.07 1481.67 Q1818.02 1477.06 1818.02 1468.33 Q1818.02 1459.58 1821.07 1455 Q1824.15 1450.39 1829.96 1450.39 Z" fill="#000000" fill-rule="nonzero" fill-opacity="1" /><path clip-path="url(#clip290)" d="M2340.93 1455.09 L2329.12 1473.54 L2340.93 1473.54 L2340.93 1455.09 M2339.7 1451.02 L2345.58 1451.02 L2345.58 1473.54 L2350.51 1473.54 L2350.51 1477.43 L2345.58 1477.43 L2345.58 1485.58 L2340.93 1485.58 L2340.93 1477.43 L2325.33 1477.43 L2325.33 1472.92 L2339.7 1451.02 Z" fill="#000000" fill-rule="nonzero" fill-opacity="1" /><path clip-path="url(#clip290)" d="M2368.24 1454.1 Q2364.63 1454.1 2362.8 1457.66 Q2361 1461.2 2361 1468.33 Q2361 1475.44 2362.8 1479.01 Q2364.63 1482.55 2368.24 1482.55 Q2371.88 1482.55 2373.68 1479.01 Q2375.51 1475.44 2375.51 1468.33 Q2375.51 1461.2 2373.68 1457.66 Q2371.88 1454.1 2368.24 1454.1 M2368.24 1450.39 Q2374.05 1450.39 2377.11 1455 Q2380.19 1459.58 2380.19 1468.33 Q2380.19 1477.06 2377.11 1481.67 Q2374.05 1486.25 2368.24 1486.25 Q2362.43 1486.25 2359.35 1481.67 Q2356.3 1477.06 2356.3 1468.33 Q2356.3 1459.58 2359.35 1455 Q2362.43 1450.39 2368.24 1450.39 Z" fill="#000000" fill-rule="nonzero" fill-opacity="1" /><path clip-path="url(#clip290)" d="M1151.86 1520.52 L1192.06 1520.52 L1192.06 1525.93 L1175.19 1525.93 L1175.19 1568.04 L1168.73 1568.04 L1168.73 1525.93 L1151.86 1525.93 L1151.86 1520.52 Z" fill="#000000" fill-rule="nonzero" fill-opacity="1" /><path clip-path="url(#clip290)" d="M1196.01 1532.4 L1201.87 1532.4 L1201.87 1568.04 L1196.01 1568.04 L1196.01 1532.4 M1196.01 1518.52 L1201.87 1518.52 L1201.87 1525.93 L1196.01 1525.93 L1196.01 1518.52 Z" fill="#000000" fill-rule="nonzero" fill-opacity="1" /><path clip-path="url(#clip290)" d="M1241.88 1539.24 Q1244.07 1535.29 1247.13 1533.41 Q1250.18 1531.54 1254.32 1531.54 Q1259.89 1531.54 1262.91 1535.45 Q1265.94 1539.33 1265.94 1546.53 L1265.94 1568.04 L1260.05 1568.04 L1260.05 1546.72 Q1260.05 1541.59 1258.24 1539.11 Q1256.42 1536.63 1252.7 1536.63 Q1248.15 1536.63 1245.5 1539.65 Q1242.86 1542.68 1242.86 1547.9 L1242.86 1568.04 L1236.97 1568.04 L1236.97 1546.72 Q1236.97 1541.56 1235.16 1539.11 Q1233.35 1536.63 1229.56 1536.63 Q1225.07 1536.63 1222.43 1539.68 Q1219.79 1542.71 1219.79 1547.9 L1219.79 1568.04 L1213.9 1568.04 L1213.9 1532.4 L1219.79 1532.4 L1219.79 1537.93 Q1221.79 1534.66 1224.59 1533.1 Q1227.39 1531.54 1231.24 1531.54 Q1235.13 1531.54 1237.83 1533.51 Q1240.57 1535.48 1241.88 1539.24 Z" fill="#000000" fill-rule="nonzero" fill-opacity="1" /><path clip-path="url(#clip290)" d="M1308.11 1548.76 L1308.11 1551.62 L1281.18 1551.62 Q1281.57 1557.67 1284.81 1560.85 Q1288.09 1564 1293.92 1564 Q1297.29 1564 1300.44 1563.17 Q1303.62 1562.35 1306.74 1560.69 L1306.74 1566.23 Q1303.59 1567.57 1300.28 1568.27 Q1296.97 1568.97 1293.57 1568.97 Q1285.04 1568.97 1280.04 1564 Q1275.07 1559.04 1275.07 1550.57 Q1275.07 1541.82 1279.78 1536.69 Q1284.53 1531.54 1292.55 1531.54 Q1299.74 1531.54 1303.91 1536.18 Q1308.11 1540.8 1308.11 1548.76 M1302.25 1547.04 Q1302.19 1542.23 1299.55 1539.37 Q1296.94 1536.5 1292.61 1536.5 Q1287.71 1536.5 1284.75 1539.27 Q1281.82 1542.04 1281.37 1547.07 L1302.25 1547.04 Z" fill="#000000" fill-rule="nonzero" fill-opacity="1" /><path clip-path="url(#clip290)" d="M1352.51 1518.58 Q1348.25 1525.9 1346.18 1533.06 Q1344.11 1540.23 1344.11 1547.58 Q1344.11 1554.93 1346.18 1562.16 Q1348.28 1569.35 1352.51 1576.64 L1347.42 1576.64 Q1342.64 1569.16 1340.26 1561.93 Q1337.9 1554.71 1337.9 1547.58 Q1337.9 1540.48 1340.26 1533.29 Q1342.61 1526.09 1347.42 1518.58 L1352.51 1518.58 Z" fill="#000000" fill-rule="nonzero" fill-opacity="1" /><path clip-path="url(#clip290)" d="M1369.67 1522.27 L1369.67 1532.4 L1381.73 1532.4 L1381.73 1536.95 L1369.67 1536.95 L1369.67 1556.3 Q1369.67 1560.66 1370.84 1561.9 Q1372.05 1563.14 1375.71 1563.14 L1381.73 1563.14 L1381.73 1568.04 L1375.71 1568.04 Q1368.94 1568.04 1366.36 1565.53 Q1363.78 1562.98 1363.78 1556.3 L1363.78 1536.95 L1359.48 1536.95 L1359.48 1532.4 L1363.78 1532.4 L1363.78 1522.27 L1369.67 1522.27 Z" fill="#000000" fill-rule="nonzero" fill-opacity="1" /><path clip-path="url(#clip290)" d="M1388.51 1518.58 L1393.6 1518.58 Q1398.38 1526.09 1400.73 1533.29 Q1403.12 1540.48 1403.12 1547.58 Q1403.12 1554.71 1400.73 1561.93 Q1398.38 1569.16 1393.6 1576.64 L1388.51 1576.64 Q1392.74 1569.35 1394.81 1562.16 Q1396.91 1554.93 1396.91 1547.58 Q1396.91 1540.23 1394.81 1533.06 Q1392.74 1525.9 1388.51 1518.58 Z" fill="#000000" fill-rule="nonzero" fill-opacity="1" /><polyline clip-path="url(#clip290)" style="stroke:#000000; stroke-linecap:round; stroke-linejoin:round; stroke-width:4; stroke-opacity:1; fill:none" points="202.227,1423.18 202.227,47.2441 "/>
<polyline clip-path="url(#clip290)" style="stroke:#000000; stroke-linecap:round; stroke-linejoin:round; stroke-width:4; stroke-opacity:1; fill:none" points="202.227,1423.18 221.125,1423.18 "/>
<polyline clip-path="url(#clip290)" style="stroke:#000000; stroke-linecap:round; stroke-linejoin:round; stroke-width:4; stroke-opacity:1; fill:none" points="202.227,1147.99 221.125,1147.99 "/>
<polyline clip-path="url(#clip290)" style="stroke:#000000; stroke-linecap:round; stroke-linejoin:round; stroke-width:4; stroke-opacity:1; fill:none" points="202.227,872.806 221.125,872.806 "/>
<polyline clip-path="url(#clip290)" style="stroke:#000000; stroke-linecap:round; stroke-linejoin:round; stroke-width:4; stroke-opacity:1; fill:none" points="202.227,597.618 221.125,597.618 "/>
<polyline clip-path="url(#clip290)" style="stroke:#000000; stroke-linecap:round; stroke-linejoin:round; stroke-width:4; stroke-opacity:1; fill:none" points="202.227,322.431 221.125,322.431 "/>
<polyline clip-path="url(#clip290)" style="stroke:#000000; stroke-linecap:round; stroke-linejoin:round; stroke-width:4; stroke-opacity:1; fill:none" points="202.227,47.2441 221.125,47.2441 "/>
<path clip-path="url(#clip290)" d="M154.283 1408.98 Q150.672 1408.98 148.843 1412.54 Q147.038 1416.08 147.038 1423.21 Q147.038 1430.32 148.843 1433.89 Q150.672 1437.43 154.283 1437.43 Q157.917 1437.43 159.723 1433.89 Q161.552 1430.32 161.552 1423.21 Q161.552 1416.08 159.723 1412.54 Q157.917 1408.98 154.283 1408.98 M154.283 1405.27 Q160.093 1405.27 163.149 1409.88 Q166.227 1414.46 166.227 1423.21 Q166.227 1431.94 163.149 1436.55 Q160.093 1441.13 154.283 1441.13 Q148.473 1441.13 145.394 1436.55 Q142.339 1431.94 142.339 1423.21 Q142.339 1414.46 145.394 1409.88 Q148.473 1405.27 154.283 1405.27 Z" fill="#000000" fill-rule="nonzero" fill-opacity="1" /><path clip-path="url(#clip290)" d="M149.908 1161.34 L166.227 1161.34 L166.227 1165.27 L144.283 1165.27 L144.283 1161.34 Q146.945 1158.58 151.528 1153.95 Q156.135 1149.3 157.315 1147.96 Q159.561 1145.43 160.44 1143.7 Q161.343 1141.94 161.343 1140.25 Q161.343 1137.5 159.399 1135.76 Q157.478 1134.02 154.376 1134.02 Q152.177 1134.02 149.723 1134.79 Q147.292 1135.55 144.515 1137.1 L144.515 1132.38 Q147.339 1131.25 149.792 1130.67 Q152.246 1130.09 154.283 1130.09 Q159.653 1130.09 162.848 1132.77 Q166.042 1135.46 166.042 1139.95 Q166.042 1142.08 165.232 1144 Q164.445 1145.9 162.339 1148.49 Q161.76 1149.16 158.658 1152.38 Q155.556 1155.57 149.908 1161.34 Z" fill="#000000" fill-rule="nonzero" fill-opacity="1" /><path clip-path="url(#clip290)" d="M156.644 859.6 L144.839 878.049 L156.644 878.049 L156.644 859.6 M155.417 855.526 L161.297 855.526 L161.297 878.049 L166.227 878.049 L166.227 881.937 L161.297 881.937 L161.297 890.086 L156.644 890.086 L156.644 881.937 L141.042 881.937 L141.042 877.424 L155.417 855.526 Z" fill="#000000" fill-rule="nonzero" fill-opacity="1" /><path clip-path="url(#clip290)" d="M154.7 595.755 Q151.552 595.755 149.7 597.908 Q147.871 600.061 147.871 603.81 Q147.871 607.537 149.7 609.713 Q151.552 611.866 154.7 611.866 Q157.848 611.866 159.677 609.713 Q161.528 607.537 161.528 603.81 Q161.528 600.061 159.677 597.908 Q157.848 595.755 154.7 595.755 M163.982 581.102 L163.982 585.362 Q162.223 584.528 160.417 584.088 Q158.635 583.649 156.876 583.649 Q152.246 583.649 149.792 586.774 Q147.362 589.899 147.015 596.218 Q148.38 594.204 150.441 593.139 Q152.501 592.051 154.978 592.051 Q160.186 592.051 163.195 595.223 Q166.227 598.371 166.227 603.81 Q166.227 609.135 163.079 612.352 Q159.931 615.57 154.7 615.57 Q148.704 615.57 145.533 610.986 Q142.362 606.38 142.362 597.653 Q142.362 589.459 146.251 584.598 Q150.14 579.713 156.69 579.713 Q158.45 579.713 160.232 580.061 Q162.038 580.408 163.982 581.102 Z" fill="#000000" fill-rule="nonzero" fill-opacity="1" /><path clip-path="url(#clip290)" d="M154.376 323.299 Q151.042 323.299 149.121 325.082 Q147.223 326.864 147.223 329.989 Q147.223 333.114 149.121 334.896 Q151.042 336.679 154.376 336.679 Q157.709 336.679 159.63 334.896 Q161.552 333.091 161.552 329.989 Q161.552 326.864 159.63 325.082 Q157.732 323.299 154.376 323.299 M149.7 321.309 Q146.691 320.568 145.001 318.508 Q143.334 316.447 143.334 313.485 Q143.334 309.341 146.274 306.934 Q149.237 304.526 154.376 304.526 Q159.538 304.526 162.477 306.934 Q165.417 309.341 165.417 313.485 Q165.417 316.447 163.727 318.508 Q162.061 320.568 159.075 321.309 Q162.454 322.096 164.329 324.387 Q166.227 326.679 166.227 329.989 Q166.227 335.012 163.149 337.697 Q160.093 340.383 154.376 340.383 Q148.658 340.383 145.579 337.697 Q142.524 335.012 142.524 329.989 Q142.524 326.679 144.422 324.387 Q146.32 322.096 149.7 321.309 M147.987 313.924 Q147.987 316.61 149.653 318.114 Q151.343 319.619 154.376 319.619 Q157.385 319.619 159.075 318.114 Q160.788 316.61 160.788 313.924 Q160.788 311.239 159.075 309.735 Q157.385 308.23 154.376 308.23 Q151.343 308.23 149.653 309.735 Q147.987 311.239 147.987 313.924 Z" fill="#000000" fill-rule="nonzero" fill-opacity="1" /><path clip-path="url(#clip290)" d="M114.931 60.5889 L122.57 60.5889 L122.57 34.2233 L114.26 35.89 L114.26 31.6308 L122.524 29.9641 L127.2 29.9641 L127.2 60.5889 L134.839 60.5889 L134.839 64.5241 L114.931 64.5241 L114.931 60.5889 Z" fill="#000000" fill-rule="nonzero" fill-opacity="1" /><path clip-path="url(#clip290)" d="M154.283 33.0428 Q150.672 33.0428 148.843 36.6076 Q147.038 40.1492 147.038 47.2788 Q147.038 54.3853 148.843 57.9501 Q150.672 61.4917 154.283 61.4917 Q157.917 61.4917 159.723 57.9501 Q161.552 54.3853 161.552 47.2788 Q161.552 40.1492 159.723 36.6076 Q157.917 33.0428 154.283 33.0428 M154.283 29.3391 Q160.093 29.3391 163.149 33.9456 Q166.227 38.5289 166.227 47.2788 Q166.227 56.0056 163.149 60.6121 Q160.093 65.1954 154.283 65.1954 Q148.473 65.1954 145.394 60.6121 Q142.339 56.0056 142.339 47.2788 Q142.339 38.5289 145.394 33.9456 Q148.473 29.3391 154.283 29.3391 Z" fill="#000000" fill-rule="nonzero" fill-opacity="1" /><path clip-path="url(#clip290)" d="M16.4842 878.806 L16.4842 869.226 L48.8219 857.099 L16.4842 844.909 L16.4842 835.329 L64.0042 835.329 L64.0042 841.599 L22.277 841.599 L54.8694 853.853 L54.8694 860.314 L22.277 872.568 L64.0042 872.568 L64.0042 878.806 L16.4842 878.806 Z" fill="#000000" fill-rule="nonzero" fill-opacity="1" /><path clip-path="url(#clip290)" d="M46.0847 806.619 Q46.0847 813.717 47.7079 816.454 Q49.3312 819.192 53.2461 819.192 Q56.3653 819.192 58.2114 817.155 Q60.0256 815.086 60.0256 811.553 Q60.0256 806.683 56.5881 803.755 Q53.1188 800.795 47.3897 800.795 L46.0847 800.795 L46.0847 806.619 M43.6657 794.938 L64.0042 794.938 L64.0042 800.795 L58.5933 800.795 Q61.8398 802.8 63.3994 805.792 Q64.9272 808.784 64.9272 813.112 Q64.9272 818.587 61.8716 821.833 Q58.7843 825.048 53.6281 825.048 Q47.6125 825.048 44.5569 821.038 Q41.5014 816.995 41.5014 809.006 L41.5014 800.795 L40.9285 800.795 Q36.8862 800.795 34.6901 803.468 Q32.4621 806.11 32.4621 810.916 Q32.4621 813.972 33.1941 816.868 Q33.9262 819.764 35.3903 822.438 L29.9795 822.438 Q28.7381 819.223 28.1334 816.2 Q27.4968 813.176 27.4968 810.311 Q27.4968 802.577 31.5072 798.758 Q35.5176 794.938 43.6657 794.938 Z" fill="#000000" fill-rule="nonzero" fill-opacity="1" /><path clip-path="url(#clip290)" d="M29.4065 760.15 L34.9447 760.15 Q33.6716 762.632 33.035 765.306 Q32.3984 767.979 32.3984 770.844 Q32.3984 775.205 33.7352 777.401 Q35.072 779.565 37.7456 779.565 Q39.7826 779.565 40.9603 778.005 Q42.1061 776.446 43.1565 771.735 L43.6021 769.73 Q44.9389 763.492 47.3897 760.882 Q49.8086 758.24 54.1691 758.24 Q59.1344 758.24 62.0308 762.187 Q64.9272 766.102 64.9272 772.977 Q64.9272 775.841 64.3543 778.96 Q63.8132 782.048 62.6992 785.485 L56.6518 785.485 Q58.3387 782.239 59.198 779.088 Q60.0256 775.937 60.0256 772.849 Q60.0256 768.711 58.6251 766.484 Q57.1929 764.256 54.6147 764.256 Q52.2276 764.256 50.9545 765.879 Q49.6813 767.47 48.5037 772.913 L48.0262 774.95 Q46.8804 780.393 44.5251 782.812 Q42.138 785.231 38.0002 785.231 Q32.9713 785.231 30.2341 781.666 Q27.4968 778.101 27.4968 771.544 Q27.4968 768.298 27.9743 765.433 Q28.4517 762.569 29.4065 760.15 Z" fill="#000000" fill-rule="nonzero" fill-opacity="1" /><path clip-path="url(#clip290)" d="M29.4065 726.189 L34.9447 726.189 Q33.6716 728.671 33.035 731.345 Q32.3984 734.018 32.3984 736.883 Q32.3984 741.243 33.7352 743.44 Q35.072 745.604 37.7456 745.604 Q39.7826 745.604 40.9603 744.044 Q42.1061 742.485 43.1565 737.774 L43.6021 735.769 Q44.9389 729.531 47.3897 726.921 Q49.8086 724.279 54.1691 724.279 Q59.1344 724.279 62.0308 728.226 Q64.9272 732.141 64.9272 739.015 Q64.9272 741.88 64.3543 744.999 Q63.8132 748.087 62.6992 751.524 L56.6518 751.524 Q58.3387 748.278 59.198 745.127 Q60.0256 741.976 60.0256 738.888 Q60.0256 734.75 58.6251 732.522 Q57.1929 730.294 54.6147 730.294 Q52.2276 730.294 50.9545 731.918 Q49.6813 733.509 48.5037 738.952 L48.0262 740.989 Q46.8804 746.432 44.5251 748.85 Q42.138 751.269 38.0002 751.269 Q32.9713 751.269 30.2341 747.705 Q27.4968 744.14 27.4968 737.583 Q27.4968 734.337 27.9743 731.472 Q28.4517 728.608 29.4065 726.189 Z" fill="#000000" fill-rule="nonzero" fill-opacity="1" /><path clip-path="url(#clip290)" d="M14.5426 680.165 Q21.8632 684.43 29.0246 686.498 Q36.186 688.567 43.5384 688.567 Q50.8908 688.567 58.1159 686.498 Q65.3091 684.398 72.5979 680.165 L72.5979 685.257 Q65.1182 690.031 57.8931 692.419 Q50.668 694.774 43.5384 694.774 Q36.4406 694.774 29.2474 692.419 Q22.0542 690.063 14.5426 685.257 L14.5426 680.165 Z" fill="#000000" fill-rule="nonzero" fill-opacity="1" /><path clip-path="url(#clip290)" d="M35.1993 641.047 Q31.2526 638.851 29.3747 635.796 Q27.4968 632.74 27.4968 628.602 Q27.4968 623.032 31.4117 620.009 Q35.2948 616.985 42.4881 616.985 L64.0042 616.985 L64.0042 622.873 L42.679 622.873 Q37.5546 622.873 35.072 624.687 Q32.5894 626.502 32.5894 630.226 Q32.5894 634.777 35.6131 637.419 Q38.6368 640.061 43.8567 640.061 L64.0042 640.061 L64.0042 645.949 L42.679 645.949 Q37.5228 645.949 35.072 647.763 Q32.5894 649.577 32.5894 653.365 Q32.5894 657.853 35.6449 660.494 Q38.6686 663.136 43.8567 663.136 L64.0042 663.136 L64.0042 669.025 L28.3562 669.025 L28.3562 663.136 L33.8944 663.136 Q30.616 661.131 29.0564 658.33 Q27.4968 655.529 27.4968 651.678 Q27.4968 647.795 29.4702 645.089 Q31.4436 642.352 35.1993 641.047 Z" fill="#000000" fill-rule="nonzero" fill-opacity="1" /><path clip-path="url(#clip290)" d="M14.5426 606.227 L14.5426 601.134 Q22.0542 596.36 29.2474 594.005 Q36.4406 591.618 43.5384 591.618 Q50.668 591.618 57.8931 594.005 Q65.1182 596.36 72.5979 601.134 L72.5979 606.227 Q65.3091 601.994 58.1159 599.925 Q50.8908 597.824 43.5384 597.824 Q36.186 597.824 29.0246 599.925 Q21.8632 601.994 14.5426 606.227 Z" fill="#000000" fill-rule="nonzero" fill-opacity="1" /><path clip-path="url(#clip292)" d="M202.227 1010.4 L1062.44 1010.4 L1062.44 1010.4 L1062.13 1010.59 L1059.09 1012.54 L1029.55 1031.86 L951.254 1086.84 L836.436 1181.64 L714.64 1320.01 L661.778 1416.76 L659.215 1423.18 L659.215 1423.18 L202.227 1423.18 L202.227 1010.4  Z" fill="#a52a2a" fill-rule="evenodd" fill-opacity="0.35"/>
<polyline clip-path="url(#clip292)" style="stroke:#000000; stroke-linecap:round; stroke-linejoin:round; stroke-width:4; stroke-opacity:0; fill:none" points="202.227,1010.4 1062.44,1010.4 1062.13,1010.59 1059.09,1012.54 1029.55,1031.86 951.254,1086.84 836.436,1181.64 714.64,1320.01 661.778,1416.76 659.215,1423.18 202.227,1423.18 202.227,1010.4 "/>
<path clip-path="url(#clip292)" d="M202.227 1010.4 L1062.44 1010.4 L1062.44 1010.4 L1062.13 1009.82 L1059.09 1003.97 L1035.96 958.831 L978.5 842.533 L885.511 644.863 L756.157 357.103 L621.366 47.2441 L621.366 47.2441 L202.227 47.2441 L202.227 1010.4  Z" fill="#0000ff" fill-rule="evenodd" fill-opacity="0.35"/>
<polyline clip-path="url(#clip292)" style="stroke:#000000; stroke-linecap:round; stroke-linejoin:round; stroke-width:4; stroke-opacity:0; fill:none" points="202.227,1010.4 1062.44,1010.4 1062.13,1009.82 1059.09,1003.97 1035.96,958.831 978.5,842.533 885.511,644.863 756.157,357.103 621.366,47.2441 202.227,47.2441 202.227,1010.4 "/>
<path clip-path="url(#clip292)" d="M621.366 47.2441 L621.366 47.2441 L756.157 357.103 L885.511 644.863 L978.5 842.533 L1035.96 958.831 L1059.09 1003.97 L1062.13 1009.82 L1062.44 1010.4 L1062.44 1010.4 L1085.5 994.055 L1125.63 953.122 L1153.89 893.441 L1158.89 812.973 L1132.35 702.036 L1099.34 621.234 L1099.34 621.234 L1099.34 621.234 L1094.08 614.979 L1092.32 610.838 L1074.09 569.427 L1042.96 502.19 L979.58 370.133 L915.945 240.247 L820.219 47.2441 L202.227 47.2441 L621.366 47.2441  Z" fill="#9acd32" fill-rule="evenodd" fill-opacity="0.35"/>
<polyline clip-path="url(#clip292)" style="stroke:#000000; stroke-linecap:round; stroke-linejoin:round; stroke-width:4; stroke-opacity:0; fill:none" points="621.366,47.2441 621.366,47.2441 756.157,357.103 885.511,644.863 978.5,842.533 1035.96,958.831 1059.09,1003.97 1062.13,1009.82 1062.44,1010.4 1085.5,994.055 1125.63,953.122 1153.89,893.441 1158.89,812.973 1132.35,702.036 1099.34,621.234 1094.08,614.979 1092.32,610.838 1074.09,569.427 1042.96,502.19 979.58,370.133 915.945,240.247 820.219,47.2441 202.227,47.2441 621.366,47.2441 "/>
<path clip-path="url(#clip292)" d="M659.215 1423.18 L659.215 1423.18 L661.778 1416.76 L714.64 1320.01 L836.436 1181.64 L951.254 1086.84 L1029.55 1031.86 L1059.09 1012.54 L1062.13 1010.59 L1062.44 1010.4 L1062.44 1010.4 L1085.5 994.055 L1125.63 953.122 L1153.89 893.441 L1158.89 812.973 L1132.35 702.036 L1099.34 621.234 L1099.34 621.234 L1099.34 621.234 L1094.08 614.979 L1092.32 610.838 L1074.09 569.427 L1042.96 502.19 L979.58 370.133 L915.945 240.247 L820.219 47.2441 L202.227 47.2441 L2352.76 47.2441 L2352.76 1423.18 L202.227 1423.18 L659.215 1423.18  Z" fill="#ff0000" fill-rule="evenodd" fill-opacity="0.35"/>
<polyline clip-path="url(#clip292)" style="stroke:#000000; stroke-linecap:round; stroke-linejoin:round; stroke-width:4; stroke-opacity:0; fill:none" points="659.215,1423.18 659.215,1423.18 661.778,1416.76 714.64,1320.01 836.436,1181.64 951.254,1086.84 1029.55,1031.86 1059.09,1012.54 1062.13,1010.59 1062.44,1010.4 1085.5,994.055 1125.63,953.122 1153.89,893.441 1158.89,812.973 1132.35,702.036 1099.34,621.234 1094.08,614.979 1092.32,610.838 1074.09,569.427 1042.96,502.19 979.58,370.133 915.945,240.247 820.219,47.2441 202.227,47.2441 2352.76,47.2441 2352.76,1423.18 202.227,1423.18 659.215,1423.18 "/>
<polyline clip-path="url(#clip292)" style="stroke:#808080; stroke-linecap:round; stroke-linejoin:round; stroke-width:4; stroke-opacity:1; fill:none" points="1062.44,1010.4 1062.13,1009.82 1059.09,1003.97 1035.96,958.831 978.5,842.533 885.511,644.863 756.157,357.103 621.366,47.2441 "/>
<polyline clip-path="url(#clip292)" style="stroke:#808080; stroke-linecap:round; stroke-linejoin:round; stroke-width:4; stroke-opacity:1; fill:none" points="1062.44,1010.4 1062.13,1010.59 1059.09,1012.54 1029.55,1031.86 951.254,1086.84 836.436,1181.64 714.64,1320.01 661.778,1416.76 659.215,1423.18 "/>
<polyline clip-path="url(#clip292)" style="stroke:#008000; stroke-linecap:round; stroke-linejoin:round; stroke-width:12; stroke-opacity:1; fill:none" points="202.227,1010.4 1062.44,1010.4 "/>
<polyline clip-path="url(#clip292)" style="stroke:#ffd700; stroke-linecap:round; stroke-linejoin:round; stroke-width:12; stroke-opacity:1; fill:none" points="1062.44,1010.4 1085.5,994.055 1125.63,953.122 1153.89,893.441 1158.89,812.973 1132.35,702.036 1099.34,621.234 "/>
<polyline clip-path="url(#clip292)" style="stroke:#808080; stroke-linecap:round; stroke-linejoin:round; stroke-width:12; stroke-opacity:1; fill:none" points="1099.34,621.234 1094.08,614.979 1092.32,610.838 1074.09,569.427 1042.96,502.19 979.58,370.133 915.945,240.247 820.219,47.2441 "/>
<path clip-path="url(#clip290)" d="M1708.2 507.829 L2281.07 507.829 L2281.07 93.1086 L1708.2 93.1086  Z" fill="#ffffff" fill-rule="evenodd" fill-opacity="1"/>
<polyline clip-path="url(#clip290)" style="stroke:#000000; stroke-linecap:round; stroke-linejoin:round; stroke-width:4; stroke-opacity:1; fill:none" points="1708.2,507.829 2281.07,507.829 2281.07,93.1086 1708.2,93.1086 1708.2,507.829 "/>
<path clip-path="url(#clip290)" d="M1732.09 165.685 L1875.46 165.685 L1875.46 124.213 L1732.09 124.213 L1732.09 165.685  Z" fill="#a52a2a" fill-rule="evenodd" fill-opacity="0.35"/>
<polyline clip-path="url(#clip290)" style="stroke:#000000; stroke-linecap:round; stroke-linejoin:round; stroke-width:4; stroke-opacity:0; fill:none" points="1732.09,165.685 1875.46,165.685 1875.46,124.213 1732.09,124.213 1732.09,165.685 "/>
<path clip-path="url(#clip290)" d="M1899.35 151.997 L1899.35 136.303 L1903.61 136.303 L1903.61 151.835 Q1903.61 155.516 1905.05 157.368 Q1906.48 159.196 1909.35 159.196 Q1912.8 159.196 1914.79 156.997 Q1916.81 154.798 1916.81 151.002 L1916.81 136.303 L1921.07 136.303 L1921.07 162.229 L1916.81 162.229 L1916.81 158.247 Q1915.26 160.608 1913.2 161.766 Q1911.16 162.9 1908.45 162.9 Q1903.98 162.9 1901.67 160.122 Q1899.35 157.344 1899.35 151.997 M1910.07 135.678 L1910.07 135.678 Z" fill="#000000" fill-rule="nonzero" fill-opacity="1" /><path clip-path="url(#clip290)" d="M1939.1 145.585 L1939.1 152.807 L1947.22 152.807 L1947.22 155.006 L1939.1 155.006 L1939.1 162.229 L1936.67 162.229 L1936.67 155.006 L1928.54 155.006 L1928.54 152.807 L1936.67 152.807 L1936.67 145.585 L1939.1 145.585 Z" fill="#000000" fill-rule="nonzero" fill-opacity="1" /><path clip-path="url(#clip290)" d="M1980.3 142.946 Q1978.45 142.946 1977.18 144.243 Q1975.91 145.516 1975.91 147.368 Q1975.91 149.196 1977.18 150.469 Q1978.45 151.719 1980.3 151.719 Q1982.16 151.719 1983.43 150.469 Q1984.7 149.196 1984.7 147.368 Q1984.7 145.539 1983.41 144.243 Q1982.13 142.946 1980.3 142.946 M1980.3 139.96 Q1981.78 139.96 1983.15 140.539 Q1984.52 141.094 1985.51 142.159 Q1986.58 143.201 1987.11 144.52 Q1987.64 145.84 1987.64 147.368 Q1987.64 150.423 1985.49 152.553 Q1983.36 154.659 1980.26 154.659 Q1977.13 154.659 1975.05 152.576 Q1972.97 150.493 1972.97 147.368 Q1972.97 144.266 1975.1 142.113 Q1977.22 139.96 1980.3 139.96 Z" fill="#000000" fill-rule="nonzero" fill-opacity="1" /><path clip-path="url(#clip290)" d="M2014.24 151.997 L2014.24 136.303 L2018.5 136.303 L2018.5 151.835 Q2018.5 155.516 2019.93 157.368 Q2021.37 159.196 2024.24 159.196 Q2027.69 159.196 2029.68 156.997 Q2031.69 154.798 2031.69 151.002 L2031.69 136.303 L2035.95 136.303 L2035.95 162.229 L2031.69 162.229 L2031.69 158.247 Q2030.14 160.608 2028.08 161.766 Q2026.04 162.9 2023.34 162.9 Q2018.87 162.9 2016.55 160.122 Q2014.24 157.344 2014.24 151.997 M2024.96 135.678 L2024.96 135.678 Z" fill="#000000" fill-rule="nonzero" fill-opacity="1" /><path clip-path="url(#clip290)" d="M2054.56 147.761 L2054.56 150.006 Q2053.43 149.497 2052.2 149.243 Q2051 148.988 2049.68 148.988 Q2047.66 148.988 2046.67 149.52 Q2045.67 150.076 2045.67 151.164 Q2045.67 151.997 2046.39 152.46 Q2047.11 152.946 2049.26 153.363 L2050.19 153.548 Q2053.08 154.104 2054.24 155.076 Q2055.44 156.071 2055.44 157.854 Q2055.44 159.868 2053.64 161.048 Q2051.85 162.229 2048.71 162.229 Q2047.39 162.229 2045.95 161.997 Q2044.54 161.766 2042.97 161.326 L2042.97 158.849 Q2044.45 159.543 2045.9 159.891 Q2047.34 160.238 2048.75 160.238 Q2050.65 160.238 2051.67 159.659 Q2052.69 159.08 2052.69 158.039 Q2052.69 157.067 2051.95 156.534 Q2051.3 156.071 2048.73 155.539 L2047.8 155.354 Q2045.3 154.868 2044.19 153.918 Q2043.08 152.946 2043.08 151.256 Q2043.08 149.219 2044.72 148.108 Q2046.34 146.974 2049.35 146.974 Q2050.84 146.974 2052.15 147.182 Q2053.47 147.368 2054.56 147.761 Z" fill="#000000" fill-rule="nonzero" fill-opacity="1" /><path clip-path="url(#clip290)" d="M2087.85 142.946 Q2086 142.946 2084.72 144.243 Q2083.45 145.516 2083.45 147.368 Q2083.45 149.196 2084.72 150.469 Q2086 151.719 2087.85 151.719 Q2089.7 151.719 2090.97 150.469 Q2092.25 149.196 2092.25 147.368 Q2092.25 145.539 2090.95 144.243 Q2089.68 142.946 2087.85 142.946 M2087.85 139.96 Q2089.33 139.96 2090.7 140.539 Q2092.06 141.094 2093.06 142.159 Q2094.12 143.201 2094.65 144.52 Q2095.19 145.84 2095.19 147.368 Q2095.19 150.423 2093.03 152.553 Q2090.9 154.659 2087.8 154.659 Q2084.68 154.659 2082.59 152.576 Q2080.51 150.493 2080.51 147.368 Q2080.51 144.266 2082.64 142.113 Q2084.77 139.96 2087.85 139.96 Z" fill="#000000" fill-rule="nonzero" fill-opacity="1" /><path clip-path="url(#clip290)" d="M2121.78 151.997 L2121.78 136.303 L2126.04 136.303 L2126.04 151.835 Q2126.04 155.516 2127.48 157.368 Q2128.91 159.196 2131.78 159.196 Q2135.23 159.196 2137.22 156.997 Q2139.24 154.798 2139.24 151.002 L2139.24 136.303 L2143.5 136.303 L2143.5 162.229 L2139.24 162.229 L2139.24 158.247 Q2137.69 160.608 2135.63 161.766 Q2133.59 162.9 2130.88 162.9 Q2126.41 162.9 2124.1 160.122 Q2121.78 157.344 2121.78 151.997 M2132.5 135.678 L2132.5 135.678 Z" fill="#000000" fill-rule="nonzero" fill-opacity="1" /><path clip-path="url(#clip290)" d="M2161.53 145.585 L2161.53 152.807 L2169.65 152.807 L2169.65 155.006 L2161.53 155.006 L2161.53 162.229 L2159.1 162.229 L2159.1 155.006 L2150.97 155.006 L2150.97 152.807 L2159.1 152.807 L2159.1 145.585 L2161.53 145.585 Z" fill="#000000" fill-rule="nonzero" fill-opacity="1" /><path clip-path="url(#clip290)" d="M1732.09 217.525 L1875.46 217.525 L1875.46 176.053 L1732.09 176.053 L1732.09 217.525  Z" fill="#0000ff" fill-rule="evenodd" fill-opacity="0.35"/>
<polyline clip-path="url(#clip290)" style="stroke:#000000; stroke-linecap:round; stroke-linejoin:round; stroke-width:4; stroke-opacity:0; fill:none" points="1732.09,217.525 1875.46,217.525 1875.46,176.053 1732.09,176.053 1732.09,217.525 "/>
<path clip-path="url(#clip290)" d="M1899.35 203.837 L1899.35 188.143 L1903.61 188.143 L1903.61 203.675 Q1903.61 207.356 1905.05 209.208 Q1906.48 211.036 1909.35 211.036 Q1912.8 211.036 1914.79 208.837 Q1916.81 206.638 1916.81 202.842 L1916.81 188.143 L1921.07 188.143 L1921.07 214.069 L1916.81 214.069 L1916.81 210.087 Q1915.26 212.448 1913.2 213.606 Q1911.16 214.74 1908.45 214.74 Q1903.98 214.74 1901.67 211.962 Q1899.35 209.184 1899.35 203.837 M1910.07 187.518 L1910.07 187.518 Z" fill="#000000" fill-rule="nonzero" fill-opacity="1" /><path clip-path="url(#clip290)" d="M1928.54 204.647 L1947.22 204.647 L1947.22 206.846 L1928.54 206.846 L1928.54 204.647 Z" fill="#000000" fill-rule="nonzero" fill-opacity="1" /><path clip-path="url(#clip290)" d="M1980.3 194.786 Q1978.45 194.786 1977.18 196.083 Q1975.91 197.356 1975.91 199.208 Q1975.91 201.036 1977.18 202.309 Q1978.45 203.559 1980.3 203.559 Q1982.16 203.559 1983.43 202.309 Q1984.7 201.036 1984.7 199.208 Q1984.7 197.379 1983.41 196.083 Q1982.13 194.786 1980.3 194.786 M1980.3 191.8 Q1981.78 191.8 1983.15 192.379 Q1984.52 192.934 1985.51 193.999 Q1986.58 195.041 1987.11 196.36 Q1987.64 197.68 1987.64 199.208 Q1987.64 202.263 1985.49 204.393 Q1983.36 206.499 1980.26 206.499 Q1977.13 206.499 1975.05 204.416 Q1972.97 202.333 1972.97 199.208 Q1972.97 196.106 1975.1 193.953 Q1977.22 191.8 1980.3 191.8 Z" fill="#000000" fill-rule="nonzero" fill-opacity="1" /><path clip-path="url(#clip290)" d="M2014.24 203.837 L2014.24 188.143 L2018.5 188.143 L2018.5 203.675 Q2018.5 207.356 2019.93 209.208 Q2021.37 211.036 2024.24 211.036 Q2027.69 211.036 2029.68 208.837 Q2031.69 206.638 2031.69 202.842 L2031.69 188.143 L2035.95 188.143 L2035.95 214.069 L2031.69 214.069 L2031.69 210.087 Q2030.14 212.448 2028.08 213.606 Q2026.04 214.74 2023.34 214.74 Q2018.87 214.74 2016.55 211.962 Q2014.24 209.184 2014.24 203.837 M2024.96 187.518 L2024.96 187.518 Z" fill="#000000" fill-rule="nonzero" fill-opacity="1" /><path clip-path="url(#clip290)" d="M2054.56 199.601 L2054.56 201.846 Q2053.43 201.337 2052.2 201.083 Q2051 200.828 2049.68 200.828 Q2047.66 200.828 2046.67 201.36 Q2045.67 201.916 2045.67 203.004 Q2045.67 203.837 2046.39 204.3 Q2047.11 204.786 2049.26 205.203 L2050.19 205.388 Q2053.08 205.944 2054.24 206.916 Q2055.44 207.911 2055.44 209.694 Q2055.44 211.708 2053.64 212.888 Q2051.85 214.069 2048.71 214.069 Q2047.39 214.069 2045.95 213.837 Q2044.54 213.606 2042.97 213.166 L2042.97 210.689 Q2044.45 211.383 2045.9 211.731 Q2047.34 212.078 2048.75 212.078 Q2050.65 212.078 2051.67 211.499 Q2052.69 210.92 2052.69 209.879 Q2052.69 208.907 2051.95 208.374 Q2051.3 207.911 2048.73 207.379 L2047.8 207.194 Q2045.3 206.708 2044.19 205.758 Q2043.08 204.786 2043.08 203.096 Q2043.08 201.059 2044.72 199.948 Q2046.34 198.814 2049.35 198.814 Q2050.84 198.814 2052.15 199.022 Q2053.47 199.208 2054.56 199.601 Z" fill="#000000" fill-rule="nonzero" fill-opacity="1" /><path clip-path="url(#clip290)" d="M2087.85 194.786 Q2086 194.786 2084.72 196.083 Q2083.45 197.356 2083.45 199.208 Q2083.45 201.036 2084.72 202.309 Q2086 203.559 2087.85 203.559 Q2089.7 203.559 2090.97 202.309 Q2092.25 201.036 2092.25 199.208 Q2092.25 197.379 2090.95 196.083 Q2089.68 194.786 2087.85 194.786 M2087.85 191.8 Q2089.33 191.8 2090.7 192.379 Q2092.06 192.934 2093.06 193.999 Q2094.12 195.041 2094.65 196.36 Q2095.19 197.68 2095.19 199.208 Q2095.19 202.263 2093.03 204.393 Q2090.9 206.499 2087.8 206.499 Q2084.68 206.499 2082.59 204.416 Q2080.51 202.333 2080.51 199.208 Q2080.51 196.106 2082.64 193.953 Q2084.77 191.8 2087.85 191.8 Z" fill="#000000" fill-rule="nonzero" fill-opacity="1" /><path clip-path="url(#clip290)" d="M2121.78 203.837 L2121.78 188.143 L2126.04 188.143 L2126.04 203.675 Q2126.04 207.356 2127.48 209.208 Q2128.91 211.036 2131.78 211.036 Q2135.23 211.036 2137.22 208.837 Q2139.24 206.638 2139.24 202.842 L2139.24 188.143 L2143.5 188.143 L2143.5 214.069 L2139.24 214.069 L2139.24 210.087 Q2137.69 212.448 2135.63 213.606 Q2133.59 214.74 2130.88 214.74 Q2126.41 214.74 2124.1 211.962 Q2121.78 209.184 2121.78 203.837 M2132.5 187.518 L2132.5 187.518 Z" fill="#000000" fill-rule="nonzero" fill-opacity="1" /><path clip-path="url(#clip290)" d="M2161.53 197.425 L2161.53 204.647 L2169.65 204.647 L2169.65 206.846 L2161.53 206.846 L2161.53 214.069 L2159.1 214.069 L2159.1 206.846 L2150.97 206.846 L2150.97 204.647 L2159.1 204.647 L2159.1 197.425 L2161.53 197.425 Z" fill="#000000" fill-rule="nonzero" fill-opacity="1" /><path clip-path="url(#clip290)" d="M1732.09 269.365 L1875.46 269.365 L1875.46 227.893 L1732.09 227.893 L1732.09 269.365  Z" fill="#9acd32" fill-rule="evenodd" fill-opacity="0.35"/>
<polyline clip-path="url(#clip290)" style="stroke:#000000; stroke-linecap:round; stroke-linejoin:round; stroke-width:4; stroke-opacity:0; fill:none" points="1732.09,269.365 1875.46,269.365 1875.46,227.893 1732.09,227.893 1732.09,269.365 "/>
<path clip-path="url(#clip290)" d="M1899.35 255.677 L1899.35 239.983 L1903.61 239.983 L1903.61 255.515 Q1903.61 259.196 1905.05 261.048 Q1906.48 262.876 1909.35 262.876 Q1912.8 262.876 1914.79 260.677 Q1916.81 258.478 1916.81 254.682 L1916.81 239.983 L1921.07 239.983 L1921.07 265.909 L1916.81 265.909 L1916.81 261.927 Q1915.26 264.288 1913.2 265.446 Q1911.16 266.58 1908.45 266.58 Q1903.98 266.58 1901.67 263.802 Q1899.35 261.024 1899.35 255.677 M1910.07 239.358 L1910.07 239.358 Z" fill="#000000" fill-rule="nonzero" fill-opacity="1" /><path clip-path="url(#clip290)" d="M1928.54 256.487 L1947.22 256.487 L1947.22 258.686 L1928.54 258.686 L1928.54 256.487 Z" fill="#000000" fill-rule="nonzero" fill-opacity="1" /><path clip-path="url(#clip290)" d="M1980.3 246.626 Q1978.45 246.626 1977.18 247.923 Q1975.91 249.196 1975.91 251.048 Q1975.91 252.876 1977.18 254.149 Q1978.45 255.399 1980.3 255.399 Q1982.16 255.399 1983.43 254.149 Q1984.7 252.876 1984.7 251.048 Q1984.7 249.219 1983.41 247.923 Q1982.13 246.626 1980.3 246.626 M1980.3 243.64 Q1981.78 243.64 1983.15 244.219 Q1984.52 244.774 1985.51 245.839 Q1986.58 246.881 1987.11 248.2 Q1987.64 249.52 1987.64 251.048 Q1987.64 254.103 1985.49 256.233 Q1983.36 258.339 1980.26 258.339 Q1977.13 258.339 1975.05 256.256 Q1972.97 254.173 1972.97 251.048 Q1972.97 247.946 1975.1 245.793 Q1977.22 243.64 1980.3 243.64 Z" fill="#000000" fill-rule="nonzero" fill-opacity="1" /><path clip-path="url(#clip290)" d="M2014.24 255.677 L2014.24 239.983 L2018.5 239.983 L2018.5 255.515 Q2018.5 259.196 2019.93 261.048 Q2021.37 262.876 2024.24 262.876 Q2027.69 262.876 2029.68 260.677 Q2031.69 258.478 2031.69 254.682 L2031.69 239.983 L2035.95 239.983 L2035.95 265.909 L2031.69 265.909 L2031.69 261.927 Q2030.14 264.288 2028.08 265.446 Q2026.04 266.58 2023.34 266.58 Q2018.87 266.58 2016.55 263.802 Q2014.24 261.024 2014.24 255.677 M2024.96 239.358 L2024.96 239.358 Z" fill="#000000" fill-rule="nonzero" fill-opacity="1" /><path clip-path="url(#clip290)" d="M2053.98 249.265 L2053.98 256.487 L2062.11 256.487 L2062.11 258.686 L2053.98 258.686 L2053.98 265.909 L2051.55 265.909 L2051.55 258.686 L2043.43 258.686 L2043.43 256.487 L2051.55 256.487 L2051.55 249.265 L2053.98 249.265 Z" fill="#000000" fill-rule="nonzero" fill-opacity="1" /><path clip-path="url(#clip290)" d="M1732.09 321.205 L1875.46 321.205 L1875.46 279.733 L1732.09 279.733 L1732.09 321.205  Z" fill="#ff0000" fill-rule="evenodd" fill-opacity="0.35"/>
<polyline clip-path="url(#clip290)" style="stroke:#000000; stroke-linecap:round; stroke-linejoin:round; stroke-width:4; stroke-opacity:0; fill:none" points="1732.09,321.205 1875.46,321.205 1875.46,279.733 1732.09,279.733 1732.09,321.205 "/>
<path clip-path="url(#clip290)" d="M1899.35 307.517 L1899.35 291.823 L1903.61 291.823 L1903.61 307.355 Q1903.61 311.036 1905.05 312.888 Q1906.48 314.716 1909.35 314.716 Q1912.8 314.716 1914.79 312.517 Q1916.81 310.318 1916.81 306.522 L1916.81 291.823 L1921.07 291.823 L1921.07 317.749 L1916.81 317.749 L1916.81 313.767 Q1915.26 316.128 1913.2 317.286 Q1911.16 318.42 1908.45 318.42 Q1903.98 318.42 1901.67 315.642 Q1899.35 312.864 1899.35 307.517 M1910.07 291.198 L1910.07 291.198 Z" fill="#000000" fill-rule="nonzero" fill-opacity="1" /><path clip-path="url(#clip290)" d="M1939.1 301.105 L1939.1 308.327 L1947.22 308.327 L1947.22 310.526 L1939.1 310.526 L1939.1 317.749 L1936.67 317.749 L1936.67 310.526 L1928.54 310.526 L1928.54 308.327 L1936.67 308.327 L1936.67 301.105 L1939.1 301.105 Z" fill="#000000" fill-rule="nonzero" fill-opacity="1" /><polyline clip-path="url(#clip290)" style="stroke:#008000; stroke-linecap:round; stroke-linejoin:round; stroke-width:12; stroke-opacity:1; fill:none" points="1732.09,352.309 1875.46,352.309 "/>
<path clip-path="url(#clip290)" d="M1899.35 359.357 L1899.35 343.663 L1903.61 343.663 L1903.61 359.195 Q1903.61 362.876 1905.05 364.728 Q1906.48 366.556 1909.35 366.556 Q1912.8 366.556 1914.79 364.357 Q1916.81 362.158 1916.81 358.362 L1916.81 343.663 L1921.07 343.663 L1921.07 369.589 L1916.81 369.589 L1916.81 365.607 Q1915.26 367.968 1913.2 369.126 Q1911.16 370.26 1908.45 370.26 Q1903.98 370.26 1901.67 367.482 Q1899.35 364.704 1899.35 359.357 M1910.07 343.038 L1910.07 343.038 Z" fill="#000000" fill-rule="nonzero" fill-opacity="1" /><path clip-path="url(#clip290)" d="M1939.68 355.121 L1939.68 357.366 Q1938.54 356.857 1937.32 356.603 Q1936.11 356.348 1934.79 356.348 Q1932.78 356.348 1931.79 356.88 Q1930.79 357.436 1930.79 358.524 Q1930.79 359.357 1931.51 359.82 Q1932.22 360.306 1934.38 360.723 L1935.3 360.908 Q1938.2 361.464 1939.35 362.436 Q1940.56 363.431 1940.56 365.214 Q1940.56 367.228 1938.75 368.408 Q1936.97 369.589 1933.82 369.589 Q1932.5 369.589 1931.07 369.357 Q1929.66 369.126 1928.08 368.686 L1928.08 366.209 Q1929.56 366.903 1931.02 367.251 Q1932.46 367.598 1933.87 367.598 Q1935.77 367.598 1936.79 367.019 Q1937.8 366.44 1937.8 365.399 Q1937.8 364.427 1937.06 363.894 Q1936.41 363.431 1933.85 362.899 L1932.92 362.714 Q1930.42 362.228 1929.31 361.278 Q1928.2 360.306 1928.2 358.616 Q1928.2 356.579 1929.84 355.468 Q1931.46 354.334 1934.47 354.334 Q1935.95 354.334 1937.27 354.542 Q1938.59 354.728 1939.68 355.121 Z" fill="#000000" fill-rule="nonzero" fill-opacity="1" /><polyline clip-path="url(#clip290)" style="stroke:#ffd700; stroke-linecap:round; stroke-linejoin:round; stroke-width:12; stroke-opacity:1; fill:none" points="1732.09,404.149 1875.46,404.149 "/>
<path clip-path="url(#clip290)" d="M1917.78 396.267 L1917.78 400.294 Q1915.97 399.369 1914.03 398.906 Q1912.09 398.443 1910 398.443 Q1906.83 398.443 1905.23 399.415 Q1903.66 400.387 1903.66 402.331 Q1903.66 403.813 1904.79 404.669 Q1905.93 405.503 1909.35 406.267 L1910.81 406.591 Q1915.35 407.563 1917.25 409.345 Q1919.17 411.105 1919.17 414.276 Q1919.17 417.887 1916.3 419.993 Q1913.45 422.1 1908.45 422.1 Q1906.37 422.1 1904.1 421.683 Q1901.85 421.29 1899.35 420.48 L1899.35 416.081 Q1901.72 417.308 1904.01 417.933 Q1906.3 418.535 1908.54 418.535 Q1911.55 418.535 1913.17 417.517 Q1914.79 416.475 1914.79 414.6 Q1914.79 412.864 1913.61 411.938 Q1912.46 411.012 1908.5 410.156 L1907.02 409.808 Q1903.06 408.975 1901.3 407.262 Q1899.54 405.526 1899.54 402.517 Q1899.54 398.859 1902.13 396.869 Q1904.73 394.878 1909.49 394.878 Q1911.85 394.878 1913.94 395.225 Q1916.02 395.572 1917.78 396.267 Z" fill="#000000" fill-rule="nonzero" fill-opacity="1" /><path clip-path="url(#clip290)" d="M1923.47 395.503 L1927.73 395.503 L1933.06 415.734 L1938.36 395.503 L1943.38 395.503 L1948.71 415.734 L1954.01 395.503 L1958.27 395.503 L1951.48 421.429 L1946.46 421.429 L1940.88 400.179 L1935.28 421.429 L1930.26 421.429 L1923.47 395.503 Z" fill="#000000" fill-rule="nonzero" fill-opacity="1" /><path clip-path="url(#clip290)" d="M1964.72 395.503 L1968.98 395.503 L1968.98 421.429 L1964.72 421.429 L1964.72 395.503 M1964.72 385.41 L1968.98 385.41 L1968.98 390.804 L1964.72 390.804 L1964.72 385.41 Z" fill="#000000" fill-rule="nonzero" fill-opacity="1" /><path clip-path="url(#clip290)" d="M1982.11 388.142 L1982.11 395.503 L1990.88 395.503 L1990.88 398.813 L1982.11 398.813 L1982.11 412.887 Q1982.11 416.058 1982.97 416.961 Q1983.84 417.864 1986.51 417.864 L1990.88 417.864 L1990.88 421.429 L1986.51 421.429 Q1981.58 421.429 1979.7 419.6 Q1977.83 417.748 1977.83 412.887 L1977.83 398.813 L1974.7 398.813 L1974.7 395.503 L1977.83 395.503 L1977.83 388.142 L1982.11 388.142 Z" fill="#000000" fill-rule="nonzero" fill-opacity="1" /><path clip-path="url(#clip290)" d="M2015.14 396.498 L2015.14 400.48 Q2013.34 399.484 2011.51 398.998 Q2009.7 398.489 2007.85 398.489 Q2003.71 398.489 2001.41 401.128 Q1999.12 403.744 1999.12 408.489 Q1999.12 413.234 2001.41 415.873 Q2003.71 418.489 2007.85 418.489 Q2009.7 418.489 2011.51 418.003 Q2013.34 417.493 2015.14 416.498 L2015.14 420.433 Q2013.36 421.267 2011.44 421.683 Q2009.54 422.1 2007.39 422.1 Q2001.53 422.1 1998.08 418.419 Q1994.63 414.739 1994.63 408.489 Q1994.63 402.146 1998.1 398.512 Q2001.6 394.878 2007.66 394.878 Q2009.63 394.878 2011.51 395.295 Q2013.38 395.688 2015.14 396.498 Z" fill="#000000" fill-rule="nonzero" fill-opacity="1" /><path clip-path="url(#clip290)" d="M2044.1 405.781 L2044.1 421.429 L2039.84 421.429 L2039.84 405.919 Q2039.84 402.239 2038.4 400.41 Q2036.97 398.582 2034.1 398.582 Q2030.65 398.582 2028.66 400.781 Q2026.67 402.98 2026.67 406.776 L2026.67 421.429 L2022.39 421.429 L2022.39 385.41 L2026.67 385.41 L2026.67 399.531 Q2028.2 397.193 2030.26 396.035 Q2032.34 394.878 2035.05 394.878 Q2039.52 394.878 2041.81 397.656 Q2044.1 400.41 2044.1 405.781 Z" fill="#000000" fill-rule="nonzero" fill-opacity="1" /><path clip-path="url(#clip290)" d="M2052.59 395.503 L2056.85 395.503 L2056.85 421.429 L2052.59 421.429 L2052.59 395.503 M2052.59 385.41 L2056.85 385.41 L2056.85 390.804 L2052.59 390.804 L2052.59 385.41 Z" fill="#000000" fill-rule="nonzero" fill-opacity="1" /><path clip-path="url(#clip290)" d="M2087.32 405.781 L2087.32 421.429 L2083.06 421.429 L2083.06 405.919 Q2083.06 402.239 2081.62 400.41 Q2080.19 398.582 2077.32 398.582 Q2073.87 398.582 2071.88 400.781 Q2069.89 402.98 2069.89 406.776 L2069.89 421.429 L2065.6 421.429 L2065.6 395.503 L2069.89 395.503 L2069.89 399.531 Q2071.41 397.193 2073.47 396.035 Q2075.56 394.878 2078.27 394.878 Q2082.73 394.878 2085.03 397.656 Q2087.32 400.41 2087.32 405.781 Z" fill="#000000" fill-rule="nonzero" fill-opacity="1" /><path clip-path="url(#clip290)" d="M2112.87 408.165 Q2112.87 403.535 2110.95 400.989 Q2109.05 398.443 2105.6 398.443 Q2102.18 398.443 2100.26 400.989 Q2098.36 403.535 2098.36 408.165 Q2098.36 412.771 2100.26 415.318 Q2102.18 417.864 2105.6 417.864 Q2109.05 417.864 2110.95 415.318 Q2112.87 412.771 2112.87 408.165 M2117.13 418.211 Q2117.13 424.831 2114.19 428.049 Q2111.25 431.29 2105.19 431.29 Q2102.94 431.29 2100.95 430.942 Q2098.96 430.618 2097.09 429.924 L2097.09 425.78 Q2098.96 426.799 2100.79 427.285 Q2102.62 427.771 2104.52 427.771 Q2108.71 427.771 2110.79 425.572 Q2112.87 423.396 2112.87 418.975 L2112.87 416.868 Q2111.55 419.16 2109.49 420.294 Q2107.43 421.429 2104.56 421.429 Q2099.79 421.429 2096.88 417.794 Q2093.96 414.16 2093.96 408.165 Q2093.96 402.146 2096.88 398.512 Q2099.79 394.878 2104.56 394.878 Q2107.43 394.878 2109.49 396.012 Q2111.55 397.146 2112.87 399.438 L2112.87 395.503 L2117.13 395.503 L2117.13 418.211 Z" fill="#000000" fill-rule="nonzero" fill-opacity="1" /><path clip-path="url(#clip290)" d="M2140.97 385.41 L2145.23 385.41 L2145.23 421.429 L2140.97 421.429 L2140.97 385.41 Z" fill="#000000" fill-rule="nonzero" fill-opacity="1" /><path clip-path="url(#clip290)" d="M2164.19 398.489 Q2160.77 398.489 2158.77 401.174 Q2156.78 403.836 2156.78 408.489 Q2156.78 413.142 2158.75 415.827 Q2160.74 418.489 2164.19 418.489 Q2167.59 418.489 2169.58 415.804 Q2171.58 413.118 2171.58 408.489 Q2171.58 403.882 2169.58 401.197 Q2167.59 398.489 2164.19 398.489 M2164.19 394.878 Q2169.75 394.878 2172.92 398.489 Q2176.09 402.1 2176.09 408.489 Q2176.09 414.855 2172.92 418.489 Q2169.75 422.1 2164.19 422.1 Q2158.61 422.1 2155.44 418.489 Q2152.29 414.855 2152.29 408.489 Q2152.29 402.1 2155.44 398.489 Q2158.61 394.878 2164.19 394.878 Z" fill="#000000" fill-rule="nonzero" fill-opacity="1" /><path clip-path="url(#clip290)" d="M2201.81 396.498 L2201.81 400.48 Q2200 399.484 2198.17 398.998 Q2196.37 398.489 2194.52 398.489 Q2190.37 398.489 2188.08 401.128 Q2185.79 403.744 2185.79 408.489 Q2185.79 413.234 2188.08 415.873 Q2190.37 418.489 2194.52 418.489 Q2196.37 418.489 2198.17 418.003 Q2200 417.493 2201.81 416.498 L2201.81 420.433 Q2200.02 421.267 2198.1 421.683 Q2196.2 422.1 2194.05 422.1 Q2188.2 422.1 2184.75 418.419 Q2181.3 414.739 2181.3 408.489 Q2181.3 402.146 2184.77 398.512 Q2188.27 394.878 2194.33 394.878 Q2196.3 394.878 2198.17 395.295 Q2200.05 395.688 2201.81 396.498 Z" fill="#000000" fill-rule="nonzero" fill-opacity="1" /><path clip-path="url(#clip290)" d="M2208.77 411.197 L2208.77 395.503 L2213.03 395.503 L2213.03 411.035 Q2213.03 414.716 2214.47 416.568 Q2215.9 418.396 2218.77 418.396 Q2222.22 418.396 2224.21 416.197 Q2226.23 413.998 2226.23 410.202 L2226.23 395.503 L2230.49 395.503 L2230.49 421.429 L2226.23 421.429 L2226.23 417.447 Q2224.68 419.808 2222.62 420.966 Q2220.58 422.1 2217.87 422.1 Q2213.4 422.1 2211.09 419.322 Q2208.77 416.544 2208.77 411.197 M2219.49 394.878 L2219.49 394.878 Z" fill="#000000" fill-rule="nonzero" fill-opacity="1" /><path clip-path="url(#clip290)" d="M2255.79 396.267 L2255.79 400.294 Q2253.98 399.369 2252.04 398.906 Q2250.09 398.443 2248.01 398.443 Q2244.84 398.443 2243.24 399.415 Q2241.67 400.387 2241.67 402.331 Q2241.67 403.813 2242.8 404.669 Q2243.94 405.503 2247.36 406.267 L2248.82 406.591 Q2253.36 407.563 2255.26 409.345 Q2257.18 411.105 2257.18 414.276 Q2257.18 417.887 2254.31 419.993 Q2251.46 422.1 2246.46 422.1 Q2244.38 422.1 2242.11 421.683 Q2239.86 421.29 2237.36 420.48 L2237.36 416.081 Q2239.72 417.308 2242.01 417.933 Q2244.31 418.535 2246.55 418.535 Q2249.56 418.535 2251.18 417.517 Q2252.8 416.475 2252.8 414.6 Q2252.8 412.864 2251.62 411.938 Q2250.46 411.012 2246.51 410.156 L2245.02 409.808 Q2241.07 408.975 2239.31 407.262 Q2237.55 405.526 2237.55 402.517 Q2237.55 398.859 2240.14 396.869 Q2242.73 394.878 2247.5 394.878 Q2249.86 394.878 2251.95 395.225 Q2254.03 395.572 2255.79 396.267 Z" fill="#000000" fill-rule="nonzero" fill-opacity="1" /><polyline clip-path="url(#clip290)" style="stroke:#808080; stroke-linecap:round; stroke-linejoin:round; stroke-width:12; stroke-opacity:1; fill:none" points="1732.09,455.989 1875.46,455.989 "/>
<path clip-path="url(#clip290)" d="M1918.27 451.278 L1918.27 437.25 L1922.53 437.25 L1922.53 473.269 L1918.27 473.269 L1918.27 469.38 Q1916.92 471.695 1914.86 472.829 Q1912.83 473.94 1909.96 473.94 Q1905.26 473.94 1902.29 470.19 Q1899.35 466.44 1899.35 460.329 Q1899.35 454.218 1902.29 450.468 Q1905.26 446.718 1909.96 446.718 Q1912.83 446.718 1914.86 447.852 Q1916.92 448.963 1918.27 451.278 M1903.75 460.329 Q1903.75 465.028 1905.67 467.713 Q1907.62 470.375 1911 470.375 Q1914.38 470.375 1916.32 467.713 Q1918.27 465.028 1918.27 460.329 Q1918.27 455.63 1916.32 452.968 Q1914.38 450.283 1911 450.283 Q1907.62 450.283 1905.67 452.968 Q1903.75 455.63 1903.75 460.329 Z" fill="#000000" fill-rule="nonzero" fill-opacity="1" /><path clip-path="url(#clip290)" d="M1931.3 447.343 L1935.56 447.343 L1935.56 473.269 L1931.3 473.269 L1931.3 447.343 M1931.3 437.25 L1935.56 437.25 L1935.56 442.644 L1931.3 442.644 L1931.3 437.25 Z" fill="#000000" fill-rule="nonzero" fill-opacity="1" /><path clip-path="url(#clip290)" d="M1961 448.107 L1961 452.134 Q1959.19 451.209 1957.25 450.746 Q1955.3 450.283 1953.22 450.283 Q1950.05 450.283 1948.45 451.255 Q1946.88 452.227 1946.88 454.171 Q1946.88 455.653 1948.01 456.509 Q1949.15 457.343 1952.57 458.107 L1954.03 458.431 Q1958.57 459.403 1960.47 461.185 Q1962.39 462.945 1962.39 466.116 Q1962.39 469.727 1959.52 471.833 Q1956.67 473.94 1951.67 473.94 Q1949.59 473.94 1947.32 473.523 Q1945.07 473.13 1942.57 472.32 L1942.57 467.921 Q1944.93 469.148 1947.22 469.773 Q1949.52 470.375 1951.76 470.375 Q1954.77 470.375 1956.39 469.357 Q1958.01 468.315 1958.01 466.44 Q1958.01 464.704 1956.83 463.778 Q1955.67 462.852 1951.72 461.996 L1950.23 461.648 Q1946.28 460.815 1944.52 459.102 Q1942.76 457.366 1942.76 454.357 Q1942.76 450.699 1945.35 448.709 Q1947.94 446.718 1952.71 446.718 Q1955.07 446.718 1957.16 447.065 Q1959.24 447.412 1961 448.107 Z" fill="#000000" fill-rule="nonzero" fill-opacity="1" /><path clip-path="url(#clip290)" d="M1973.29 469.38 L1973.29 483.13 L1969.01 483.13 L1969.01 447.343 L1973.29 447.343 L1973.29 451.278 Q1974.63 448.963 1976.67 447.852 Q1978.73 446.718 1981.58 446.718 Q1986.3 446.718 1989.24 450.468 Q1992.2 454.218 1992.2 460.329 Q1992.2 466.44 1989.24 470.19 Q1986.3 473.94 1981.58 473.94 Q1978.73 473.94 1976.67 472.829 Q1974.63 471.695 1973.29 469.38 M1987.78 460.329 Q1987.78 455.63 1985.84 452.968 Q1983.91 450.283 1980.53 450.283 Q1977.16 450.283 1975.21 452.968 Q1973.29 455.63 1973.29 460.329 Q1973.29 465.028 1975.21 467.713 Q1977.16 470.375 1980.53 470.375 Q1983.91 470.375 1985.84 467.713 Q1987.78 465.028 1987.78 460.329 Z" fill="#000000" fill-rule="nonzero" fill-opacity="1" /><path clip-path="url(#clip290)" d="M2021.44 459.241 L2021.44 461.324 L2001.85 461.324 Q2002.13 465.722 2004.49 468.037 Q2006.88 470.329 2011.11 470.329 Q2013.57 470.329 2015.86 469.727 Q2018.17 469.125 2020.44 467.921 L2020.44 471.949 Q2018.15 472.921 2015.74 473.431 Q2013.34 473.94 2010.86 473.94 Q2004.66 473.94 2001.02 470.329 Q1997.41 466.718 1997.41 460.56 Q1997.41 454.195 2000.84 450.468 Q2004.28 446.718 2010.12 446.718 Q2015.35 446.718 2018.38 450.097 Q2021.44 453.454 2021.44 459.241 M2017.18 457.991 Q2017.13 454.496 2015.21 452.412 Q2013.31 450.329 2010.16 450.329 Q2006.6 450.329 2004.45 452.343 Q2002.32 454.357 2001.99 458.014 L2017.18 457.991 Z" fill="#000000" fill-rule="nonzero" fill-opacity="1" /><path clip-path="url(#clip290)" d="M2043.45 451.324 Q2042.73 450.908 2041.88 450.722 Q2041.04 450.514 2040.03 450.514 Q2036.41 450.514 2034.47 452.875 Q2032.55 455.213 2032.55 459.611 L2032.55 473.269 L2028.27 473.269 L2028.27 447.343 L2032.55 447.343 L2032.55 451.371 Q2033.89 449.009 2036.04 447.875 Q2038.2 446.718 2041.28 446.718 Q2041.72 446.718 2042.25 446.787 Q2042.78 446.834 2043.43 446.949 L2043.45 451.324 Z" fill="#000000" fill-rule="nonzero" fill-opacity="1" /><path clip-path="url(#clip290)" d="M2064.45 448.107 L2064.45 452.134 Q2062.64 451.209 2060.7 450.746 Q2058.75 450.283 2056.67 450.283 Q2053.5 450.283 2051.9 451.255 Q2050.33 452.227 2050.33 454.171 Q2050.33 455.653 2051.46 456.509 Q2052.59 457.343 2056.02 458.107 L2057.48 458.431 Q2062.02 459.403 2063.91 461.185 Q2065.84 462.945 2065.84 466.116 Q2065.84 469.727 2062.96 471.833 Q2060.12 473.94 2055.12 473.94 Q2053.03 473.94 2050.77 473.523 Q2048.52 473.13 2046.02 472.32 L2046.02 467.921 Q2048.38 469.148 2050.67 469.773 Q2052.96 470.375 2055.21 470.375 Q2058.22 470.375 2059.84 469.357 Q2061.46 468.315 2061.46 466.44 Q2061.46 464.704 2060.28 463.778 Q2059.12 462.852 2055.16 461.996 L2053.68 461.648 Q2049.72 460.815 2047.97 459.102 Q2046.21 457.366 2046.21 454.357 Q2046.21 450.699 2048.8 448.709 Q2051.39 446.718 2056.16 446.718 Q2058.52 446.718 2060.6 447.065 Q2062.69 447.412 2064.45 448.107 Z" fill="#000000" fill-rule="nonzero" fill-opacity="1" /><path clip-path="url(#clip290)" d="M2084.4 460.236 Q2079.24 460.236 2077.25 461.417 Q2075.26 462.597 2075.26 465.445 Q2075.26 467.713 2076.74 469.056 Q2078.24 470.375 2080.81 470.375 Q2084.35 470.375 2086.48 467.875 Q2088.64 465.352 2088.64 461.185 L2088.64 460.236 L2084.4 460.236 M2092.9 458.477 L2092.9 473.269 L2088.64 473.269 L2088.64 469.333 Q2087.18 471.695 2085 472.829 Q2082.83 473.94 2079.68 473.94 Q2075.7 473.94 2073.34 471.718 Q2071 469.472 2071 465.722 Q2071 461.347 2073.91 459.125 Q2076.85 456.903 2082.66 456.903 L2088.64 456.903 L2088.64 456.486 Q2088.64 453.547 2086.69 451.949 Q2084.77 450.329 2081.28 450.329 Q2079.05 450.329 2076.95 450.861 Q2074.84 451.394 2072.9 452.459 L2072.9 448.523 Q2075.23 447.621 2077.43 447.181 Q2079.63 446.718 2081.71 446.718 Q2087.34 446.718 2090.12 449.634 Q2092.9 452.551 2092.9 458.477 Z" fill="#000000" fill-rule="nonzero" fill-opacity="1" /><path clip-path="url(#clip290)" d="M2101.67 437.25 L2105.93 437.25 L2105.93 473.269 L2101.67 473.269 L2101.67 437.25 Z" fill="#000000" fill-rule="nonzero" fill-opacity="1" /><path clip-path="url(#clip290)" d="M2129.91 437.25 L2134.17 437.25 L2134.17 473.269 L2129.91 473.269 L2129.91 437.25 Z" fill="#000000" fill-rule="nonzero" fill-opacity="1" /><path clip-path="url(#clip290)" d="M2153.13 450.329 Q2149.7 450.329 2147.71 453.014 Q2145.72 455.676 2145.72 460.329 Q2145.72 464.982 2147.69 467.667 Q2149.68 470.329 2153.13 470.329 Q2156.53 470.329 2158.52 467.644 Q2160.51 464.958 2160.51 460.329 Q2160.51 455.722 2158.52 453.037 Q2156.53 450.329 2153.13 450.329 M2153.13 446.718 Q2158.68 446.718 2161.85 450.329 Q2165.02 453.94 2165.02 460.329 Q2165.02 466.695 2161.85 470.329 Q2158.68 473.94 2153.13 473.94 Q2147.55 473.94 2144.38 470.329 Q2141.23 466.695 2141.23 460.329 Q2141.23 453.94 2144.38 450.329 Q2147.55 446.718 2153.13 446.718 Z" fill="#000000" fill-rule="nonzero" fill-opacity="1" /><path clip-path="url(#clip290)" d="M2190.74 448.338 L2190.74 452.32 Q2188.94 451.324 2187.11 450.838 Q2185.3 450.329 2183.45 450.329 Q2179.31 450.329 2177.02 452.968 Q2174.72 455.584 2174.72 460.329 Q2174.72 465.074 2177.02 467.713 Q2179.31 470.329 2183.45 470.329 Q2185.3 470.329 2187.11 469.843 Q2188.94 469.333 2190.74 468.338 L2190.74 472.273 Q2188.96 473.107 2187.04 473.523 Q2185.14 473.94 2182.99 473.94 Q2177.13 473.94 2173.68 470.259 Q2170.23 466.579 2170.23 460.329 Q2170.23 453.986 2173.71 450.352 Q2177.2 446.718 2183.27 446.718 Q2185.23 446.718 2187.11 447.135 Q2188.98 447.528 2190.74 448.338 Z" fill="#000000" fill-rule="nonzero" fill-opacity="1" /><path clip-path="url(#clip290)" d="M2197.71 463.037 L2197.71 447.343 L2201.97 447.343 L2201.97 462.875 Q2201.97 466.556 2203.4 468.408 Q2204.84 470.236 2207.71 470.236 Q2211.16 470.236 2213.15 468.037 Q2215.16 465.838 2215.16 462.042 L2215.16 447.343 L2219.42 447.343 L2219.42 473.269 L2215.16 473.269 L2215.16 469.287 Q2213.61 471.648 2211.55 472.806 Q2209.52 473.94 2206.81 473.94 Q2202.34 473.94 2200.02 471.162 Q2197.71 468.384 2197.71 463.037 M2208.43 446.718 L2208.43 446.718 Z" fill="#000000" fill-rule="nonzero" fill-opacity="1" /><path clip-path="url(#clip290)" d="M2244.72 448.107 L2244.72 452.134 Q2242.92 451.209 2240.97 450.746 Q2239.03 450.283 2236.95 450.283 Q2233.77 450.283 2232.18 451.255 Q2230.6 452.227 2230.6 454.171 Q2230.6 455.653 2231.74 456.509 Q2232.87 457.343 2236.3 458.107 L2237.76 458.431 Q2242.29 459.403 2244.19 461.185 Q2246.11 462.945 2246.11 466.116 Q2246.11 469.727 2243.24 471.833 Q2240.39 473.94 2235.39 473.94 Q2233.31 473.94 2231.04 473.523 Q2228.8 473.13 2226.3 472.32 L2226.3 467.921 Q2228.66 469.148 2230.95 469.773 Q2233.24 470.375 2235.49 470.375 Q2238.5 470.375 2240.12 469.357 Q2241.74 468.315 2241.74 466.44 Q2241.74 464.704 2240.56 463.778 Q2239.4 462.852 2235.44 461.996 L2233.96 461.648 Q2230 460.815 2228.24 459.102 Q2226.48 457.366 2226.48 454.357 Q2226.48 450.699 2229.08 448.709 Q2231.67 446.718 2236.44 446.718 Q2238.8 446.718 2240.88 447.065 Q2242.96 447.412 2244.72 448.107 Z" fill="#000000" fill-rule="nonzero" fill-opacity="1" /></svg>
