<?xml version="1.0" encoding="utf-8"?>
<svg xmlns="http://www.w3.org/2000/svg" xmlns:xlink="http://www.w3.org/1999/xlink" width="600" height="400" viewBox="0 0 2400 1600">
<defs>
  <clipPath id="clip800">
    <rect x="0" y="0" width="2400" height="1600"/>
  </clipPath>
</defs>
<path clip-path="url(#clip800)" d="M0 1600 L2400 1600 L2400 0 L0 0  Z" fill="#ffffff" fill-rule="evenodd" fill-opacity="1"/>
<defs>
  <clipPath id="clip801">
    <rect x="203" y="47" width="2150" height="1377"/>
  </clipPath>
</defs>
<path clip-path="url(#clip800)" d="M203.964 1423.18 L2352.76 1423.18 L2352.76 47.2441 L203.964 47.2441  Z" fill="#ffffff" fill-rule="evenodd" fill-opacity="1"/>
<polyline clip-path="url(#clip801)" style="stroke:#000000; stroke-linecap:round; stroke-linejoin:round; stroke-width:2; stroke-opacity:0.1; fill:none" points="203.964,1423.18 203.964,47.2441 "/>
<polyline clip-path="url(#clip801)" style="stroke:#000000; stroke-linecap:round; stroke-linejoin:round; stroke-width:2; stroke-opacity:0.1; fill:none" points="920.228,1423.18 920.228,47.2441 "/>
<polyline clip-path="url(#clip801)" style="stroke:#000000; stroke-linecap:round; stroke-linejoin:round; stroke-width:2; stroke-opacity:0.1; fill:none" points="1636.49,1423.18 1636.49,47.2441 "/>
<polyline clip-path="url(#clip801)" style="stroke:#000000; stroke-linecap:round; stroke-linejoin:round; stroke-width:2; stroke-opacity:0.1; fill:none" points="2352.76,1423.18 2352.76,47.2441 "/>
<polyline clip-path="url(#clip801)" style="stroke:#000000; stroke-linecap:round; stroke-linejoin:round; stroke-width:2; stroke-opacity:0.1; fill:none" points="203.964,1423.18 2352.76,1423.18 "/>
<polyline clip-path="url(#clip801)" style="stroke:#000000; stroke-linecap:round; stroke-linejoin:round; stroke-width:2; stroke-opacity:0.1; fill:none" points="203.964,964.535 2352.76,964.535 "/>
<polyline clip-path="url(#clip801)" style="stroke:#000000; stroke-linecap:round; stroke-linejoin:round; stroke-width:2; stroke-opacity:0.1; fill:none" points="203.964,505.889 2352.76,505.889 "/>
<polyline clip-path="url(#clip801)" style="stroke:#000000; stroke-linecap:round; stroke-linejoin:round; stroke-width:2; stroke-opacity:0.1; fill:none" points="203.964,47.2441 2352.76,47.2441 "/>
<polyline clip-path="url(#clip800)" style="stroke:#000000; stroke-linecap:round; stroke-linejoin:round; stroke-width:4; stroke-opacity:1; fill:none" points="203.964,1423.18 2352.76,1423.18 "/>
<polyline clip-path="url(#clip800)" style="stroke:#000000; stroke-linecap:round; stroke-linejoin:round; stroke-width:4; stroke-opacity:1; fill:none" points="203.964,1423.18 203.964,1404.28 "/>
<polyline clip-path="url(#clip800)" style="stroke:#000000; stroke-linecap:round; stroke-linejoin:round; stroke-width:4; stroke-opacity:1; fill:none" points="920.228,1423.18 920.228,1404.28 "/>
<polyline clip-path="url(#clip800)" style="stroke:#000000; stroke-linecap:round; stroke-linejoin:round; stroke-width:4; stroke-opacity:1; fill:none" points="1636.49,1423.18 1636.49,1404.28 "/>
<polyline clip-path="url(#clip800)" style="stroke:#000000; stroke-linecap:round; stroke-linejoin:round; stroke-width:4; stroke-opacity:1; fill:none" points="2352.76,1423.18 2352.76,1404.28 "/>
<path clip-path="url(#clip800)" d="M203.964 1454.1 Q200.352 1454.1 198.524 1457.66 Q196.718 1461.2 196.718 1468.33 Q196.718 1475.44 198.524 1479.01 Q200.352 1482.55 203.964 1482.55 Q207.598 1482.55 209.403 1479.01 Q211.232 1475.44 211.232 1468.33 Q211.232 1461.2 209.403 1457.66 Q207.598 1454.1 203.964 1454.1 M203.964 1450.39 Q209.774 1450.39 212.829 1455 Q215.908 1459.58 215.908 1468.33 Q215.908 1477.06 212.829 1481.67 Q209.774 1486.25 203.964 1486.25 Q198.153 1486.25 195.075 1481.67 Q192.019 1477.06 192.019 1468.33 Q192.019 1459.58 195.075 1455 Q198.153 1450.39 203.964 1450.39 Z" fill="#000000" fill-rule="nonzero" fill-opacity="1" /><path clip-path="url(#clip800)" d="M894.915 1481.64 L902.554 1481.64 L902.554 1455.28 L894.244 1456.95 L894.244 1452.69 L902.508 1451.02 L907.184 1451.02 L907.184 1481.64 L914.823 1481.64 L914.823 1485.58 L894.915 1485.58 L894.915 1481.64 Z" fill="#000000" fill-rule="nonzero" fill-opacity="1" /><path clip-path="url(#clip800)" d="M934.267 1454.1 Q930.656 1454.1 928.827 1457.66 Q927.022 1461.2 927.022 1468.33 Q927.022 1475.44 928.827 1479.01 Q930.656 1482.55 934.267 1482.55 Q937.901 1482.55 939.707 1479.01 Q941.535 1475.44 941.535 1468.33 Q941.535 1461.2 939.707 1457.66 Q937.901 1454.1 934.267 1454.1 M934.267 1450.39 Q940.077 1450.39 943.133 1455 Q946.211 1459.58 946.211 1468.33 Q946.211 1477.06 943.133 1481.67 Q940.077 1486.25 934.267 1486.25 Q928.457 1486.25 925.378 1481.67 Q922.323 1477.06 922.323 1468.33 Q922.323 1459.58 925.378 1455 Q928.457 1450.39 934.267 1450.39 Z" fill="#000000" fill-rule="nonzero" fill-opacity="1" /><path clip-path="url(#clip800)" d="M1615.27 1481.64 L1631.58 1481.64 L1631.58 1485.58 L1609.64 1485.58 L1609.64 1481.64 Q1612.3 1478.89 1616.89 1474.26 Q1621.49 1469.61 1622.67 1468.27 Q1624.92 1465.74 1625.8 1464.01 Q1626.7 1462.25 1626.7 1460.56 Q1626.7 1457.8 1624.76 1456.07 Q1622.83 1454.33 1619.73 1454.33 Q1617.53 1454.33 1615.08 1455.09 Q1612.65 1455.86 1609.87 1457.41 L1609.87 1452.69 Q1612.7 1451.55 1615.15 1450.97 Q1617.6 1450.39 1619.64 1450.39 Q1625.01 1450.39 1628.2 1453.08 Q1631.4 1455.77 1631.4 1460.26 Q1631.4 1462.39 1630.59 1464.31 Q1629.8 1466.2 1627.7 1468.8 Q1627.12 1469.47 1624.02 1472.69 Q1620.91 1475.88 1615.27 1481.64 Z" fill="#000000" fill-rule="nonzero" fill-opacity="1" /><path clip-path="url(#clip800)" d="M1651.4 1454.1 Q1647.79 1454.1 1645.96 1457.66 Q1644.15 1461.2 1644.15 1468.33 Q1644.15 1475.44 1645.96 1479.01 Q1647.79 1482.55 1651.4 1482.55 Q1655.03 1482.55 1656.84 1479.01 Q1658.67 1475.44 1658.67 1468.33 Q1658.67 1461.2 1656.84 1457.66 Q1655.03 1454.1 1651.4 1454.1 M1651.4 1450.39 Q1657.21 1450.39 1660.26 1455 Q1663.34 1459.58 1663.34 1468.33 Q1663.34 1477.06 1660.26 1481.67 Q1657.21 1486.25 1651.4 1486.25 Q1645.59 1486.25 1642.51 1481.67 Q1639.45 1477.06 1639.45 1468.33 Q1639.45 1459.58 1642.51 1455 Q1645.59 1450.39 1651.4 1450.39 Z" fill="#000000" fill-rule="nonzero" fill-opacity="1" /><path clip-path="url(#clip800)" d="M2341.6 1466.95 Q2344.96 1467.66 2346.83 1469.93 Q2348.73 1472.2 2348.73 1475.53 Q2348.73 1480.65 2345.21 1483.45 Q2341.69 1486.25 2335.21 1486.25 Q2333.03 1486.25 2330.72 1485.81 Q2328.43 1485.39 2325.97 1484.54 L2325.97 1480.02 Q2327.92 1481.16 2330.23 1481.74 Q2332.55 1482.32 2335.07 1482.32 Q2339.47 1482.32 2341.76 1480.58 Q2344.08 1478.84 2344.08 1475.53 Q2344.08 1472.48 2341.92 1470.77 Q2339.79 1469.03 2335.97 1469.03 L2331.95 1469.03 L2331.95 1465.19 L2336.16 1465.19 Q2339.61 1465.19 2341.44 1463.82 Q2343.27 1462.43 2343.27 1459.84 Q2343.27 1457.18 2341.37 1455.77 Q2339.49 1454.33 2335.97 1454.33 Q2334.05 1454.33 2331.85 1454.75 Q2329.65 1455.16 2327.02 1456.04 L2327.02 1451.88 Q2329.68 1451.14 2331.99 1450.77 Q2334.33 1450.39 2336.39 1450.39 Q2341.71 1450.39 2344.82 1452.83 Q2347.92 1455.23 2347.92 1459.35 Q2347.92 1462.22 2346.27 1464.21 Q2344.63 1466.18 2341.6 1466.95 Z" fill="#000000" fill-rule="nonzero" fill-opacity="1" /><path clip-path="url(#clip800)" d="M2367.59 1454.1 Q2363.98 1454.1 2362.15 1457.66 Q2360.35 1461.2 2360.35 1468.33 Q2360.35 1475.44 2362.15 1479.01 Q2363.98 1482.55 2367.59 1482.55 Q2371.23 1482.55 2373.03 1479.01 Q2374.86 1475.44 2374.86 1468.33 Q2374.86 1461.2 2373.03 1457.66 Q2371.23 1454.1 2367.59 1454.1 M2367.59 1450.39 Q2373.4 1450.39 2376.46 1455 Q2379.54 1459.58 2379.54 1468.33 Q2379.54 1477.06 2376.46 1481.67 Q2373.4 1486.25 2367.59 1486.25 Q2361.78 1486.25 2358.7 1481.67 Q2355.65 1477.06 2355.65 1468.33 Q2355.65 1459.58 2358.7 1455 Q2361.78 1450.39 2367.59 1450.39 Z" fill="#000000" fill-rule="nonzero" fill-opacity="1" /><path clip-path="url(#clip800)" d="M1123.26 1568.04 L1105.12 1520.52 L1111.83 1520.52 L1126.89 1560.53 L1141.97 1520.52 L1148.66 1520.52 L1130.55 1568.04 L1123.26 1568.04 Z" fill="#000000" fill-rule="nonzero" fill-opacity="1" /><path clip-path="url(#clip800)" d="M1164.1 1536.5 Q1159.38 1536.5 1156.65 1540.19 Q1153.91 1543.85 1153.91 1550.25 Q1153.91 1556.65 1156.62 1560.34 Q1159.35 1564 1164.1 1564 Q1168.77 1564 1171.51 1560.31 Q1174.25 1556.62 1174.25 1550.25 Q1174.25 1543.92 1171.51 1540.23 Q1168.77 1536.5 1164.1 1536.5 M1164.1 1531.54 Q1171.73 1531.54 1176.09 1536.5 Q1180.46 1541.47 1180.46 1550.25 Q1180.46 1559 1176.09 1564 Q1171.73 1568.97 1164.1 1568.97 Q1156.42 1568.97 1152.06 1564 Q1147.74 1559 1147.74 1550.25 Q1147.74 1541.47 1152.06 1536.5 Q1156.42 1531.54 1164.1 1531.54 Z" fill="#000000" fill-rule="nonzero" fill-opacity="1" /><path clip-path="url(#clip800)" d="M1190.16 1518.52 L1196.02 1518.52 L1196.02 1568.04 L1190.16 1568.04 L1190.16 1518.52 Z" fill="#000000" fill-rule="nonzero" fill-opacity="1" /><path clip-path="url(#clip800)" d="M1207.67 1553.98 L1207.67 1532.4 L1213.53 1532.4 L1213.53 1553.75 Q1213.53 1558.81 1215.5 1561.36 Q1217.47 1563.87 1221.42 1563.87 Q1226.16 1563.87 1228.9 1560.85 Q1231.67 1557.83 1231.67 1552.61 L1231.67 1532.4 L1237.52 1532.4 L1237.52 1568.04 L1231.67 1568.04 L1231.67 1562.57 Q1229.53 1565.82 1226.7 1567.41 Q1223.9 1568.97 1220.18 1568.97 Q1214.03 1568.97 1210.85 1565.15 Q1207.67 1561.33 1207.67 1553.98 M1222.41 1531.54 L1222.41 1531.54 Z" fill="#000000" fill-rule="nonzero" fill-opacity="1" /><path clip-path="url(#clip800)" d="M1277.34 1539.24 Q1279.54 1535.29 1282.59 1533.41 Q1285.65 1531.54 1289.79 1531.54 Q1295.36 1531.54 1298.38 1535.45 Q1301.4 1539.33 1301.4 1546.53 L1301.4 1568.04 L1295.52 1568.04 L1295.52 1546.72 Q1295.52 1541.59 1293.7 1539.11 Q1291.89 1536.63 1288.16 1536.63 Q1283.61 1536.63 1280.97 1539.65 Q1278.33 1542.68 1278.33 1547.9 L1278.33 1568.04 L1272.44 1568.04 L1272.44 1546.72 Q1272.44 1541.56 1270.63 1539.11 Q1268.81 1536.63 1265.02 1536.63 Q1260.54 1536.63 1257.89 1539.68 Q1255.25 1542.71 1255.25 1547.9 L1255.25 1568.04 L1249.36 1568.04 L1249.36 1532.4 L1255.25 1532.4 L1255.25 1537.93 Q1257.26 1534.66 1260.06 1533.1 Q1262.86 1531.54 1266.71 1531.54 Q1270.59 1531.54 1273.3 1533.51 Q1276.04 1535.48 1277.34 1539.24 Z" fill="#000000" fill-rule="nonzero" fill-opacity="1" /><path clip-path="url(#clip800)" d="M1343.58 1548.76 L1343.58 1551.62 L1316.65 1551.62 Q1317.03 1557.67 1320.28 1560.85 Q1323.56 1564 1329.38 1564 Q1332.75 1564 1335.91 1563.17 Q1339.09 1562.35 1342.21 1560.69 L1342.21 1566.23 Q1339.06 1567.57 1335.75 1568.27 Q1332.44 1568.97 1329.03 1568.97 Q1320.5 1568.97 1315.5 1564 Q1310.54 1559.04 1310.54 1550.57 Q1310.54 1541.82 1315.25 1536.69 Q1319.99 1531.54 1328.01 1531.54 Q1335.21 1531.54 1339.38 1536.18 Q1343.58 1540.8 1343.58 1548.76 M1337.72 1547.04 Q1337.66 1542.23 1335.01 1539.37 Q1332.4 1536.5 1328.08 1536.5 Q1323.17 1536.5 1320.21 1539.27 Q1317.29 1542.04 1316.84 1547.07 L1337.72 1547.04 Z" fill="#000000" fill-rule="nonzero" fill-opacity="1" /><path clip-path="url(#clip800)" d="M1387.98 1518.58 Q1383.71 1525.9 1381.64 1533.06 Q1379.57 1540.23 1379.57 1547.58 Q1379.57 1554.93 1381.64 1562.16 Q1383.74 1569.35 1387.98 1576.64 L1382.88 1576.64 Q1378.11 1569.16 1375.72 1561.93 Q1373.37 1554.71 1373.37 1547.58 Q1373.37 1540.48 1375.72 1533.29 Q1378.08 1526.09 1382.88 1518.58 L1387.98 1518.58 Z" fill="#000000" fill-rule="nonzero" fill-opacity="1" /><path clip-path="url(#clip800)" d="M1395.14 1532.4 L1401.35 1532.4 L1412.49 1562.31 L1423.63 1532.4 L1429.83 1532.4 L1416.46 1568.04 L1408.51 1568.04 L1395.14 1532.4 Z" fill="#000000" fill-rule="nonzero" fill-opacity="1" /><path clip-path="url(#clip800)" d="M1436.99 1518.58 L1442.09 1518.58 Q1446.86 1526.09 1449.22 1533.29 Q1451.6 1540.48 1451.6 1547.58 Q1451.6 1554.71 1449.22 1561.93 Q1446.86 1569.16 1442.09 1576.64 L1436.99 1576.64 Q1441.23 1569.35 1443.3 1562.16 Q1445.4 1554.93 1445.4 1547.58 Q1445.4 1540.23 1443.3 1533.06 Q1441.23 1525.9 1436.99 1518.58 Z" fill="#000000" fill-rule="nonzero" fill-opacity="1" /><polyline clip-path="url(#clip800)" style="stroke:#000000; stroke-linecap:round; stroke-linejoin:round; stroke-width:4; stroke-opacity:1; fill:none" points="203.964,1423.18 203.964,47.2441 "/>
<polyline clip-path="url(#clip800)" style="stroke:#000000; stroke-linecap:round; stroke-linejoin:round; stroke-width:4; stroke-opacity:1; fill:none" points="203.964,1423.18 222.861,1423.18 "/>
<polyline clip-path="url(#clip800)" style="stroke:#000000; stroke-linecap:round; stroke-linejoin:round; stroke-width:4; stroke-opacity:1; fill:none" points="203.964,964.535 222.861,964.535 "/>
<polyline clip-path="url(#clip800)" style="stroke:#000000; stroke-linecap:round; stroke-linejoin:round; stroke-width:4; stroke-opacity:1; fill:none" points="203.964,505.889 222.861,505.889 "/>
<polyline clip-path="url(#clip800)" style="stroke:#000000; stroke-linecap:round; stroke-linejoin:round; stroke-width:4; stroke-opacity:1; fill:none" points="203.964,47.2441 222.861,47.2441 "/>
<path clip-path="url(#clip800)" d="M147.061 1405.9 L165.417 1405.9 L165.417 1409.84 L151.343 1409.84 L151.343 1418.31 Q152.362 1417.96 153.38 1417.8 Q154.399 1417.61 155.417 1417.61 Q161.204 1417.61 164.584 1420.78 Q167.964 1423.96 167.964 1429.37 Q167.964 1434.95 164.491 1438.05 Q161.019 1441.13 154.7 1441.13 Q152.524 1441.13 150.255 1440.76 Q148.01 1440.39 145.603 1439.65 L145.603 1434.95 Q147.686 1436.08 149.908 1436.64 Q152.13 1437.2 154.607 1437.2 Q158.612 1437.2 160.95 1435.09 Q163.288 1432.98 163.288 1429.37 Q163.288 1425.76 160.95 1423.65 Q158.612 1421.55 154.607 1421.55 Q152.732 1421.55 150.857 1421.96 Q149.005 1422.38 147.061 1423.26 L147.061 1405.9 Z" fill="#000000" fill-rule="nonzero" fill-opacity="1" /><path clip-path="url(#clip800)" d="M116.668 977.879 L124.306 977.879 L124.306 951.514 L115.996 953.18 L115.996 948.921 L124.26 947.255 L128.936 947.255 L128.936 977.879 L136.575 977.879 L136.575 981.815 L116.668 981.815 L116.668 977.879 Z" fill="#000000" fill-rule="nonzero" fill-opacity="1" /><path clip-path="url(#clip800)" d="M156.019 950.333 Q152.408 950.333 150.579 953.898 Q148.774 957.44 148.774 964.569 Q148.774 971.676 150.579 975.241 Q152.408 978.782 156.019 978.782 Q159.653 978.782 161.459 975.241 Q163.288 971.676 163.288 964.569 Q163.288 957.44 161.459 953.898 Q159.653 950.333 156.019 950.333 M156.019 946.63 Q161.829 946.63 164.885 951.236 Q167.964 955.819 167.964 964.569 Q167.964 973.296 164.885 977.903 Q161.829 982.486 156.019 982.486 Q150.209 982.486 147.13 977.903 Q144.075 973.296 144.075 964.569 Q144.075 955.819 147.13 951.236 Q150.209 946.63 156.019 946.63 Z" fill="#000000" fill-rule="nonzero" fill-opacity="1" /><path clip-path="url(#clip800)" d="M117.663 519.234 L125.302 519.234 L125.302 492.869 L116.992 494.535 L116.992 490.276 L125.255 488.609 L129.931 488.609 L129.931 519.234 L137.57 519.234 L137.57 523.169 L117.663 523.169 L117.663 519.234 Z" fill="#000000" fill-rule="nonzero" fill-opacity="1" /><path clip-path="url(#clip800)" d="M147.061 488.609 L165.417 488.609 L165.417 492.545 L151.343 492.545 L151.343 501.017 Q152.362 500.669 153.38 500.507 Q154.399 500.322 155.417 500.322 Q161.204 500.322 164.584 503.494 Q167.964 506.665 167.964 512.081 Q167.964 517.66 164.491 520.762 Q161.019 523.841 154.7 523.841 Q152.524 523.841 150.255 523.47 Q148.01 523.1 145.603 522.359 L145.603 517.66 Q147.686 518.794 149.908 519.35 Q152.13 519.905 154.607 519.905 Q158.612 519.905 160.95 517.799 Q163.288 515.693 163.288 512.081 Q163.288 508.47 160.95 506.364 Q158.612 504.257 154.607 504.257 Q152.732 504.257 150.857 504.674 Q149.005 505.091 147.061 505.97 L147.061 488.609 Z" fill="#000000" fill-rule="nonzero" fill-opacity="1" /><path clip-path="url(#clip800)" d="M119.885 60.5889 L136.204 60.5889 L136.204 64.5241 L114.26 64.5241 L114.26 60.5889 Q116.922 57.8343 121.505 53.2047 Q126.112 48.552 127.292 47.2094 Q129.538 44.6862 130.417 42.9501 Q131.32 41.1909 131.32 39.5011 Q131.32 36.7465 129.376 35.0104 Q127.455 33.2743 124.353 33.2743 Q122.154 33.2743 119.7 34.0381 Q117.269 34.802 114.492 36.3529 L114.492 31.6308 Q117.316 30.4965 119.769 29.9178 Q122.223 29.3391 124.26 29.3391 Q129.63 29.3391 132.825 32.0243 Q136.019 34.7094 136.019 39.2002 Q136.019 41.3298 135.209 43.2511 Q134.422 45.1492 132.316 47.7418 Q131.737 48.4131 128.635 51.6306 Q125.533 54.8251 119.885 60.5889 Z" fill="#000000" fill-rule="nonzero" fill-opacity="1" /><path clip-path="url(#clip800)" d="M156.019 33.0428 Q152.408 33.0428 150.579 36.6076 Q148.774 40.1492 148.774 47.2788 Q148.774 54.3853 150.579 57.9501 Q152.408 61.4917 156.019 61.4917 Q159.653 61.4917 161.459 57.9501 Q163.288 54.3853 163.288 47.2788 Q163.288 40.1492 161.459 36.6076 Q159.653 33.0428 156.019 33.0428 M156.019 29.3391 Q161.829 29.3391 164.885 33.9456 Q167.964 38.5289 167.964 47.2788 Q167.964 56.0056 164.885 60.6121 Q161.829 65.1954 156.019 65.1954 Q150.209 65.1954 147.13 60.6121 Q144.075 56.0056 144.075 47.2788 Q144.075 38.5289 147.13 33.9456 Q150.209 29.3391 156.019 29.3391 Z" fill="#000000" fill-rule="nonzero" fill-opacity="1" /><path clip-path="url(#clip800)" d="M16.4842 878.806 L16.4842 869.226 L48.8219 857.099 L16.4842 844.909 L16.4842 835.329 L64.0042 835.329 L64.0042 841.599 L22.277 841.599 L54.8694 853.853 L54.8694 860.314 L22.277 872.568 L64.0042 872.568 L64.0042 878.806 L16.4842 878.806 Z" fill="#000000" fill-rule="nonzero" fill-opacity="1" /><path clip-path="url(#clip800)" d="M46.0847 806.619 Q46.0847 813.717 47.7079 816.454 Q49.3312 819.192 53.2461 819.192 Q56.3653 819.192 58.2114 817.155 Q60.0256 815.086 60.0256 811.553 Q60.0256 806.683 56.5881 803.755 Q53.1188 800.795 47.3897 800.795 L46.0847 800.795 L46.0847 806.619 M43.6657 794.938 L64.0042 794.938 L64.0042 800.795 L58.5933 800.795 Q61.8398 802.8 63.3994 805.792 Q64.9272 808.784 64.9272 813.112 Q64.9272 818.587 61.8716 821.833 Q58.7843 825.048 53.6281 825.048 Q47.6125 825.048 44.5569 821.038 Q41.5014 816.995 41.5014 809.006 L41.5014 800.795 L40.9285 800.795 Q36.8862 800.795 34.6901 803.468 Q32.4621 806.11 32.4621 810.916 Q32.4621 813.972 33.1941 816.868 Q33.9262 819.764 35.3903 822.438 L29.9795 822.438 Q28.7381 819.223 28.1334 816.2 Q27.4968 813.176 27.4968 810.311 Q27.4968 802.577 31.5072 798.758 Q35.5176 794.938 43.6657 794.938 Z" fill="#000000" fill-rule="nonzero" fill-opacity="1" /><path clip-path="url(#clip800)" d="M29.4065 760.15 L34.9447 760.15 Q33.6716 762.632 33.035 765.306 Q32.3984 767.979 32.3984 770.844 Q32.3984 775.205 33.7352 777.401 Q35.072 779.565 37.7456 779.565 Q39.7826 779.565 40.9603 778.005 Q42.1061 776.446 43.1565 771.735 L43.6021 769.73 Q44.9389 763.492 47.3897 760.882 Q49.8086 758.24 54.1691 758.24 Q59.1344 758.24 62.0308 762.187 Q64.9272 766.102 64.9272 772.977 Q64.9272 775.841 64.3543 778.96 Q63.8132 782.048 62.6992 785.485 L56.6518 785.485 Q58.3387 782.239 59.198 779.088 Q60.0256 775.937 60.0256 772.849 Q60.0256 768.711 58.6251 766.484 Q57.1929 764.256 54.6147 764.256 Q52.2276 764.256 50.9545 765.879 Q49.6813 767.47 48.5037 772.913 L48.0262 774.95 Q46.8804 780.393 44.5251 782.812 Q42.138 785.231 38.0002 785.231 Q32.9713 785.231 30.2341 781.666 Q27.4968 778.101 27.4968 771.544 Q27.4968 768.298 27.9743 765.433 Q28.4517 762.569 29.4065 760.15 Z" fill="#000000" fill-rule="nonzero" fill-opacity="1" /><path clip-path="url(#clip800)" d="M29.4065 726.189 L34.9447 726.189 Q33.6716 728.671 33.035 731.345 Q32.3984 734.018 32.3984 736.883 Q32.3984 741.243 33.7352 743.44 Q35.072 745.604 37.7456 745.604 Q39.7826 745.604 40.9603 744.044 Q42.1061 742.485 43.1565 737.774 L43.6021 735.769 Q44.9389 729.531 47.3897 726.921 Q49.8086 724.279 54.1691 724.279 Q59.1344 724.279 62.0308 728.226 Q64.9272 732.141 64.9272 739.015 Q64.9272 741.88 64.3543 744.999 Q63.8132 748.087 62.6992 751.524 L56.6518 751.524 Q58.3387 748.278 59.198 745.127 Q60.0256 741.976 60.0256 738.888 Q60.0256 734.75 58.6251 732.522 Q57.1929 730.294 54.6147 730.294 Q52.2276 730.294 50.9545 731.918 Q49.6813 733.509 48.5037 738.952 L48.0262 740.989 Q46.8804 746.432 44.5251 748.85 Q42.138 751.269 38.0002 751.269 Q32.9713 751.269 30.2341 747.705 Q27.4968 744.14 27.4968 737.583 Q27.4968 734.337 27.9743 731.472 Q28.4517 728.608 29.4065 726.189 Z" fill="#000000" fill-rule="nonzero" fill-opacity="1" /><path clip-path="url(#clip800)" d="M14.5426 680.165 Q21.8632 684.43 29.0246 686.498 Q36.186 688.567 43.5384 688.567 Q50.8908 688.567 58.1159 686.498 Q65.3091 684.398 72.5979 680.165 L72.5979 685.257 Q65.1182 690.031 57.8931 692.419 Q50.668 694.774 43.5384 694.774 Q36.4406 694.774 29.2474 692.419 Q22.0542 690.063 14.5426 685.257 L14.5426 680.165 Z" fill="#000000" fill-rule="nonzero" fill-opacity="1" /><path clip-path="url(#clip800)" d="M35.1993 641.047 Q31.2526 638.851 29.3747 635.796 Q27.4968 632.74 27.4968 628.602 Q27.4968 623.032 31.4117 620.009 Q35.2948 616.985 42.4881 616.985 L64.0042 616.985 L64.0042 622.873 L42.679 622.873 Q37.5546 622.873 35.072 624.687 Q32.5894 626.502 32.5894 630.226 Q32.5894 634.777 35.6131 637.419 Q38.6368 640.061 43.8567 640.061 L64.0042 640.061 L64.0042 645.949 L42.679 645.949 Q37.5228 645.949 35.072 647.763 Q32.5894 649.577 32.5894 653.365 Q32.5894 657.853 35.6449 660.494 Q38.6686 663.136 43.8567 663.136 L64.0042 663.136 L64.0042 669.025 L28.3562 669.025 L28.3562 663.136 L33.8944 663.136 Q30.616 661.131 29.0564 658.33 Q27.4968 655.529 27.4968 651.678 Q27.4968 647.795 29.4702 645.089 Q31.4436 642.352 35.1993 641.047 Z" fill="#000000" fill-rule="nonzero" fill-opacity="1" /><path clip-path="url(#clip800)" d="M14.5426 606.227 L14.5426 601.134 Q22.0542 596.36 29.2474 594.005 Q36.4406 591.618 43.5384 591.618 Q50.668 591.618 57.8931 594.005 Q65.1182 596.36 72.5979 601.134 L72.5979 606.227 Q65.3091 601.994 58.1159 599.925 Q50.8908 597.824 43.5384 597.824 Q36.186 597.824 29.0246 599.925 Q21.8632 601.994 14.5426 606.227 Z" fill="#000000" fill-rule="nonzero" fill-opacity="1" /><path clip-path="url(#clip801)" d="M203.964 934.763 L1326.74 934.763 L1326.74 934.763 L1326.73 934.775 L1326.43 935.165 L1323.38 939.061 L1292.96 978.025 L988.708 1367.67 L945.361 1423.18 L945.361 1423.18 L203.964 1423.18 L203.964 934.763  Z" fill="#a52a2a" fill-rule="evenodd" fill-opacity="0.35"/>
<polyline clip-path="url(#clip801)" style="stroke:#000000; stroke-linecap:round; stroke-linejoin:round; stroke-width:4; stroke-opacity:0; fill:none" points="203.964,934.763 1326.74,934.763 1326.73,934.775 1326.43,935.165 1323.38,939.061 1292.96,978.025 988.708,1367.67 945.361,1423.18 203.964,1423.18 203.964,934.763 "/>
<path clip-path="url(#clip801)" d="M203.964 934.763 L1326.74 934.763 L1326.74 934.763 L1342.73 880.399 L1358.72 822.914 L1374.71 762.129 L1390.71 697.856 L1406.7 629.892 L1422.69 558.027 L1438.68 482.037 L1454.67 401.685 L1470.66 316.72 L1560.41 316.72 L1564.42 294.642 L1571.17 256.717 L1584.49 178.831 L1605.31 47.2441 L203.964 47.2441 L203.964 934.763  Z" fill="#0000ff" fill-rule="evenodd" fill-opacity="0.35"/>
<polyline clip-path="url(#clip801)" style="stroke:#000000; stroke-linecap:round; stroke-linejoin:round; stroke-width:4; stroke-opacity:0; fill:none" points="203.964,934.763 1326.74,934.763 1342.73,880.399 1358.72,822.914 1374.71,762.129 1390.71,697.856 1406.7,629.892 1422.69,558.027 1438.68,482.037 1454.67,401.685 1470.66,316.72 1560.41,316.72 1564.42,294.642 1571.17,256.717 1584.49,178.831 1605.31,47.2441 203.964,47.2441 203.964,934.763 "/>
<path clip-path="url(#clip801)" d="M1470.66 316.72 L1454.67 401.685 L1438.68 482.037 L1422.69 558.027 L1406.7 629.892 L1390.71 697.856 L1374.71 762.129 L1358.72 822.914 L1342.73 880.399 L1326.74 934.763 L1326.74 934.763 L1338.83 918.858 L1391.28 838.381 L1461.5 689.111 L1525.89 479.64 L1560.41 316.72 L1560.41 316.72 L1560.41 316.72 L1470.66 316.72  Z" fill="#9acd32" fill-rule="evenodd" fill-opacity="0.35"/>
<polyline clip-path="url(#clip801)" style="stroke:#000000; stroke-linecap:round; stroke-linejoin:round; stroke-width:4; stroke-opacity:0; fill:none" points="1470.66,316.72 1454.67,401.685 1438.68,482.037 1422.69,558.027 1406.7,629.892 1390.71,697.856 1374.71,762.129 1358.72,822.914 1342.73,880.399 1326.74,934.763 1338.83,918.858 1391.28,838.381 1461.5,689.111 1525.89,479.64 1560.41,316.72 1560.41,316.72 1470.66,316.72 "/>
<path clip-path="url(#clip801)" d="M945.361 1423.18 L945.361 1423.18 L988.708 1367.67 L1292.96 978.025 L1323.38 939.061 L1326.43 935.165 L1326.73 934.775 L1326.74 934.763 L1326.74 934.763 L1338.83 918.858 L1391.28 838.381 L1461.5 689.111 L1525.89 479.64 L1560.41 316.72 L1560.41 316.72 L1560.41 316.72 L1560.41 316.72 L1564.42 294.642 L1571.17 256.717 L1584.49 178.831 L1605.31 47.2441 L203.964 47.2441 L2352.76 47.2441 L2352.76 1423.18 L203.964 1423.18 L945.361 1423.18  Z" fill="#ff0000" fill-rule="evenodd" fill-opacity="0.35"/>
<polyline clip-path="url(#clip801)" style="stroke:#000000; stroke-linecap:round; stroke-linejoin:round; stroke-width:4; stroke-opacity:0; fill:none" points="945.361,1423.18 945.361,1423.18 988.708,1367.67 1292.96,978.025 1323.38,939.061 1326.43,935.165 1326.73,934.775 1326.74,934.763 1338.83,918.858 1391.28,838.381 1461.5,689.111 1525.89,479.64 1560.41,316.72 1560.41,316.72 1564.42,294.642 1571.17,256.717 1584.49,178.831 1605.31,47.2441 203.964,47.2441 2352.76,47.2441 2352.76,1423.18 203.964,1423.18 945.361,1423.18 "/>
<polyline clip-path="url(#clip801)" style="stroke:#808080; stroke-linecap:round; stroke-linejoin:round; stroke-width:4; stroke-opacity:1; fill:none" points="1326.74,934.763 1342.73,880.399 1358.72,822.914 1374.71,762.129 1390.71,697.856 1406.7,629.892 1422.69,558.027 1438.68,482.037 1454.67,401.685 1470.66,316.72 "/>
<polyline clip-path="url(#clip801)" style="stroke:#808080; stroke-linecap:round; stroke-linejoin:round; stroke-width:4; stroke-opacity:1; fill:none" points="1326.74,934.763 1326.73,934.775 1326.43,935.165 1323.38,939.061 1292.96,978.025 988.708,1367.67 945.361,1423.18 "/>
<polyline clip-path="url(#clip801)" style="stroke:#008000; stroke-linecap:round; stroke-linejoin:round; stroke-width:12; stroke-opacity:1; fill:none" points="203.964,934.763 1326.74,934.763 "/>
<polyline clip-path="url(#clip801)" style="stroke:#ffd700; stroke-linecap:round; stroke-linejoin:round; stroke-width:12; stroke-opacity:1; fill:none" points="1326.74,934.763 1338.83,918.858 1391.28,838.381 1461.5,689.111 1525.89,479.64 1560.41,316.72 "/>
<polyline clip-path="url(#clip801)" style="stroke:#4d4d4d; stroke-linecap:round; stroke-linejoin:round; stroke-width:12; stroke-opacity:1; fill:none" points="1560.41,316.72 1564.42,294.642 1571.17,256.717 1584.49,178.831 1605.31,47.2441 "/>
<path clip-path="url(#clip800)" d="M1708.43 559.669 L2281.13 559.669 L2281.13 93.1086 L1708.43 93.1086  Z" fill="#ffffff" fill-rule="evenodd" fill-opacity="1"/>
<polyline clip-path="url(#clip800)" style="stroke:#000000; stroke-linecap:round; stroke-linejoin:round; stroke-width:4; stroke-opacity:1; fill:none" points="1708.43,559.669 2281.13,559.669 2281.13,93.1086 1708.43,93.1086 1708.43,559.669 "/>
<path clip-path="url(#clip800)" d="M1732.3 165.685 L1875.56 165.685 L1875.56 124.213 L1732.3 124.213 L1732.3 165.685  Z" fill="#a52a2a" fill-rule="evenodd" fill-opacity="0.35"/>
<polyline clip-path="url(#clip800)" style="stroke:#000000; stroke-linecap:round; stroke-linejoin:round; stroke-width:4; stroke-opacity:0; fill:none" points="1732.3,165.685 1875.56,165.685 1875.56,124.213 1732.3,124.213 1732.3,165.685 "/>
<path clip-path="url(#clip800)" d="M1899.43 151.997 L1899.43 136.303 L1903.69 136.303 L1903.69 151.835 Q1903.69 155.516 1905.13 157.368 Q1906.56 159.196 1909.43 159.196 Q1912.88 159.196 1914.87 156.997 Q1916.89 154.798 1916.89 151.002 L1916.89 136.303 L1921.14 136.303 L1921.14 162.229 L1916.89 162.229 L1916.89 158.247 Q1915.33 160.608 1913.27 161.766 Q1911.24 162.9 1908.53 162.9 Q1904.06 162.9 1901.75 160.122 Q1899.43 157.344 1899.43 151.997 M1910.15 135.678 L1910.15 135.678 Z" fill="#000000" fill-rule="nonzero" fill-opacity="1" /><path clip-path="url(#clip800)" d="M1939.18 145.585 L1939.18 152.807 L1947.3 152.807 L1947.3 155.006 L1939.18 155.006 L1939.18 162.229 L1936.75 162.229 L1936.75 155.006 L1928.62 155.006 L1928.62 152.807 L1936.75 152.807 L1936.75 145.585 L1939.18 145.585 Z" fill="#000000" fill-rule="nonzero" fill-opacity="1" /><path clip-path="url(#clip800)" d="M1980.38 142.946 Q1978.53 142.946 1977.26 144.243 Q1975.98 145.516 1975.98 147.368 Q1975.98 149.196 1977.26 150.469 Q1978.53 151.719 1980.38 151.719 Q1982.23 151.719 1983.51 150.469 Q1984.78 149.196 1984.78 147.368 Q1984.78 145.539 1983.48 144.243 Q1982.21 142.946 1980.38 142.946 M1980.38 139.96 Q1981.86 139.96 1983.23 140.539 Q1984.59 141.094 1985.59 142.159 Q1986.65 143.201 1987.19 144.52 Q1987.72 145.84 1987.72 147.368 Q1987.72 150.423 1985.57 152.553 Q1983.44 154.659 1980.33 154.659 Q1977.21 154.659 1975.13 152.576 Q1973.04 150.493 1973.04 147.368 Q1973.04 144.266 1975.17 142.113 Q1977.3 139.96 1980.38 139.96 Z" fill="#000000" fill-rule="nonzero" fill-opacity="1" /><path clip-path="url(#clip800)" d="M2014.32 151.997 L2014.32 136.303 L2018.57 136.303 L2018.57 151.835 Q2018.57 155.516 2020.01 157.368 Q2021.45 159.196 2024.32 159.196 Q2027.76 159.196 2029.76 156.997 Q2031.77 154.798 2031.77 151.002 L2031.77 136.303 L2036.03 136.303 L2036.03 162.229 L2031.77 162.229 L2031.77 158.247 Q2030.22 160.608 2028.16 161.766 Q2026.12 162.9 2023.41 162.9 Q2018.95 162.9 2016.63 160.122 Q2014.32 157.344 2014.32 151.997 M2025.03 135.678 L2025.03 135.678 Z" fill="#000000" fill-rule="nonzero" fill-opacity="1" /><path clip-path="url(#clip800)" d="M2054.64 147.761 L2054.64 150.006 Q2053.51 149.497 2052.28 149.243 Q2051.07 148.988 2049.76 148.988 Q2047.74 148.988 2046.75 149.52 Q2045.75 150.076 2045.75 151.164 Q2045.75 151.997 2046.47 152.46 Q2047.19 152.946 2049.34 153.363 L2050.26 153.548 Q2053.16 154.104 2054.32 155.076 Q2055.52 156.071 2055.52 157.854 Q2055.52 159.868 2053.71 161.048 Q2051.93 162.229 2048.78 162.229 Q2047.46 162.229 2046.03 161.997 Q2044.62 161.766 2043.04 161.326 L2043.04 158.849 Q2044.52 159.543 2045.98 159.891 Q2047.42 160.238 2048.83 160.238 Q2050.73 160.238 2051.75 159.659 Q2052.76 159.08 2052.76 158.039 Q2052.76 157.067 2052.02 156.534 Q2051.38 156.071 2048.81 155.539 L2047.88 155.354 Q2045.38 154.868 2044.27 153.918 Q2043.16 152.946 2043.16 151.256 Q2043.16 149.219 2044.8 148.108 Q2046.42 146.974 2049.43 146.974 Q2050.91 146.974 2052.23 147.182 Q2053.55 147.368 2054.64 147.761 Z" fill="#000000" fill-rule="nonzero" fill-opacity="1" /><path clip-path="url(#clip800)" d="M2087.93 142.946 Q2086.07 142.946 2084.8 144.243 Q2083.53 145.516 2083.53 147.368 Q2083.53 149.196 2084.8 150.469 Q2086.07 151.719 2087.93 151.719 Q2089.78 151.719 2091.05 150.469 Q2092.32 149.196 2092.32 147.368 Q2092.32 145.539 2091.03 144.243 Q2089.75 142.946 2087.93 142.946 M2087.93 139.96 Q2089.41 139.96 2090.77 140.539 Q2092.14 141.094 2093.13 142.159 Q2094.2 143.201 2094.73 144.52 Q2095.26 145.84 2095.26 147.368 Q2095.26 150.423 2093.11 152.553 Q2090.98 154.659 2087.88 154.659 Q2084.75 154.659 2082.67 152.576 Q2080.59 150.493 2080.59 147.368 Q2080.59 144.266 2082.72 142.113 Q2084.85 139.96 2087.93 139.96 Z" fill="#000000" fill-rule="nonzero" fill-opacity="1" /><path clip-path="url(#clip800)" d="M2121.86 151.997 L2121.86 136.303 L2126.12 136.303 L2126.12 151.835 Q2126.12 155.516 2127.56 157.368 Q2128.99 159.196 2131.86 159.196 Q2135.31 159.196 2137.3 156.997 Q2139.31 154.798 2139.31 151.002 L2139.31 136.303 L2143.57 136.303 L2143.57 162.229 L2139.31 162.229 L2139.31 158.247 Q2137.76 160.608 2135.7 161.766 Q2133.67 162.9 2130.96 162.9 Q2126.49 162.9 2124.18 160.122 Q2121.86 157.344 2121.86 151.997 M2132.58 135.678 L2132.58 135.678 Z" fill="#000000" fill-rule="nonzero" fill-opacity="1" /><path clip-path="url(#clip800)" d="M2161.61 145.585 L2161.61 152.807 L2169.73 152.807 L2169.73 155.006 L2161.61 155.006 L2161.61 162.229 L2159.18 162.229 L2159.18 155.006 L2151.05 155.006 L2151.05 152.807 L2159.18 152.807 L2159.18 145.585 L2161.61 145.585 Z" fill="#000000" fill-rule="nonzero" fill-opacity="1" /><path clip-path="url(#clip800)" d="M1732.3 217.525 L1875.56 217.525 L1875.56 176.053 L1732.3 176.053 L1732.3 217.525  Z" fill="#0000ff" fill-rule="evenodd" fill-opacity="0.35"/>
<polyline clip-path="url(#clip800)" style="stroke:#000000; stroke-linecap:round; stroke-linejoin:round; stroke-width:4; stroke-opacity:0; fill:none" points="1732.3,217.525 1875.56,217.525 1875.56,176.053 1732.3,176.053 1732.3,217.525 "/>
<path clip-path="url(#clip800)" d="M1899.43 203.837 L1899.43 188.143 L1903.69 188.143 L1903.69 203.675 Q1903.69 207.356 1905.13 209.208 Q1906.56 211.036 1909.43 211.036 Q1912.88 211.036 1914.87 208.837 Q1916.89 206.638 1916.89 202.842 L1916.89 188.143 L1921.14 188.143 L1921.14 214.069 L1916.89 214.069 L1916.89 210.087 Q1915.33 212.448 1913.27 213.606 Q1911.24 214.74 1908.53 214.74 Q1904.06 214.74 1901.75 211.962 Q1899.43 209.184 1899.43 203.837 M1910.15 187.518 L1910.15 187.518 Z" fill="#000000" fill-rule="nonzero" fill-opacity="1" /><path clip-path="url(#clip800)" d="M1928.62 204.647 L1947.3 204.647 L1947.3 206.846 L1928.62 206.846 L1928.62 204.647 Z" fill="#000000" fill-rule="nonzero" fill-opacity="1" /><path clip-path="url(#clip800)" d="M1980.38 194.786 Q1978.53 194.786 1977.26 196.083 Q1975.98 197.356 1975.98 199.208 Q1975.98 201.036 1977.26 202.309 Q1978.53 203.559 1980.38 203.559 Q1982.23 203.559 1983.51 202.309 Q1984.78 201.036 1984.78 199.208 Q1984.78 197.379 1983.48 196.083 Q1982.21 194.786 1980.38 194.786 M1980.38 191.8 Q1981.86 191.8 1983.23 192.379 Q1984.59 192.934 1985.59 193.999 Q1986.65 195.041 1987.19 196.36 Q1987.72 197.68 1987.72 199.208 Q1987.72 202.263 1985.57 204.393 Q1983.44 206.499 1980.33 206.499 Q1977.21 206.499 1975.13 204.416 Q1973.04 202.333 1973.04 199.208 Q1973.04 196.106 1975.17 193.953 Q1977.3 191.8 1980.38 191.8 Z" fill="#000000" fill-rule="nonzero" fill-opacity="1" /><path clip-path="url(#clip800)" d="M2014.32 203.837 L2014.32 188.143 L2018.57 188.143 L2018.57 203.675 Q2018.57 207.356 2020.01 209.208 Q2021.45 211.036 2024.32 211.036 Q2027.76 211.036 2029.76 208.837 Q2031.77 206.638 2031.77 202.842 L2031.77 188.143 L2036.03 188.143 L2036.03 214.069 L2031.77 214.069 L2031.77 210.087 Q2030.22 212.448 2028.16 213.606 Q2026.12 214.74 2023.41 214.74 Q2018.95 214.74 2016.63 211.962 Q2014.32 209.184 2014.32 203.837 M2025.03 187.518 L2025.03 187.518 Z" fill="#000000" fill-rule="nonzero" fill-opacity="1" /><path clip-path="url(#clip800)" d="M2054.64 199.601 L2054.64 201.846 Q2053.51 201.337 2052.28 201.083 Q2051.07 200.828 2049.76 200.828 Q2047.74 200.828 2046.75 201.36 Q2045.75 201.916 2045.75 203.004 Q2045.75 203.837 2046.47 204.3 Q2047.19 204.786 2049.34 205.203 L2050.26 205.388 Q2053.16 205.944 2054.32 206.916 Q2055.52 207.911 2055.52 209.694 Q2055.52 211.708 2053.71 212.888 Q2051.93 214.069 2048.78 214.069 Q2047.46 214.069 2046.03 213.837 Q2044.62 213.606 2043.04 213.166 L2043.04 210.689 Q2044.52 211.383 2045.98 211.731 Q2047.42 212.078 2048.83 212.078 Q2050.73 212.078 2051.75 211.499 Q2052.76 210.92 2052.76 209.879 Q2052.76 208.907 2052.02 208.374 Q2051.38 207.911 2048.81 207.379 L2047.88 207.194 Q2045.38 206.708 2044.27 205.758 Q2043.16 204.786 2043.16 203.096 Q2043.16 201.059 2044.8 199.948 Q2046.42 198.814 2049.43 198.814 Q2050.91 198.814 2052.23 199.022 Q2053.55 199.208 2054.64 199.601 Z" fill="#000000" fill-rule="nonzero" fill-opacity="1" /><path clip-path="url(#clip800)" d="M2087.93 194.786 Q2086.07 194.786 2084.8 196.083 Q2083.53 197.356 2083.53 199.208 Q2083.53 201.036 2084.8 202.309 Q2086.07 203.559 2087.93 203.559 Q2089.78 203.559 2091.05 202.309 Q2092.32 201.036 2092.32 199.208 Q2092.32 197.379 2091.03 196.083 Q2089.75 194.786 2087.93 194.786 M2087.93 191.8 Q2089.41 191.8 2090.77 192.379 Q2092.14 192.934 2093.13 193.999 Q2094.2 195.041 2094.73 196.36 Q2095.26 197.68 2095.26 199.208 Q2095.26 202.263 2093.11 204.393 Q2090.98 206.499 2087.88 206.499 Q2084.75 206.499 2082.67 204.416 Q2080.59 202.333 2080.59 199.208 Q2080.59 196.106 2082.72 193.953 Q2084.85 191.8 2087.93 191.8 Z" fill="#000000" fill-rule="nonzero" fill-opacity="1" /><path clip-path="url(#clip800)" d="M2121.86 203.837 L2121.86 188.143 L2126.12 188.143 L2126.12 203.675 Q2126.12 207.356 2127.56 209.208 Q2128.99 211.036 2131.86 211.036 Q2135.31 211.036 2137.3 208.837 Q2139.31 206.638 2139.31 202.842 L2139.31 188.143 L2143.57 188.143 L2143.57 214.069 L2139.31 214.069 L2139.31 210.087 Q2137.76 212.448 2135.7 213.606 Q2133.67 214.74 2130.96 214.74 Q2126.49 214.74 2124.18 211.962 Q2121.86 209.184 2121.86 203.837 M2132.58 187.518 L2132.58 187.518 Z" fill="#000000" fill-rule="nonzero" fill-opacity="1" /><path clip-path="url(#clip800)" d="M2161.61 197.425 L2161.61 204.647 L2169.73 204.647 L2169.73 206.846 L2161.61 206.846 L2161.61 214.069 L2159.18 214.069 L2159.18 206.846 L2151.05 206.846 L2151.05 204.647 L2159.18 204.647 L2159.18 197.425 L2161.61 197.425 Z" fill="#000000" fill-rule="nonzero" fill-opacity="1" /><path clip-path="url(#clip800)" d="M1732.3 269.365 L1875.56 269.365 L1875.56 227.893 L1732.3 227.893 L1732.3 269.365  Z" fill="#9acd32" fill-rule="evenodd" fill-opacity="0.35"/>
<polyline clip-path="url(#clip800)" style="stroke:#000000; stroke-linecap:round; stroke-linejoin:round; stroke-width:4; stroke-opacity:0; fill:none" points="1732.3,269.365 1875.56,269.365 1875.56,227.893 1732.3,227.893 1732.3,269.365 "/>
<path clip-path="url(#clip800)" d="M1899.43 255.677 L1899.43 239.983 L1903.69 239.983 L1903.69 255.515 Q1903.69 259.196 1905.13 261.048 Q1906.56 262.876 1909.43 262.876 Q1912.88 262.876 1914.87 260.677 Q1916.89 258.478 1916.89 254.682 L1916.89 239.983 L1921.14 239.983 L1921.14 265.909 L1916.89 265.909 L1916.89 261.927 Q1915.33 264.288 1913.27 265.446 Q1911.24 266.58 1908.53 266.58 Q1904.06 266.58 1901.75 263.802 Q1899.43 261.024 1899.43 255.677 M1910.15 239.358 L1910.15 239.358 Z" fill="#000000" fill-rule="nonzero" fill-opacity="1" /><path clip-path="url(#clip800)" d="M1928.62 256.487 L1947.3 256.487 L1947.3 258.686 L1928.62 258.686 L1928.62 256.487 Z" fill="#000000" fill-rule="nonzero" fill-opacity="1" /><path clip-path="url(#clip800)" d="M1980.38 246.626 Q1978.53 246.626 1977.26 247.923 Q1975.98 249.196 1975.98 251.048 Q1975.98 252.876 1977.26 254.149 Q1978.53 255.399 1980.38 255.399 Q1982.23 255.399 1983.51 254.149 Q1984.78 252.876 1984.78 251.048 Q1984.78 249.219 1983.48 247.923 Q1982.21 246.626 1980.38 246.626 M1980.38 243.64 Q1981.86 243.64 1983.23 244.219 Q1984.59 244.774 1985.59 245.839 Q1986.65 246.881 1987.19 248.2 Q1987.72 249.52 1987.72 251.048 Q1987.72 254.103 1985.57 256.233 Q1983.44 258.339 1980.33 258.339 Q1977.21 258.339 1975.13 256.256 Q1973.04 254.173 1973.04 251.048 Q1973.04 247.946 1975.17 245.793 Q1977.3 243.64 1980.38 243.64 Z" fill="#000000" fill-rule="nonzero" fill-opacity="1" /><path clip-path="url(#clip800)" d="M2014.32 255.677 L2014.32 239.983 L2018.57 239.983 L2018.57 255.515 Q2018.57 259.196 2020.01 261.048 Q2021.45 262.876 2024.32 262.876 Q2027.76 262.876 2029.76 260.677 Q2031.77 258.478 2031.77 254.682 L2031.77 239.983 L2036.03 239.983 L2036.03 265.909 L2031.77 265.909 L2031.77 261.927 Q2030.22 264.288 2028.16 265.446 Q2026.12 266.58 2023.41 266.58 Q2018.95 266.58 2016.63 263.802 Q2014.32 261.024 2014.32 255.677 M2025.03 239.358 L2025.03 239.358 Z" fill="#000000" fill-rule="nonzero" fill-opacity="1" /><path clip-path="url(#clip800)" d="M2054.06 249.265 L2054.06 256.487 L2062.19 256.487 L2062.19 258.686 L2054.06 258.686 L2054.06 265.909 L2051.63 265.909 L2051.63 258.686 L2043.51 258.686 L2043.51 256.487 L2051.63 256.487 L2051.63 249.265 L2054.06 249.265 Z" fill="#000000" fill-rule="nonzero" fill-opacity="1" /><path clip-path="url(#clip800)" d="M1732.3 321.205 L1875.56 321.205 L1875.56 279.733 L1732.3 279.733 L1732.3 321.205  Z" fill="#ff0000" fill-rule="evenodd" fill-opacity="0.35"/>
<polyline clip-path="url(#clip800)" style="stroke:#000000; stroke-linecap:round; stroke-linejoin:round; stroke-width:4; stroke-opacity:0; fill:none" points="1732.3,321.205 1875.56,321.205 1875.56,279.733 1732.3,279.733 1732.3,321.205 "/>
<path clip-path="url(#clip800)" d="M1899.43 307.517 L1899.43 291.823 L1903.69 291.823 L1903.69 307.355 Q1903.69 311.036 1905.13 312.888 Q1906.56 314.716 1909.43 314.716 Q1912.88 314.716 1914.87 312.517 Q1916.89 310.318 1916.89 306.522 L1916.89 291.823 L1921.14 291.823 L1921.14 317.749 L1916.89 317.749 L1916.89 313.767 Q1915.33 316.128 1913.27 317.286 Q1911.24 318.42 1908.53 318.42 Q1904.06 318.42 1901.75 315.642 Q1899.43 312.864 1899.43 307.517 M1910.15 291.198 L1910.15 291.198 Z" fill="#000000" fill-rule="nonzero" fill-opacity="1" /><path clip-path="url(#clip800)" d="M1939.18 301.105 L1939.18 308.327 L1947.3 308.327 L1947.3 310.526 L1939.18 310.526 L1939.18 317.749 L1936.75 317.749 L1936.75 310.526 L1928.62 310.526 L1928.62 308.327 L1936.75 308.327 L1936.75 301.105 L1939.18 301.105 Z" fill="#000000" fill-rule="nonzero" fill-opacity="1" /><polyline clip-path="url(#clip800)" style="stroke:#008000; stroke-linecap:round; stroke-linejoin:round; stroke-width:12; stroke-opacity:1; fill:none" points="1732.3,352.309 1875.56,352.309 "/>
<path clip-path="url(#clip800)" d="M1899.43 359.357 L1899.43 343.663 L1903.69 343.663 L1903.69 359.195 Q1903.69 362.876 1905.13 364.728 Q1906.56 366.556 1909.43 366.556 Q1912.88 366.556 1914.87 364.357 Q1916.89 362.158 1916.89 358.362 L1916.89 343.663 L1921.14 343.663 L1921.14 369.589 L1916.89 369.589 L1916.89 365.607 Q1915.33 367.968 1913.27 369.126 Q1911.24 370.26 1908.53 370.26 Q1904.06 370.26 1901.75 367.482 Q1899.43 364.704 1899.43 359.357 M1910.15 343.038 L1910.15 343.038 Z" fill="#000000" fill-rule="nonzero" fill-opacity="1" /><path clip-path="url(#clip800)" d="M1939.76 355.121 L1939.76 357.366 Q1938.62 356.857 1937.39 356.603 Q1936.19 356.348 1934.87 356.348 Q1932.86 356.348 1931.86 356.88 Q1930.87 357.436 1930.87 358.524 Q1930.87 359.357 1931.58 359.82 Q1932.3 360.306 1934.45 360.723 L1935.38 360.908 Q1938.27 361.464 1939.43 362.436 Q1940.64 363.431 1940.64 365.214 Q1940.64 367.228 1938.83 368.408 Q1937.05 369.589 1933.9 369.589 Q1932.58 369.589 1931.14 369.357 Q1929.73 369.126 1928.16 368.686 L1928.16 366.209 Q1929.64 366.903 1931.1 367.251 Q1932.53 367.598 1933.95 367.598 Q1935.84 367.598 1936.86 367.019 Q1937.88 366.44 1937.88 365.399 Q1937.88 364.427 1937.14 363.894 Q1936.49 363.431 1933.92 362.899 L1933 362.714 Q1930.5 362.228 1929.39 361.278 Q1928.27 360.306 1928.27 358.616 Q1928.27 356.579 1929.92 355.468 Q1931.54 354.334 1934.55 354.334 Q1936.03 354.334 1937.35 354.542 Q1938.67 354.728 1939.76 355.121 Z" fill="#000000" fill-rule="nonzero" fill-opacity="1" /><polyline clip-path="url(#clip800)" style="stroke:#ffd700; stroke-linecap:round; stroke-linejoin:round; stroke-width:12; stroke-opacity:1; fill:none" points="1732.3,404.149 1875.56,404.149 "/>
<path clip-path="url(#clip800)" d="M1917.86 396.267 L1917.86 400.294 Q1916.05 399.369 1914.11 398.906 Q1912.16 398.443 1910.08 398.443 Q1906.91 398.443 1905.31 399.415 Q1903.74 400.387 1903.74 402.331 Q1903.74 403.813 1904.87 404.669 Q1906.01 405.503 1909.43 406.267 L1910.89 406.591 Q1915.43 407.563 1917.33 409.345 Q1919.25 411.105 1919.25 414.276 Q1919.25 417.887 1916.38 419.993 Q1913.53 422.1 1908.53 422.1 Q1906.45 422.1 1904.18 421.683 Q1901.93 421.29 1899.43 420.48 L1899.43 416.081 Q1901.79 417.308 1904.08 417.933 Q1906.38 418.535 1908.62 418.535 Q1911.63 418.535 1913.25 417.517 Q1914.87 416.475 1914.87 414.6 Q1914.87 412.864 1913.69 411.938 Q1912.53 411.012 1908.58 410.156 L1907.09 409.808 Q1903.14 408.975 1901.38 407.262 Q1899.62 405.526 1899.62 402.517 Q1899.62 398.859 1902.21 396.869 Q1904.8 394.878 1909.57 394.878 Q1911.93 394.878 1914.02 395.225 Q1916.1 395.572 1917.86 396.267 Z" fill="#000000" fill-rule="nonzero" fill-opacity="1" /><path clip-path="url(#clip800)" d="M1923.55 395.503 L1927.81 395.503 L1933.14 415.734 L1938.44 395.503 L1943.46 395.503 L1948.78 415.734 L1954.08 395.503 L1958.34 395.503 L1951.56 421.429 L1946.54 421.429 L1940.96 400.179 L1935.36 421.429 L1930.33 421.429 L1923.55 395.503 Z" fill="#000000" fill-rule="nonzero" fill-opacity="1" /><path clip-path="url(#clip800)" d="M1964.8 395.503 L1969.06 395.503 L1969.06 421.429 L1964.8 421.429 L1964.8 395.503 M1964.8 385.41 L1969.06 385.41 L1969.06 390.804 L1964.8 390.804 L1964.8 385.41 Z" fill="#000000" fill-rule="nonzero" fill-opacity="1" /><path clip-path="url(#clip800)" d="M1982.19 388.142 L1982.19 395.503 L1990.96 395.503 L1990.96 398.813 L1982.19 398.813 L1982.19 412.887 Q1982.19 416.058 1983.04 416.961 Q1983.92 417.864 1986.58 417.864 L1990.96 417.864 L1990.96 421.429 L1986.58 421.429 Q1981.65 421.429 1979.78 419.6 Q1977.9 417.748 1977.9 412.887 L1977.9 398.813 L1974.78 398.813 L1974.78 395.503 L1977.9 395.503 L1977.9 388.142 L1982.19 388.142 Z" fill="#000000" fill-rule="nonzero" fill-opacity="1" /><path clip-path="url(#clip800)" d="M2015.22 396.498 L2015.22 400.48 Q2013.41 399.484 2011.58 398.998 Q2009.78 398.489 2007.93 398.489 Q2003.78 398.489 2001.49 401.128 Q1999.2 403.744 1999.2 408.489 Q1999.2 413.234 2001.49 415.873 Q2003.78 418.489 2007.93 418.489 Q2009.78 418.489 2011.58 418.003 Q2013.41 417.493 2015.22 416.498 L2015.22 420.433 Q2013.44 421.267 2011.51 421.683 Q2009.62 422.1 2007.46 422.1 Q2001.61 422.1 1998.16 418.419 Q1994.71 414.739 1994.71 408.489 Q1994.71 402.146 1998.18 398.512 Q2001.68 394.878 2007.74 394.878 Q2009.71 394.878 2011.58 395.295 Q2013.46 395.688 2015.22 396.498 Z" fill="#000000" fill-rule="nonzero" fill-opacity="1" /><path clip-path="url(#clip800)" d="M2044.18 405.781 L2044.18 421.429 L2039.92 421.429 L2039.92 405.919 Q2039.92 402.239 2038.48 400.41 Q2037.05 398.582 2034.18 398.582 Q2030.73 398.582 2028.74 400.781 Q2026.75 402.98 2026.75 406.776 L2026.75 421.429 L2022.46 421.429 L2022.46 385.41 L2026.75 385.41 L2026.75 399.531 Q2028.27 397.193 2030.33 396.035 Q2032.42 394.878 2035.13 394.878 Q2039.59 394.878 2041.88 397.656 Q2044.18 400.41 2044.18 405.781 Z" fill="#000000" fill-rule="nonzero" fill-opacity="1" /><path clip-path="url(#clip800)" d="M2052.67 395.503 L2056.93 395.503 L2056.93 421.429 L2052.67 421.429 L2052.67 395.503 M2052.67 385.41 L2056.93 385.41 L2056.93 390.804 L2052.67 390.804 L2052.67 385.41 Z" fill="#000000" fill-rule="nonzero" fill-opacity="1" /><path clip-path="url(#clip800)" d="M2087.39 405.781 L2087.39 421.429 L2083.13 421.429 L2083.13 405.919 Q2083.13 402.239 2081.7 400.41 Q2080.26 398.582 2077.39 398.582 Q2073.94 398.582 2071.95 400.781 Q2069.96 402.98 2069.96 406.776 L2069.96 421.429 L2065.68 421.429 L2065.68 395.503 L2069.96 395.503 L2069.96 399.531 Q2071.49 397.193 2073.55 396.035 Q2075.63 394.878 2078.34 394.878 Q2082.81 394.878 2085.1 397.656 Q2087.39 400.41 2087.39 405.781 Z" fill="#000000" fill-rule="nonzero" fill-opacity="1" /><path clip-path="url(#clip800)" d="M2112.95 408.165 Q2112.95 403.535 2111.03 400.989 Q2109.13 398.443 2105.68 398.443 Q2102.25 398.443 2100.33 400.989 Q2098.44 403.535 2098.44 408.165 Q2098.44 412.771 2100.33 415.318 Q2102.25 417.864 2105.68 417.864 Q2109.13 417.864 2111.03 415.318 Q2112.95 412.771 2112.95 408.165 M2117.21 418.211 Q2117.21 424.831 2114.27 428.049 Q2111.33 431.29 2105.26 431.29 Q2103.02 431.29 2101.03 430.942 Q2099.04 430.618 2097.16 429.924 L2097.16 425.78 Q2099.04 426.799 2100.87 427.285 Q2102.69 427.771 2104.59 427.771 Q2108.78 427.771 2110.87 425.572 Q2112.95 423.396 2112.95 418.975 L2112.95 416.868 Q2111.63 419.16 2109.57 420.294 Q2107.51 421.429 2104.64 421.429 Q2099.87 421.429 2096.95 417.794 Q2094.04 414.16 2094.04 408.165 Q2094.04 402.146 2096.95 398.512 Q2099.87 394.878 2104.64 394.878 Q2107.51 394.878 2109.57 396.012 Q2111.63 397.146 2112.95 399.438 L2112.95 395.503 L2117.21 395.503 L2117.21 418.211 Z" fill="#000000" fill-rule="nonzero" fill-opacity="1" /><path clip-path="url(#clip800)" d="M2141.05 385.41 L2145.31 385.41 L2145.31 421.429 L2141.05 421.429 L2141.05 385.41 Z" fill="#000000" fill-rule="nonzero" fill-opacity="1" /><path clip-path="url(#clip800)" d="M2164.27 398.489 Q2160.84 398.489 2158.85 401.174 Q2156.86 403.836 2156.86 408.489 Q2156.86 413.142 2158.83 415.827 Q2160.82 418.489 2164.27 418.489 Q2167.67 418.489 2169.66 415.804 Q2171.65 413.118 2171.65 408.489 Q2171.65 403.882 2169.66 401.197 Q2167.67 398.489 2164.27 398.489 M2164.27 394.878 Q2169.82 394.878 2173 398.489 Q2176.17 402.1 2176.17 408.489 Q2176.17 414.855 2173 418.489 Q2169.82 422.1 2164.27 422.1 Q2158.69 422.1 2155.52 418.489 Q2152.37 414.855 2152.37 408.489 Q2152.37 402.1 2155.52 398.489 Q2158.69 394.878 2164.27 394.878 Z" fill="#000000" fill-rule="nonzero" fill-opacity="1" /><path clip-path="url(#clip800)" d="M2201.88 396.498 L2201.88 400.48 Q2200.08 399.484 2198.25 398.998 Q2196.44 398.489 2194.59 398.489 Q2190.45 398.489 2188.16 401.128 Q2185.87 403.744 2185.87 408.489 Q2185.87 413.234 2188.16 415.873 Q2190.45 418.489 2194.59 418.489 Q2196.44 418.489 2198.25 418.003 Q2200.08 417.493 2201.88 416.498 L2201.88 420.433 Q2200.1 421.267 2198.18 421.683 Q2196.28 422.1 2194.13 422.1 Q2188.27 422.1 2184.82 418.419 Q2181.37 414.739 2181.37 408.489 Q2181.37 402.146 2184.85 398.512 Q2188.34 394.878 2194.41 394.878 Q2196.37 394.878 2198.25 395.295 Q2200.12 395.688 2201.88 396.498 Z" fill="#000000" fill-rule="nonzero" fill-opacity="1" /><path clip-path="url(#clip800)" d="M2208.85 411.197 L2208.85 395.503 L2213.11 395.503 L2213.11 411.035 Q2213.11 414.716 2214.55 416.568 Q2215.98 418.396 2218.85 418.396 Q2222.3 418.396 2224.29 416.197 Q2226.31 413.998 2226.31 410.202 L2226.31 395.503 L2230.56 395.503 L2230.56 421.429 L2226.31 421.429 L2226.31 417.447 Q2224.75 419.808 2222.69 420.966 Q2220.66 422.1 2217.95 422.1 Q2213.48 422.1 2211.17 419.322 Q2208.85 416.544 2208.85 411.197 M2219.57 394.878 L2219.57 394.878 Z" fill="#000000" fill-rule="nonzero" fill-opacity="1" /><path clip-path="url(#clip800)" d="M2255.87 396.267 L2255.87 400.294 Q2254.06 399.369 2252.12 398.906 Q2250.17 398.443 2248.09 398.443 Q2244.92 398.443 2243.32 399.415 Q2241.74 400.387 2241.74 402.331 Q2241.74 403.813 2242.88 404.669 Q2244.01 405.503 2247.44 406.267 L2248.9 406.591 Q2253.43 407.563 2255.33 409.345 Q2257.25 411.105 2257.25 414.276 Q2257.25 417.887 2254.38 419.993 Q2251.54 422.1 2246.54 422.1 Q2244.45 422.1 2242.18 421.683 Q2239.94 421.29 2237.44 420.48 L2237.44 416.081 Q2239.8 417.308 2242.09 417.933 Q2244.38 418.535 2246.63 418.535 Q2249.64 418.535 2251.26 417.517 Q2252.88 416.475 2252.88 414.6 Q2252.88 412.864 2251.7 411.938 Q2250.54 411.012 2246.58 410.156 L2245.1 409.808 Q2241.14 408.975 2239.38 407.262 Q2237.62 405.526 2237.62 402.517 Q2237.62 398.859 2240.22 396.869 Q2242.81 394.878 2247.58 394.878 Q2249.94 394.878 2252.02 395.225 Q2254.11 395.572 2255.87 396.267 Z" fill="#000000" fill-rule="nonzero" fill-opacity="1" /><polyline clip-path="url(#clip800)" style="stroke:#808080; stroke-linecap:round; stroke-linejoin:round; stroke-width:12; stroke-opacity:1; fill:none" points="1732.3,455.989 1875.56,455.989 "/>
<path clip-path="url(#clip800)" d="M1918.34 451.278 L1918.34 437.25 L1922.6 437.25 L1922.6 473.269 L1918.34 473.269 L1918.34 469.38 Q1917 471.695 1914.94 472.829 Q1912.9 473.94 1910.03 473.94 Q1905.33 473.94 1902.37 470.19 Q1899.43 466.44 1899.43 460.329 Q1899.43 454.218 1902.37 450.468 Q1905.33 446.718 1910.03 446.718 Q1912.9 446.718 1914.94 447.852 Q1917 448.963 1918.34 451.278 M1903.83 460.329 Q1903.83 465.028 1905.75 467.713 Q1907.7 470.375 1911.08 470.375 Q1914.45 470.375 1916.4 467.713 Q1918.34 465.028 1918.34 460.329 Q1918.34 455.63 1916.4 452.968 Q1914.45 450.283 1911.08 450.283 Q1907.7 450.283 1905.75 452.968 Q1903.83 455.63 1903.83 460.329 Z" fill="#000000" fill-rule="nonzero" fill-opacity="1" /><path clip-path="url(#clip800)" d="M1931.38 447.343 L1935.64 447.343 L1935.64 473.269 L1931.38 473.269 L1931.38 447.343 M1931.38 437.25 L1935.64 437.25 L1935.64 442.644 L1931.38 442.644 L1931.38 437.25 Z" fill="#000000" fill-rule="nonzero" fill-opacity="1" /><path clip-path="url(#clip800)" d="M1961.08 448.107 L1961.08 452.134 Q1959.27 451.209 1957.33 450.746 Q1955.38 450.283 1953.3 450.283 Q1950.13 450.283 1948.53 451.255 Q1946.95 452.227 1946.95 454.171 Q1946.95 455.653 1948.09 456.509 Q1949.22 457.343 1952.65 458.107 L1954.11 458.431 Q1958.64 459.403 1960.54 461.185 Q1962.46 462.945 1962.46 466.116 Q1962.46 469.727 1959.59 471.833 Q1956.75 473.94 1951.75 473.94 Q1949.66 473.94 1947.39 473.523 Q1945.15 473.13 1942.65 472.32 L1942.65 467.921 Q1945.01 469.148 1947.3 469.773 Q1949.59 470.375 1951.84 470.375 Q1954.85 470.375 1956.47 469.357 Q1958.09 468.315 1958.09 466.44 Q1958.09 464.704 1956.91 463.778 Q1955.75 462.852 1951.79 461.996 L1950.31 461.648 Q1946.35 460.815 1944.59 459.102 Q1942.83 457.366 1942.83 454.357 Q1942.83 450.699 1945.43 448.709 Q1948.02 446.718 1952.79 446.718 Q1955.15 446.718 1957.23 447.065 Q1959.32 447.412 1961.08 448.107 Z" fill="#000000" fill-rule="nonzero" fill-opacity="1" /><path clip-path="url(#clip800)" d="M1973.37 469.38 L1973.37 483.13 L1969.08 483.13 L1969.08 447.343 L1973.37 447.343 L1973.37 451.278 Q1974.71 448.963 1976.75 447.852 Q1978.81 446.718 1981.65 446.718 Q1986.38 446.718 1989.32 450.468 Q1992.28 454.218 1992.28 460.329 Q1992.28 466.44 1989.32 470.19 Q1986.38 473.94 1981.65 473.94 Q1978.81 473.94 1976.75 472.829 Q1974.71 471.695 1973.37 469.38 M1987.86 460.329 Q1987.86 455.63 1985.91 452.968 Q1983.99 450.283 1980.61 450.283 Q1977.23 450.283 1975.29 452.968 Q1973.37 455.63 1973.37 460.329 Q1973.37 465.028 1975.29 467.713 Q1977.23 470.375 1980.61 470.375 Q1983.99 470.375 1985.91 467.713 Q1987.86 465.028 1987.86 460.329 Z" fill="#000000" fill-rule="nonzero" fill-opacity="1" /><path clip-path="url(#clip800)" d="M2021.51 459.241 L2021.51 461.324 L2001.93 461.324 Q2002.21 465.722 2004.57 468.037 Q2006.95 470.329 2011.19 470.329 Q2013.64 470.329 2015.94 469.727 Q2018.25 469.125 2020.52 467.921 L2020.52 471.949 Q2018.23 472.921 2015.82 473.431 Q2013.41 473.94 2010.94 473.94 Q2004.73 473.94 2001.1 470.329 Q1997.49 466.718 1997.49 460.56 Q1997.49 454.195 2000.91 450.468 Q2004.36 446.718 2010.2 446.718 Q2015.43 446.718 2018.46 450.097 Q2021.51 453.454 2021.51 459.241 M2017.26 457.991 Q2017.21 454.496 2015.29 452.412 Q2013.39 450.329 2010.24 450.329 Q2006.68 450.329 2004.52 452.343 Q2002.39 454.357 2002.07 458.014 L2017.26 457.991 Z" fill="#000000" fill-rule="nonzero" fill-opacity="1" /><path clip-path="url(#clip800)" d="M2043.53 451.324 Q2042.81 450.908 2041.95 450.722 Q2041.12 450.514 2040.1 450.514 Q2036.49 450.514 2034.55 452.875 Q2032.63 455.213 2032.63 459.611 L2032.63 473.269 L2028.34 473.269 L2028.34 447.343 L2032.63 447.343 L2032.63 451.371 Q2033.97 449.009 2036.12 447.875 Q2038.27 446.718 2041.35 446.718 Q2041.79 446.718 2042.32 446.787 Q2042.86 446.834 2043.51 446.949 L2043.53 451.324 Z" fill="#000000" fill-rule="nonzero" fill-opacity="1" /><path clip-path="url(#clip800)" d="M2064.52 448.107 L2064.52 452.134 Q2062.72 451.209 2060.77 450.746 Q2058.83 450.283 2056.75 450.283 Q2053.57 450.283 2051.98 451.255 Q2050.4 452.227 2050.4 454.171 Q2050.4 455.653 2051.54 456.509 Q2052.67 457.343 2056.1 458.107 L2057.56 458.431 Q2062.09 459.403 2063.99 461.185 Q2065.91 462.945 2065.91 466.116 Q2065.91 469.727 2063.04 471.833 Q2060.19 473.94 2055.19 473.94 Q2053.11 473.94 2050.84 473.523 Q2048.6 473.13 2046.1 472.32 L2046.1 467.921 Q2048.46 469.148 2050.75 469.773 Q2053.04 470.375 2055.29 470.375 Q2058.3 470.375 2059.92 469.357 Q2061.54 468.315 2061.54 466.44 Q2061.54 464.704 2060.36 463.778 Q2059.2 462.852 2055.24 461.996 L2053.76 461.648 Q2049.8 460.815 2048.04 459.102 Q2046.28 457.366 2046.28 454.357 Q2046.28 450.699 2048.88 448.709 Q2051.47 446.718 2056.24 446.718 Q2058.6 446.718 2060.68 447.065 Q2062.76 447.412 2064.52 448.107 Z" fill="#000000" fill-rule="nonzero" fill-opacity="1" /><path clip-path="url(#clip800)" d="M2084.48 460.236 Q2079.32 460.236 2077.32 461.417 Q2075.33 462.597 2075.33 465.445 Q2075.33 467.713 2076.82 469.056 Q2078.32 470.375 2080.89 470.375 Q2084.43 470.375 2086.56 467.875 Q2088.71 465.352 2088.71 461.185 L2088.71 460.236 L2084.48 460.236 M2092.97 458.477 L2092.97 473.269 L2088.71 473.269 L2088.71 469.333 Q2087.25 471.695 2085.08 472.829 Q2082.9 473.94 2079.75 473.94 Q2075.77 473.94 2073.41 471.718 Q2071.07 469.472 2071.07 465.722 Q2071.07 461.347 2073.99 459.125 Q2076.93 456.903 2082.74 456.903 L2088.71 456.903 L2088.71 456.486 Q2088.71 453.547 2086.77 451.949 Q2084.85 450.329 2081.35 450.329 Q2079.13 450.329 2077.02 450.861 Q2074.92 451.394 2072.97 452.459 L2072.97 448.523 Q2075.31 447.621 2077.51 447.181 Q2079.71 446.718 2081.79 446.718 Q2087.42 446.718 2090.19 449.634 Q2092.97 452.551 2092.97 458.477 Z" fill="#000000" fill-rule="nonzero" fill-opacity="1" /><path clip-path="url(#clip800)" d="M2101.75 437.25 L2106 437.25 L2106 473.269 L2101.75 473.269 L2101.75 437.25 Z" fill="#000000" fill-rule="nonzero" fill-opacity="1" /><path clip-path="url(#clip800)" d="M2129.99 437.25 L2134.25 437.25 L2134.25 473.269 L2129.99 473.269 L2129.99 437.25 Z" fill="#000000" fill-rule="nonzero" fill-opacity="1" /><path clip-path="url(#clip800)" d="M2153.2 450.329 Q2149.78 450.329 2147.79 453.014 Q2145.8 455.676 2145.8 460.329 Q2145.8 464.982 2147.76 467.667 Q2149.75 470.329 2153.2 470.329 Q2156.61 470.329 2158.6 467.644 Q2160.59 464.958 2160.59 460.329 Q2160.59 455.722 2158.6 453.037 Q2156.61 450.329 2153.2 450.329 M2153.2 446.718 Q2158.76 446.718 2161.93 450.329 Q2165.1 453.94 2165.1 460.329 Q2165.1 466.695 2161.93 470.329 Q2158.76 473.94 2153.2 473.94 Q2147.62 473.94 2144.45 470.329 Q2141.31 466.695 2141.31 460.329 Q2141.31 453.94 2144.45 450.329 Q2147.62 446.718 2153.2 446.718 Z" fill="#000000" fill-rule="nonzero" fill-opacity="1" /><path clip-path="url(#clip800)" d="M2190.82 448.338 L2190.82 452.32 Q2189.01 451.324 2187.18 450.838 Q2185.38 450.329 2183.53 450.329 Q2179.38 450.329 2177.09 452.968 Q2174.8 455.584 2174.8 460.329 Q2174.8 465.074 2177.09 467.713 Q2179.38 470.329 2183.53 470.329 Q2185.38 470.329 2187.18 469.843 Q2189.01 469.333 2190.82 468.338 L2190.82 472.273 Q2189.04 473.107 2187.12 473.523 Q2185.22 473.94 2183.06 473.94 Q2177.21 473.94 2173.76 470.259 Q2170.31 466.579 2170.31 460.329 Q2170.31 453.986 2173.78 450.352 Q2177.28 446.718 2183.34 446.718 Q2185.31 446.718 2187.18 447.135 Q2189.06 447.528 2190.82 448.338 Z" fill="#000000" fill-rule="nonzero" fill-opacity="1" /><path clip-path="url(#clip800)" d="M2197.79 463.037 L2197.79 447.343 L2202.05 447.343 L2202.05 462.875 Q2202.05 466.556 2203.48 468.408 Q2204.92 470.236 2207.79 470.236 Q2211.24 470.236 2213.23 468.037 Q2215.24 465.838 2215.24 462.042 L2215.24 447.343 L2219.5 447.343 L2219.5 473.269 L2215.24 473.269 L2215.24 469.287 Q2213.69 471.648 2211.63 472.806 Q2209.59 473.94 2206.88 473.94 Q2202.42 473.94 2200.1 471.162 Q2197.79 468.384 2197.79 463.037 M2208.5 446.718 L2208.5 446.718 Z" fill="#000000" fill-rule="nonzero" fill-opacity="1" /><path clip-path="url(#clip800)" d="M2244.8 448.107 L2244.8 452.134 Q2242.99 451.209 2241.05 450.746 Q2239.11 450.283 2237.02 450.283 Q2233.85 450.283 2232.25 451.255 Q2230.68 452.227 2230.68 454.171 Q2230.68 455.653 2231.81 456.509 Q2232.95 457.343 2236.37 458.107 L2237.83 458.431 Q2242.37 459.403 2244.27 461.185 Q2246.19 462.945 2246.19 466.116 Q2246.19 469.727 2243.32 471.833 Q2240.47 473.94 2235.47 473.94 Q2233.39 473.94 2231.12 473.523 Q2228.87 473.13 2226.37 472.32 L2226.37 467.921 Q2228.74 469.148 2231.03 469.773 Q2233.32 470.375 2235.56 470.375 Q2238.57 470.375 2240.19 469.357 Q2241.81 468.315 2241.81 466.44 Q2241.81 464.704 2240.63 463.778 Q2239.48 462.852 2235.52 461.996 L2234.04 461.648 Q2230.08 460.815 2228.32 459.102 Q2226.56 457.366 2226.56 454.357 Q2226.56 450.699 2229.15 448.709 Q2231.74 446.718 2236.51 446.718 Q2238.87 446.718 2240.96 447.065 Q2243.04 447.412 2244.8 448.107 Z" fill="#000000" fill-rule="nonzero" fill-opacity="1" /><polyline clip-path="url(#clip800)" style="stroke:#4d4d4d; stroke-linecap:round; stroke-linejoin:round; stroke-width:12; stroke-opacity:1; fill:none" points="1732.3,507.829 1875.56,507.829 "/>
<path clip-path="url(#clip800)" d="M1918.34 503.118 L1918.34 489.09 L1922.6 489.09 L1922.6 525.109 L1918.34 525.109 L1918.34 521.22 Q1917 523.535 1914.94 524.669 Q1912.9 525.78 1910.03 525.78 Q1905.33 525.78 1902.37 522.03 Q1899.43 518.28 1899.43 512.169 Q1899.43 506.058 1902.37 502.308 Q1905.33 498.558 1910.03 498.558 Q1912.9 498.558 1914.94 499.692 Q1917 500.803 1918.34 503.118 M1903.83 512.169 Q1903.83 516.868 1905.75 519.553 Q1907.7 522.215 1911.08 522.215 Q1914.45 522.215 1916.4 519.553 Q1918.34 516.868 1918.34 512.169 Q1918.34 507.47 1916.4 504.808 Q1914.45 502.123 1911.08 502.123 Q1907.7 502.123 1905.75 504.808 Q1903.83 507.47 1903.83 512.169 Z" fill="#000000" fill-rule="nonzero" fill-opacity="1" /><path clip-path="url(#clip800)" d="M1931.38 499.183 L1935.64 499.183 L1935.64 525.109 L1931.38 525.109 L1931.38 499.183 M1931.38 489.09 L1935.64 489.09 L1935.64 494.484 L1931.38 494.484 L1931.38 489.09 Z" fill="#000000" fill-rule="nonzero" fill-opacity="1" /><path clip-path="url(#clip800)" d="M1961.08 499.947 L1961.08 503.974 Q1959.27 503.049 1957.33 502.586 Q1955.38 502.123 1953.3 502.123 Q1950.13 502.123 1948.53 503.095 Q1946.95 504.067 1946.95 506.011 Q1946.95 507.493 1948.09 508.349 Q1949.22 509.183 1952.65 509.947 L1954.11 510.271 Q1958.64 511.243 1960.54 513.025 Q1962.46 514.785 1962.46 517.956 Q1962.46 521.567 1959.59 523.673 Q1956.75 525.78 1951.75 525.78 Q1949.66 525.78 1947.39 525.363 Q1945.15 524.97 1942.65 524.16 L1942.65 519.761 Q1945.01 520.988 1947.3 521.613 Q1949.59 522.215 1951.84 522.215 Q1954.85 522.215 1956.47 521.197 Q1958.09 520.155 1958.09 518.28 Q1958.09 516.544 1956.91 515.618 Q1955.75 514.692 1951.79 513.836 L1950.31 513.488 Q1946.35 512.655 1944.59 510.942 Q1942.83 509.206 1942.83 506.197 Q1942.83 502.539 1945.43 500.549 Q1948.02 498.558 1952.79 498.558 Q1955.15 498.558 1957.23 498.905 Q1959.32 499.252 1961.08 499.947 Z" fill="#000000" fill-rule="nonzero" fill-opacity="1" /><path clip-path="url(#clip800)" d="M1973.37 521.22 L1973.37 534.97 L1969.08 534.97 L1969.08 499.183 L1973.37 499.183 L1973.37 503.118 Q1974.71 500.803 1976.75 499.692 Q1978.81 498.558 1981.65 498.558 Q1986.38 498.558 1989.32 502.308 Q1992.28 506.058 1992.28 512.169 Q1992.28 518.28 1989.32 522.03 Q1986.38 525.78 1981.65 525.78 Q1978.81 525.78 1976.75 524.669 Q1974.71 523.535 1973.37 521.22 M1987.86 512.169 Q1987.86 507.47 1985.91 504.808 Q1983.99 502.123 1980.61 502.123 Q1977.23 502.123 1975.29 504.808 Q1973.37 507.47 1973.37 512.169 Q1973.37 516.868 1975.29 519.553 Q1977.23 522.215 1980.61 522.215 Q1983.99 522.215 1985.91 519.553 Q1987.86 516.868 1987.86 512.169 Z" fill="#000000" fill-rule="nonzero" fill-opacity="1" /><path clip-path="url(#clip800)" d="M2021.51 511.081 L2021.51 513.164 L2001.93 513.164 Q2002.21 517.562 2004.57 519.877 Q2006.95 522.169 2011.19 522.169 Q2013.64 522.169 2015.94 521.567 Q2018.25 520.965 2020.52 519.761 L2020.52 523.789 Q2018.23 524.761 2015.82 525.271 Q2013.41 525.78 2010.94 525.78 Q2004.73 525.78 2001.1 522.169 Q1997.49 518.558 1997.49 512.4 Q1997.49 506.035 2000.91 502.308 Q2004.36 498.558 2010.2 498.558 Q2015.43 498.558 2018.46 501.937 Q2021.51 505.294 2021.51 511.081 M2017.26 509.831 Q2017.21 506.336 2015.29 504.252 Q2013.39 502.169 2010.24 502.169 Q2006.68 502.169 2004.52 504.183 Q2002.39 506.197 2002.07 509.854 L2017.26 509.831 Z" fill="#000000" fill-rule="nonzero" fill-opacity="1" /><path clip-path="url(#clip800)" d="M2043.53 503.164 Q2042.81 502.748 2041.95 502.562 Q2041.12 502.354 2040.1 502.354 Q2036.49 502.354 2034.55 504.715 Q2032.63 507.053 2032.63 511.451 L2032.63 525.109 L2028.34 525.109 L2028.34 499.183 L2032.63 499.183 L2032.63 503.211 Q2033.97 500.849 2036.12 499.715 Q2038.27 498.558 2041.35 498.558 Q2041.79 498.558 2042.32 498.627 Q2042.86 498.674 2043.51 498.789 L2043.53 503.164 Z" fill="#000000" fill-rule="nonzero" fill-opacity="1" /><path clip-path="url(#clip800)" d="M2064.52 499.947 L2064.52 503.974 Q2062.72 503.049 2060.77 502.586 Q2058.83 502.123 2056.75 502.123 Q2053.57 502.123 2051.98 503.095 Q2050.4 504.067 2050.4 506.011 Q2050.4 507.493 2051.54 508.349 Q2052.67 509.183 2056.1 509.947 L2057.56 510.271 Q2062.09 511.243 2063.99 513.025 Q2065.91 514.785 2065.91 517.956 Q2065.91 521.567 2063.04 523.673 Q2060.19 525.78 2055.19 525.78 Q2053.11 525.78 2050.84 525.363 Q2048.6 524.97 2046.1 524.16 L2046.1 519.761 Q2048.46 520.988 2050.75 521.613 Q2053.04 522.215 2055.29 522.215 Q2058.3 522.215 2059.92 521.197 Q2061.54 520.155 2061.54 518.28 Q2061.54 516.544 2060.36 515.618 Q2059.2 514.692 2055.24 513.836 L2053.76 513.488 Q2049.8 512.655 2048.04 510.942 Q2046.28 509.206 2046.28 506.197 Q2046.28 502.539 2048.88 500.549 Q2051.47 498.558 2056.24 498.558 Q2058.6 498.558 2060.68 498.905 Q2062.76 499.252 2064.52 499.947 Z" fill="#000000" fill-rule="nonzero" fill-opacity="1" /><path clip-path="url(#clip800)" d="M2084.48 512.076 Q2079.32 512.076 2077.32 513.257 Q2075.33 514.437 2075.33 517.285 Q2075.33 519.553 2076.82 520.896 Q2078.32 522.215 2080.89 522.215 Q2084.43 522.215 2086.56 519.715 Q2088.71 517.192 2088.71 513.025 L2088.71 512.076 L2084.48 512.076 M2092.97 510.317 L2092.97 525.109 L2088.71 525.109 L2088.71 521.173 Q2087.25 523.535 2085.08 524.669 Q2082.9 525.78 2079.75 525.78 Q2075.77 525.78 2073.41 523.558 Q2071.07 521.312 2071.07 517.562 Q2071.07 513.187 2073.99 510.965 Q2076.93 508.743 2082.74 508.743 L2088.71 508.743 L2088.71 508.326 Q2088.71 505.387 2086.77 503.789 Q2084.85 502.169 2081.35 502.169 Q2079.13 502.169 2077.02 502.701 Q2074.92 503.234 2072.97 504.299 L2072.97 500.363 Q2075.31 499.461 2077.51 499.021 Q2079.71 498.558 2081.79 498.558 Q2087.42 498.558 2090.19 501.474 Q2092.97 504.391 2092.97 510.317 Z" fill="#000000" fill-rule="nonzero" fill-opacity="1" /><path clip-path="url(#clip800)" d="M2101.75 489.09 L2106 489.09 L2106 525.109 L2101.75 525.109 L2101.75 489.09 Z" fill="#000000" fill-rule="nonzero" fill-opacity="1" /><path clip-path="url(#clip800)" d="M2129.99 489.09 L2134.25 489.09 L2134.25 525.109 L2129.99 525.109 L2129.99 489.09 Z" fill="#000000" fill-rule="nonzero" fill-opacity="1" /><path clip-path="url(#clip800)" d="M2153.2 502.169 Q2149.78 502.169 2147.79 504.854 Q2145.8 507.516 2145.8 512.169 Q2145.8 516.822 2147.76 519.507 Q2149.75 522.169 2153.2 522.169 Q2156.61 522.169 2158.6 519.484 Q2160.59 516.798 2160.59 512.169 Q2160.59 507.562 2158.6 504.877 Q2156.61 502.169 2153.2 502.169 M2153.2 498.558 Q2158.76 498.558 2161.93 502.169 Q2165.1 505.78 2165.1 512.169 Q2165.1 518.535 2161.93 522.169 Q2158.76 525.78 2153.2 525.78 Q2147.62 525.78 2144.45 522.169 Q2141.31 518.535 2141.31 512.169 Q2141.31 505.78 2144.45 502.169 Q2147.62 498.558 2153.2 498.558 Z" fill="#000000" fill-rule="nonzero" fill-opacity="1" /><path clip-path="url(#clip800)" d="M2190.82 500.178 L2190.82 504.16 Q2189.01 503.164 2187.18 502.678 Q2185.38 502.169 2183.53 502.169 Q2179.38 502.169 2177.09 504.808 Q2174.8 507.424 2174.8 512.169 Q2174.8 516.914 2177.09 519.553 Q2179.38 522.169 2183.53 522.169 Q2185.38 522.169 2187.18 521.683 Q2189.01 521.173 2190.82 520.178 L2190.82 524.113 Q2189.04 524.947 2187.12 525.363 Q2185.22 525.78 2183.06 525.78 Q2177.21 525.78 2173.76 522.099 Q2170.31 518.419 2170.31 512.169 Q2170.31 505.826 2173.78 502.192 Q2177.28 498.558 2183.34 498.558 Q2185.31 498.558 2187.18 498.975 Q2189.06 499.368 2190.82 500.178 Z" fill="#000000" fill-rule="nonzero" fill-opacity="1" /><path clip-path="url(#clip800)" d="M2197.79 514.877 L2197.79 499.183 L2202.05 499.183 L2202.05 514.715 Q2202.05 518.396 2203.48 520.248 Q2204.92 522.076 2207.79 522.076 Q2211.24 522.076 2213.23 519.877 Q2215.24 517.678 2215.24 513.882 L2215.24 499.183 L2219.5 499.183 L2219.5 525.109 L2215.24 525.109 L2215.24 521.127 Q2213.69 523.488 2211.63 524.646 Q2209.59 525.78 2206.88 525.78 Q2202.42 525.78 2200.1 523.002 Q2197.79 520.224 2197.79 514.877 M2208.5 498.558 L2208.5 498.558 Z" fill="#000000" fill-rule="nonzero" fill-opacity="1" /><path clip-path="url(#clip800)" d="M2244.8 499.947 L2244.8 503.974 Q2242.99 503.049 2241.05 502.586 Q2239.11 502.123 2237.02 502.123 Q2233.85 502.123 2232.25 503.095 Q2230.68 504.067 2230.68 506.011 Q2230.68 507.493 2231.81 508.349 Q2232.95 509.183 2236.37 509.947 L2237.83 510.271 Q2242.37 511.243 2244.27 513.025 Q2246.19 514.785 2246.19 517.956 Q2246.19 521.567 2243.32 523.673 Q2240.47 525.78 2235.47 525.78 Q2233.39 525.78 2231.12 525.363 Q2228.87 524.97 2226.37 524.16 L2226.37 519.761 Q2228.74 520.988 2231.03 521.613 Q2233.32 522.215 2235.56 522.215 Q2238.57 522.215 2240.19 521.197 Q2241.81 520.155 2241.81 518.28 Q2241.81 516.544 2240.63 515.618 Q2239.48 514.692 2235.52 513.836 L2234.04 513.488 Q2230.08 512.655 2228.32 510.942 Q2226.56 509.206 2226.56 506.197 Q2226.56 502.539 2229.15 500.549 Q2231.74 498.558 2236.51 498.558 Q2238.87 498.558 2240.96 498.905 Q2243.04 499.252 2244.8 499.947 Z" fill="#000000" fill-rule="nonzero" fill-opacity="1" /></svg>
