<?xml version="1.0" encoding="utf-8"?>
<svg xmlns="http://www.w3.org/2000/svg" xmlns:xlink="http://www.w3.org/1999/xlink" width="600" height="400" viewBox="0 0 2400 1600">
<defs>
  <clipPath id="clip640">
    <rect x="0" y="0" width="2400" height="1600"/>
  </clipPath>
</defs>
<path clip-path="url(#clip640)" d="M0 1600 L2400 1600 L2400 0 L0 0  Z" fill="#ffffff" fill-rule="evenodd" fill-opacity="1"/>
<defs>
  <clipPath id="clip641">
    <rect x="480" y="0" width="1681" height="1600"/>
  </clipPath>
</defs>
<path clip-path="url(#clip640)" d="M250.028 1423.18 L2352.76 1423.18 L2352.76 47.2441 L250.028 47.2441  Z" fill="#ffffff" fill-rule="evenodd" fill-opacity="1"/>
<defs>
  <clipPath id="clip642">
    <rect x="250" y="47" width="2104" height="1377"/>
  </clipPath>
</defs>
<polyline clip-path="url(#clip642)" style="stroke:#000000; stroke-linecap:round; stroke-linejoin:round; stroke-width:2; stroke-opacity:0.1; fill:none" points="250.028,1423.18 250.028,47.2441 "/>
<polyline clip-path="url(#clip642)" style="stroke:#000000; stroke-linecap:round; stroke-linejoin:round; stroke-width:2; stroke-opacity:0.1; fill:none" points="950.937,1423.18 950.937,47.2441 "/>
<polyline clip-path="url(#clip642)" style="stroke:#000000; stroke-linecap:round; stroke-linejoin:round; stroke-width:2; stroke-opacity:0.1; fill:none" points="1651.85,1423.18 1651.85,47.2441 "/>
<polyline clip-path="url(#clip642)" style="stroke:#000000; stroke-linecap:round; stroke-linejoin:round; stroke-width:2; stroke-opacity:0.1; fill:none" points="2352.76,1423.18 2352.76,47.2441 "/>
<polyline clip-path="url(#clip642)" style="stroke:#000000; stroke-linecap:round; stroke-linejoin:round; stroke-width:2; stroke-opacity:0.1; fill:none" points="250.028,1423.18 2352.76,1423.18 "/>
<polyline clip-path="url(#clip642)" style="stroke:#000000; stroke-linecap:round; stroke-linejoin:round; stroke-width:2; stroke-opacity:0.1; fill:none" points="250.028,1147.99 2352.76,1147.99 "/>
<polyline clip-path="url(#clip642)" style="stroke:#000000; stroke-linecap:round; stroke-linejoin:round; stroke-width:2; stroke-opacity:0.1; fill:none" points="250.028,872.806 2352.76,872.806 "/>
<polyline clip-path="url(#clip642)" style="stroke:#000000; stroke-linecap:round; stroke-linejoin:round; stroke-width:2; stroke-opacity:0.1; fill:none" points="250.028,597.618 2352.76,597.618 "/>
<polyline clip-path="url(#clip642)" style="stroke:#000000; stroke-linecap:round; stroke-linejoin:round; stroke-width:2; stroke-opacity:0.1; fill:none" points="250.028,322.431 2352.76,322.431 "/>
<polyline clip-path="url(#clip640)" style="stroke:#000000; stroke-linecap:round; stroke-linejoin:round; stroke-width:4; stroke-opacity:1; fill:none" points="250.028,1423.18 2352.76,1423.18 "/>
<polyline clip-path="url(#clip640)" style="stroke:#000000; stroke-linecap:round; stroke-linejoin:round; stroke-width:4; stroke-opacity:1; fill:none" points="250.028,1423.18 250.028,1404.28 "/>
<polyline clip-path="url(#clip640)" style="stroke:#000000; stroke-linecap:round; stroke-linejoin:round; stroke-width:4; stroke-opacity:1; fill:none" points="950.937,1423.18 950.937,1404.28 "/>
<polyline clip-path="url(#clip640)" style="stroke:#000000; stroke-linecap:round; stroke-linejoin:round; stroke-width:4; stroke-opacity:1; fill:none" points="1651.85,1423.18 1651.85,1404.28 "/>
<polyline clip-path="url(#clip640)" style="stroke:#000000; stroke-linecap:round; stroke-linejoin:round; stroke-width:4; stroke-opacity:1; fill:none" points="2352.76,1423.18 2352.76,1404.28 "/>
<path clip-path="url(#clip640)" d="M197.251 1454.1 Q193.64 1454.1 191.811 1457.66 Q190.005 1461.2 190.005 1468.33 Q190.005 1475.44 191.811 1479.01 Q193.64 1482.55 197.251 1482.55 Q200.885 1482.55 202.69 1479.01 Q204.519 1475.44 204.519 1468.33 Q204.519 1461.2 202.69 1457.66 Q200.885 1454.1 197.251 1454.1 M197.251 1450.39 Q203.061 1450.39 206.116 1455 Q209.195 1459.58 209.195 1468.33 Q209.195 1477.06 206.116 1481.67 Q203.061 1486.25 197.251 1486.25 Q191.44 1486.25 188.362 1481.67 Q185.306 1477.06 185.306 1468.33 Q185.306 1459.58 188.362 1455 Q191.44 1450.39 197.251 1450.39 Z" fill="#000000" fill-rule="nonzero" fill-opacity="1" /><path clip-path="url(#clip640)" d="M217.413 1479.7 L222.297 1479.7 L222.297 1485.58 L217.413 1485.58 L217.413 1479.7 Z" fill="#000000" fill-rule="nonzero" fill-opacity="1" /><path clip-path="url(#clip640)" d="M242.482 1454.1 Q238.871 1454.1 237.042 1457.66 Q235.237 1461.2 235.237 1468.33 Q235.237 1475.44 237.042 1479.01 Q238.871 1482.55 242.482 1482.55 Q246.116 1482.55 247.922 1479.01 Q249.75 1475.44 249.75 1468.33 Q249.75 1461.2 247.922 1457.66 Q246.116 1454.1 242.482 1454.1 M242.482 1450.39 Q248.292 1450.39 251.348 1455 Q254.426 1459.58 254.426 1468.33 Q254.426 1477.06 251.348 1481.67 Q248.292 1486.25 242.482 1486.25 Q236.672 1486.25 233.593 1481.67 Q230.538 1477.06 230.538 1468.33 Q230.538 1459.58 233.593 1455 Q236.672 1450.39 242.482 1450.39 Z" fill="#000000" fill-rule="nonzero" fill-opacity="1" /><path clip-path="url(#clip640)" d="M272.644 1454.1 Q269.033 1454.1 267.204 1457.66 Q265.398 1461.2 265.398 1468.33 Q265.398 1475.44 267.204 1479.01 Q269.033 1482.55 272.644 1482.55 Q276.278 1482.55 278.084 1479.01 Q279.912 1475.44 279.912 1468.33 Q279.912 1461.2 278.084 1457.66 Q276.278 1454.1 272.644 1454.1 M272.644 1450.39 Q278.454 1450.39 281.509 1455 Q284.588 1459.58 284.588 1468.33 Q284.588 1477.06 281.509 1481.67 Q278.454 1486.25 272.644 1486.25 Q266.834 1486.25 263.755 1481.67 Q260.699 1477.06 260.699 1468.33 Q260.699 1459.58 263.755 1455 Q266.834 1450.39 272.644 1450.39 Z" fill="#000000" fill-rule="nonzero" fill-opacity="1" /><path clip-path="url(#clip640)" d="M302.806 1454.1 Q299.195 1454.1 297.366 1457.66 Q295.56 1461.2 295.56 1468.33 Q295.56 1475.44 297.366 1479.01 Q299.195 1482.55 302.806 1482.55 Q306.44 1482.55 308.245 1479.01 Q310.074 1475.44 310.074 1468.33 Q310.074 1461.2 308.245 1457.66 Q306.44 1454.1 302.806 1454.1 M302.806 1450.39 Q308.616 1450.39 311.671 1455 Q314.75 1459.58 314.75 1468.33 Q314.75 1477.06 311.671 1481.67 Q308.616 1486.25 302.806 1486.25 Q296.995 1486.25 293.917 1481.67 Q290.861 1477.06 290.861 1468.33 Q290.861 1459.58 293.917 1455 Q296.995 1450.39 302.806 1450.39 Z" fill="#000000" fill-rule="nonzero" fill-opacity="1" /><path clip-path="url(#clip640)" d="M898.658 1454.1 Q895.046 1454.1 893.218 1457.66 Q891.412 1461.2 891.412 1468.33 Q891.412 1475.44 893.218 1479.01 Q895.046 1482.55 898.658 1482.55 Q902.292 1482.55 904.097 1479.01 Q905.926 1475.44 905.926 1468.33 Q905.926 1461.2 904.097 1457.66 Q902.292 1454.1 898.658 1454.1 M898.658 1450.39 Q904.468 1450.39 907.523 1455 Q910.602 1459.58 910.602 1468.33 Q910.602 1477.06 907.523 1481.67 Q904.468 1486.25 898.658 1486.25 Q892.847 1486.25 889.769 1481.67 Q886.713 1477.06 886.713 1468.33 Q886.713 1459.58 889.769 1455 Q892.847 1450.39 898.658 1450.39 Z" fill="#000000" fill-rule="nonzero" fill-opacity="1" /><path clip-path="url(#clip640)" d="M918.82 1479.7 L923.704 1479.7 L923.704 1485.58 L918.82 1485.58 L918.82 1479.7 Z" fill="#000000" fill-rule="nonzero" fill-opacity="1" /><path clip-path="url(#clip640)" d="M943.889 1454.1 Q940.278 1454.1 938.449 1457.66 Q936.643 1461.2 936.643 1468.33 Q936.643 1475.44 938.449 1479.01 Q940.278 1482.55 943.889 1482.55 Q947.523 1482.55 949.329 1479.01 Q951.157 1475.44 951.157 1468.33 Q951.157 1461.2 949.329 1457.66 Q947.523 1454.1 943.889 1454.1 M943.889 1450.39 Q949.699 1450.39 952.755 1455 Q955.833 1459.58 955.833 1468.33 Q955.833 1477.06 952.755 1481.67 Q949.699 1486.25 943.889 1486.25 Q938.079 1486.25 935 1481.67 Q931.944 1477.06 931.944 1468.33 Q931.944 1459.58 935 1455 Q938.079 1450.39 943.889 1450.39 Z" fill="#000000" fill-rule="nonzero" fill-opacity="1" /><path clip-path="url(#clip640)" d="M974.051 1454.1 Q970.44 1454.1 968.611 1457.66 Q966.805 1461.2 966.805 1468.33 Q966.805 1475.44 968.611 1479.01 Q970.44 1482.55 974.051 1482.55 Q977.685 1482.55 979.49 1479.01 Q981.319 1475.44 981.319 1468.33 Q981.319 1461.2 979.49 1457.66 Q977.685 1454.1 974.051 1454.1 M974.051 1450.39 Q979.861 1450.39 982.916 1455 Q985.995 1459.58 985.995 1468.33 Q985.995 1477.06 982.916 1481.67 Q979.861 1486.25 974.051 1486.25 Q968.241 1486.25 965.162 1481.67 Q962.106 1477.06 962.106 1468.33 Q962.106 1459.58 965.162 1455 Q968.241 1450.39 974.051 1450.39 Z" fill="#000000" fill-rule="nonzero" fill-opacity="1" /><path clip-path="url(#clip640)" d="M994.259 1451.02 L1012.62 1451.02 L1012.62 1454.96 L998.541 1454.96 L998.541 1463.43 Q999.56 1463.08 1000.58 1462.92 Q1001.6 1462.73 1002.62 1462.73 Q1008.4 1462.73 1011.78 1465.9 Q1015.16 1469.08 1015.16 1474.49 Q1015.16 1480.07 1011.69 1483.17 Q1008.22 1486.25 1001.9 1486.25 Q999.722 1486.25 997.453 1485.88 Q995.208 1485.51 992.801 1484.77 L992.801 1480.07 Q994.884 1481.2 997.106 1481.76 Q999.328 1482.32 1001.81 1482.32 Q1005.81 1482.32 1008.15 1480.21 Q1010.49 1478.1 1010.49 1474.49 Q1010.49 1470.88 1008.15 1468.77 Q1005.81 1466.67 1001.81 1466.67 Q999.93 1466.67 998.055 1467.08 Q996.203 1467.5 994.259 1468.38 L994.259 1451.02 Z" fill="#000000" fill-rule="nonzero" fill-opacity="1" /><path clip-path="url(#clip640)" d="M1599.07 1454.1 Q1595.46 1454.1 1593.63 1457.66 Q1591.82 1461.2 1591.82 1468.33 Q1591.82 1475.44 1593.63 1479.01 Q1595.46 1482.55 1599.07 1482.55 Q1602.7 1482.55 1604.51 1479.01 Q1606.34 1475.44 1606.34 1468.33 Q1606.34 1461.2 1604.51 1457.66 Q1602.7 1454.1 1599.07 1454.1 M1599.07 1450.39 Q1604.88 1450.39 1607.93 1455 Q1611.01 1459.58 1611.01 1468.33 Q1611.01 1477.06 1607.93 1481.67 Q1604.88 1486.25 1599.07 1486.25 Q1593.26 1486.25 1590.18 1481.67 Q1587.12 1477.06 1587.12 1468.33 Q1587.12 1459.58 1590.18 1455 Q1593.26 1450.39 1599.07 1450.39 Z" fill="#000000" fill-rule="nonzero" fill-opacity="1" /><path clip-path="url(#clip640)" d="M1619.23 1479.7 L1624.12 1479.7 L1624.12 1485.58 L1619.23 1485.58 L1619.23 1479.7 Z" fill="#000000" fill-rule="nonzero" fill-opacity="1" /><path clip-path="url(#clip640)" d="M1644.3 1454.1 Q1640.69 1454.1 1638.86 1457.66 Q1637.06 1461.2 1637.06 1468.33 Q1637.06 1475.44 1638.86 1479.01 Q1640.69 1482.55 1644.3 1482.55 Q1647.93 1482.55 1649.74 1479.01 Q1651.57 1475.44 1651.57 1468.33 Q1651.57 1461.2 1649.74 1457.66 Q1647.93 1454.1 1644.3 1454.1 M1644.3 1450.39 Q1650.11 1450.39 1653.17 1455 Q1656.24 1459.58 1656.24 1468.33 Q1656.24 1477.06 1653.17 1481.67 Q1650.11 1486.25 1644.3 1486.25 Q1638.49 1486.25 1635.41 1481.67 Q1632.36 1477.06 1632.36 1468.33 Q1632.36 1459.58 1635.41 1455 Q1638.49 1450.39 1644.3 1450.39 Z" fill="#000000" fill-rule="nonzero" fill-opacity="1" /><path clip-path="url(#clip640)" d="M1665.27 1481.64 L1672.91 1481.64 L1672.91 1455.28 L1664.6 1456.95 L1664.6 1452.69 L1672.87 1451.02 L1677.54 1451.02 L1677.54 1481.64 L1685.18 1481.64 L1685.18 1485.58 L1665.27 1485.58 L1665.27 1481.64 Z" fill="#000000" fill-rule="nonzero" fill-opacity="1" /><path clip-path="url(#clip640)" d="M1704.62 1454.1 Q1701.01 1454.1 1699.18 1457.66 Q1697.38 1461.2 1697.38 1468.33 Q1697.38 1475.44 1699.18 1479.01 Q1701.01 1482.55 1704.62 1482.55 Q1708.26 1482.55 1710.06 1479.01 Q1711.89 1475.44 1711.89 1468.33 Q1711.89 1461.2 1710.06 1457.66 Q1708.26 1454.1 1704.62 1454.1 M1704.62 1450.39 Q1710.43 1450.39 1713.49 1455 Q1716.57 1459.58 1716.57 1468.33 Q1716.57 1477.06 1713.49 1481.67 Q1710.43 1486.25 1704.62 1486.25 Q1698.81 1486.25 1695.74 1481.67 Q1692.68 1477.06 1692.68 1468.33 Q1692.68 1459.58 1695.74 1455 Q1698.81 1450.39 1704.62 1450.39 Z" fill="#000000" fill-rule="nonzero" fill-opacity="1" /><path clip-path="url(#clip640)" d="M2300.48 1454.1 Q2296.87 1454.1 2295.04 1457.66 Q2293.23 1461.2 2293.23 1468.33 Q2293.23 1475.44 2295.04 1479.01 Q2296.87 1482.55 2300.48 1482.55 Q2304.11 1482.55 2305.92 1479.01 Q2307.74 1475.44 2307.74 1468.33 Q2307.74 1461.2 2305.92 1457.66 Q2304.11 1454.1 2300.48 1454.1 M2300.48 1450.39 Q2306.29 1450.39 2309.34 1455 Q2312.42 1459.58 2312.42 1468.33 Q2312.42 1477.06 2309.34 1481.67 Q2306.29 1486.25 2300.48 1486.25 Q2294.67 1486.25 2291.59 1481.67 Q2288.53 1477.06 2288.53 1468.33 Q2288.53 1459.58 2291.59 1455 Q2294.67 1450.39 2300.48 1450.39 Z" fill="#000000" fill-rule="nonzero" fill-opacity="1" /><path clip-path="url(#clip640)" d="M2320.64 1479.7 L2325.52 1479.7 L2325.52 1485.58 L2320.64 1485.58 L2320.64 1479.7 Z" fill="#000000" fill-rule="nonzero" fill-opacity="1" /><path clip-path="url(#clip640)" d="M2345.71 1454.1 Q2342.1 1454.1 2340.27 1457.66 Q2338.46 1461.2 2338.46 1468.33 Q2338.46 1475.44 2340.27 1479.01 Q2342.1 1482.55 2345.71 1482.55 Q2349.34 1482.55 2351.15 1479.01 Q2352.98 1475.44 2352.98 1468.33 Q2352.98 1461.2 2351.15 1457.66 Q2349.34 1454.1 2345.71 1454.1 M2345.71 1450.39 Q2351.52 1450.39 2354.57 1455 Q2357.65 1459.58 2357.65 1468.33 Q2357.65 1477.06 2354.57 1481.67 Q2351.52 1486.25 2345.71 1486.25 Q2339.9 1486.25 2336.82 1481.67 Q2333.76 1477.06 2333.76 1468.33 Q2333.76 1459.58 2336.82 1455 Q2339.9 1450.39 2345.71 1450.39 Z" fill="#000000" fill-rule="nonzero" fill-opacity="1" /><path clip-path="url(#clip640)" d="M2366.68 1481.64 L2374.32 1481.64 L2374.32 1455.28 L2366.01 1456.95 L2366.01 1452.69 L2374.27 1451.02 L2378.95 1451.02 L2378.95 1481.64 L2386.59 1481.64 L2386.59 1485.58 L2366.68 1485.58 L2366.68 1481.64 Z" fill="#000000" fill-rule="nonzero" fill-opacity="1" /><path clip-path="url(#clip640)" d="M2396.08 1451.02 L2414.43 1451.02 L2414.43 1454.96 L2400.36 1454.96 L2400.36 1463.43 Q2401.38 1463.08 2402.4 1462.92 Q2403.42 1462.73 2404.43 1462.73 Q2410.22 1462.73 2413.6 1465.9 Q2416.98 1469.08 2416.98 1474.49 Q2416.98 1480.07 2413.51 1483.17 Q2410.04 1486.25 2403.72 1486.25 Q2401.54 1486.25 2399.27 1485.88 Q2397.03 1485.51 2394.62 1484.77 L2394.62 1480.07 Q2396.7 1481.2 2398.92 1481.76 Q2401.15 1482.32 2403.62 1482.32 Q2407.63 1482.32 2409.97 1480.21 Q2412.3 1478.1 2412.3 1474.49 Q2412.3 1470.88 2409.97 1468.77 Q2407.63 1466.67 2403.62 1466.67 Q2401.75 1466.67 2399.87 1467.08 Q2398.02 1467.5 2396.08 1468.38 L2396.08 1451.02 Z" fill="#000000" fill-rule="nonzero" fill-opacity="1" /><path clip-path="url(#clip640)" d="M1146.29 1568.04 L1128.15 1520.52 L1134.87 1520.52 L1149.92 1560.53 L1165.01 1520.52 L1171.69 1520.52 L1153.58 1568.04 L1146.29 1568.04 Z" fill="#000000" fill-rule="nonzero" fill-opacity="1" /><path clip-path="url(#clip640)" d="M1187.13 1536.5 Q1182.42 1536.5 1179.68 1540.19 Q1176.94 1543.85 1176.94 1550.25 Q1176.94 1556.65 1179.65 1560.34 Q1182.39 1564 1187.13 1564 Q1191.81 1564 1194.54 1560.31 Q1197.28 1556.62 1197.28 1550.25 Q1197.28 1543.92 1194.54 1540.23 Q1191.81 1536.5 1187.13 1536.5 M1187.13 1531.54 Q1194.77 1531.54 1199.13 1536.5 Q1203.49 1541.47 1203.49 1550.25 Q1203.49 1559 1199.13 1564 Q1194.77 1568.97 1187.13 1568.97 Q1179.46 1568.97 1175.1 1564 Q1170.77 1559 1170.77 1550.25 Q1170.77 1541.47 1175.1 1536.5 Q1179.46 1531.54 1187.13 1531.54 Z" fill="#000000" fill-rule="nonzero" fill-opacity="1" /><path clip-path="url(#clip640)" d="M1213.2 1518.52 L1219.05 1518.52 L1219.05 1568.04 L1213.2 1568.04 L1213.2 1518.52 Z" fill="#000000" fill-rule="nonzero" fill-opacity="1" /><path clip-path="url(#clip640)" d="M1230.7 1553.98 L1230.7 1532.4 L1236.56 1532.4 L1236.56 1553.75 Q1236.56 1558.81 1238.53 1561.36 Q1240.5 1563.87 1244.45 1563.87 Q1249.19 1563.87 1251.93 1560.85 Q1254.7 1557.83 1254.7 1552.61 L1254.7 1532.4 L1260.56 1532.4 L1260.56 1568.04 L1254.7 1568.04 L1254.7 1562.57 Q1252.57 1565.82 1249.73 1567.41 Q1246.93 1568.97 1243.21 1568.97 Q1237.07 1568.97 1233.88 1565.15 Q1230.7 1561.33 1230.7 1553.98 M1245.44 1531.54 L1245.44 1531.54 Z" fill="#000000" fill-rule="nonzero" fill-opacity="1" /><path clip-path="url(#clip640)" d="M1300.37 1539.24 Q1302.57 1535.29 1305.63 1533.41 Q1308.68 1531.54 1312.82 1531.54 Q1318.39 1531.54 1321.41 1535.45 Q1324.44 1539.33 1324.44 1546.53 L1324.44 1568.04 L1318.55 1568.04 L1318.55 1546.72 Q1318.55 1541.59 1316.73 1539.11 Q1314.92 1536.63 1311.2 1536.63 Q1306.64 1536.63 1304 1539.65 Q1301.36 1542.68 1301.36 1547.9 L1301.36 1568.04 L1295.47 1568.04 L1295.47 1546.72 Q1295.47 1541.56 1293.66 1539.11 Q1291.84 1536.63 1288.06 1536.63 Q1283.57 1536.63 1280.93 1539.68 Q1278.28 1542.71 1278.28 1547.9 L1278.28 1568.04 L1272.4 1568.04 L1272.4 1532.4 L1278.28 1532.4 L1278.28 1537.93 Q1280.29 1534.66 1283.09 1533.1 Q1285.89 1531.54 1289.74 1531.54 Q1293.63 1531.54 1296.33 1533.51 Q1299.07 1535.48 1300.37 1539.24 Z" fill="#000000" fill-rule="nonzero" fill-opacity="1" /><path clip-path="url(#clip640)" d="M1366.61 1548.76 L1366.61 1551.62 L1339.68 1551.62 Q1340.06 1557.67 1343.31 1560.85 Q1346.59 1564 1352.41 1564 Q1355.79 1564 1358.94 1563.17 Q1362.12 1562.35 1365.24 1560.69 L1365.24 1566.23 Q1362.09 1567.57 1358.78 1568.27 Q1355.47 1568.97 1352.06 1568.97 Q1343.53 1568.97 1338.54 1564 Q1333.57 1559.04 1333.57 1550.57 Q1333.57 1541.82 1338.28 1536.69 Q1343.02 1531.54 1351.04 1531.54 Q1358.24 1531.54 1362.41 1536.18 Q1366.61 1540.8 1366.61 1548.76 M1360.75 1547.04 Q1360.69 1542.23 1358.05 1539.37 Q1355.44 1536.5 1351.11 1536.5 Q1346.21 1536.5 1343.25 1539.27 Q1340.32 1542.04 1339.87 1547.07 L1360.75 1547.04 Z" fill="#000000" fill-rule="nonzero" fill-opacity="1" /><path clip-path="url(#clip640)" d="M1411.01 1518.58 Q1406.74 1525.9 1404.68 1533.06 Q1402.61 1540.23 1402.61 1547.58 Q1402.61 1554.93 1404.68 1562.16 Q1406.78 1569.35 1411.01 1576.64 L1405.92 1576.64 Q1401.14 1569.16 1398.76 1561.93 Q1396.4 1554.71 1396.4 1547.58 Q1396.4 1540.48 1398.76 1533.29 Q1401.11 1526.09 1405.92 1518.58 L1411.01 1518.58 Z" fill="#000000" fill-rule="nonzero" fill-opacity="1" /><path clip-path="url(#clip640)" d="M1418.17 1532.4 L1424.38 1532.4 L1435.52 1562.31 L1446.66 1532.4 L1452.86 1532.4 L1439.5 1568.04 L1431.54 1568.04 L1418.17 1532.4 Z" fill="#000000" fill-rule="nonzero" fill-opacity="1" /><path clip-path="url(#clip640)" d="M1460.03 1518.58 L1465.12 1518.58 Q1469.89 1526.09 1472.25 1533.29 Q1474.63 1540.48 1474.63 1547.58 Q1474.63 1554.71 1472.25 1561.93 Q1469.89 1569.16 1465.12 1576.64 L1460.03 1576.64 Q1464.26 1569.35 1466.33 1562.16 Q1468.43 1554.93 1468.43 1547.58 Q1468.43 1540.23 1466.33 1533.06 Q1464.26 1525.9 1460.03 1518.58 Z" fill="#000000" fill-rule="nonzero" fill-opacity="1" /><polyline clip-path="url(#clip640)" style="stroke:#000000; stroke-linecap:round; stroke-linejoin:round; stroke-width:4; stroke-opacity:1; fill:none" points="250.028,1423.18 250.028,47.2441 "/>
<polyline clip-path="url(#clip640)" style="stroke:#000000; stroke-linecap:round; stroke-linejoin:round; stroke-width:4; stroke-opacity:1; fill:none" points="250.028,1423.18 268.926,1423.18 "/>
<polyline clip-path="url(#clip640)" style="stroke:#000000; stroke-linecap:round; stroke-linejoin:round; stroke-width:4; stroke-opacity:1; fill:none" points="250.028,1147.99 268.926,1147.99 "/>
<polyline clip-path="url(#clip640)" style="stroke:#000000; stroke-linecap:round; stroke-linejoin:round; stroke-width:4; stroke-opacity:1; fill:none" points="250.028,872.806 268.926,872.806 "/>
<polyline clip-path="url(#clip640)" style="stroke:#000000; stroke-linecap:round; stroke-linejoin:round; stroke-width:4; stroke-opacity:1; fill:none" points="250.028,597.618 268.926,597.618 "/>
<polyline clip-path="url(#clip640)" style="stroke:#000000; stroke-linecap:round; stroke-linejoin:round; stroke-width:4; stroke-opacity:1; fill:none" points="250.028,322.431 268.926,322.431 "/>
<path clip-path="url(#clip640)" d="M126.691 1408.98 Q123.08 1408.98 121.251 1412.54 Q119.445 1416.08 119.445 1423.21 Q119.445 1430.32 121.251 1433.89 Q123.08 1437.43 126.691 1437.43 Q130.325 1437.43 132.13 1433.89 Q133.959 1430.32 133.959 1423.21 Q133.959 1416.08 132.13 1412.54 Q130.325 1408.98 126.691 1408.98 M126.691 1405.27 Q132.501 1405.27 135.556 1409.88 Q138.635 1414.46 138.635 1423.21 Q138.635 1431.94 135.556 1436.55 Q132.501 1441.13 126.691 1441.13 Q120.88 1441.13 117.802 1436.55 Q114.746 1431.94 114.746 1423.21 Q114.746 1414.46 117.802 1409.88 Q120.88 1405.27 126.691 1405.27 Z" fill="#000000" fill-rule="nonzero" fill-opacity="1" /><path clip-path="url(#clip640)" d="M146.853 1434.58 L151.737 1434.58 L151.737 1440.46 L146.853 1440.46 L146.853 1434.58 Z" fill="#000000" fill-rule="nonzero" fill-opacity="1" /><path clip-path="url(#clip640)" d="M171.922 1408.98 Q168.311 1408.98 166.482 1412.54 Q164.677 1416.08 164.677 1423.21 Q164.677 1430.32 166.482 1433.89 Q168.311 1437.43 171.922 1437.43 Q175.556 1437.43 177.362 1433.89 Q179.19 1430.32 179.19 1423.21 Q179.19 1416.08 177.362 1412.54 Q175.556 1408.98 171.922 1408.98 M171.922 1405.27 Q177.732 1405.27 180.788 1409.88 Q183.866 1414.46 183.866 1423.21 Q183.866 1431.94 180.788 1436.55 Q177.732 1441.13 171.922 1441.13 Q166.112 1441.13 163.033 1436.55 Q159.978 1431.94 159.978 1423.21 Q159.978 1414.46 163.033 1409.88 Q166.112 1405.27 171.922 1405.27 Z" fill="#000000" fill-rule="nonzero" fill-opacity="1" /><path clip-path="url(#clip640)" d="M202.084 1408.98 Q198.473 1408.98 196.644 1412.54 Q194.838 1416.08 194.838 1423.21 Q194.838 1430.32 196.644 1433.89 Q198.473 1437.43 202.084 1437.43 Q205.718 1437.43 207.524 1433.89 Q209.352 1430.32 209.352 1423.21 Q209.352 1416.08 207.524 1412.54 Q205.718 1408.98 202.084 1408.98 M202.084 1405.27 Q207.894 1405.27 210.949 1409.88 Q214.028 1414.46 214.028 1423.21 Q214.028 1431.94 210.949 1436.55 Q207.894 1441.13 202.084 1441.13 Q196.274 1441.13 193.195 1436.55 Q190.139 1431.94 190.139 1423.21 Q190.139 1414.46 193.195 1409.88 Q196.274 1405.27 202.084 1405.27 Z" fill="#000000" fill-rule="nonzero" fill-opacity="1" /><path clip-path="url(#clip640)" d="M127.917 1133.79 Q124.306 1133.79 122.478 1137.36 Q120.672 1140.9 120.672 1148.03 Q120.672 1155.13 122.478 1158.7 Q124.306 1162.24 127.917 1162.24 Q131.552 1162.24 133.357 1158.7 Q135.186 1155.13 135.186 1148.03 Q135.186 1140.9 133.357 1137.36 Q131.552 1133.79 127.917 1133.79 M127.917 1130.09 Q133.728 1130.09 136.783 1134.69 Q139.862 1139.28 139.862 1148.03 Q139.862 1156.75 136.783 1161.36 Q133.728 1165.94 127.917 1165.94 Q122.107 1165.94 119.029 1161.36 Q115.973 1156.75 115.973 1148.03 Q115.973 1139.28 119.029 1134.69 Q122.107 1130.09 127.917 1130.09 Z" fill="#000000" fill-rule="nonzero" fill-opacity="1" /><path clip-path="url(#clip640)" d="M148.079 1159.39 L152.964 1159.39 L152.964 1165.27 L148.079 1165.27 L148.079 1159.39 Z" fill="#000000" fill-rule="nonzero" fill-opacity="1" /><path clip-path="url(#clip640)" d="M173.149 1133.79 Q169.538 1133.79 167.709 1137.36 Q165.903 1140.9 165.903 1148.03 Q165.903 1155.13 167.709 1158.7 Q169.538 1162.24 173.149 1162.24 Q176.783 1162.24 178.589 1158.7 Q180.417 1155.13 180.417 1148.03 Q180.417 1140.9 178.589 1137.36 Q176.783 1133.79 173.149 1133.79 M173.149 1130.09 Q178.959 1130.09 182.014 1134.69 Q185.093 1139.28 185.093 1148.03 Q185.093 1156.75 182.014 1161.36 Q178.959 1165.94 173.149 1165.94 Q167.339 1165.94 164.26 1161.36 Q161.204 1156.75 161.204 1148.03 Q161.204 1139.28 164.26 1134.69 Q167.339 1130.09 173.149 1130.09 Z" fill="#000000" fill-rule="nonzero" fill-opacity="1" /><path clip-path="url(#clip640)" d="M194.121 1161.34 L201.76 1161.34 L201.76 1134.97 L193.45 1136.64 L193.45 1132.38 L201.713 1130.71 L206.389 1130.71 L206.389 1161.34 L214.028 1161.34 L214.028 1165.27 L194.121 1165.27 L194.121 1161.34 Z" fill="#000000" fill-rule="nonzero" fill-opacity="1" /><path clip-path="url(#clip640)" d="M128.288 858.604 Q124.677 858.604 122.848 862.169 Q121.043 865.711 121.043 872.84 Q121.043 879.947 122.848 883.512 Q124.677 887.053 128.288 887.053 Q131.922 887.053 133.728 883.512 Q135.556 879.947 135.556 872.84 Q135.556 865.711 133.728 862.169 Q131.922 858.604 128.288 858.604 M128.288 854.901 Q134.098 854.901 137.154 859.507 Q140.232 864.09 140.232 872.84 Q140.232 881.567 137.154 886.174 Q134.098 890.757 128.288 890.757 Q122.478 890.757 119.399 886.174 Q116.343 881.567 116.343 872.84 Q116.343 864.09 119.399 859.507 Q122.478 854.901 128.288 854.901 Z" fill="#000000" fill-rule="nonzero" fill-opacity="1" /><path clip-path="url(#clip640)" d="M148.45 884.206 L153.334 884.206 L153.334 890.086 L148.45 890.086 L148.45 884.206 Z" fill="#000000" fill-rule="nonzero" fill-opacity="1" /><path clip-path="url(#clip640)" d="M173.519 858.604 Q169.908 858.604 168.079 862.169 Q166.274 865.711 166.274 872.84 Q166.274 879.947 168.079 883.512 Q169.908 887.053 173.519 887.053 Q177.153 887.053 178.959 883.512 Q180.788 879.947 180.788 872.84 Q180.788 865.711 178.959 862.169 Q177.153 858.604 173.519 858.604 M173.519 854.901 Q179.329 854.901 182.385 859.507 Q185.463 864.09 185.463 872.84 Q185.463 881.567 182.385 886.174 Q179.329 890.757 173.519 890.757 Q167.709 890.757 164.63 886.174 Q161.575 881.567 161.575 872.84 Q161.575 864.09 164.63 859.507 Q167.709 854.901 173.519 854.901 Z" fill="#000000" fill-rule="nonzero" fill-opacity="1" /><path clip-path="url(#clip640)" d="M197.709 886.15 L214.028 886.15 L214.028 890.086 L192.084 890.086 L192.084 886.15 Q194.746 883.396 199.329 878.766 Q203.936 874.113 205.116 872.771 Q207.362 870.248 208.241 868.512 Q209.144 866.752 209.144 865.063 Q209.144 862.308 207.199 860.572 Q205.278 858.836 202.176 858.836 Q199.977 858.836 197.524 859.6 Q195.093 860.363 192.315 861.914 L192.315 857.192 Q195.139 856.058 197.593 855.479 Q200.047 854.901 202.084 854.901 Q207.454 854.901 210.649 857.586 Q213.843 860.271 213.843 864.762 Q213.843 866.891 213.033 868.813 Q212.246 870.711 210.139 873.303 Q209.561 873.975 206.459 877.192 Q203.357 880.387 197.709 886.15 Z" fill="#000000" fill-rule="nonzero" fill-opacity="1" /><path clip-path="url(#clip640)" d="M127.339 583.417 Q123.728 583.417 121.899 586.982 Q120.093 590.524 120.093 597.653 Q120.093 604.76 121.899 608.324 Q123.728 611.866 127.339 611.866 Q130.973 611.866 132.779 608.324 Q134.607 604.76 134.607 597.653 Q134.607 590.524 132.779 586.982 Q130.973 583.417 127.339 583.417 M127.339 579.713 Q133.149 579.713 136.204 584.32 Q139.283 588.903 139.283 597.653 Q139.283 606.38 136.204 610.986 Q133.149 615.57 127.339 615.57 Q121.529 615.57 118.45 610.986 Q115.394 606.38 115.394 597.653 Q115.394 588.903 118.45 584.32 Q121.529 579.713 127.339 579.713 Z" fill="#000000" fill-rule="nonzero" fill-opacity="1" /><path clip-path="url(#clip640)" d="M147.501 609.019 L152.385 609.019 L152.385 614.898 L147.501 614.898 L147.501 609.019 Z" fill="#000000" fill-rule="nonzero" fill-opacity="1" /><path clip-path="url(#clip640)" d="M172.57 583.417 Q168.959 583.417 167.13 586.982 Q165.325 590.524 165.325 597.653 Q165.325 604.76 167.13 608.324 Q168.959 611.866 172.57 611.866 Q176.204 611.866 178.01 608.324 Q179.839 604.76 179.839 597.653 Q179.839 590.524 178.01 586.982 Q176.204 583.417 172.57 583.417 M172.57 579.713 Q178.38 579.713 181.436 584.32 Q184.514 588.903 184.514 597.653 Q184.514 606.38 181.436 610.986 Q178.38 615.57 172.57 615.57 Q166.76 615.57 163.681 610.986 Q160.626 606.38 160.626 597.653 Q160.626 588.903 163.681 584.32 Q166.76 579.713 172.57 579.713 Z" fill="#000000" fill-rule="nonzero" fill-opacity="1" /><path clip-path="url(#clip640)" d="M206.899 596.264 Q210.255 596.982 212.13 599.25 Q214.028 601.519 214.028 604.852 Q214.028 609.968 210.51 612.769 Q206.991 615.57 200.51 615.57 Q198.334 615.57 196.019 615.13 Q193.727 614.713 191.274 613.857 L191.274 609.343 Q193.218 610.477 195.533 611.056 Q197.848 611.635 200.371 611.635 Q204.769 611.635 207.061 609.898 Q209.375 608.162 209.375 604.852 Q209.375 601.797 207.223 600.084 Q205.093 598.348 201.274 598.348 L197.246 598.348 L197.246 594.505 L201.459 594.505 Q204.908 594.505 206.737 593.139 Q208.565 591.75 208.565 589.158 Q208.565 586.496 206.667 585.084 Q204.792 583.649 201.274 583.649 Q199.352 583.649 197.153 584.065 Q194.954 584.482 192.315 585.362 L192.315 581.195 Q194.977 580.454 197.292 580.084 Q199.63 579.713 201.69 579.713 Q207.014 579.713 210.116 582.144 Q213.218 584.551 213.218 588.672 Q213.218 591.542 211.574 593.533 Q209.931 595.5 206.899 596.264 Z" fill="#000000" fill-rule="nonzero" fill-opacity="1" /><path clip-path="url(#clip640)" d="M126.205 308.23 Q122.593 308.23 120.765 311.795 Q118.959 315.336 118.959 322.466 Q118.959 329.572 120.765 333.137 Q122.593 336.679 126.205 336.679 Q129.839 336.679 131.644 333.137 Q133.473 329.572 133.473 322.466 Q133.473 315.336 131.644 311.795 Q129.839 308.23 126.205 308.23 M126.205 304.526 Q132.015 304.526 135.07 309.133 Q138.149 313.716 138.149 322.466 Q138.149 331.193 135.07 335.799 Q132.015 340.383 126.205 340.383 Q120.394 340.383 117.316 335.799 Q114.26 331.193 114.26 322.466 Q114.26 313.716 117.316 309.133 Q120.394 304.526 126.205 304.526 Z" fill="#000000" fill-rule="nonzero" fill-opacity="1" /><path clip-path="url(#clip640)" d="M146.366 333.832 L151.251 333.832 L151.251 339.711 L146.366 339.711 L146.366 333.832 Z" fill="#000000" fill-rule="nonzero" fill-opacity="1" /><path clip-path="url(#clip640)" d="M171.436 308.23 Q167.825 308.23 165.996 311.795 Q164.19 315.336 164.19 322.466 Q164.19 329.572 165.996 333.137 Q167.825 336.679 171.436 336.679 Q175.07 336.679 176.876 333.137 Q178.704 329.572 178.704 322.466 Q178.704 315.336 176.876 311.795 Q175.07 308.23 171.436 308.23 M171.436 304.526 Q177.246 304.526 180.301 309.133 Q183.38 313.716 183.38 322.466 Q183.38 331.193 180.301 335.799 Q177.246 340.383 171.436 340.383 Q165.626 340.383 162.547 335.799 Q159.491 331.193 159.491 322.466 Q159.491 313.716 162.547 309.133 Q165.626 304.526 171.436 304.526 Z" fill="#000000" fill-rule="nonzero" fill-opacity="1" /><path clip-path="url(#clip640)" d="M204.445 309.225 L192.639 327.674 L204.445 327.674 L204.445 309.225 M203.218 305.151 L209.098 305.151 L209.098 327.674 L214.028 327.674 L214.028 331.563 L209.098 331.563 L209.098 339.711 L204.445 339.711 L204.445 331.563 L188.843 331.563 L188.843 327.049 L203.218 305.151 Z" fill="#000000" fill-rule="nonzero" fill-opacity="1" /><path clip-path="url(#clip640)" d="M16.4842 878.806 L16.4842 869.226 L48.8219 857.099 L16.4842 844.909 L16.4842 835.329 L64.0042 835.329 L64.0042 841.599 L22.277 841.599 L54.8694 853.853 L54.8694 860.314 L22.277 872.568 L64.0042 872.568 L64.0042 878.806 L16.4842 878.806 Z" fill="#000000" fill-rule="nonzero" fill-opacity="1" /><path clip-path="url(#clip640)" d="M46.0847 806.619 Q46.0847 813.717 47.7079 816.454 Q49.3312 819.192 53.2461 819.192 Q56.3653 819.192 58.2114 817.155 Q60.0256 815.086 60.0256 811.553 Q60.0256 806.683 56.5881 803.755 Q53.1188 800.795 47.3897 800.795 L46.0847 800.795 L46.0847 806.619 M43.6657 794.938 L64.0042 794.938 L64.0042 800.795 L58.5933 800.795 Q61.8398 802.8 63.3994 805.792 Q64.9272 808.784 64.9272 813.112 Q64.9272 818.587 61.8716 821.833 Q58.7843 825.048 53.6281 825.048 Q47.6125 825.048 44.5569 821.038 Q41.5014 816.995 41.5014 809.006 L41.5014 800.795 L40.9285 800.795 Q36.8862 800.795 34.6901 803.468 Q32.4621 806.11 32.4621 810.916 Q32.4621 813.972 33.1941 816.868 Q33.9262 819.764 35.3903 822.438 L29.9795 822.438 Q28.7381 819.223 28.1334 816.2 Q27.4968 813.176 27.4968 810.311 Q27.4968 802.577 31.5072 798.758 Q35.5176 794.938 43.6657 794.938 Z" fill="#000000" fill-rule="nonzero" fill-opacity="1" /><path clip-path="url(#clip640)" d="M29.4065 760.15 L34.9447 760.15 Q33.6716 762.632 33.035 765.306 Q32.3984 767.979 32.3984 770.844 Q32.3984 775.205 33.7352 777.401 Q35.072 779.565 37.7456 779.565 Q39.7826 779.565 40.9603 778.005 Q42.1061 776.446 43.1565 771.735 L43.6021 769.73 Q44.9389 763.492 47.3897 760.882 Q49.8086 758.24 54.1691 758.24 Q59.1344 758.24 62.0308 762.187 Q64.9272 766.102 64.9272 772.977 Q64.9272 775.841 64.3543 778.96 Q63.8132 782.048 62.6992 785.485 L56.6518 785.485 Q58.3387 782.239 59.198 779.088 Q60.0256 775.937 60.0256 772.849 Q60.0256 768.711 58.6251 766.484 Q57.1929 764.256 54.6147 764.256 Q52.2276 764.256 50.9545 765.879 Q49.6813 767.47 48.5037 772.913 L48.0262 774.95 Q46.8804 780.393 44.5251 782.812 Q42.138 785.231 38.0002 785.231 Q32.9713 785.231 30.2341 781.666 Q27.4968 778.101 27.4968 771.544 Q27.4968 768.298 27.9743 765.433 Q28.4517 762.569 29.4065 760.15 Z" fill="#000000" fill-rule="nonzero" fill-opacity="1" /><path clip-path="url(#clip640)" d="M29.4065 726.189 L34.9447 726.189 Q33.6716 728.671 33.035 731.345 Q32.3984 734.018 32.3984 736.883 Q32.3984 741.243 33.7352 743.44 Q35.072 745.604 37.7456 745.604 Q39.7826 745.604 40.9603 744.044 Q42.1061 742.485 43.1565 737.774 L43.6021 735.769 Q44.9389 729.531 47.3897 726.921 Q49.8086 724.279 54.1691 724.279 Q59.1344 724.279 62.0308 728.226 Q64.9272 732.141 64.9272 739.015 Q64.9272 741.88 64.3543 744.999 Q63.8132 748.087 62.6992 751.524 L56.6518 751.524 Q58.3387 748.278 59.198 745.127 Q60.0256 741.976 60.0256 738.888 Q60.0256 734.75 58.6251 732.522 Q57.1929 730.294 54.6147 730.294 Q52.2276 730.294 50.9545 731.918 Q49.6813 733.509 48.5037 738.952 L48.0262 740.989 Q46.8804 746.432 44.5251 748.85 Q42.138 751.269 38.0002 751.269 Q32.9713 751.269 30.2341 747.705 Q27.4968 744.14 27.4968 737.583 Q27.4968 734.337 27.9743 731.472 Q28.4517 728.608 29.4065 726.189 Z" fill="#000000" fill-rule="nonzero" fill-opacity="1" /><path clip-path="url(#clip640)" d="M14.5426 680.165 Q21.8632 684.43 29.0246 686.498 Q36.186 688.567 43.5384 688.567 Q50.8908 688.567 58.1159 686.498 Q65.3091 684.398 72.5979 680.165 L72.5979 685.257 Q65.1182 690.031 57.8931 692.419 Q50.668 694.774 43.5384 694.774 Q36.4406 694.774 29.2474 692.419 Q22.0542 690.063 14.5426 685.257 L14.5426 680.165 Z" fill="#000000" fill-rule="nonzero" fill-opacity="1" /><path clip-path="url(#clip640)" d="M35.1993 641.047 Q31.2526 638.851 29.3747 635.796 Q27.4968 632.74 27.4968 628.602 Q27.4968 623.032 31.4117 620.009 Q35.2948 616.985 42.4881 616.985 L64.0042 616.985 L64.0042 622.873 L42.679 622.873 Q37.5546 622.873 35.072 624.687 Q32.5894 626.502 32.5894 630.226 Q32.5894 634.777 35.6131 637.419 Q38.6368 640.061 43.8567 640.061 L64.0042 640.061 L64.0042 645.949 L42.679 645.949 Q37.5228 645.949 35.072 647.763 Q32.5894 649.577 32.5894 653.365 Q32.5894 657.853 35.6449 660.494 Q38.6686 663.136 43.8567 663.136 L64.0042 663.136 L64.0042 669.025 L28.3562 669.025 L28.3562 663.136 L33.8944 663.136 Q30.616 661.131 29.0564 658.33 Q27.4968 655.529 27.4968 651.678 Q27.4968 647.795 29.4702 645.089 Q31.4436 642.352 35.1993 641.047 Z" fill="#000000" fill-rule="nonzero" fill-opacity="1" /><path clip-path="url(#clip640)" d="M14.5426 606.227 L14.5426 601.134 Q22.0542 596.36 29.2474 594.005 Q36.4406 591.618 43.5384 591.618 Q50.668 591.618 57.8931 594.005 Q65.1182 596.36 72.5979 601.134 L72.5979 606.227 Q65.3091 601.994 58.1159 599.925 Q50.8908 597.824 43.5384 597.824 Q36.186 597.824 29.0246 599.925 Q21.8632 601.994 14.5426 606.227 Z" fill="#000000" fill-rule="nonzero" fill-opacity="1" /><path clip-path="url(#clip642)" d="M250.028 1065.52 L1180.52 1065.52 L1180.52 1065.52 L1180.53 1065.51 L1180.57 1065.4 L1181.07 1064.31 L1186 1053.22 L1206.07 1004.39 L1244.1 893.527 L1295.77 694.441 L1360.65 335.284 L1398.68 47.2441 L1398.68 47.2441 L250.028 47.2441 L250.028 1065.52  Z" fill="#0000ff" fill-rule="evenodd" fill-opacity="0.35"/>
<polyline clip-path="url(#clip642)" style="stroke:#000000; stroke-linecap:round; stroke-linejoin:round; stroke-width:4; stroke-opacity:0; fill:none" points="250.028,1065.52 1180.52,1065.52 1180.53,1065.51 1180.57,1065.4 1181.07,1064.31 1186,1053.22 1206.07,1004.39 1244.1,893.527 1295.77,694.441 1360.65,335.284 1398.68,47.2441 250.028,47.2441 250.028,1065.52 "/>
<path clip-path="url(#clip642)" d="M250.028 1065.52 L1180.52 1065.52 L1180.52 1065.52 L1180.51 1065.53 L1180.4 1065.57 L1179.34 1066.03 L1168.72 1070.58 L1062.52 1116.11 L346.305 1423.18 L346.305 1423.18 L250.028 1423.18 L250.028 1065.52  Z" fill="#a52a2a" fill-rule="evenodd" fill-opacity="0.35"/>
<polyline clip-path="url(#clip642)" style="stroke:#000000; stroke-linecap:round; stroke-linejoin:round; stroke-width:4; stroke-opacity:0; fill:none" points="250.028,1065.52 1180.52,1065.52 1180.51,1065.53 1180.4,1065.57 1179.34,1066.03 1168.72,1070.58 1062.52,1116.11 346.305,1423.18 250.028,1423.18 250.028,1065.52 "/>
<polyline clip-path="url(#clip642)" style="stroke:#808080; stroke-linecap:round; stroke-linejoin:round; stroke-width:4; stroke-opacity:1; fill:none" points="1180.52,1065.52 1180.53,1065.51 1180.57,1065.4 1181.07,1064.31 1186,1053.22 1206.07,1004.39 1244.1,893.527 1295.77,694.441 1360.65,335.284 1398.68,47.2441 "/>
<polyline clip-path="url(#clip642)" style="stroke:#808080; stroke-linecap:round; stroke-linejoin:round; stroke-width:4; stroke-opacity:1; fill:none" points="1180.52,1065.52 1180.51,1065.53 1180.4,1065.57 1179.34,1066.03 1168.72,1070.58 1062.52,1116.11 346.305,1423.18 "/>
<path clip-path="url(#clip642)" d="M1398.68 47.2441 L1398.68 47.2441 L1360.65 335.284 L1295.77 694.441 L1244.1 893.527 L1206.07 1004.39 L1186 1053.22 L1181.07 1064.31 L1180.57 1065.4 L1180.53 1065.51 L1180.52 1065.52 L1180.52 1065.52 L1329.34 972.557 L1417.42 879.592 L1474.1 786.627 L1516.36 693.661 L1549.06 600.696 L1574.1 507.731 L1594.17 414.765 L1610.63 321.8 L1624.37 228.835 L1624.37 228.835 L1652.96 47.2441 L250.028 47.2441 L1398.68 47.2441  Z" fill="#9acd32" fill-rule="evenodd" fill-opacity="0.35"/>
<polyline clip-path="url(#clip642)" style="stroke:#000000; stroke-linecap:round; stroke-linejoin:round; stroke-width:4; stroke-opacity:0; fill:none" points="1398.68,47.2441 1398.68,47.2441 1360.65,335.284 1295.77,694.441 1244.1,893.527 1206.07,1004.39 1186,1053.22 1181.07,1064.31 1180.57,1065.4 1180.53,1065.51 1180.52,1065.52 1329.34,972.557 1417.42,879.592 1474.1,786.627 1516.36,693.661 1549.06,600.696 1574.1,507.731 1594.17,414.765 1610.63,321.8 1624.37,228.835 1652.96,47.2441 250.028,47.2441 1398.68,47.2441 "/>
<path clip-path="url(#clip642)" d="M346.305 1423.18 L346.305 1423.18 L1062.52 1116.11 L1168.72 1070.58 L1179.34 1066.03 L1180.4 1065.57 L1180.51 1065.53 L1180.52 1065.52 L1180.52 1065.52 L1329.34 972.557 L1417.42 879.592 L1474.1 786.627 L1516.36 693.661 L1549.06 600.696 L1574.1 507.731 L1594.17 414.765 L1610.63 321.8 L1624.37 228.835 L1624.37 228.835 L1652.96 47.2441 L250.028 47.2441 L2352.76 47.2441 L2352.76 1423.18 L250.028 1423.18 L346.305 1423.18  Z" fill="#ff0000" fill-rule="evenodd" fill-opacity="0.35"/>
<polyline clip-path="url(#clip642)" style="stroke:#000000; stroke-linecap:round; stroke-linejoin:round; stroke-width:4; stroke-opacity:0; fill:none" points="346.305,1423.18 346.305,1423.18 1062.52,1116.11 1168.72,1070.58 1179.34,1066.03 1180.4,1065.57 1180.51,1065.53 1180.52,1065.52 1329.34,972.557 1417.42,879.592 1474.1,786.627 1516.36,693.661 1549.06,600.696 1574.1,507.731 1594.17,414.765 1610.63,321.8 1624.37,228.835 1652.96,47.2441 250.028,47.2441 2352.76,47.2441 2352.76,1423.18 250.028,1423.18 346.305,1423.18 "/>
<polyline clip-path="url(#clip642)" style="stroke:#808080; stroke-linecap:round; stroke-linejoin:round; stroke-width:12; stroke-opacity:1; fill:none" points="1624.37,228.835 1652.96,47.2441 "/>
<polyline clip-path="url(#clip642)" style="stroke:#ffd700; stroke-linecap:round; stroke-linejoin:round; stroke-width:12; stroke-opacity:1; fill:none" points="1180.52,1065.52 1329.34,972.557 1417.42,879.592 1474.1,786.627 1516.36,693.661 1549.06,600.696 1574.1,507.731 1594.17,414.765 1610.63,321.8 1624.37,228.835 "/>
<polyline clip-path="url(#clip642)" style="stroke:#008000; stroke-linecap:round; stroke-linejoin:round; stroke-width:12; stroke-opacity:1; fill:none" points="250.028,1065.52 1180.52,1065.52 "/>
<path clip-path="url(#clip640)" d="M1712.46 507.829 L2282.66 507.829 L2282.66 93.1086 L1712.46 93.1086  Z" fill="#ffffff" fill-rule="evenodd" fill-opacity="1"/>
<polyline clip-path="url(#clip640)" style="stroke:#000000; stroke-linecap:round; stroke-linejoin:round; stroke-width:4; stroke-opacity:1; fill:none" points="1712.46,507.829 2282.66,507.829 2282.66,93.1086 1712.46,93.1086 1712.46,507.829 "/>
<path clip-path="url(#clip640)" d="M1735.83 165.685 L1876.01 165.685 L1876.01 124.213 L1735.83 124.213 L1735.83 165.685  Z" fill="#0000ff" fill-rule="evenodd" fill-opacity="0.35"/>
<polyline clip-path="url(#clip640)" style="stroke:#000000; stroke-linecap:round; stroke-linejoin:round; stroke-width:4; stroke-opacity:0; fill:none" points="1735.83,165.685 1876.01,165.685 1876.01,124.213 1735.83,124.213 1735.83,165.685 "/>
<path clip-path="url(#clip640)" d="M1899.37 151.997 L1899.37 136.303 L1903.63 136.303 L1903.63 151.835 Q1903.63 155.516 1905.07 157.368 Q1906.5 159.196 1909.37 159.196 Q1912.82 159.196 1914.81 156.997 Q1916.83 154.798 1916.83 151.002 L1916.83 136.303 L1921.09 136.303 L1921.09 162.229 L1916.83 162.229 L1916.83 158.247 Q1915.28 160.608 1913.22 161.766 Q1911.18 162.9 1908.47 162.9 Q1904 162.9 1901.69 160.122 Q1899.37 157.344 1899.37 151.997 M1910.09 135.678 L1910.09 135.678 Z" fill="#000000" fill-rule="nonzero" fill-opacity="1" /><path clip-path="url(#clip640)" d="M1928.56 152.807 L1947.24 152.807 L1947.24 155.006 L1928.56 155.006 L1928.56 152.807 Z" fill="#000000" fill-rule="nonzero" fill-opacity="1" /><path clip-path="url(#clip640)" d="M1980.32 142.946 Q1978.47 142.946 1977.2 144.243 Q1975.92 145.516 1975.92 147.368 Q1975.92 149.196 1977.2 150.469 Q1978.47 151.719 1980.32 151.719 Q1982.17 151.719 1983.45 150.469 Q1984.72 149.196 1984.72 147.368 Q1984.72 145.539 1983.42 144.243 Q1982.15 142.946 1980.32 142.946 M1980.32 139.96 Q1981.8 139.96 1983.17 140.539 Q1984.53 141.094 1985.53 142.159 Q1986.59 143.201 1987.13 144.52 Q1987.66 145.84 1987.66 147.368 Q1987.66 150.423 1985.51 152.553 Q1983.38 154.659 1980.28 154.659 Q1977.15 154.659 1975.07 152.576 Q1972.98 150.493 1972.98 147.368 Q1972.98 144.266 1975.11 142.113 Q1977.24 139.96 1980.32 139.96 Z" fill="#000000" fill-rule="nonzero" fill-opacity="1" /><path clip-path="url(#clip640)" d="M2014.26 151.997 L2014.26 136.303 L2018.52 136.303 L2018.52 151.835 Q2018.52 155.516 2019.95 157.368 Q2021.39 159.196 2024.26 159.196 Q2027.71 159.196 2029.7 156.997 Q2031.71 154.798 2031.71 151.002 L2031.71 136.303 L2035.97 136.303 L2035.97 162.229 L2031.71 162.229 L2031.71 158.247 Q2030.16 160.608 2028.1 161.766 Q2026.06 162.9 2023.35 162.9 Q2018.89 162.9 2016.57 160.122 Q2014.26 157.344 2014.26 151.997 M2024.97 135.678 L2024.97 135.678 Z" fill="#000000" fill-rule="nonzero" fill-opacity="1" /><path clip-path="url(#clip640)" d="M2054.58 147.761 L2054.58 150.006 Q2053.45 149.497 2052.22 149.243 Q2051.02 148.988 2049.7 148.988 Q2047.68 148.988 2046.69 149.52 Q2045.69 150.076 2045.69 151.164 Q2045.69 151.997 2046.41 152.46 Q2047.13 152.946 2049.28 153.363 L2050.21 153.548 Q2053.1 154.104 2054.26 155.076 Q2055.46 156.071 2055.46 157.854 Q2055.46 159.868 2053.65 161.048 Q2051.87 162.229 2048.72 162.229 Q2047.4 162.229 2045.97 161.997 Q2044.56 161.766 2042.98 161.326 L2042.98 158.849 Q2044.46 159.543 2045.92 159.891 Q2047.36 160.238 2048.77 160.238 Q2050.67 160.238 2051.69 159.659 Q2052.71 159.08 2052.71 158.039 Q2052.71 157.067 2051.96 156.534 Q2051.32 156.071 2048.75 155.539 L2047.82 155.354 Q2045.32 154.868 2044.21 153.918 Q2043.1 152.946 2043.1 151.256 Q2043.1 149.219 2044.74 148.108 Q2046.36 146.974 2049.37 146.974 Q2050.85 146.974 2052.17 147.182 Q2053.49 147.368 2054.58 147.761 Z" fill="#000000" fill-rule="nonzero" fill-opacity="1" /><path clip-path="url(#clip640)" d="M2087.87 142.946 Q2086.02 142.946 2084.74 144.243 Q2083.47 145.516 2083.47 147.368 Q2083.47 149.196 2084.74 150.469 Q2086.02 151.719 2087.87 151.719 Q2089.72 151.719 2090.99 150.469 Q2092.27 149.196 2092.27 147.368 Q2092.27 145.539 2090.97 144.243 Q2089.7 142.946 2087.87 142.946 M2087.87 139.96 Q2089.35 139.96 2090.71 140.539 Q2092.08 141.094 2093.08 142.159 Q2094.14 143.201 2094.67 144.52 Q2095.2 145.84 2095.2 147.368 Q2095.2 150.423 2093.05 152.553 Q2090.92 154.659 2087.82 154.659 Q2084.7 154.659 2082.61 152.576 Q2080.53 150.493 2080.53 147.368 Q2080.53 144.266 2082.66 142.113 Q2084.79 139.96 2087.87 139.96 Z" fill="#000000" fill-rule="nonzero" fill-opacity="1" /><path clip-path="url(#clip640)" d="M2121.8 151.997 L2121.8 136.303 L2126.06 136.303 L2126.06 151.835 Q2126.06 155.516 2127.5 157.368 Q2128.93 159.196 2131.8 159.196 Q2135.25 159.196 2137.24 156.997 Q2139.26 154.798 2139.26 151.002 L2139.26 136.303 L2143.51 136.303 L2143.51 162.229 L2139.26 162.229 L2139.26 158.247 Q2137.7 160.608 2135.64 161.766 Q2133.61 162.9 2130.9 162.9 Q2126.43 162.9 2124.12 160.122 Q2121.8 157.344 2121.8 151.997 M2132.52 135.678 L2132.52 135.678 Z" fill="#000000" fill-rule="nonzero" fill-opacity="1" /><path clip-path="url(#clip640)" d="M2161.55 145.585 L2161.55 152.807 L2169.67 152.807 L2169.67 155.006 L2161.55 155.006 L2161.55 162.229 L2159.12 162.229 L2159.12 155.006 L2150.99 155.006 L2150.99 152.807 L2159.12 152.807 L2159.12 145.585 L2161.55 145.585 Z" fill="#000000" fill-rule="nonzero" fill-opacity="1" /><path clip-path="url(#clip640)" d="M1735.83 217.525 L1876.01 217.525 L1876.01 176.053 L1735.83 176.053 L1735.83 217.525  Z" fill="#a52a2a" fill-rule="evenodd" fill-opacity="0.35"/>
<polyline clip-path="url(#clip640)" style="stroke:#000000; stroke-linecap:round; stroke-linejoin:round; stroke-width:4; stroke-opacity:0; fill:none" points="1735.83,217.525 1876.01,217.525 1876.01,176.053 1735.83,176.053 1735.83,217.525 "/>
<path clip-path="url(#clip640)" d="M1899.37 203.837 L1899.37 188.143 L1903.63 188.143 L1903.63 203.675 Q1903.63 207.356 1905.07 209.208 Q1906.5 211.036 1909.37 211.036 Q1912.82 211.036 1914.81 208.837 Q1916.83 206.638 1916.83 202.842 L1916.83 188.143 L1921.09 188.143 L1921.09 214.069 L1916.83 214.069 L1916.83 210.087 Q1915.28 212.448 1913.22 213.606 Q1911.18 214.74 1908.47 214.74 Q1904 214.74 1901.69 211.962 Q1899.37 209.184 1899.37 203.837 M1910.09 187.518 L1910.09 187.518 Z" fill="#000000" fill-rule="nonzero" fill-opacity="1" /><path clip-path="url(#clip640)" d="M1939.12 197.425 L1939.12 204.647 L1947.24 204.647 L1947.24 206.846 L1939.12 206.846 L1939.12 214.069 L1936.69 214.069 L1936.69 206.846 L1928.56 206.846 L1928.56 204.647 L1936.69 204.647 L1936.69 197.425 L1939.12 197.425 Z" fill="#000000" fill-rule="nonzero" fill-opacity="1" /><path clip-path="url(#clip640)" d="M1980.32 194.786 Q1978.47 194.786 1977.2 196.083 Q1975.92 197.356 1975.92 199.208 Q1975.92 201.036 1977.2 202.309 Q1978.47 203.559 1980.32 203.559 Q1982.17 203.559 1983.45 202.309 Q1984.72 201.036 1984.72 199.208 Q1984.72 197.379 1983.42 196.083 Q1982.15 194.786 1980.32 194.786 M1980.32 191.8 Q1981.8 191.8 1983.17 192.379 Q1984.53 192.934 1985.53 193.999 Q1986.59 195.041 1987.13 196.36 Q1987.66 197.68 1987.66 199.208 Q1987.66 202.263 1985.51 204.393 Q1983.38 206.499 1980.28 206.499 Q1977.15 206.499 1975.07 204.416 Q1972.98 202.333 1972.98 199.208 Q1972.98 196.106 1975.11 193.953 Q1977.24 191.8 1980.32 191.8 Z" fill="#000000" fill-rule="nonzero" fill-opacity="1" /><path clip-path="url(#clip640)" d="M2014.26 203.837 L2014.26 188.143 L2018.52 188.143 L2018.52 203.675 Q2018.52 207.356 2019.95 209.208 Q2021.39 211.036 2024.26 211.036 Q2027.71 211.036 2029.7 208.837 Q2031.71 206.638 2031.71 202.842 L2031.71 188.143 L2035.97 188.143 L2035.97 214.069 L2031.71 214.069 L2031.71 210.087 Q2030.16 212.448 2028.1 213.606 Q2026.06 214.74 2023.35 214.74 Q2018.89 214.74 2016.57 211.962 Q2014.26 209.184 2014.26 203.837 M2024.97 187.518 L2024.97 187.518 Z" fill="#000000" fill-rule="nonzero" fill-opacity="1" /><path clip-path="url(#clip640)" d="M2054.58 199.601 L2054.58 201.846 Q2053.45 201.337 2052.22 201.083 Q2051.02 200.828 2049.7 200.828 Q2047.68 200.828 2046.69 201.36 Q2045.69 201.916 2045.69 203.004 Q2045.69 203.837 2046.41 204.3 Q2047.13 204.786 2049.28 205.203 L2050.21 205.388 Q2053.1 205.944 2054.26 206.916 Q2055.46 207.911 2055.46 209.694 Q2055.46 211.708 2053.65 212.888 Q2051.87 214.069 2048.72 214.069 Q2047.4 214.069 2045.97 213.837 Q2044.56 213.606 2042.98 213.166 L2042.98 210.689 Q2044.46 211.383 2045.92 211.731 Q2047.36 212.078 2048.77 212.078 Q2050.67 212.078 2051.69 211.499 Q2052.71 210.92 2052.71 209.879 Q2052.71 208.907 2051.96 208.374 Q2051.32 207.911 2048.75 207.379 L2047.82 207.194 Q2045.32 206.708 2044.21 205.758 Q2043.1 204.786 2043.1 203.096 Q2043.1 201.059 2044.74 199.948 Q2046.36 198.814 2049.37 198.814 Q2050.85 198.814 2052.17 199.022 Q2053.49 199.208 2054.58 199.601 Z" fill="#000000" fill-rule="nonzero" fill-opacity="1" /><path clip-path="url(#clip640)" d="M2087.87 194.786 Q2086.02 194.786 2084.74 196.083 Q2083.47 197.356 2083.47 199.208 Q2083.47 201.036 2084.74 202.309 Q2086.02 203.559 2087.87 203.559 Q2089.72 203.559 2090.99 202.309 Q2092.27 201.036 2092.27 199.208 Q2092.27 197.379 2090.97 196.083 Q2089.7 194.786 2087.87 194.786 M2087.87 191.8 Q2089.35 191.8 2090.71 192.379 Q2092.08 192.934 2093.08 193.999 Q2094.14 195.041 2094.67 196.36 Q2095.2 197.68 2095.2 199.208 Q2095.2 202.263 2093.05 204.393 Q2090.92 206.499 2087.82 206.499 Q2084.7 206.499 2082.61 204.416 Q2080.53 202.333 2080.53 199.208 Q2080.53 196.106 2082.66 193.953 Q2084.79 191.8 2087.87 191.8 Z" fill="#000000" fill-rule="nonzero" fill-opacity="1" /><path clip-path="url(#clip640)" d="M2121.8 203.837 L2121.8 188.143 L2126.06 188.143 L2126.06 203.675 Q2126.06 207.356 2127.5 209.208 Q2128.93 211.036 2131.8 211.036 Q2135.25 211.036 2137.24 208.837 Q2139.26 206.638 2139.26 202.842 L2139.26 188.143 L2143.51 188.143 L2143.51 214.069 L2139.26 214.069 L2139.26 210.087 Q2137.7 212.448 2135.64 213.606 Q2133.61 214.74 2130.9 214.74 Q2126.43 214.74 2124.12 211.962 Q2121.8 209.184 2121.8 203.837 M2132.52 187.518 L2132.52 187.518 Z" fill="#000000" fill-rule="nonzero" fill-opacity="1" /><path clip-path="url(#clip640)" d="M2161.55 197.425 L2161.55 204.647 L2169.67 204.647 L2169.67 206.846 L2161.55 206.846 L2161.55 214.069 L2159.12 214.069 L2159.12 206.846 L2150.99 206.846 L2150.99 204.647 L2159.12 204.647 L2159.12 197.425 L2161.55 197.425 Z" fill="#000000" fill-rule="nonzero" fill-opacity="1" /><path clip-path="url(#clip640)" d="M1735.83 269.365 L1876.01 269.365 L1876.01 227.893 L1735.83 227.893 L1735.83 269.365  Z" fill="#9acd32" fill-rule="evenodd" fill-opacity="0.35"/>
<polyline clip-path="url(#clip640)" style="stroke:#000000; stroke-linecap:round; stroke-linejoin:round; stroke-width:4; stroke-opacity:0; fill:none" points="1735.83,269.365 1876.01,269.365 1876.01,227.893 1735.83,227.893 1735.83,269.365 "/>
<path clip-path="url(#clip640)" d="M1899.37 255.677 L1899.37 239.983 L1903.63 239.983 L1903.63 255.515 Q1903.63 259.196 1905.07 261.048 Q1906.5 262.876 1909.37 262.876 Q1912.82 262.876 1914.81 260.677 Q1916.83 258.478 1916.83 254.682 L1916.83 239.983 L1921.09 239.983 L1921.09 265.909 L1916.83 265.909 L1916.83 261.927 Q1915.28 264.288 1913.22 265.446 Q1911.18 266.58 1908.47 266.58 Q1904 266.58 1901.69 263.802 Q1899.37 261.024 1899.37 255.677 M1910.09 239.358 L1910.09 239.358 Z" fill="#000000" fill-rule="nonzero" fill-opacity="1" /><path clip-path="url(#clip640)" d="M1928.56 256.487 L1947.24 256.487 L1947.24 258.686 L1928.56 258.686 L1928.56 256.487 Z" fill="#000000" fill-rule="nonzero" fill-opacity="1" /><path clip-path="url(#clip640)" d="M1980.32 246.626 Q1978.47 246.626 1977.2 247.923 Q1975.92 249.196 1975.92 251.048 Q1975.92 252.876 1977.2 254.149 Q1978.47 255.399 1980.32 255.399 Q1982.17 255.399 1983.45 254.149 Q1984.72 252.876 1984.72 251.048 Q1984.72 249.219 1983.42 247.923 Q1982.15 246.626 1980.32 246.626 M1980.32 243.64 Q1981.8 243.64 1983.17 244.219 Q1984.53 244.774 1985.53 245.839 Q1986.59 246.881 1987.13 248.2 Q1987.66 249.52 1987.66 251.048 Q1987.66 254.103 1985.51 256.233 Q1983.38 258.339 1980.28 258.339 Q1977.15 258.339 1975.07 256.256 Q1972.98 254.173 1972.98 251.048 Q1972.98 247.946 1975.11 245.793 Q1977.24 243.64 1980.32 243.64 Z" fill="#000000" fill-rule="nonzero" fill-opacity="1" /><path clip-path="url(#clip640)" d="M2014.26 255.677 L2014.26 239.983 L2018.52 239.983 L2018.52 255.515 Q2018.52 259.196 2019.95 261.048 Q2021.39 262.876 2024.26 262.876 Q2027.71 262.876 2029.7 260.677 Q2031.71 258.478 2031.71 254.682 L2031.71 239.983 L2035.97 239.983 L2035.97 265.909 L2031.71 265.909 L2031.71 261.927 Q2030.16 264.288 2028.1 265.446 Q2026.06 266.58 2023.35 266.58 Q2018.89 266.58 2016.57 263.802 Q2014.26 261.024 2014.26 255.677 M2024.97 239.358 L2024.97 239.358 Z" fill="#000000" fill-rule="nonzero" fill-opacity="1" /><path clip-path="url(#clip640)" d="M2054 249.265 L2054 256.487 L2062.13 256.487 L2062.13 258.686 L2054 258.686 L2054 265.909 L2051.57 265.909 L2051.57 258.686 L2043.45 258.686 L2043.45 256.487 L2051.57 256.487 L2051.57 249.265 L2054 249.265 Z" fill="#000000" fill-rule="nonzero" fill-opacity="1" /><path clip-path="url(#clip640)" d="M1735.83 321.205 L1876.01 321.205 L1876.01 279.733 L1735.83 279.733 L1735.83 321.205  Z" fill="#ff0000" fill-rule="evenodd" fill-opacity="0.35"/>
<polyline clip-path="url(#clip640)" style="stroke:#000000; stroke-linecap:round; stroke-linejoin:round; stroke-width:4; stroke-opacity:0; fill:none" points="1735.83,321.205 1876.01,321.205 1876.01,279.733 1735.83,279.733 1735.83,321.205 "/>
<path clip-path="url(#clip640)" d="M1899.37 307.517 L1899.37 291.823 L1903.63 291.823 L1903.63 307.355 Q1903.63 311.036 1905.07 312.888 Q1906.5 314.716 1909.37 314.716 Q1912.82 314.716 1914.81 312.517 Q1916.83 310.318 1916.83 306.522 L1916.83 291.823 L1921.09 291.823 L1921.09 317.749 L1916.83 317.749 L1916.83 313.767 Q1915.28 316.128 1913.22 317.286 Q1911.18 318.42 1908.47 318.42 Q1904 318.42 1901.69 315.642 Q1899.37 312.864 1899.37 307.517 M1910.09 291.198 L1910.09 291.198 Z" fill="#000000" fill-rule="nonzero" fill-opacity="1" /><path clip-path="url(#clip640)" d="M1939.12 301.105 L1939.12 308.327 L1947.24 308.327 L1947.24 310.526 L1939.12 310.526 L1939.12 317.749 L1936.69 317.749 L1936.69 310.526 L1928.56 310.526 L1928.56 308.327 L1936.69 308.327 L1936.69 301.105 L1939.12 301.105 Z" fill="#000000" fill-rule="nonzero" fill-opacity="1" /><polyline clip-path="url(#clip640)" style="stroke:#808080; stroke-linecap:round; stroke-linejoin:round; stroke-width:12; stroke-opacity:1; fill:none" points="1735.83,352.309 1876.01,352.309 "/>
<path clip-path="url(#clip640)" d="M1918.28 347.598 L1918.28 333.57 L1922.54 333.57 L1922.54 369.589 L1918.28 369.589 L1918.28 365.7 Q1916.94 368.015 1914.88 369.149 Q1912.84 370.26 1909.97 370.26 Q1905.28 370.26 1902.31 366.51 Q1899.37 362.76 1899.37 356.649 Q1899.37 350.538 1902.31 346.788 Q1905.28 343.038 1909.97 343.038 Q1912.84 343.038 1914.88 344.172 Q1916.94 345.283 1918.28 347.598 M1903.77 356.649 Q1903.77 361.348 1905.69 364.033 Q1907.64 366.695 1911.02 366.695 Q1914.4 366.695 1916.34 364.033 Q1918.28 361.348 1918.28 356.649 Q1918.28 351.95 1916.34 349.288 Q1914.4 346.603 1911.02 346.603 Q1907.64 346.603 1905.69 349.288 Q1903.77 351.95 1903.77 356.649 Z" fill="#000000" fill-rule="nonzero" fill-opacity="1" /><path clip-path="url(#clip640)" d="M1931.32 343.663 L1935.58 343.663 L1935.58 369.589 L1931.32 369.589 L1931.32 343.663 M1931.32 333.57 L1935.58 333.57 L1935.58 338.964 L1931.32 338.964 L1931.32 333.57 Z" fill="#000000" fill-rule="nonzero" fill-opacity="1" /><path clip-path="url(#clip640)" d="M1961.02 344.427 L1961.02 348.454 Q1959.21 347.529 1957.27 347.066 Q1955.32 346.603 1953.24 346.603 Q1950.07 346.603 1948.47 347.575 Q1946.9 348.547 1946.9 350.491 Q1946.9 351.973 1948.03 352.829 Q1949.16 353.663 1952.59 354.427 L1954.05 354.751 Q1958.59 355.723 1960.48 357.505 Q1962.4 359.265 1962.4 362.436 Q1962.4 366.047 1959.53 368.153 Q1956.69 370.26 1951.69 370.26 Q1949.6 370.26 1947.34 369.843 Q1945.09 369.45 1942.59 368.64 L1942.59 364.241 Q1944.95 365.468 1947.24 366.093 Q1949.53 366.695 1951.78 366.695 Q1954.79 366.695 1956.41 365.677 Q1958.03 364.635 1958.03 362.76 Q1958.03 361.024 1956.85 360.098 Q1955.69 359.172 1951.73 358.316 L1950.25 357.968 Q1946.29 357.135 1944.53 355.422 Q1942.78 353.686 1942.78 350.677 Q1942.78 347.019 1945.37 345.029 Q1947.96 343.038 1952.73 343.038 Q1955.09 343.038 1957.17 343.385 Q1959.26 343.732 1961.02 344.427 Z" fill="#000000" fill-rule="nonzero" fill-opacity="1" /><path clip-path="url(#clip640)" d="M1973.31 365.7 L1973.31 379.45 L1969.03 379.45 L1969.03 343.663 L1973.31 343.663 L1973.31 347.598 Q1974.65 345.283 1976.69 344.172 Q1978.75 343.038 1981.59 343.038 Q1986.32 343.038 1989.26 346.788 Q1992.22 350.538 1992.22 356.649 Q1992.22 362.76 1989.26 366.51 Q1986.32 370.26 1981.59 370.26 Q1978.75 370.26 1976.69 369.149 Q1974.65 368.015 1973.31 365.7 M1987.8 356.649 Q1987.8 351.95 1985.85 349.288 Q1983.93 346.603 1980.55 346.603 Q1977.17 346.603 1975.23 349.288 Q1973.31 351.95 1973.31 356.649 Q1973.31 361.348 1975.23 364.033 Q1977.17 366.695 1980.55 366.695 Q1983.93 366.695 1985.85 364.033 Q1987.8 361.348 1987.8 356.649 Z" fill="#000000" fill-rule="nonzero" fill-opacity="1" /><path clip-path="url(#clip640)" d="M2021.46 355.561 L2021.46 357.644 L2001.87 357.644 Q2002.15 362.042 2004.51 364.357 Q2006.9 366.649 2011.13 366.649 Q2013.59 366.649 2015.88 366.047 Q2018.19 365.445 2020.46 364.241 L2020.46 368.269 Q2018.17 369.241 2015.76 369.751 Q2013.35 370.26 2010.88 370.26 Q2004.67 370.26 2001.04 366.649 Q1997.43 363.038 1997.43 356.88 Q1997.43 350.515 2000.85 346.788 Q2004.3 343.038 2010.14 343.038 Q2015.37 343.038 2018.4 346.417 Q2021.46 349.774 2021.46 355.561 M2017.2 354.311 Q2017.15 350.816 2015.23 348.732 Q2013.33 346.649 2010.18 346.649 Q2006.62 346.649 2004.46 348.663 Q2002.34 350.677 2002.01 354.334 L2017.2 354.311 Z" fill="#000000" fill-rule="nonzero" fill-opacity="1" /><path clip-path="url(#clip640)" d="M2043.47 347.644 Q2042.75 347.228 2041.9 347.042 Q2041.06 346.834 2040.04 346.834 Q2036.43 346.834 2034.49 349.195 Q2032.57 351.533 2032.57 355.931 L2032.57 369.589 L2028.28 369.589 L2028.28 343.663 L2032.57 343.663 L2032.57 347.691 Q2033.91 345.329 2036.06 344.195 Q2038.21 343.038 2041.29 343.038 Q2041.73 343.038 2042.27 343.107 Q2042.8 343.154 2043.45 343.269 L2043.47 347.644 Z" fill="#000000" fill-rule="nonzero" fill-opacity="1" /><path clip-path="url(#clip640)" d="M2064.46 344.427 L2064.46 348.454 Q2062.66 347.529 2060.71 347.066 Q2058.77 346.603 2056.69 346.603 Q2053.52 346.603 2051.92 347.575 Q2050.34 348.547 2050.34 350.491 Q2050.34 351.973 2051.48 352.829 Q2052.61 353.663 2056.04 354.427 L2057.5 354.751 Q2062.03 355.723 2063.93 357.505 Q2065.85 359.265 2065.85 362.436 Q2065.85 366.047 2062.98 368.153 Q2060.14 370.26 2055.14 370.26 Q2053.05 370.26 2050.78 369.843 Q2048.54 369.45 2046.04 368.64 L2046.04 364.241 Q2048.4 365.468 2050.69 366.093 Q2052.98 366.695 2055.23 366.695 Q2058.24 366.695 2059.86 365.677 Q2061.48 364.635 2061.48 362.76 Q2061.48 361.024 2060.3 360.098 Q2059.14 359.172 2055.18 358.316 L2053.7 357.968 Q2049.74 357.135 2047.98 355.422 Q2046.22 353.686 2046.22 350.677 Q2046.22 347.019 2048.82 345.029 Q2051.41 343.038 2056.18 343.038 Q2058.54 343.038 2060.62 343.385 Q2062.71 343.732 2064.46 344.427 Z" fill="#000000" fill-rule="nonzero" fill-opacity="1" /><path clip-path="url(#clip640)" d="M2072.64 343.663 L2076.89 343.663 L2076.89 369.589 L2072.64 369.589 L2072.64 343.663 M2072.64 333.57 L2076.89 333.57 L2076.89 338.964 L2072.64 338.964 L2072.64 333.57 Z" fill="#000000" fill-rule="nonzero" fill-opacity="1" /><path clip-path="url(#clip640)" d="M2097.59 356.556 Q2092.43 356.556 2090.44 357.737 Q2088.45 358.917 2088.45 361.765 Q2088.45 364.033 2089.93 365.376 Q2091.43 366.695 2094 366.695 Q2097.54 366.695 2099.67 364.195 Q2101.83 361.672 2101.83 357.505 L2101.83 356.556 L2097.59 356.556 M2106.08 354.797 L2106.08 369.589 L2101.83 369.589 L2101.83 365.653 Q2100.37 368.015 2098.19 369.149 Q2096.02 370.26 2092.87 370.26 Q2088.89 370.26 2086.52 368.038 Q2084.19 365.792 2084.19 362.042 Q2084.19 357.667 2087.1 355.445 Q2090.04 353.223 2095.85 353.223 L2101.83 353.223 L2101.83 352.806 Q2101.83 349.867 2099.88 348.269 Q2097.96 346.649 2094.46 346.649 Q2092.24 346.649 2090.14 347.181 Q2088.03 347.714 2086.08 348.779 L2086.08 344.843 Q2088.42 343.941 2090.62 343.501 Q2092.82 343.038 2094.9 343.038 Q2100.53 343.038 2103.31 345.954 Q2106.08 348.871 2106.08 354.797 Z" fill="#000000" fill-rule="nonzero" fill-opacity="1" /><path clip-path="url(#clip640)" d="M2114.86 333.57 L2119.12 333.57 L2119.12 369.589 L2114.86 369.589 L2114.86 333.57 Z" fill="#000000" fill-rule="nonzero" fill-opacity="1" /><path clip-path="url(#clip640)" d="M2143.1 333.57 L2147.36 333.57 L2147.36 369.589 L2143.1 369.589 L2143.1 333.57 Z" fill="#000000" fill-rule="nonzero" fill-opacity="1" /><path clip-path="url(#clip640)" d="M2166.32 346.649 Q2162.89 346.649 2160.9 349.334 Q2158.91 351.996 2158.91 356.649 Q2158.91 361.302 2160.88 363.987 Q2162.87 366.649 2166.32 366.649 Q2169.72 366.649 2171.71 363.964 Q2173.7 361.278 2173.7 356.649 Q2173.7 352.042 2171.71 349.357 Q2169.72 346.649 2166.32 346.649 M2166.32 343.038 Q2171.87 343.038 2175.04 346.649 Q2178.21 350.26 2178.21 356.649 Q2178.21 363.015 2175.04 366.649 Q2171.87 370.26 2166.32 370.26 Q2160.74 370.26 2157.57 366.649 Q2154.42 363.015 2154.42 356.649 Q2154.42 350.26 2157.57 346.649 Q2160.74 343.038 2166.32 343.038 Z" fill="#000000" fill-rule="nonzero" fill-opacity="1" /><path clip-path="url(#clip640)" d="M2203.93 344.658 L2203.93 348.64 Q2202.13 347.644 2200.3 347.158 Q2198.49 346.649 2196.64 346.649 Q2192.5 346.649 2190.2 349.288 Q2187.91 351.904 2187.91 356.649 Q2187.91 361.394 2190.2 364.033 Q2192.5 366.649 2196.64 366.649 Q2198.49 366.649 2200.3 366.163 Q2202.13 365.653 2203.93 364.658 L2203.93 368.593 Q2202.15 369.427 2200.23 369.843 Q2198.33 370.26 2196.18 370.26 Q2190.32 370.26 2186.87 366.579 Q2183.42 362.899 2183.42 356.649 Q2183.42 350.306 2186.89 346.672 Q2190.39 343.038 2196.45 343.038 Q2198.42 343.038 2200.3 343.455 Q2202.17 343.848 2203.93 344.658 Z" fill="#000000" fill-rule="nonzero" fill-opacity="1" /><path clip-path="url(#clip640)" d="M2210.9 359.357 L2210.9 343.663 L2215.16 343.663 L2215.16 359.195 Q2215.16 362.876 2216.59 364.728 Q2218.03 366.556 2220.9 366.556 Q2224.35 366.556 2226.34 364.357 Q2228.35 362.158 2228.35 358.362 L2228.35 343.663 L2232.61 343.663 L2232.61 369.589 L2228.35 369.589 L2228.35 365.607 Q2226.8 367.968 2224.74 369.126 Q2222.7 370.26 2220 370.26 Q2215.53 370.26 2213.21 367.482 Q2210.9 364.704 2210.9 359.357 M2221.62 343.038 L2221.62 343.038 Z" fill="#000000" fill-rule="nonzero" fill-opacity="1" /><path clip-path="url(#clip640)" d="M2257.91 344.427 L2257.91 348.454 Q2256.11 347.529 2254.16 347.066 Q2252.22 346.603 2250.13 346.603 Q2246.96 346.603 2245.37 347.575 Q2243.79 348.547 2243.79 350.491 Q2243.79 351.973 2244.93 352.829 Q2246.06 353.663 2249.49 354.427 L2250.94 354.751 Q2255.48 355.723 2257.38 357.505 Q2259.3 359.265 2259.3 362.436 Q2259.3 366.047 2256.43 368.153 Q2253.58 370.26 2248.58 370.26 Q2246.5 370.26 2244.23 369.843 Q2241.99 369.45 2239.49 368.64 L2239.49 364.241 Q2241.85 365.468 2244.14 366.093 Q2246.43 366.695 2248.68 366.695 Q2251.69 366.695 2253.31 365.677 Q2254.93 364.635 2254.93 362.76 Q2254.93 361.024 2253.75 360.098 Q2252.59 359.172 2248.63 358.316 L2247.15 357.968 Q2243.19 357.135 2241.43 355.422 Q2239.67 353.686 2239.67 350.677 Q2239.67 347.019 2242.26 345.029 Q2244.86 343.038 2249.63 343.038 Q2251.99 343.038 2254.07 343.385 Q2256.15 343.732 2257.91 344.427 Z" fill="#000000" fill-rule="nonzero" fill-opacity="1" /><polyline clip-path="url(#clip640)" style="stroke:#ffd700; stroke-linecap:round; stroke-linejoin:round; stroke-width:12; stroke-opacity:1; fill:none" points="1735.83,404.149 1876.01,404.149 "/>
<path clip-path="url(#clip640)" d="M1917.8 396.267 L1917.8 400.294 Q1915.99 399.369 1914.05 398.906 Q1912.1 398.443 1910.02 398.443 Q1906.85 398.443 1905.25 399.415 Q1903.68 400.387 1903.68 402.331 Q1903.68 403.813 1904.81 404.669 Q1905.95 405.503 1909.37 406.267 L1910.83 406.591 Q1915.37 407.563 1917.27 409.345 Q1919.19 411.105 1919.19 414.276 Q1919.19 417.887 1916.32 419.993 Q1913.47 422.1 1908.47 422.1 Q1906.39 422.1 1904.12 421.683 Q1901.87 421.29 1899.37 420.48 L1899.37 416.081 Q1901.73 417.308 1904.03 417.933 Q1906.32 418.535 1908.56 418.535 Q1911.57 418.535 1913.19 417.517 Q1914.81 416.475 1914.81 414.6 Q1914.81 412.864 1913.63 411.938 Q1912.47 411.012 1908.52 410.156 L1907.03 409.808 Q1903.08 408.975 1901.32 407.262 Q1899.56 405.526 1899.56 402.517 Q1899.56 398.859 1902.15 396.869 Q1904.74 394.878 1909.51 394.878 Q1911.87 394.878 1913.96 395.225 Q1916.04 395.572 1917.8 396.267 Z" fill="#000000" fill-rule="nonzero" fill-opacity="1" /><path clip-path="url(#clip640)" d="M1923.49 395.503 L1927.75 395.503 L1933.08 415.734 L1938.38 395.503 L1943.4 395.503 L1948.72 415.734 L1954.03 395.503 L1958.28 395.503 L1951.5 421.429 L1946.48 421.429 L1940.9 400.179 L1935.3 421.429 L1930.28 421.429 L1923.49 395.503 Z" fill="#000000" fill-rule="nonzero" fill-opacity="1" /><path clip-path="url(#clip640)" d="M1964.74 395.503 L1969 395.503 L1969 421.429 L1964.74 421.429 L1964.74 395.503 M1964.74 385.41 L1969 385.41 L1969 390.804 L1964.74 390.804 L1964.74 385.41 Z" fill="#000000" fill-rule="nonzero" fill-opacity="1" /><path clip-path="url(#clip640)" d="M1982.13 388.142 L1982.13 395.503 L1990.9 395.503 L1990.9 398.813 L1982.13 398.813 L1982.13 412.887 Q1982.13 416.058 1982.98 416.961 Q1983.86 417.864 1986.53 417.864 L1990.9 417.864 L1990.9 421.429 L1986.53 421.429 Q1981.59 421.429 1979.72 419.6 Q1977.84 417.748 1977.84 412.887 L1977.84 398.813 L1974.72 398.813 L1974.72 395.503 L1977.84 395.503 L1977.84 388.142 L1982.13 388.142 Z" fill="#000000" fill-rule="nonzero" fill-opacity="1" /><path clip-path="url(#clip640)" d="M2015.16 396.498 L2015.16 400.48 Q2013.35 399.484 2011.52 398.998 Q2009.72 398.489 2007.87 398.489 Q2003.72 398.489 2001.43 401.128 Q1999.14 403.744 1999.14 408.489 Q1999.14 413.234 2001.43 415.873 Q2003.72 418.489 2007.87 418.489 Q2009.72 418.489 2011.52 418.003 Q2013.35 417.493 2015.16 416.498 L2015.16 420.433 Q2013.38 421.267 2011.46 421.683 Q2009.56 422.1 2007.4 422.1 Q2001.55 422.1 1998.1 418.419 Q1994.65 414.739 1994.65 408.489 Q1994.65 402.146 1998.12 398.512 Q2001.62 394.878 2007.68 394.878 Q2009.65 394.878 2011.52 395.295 Q2013.4 395.688 2015.16 396.498 Z" fill="#000000" fill-rule="nonzero" fill-opacity="1" /><path clip-path="url(#clip640)" d="M2044.12 405.781 L2044.12 421.429 L2039.86 421.429 L2039.86 405.919 Q2039.86 402.239 2038.42 400.41 Q2036.99 398.582 2034.12 398.582 Q2030.67 398.582 2028.68 400.781 Q2026.69 402.98 2026.69 406.776 L2026.69 421.429 L2022.4 421.429 L2022.4 385.41 L2026.69 385.41 L2026.69 399.531 Q2028.21 397.193 2030.27 396.035 Q2032.36 394.878 2035.07 394.878 Q2039.53 394.878 2041.83 397.656 Q2044.12 400.41 2044.12 405.781 Z" fill="#000000" fill-rule="nonzero" fill-opacity="1" /><path clip-path="url(#clip640)" d="M2052.61 395.503 L2056.87 395.503 L2056.87 421.429 L2052.61 421.429 L2052.61 395.503 M2052.61 385.41 L2056.87 385.41 L2056.87 390.804 L2052.61 390.804 L2052.61 385.41 Z" fill="#000000" fill-rule="nonzero" fill-opacity="1" /><path clip-path="url(#clip640)" d="M2087.33 405.781 L2087.33 421.429 L2083.08 421.429 L2083.08 405.919 Q2083.08 402.239 2081.64 400.41 Q2080.21 398.582 2077.33 398.582 Q2073.89 398.582 2071.89 400.781 Q2069.9 402.98 2069.9 406.776 L2069.9 421.429 L2065.62 421.429 L2065.62 395.503 L2069.9 395.503 L2069.9 399.531 Q2071.43 397.193 2073.49 396.035 Q2075.58 394.878 2078.28 394.878 Q2082.75 394.878 2085.04 397.656 Q2087.33 400.41 2087.33 405.781 Z" fill="#000000" fill-rule="nonzero" fill-opacity="1" /><path clip-path="url(#clip640)" d="M2112.89 408.165 Q2112.89 403.535 2110.97 400.989 Q2109.07 398.443 2105.62 398.443 Q2102.2 398.443 2100.27 400.989 Q2098.38 403.535 2098.38 408.165 Q2098.38 412.771 2100.27 415.318 Q2102.2 417.864 2105.62 417.864 Q2109.07 417.864 2110.97 415.318 Q2112.89 412.771 2112.89 408.165 M2117.15 418.211 Q2117.15 424.831 2114.21 428.049 Q2111.27 431.29 2105.2 431.29 Q2102.96 431.29 2100.97 430.942 Q2098.98 430.618 2097.1 429.924 L2097.1 425.78 Q2098.98 426.799 2100.81 427.285 Q2102.64 427.771 2104.53 427.771 Q2108.72 427.771 2110.81 425.572 Q2112.89 423.396 2112.89 418.975 L2112.89 416.868 Q2111.57 419.16 2109.51 420.294 Q2107.45 421.429 2104.58 421.429 Q2099.81 421.429 2096.89 417.794 Q2093.98 414.16 2093.98 408.165 Q2093.98 402.146 2096.89 398.512 Q2099.81 394.878 2104.58 394.878 Q2107.45 394.878 2109.51 396.012 Q2111.57 397.146 2112.89 399.438 L2112.89 395.503 L2117.15 395.503 L2117.15 418.211 Z" fill="#000000" fill-rule="nonzero" fill-opacity="1" /><path clip-path="url(#clip640)" d="M2140.99 385.41 L2145.25 385.41 L2145.25 421.429 L2140.99 421.429 L2140.99 385.41 Z" fill="#000000" fill-rule="nonzero" fill-opacity="1" /><path clip-path="url(#clip640)" d="M2164.21 398.489 Q2160.78 398.489 2158.79 401.174 Q2156.8 403.836 2156.8 408.489 Q2156.8 413.142 2158.77 415.827 Q2160.76 418.489 2164.21 418.489 Q2167.61 418.489 2169.6 415.804 Q2171.59 413.118 2171.59 408.489 Q2171.59 403.882 2169.6 401.197 Q2167.61 398.489 2164.21 398.489 M2164.21 394.878 Q2169.76 394.878 2172.94 398.489 Q2176.11 402.1 2176.11 408.489 Q2176.11 414.855 2172.94 418.489 Q2169.76 422.1 2164.21 422.1 Q2158.63 422.1 2155.46 418.489 Q2152.31 414.855 2152.31 408.489 Q2152.31 402.1 2155.46 398.489 Q2158.63 394.878 2164.21 394.878 Z" fill="#000000" fill-rule="nonzero" fill-opacity="1" /><path clip-path="url(#clip640)" d="M2201.82 396.498 L2201.82 400.48 Q2200.02 399.484 2198.19 398.998 Q2196.39 398.489 2194.53 398.489 Q2190.39 398.489 2188.1 401.128 Q2185.81 403.744 2185.81 408.489 Q2185.81 413.234 2188.1 415.873 Q2190.39 418.489 2194.53 418.489 Q2196.39 418.489 2198.19 418.003 Q2200.02 417.493 2201.82 416.498 L2201.82 420.433 Q2200.04 421.267 2198.12 421.683 Q2196.22 422.1 2194.07 422.1 Q2188.21 422.1 2184.76 418.419 Q2181.32 414.739 2181.32 408.489 Q2181.32 402.146 2184.79 398.512 Q2188.28 394.878 2194.35 394.878 Q2196.32 394.878 2198.19 395.295 Q2200.07 395.688 2201.82 396.498 Z" fill="#000000" fill-rule="nonzero" fill-opacity="1" /><path clip-path="url(#clip640)" d="M2208.79 411.197 L2208.79 395.503 L2213.05 395.503 L2213.05 411.035 Q2213.05 414.716 2214.49 416.568 Q2215.92 418.396 2218.79 418.396 Q2222.24 418.396 2224.23 416.197 Q2226.25 413.998 2226.25 410.202 L2226.25 395.503 L2230.51 395.503 L2230.51 421.429 L2226.25 421.429 L2226.25 417.447 Q2224.7 419.808 2222.63 420.966 Q2220.6 422.1 2217.89 422.1 Q2213.42 422.1 2211.11 419.322 Q2208.79 416.544 2208.79 411.197 M2219.51 394.878 L2219.51 394.878 Z" fill="#000000" fill-rule="nonzero" fill-opacity="1" /><path clip-path="url(#clip640)" d="M2255.81 396.267 L2255.81 400.294 Q2254 399.369 2252.06 398.906 Q2250.11 398.443 2248.03 398.443 Q2244.86 398.443 2243.26 399.415 Q2241.69 400.387 2241.69 402.331 Q2241.69 403.813 2242.82 404.669 Q2243.95 405.503 2247.38 406.267 L2248.84 406.591 Q2253.38 407.563 2255.27 409.345 Q2257.19 411.105 2257.19 414.276 Q2257.19 417.887 2254.32 419.993 Q2251.48 422.1 2246.48 422.1 Q2244.39 422.1 2242.13 421.683 Q2239.88 421.29 2237.38 420.48 L2237.38 416.081 Q2239.74 417.308 2242.03 417.933 Q2244.32 418.535 2246.57 418.535 Q2249.58 418.535 2251.2 417.517 Q2252.82 416.475 2252.82 414.6 Q2252.82 412.864 2251.64 411.938 Q2250.48 411.012 2246.52 410.156 L2245.04 409.808 Q2241.08 408.975 2239.32 407.262 Q2237.57 405.526 2237.57 402.517 Q2237.57 398.859 2240.16 396.869 Q2242.75 394.878 2247.52 394.878 Q2249.88 394.878 2251.96 395.225 Q2254.05 395.572 2255.81 396.267 Z" fill="#000000" fill-rule="nonzero" fill-opacity="1" /><polyline clip-path="url(#clip640)" style="stroke:#008000; stroke-linecap:round; stroke-linejoin:round; stroke-width:12; stroke-opacity:1; fill:none" points="1735.83,455.989 1876.01,455.989 "/>
<path clip-path="url(#clip640)" d="M1899.37 463.037 L1899.37 447.343 L1903.63 447.343 L1903.63 462.875 Q1903.63 466.556 1905.07 468.408 Q1906.5 470.236 1909.37 470.236 Q1912.82 470.236 1914.81 468.037 Q1916.83 465.838 1916.83 462.042 L1916.83 447.343 L1921.09 447.343 L1921.09 473.269 L1916.83 473.269 L1916.83 469.287 Q1915.28 471.648 1913.22 472.806 Q1911.18 473.94 1908.47 473.94 Q1904 473.94 1901.69 471.162 Q1899.37 468.384 1899.37 463.037 M1910.09 446.718 L1910.09 446.718 Z" fill="#000000" fill-rule="nonzero" fill-opacity="1" /><path clip-path="url(#clip640)" d="M1939.7 458.801 L1939.7 461.046 Q1938.56 460.537 1937.34 460.283 Q1936.13 460.028 1934.81 460.028 Q1932.8 460.028 1931.8 460.56 Q1930.81 461.116 1930.81 462.204 Q1930.81 463.037 1931.53 463.5 Q1932.24 463.986 1934.4 464.403 L1935.32 464.588 Q1938.22 465.144 1939.37 466.116 Q1940.58 467.111 1940.58 468.894 Q1940.58 470.908 1938.77 472.088 Q1936.99 473.269 1933.84 473.269 Q1932.52 473.269 1931.09 473.037 Q1929.67 472.806 1928.1 472.366 L1928.1 469.889 Q1929.58 470.583 1931.04 470.931 Q1932.47 471.278 1933.89 471.278 Q1935.78 471.278 1936.8 470.699 Q1937.82 470.12 1937.82 469.079 Q1937.82 468.107 1937.08 467.574 Q1936.43 467.111 1933.86 466.579 L1932.94 466.394 Q1930.44 465.908 1929.33 464.958 Q1928.22 463.986 1928.22 462.296 Q1928.22 460.259 1929.86 459.148 Q1931.48 458.014 1934.49 458.014 Q1935.97 458.014 1937.29 458.222 Q1938.61 458.408 1939.7 458.801 Z" fill="#000000" fill-rule="nonzero" fill-opacity="1" /></svg>
