<?xml version="1.0" encoding="utf-8"?>
<svg xmlns="http://www.w3.org/2000/svg" xmlns:xlink="http://www.w3.org/1999/xlink" width="600" height="400" viewBox="0 0 2400 1600">
<defs>
  <clipPath id="clip430">
    <rect x="0" y="0" width="2400" height="1600"/>
  </clipPath>
</defs>
<path clip-path="url(#clip430)" d="M0 1600 L2400 1600 L2400 0 L0 0  Z" fill="#ffffff" fill-rule="evenodd" fill-opacity="1"/>
<defs>
  <clipPath id="clip431">
    <rect x="480" y="0" width="1681" height="1600"/>
  </clipPath>
</defs>
<path clip-path="url(#clip430)" d="M205.121 1423.18 L2352.76 1423.18 L2352.76 47.2441 L205.121 47.2441  Z" fill="#ffffff" fill-rule="evenodd" fill-opacity="1"/>
<defs>
  <clipPath id="clip432">
    <rect x="205" y="47" width="2149" height="1377"/>
  </clipPath>
</defs>
<polyline clip-path="url(#clip432)" style="stroke:#000000; stroke-linecap:round; stroke-linejoin:round; stroke-width:2; stroke-opacity:0.1; fill:none" points="205.121,1423.18 205.121,47.2441 "/>
<polyline clip-path="url(#clip432)" style="stroke:#000000; stroke-linecap:round; stroke-linejoin:round; stroke-width:2; stroke-opacity:0.1; fill:none" points="634.648,1423.18 634.648,47.2441 "/>
<polyline clip-path="url(#clip432)" style="stroke:#000000; stroke-linecap:round; stroke-linejoin:round; stroke-width:2; stroke-opacity:0.1; fill:none" points="1064.17,1423.18 1064.17,47.2441 "/>
<polyline clip-path="url(#clip432)" style="stroke:#000000; stroke-linecap:round; stroke-linejoin:round; stroke-width:2; stroke-opacity:0.1; fill:none" points="1493.7,1423.18 1493.7,47.2441 "/>
<polyline clip-path="url(#clip432)" style="stroke:#000000; stroke-linecap:round; stroke-linejoin:round; stroke-width:2; stroke-opacity:0.1; fill:none" points="1923.23,1423.18 1923.23,47.2441 "/>
<polyline clip-path="url(#clip432)" style="stroke:#000000; stroke-linecap:round; stroke-linejoin:round; stroke-width:2; stroke-opacity:0.1; fill:none" points="2352.76,1423.18 2352.76,47.2441 "/>
<polyline clip-path="url(#clip432)" style="stroke:#000000; stroke-linecap:round; stroke-linejoin:round; stroke-width:2; stroke-opacity:0.1; fill:none" points="205.121,1423.18 2352.76,1423.18 "/>
<polyline clip-path="url(#clip432)" style="stroke:#000000; stroke-linecap:round; stroke-linejoin:round; stroke-width:2; stroke-opacity:0.1; fill:none" points="205.121,1147.99 2352.76,1147.99 "/>
<polyline clip-path="url(#clip432)" style="stroke:#000000; stroke-linecap:round; stroke-linejoin:round; stroke-width:2; stroke-opacity:0.1; fill:none" points="205.121,872.806 2352.76,872.806 "/>
<polyline clip-path="url(#clip432)" style="stroke:#000000; stroke-linecap:round; stroke-linejoin:round; stroke-width:2; stroke-opacity:0.1; fill:none" points="205.121,597.618 2352.76,597.618 "/>
<polyline clip-path="url(#clip432)" style="stroke:#000000; stroke-linecap:round; stroke-linejoin:round; stroke-width:2; stroke-opacity:0.1; fill:none" points="205.121,322.431 2352.76,322.431 "/>
<polyline clip-path="url(#clip432)" style="stroke:#000000; stroke-linecap:round; stroke-linejoin:round; stroke-width:2; stroke-opacity:0.1; fill:none" points="205.121,47.2441 2352.76,47.2441 "/>
<polyline clip-path="url(#clip430)" style="stroke:#000000; stroke-linecap:round; stroke-linejoin:round; stroke-width:4; stroke-opacity:1; fill:none" points="205.121,1423.18 2352.76,1423.18 "/>
<polyline clip-path="url(#clip430)" style="stroke:#000000; stroke-linecap:round; stroke-linejoin:round; stroke-width:4; stroke-opacity:1; fill:none" points="205.121,1423.18 205.121,1404.28 "/>
<polyline clip-path="url(#clip430)" style="stroke:#000000; stroke-linecap:round; stroke-linejoin:round; stroke-width:4; stroke-opacity:1; fill:none" points="634.648,1423.18 634.648,1404.28 "/>
<polyline clip-path="url(#clip430)" style="stroke:#000000; stroke-linecap:round; stroke-linejoin:round; stroke-width:4; stroke-opacity:1; fill:none" points="1064.17,1423.18 1064.17,1404.28 "/>
<polyline clip-path="url(#clip430)" style="stroke:#000000; stroke-linecap:round; stroke-linejoin:round; stroke-width:4; stroke-opacity:1; fill:none" points="1493.7,1423.18 1493.7,1404.28 "/>
<polyline clip-path="url(#clip430)" style="stroke:#000000; stroke-linecap:round; stroke-linejoin:round; stroke-width:4; stroke-opacity:1; fill:none" points="1923.23,1423.18 1923.23,1404.28 "/>
<polyline clip-path="url(#clip430)" style="stroke:#000000; stroke-linecap:round; stroke-linejoin:round; stroke-width:4; stroke-opacity:1; fill:none" points="2352.76,1423.18 2352.76,1404.28 "/>
<path clip-path="url(#clip430)" d="M205.121 1454.1 Q201.51 1454.1 199.681 1457.66 Q197.876 1461.2 197.876 1468.33 Q197.876 1475.44 199.681 1479.01 Q201.51 1482.55 205.121 1482.55 Q208.755 1482.55 210.561 1479.01 Q212.389 1475.44 212.389 1468.33 Q212.389 1461.2 210.561 1457.66 Q208.755 1454.1 205.121 1454.1 M205.121 1450.39 Q210.931 1450.39 213.987 1455 Q217.065 1459.58 217.065 1468.33 Q217.065 1477.06 213.987 1481.67 Q210.931 1486.25 205.121 1486.25 Q199.311 1486.25 196.232 1481.67 Q193.177 1477.06 193.177 1468.33 Q193.177 1459.58 196.232 1455 Q199.311 1450.39 205.121 1450.39 Z" fill="#000000" fill-rule="nonzero" fill-opacity="1" /><path clip-path="url(#clip430)" d="M609.336 1481.64 L616.974 1481.64 L616.974 1455.28 L608.664 1456.95 L608.664 1452.69 L616.928 1451.02 L621.604 1451.02 L621.604 1481.64 L629.243 1481.64 L629.243 1485.58 L609.336 1485.58 L609.336 1481.64 Z" fill="#000000" fill-rule="nonzero" fill-opacity="1" /><path clip-path="url(#clip430)" d="M648.687 1454.1 Q645.076 1454.1 643.247 1457.66 Q641.442 1461.2 641.442 1468.33 Q641.442 1475.44 643.247 1479.01 Q645.076 1482.55 648.687 1482.55 Q652.321 1482.55 654.127 1479.01 Q655.956 1475.44 655.956 1468.33 Q655.956 1461.2 654.127 1457.66 Q652.321 1454.1 648.687 1454.1 M648.687 1450.39 Q654.497 1450.39 657.553 1455 Q660.632 1459.58 660.632 1468.33 Q660.632 1477.06 657.553 1481.67 Q654.497 1486.25 648.687 1486.25 Q642.877 1486.25 639.798 1481.67 Q636.743 1477.06 636.743 1468.33 Q636.743 1459.58 639.798 1455 Q642.877 1450.39 648.687 1450.39 Z" fill="#000000" fill-rule="nonzero" fill-opacity="1" /><path clip-path="url(#clip430)" d="M1042.95 1481.64 L1059.27 1481.64 L1059.27 1485.58 L1037.32 1485.58 L1037.32 1481.64 Q1039.99 1478.89 1044.57 1474.26 Q1049.18 1469.61 1050.36 1468.27 Q1052.6 1465.74 1053.48 1464.01 Q1054.38 1462.25 1054.38 1460.56 Q1054.38 1457.8 1052.44 1456.07 Q1050.52 1454.33 1047.42 1454.33 Q1045.22 1454.33 1042.76 1455.09 Q1040.33 1455.86 1037.55 1457.41 L1037.55 1452.69 Q1040.38 1451.55 1042.83 1450.97 Q1045.29 1450.39 1047.32 1450.39 Q1052.69 1450.39 1055.89 1453.08 Q1059.08 1455.77 1059.08 1460.26 Q1059.08 1462.39 1058.27 1464.31 Q1057.49 1466.2 1055.38 1468.8 Q1054.8 1469.47 1051.7 1472.69 Q1048.6 1475.88 1042.95 1481.64 Z" fill="#000000" fill-rule="nonzero" fill-opacity="1" /><path clip-path="url(#clip430)" d="M1079.08 1454.1 Q1075.47 1454.1 1073.64 1457.66 Q1071.84 1461.2 1071.84 1468.33 Q1071.84 1475.44 1073.64 1479.01 Q1075.47 1482.55 1079.08 1482.55 Q1082.72 1482.55 1084.52 1479.01 Q1086.35 1475.44 1086.35 1468.33 Q1086.35 1461.2 1084.52 1457.66 Q1082.72 1454.1 1079.08 1454.1 M1079.08 1450.39 Q1084.89 1450.39 1087.95 1455 Q1091.03 1459.58 1091.03 1468.33 Q1091.03 1477.06 1087.95 1481.67 Q1084.89 1486.25 1079.08 1486.25 Q1073.27 1486.25 1070.19 1481.67 Q1067.14 1477.06 1067.14 1468.33 Q1067.14 1459.58 1070.19 1455 Q1073.27 1450.39 1079.08 1450.39 Z" fill="#000000" fill-rule="nonzero" fill-opacity="1" /><path clip-path="url(#clip430)" d="M1482.54 1466.95 Q1485.9 1467.66 1487.78 1469.93 Q1489.67 1472.2 1489.67 1475.53 Q1489.67 1480.65 1486.16 1483.45 Q1482.64 1486.25 1476.16 1486.25 Q1473.98 1486.25 1471.67 1485.81 Q1469.37 1485.39 1466.92 1484.54 L1466.92 1480.02 Q1468.86 1481.16 1471.18 1481.74 Q1473.49 1482.32 1476.02 1482.32 Q1480.41 1482.32 1482.71 1480.58 Q1485.02 1478.84 1485.02 1475.53 Q1485.02 1472.48 1482.87 1470.77 Q1480.74 1469.03 1476.92 1469.03 L1472.89 1469.03 L1472.89 1465.19 L1477.1 1465.19 Q1480.55 1465.19 1482.38 1463.82 Q1484.21 1462.43 1484.21 1459.84 Q1484.21 1457.18 1482.31 1455.77 Q1480.44 1454.33 1476.92 1454.33 Q1475 1454.33 1472.8 1454.75 Q1470.6 1455.16 1467.96 1456.04 L1467.96 1451.88 Q1470.62 1451.14 1472.94 1450.77 Q1475.28 1450.39 1477.34 1450.39 Q1482.66 1450.39 1485.76 1452.83 Q1488.86 1455.23 1488.86 1459.35 Q1488.86 1462.22 1487.22 1464.21 Q1485.58 1466.18 1482.54 1466.95 Z" fill="#000000" fill-rule="nonzero" fill-opacity="1" /><path clip-path="url(#clip430)" d="M1508.54 1454.1 Q1504.93 1454.1 1503.1 1457.66 Q1501.29 1461.2 1501.29 1468.33 Q1501.29 1475.44 1503.1 1479.01 Q1504.93 1482.55 1508.54 1482.55 Q1512.17 1482.55 1513.98 1479.01 Q1515.81 1475.44 1515.81 1468.33 Q1515.81 1461.2 1513.98 1457.66 Q1512.17 1454.1 1508.54 1454.1 M1508.54 1450.39 Q1514.35 1450.39 1517.41 1455 Q1520.48 1459.58 1520.48 1468.33 Q1520.48 1477.06 1517.41 1481.67 Q1514.35 1486.25 1508.54 1486.25 Q1502.73 1486.25 1499.65 1481.67 Q1496.6 1477.06 1496.6 1468.33 Q1496.6 1459.58 1499.65 1455 Q1502.73 1450.39 1508.54 1450.39 Z" fill="#000000" fill-rule="nonzero" fill-opacity="1" /><path clip-path="url(#clip430)" d="M1911.4 1455.09 L1899.59 1473.54 L1911.4 1473.54 L1911.4 1455.09 M1910.17 1451.02 L1916.05 1451.02 L1916.05 1473.54 L1920.98 1473.54 L1920.98 1477.43 L1916.05 1477.43 L1916.05 1485.58 L1911.4 1485.58 L1911.4 1477.43 L1895.8 1477.43 L1895.8 1472.92 L1910.17 1451.02 Z" fill="#000000" fill-rule="nonzero" fill-opacity="1" /><path clip-path="url(#clip430)" d="M1938.71 1454.1 Q1935.1 1454.1 1933.28 1457.66 Q1931.47 1461.2 1931.47 1468.33 Q1931.47 1475.44 1933.28 1479.01 Q1935.1 1482.55 1938.71 1482.55 Q1942.35 1482.55 1944.15 1479.01 Q1945.98 1475.44 1945.98 1468.33 Q1945.98 1461.2 1944.15 1457.66 Q1942.35 1454.1 1938.71 1454.1 M1938.71 1450.39 Q1944.53 1450.39 1947.58 1455 Q1950.66 1459.58 1950.66 1468.33 Q1950.66 1477.06 1947.58 1481.67 Q1944.53 1486.25 1938.71 1486.25 Q1932.9 1486.25 1929.83 1481.67 Q1926.77 1477.06 1926.77 1468.33 Q1926.77 1459.58 1929.83 1455 Q1932.9 1450.39 1938.71 1450.39 Z" fill="#000000" fill-rule="nonzero" fill-opacity="1" /><path clip-path="url(#clip430)" d="M2327.46 1451.02 L2345.81 1451.02 L2345.81 1454.96 L2331.74 1454.96 L2331.74 1463.43 Q2332.76 1463.08 2333.77 1462.92 Q2334.79 1462.73 2335.81 1462.73 Q2341.6 1462.73 2344.98 1465.9 Q2348.36 1469.08 2348.36 1474.49 Q2348.36 1480.07 2344.89 1483.17 Q2341.41 1486.25 2335.09 1486.25 Q2332.92 1486.25 2330.65 1485.88 Q2328.4 1485.51 2326 1484.77 L2326 1480.07 Q2328.08 1481.2 2330.3 1481.76 Q2332.52 1482.32 2335 1482.32 Q2339.01 1482.32 2341.34 1480.21 Q2343.68 1478.1 2343.68 1474.49 Q2343.68 1470.88 2341.34 1468.77 Q2339.01 1466.67 2335 1466.67 Q2333.13 1466.67 2331.25 1467.08 Q2329.4 1467.5 2327.46 1468.38 L2327.46 1451.02 Z" fill="#000000" fill-rule="nonzero" fill-opacity="1" /><path clip-path="url(#clip430)" d="M2367.57 1454.1 Q2363.96 1454.1 2362.13 1457.66 Q2360.33 1461.2 2360.33 1468.33 Q2360.33 1475.44 2362.13 1479.01 Q2363.96 1482.55 2367.57 1482.55 Q2371.2 1482.55 2373.01 1479.01 Q2374.84 1475.44 2374.84 1468.33 Q2374.84 1461.2 2373.01 1457.66 Q2371.2 1454.1 2367.57 1454.1 M2367.57 1450.39 Q2373.38 1450.39 2376.44 1455 Q2379.52 1459.58 2379.52 1468.33 Q2379.52 1477.06 2376.44 1481.67 Q2373.38 1486.25 2367.57 1486.25 Q2361.76 1486.25 2358.68 1481.67 Q2355.63 1477.06 2355.63 1468.33 Q2355.63 1459.58 2358.68 1455 Q2361.76 1450.39 2367.57 1450.39 Z" fill="#000000" fill-rule="nonzero" fill-opacity="1" /><path clip-path="url(#clip430)" d="M1123.84 1568.04 L1105.7 1520.52 L1112.41 1520.52 L1127.47 1560.53 L1142.55 1520.52 L1149.24 1520.52 L1131.13 1568.04 L1123.84 1568.04 Z" fill="#000000" fill-rule="nonzero" fill-opacity="1" /><path clip-path="url(#clip430)" d="M1164.67 1536.5 Q1159.96 1536.5 1157.23 1540.19 Q1154.49 1543.85 1154.49 1550.25 Q1154.49 1556.65 1157.19 1560.34 Q1159.93 1564 1164.67 1564 Q1169.35 1564 1172.09 1560.31 Q1174.83 1556.62 1174.83 1550.25 Q1174.83 1543.92 1172.09 1540.23 Q1169.35 1536.5 1164.67 1536.5 M1164.67 1531.54 Q1172.31 1531.54 1176.67 1536.5 Q1181.03 1541.47 1181.03 1550.25 Q1181.03 1559 1176.67 1564 Q1172.31 1568.97 1164.67 1568.97 Q1157 1568.97 1152.64 1564 Q1148.31 1559 1148.31 1550.25 Q1148.31 1541.47 1152.64 1536.5 Q1157 1531.54 1164.67 1531.54 Z" fill="#000000" fill-rule="nonzero" fill-opacity="1" /><path clip-path="url(#clip430)" d="M1190.74 1518.52 L1196.6 1518.52 L1196.6 1568.04 L1190.74 1568.04 L1190.74 1518.52 Z" fill="#000000" fill-rule="nonzero" fill-opacity="1" /><path clip-path="url(#clip430)" d="M1208.25 1553.98 L1208.25 1532.4 L1214.1 1532.4 L1214.1 1553.75 Q1214.1 1558.81 1216.08 1561.36 Q1218.05 1563.87 1222 1563.87 Q1226.74 1563.87 1229.48 1560.85 Q1232.25 1557.83 1232.25 1552.61 L1232.25 1532.4 L1238.1 1532.4 L1238.1 1568.04 L1232.25 1568.04 L1232.25 1562.57 Q1230.11 1565.82 1227.28 1567.41 Q1224.48 1568.97 1220.76 1568.97 Q1214.61 1568.97 1211.43 1565.15 Q1208.25 1561.33 1208.25 1553.98 M1222.98 1531.54 L1222.98 1531.54 Z" fill="#000000" fill-rule="nonzero" fill-opacity="1" /><path clip-path="url(#clip430)" d="M1277.92 1539.24 Q1280.12 1535.29 1283.17 1533.41 Q1286.23 1531.54 1290.36 1531.54 Q1295.93 1531.54 1298.96 1535.45 Q1301.98 1539.33 1301.98 1546.53 L1301.98 1568.04 L1296.09 1568.04 L1296.09 1546.72 Q1296.09 1541.59 1294.28 1539.11 Q1292.47 1536.63 1288.74 1536.63 Q1284.19 1536.63 1281.55 1539.65 Q1278.91 1542.68 1278.91 1547.9 L1278.91 1568.04 L1273.02 1568.04 L1273.02 1546.72 Q1273.02 1541.56 1271.2 1539.11 Q1269.39 1536.63 1265.6 1536.63 Q1261.11 1536.63 1258.47 1539.68 Q1255.83 1542.71 1255.83 1547.9 L1255.83 1568.04 L1249.94 1568.04 L1249.94 1532.4 L1255.83 1532.4 L1255.83 1537.93 Q1257.84 1534.66 1260.64 1533.1 Q1263.44 1531.54 1267.29 1531.54 Q1271.17 1531.54 1273.88 1533.51 Q1276.61 1535.48 1277.92 1539.24 Z" fill="#000000" fill-rule="nonzero" fill-opacity="1" /><path clip-path="url(#clip430)" d="M1344.16 1548.76 L1344.16 1551.62 L1317.23 1551.62 Q1317.61 1557.67 1320.86 1560.85 Q1324.13 1564 1329.96 1564 Q1333.33 1564 1336.48 1563.17 Q1339.67 1562.35 1342.79 1560.69 L1342.79 1566.23 Q1339.64 1567.57 1336.33 1568.27 Q1333.02 1568.97 1329.61 1568.97 Q1321.08 1568.97 1316.08 1564 Q1311.12 1559.04 1311.12 1550.57 Q1311.12 1541.82 1315.83 1536.69 Q1320.57 1531.54 1328.59 1531.54 Q1335.78 1531.54 1339.95 1536.18 Q1344.16 1540.8 1344.16 1548.76 M1338.3 1547.04 Q1338.23 1542.23 1335.59 1539.37 Q1332.98 1536.5 1328.65 1536.5 Q1323.75 1536.5 1320.79 1539.27 Q1317.86 1542.04 1317.42 1547.07 L1338.3 1547.04 Z" fill="#000000" fill-rule="nonzero" fill-opacity="1" /><path clip-path="url(#clip430)" d="M1388.56 1518.58 Q1384.29 1525.9 1382.22 1533.06 Q1380.15 1540.23 1380.15 1547.58 Q1380.15 1554.93 1382.22 1562.16 Q1384.32 1569.35 1388.56 1576.64 L1383.46 1576.64 Q1378.69 1569.16 1376.3 1561.93 Q1373.95 1554.71 1373.95 1547.58 Q1373.95 1540.48 1376.3 1533.29 Q1378.66 1526.09 1383.46 1518.58 L1388.56 1518.58 Z" fill="#000000" fill-rule="nonzero" fill-opacity="1" /><path clip-path="url(#clip430)" d="M1395.72 1532.4 L1401.92 1532.4 L1413.06 1562.31 L1424.2 1532.4 L1430.41 1532.4 L1417.04 1568.04 L1409.09 1568.04 L1395.72 1532.4 Z" fill="#000000" fill-rule="nonzero" fill-opacity="1" /><path clip-path="url(#clip430)" d="M1437.57 1518.58 L1442.66 1518.58 Q1447.44 1526.09 1449.79 1533.29 Q1452.18 1540.48 1452.18 1547.58 Q1452.18 1554.71 1449.79 1561.93 Q1447.44 1569.16 1442.66 1576.64 L1437.57 1576.64 Q1441.81 1569.35 1443.87 1562.16 Q1445.97 1554.93 1445.97 1547.58 Q1445.97 1540.23 1443.87 1533.06 Q1441.81 1525.9 1437.57 1518.58 Z" fill="#000000" fill-rule="nonzero" fill-opacity="1" /><polyline clip-path="url(#clip430)" style="stroke:#000000; stroke-linecap:round; stroke-linejoin:round; stroke-width:4; stroke-opacity:1; fill:none" points="205.121,1423.18 205.121,47.2441 "/>
<polyline clip-path="url(#clip430)" style="stroke:#000000; stroke-linecap:round; stroke-linejoin:round; stroke-width:4; stroke-opacity:1; fill:none" points="205.121,1423.18 224.019,1423.18 "/>
<polyline clip-path="url(#clip430)" style="stroke:#000000; stroke-linecap:round; stroke-linejoin:round; stroke-width:4; stroke-opacity:1; fill:none" points="205.121,1147.99 224.019,1147.99 "/>
<polyline clip-path="url(#clip430)" style="stroke:#000000; stroke-linecap:round; stroke-linejoin:round; stroke-width:4; stroke-opacity:1; fill:none" points="205.121,872.806 224.019,872.806 "/>
<polyline clip-path="url(#clip430)" style="stroke:#000000; stroke-linecap:round; stroke-linejoin:round; stroke-width:4; stroke-opacity:1; fill:none" points="205.121,597.618 224.019,597.618 "/>
<polyline clip-path="url(#clip430)" style="stroke:#000000; stroke-linecap:round; stroke-linejoin:round; stroke-width:4; stroke-opacity:1; fill:none" points="205.121,322.431 224.019,322.431 "/>
<polyline clip-path="url(#clip430)" style="stroke:#000000; stroke-linecap:round; stroke-linejoin:round; stroke-width:4; stroke-opacity:1; fill:none" points="205.121,47.2441 224.019,47.2441 "/>
<path clip-path="url(#clip430)" d="M157.177 1408.98 Q153.566 1408.98 151.737 1412.54 Q149.931 1416.08 149.931 1423.21 Q149.931 1430.32 151.737 1433.89 Q153.566 1437.43 157.177 1437.43 Q160.811 1437.43 162.616 1433.89 Q164.445 1430.32 164.445 1423.21 Q164.445 1416.08 162.616 1412.54 Q160.811 1408.98 157.177 1408.98 M157.177 1405.27 Q162.987 1405.27 166.042 1409.88 Q169.121 1414.46 169.121 1423.21 Q169.121 1431.94 166.042 1436.55 Q162.987 1441.13 157.177 1441.13 Q151.366 1441.13 148.288 1436.55 Q145.232 1431.94 145.232 1423.21 Q145.232 1414.46 148.288 1409.88 Q151.366 1405.27 157.177 1405.27 Z" fill="#000000" fill-rule="nonzero" fill-opacity="1" /><path clip-path="url(#clip430)" d="M117.825 1161.34 L125.464 1161.34 L125.464 1134.97 L117.154 1136.64 L117.154 1132.38 L125.418 1130.71 L130.093 1130.71 L130.093 1161.34 L137.732 1161.34 L137.732 1165.27 L117.825 1165.27 L117.825 1161.34 Z" fill="#000000" fill-rule="nonzero" fill-opacity="1" /><path clip-path="url(#clip430)" d="M157.177 1133.79 Q153.566 1133.79 151.737 1137.36 Q149.931 1140.9 149.931 1148.03 Q149.931 1155.13 151.737 1158.7 Q153.566 1162.24 157.177 1162.24 Q160.811 1162.24 162.616 1158.7 Q164.445 1155.13 164.445 1148.03 Q164.445 1140.9 162.616 1137.36 Q160.811 1133.79 157.177 1133.79 M157.177 1130.09 Q162.987 1130.09 166.042 1134.69 Q169.121 1139.28 169.121 1148.03 Q169.121 1156.75 166.042 1161.36 Q162.987 1165.94 157.177 1165.94 Q151.366 1165.94 148.288 1161.36 Q145.232 1156.75 145.232 1148.03 Q145.232 1139.28 148.288 1134.69 Q151.366 1130.09 157.177 1130.09 Z" fill="#000000" fill-rule="nonzero" fill-opacity="1" /><path clip-path="url(#clip430)" d="M121.043 886.15 L137.362 886.15 L137.362 890.086 L115.418 890.086 L115.418 886.15 Q118.08 883.396 122.663 878.766 Q127.269 874.113 128.45 872.771 Q130.695 870.248 131.575 868.512 Q132.478 866.752 132.478 865.063 Q132.478 862.308 130.533 860.572 Q128.612 858.836 125.51 858.836 Q123.311 858.836 120.857 859.6 Q118.427 860.363 115.649 861.914 L115.649 857.192 Q118.473 856.058 120.927 855.479 Q123.38 854.901 125.418 854.901 Q130.788 854.901 133.982 857.586 Q137.177 860.271 137.177 864.762 Q137.177 866.891 136.367 868.813 Q135.579 870.711 133.473 873.303 Q132.894 873.975 129.792 877.192 Q126.691 880.387 121.043 886.15 Z" fill="#000000" fill-rule="nonzero" fill-opacity="1" /><path clip-path="url(#clip430)" d="M157.177 858.604 Q153.566 858.604 151.737 862.169 Q149.931 865.711 149.931 872.84 Q149.931 879.947 151.737 883.512 Q153.566 887.053 157.177 887.053 Q160.811 887.053 162.616 883.512 Q164.445 879.947 164.445 872.84 Q164.445 865.711 162.616 862.169 Q160.811 858.604 157.177 858.604 M157.177 854.901 Q162.987 854.901 166.042 859.507 Q169.121 864.09 169.121 872.84 Q169.121 881.567 166.042 886.174 Q162.987 890.757 157.177 890.757 Q151.366 890.757 148.288 886.174 Q145.232 881.567 145.232 872.84 Q145.232 864.09 148.288 859.507 Q151.366 854.901 157.177 854.901 Z" fill="#000000" fill-rule="nonzero" fill-opacity="1" /><path clip-path="url(#clip430)" d="M131.181 596.264 Q134.538 596.982 136.413 599.25 Q138.311 601.519 138.311 604.852 Q138.311 609.968 134.792 612.769 Q131.274 615.57 124.793 615.57 Q122.617 615.57 120.302 615.13 Q118.01 614.713 115.556 613.857 L115.556 609.343 Q117.501 610.477 119.816 611.056 Q122.13 611.635 124.654 611.635 Q129.052 611.635 131.343 609.898 Q133.658 608.162 133.658 604.852 Q133.658 601.797 131.505 600.084 Q129.376 598.348 125.556 598.348 L121.529 598.348 L121.529 594.505 L125.742 594.505 Q129.191 594.505 131.019 593.139 Q132.848 591.75 132.848 589.158 Q132.848 586.496 130.95 585.084 Q129.075 583.649 125.556 583.649 Q123.635 583.649 121.436 584.065 Q119.237 584.482 116.598 585.362 L116.598 581.195 Q119.26 580.454 121.575 580.084 Q123.913 579.713 125.973 579.713 Q131.297 579.713 134.399 582.144 Q137.501 584.551 137.501 588.672 Q137.501 591.542 135.857 593.533 Q134.214 595.5 131.181 596.264 Z" fill="#000000" fill-rule="nonzero" fill-opacity="1" /><path clip-path="url(#clip430)" d="M157.177 583.417 Q153.566 583.417 151.737 586.982 Q149.931 590.524 149.931 597.653 Q149.931 604.76 151.737 608.324 Q153.566 611.866 157.177 611.866 Q160.811 611.866 162.616 608.324 Q164.445 604.76 164.445 597.653 Q164.445 590.524 162.616 586.982 Q160.811 583.417 157.177 583.417 M157.177 579.713 Q162.987 579.713 166.042 584.32 Q169.121 588.903 169.121 597.653 Q169.121 606.38 166.042 610.986 Q162.987 615.57 157.177 615.57 Q151.366 615.57 148.288 610.986 Q145.232 606.38 145.232 597.653 Q145.232 588.903 148.288 584.32 Q151.366 579.713 157.177 579.713 Z" fill="#000000" fill-rule="nonzero" fill-opacity="1" /><path clip-path="url(#clip430)" d="M129.862 309.225 L118.056 327.674 L129.862 327.674 L129.862 309.225 M128.635 305.151 L134.515 305.151 L134.515 327.674 L139.445 327.674 L139.445 331.563 L134.515 331.563 L134.515 339.711 L129.862 339.711 L129.862 331.563 L114.26 331.563 L114.26 327.049 L128.635 305.151 Z" fill="#000000" fill-rule="nonzero" fill-opacity="1" /><path clip-path="url(#clip430)" d="M157.177 308.23 Q153.566 308.23 151.737 311.795 Q149.931 315.336 149.931 322.466 Q149.931 329.572 151.737 333.137 Q153.566 336.679 157.177 336.679 Q160.811 336.679 162.616 333.137 Q164.445 329.572 164.445 322.466 Q164.445 315.336 162.616 311.795 Q160.811 308.23 157.177 308.23 M157.177 304.526 Q162.987 304.526 166.042 309.133 Q169.121 313.716 169.121 322.466 Q169.121 331.193 166.042 335.799 Q162.987 340.383 157.177 340.383 Q151.366 340.383 148.288 335.799 Q145.232 331.193 145.232 322.466 Q145.232 313.716 148.288 309.133 Q151.366 304.526 157.177 304.526 Z" fill="#000000" fill-rule="nonzero" fill-opacity="1" /><path clip-path="url(#clip430)" d="M117.061 29.9641 L135.417 29.9641 L135.417 33.8993 L121.343 33.8993 L121.343 42.3714 Q122.362 42.0242 123.38 41.8622 Q124.399 41.677 125.418 41.677 Q131.205 41.677 134.584 44.8483 Q137.964 48.0196 137.964 53.4362 Q137.964 59.0149 134.492 62.1167 Q131.019 65.1954 124.7 65.1954 Q122.524 65.1954 120.255 64.825 Q118.01 64.4547 115.603 63.7139 L115.603 59.0149 Q117.686 60.1491 119.908 60.7047 Q122.13 61.2602 124.607 61.2602 Q128.612 61.2602 130.95 59.1538 Q133.288 57.0473 133.288 53.4362 Q133.288 49.8251 130.95 47.7186 Q128.612 45.6122 124.607 45.6122 Q122.732 45.6122 120.857 46.0288 Q119.006 46.4455 117.061 47.3251 L117.061 29.9641 Z" fill="#000000" fill-rule="nonzero" fill-opacity="1" /><path clip-path="url(#clip430)" d="M157.177 33.0428 Q153.566 33.0428 151.737 36.6076 Q149.931 40.1492 149.931 47.2788 Q149.931 54.3853 151.737 57.9501 Q153.566 61.4917 157.177 61.4917 Q160.811 61.4917 162.616 57.9501 Q164.445 54.3853 164.445 47.2788 Q164.445 40.1492 162.616 36.6076 Q160.811 33.0428 157.177 33.0428 M157.177 29.3391 Q162.987 29.3391 166.042 33.9456 Q169.121 38.5289 169.121 47.2788 Q169.121 56.0056 166.042 60.6121 Q162.987 65.1954 157.177 65.1954 Q151.366 65.1954 148.288 60.6121 Q145.232 56.0056 145.232 47.2788 Q145.232 38.5289 148.288 33.9456 Q151.366 29.3391 157.177 29.3391 Z" fill="#000000" fill-rule="nonzero" fill-opacity="1" /><path clip-path="url(#clip430)" d="M16.4842 878.806 L16.4842 869.226 L48.8219 857.099 L16.4842 844.909 L16.4842 835.329 L64.0042 835.329 L64.0042 841.599 L22.277 841.599 L54.8694 853.853 L54.8694 860.314 L22.277 872.568 L64.0042 872.568 L64.0042 878.806 L16.4842 878.806 Z" fill="#000000" fill-rule="nonzero" fill-opacity="1" /><path clip-path="url(#clip430)" d="M46.0847 806.619 Q46.0847 813.717 47.7079 816.454 Q49.3312 819.192 53.2461 819.192 Q56.3653 819.192 58.2114 817.155 Q60.0256 815.086 60.0256 811.553 Q60.0256 806.683 56.5881 803.755 Q53.1188 800.795 47.3897 800.795 L46.0847 800.795 L46.0847 806.619 M43.6657 794.938 L64.0042 794.938 L64.0042 800.795 L58.5933 800.795 Q61.8398 802.8 63.3994 805.792 Q64.9272 808.784 64.9272 813.112 Q64.9272 818.587 61.8716 821.833 Q58.7843 825.048 53.6281 825.048 Q47.6125 825.048 44.5569 821.038 Q41.5014 816.995 41.5014 809.006 L41.5014 800.795 L40.9285 800.795 Q36.8862 800.795 34.6901 803.468 Q32.4621 806.11 32.4621 810.916 Q32.4621 813.972 33.1941 816.868 Q33.9262 819.764 35.3903 822.438 L29.9795 822.438 Q28.7381 819.223 28.1334 816.2 Q27.4968 813.176 27.4968 810.311 Q27.4968 802.577 31.5072 798.758 Q35.5176 794.938 43.6657 794.938 Z" fill="#000000" fill-rule="nonzero" fill-opacity="1" /><path clip-path="url(#clip430)" d="M29.4065 760.15 L34.9447 760.15 Q33.6716 762.632 33.035 765.306 Q32.3984 767.979 32.3984 770.844 Q32.3984 775.205 33.7352 777.401 Q35.072 779.565 37.7456 779.565 Q39.7826 779.565 40.9603 778.005 Q42.1061 776.446 43.1565 771.735 L43.6021 769.73 Q44.9389 763.492 47.3897 760.882 Q49.8086 758.24 54.1691 758.24 Q59.1344 758.24 62.0308 762.187 Q64.9272 766.102 64.9272 772.977 Q64.9272 775.841 64.3543 778.96 Q63.8132 782.048 62.6992 785.485 L56.6518 785.485 Q58.3387 782.239 59.198 779.088 Q60.0256 775.937 60.0256 772.849 Q60.0256 768.711 58.6251 766.484 Q57.1929 764.256 54.6147 764.256 Q52.2276 764.256 50.9545 765.879 Q49.6813 767.47 48.5037 772.913 L48.0262 774.95 Q46.8804 780.393 44.5251 782.812 Q42.138 785.231 38.0002 785.231 Q32.9713 785.231 30.2341 781.666 Q27.4968 778.101 27.4968 771.544 Q27.4968 768.298 27.9743 765.433 Q28.4517 762.569 29.4065 760.15 Z" fill="#000000" fill-rule="nonzero" fill-opacity="1" /><path clip-path="url(#clip430)" d="M29.4065 726.189 L34.9447 726.189 Q33.6716 728.671 33.035 731.345 Q32.3984 734.018 32.3984 736.883 Q32.3984 741.243 33.7352 743.44 Q35.072 745.604 37.7456 745.604 Q39.7826 745.604 40.9603 744.044 Q42.1061 742.485 43.1565 737.774 L43.6021 735.769 Q44.9389 729.531 47.3897 726.921 Q49.8086 724.279 54.1691 724.279 Q59.1344 724.279 62.0308 728.226 Q64.9272 732.141 64.9272 739.015 Q64.9272 741.88 64.3543 744.999 Q63.8132 748.087 62.6992 751.524 L56.6518 751.524 Q58.3387 748.278 59.198 745.127 Q60.0256 741.976 60.0256 738.888 Q60.0256 734.75 58.6251 732.522 Q57.1929 730.294 54.6147 730.294 Q52.2276 730.294 50.9545 731.918 Q49.6813 733.509 48.5037 738.952 L48.0262 740.989 Q46.8804 746.432 44.5251 748.85 Q42.138 751.269 38.0002 751.269 Q32.9713 751.269 30.2341 747.705 Q27.4968 744.14 27.4968 737.583 Q27.4968 734.337 27.9743 731.472 Q28.4517 728.608 29.4065 726.189 Z" fill="#000000" fill-rule="nonzero" fill-opacity="1" /><path clip-path="url(#clip430)" d="M14.5426 680.165 Q21.8632 684.43 29.0246 686.498 Q36.186 688.567 43.5384 688.567 Q50.8908 688.567 58.1159 686.498 Q65.3091 684.398 72.5979 680.165 L72.5979 685.257 Q65.1182 690.031 57.8931 692.419 Q50.668 694.774 43.5384 694.774 Q36.4406 694.774 29.2474 692.419 Q22.0542 690.063 14.5426 685.257 L14.5426 680.165 Z" fill="#000000" fill-rule="nonzero" fill-opacity="1" /><path clip-path="url(#clip430)" d="M35.1993 641.047 Q31.2526 638.851 29.3747 635.796 Q27.4968 632.74 27.4968 628.602 Q27.4968 623.032 31.4117 620.009 Q35.2948 616.985 42.4881 616.985 L64.0042 616.985 L64.0042 622.873 L42.679 622.873 Q37.5546 622.873 35.072 624.687 Q32.5894 626.502 32.5894 630.226 Q32.5894 634.777 35.6131 637.419 Q38.6368 640.061 43.8567 640.061 L64.0042 640.061 L64.0042 645.949 L42.679 645.949 Q37.5228 645.949 35.072 647.763 Q32.5894 649.577 32.5894 653.365 Q32.5894 657.853 35.6449 660.494 Q38.6686 663.136 43.8567 663.136 L64.0042 663.136 L64.0042 669.025 L28.3562 669.025 L28.3562 663.136 L33.8944 663.136 Q30.616 661.131 29.0564 658.33 Q27.4968 655.529 27.4968 651.678 Q27.4968 647.795 29.4702 645.089 Q31.4436 642.352 35.1993 641.047 Z" fill="#000000" fill-rule="nonzero" fill-opacity="1" /><path clip-path="url(#clip430)" d="M14.5426 606.227 L14.5426 601.134 Q22.0542 596.36 29.2474 594.005 Q36.4406 591.618 43.5384 591.618 Q50.668 591.618 57.8931 594.005 Q65.1182 596.36 72.5979 601.134 L72.5979 606.227 Q65.3091 601.994 58.1159 599.925 Q50.8908 597.824 43.5384 597.824 Q36.186 597.824 29.0246 599.925 Q21.8632 601.994 14.5426 606.227 Z" fill="#000000" fill-rule="nonzero" fill-opacity="1" /><path clip-path="url(#clip432)" d="M205.121 858.421 L1127.63 858.421 L1127.63 858.421 L1127.63 858.405 L1127.68 858.246 L1128.16 856.655 L1133 840.491 L1153.84 765.351 L1194.21 591.092 L1249.42 275.788 L1280.62 47.2441 L1280.62 47.2441 L205.121 47.2441 L205.121 858.421  Z" fill="#0000ff" fill-rule="evenodd" fill-opacity="0.35"/>
<polyline clip-path="url(#clip432)" style="stroke:#000000; stroke-linecap:round; stroke-linejoin:round; stroke-width:4; stroke-opacity:0; fill:none" points="205.121,858.421 1127.63,858.421 1127.63,858.405 1127.68,858.246 1128.16,856.655 1133,840.491 1153.84,765.351 1194.21,591.092 1249.42,275.788 1280.62,47.2441 205.121,47.2441 205.121,858.421 "/>
<path clip-path="url(#clip432)" d="M205.121 858.421 L1127.63 858.421 L1127.63 858.421 L1127.62 858.427 L1127.52 858.489 L1126.56 859.109 L1116.89 865.302 L1020.22 927.233 L246.123 1423.18 L246.123 1423.18 L205.121 1423.18 L205.121 858.421  Z" fill="#a52a2a" fill-rule="evenodd" fill-opacity="0.35"/>
<polyline clip-path="url(#clip432)" style="stroke:#000000; stroke-linecap:round; stroke-linejoin:round; stroke-width:4; stroke-opacity:0; fill:none" points="205.121,858.421 1127.63,858.421 1127.62,858.427 1127.52,858.489 1126.56,859.109 1116.89,865.302 1020.22,927.233 246.123,1423.18 205.121,1423.18 205.121,858.421 "/>
<polyline clip-path="url(#clip432)" style="stroke:#808080; stroke-linecap:round; stroke-linejoin:round; stroke-width:4; stroke-opacity:1; fill:none" points="1127.63,858.421 1127.63,858.405 1127.68,858.246 1128.16,856.655 1133,840.491 1153.84,765.351 1194.21,591.092 1249.42,275.788 1280.62,47.2441 "/>
<polyline clip-path="url(#clip432)" style="stroke:#808080; stroke-linecap:round; stroke-linejoin:round; stroke-width:4; stroke-opacity:1; fill:none" points="1127.63,858.421 1127.62,858.427 1127.52,858.489 1126.56,859.109 1116.89,865.302 1020.22,927.233 246.123,1423.18 "/>
<path clip-path="url(#clip432)" d="M1280.62 47.2441 L1280.62 47.2441 L1249.42 275.788 L1194.21 591.092 L1153.84 765.351 L1133 840.491 L1128.16 856.655 L1127.68 858.246 L1127.63 858.405 L1127.63 858.421 L1127.63 858.421 L1135.47 853.339 L1199.05 807.541 L1298.87 713.818 L1396.16 581.667 L1484.95 397.347 L1562.14 140.482 L1582.41 47.2441 L205.121 47.2441 L1280.62 47.2441  Z" fill="#9acd32" fill-rule="evenodd" fill-opacity="0.35"/>
<polyline clip-path="url(#clip432)" style="stroke:#000000; stroke-linecap:round; stroke-linejoin:round; stroke-width:4; stroke-opacity:0; fill:none" points="1280.62,47.2441 1280.62,47.2441 1249.42,275.788 1194.21,591.092 1153.84,765.351 1133,840.491 1128.16,856.655 1127.68,858.246 1127.63,858.405 1127.63,858.421 1135.47,853.339 1199.05,807.541 1298.87,713.818 1396.16,581.667 1484.95,397.347 1562.14,140.482 1582.41,47.2441 205.121,47.2441 1280.62,47.2441 "/>
<path clip-path="url(#clip432)" d="M246.123 1423.18 L246.123 1423.18 L1020.22 927.233 L1116.89 865.302 L1126.56 859.109 L1127.52 858.489 L1127.62 858.427 L1127.63 858.421 L1127.63 858.421 L1135.47 853.339 L1199.05 807.541 L1298.87 713.818 L1396.16 581.667 L1484.95 397.347 L1562.14 140.482 L1582.41 47.2441 L2352.76 47.2441 L2352.76 1423.18 L205.121 1423.18 L246.123 1423.18  Z" fill="#ff0000" fill-rule="evenodd" fill-opacity="0.35"/>
<polyline clip-path="url(#clip432)" style="stroke:#000000; stroke-linecap:round; stroke-linejoin:round; stroke-width:4; stroke-opacity:0; fill:none" points="246.123,1423.18 246.123,1423.18 1020.22,927.233 1116.89,865.302 1126.56,859.109 1127.52,858.489 1127.62,858.427 1127.63,858.421 1135.47,853.339 1199.05,807.541 1298.87,713.818 1396.16,581.667 1484.95,397.347 1562.14,140.482 1582.41,47.2441 2352.76,47.2441 2352.76,1423.18 205.121,1423.18 246.123,1423.18 "/>
<polyline clip-path="url(#clip432)" style="stroke:#008000; stroke-linecap:round; stroke-linejoin:round; stroke-width:12; stroke-opacity:1; fill:none" points="205.121,858.421 1127.63,858.421 "/>
<polyline clip-path="url(#clip432)" style="stroke:#ffd700; stroke-linecap:round; stroke-linejoin:round; stroke-width:12; stroke-opacity:1; fill:none" points="1127.63,858.421 1135.47,853.339 1199.05,807.541 1298.87,713.818 1396.16,581.667 1484.95,397.347 1562.14,140.482 1582.41,47.2441 "/>
<path clip-path="url(#clip430)" d="M1708.58 455.989 L2281.17 455.989 L2281.17 93.1086 L1708.58 93.1086  Z" fill="#ffffff" fill-rule="evenodd" fill-opacity="1"/>
<polyline clip-path="url(#clip430)" style="stroke:#000000; stroke-linecap:round; stroke-linejoin:round; stroke-width:4; stroke-opacity:1; fill:none" points="1708.58,455.989 2281.17,455.989 2281.17,93.1086 1708.58,93.1086 1708.58,455.989 "/>
<path clip-path="url(#clip430)" d="M1732.45 165.685 L1875.62 165.685 L1875.62 124.213 L1732.45 124.213 L1732.45 165.685  Z" fill="#0000ff" fill-rule="evenodd" fill-opacity="0.35"/>
<polyline clip-path="url(#clip430)" style="stroke:#000000; stroke-linecap:round; stroke-linejoin:round; stroke-width:4; stroke-opacity:0; fill:none" points="1732.45,165.685 1875.62,165.685 1875.62,124.213 1732.45,124.213 1732.45,165.685 "/>
<path clip-path="url(#clip430)" d="M1899.48 151.997 L1899.48 136.303 L1903.74 136.303 L1903.74 151.835 Q1903.74 155.516 1905.18 157.368 Q1906.61 159.196 1909.48 159.196 Q1912.93 159.196 1914.92 156.997 Q1916.94 154.798 1916.94 151.002 L1916.94 136.303 L1921.2 136.303 L1921.2 162.229 L1916.94 162.229 L1916.94 158.247 Q1915.39 160.608 1913.33 161.766 Q1911.29 162.9 1908.58 162.9 Q1904.11 162.9 1901.8 160.122 Q1899.48 157.344 1899.48 151.997 M1910.2 135.678 L1910.2 135.678 Z" fill="#000000" fill-rule="nonzero" fill-opacity="1" /><path clip-path="url(#clip430)" d="M1928.67 152.807 L1947.35 152.807 L1947.35 155.006 L1928.67 155.006 L1928.67 152.807 Z" fill="#000000" fill-rule="nonzero" fill-opacity="1" /><path clip-path="url(#clip430)" d="M1980.43 142.946 Q1978.58 142.946 1977.31 144.243 Q1976.03 145.516 1976.03 147.368 Q1976.03 149.196 1977.31 150.469 Q1978.58 151.719 1980.43 151.719 Q1982.28 151.719 1983.56 150.469 Q1984.83 149.196 1984.83 147.368 Q1984.83 145.539 1983.53 144.243 Q1982.26 142.946 1980.43 142.946 M1980.43 139.96 Q1981.91 139.96 1983.28 140.539 Q1984.64 141.094 1985.64 142.159 Q1986.71 143.201 1987.24 144.52 Q1987.77 145.84 1987.77 147.368 Q1987.77 150.423 1985.62 152.553 Q1983.49 154.659 1980.39 154.659 Q1977.26 154.659 1975.18 152.576 Q1973.09 150.493 1973.09 147.368 Q1973.09 144.266 1975.22 142.113 Q1977.35 139.96 1980.43 139.96 Z" fill="#000000" fill-rule="nonzero" fill-opacity="1" /><path clip-path="url(#clip430)" d="M2014.37 151.997 L2014.37 136.303 L2018.63 136.303 L2018.63 151.835 Q2018.63 155.516 2020.06 157.368 Q2021.5 159.196 2024.37 159.196 Q2027.82 159.196 2029.81 156.997 Q2031.82 154.798 2031.82 151.002 L2031.82 136.303 L2036.08 136.303 L2036.08 162.229 L2031.82 162.229 L2031.82 158.247 Q2030.27 160.608 2028.21 161.766 Q2026.17 162.9 2023.46 162.9 Q2019 162.9 2016.68 160.122 Q2014.37 157.344 2014.37 151.997 M2025.08 135.678 L2025.08 135.678 Z" fill="#000000" fill-rule="nonzero" fill-opacity="1" /><path clip-path="url(#clip430)" d="M2054.69 147.761 L2054.69 150.006 Q2053.56 149.497 2052.33 149.243 Q2051.13 148.988 2049.81 148.988 Q2047.79 148.988 2046.8 149.52 Q2045.8 150.076 2045.8 151.164 Q2045.8 151.997 2046.52 152.46 Q2047.24 152.946 2049.39 153.363 L2050.32 153.548 Q2053.21 154.104 2054.37 155.076 Q2055.57 156.071 2055.57 157.854 Q2055.57 159.868 2053.76 161.048 Q2051.98 162.229 2048.83 162.229 Q2047.51 162.229 2046.08 161.997 Q2044.67 161.766 2043.09 161.326 L2043.09 158.849 Q2044.58 159.543 2046.03 159.891 Q2047.47 160.238 2048.88 160.238 Q2050.78 160.238 2051.8 159.659 Q2052.82 159.08 2052.82 158.039 Q2052.82 157.067 2052.08 156.534 Q2051.43 156.071 2048.86 155.539 L2047.93 155.354 Q2045.43 154.868 2044.32 153.918 Q2043.21 152.946 2043.21 151.256 Q2043.21 149.219 2044.85 148.108 Q2046.47 146.974 2049.48 146.974 Q2050.96 146.974 2052.28 147.182 Q2053.6 147.368 2054.69 147.761 Z" fill="#000000" fill-rule="nonzero" fill-opacity="1" /><path clip-path="url(#clip430)" d="M2087.98 142.946 Q2086.13 142.946 2084.85 144.243 Q2083.58 145.516 2083.58 147.368 Q2083.58 149.196 2084.85 150.469 Q2086.13 151.719 2087.98 151.719 Q2089.83 151.719 2091.1 150.469 Q2092.38 149.196 2092.38 147.368 Q2092.38 145.539 2091.08 144.243 Q2089.81 142.946 2087.98 142.946 M2087.98 139.96 Q2089.46 139.96 2090.82 140.539 Q2092.19 141.094 2093.19 142.159 Q2094.25 143.201 2094.78 144.52 Q2095.32 145.84 2095.32 147.368 Q2095.32 150.423 2093.16 152.553 Q2091.03 154.659 2087.93 154.659 Q2084.81 154.659 2082.72 152.576 Q2080.64 150.493 2080.64 147.368 Q2080.64 144.266 2082.77 142.113 Q2084.9 139.96 2087.98 139.96 Z" fill="#000000" fill-rule="nonzero" fill-opacity="1" /><path clip-path="url(#clip430)" d="M2121.91 151.997 L2121.91 136.303 L2126.17 136.303 L2126.17 151.835 Q2126.17 155.516 2127.61 157.368 Q2129.04 159.196 2131.91 159.196 Q2135.36 159.196 2137.35 156.997 Q2139.37 154.798 2139.37 151.002 L2139.37 136.303 L2143.63 136.303 L2143.63 162.229 L2139.37 162.229 L2139.37 158.247 Q2137.82 160.608 2135.76 161.766 Q2133.72 162.9 2131.01 162.9 Q2126.54 162.9 2124.23 160.122 Q2121.91 157.344 2121.91 151.997 M2132.63 135.678 L2132.63 135.678 Z" fill="#000000" fill-rule="nonzero" fill-opacity="1" /><path clip-path="url(#clip430)" d="M2161.66 145.585 L2161.66 152.807 L2169.78 152.807 L2169.78 155.006 L2161.66 155.006 L2161.66 162.229 L2159.23 162.229 L2159.23 155.006 L2151.1 155.006 L2151.1 152.807 L2159.23 152.807 L2159.23 145.585 L2161.66 145.585 Z" fill="#000000" fill-rule="nonzero" fill-opacity="1" /><path clip-path="url(#clip430)" d="M1732.45 217.525 L1875.62 217.525 L1875.62 176.053 L1732.45 176.053 L1732.45 217.525  Z" fill="#a52a2a" fill-rule="evenodd" fill-opacity="0.35"/>
<polyline clip-path="url(#clip430)" style="stroke:#000000; stroke-linecap:round; stroke-linejoin:round; stroke-width:4; stroke-opacity:0; fill:none" points="1732.45,217.525 1875.62,217.525 1875.62,176.053 1732.45,176.053 1732.45,217.525 "/>
<path clip-path="url(#clip430)" d="M1899.48 203.837 L1899.48 188.143 L1903.74 188.143 L1903.74 203.675 Q1903.74 207.356 1905.18 209.208 Q1906.61 211.036 1909.48 211.036 Q1912.93 211.036 1914.92 208.837 Q1916.94 206.638 1916.94 202.842 L1916.94 188.143 L1921.2 188.143 L1921.2 214.069 L1916.94 214.069 L1916.94 210.087 Q1915.39 212.448 1913.33 213.606 Q1911.29 214.74 1908.58 214.74 Q1904.11 214.74 1901.8 211.962 Q1899.48 209.184 1899.48 203.837 M1910.2 187.518 L1910.2 187.518 Z" fill="#000000" fill-rule="nonzero" fill-opacity="1" /><path clip-path="url(#clip430)" d="M1939.23 197.425 L1939.23 204.647 L1947.35 204.647 L1947.35 206.846 L1939.23 206.846 L1939.23 214.069 L1936.8 214.069 L1936.8 206.846 L1928.67 206.846 L1928.67 204.647 L1936.8 204.647 L1936.8 197.425 L1939.23 197.425 Z" fill="#000000" fill-rule="nonzero" fill-opacity="1" /><path clip-path="url(#clip430)" d="M1980.43 194.786 Q1978.58 194.786 1977.31 196.083 Q1976.03 197.356 1976.03 199.208 Q1976.03 201.036 1977.31 202.309 Q1978.58 203.559 1980.43 203.559 Q1982.28 203.559 1983.56 202.309 Q1984.83 201.036 1984.83 199.208 Q1984.83 197.379 1983.53 196.083 Q1982.26 194.786 1980.43 194.786 M1980.43 191.8 Q1981.91 191.8 1983.28 192.379 Q1984.64 192.934 1985.64 193.999 Q1986.71 195.041 1987.24 196.36 Q1987.77 197.68 1987.77 199.208 Q1987.77 202.263 1985.62 204.393 Q1983.49 206.499 1980.39 206.499 Q1977.26 206.499 1975.18 204.416 Q1973.09 202.333 1973.09 199.208 Q1973.09 196.106 1975.22 193.953 Q1977.35 191.8 1980.43 191.8 Z" fill="#000000" fill-rule="nonzero" fill-opacity="1" /><path clip-path="url(#clip430)" d="M2014.37 203.837 L2014.37 188.143 L2018.63 188.143 L2018.63 203.675 Q2018.63 207.356 2020.06 209.208 Q2021.5 211.036 2024.37 211.036 Q2027.82 211.036 2029.81 208.837 Q2031.82 206.638 2031.82 202.842 L2031.82 188.143 L2036.08 188.143 L2036.08 214.069 L2031.82 214.069 L2031.82 210.087 Q2030.27 212.448 2028.21 213.606 Q2026.17 214.74 2023.46 214.74 Q2019 214.74 2016.68 211.962 Q2014.37 209.184 2014.37 203.837 M2025.08 187.518 L2025.08 187.518 Z" fill="#000000" fill-rule="nonzero" fill-opacity="1" /><path clip-path="url(#clip430)" d="M2054.69 199.601 L2054.69 201.846 Q2053.56 201.337 2052.33 201.083 Q2051.13 200.828 2049.81 200.828 Q2047.79 200.828 2046.8 201.36 Q2045.8 201.916 2045.8 203.004 Q2045.8 203.837 2046.52 204.3 Q2047.24 204.786 2049.39 205.203 L2050.32 205.388 Q2053.21 205.944 2054.37 206.916 Q2055.57 207.911 2055.57 209.694 Q2055.57 211.708 2053.76 212.888 Q2051.98 214.069 2048.83 214.069 Q2047.51 214.069 2046.08 213.837 Q2044.67 213.606 2043.09 213.166 L2043.09 210.689 Q2044.58 211.383 2046.03 211.731 Q2047.47 212.078 2048.88 212.078 Q2050.78 212.078 2051.8 211.499 Q2052.82 210.92 2052.82 209.879 Q2052.82 208.907 2052.08 208.374 Q2051.43 207.911 2048.86 207.379 L2047.93 207.194 Q2045.43 206.708 2044.32 205.758 Q2043.21 204.786 2043.21 203.096 Q2043.21 201.059 2044.85 199.948 Q2046.47 198.814 2049.48 198.814 Q2050.96 198.814 2052.28 199.022 Q2053.6 199.208 2054.69 199.601 Z" fill="#000000" fill-rule="nonzero" fill-opacity="1" /><path clip-path="url(#clip430)" d="M2087.98 194.786 Q2086.13 194.786 2084.85 196.083 Q2083.58 197.356 2083.58 199.208 Q2083.58 201.036 2084.85 202.309 Q2086.13 203.559 2087.98 203.559 Q2089.83 203.559 2091.1 202.309 Q2092.38 201.036 2092.38 199.208 Q2092.38 197.379 2091.08 196.083 Q2089.81 194.786 2087.98 194.786 M2087.98 191.8 Q2089.46 191.8 2090.82 192.379 Q2092.19 192.934 2093.19 193.999 Q2094.25 195.041 2094.78 196.36 Q2095.32 197.68 2095.32 199.208 Q2095.32 202.263 2093.16 204.393 Q2091.03 206.499 2087.93 206.499 Q2084.81 206.499 2082.72 204.416 Q2080.64 202.333 2080.64 199.208 Q2080.64 196.106 2082.77 193.953 Q2084.9 191.8 2087.98 191.8 Z" fill="#000000" fill-rule="nonzero" fill-opacity="1" /><path clip-path="url(#clip430)" d="M2121.91 203.837 L2121.91 188.143 L2126.17 188.143 L2126.17 203.675 Q2126.17 207.356 2127.61 209.208 Q2129.04 211.036 2131.91 211.036 Q2135.36 211.036 2137.35 208.837 Q2139.37 206.638 2139.37 202.842 L2139.37 188.143 L2143.63 188.143 L2143.63 214.069 L2139.37 214.069 L2139.37 210.087 Q2137.82 212.448 2135.76 213.606 Q2133.72 214.74 2131.01 214.74 Q2126.54 214.74 2124.23 211.962 Q2121.91 209.184 2121.91 203.837 M2132.63 187.518 L2132.63 187.518 Z" fill="#000000" fill-rule="nonzero" fill-opacity="1" /><path clip-path="url(#clip430)" d="M2161.66 197.425 L2161.66 204.647 L2169.78 204.647 L2169.78 206.846 L2161.66 206.846 L2161.66 214.069 L2159.23 214.069 L2159.23 206.846 L2151.1 206.846 L2151.1 204.647 L2159.23 204.647 L2159.23 197.425 L2161.66 197.425 Z" fill="#000000" fill-rule="nonzero" fill-opacity="1" /><path clip-path="url(#clip430)" d="M1732.45 269.365 L1875.62 269.365 L1875.62 227.893 L1732.45 227.893 L1732.45 269.365  Z" fill="#9acd32" fill-rule="evenodd" fill-opacity="0.35"/>
<polyline clip-path="url(#clip430)" style="stroke:#000000; stroke-linecap:round; stroke-linejoin:round; stroke-width:4; stroke-opacity:0; fill:none" points="1732.45,269.365 1875.62,269.365 1875.62,227.893 1732.45,227.893 1732.45,269.365 "/>
<path clip-path="url(#clip430)" d="M1899.48 255.677 L1899.48 239.983 L1903.74 239.983 L1903.74 255.515 Q1903.74 259.196 1905.18 261.048 Q1906.61 262.876 1909.48 262.876 Q1912.93 262.876 1914.92 260.677 Q1916.94 258.478 1916.94 254.682 L1916.94 239.983 L1921.2 239.983 L1921.2 265.909 L1916.94 265.909 L1916.94 261.927 Q1915.39 264.288 1913.33 265.446 Q1911.29 266.58 1908.58 266.58 Q1904.11 266.58 1901.8 263.802 Q1899.48 261.024 1899.48 255.677 M1910.2 239.358 L1910.2 239.358 Z" fill="#000000" fill-rule="nonzero" fill-opacity="1" /><path clip-path="url(#clip430)" d="M1928.67 256.487 L1947.35 256.487 L1947.35 258.686 L1928.67 258.686 L1928.67 256.487 Z" fill="#000000" fill-rule="nonzero" fill-opacity="1" /><path clip-path="url(#clip430)" d="M1980.43 246.626 Q1978.58 246.626 1977.31 247.923 Q1976.03 249.196 1976.03 251.048 Q1976.03 252.876 1977.31 254.149 Q1978.58 255.399 1980.43 255.399 Q1982.28 255.399 1983.56 254.149 Q1984.83 252.876 1984.83 251.048 Q1984.83 249.219 1983.53 247.923 Q1982.26 246.626 1980.43 246.626 M1980.43 243.64 Q1981.91 243.64 1983.28 244.219 Q1984.64 244.774 1985.64 245.839 Q1986.71 246.881 1987.24 248.2 Q1987.77 249.52 1987.77 251.048 Q1987.77 254.103 1985.62 256.233 Q1983.49 258.339 1980.39 258.339 Q1977.26 258.339 1975.18 256.256 Q1973.09 254.173 1973.09 251.048 Q1973.09 247.946 1975.22 245.793 Q1977.35 243.64 1980.43 243.64 Z" fill="#000000" fill-rule="nonzero" fill-opacity="1" /><path clip-path="url(#clip430)" d="M2014.37 255.677 L2014.37 239.983 L2018.63 239.983 L2018.63 255.515 Q2018.63 259.196 2020.06 261.048 Q2021.5 262.876 2024.37 262.876 Q2027.82 262.876 2029.81 260.677 Q2031.82 258.478 2031.82 254.682 L2031.82 239.983 L2036.08 239.983 L2036.08 265.909 L2031.82 265.909 L2031.82 261.927 Q2030.27 264.288 2028.21 265.446 Q2026.17 266.58 2023.46 266.58 Q2019 266.58 2016.68 263.802 Q2014.37 261.024 2014.37 255.677 M2025.08 239.358 L2025.08 239.358 Z" fill="#000000" fill-rule="nonzero" fill-opacity="1" /><path clip-path="url(#clip430)" d="M2054.11 249.265 L2054.11 256.487 L2062.24 256.487 L2062.24 258.686 L2054.11 258.686 L2054.11 265.909 L2051.68 265.909 L2051.68 258.686 L2043.56 258.686 L2043.56 256.487 L2051.68 256.487 L2051.68 249.265 L2054.11 249.265 Z" fill="#000000" fill-rule="nonzero" fill-opacity="1" /><path clip-path="url(#clip430)" d="M1732.45 321.205 L1875.62 321.205 L1875.62 279.733 L1732.45 279.733 L1732.45 321.205  Z" fill="#ff0000" fill-rule="evenodd" fill-opacity="0.35"/>
<polyline clip-path="url(#clip430)" style="stroke:#000000; stroke-linecap:round; stroke-linejoin:round; stroke-width:4; stroke-opacity:0; fill:none" points="1732.45,321.205 1875.62,321.205 1875.62,279.733 1732.45,279.733 1732.45,321.205 "/>
<path clip-path="url(#clip430)" d="M1899.48 307.517 L1899.48 291.823 L1903.74 291.823 L1903.74 307.355 Q1903.74 311.036 1905.18 312.888 Q1906.61 314.716 1909.48 314.716 Q1912.93 314.716 1914.92 312.517 Q1916.94 310.318 1916.94 306.522 L1916.94 291.823 L1921.2 291.823 L1921.2 317.749 L1916.94 317.749 L1916.94 313.767 Q1915.39 316.128 1913.33 317.286 Q1911.29 318.42 1908.58 318.42 Q1904.11 318.42 1901.8 315.642 Q1899.48 312.864 1899.48 307.517 M1910.2 291.198 L1910.2 291.198 Z" fill="#000000" fill-rule="nonzero" fill-opacity="1" /><path clip-path="url(#clip430)" d="M1939.23 301.105 L1939.23 308.327 L1947.35 308.327 L1947.35 310.526 L1939.23 310.526 L1939.23 317.749 L1936.8 317.749 L1936.8 310.526 L1928.67 310.526 L1928.67 308.327 L1936.8 308.327 L1936.8 301.105 L1939.23 301.105 Z" fill="#000000" fill-rule="nonzero" fill-opacity="1" /><polyline clip-path="url(#clip430)" style="stroke:#008000; stroke-linecap:round; stroke-linejoin:round; stroke-width:12; stroke-opacity:1; fill:none" points="1732.45,352.309 1875.62,352.309 "/>
<path clip-path="url(#clip430)" d="M1899.48 359.357 L1899.48 343.663 L1903.74 343.663 L1903.74 359.195 Q1903.74 362.876 1905.18 364.728 Q1906.61 366.556 1909.48 366.556 Q1912.93 366.556 1914.92 364.357 Q1916.94 362.158 1916.94 358.362 L1916.94 343.663 L1921.2 343.663 L1921.2 369.589 L1916.94 369.589 L1916.94 365.607 Q1915.39 367.968 1913.33 369.126 Q1911.29 370.26 1908.58 370.26 Q1904.11 370.26 1901.8 367.482 Q1899.48 364.704 1899.48 359.357 M1910.2 343.038 L1910.2 343.038 Z" fill="#000000" fill-rule="nonzero" fill-opacity="1" /><path clip-path="url(#clip430)" d="M1939.81 355.121 L1939.81 357.366 Q1938.67 356.857 1937.45 356.603 Q1936.24 356.348 1934.92 356.348 Q1932.91 356.348 1931.91 356.88 Q1930.92 357.436 1930.92 358.524 Q1930.92 359.357 1931.64 359.82 Q1932.35 360.306 1934.51 360.723 L1935.43 360.908 Q1938.33 361.464 1939.48 362.436 Q1940.69 363.431 1940.69 365.214 Q1940.69 367.228 1938.88 368.408 Q1937.1 369.589 1933.95 369.589 Q1932.63 369.589 1931.2 369.357 Q1929.78 369.126 1928.21 368.686 L1928.21 366.209 Q1929.69 366.903 1931.15 367.251 Q1932.58 367.598 1934 367.598 Q1935.9 367.598 1936.91 367.019 Q1937.93 366.44 1937.93 365.399 Q1937.93 364.427 1937.19 363.894 Q1936.54 363.431 1933.97 362.899 L1933.05 362.714 Q1930.55 362.228 1929.44 361.278 Q1928.33 360.306 1928.33 358.616 Q1928.33 356.579 1929.97 355.468 Q1931.59 354.334 1934.6 354.334 Q1936.08 354.334 1937.4 354.542 Q1938.72 354.728 1939.81 355.121 Z" fill="#000000" fill-rule="nonzero" fill-opacity="1" /><polyline clip-path="url(#clip430)" style="stroke:#ffd700; stroke-linecap:round; stroke-linejoin:round; stroke-width:12; stroke-opacity:1; fill:none" points="1732.45,404.149 1875.62,404.149 "/>
<path clip-path="url(#clip430)" d="M1917.91 396.267 L1917.91 400.294 Q1916.1 399.369 1914.16 398.906 Q1912.21 398.443 1910.13 398.443 Q1906.96 398.443 1905.36 399.415 Q1903.79 400.387 1903.79 402.331 Q1903.79 403.813 1904.92 404.669 Q1906.06 405.503 1909.48 406.267 L1910.94 406.591 Q1915.48 407.563 1917.38 409.345 Q1919.3 411.105 1919.3 414.276 Q1919.3 417.887 1916.43 419.993 Q1913.58 422.1 1908.58 422.1 Q1906.5 422.1 1904.23 421.683 Q1901.98 421.29 1899.48 420.48 L1899.48 416.081 Q1901.84 417.308 1904.14 417.933 Q1906.43 418.535 1908.67 418.535 Q1911.68 418.535 1913.3 417.517 Q1914.92 416.475 1914.92 414.6 Q1914.92 412.864 1913.74 411.938 Q1912.59 411.012 1908.63 410.156 L1907.15 409.808 Q1903.19 408.975 1901.43 407.262 Q1899.67 405.526 1899.67 402.517 Q1899.67 398.859 1902.26 396.869 Q1904.85 394.878 1909.62 394.878 Q1911.98 394.878 1914.07 395.225 Q1916.15 395.572 1917.91 396.267 Z" fill="#000000" fill-rule="nonzero" fill-opacity="1" /><path clip-path="url(#clip430)" d="M1923.6 395.503 L1927.86 395.503 L1933.19 415.734 L1938.49 395.503 L1943.51 395.503 L1948.83 415.734 L1954.14 395.503 L1958.4 395.503 L1951.61 421.429 L1946.59 421.429 L1941.01 400.179 L1935.41 421.429 L1930.39 421.429 L1923.6 395.503 Z" fill="#000000" fill-rule="nonzero" fill-opacity="1" /><path clip-path="url(#clip430)" d="M1964.85 395.503 L1969.11 395.503 L1969.11 421.429 L1964.85 421.429 L1964.85 395.503 M1964.85 385.41 L1969.11 385.41 L1969.11 390.804 L1964.85 390.804 L1964.85 385.41 Z" fill="#000000" fill-rule="nonzero" fill-opacity="1" /><path clip-path="url(#clip430)" d="M1982.24 388.142 L1982.24 395.503 L1991.01 395.503 L1991.01 398.813 L1982.24 398.813 L1982.24 412.887 Q1982.24 416.058 1983.09 416.961 Q1983.97 417.864 1986.64 417.864 L1991.01 417.864 L1991.01 421.429 L1986.64 421.429 Q1981.71 421.429 1979.83 419.6 Q1977.96 417.748 1977.96 412.887 L1977.96 398.813 L1974.83 398.813 L1974.83 395.503 L1977.96 395.503 L1977.96 388.142 L1982.24 388.142 Z" fill="#000000" fill-rule="nonzero" fill-opacity="1" /><path clip-path="url(#clip430)" d="M2015.27 396.498 L2015.27 400.48 Q2013.46 399.484 2011.64 398.998 Q2009.83 398.489 2007.98 398.489 Q2003.83 398.489 2001.54 401.128 Q1999.25 403.744 1999.25 408.489 Q1999.25 413.234 2001.54 415.873 Q2003.83 418.489 2007.98 418.489 Q2009.83 418.489 2011.64 418.003 Q2013.46 417.493 2015.27 416.498 L2015.27 420.433 Q2013.49 421.267 2011.57 421.683 Q2009.67 422.1 2007.52 422.1 Q2001.66 422.1 1998.21 418.419 Q1994.76 414.739 1994.76 408.489 Q1994.76 402.146 1998.23 398.512 Q2001.73 394.878 2007.79 394.878 Q2009.76 394.878 2011.64 395.295 Q2013.51 395.688 2015.27 396.498 Z" fill="#000000" fill-rule="nonzero" fill-opacity="1" /><path clip-path="url(#clip430)" d="M2044.23 405.781 L2044.23 421.429 L2039.97 421.429 L2039.97 405.919 Q2039.97 402.239 2038.53 400.41 Q2037.1 398.582 2034.23 398.582 Q2030.78 398.582 2028.79 400.781 Q2026.8 402.98 2026.8 406.776 L2026.8 421.429 L2022.52 421.429 L2022.52 385.41 L2026.8 385.41 L2026.8 399.531 Q2028.33 397.193 2030.39 396.035 Q2032.47 394.878 2035.18 394.878 Q2039.64 394.878 2041.94 397.656 Q2044.23 400.41 2044.23 405.781 Z" fill="#000000" fill-rule="nonzero" fill-opacity="1" /><path clip-path="url(#clip430)" d="M2052.72 395.503 L2056.98 395.503 L2056.98 421.429 L2052.72 421.429 L2052.72 395.503 M2052.72 385.41 L2056.98 385.41 L2056.98 390.804 L2052.72 390.804 L2052.72 385.41 Z" fill="#000000" fill-rule="nonzero" fill-opacity="1" /><path clip-path="url(#clip430)" d="M2087.45 405.781 L2087.45 421.429 L2083.19 421.429 L2083.19 405.919 Q2083.19 402.239 2081.75 400.41 Q2080.32 398.582 2077.45 398.582 Q2074 398.582 2072.01 400.781 Q2070.01 402.98 2070.01 406.776 L2070.01 421.429 L2065.73 421.429 L2065.73 395.503 L2070.01 395.503 L2070.01 399.531 Q2071.54 397.193 2073.6 396.035 Q2075.69 394.878 2078.39 394.878 Q2082.86 394.878 2085.15 397.656 Q2087.45 400.41 2087.45 405.781 Z" fill="#000000" fill-rule="nonzero" fill-opacity="1" /><path clip-path="url(#clip430)" d="M2113 408.165 Q2113 403.535 2111.08 400.989 Q2109.18 398.443 2105.73 398.443 Q2102.31 398.443 2100.39 400.989 Q2098.49 403.535 2098.49 408.165 Q2098.49 412.771 2100.39 415.318 Q2102.31 417.864 2105.73 417.864 Q2109.18 417.864 2111.08 415.318 Q2113 412.771 2113 408.165 M2117.26 418.211 Q2117.26 424.831 2114.32 428.049 Q2111.38 431.29 2105.32 431.29 Q2103.07 431.29 2101.08 430.942 Q2099.09 430.618 2097.21 429.924 L2097.21 425.78 Q2099.09 426.799 2100.92 427.285 Q2102.75 427.771 2104.64 427.771 Q2108.83 427.771 2110.92 425.572 Q2113 423.396 2113 418.975 L2113 416.868 Q2111.68 419.16 2109.62 420.294 Q2107.56 421.429 2104.69 421.429 Q2099.92 421.429 2097.01 417.794 Q2094.09 414.16 2094.09 408.165 Q2094.09 402.146 2097.01 398.512 Q2099.92 394.878 2104.69 394.878 Q2107.56 394.878 2109.62 396.012 Q2111.68 397.146 2113 399.438 L2113 395.503 L2117.26 395.503 L2117.26 418.211 Z" fill="#000000" fill-rule="nonzero" fill-opacity="1" /><path clip-path="url(#clip430)" d="M2141.1 385.41 L2145.36 385.41 L2145.36 421.429 L2141.1 421.429 L2141.1 385.41 Z" fill="#000000" fill-rule="nonzero" fill-opacity="1" /><path clip-path="url(#clip430)" d="M2164.32 398.489 Q2160.89 398.489 2158.9 401.174 Q2156.91 403.836 2156.91 408.489 Q2156.91 413.142 2158.88 415.827 Q2160.87 418.489 2164.32 418.489 Q2167.72 418.489 2169.71 415.804 Q2171.7 413.118 2171.7 408.489 Q2171.7 403.882 2169.71 401.197 Q2167.72 398.489 2164.32 398.489 M2164.32 394.878 Q2169.88 394.878 2173.05 398.489 Q2176.22 402.1 2176.22 408.489 Q2176.22 414.855 2173.05 418.489 Q2169.88 422.1 2164.32 422.1 Q2158.74 422.1 2155.57 418.489 Q2152.42 414.855 2152.42 408.489 Q2152.42 402.1 2155.57 398.489 Q2158.74 394.878 2164.32 394.878 Z" fill="#000000" fill-rule="nonzero" fill-opacity="1" /><path clip-path="url(#clip430)" d="M2201.94 396.498 L2201.94 400.48 Q2200.13 399.484 2198.3 398.998 Q2196.5 398.489 2194.64 398.489 Q2190.5 398.489 2188.21 401.128 Q2185.92 403.744 2185.92 408.489 Q2185.92 413.234 2188.21 415.873 Q2190.5 418.489 2194.64 418.489 Q2196.5 418.489 2198.3 418.003 Q2200.13 417.493 2201.94 416.498 L2201.94 420.433 Q2200.15 421.267 2198.23 421.683 Q2196.33 422.1 2194.18 422.1 Q2188.32 422.1 2184.88 418.419 Q2181.43 414.739 2181.43 408.489 Q2181.43 402.146 2184.9 398.512 Q2188.39 394.878 2194.46 394.878 Q2196.43 394.878 2198.3 395.295 Q2200.18 395.688 2201.94 396.498 Z" fill="#000000" fill-rule="nonzero" fill-opacity="1" /><path clip-path="url(#clip430)" d="M2208.9 411.197 L2208.9 395.503 L2213.16 395.503 L2213.16 411.035 Q2213.16 414.716 2214.6 416.568 Q2216.03 418.396 2218.9 418.396 Q2222.35 418.396 2224.34 416.197 Q2226.36 413.998 2226.36 410.202 L2226.36 395.503 L2230.62 395.503 L2230.62 421.429 L2226.36 421.429 L2226.36 417.447 Q2224.81 419.808 2222.75 420.966 Q2220.71 422.1 2218 422.1 Q2213.53 422.1 2211.22 419.322 Q2208.9 416.544 2208.9 411.197 M2219.62 394.878 L2219.62 394.878 Z" fill="#000000" fill-rule="nonzero" fill-opacity="1" /><path clip-path="url(#clip430)" d="M2255.92 396.267 L2255.92 400.294 Q2254.11 399.369 2252.17 398.906 Q2250.22 398.443 2248.14 398.443 Q2244.97 398.443 2243.37 399.415 Q2241.8 400.387 2241.8 402.331 Q2241.8 403.813 2242.93 404.669 Q2244.06 405.503 2247.49 406.267 L2248.95 406.591 Q2253.49 407.563 2255.38 409.345 Q2257.31 411.105 2257.31 414.276 Q2257.31 417.887 2254.44 419.993 Q2251.59 422.1 2246.59 422.1 Q2244.5 422.1 2242.24 421.683 Q2239.99 421.29 2237.49 420.48 L2237.49 416.081 Q2239.85 417.308 2242.14 417.933 Q2244.44 418.535 2246.68 418.535 Q2249.69 418.535 2251.31 417.517 Q2252.93 416.475 2252.93 414.6 Q2252.93 412.864 2251.75 411.938 Q2250.59 411.012 2246.63 410.156 L2245.15 409.808 Q2241.19 408.975 2239.44 407.262 Q2237.68 405.526 2237.68 402.517 Q2237.68 398.859 2240.27 396.869 Q2242.86 394.878 2247.63 394.878 Q2249.99 394.878 2252.07 395.225 Q2254.16 395.572 2255.92 396.267 Z" fill="#000000" fill-rule="nonzero" fill-opacity="1" /></svg>
