<?xml version="1.0" encoding="utf-8"?>
<svg xmlns="http://www.w3.org/2000/svg" xmlns:xlink="http://www.w3.org/1999/xlink" width="600" height="400" viewBox="0 0 2400 1600">
<defs>
  <clipPath id="clip550">
    <rect x="0" y="0" width="2400" height="1600"/>
  </clipPath>
</defs>
<path clip-path="url(#clip550)" d="M0 1600 L2400 1600 L2400 0 L0 0  Z" fill="#ffffff" fill-rule="evenodd" fill-opacity="1"/>
<defs>
  <clipPath id="clip551">
    <rect x="480" y="0" width="1681" height="1600"/>
  </clipPath>
</defs>
<path clip-path="url(#clip550)" d="M250.028 1423.18 L2352.76 1423.18 L2352.76 47.2441 L250.028 47.2441  Z" fill="#ffffff" fill-rule="evenodd" fill-opacity="1"/>
<defs>
  <clipPath id="clip552">
    <rect x="250" y="47" width="2104" height="1377"/>
  </clipPath>
</defs>
<polyline clip-path="url(#clip552)" style="stroke:#000000; stroke-linecap:round; stroke-linejoin:round; stroke-width:2; stroke-opacity:0.1; fill:none" points="250.028,1423.18 250.028,47.2441 "/>
<polyline clip-path="url(#clip552)" style="stroke:#000000; stroke-linecap:round; stroke-linejoin:round; stroke-width:2; stroke-opacity:0.1; fill:none" points="950.937,1423.18 950.937,47.2441 "/>
<polyline clip-path="url(#clip552)" style="stroke:#000000; stroke-linecap:round; stroke-linejoin:round; stroke-width:2; stroke-opacity:0.1; fill:none" points="1651.85,1423.18 1651.85,47.2441 "/>
<polyline clip-path="url(#clip552)" style="stroke:#000000; stroke-linecap:round; stroke-linejoin:round; stroke-width:2; stroke-opacity:0.1; fill:none" points="2352.76,1423.18 2352.76,47.2441 "/>
<polyline clip-path="url(#clip552)" style="stroke:#000000; stroke-linecap:round; stroke-linejoin:round; stroke-width:2; stroke-opacity:0.1; fill:none" points="250.028,1423.18 2352.76,1423.18 "/>
<polyline clip-path="url(#clip552)" style="stroke:#000000; stroke-linecap:round; stroke-linejoin:round; stroke-width:2; stroke-opacity:0.1; fill:none" points="250.028,1147.99 2352.76,1147.99 "/>
<polyline clip-path="url(#clip552)" style="stroke:#000000; stroke-linecap:round; stroke-linejoin:round; stroke-width:2; stroke-opacity:0.1; fill:none" points="250.028,872.806 2352.76,872.806 "/>
<polyline clip-path="url(#clip552)" style="stroke:#000000; stroke-linecap:round; stroke-linejoin:round; stroke-width:2; stroke-opacity:0.1; fill:none" points="250.028,597.618 2352.76,597.618 "/>
<polyline clip-path="url(#clip552)" style="stroke:#000000; stroke-linecap:round; stroke-linejoin:round; stroke-width:2; stroke-opacity:0.1; fill:none" points="250.028,322.431 2352.76,322.431 "/>
<polyline clip-path="url(#clip550)" style="stroke:#000000; stroke-linecap:round; stroke-linejoin:round; stroke-width:4; stroke-opacity:1; fill:none" points="250.028,1423.18 2352.76,1423.18 "/>
<polyline clip-path="url(#clip550)" style="stroke:#000000; stroke-linecap:round; stroke-linejoin:round; stroke-width:4; stroke-opacity:1; fill:none" points="250.028,1423.18 250.028,1404.28 "/>
<polyline clip-path="url(#clip550)" style="stroke:#000000; stroke-linecap:round; stroke-linejoin:round; stroke-width:4; stroke-opacity:1; fill:none" points="950.937,1423.18 950.937,1404.28 "/>
<polyline clip-path="url(#clip550)" style="stroke:#000000; stroke-linecap:round; stroke-linejoin:round; stroke-width:4; stroke-opacity:1; fill:none" points="1651.85,1423.18 1651.85,1404.28 "/>
<polyline clip-path="url(#clip550)" style="stroke:#000000; stroke-linecap:round; stroke-linejoin:round; stroke-width:4; stroke-opacity:1; fill:none" points="2352.76,1423.18 2352.76,1404.28 "/>
<path clip-path="url(#clip550)" d="M197.251 1454.1 Q193.64 1454.1 191.811 1457.66 Q190.005 1461.2 190.005 1468.33 Q190.005 1475.44 191.811 1479.01 Q193.64 1482.55 197.251 1482.55 Q200.885 1482.55 202.69 1479.01 Q204.519 1475.44 204.519 1468.33 Q204.519 1461.2 202.69 1457.66 Q200.885 1454.1 197.251 1454.1 M197.251 1450.39 Q203.061 1450.39 206.116 1455 Q209.195 1459.58 209.195 1468.33 Q209.195 1477.06 206.116 1481.67 Q203.061 1486.25 197.251 1486.25 Q191.44 1486.25 188.362 1481.67 Q185.306 1477.06 185.306 1468.33 Q185.306 1459.58 188.362 1455 Q191.44 1450.39 197.251 1450.39 Z" fill="#000000" fill-rule="nonzero" fill-opacity="1" /><path clip-path="url(#clip550)" d="M217.413 1479.7 L222.297 1479.7 L222.297 1485.58 L217.413 1485.58 L217.413 1479.7 Z" fill="#000000" fill-rule="nonzero" fill-opacity="1" /><path clip-path="url(#clip550)" d="M242.482 1454.1 Q238.871 1454.1 237.042 1457.66 Q235.237 1461.2 235.237 1468.33 Q235.237 1475.44 237.042 1479.01 Q238.871 1482.55 242.482 1482.55 Q246.116 1482.55 247.922 1479.01 Q249.75 1475.44 249.75 1468.33 Q249.75 1461.2 247.922 1457.66 Q246.116 1454.1 242.482 1454.1 M242.482 1450.39 Q248.292 1450.39 251.348 1455 Q254.426 1459.58 254.426 1468.33 Q254.426 1477.06 251.348 1481.67 Q248.292 1486.25 242.482 1486.25 Q236.672 1486.25 233.593 1481.67 Q230.538 1477.06 230.538 1468.33 Q230.538 1459.58 233.593 1455 Q236.672 1450.39 242.482 1450.39 Z" fill="#000000" fill-rule="nonzero" fill-opacity="1" /><path clip-path="url(#clip550)" d="M272.644 1454.1 Q269.033 1454.1 267.204 1457.66 Q265.398 1461.2 265.398 1468.33 Q265.398 1475.44 267.204 1479.01 Q269.033 1482.55 272.644 1482.55 Q276.278 1482.55 278.084 1479.01 Q279.912 1475.44 279.912 1468.33 Q279.912 1461.2 278.084 1457.66 Q276.278 1454.1 272.644 1454.1 M272.644 1450.39 Q278.454 1450.39 281.509 1455 Q284.588 1459.58 284.588 1468.33 Q284.588 1477.06 281.509 1481.67 Q278.454 1486.25 272.644 1486.25 Q266.834 1486.25 263.755 1481.67 Q260.699 1477.06 260.699 1468.33 Q260.699 1459.58 263.755 1455 Q266.834 1450.39 272.644 1450.39 Z" fill="#000000" fill-rule="nonzero" fill-opacity="1" /><path clip-path="url(#clip550)" d="M302.806 1454.1 Q299.195 1454.1 297.366 1457.66 Q295.56 1461.2 295.56 1468.33 Q295.56 1475.44 297.366 1479.01 Q299.195 1482.55 302.806 1482.55 Q306.44 1482.55 308.245 1479.01 Q310.074 1475.44 310.074 1468.33 Q310.074 1461.2 308.245 1457.66 Q306.44 1454.1 302.806 1454.1 M302.806 1450.39 Q308.616 1450.39 311.671 1455 Q314.75 1459.58 314.75 1468.33 Q314.75 1477.06 311.671 1481.67 Q308.616 1486.25 302.806 1486.25 Q296.995 1486.25 293.917 1481.67 Q290.861 1477.06 290.861 1468.33 Q290.861 1459.58 293.917 1455 Q296.995 1450.39 302.806 1450.39 Z" fill="#000000" fill-rule="nonzero" fill-opacity="1" /><path clip-path="url(#clip550)" d="M898.658 1454.1 Q895.046 1454.1 893.218 1457.66 Q891.412 1461.2 891.412 1468.33 Q891.412 1475.44 893.218 1479.01 Q895.046 1482.55 898.658 1482.55 Q902.292 1482.55 904.097 1479.01 Q905.926 1475.44 905.926 1468.33 Q905.926 1461.2 904.097 1457.66 Q902.292 1454.1 898.658 1454.1 M898.658 1450.39 Q904.468 1450.39 907.523 1455 Q910.602 1459.58 910.602 1468.33 Q910.602 1477.06 907.523 1481.67 Q904.468 1486.25 898.658 1486.25 Q892.847 1486.25 889.769 1481.67 Q886.713 1477.06 886.713 1468.33 Q886.713 1459.58 889.769 1455 Q892.847 1450.39 898.658 1450.39 Z" fill="#000000" fill-rule="nonzero" fill-opacity="1" /><path clip-path="url(#clip550)" d="M918.82 1479.7 L923.704 1479.7 L923.704 1485.58 L918.82 1485.58 L918.82 1479.7 Z" fill="#000000" fill-rule="nonzero" fill-opacity="1" /><path clip-path="url(#clip550)" d="M943.889 1454.1 Q940.278 1454.1 938.449 1457.66 Q936.643 1461.2 936.643 1468.33 Q936.643 1475.44 938.449 1479.01 Q940.278 1482.55 943.889 1482.55 Q947.523 1482.55 949.329 1479.01 Q951.157 1475.44 951.157 1468.33 Q951.157 1461.2 949.329 1457.66 Q947.523 1454.1 943.889 1454.1 M943.889 1450.39 Q949.699 1450.39 952.755 1455 Q955.833 1459.58 955.833 1468.33 Q955.833 1477.06 952.755 1481.67 Q949.699 1486.25 943.889 1486.25 Q938.079 1486.25 935 1481.67 Q931.944 1477.06 931.944 1468.33 Q931.944 1459.58 935 1455 Q938.079 1450.39 943.889 1450.39 Z" fill="#000000" fill-rule="nonzero" fill-opacity="1" /><path clip-path="url(#clip550)" d="M974.051 1454.1 Q970.44 1454.1 968.611 1457.66 Q966.805 1461.2 966.805 1468.33 Q966.805 1475.44 968.611 1479.01 Q970.44 1482.55 974.051 1482.55 Q977.685 1482.55 979.49 1479.01 Q981.319 1475.44 981.319 1468.33 Q981.319 1461.2 979.49 1457.66 Q977.685 1454.1 974.051 1454.1 M974.051 1450.39 Q979.861 1450.39 982.916 1455 Q985.995 1459.58 985.995 1468.33 Q985.995 1477.06 982.916 1481.67 Q979.861 1486.25 974.051 1486.25 Q968.241 1486.25 965.162 1481.67 Q962.106 1477.06 962.106 1468.33 Q962.106 1459.58 965.162 1455 Q968.241 1450.39 974.051 1450.39 Z" fill="#000000" fill-rule="nonzero" fill-opacity="1" /><path clip-path="url(#clip550)" d="M994.259 1451.02 L1012.62 1451.02 L1012.62 1454.96 L998.541 1454.96 L998.541 1463.43 Q999.56 1463.08 1000.58 1462.92 Q1001.6 1462.73 1002.62 1462.73 Q1008.4 1462.73 1011.78 1465.9 Q1015.16 1469.08 1015.16 1474.49 Q1015.16 1480.07 1011.69 1483.17 Q1008.22 1486.25 1001.9 1486.25 Q999.722 1486.25 997.453 1485.88 Q995.208 1485.51 992.801 1484.77 L992.801 1480.07 Q994.884 1481.2 997.106 1481.76 Q999.328 1482.32 1001.81 1482.32 Q1005.81 1482.32 1008.15 1480.21 Q1010.49 1478.1 1010.49 1474.49 Q1010.49 1470.88 1008.15 1468.77 Q1005.81 1466.67 1001.81 1466.67 Q999.93 1466.67 998.055 1467.08 Q996.203 1467.5 994.259 1468.38 L994.259 1451.02 Z" fill="#000000" fill-rule="nonzero" fill-opacity="1" /><path clip-path="url(#clip550)" d="M1599.07 1454.1 Q1595.46 1454.1 1593.63 1457.66 Q1591.82 1461.2 1591.82 1468.33 Q1591.82 1475.44 1593.63 1479.01 Q1595.46 1482.55 1599.07 1482.55 Q1602.7 1482.55 1604.51 1479.01 Q1606.34 1475.44 1606.34 1468.33 Q1606.34 1461.2 1604.51 1457.66 Q1602.7 1454.1 1599.07 1454.1 M1599.07 1450.39 Q1604.88 1450.39 1607.93 1455 Q1611.01 1459.58 1611.01 1468.33 Q1611.01 1477.06 1607.93 1481.67 Q1604.88 1486.25 1599.07 1486.25 Q1593.26 1486.25 1590.18 1481.67 Q1587.12 1477.06 1587.12 1468.33 Q1587.12 1459.58 1590.18 1455 Q1593.26 1450.39 1599.07 1450.39 Z" fill="#000000" fill-rule="nonzero" fill-opacity="1" /><path clip-path="url(#clip550)" d="M1619.23 1479.7 L1624.12 1479.7 L1624.12 1485.58 L1619.23 1485.58 L1619.23 1479.7 Z" fill="#000000" fill-rule="nonzero" fill-opacity="1" /><path clip-path="url(#clip550)" d="M1644.3 1454.1 Q1640.69 1454.1 1638.86 1457.66 Q1637.06 1461.2 1637.06 1468.33 Q1637.06 1475.44 1638.86 1479.01 Q1640.69 1482.55 1644.3 1482.55 Q1647.93 1482.55 1649.74 1479.01 Q1651.57 1475.44 1651.57 1468.33 Q1651.57 1461.2 1649.74 1457.66 Q1647.93 1454.1 1644.3 1454.1 M1644.3 1450.39 Q1650.11 1450.39 1653.17 1455 Q1656.24 1459.58 1656.24 1468.33 Q1656.24 1477.06 1653.17 1481.67 Q1650.11 1486.25 1644.3 1486.25 Q1638.49 1486.25 1635.41 1481.67 Q1632.36 1477.06 1632.36 1468.33 Q1632.36 1459.58 1635.41 1455 Q1638.49 1450.39 1644.3 1450.39 Z" fill="#000000" fill-rule="nonzero" fill-opacity="1" /><path clip-path="url(#clip550)" d="M1665.27 1481.64 L1672.91 1481.64 L1672.91 1455.28 L1664.6 1456.95 L1664.6 1452.69 L1672.87 1451.02 L1677.54 1451.02 L1677.54 1481.64 L1685.18 1481.64 L1685.18 1485.58 L1665.27 1485.58 L1665.27 1481.64 Z" fill="#000000" fill-rule="nonzero" fill-opacity="1" /><path clip-path="url(#clip550)" d="M1704.62 1454.1 Q1701.01 1454.1 1699.18 1457.66 Q1697.38 1461.2 1697.38 1468.33 Q1697.38 1475.44 1699.18 1479.01 Q1701.01 1482.55 1704.62 1482.55 Q1708.26 1482.55 1710.06 1479.01 Q1711.89 1475.44 1711.89 1468.33 Q1711.89 1461.2 1710.06 1457.66 Q1708.26 1454.1 1704.62 1454.1 M1704.62 1450.39 Q1710.43 1450.39 1713.49 1455 Q1716.57 1459.58 1716.57 1468.33 Q1716.57 1477.06 1713.49 1481.67 Q1710.43 1486.25 1704.62 1486.25 Q1698.81 1486.25 1695.74 1481.67 Q1692.68 1477.06 1692.68 1468.33 Q1692.68 1459.58 1695.74 1455 Q1698.81 1450.39 1704.62 1450.39 Z" fill="#000000" fill-rule="nonzero" fill-opacity="1" /><path clip-path="url(#clip550)" d="M2300.48 1454.1 Q2296.87 1454.1 2295.04 1457.66 Q2293.23 1461.2 2293.23 1468.33 Q2293.23 1475.44 2295.04 1479.01 Q2296.87 1482.55 2300.48 1482.55 Q2304.11 1482.55 2305.92 1479.01 Q2307.74 1475.44 2307.74 1468.33 Q2307.74 1461.2 2305.92 1457.66 Q2304.11 1454.1 2300.48 1454.1 M2300.48 1450.39 Q2306.29 1450.39 2309.34 1455 Q2312.42 1459.58 2312.42 1468.33 Q2312.42 1477.06 2309.34 1481.67 Q2306.29 1486.25 2300.48 1486.25 Q2294.67 1486.25 2291.59 1481.67 Q2288.53 1477.06 2288.53 1468.33 Q2288.53 1459.58 2291.59 1455 Q2294.67 1450.39 2300.48 1450.39 Z" fill="#000000" fill-rule="nonzero" fill-opacity="1" /><path clip-path="url(#clip550)" d="M2320.64 1479.7 L2325.52 1479.7 L2325.52 1485.58 L2320.64 1485.58 L2320.64 1479.7 Z" fill="#000000" fill-rule="nonzero" fill-opacity="1" /><path clip-path="url(#clip550)" d="M2345.71 1454.1 Q2342.1 1454.1 2340.27 1457.66 Q2338.46 1461.2 2338.46 1468.33 Q2338.46 1475.44 2340.27 1479.01 Q2342.1 1482.55 2345.71 1482.55 Q2349.34 1482.55 2351.15 1479.01 Q2352.98 1475.44 2352.98 1468.33 Q2352.98 1461.2 2351.15 1457.66 Q2349.34 1454.1 2345.71 1454.1 M2345.71 1450.39 Q2351.52 1450.39 2354.57 1455 Q2357.65 1459.58 2357.65 1468.33 Q2357.65 1477.06 2354.57 1481.67 Q2351.52 1486.25 2345.71 1486.25 Q2339.9 1486.25 2336.82 1481.67 Q2333.76 1477.06 2333.76 1468.33 Q2333.76 1459.58 2336.82 1455 Q2339.9 1450.39 2345.71 1450.39 Z" fill="#000000" fill-rule="nonzero" fill-opacity="1" /><path clip-path="url(#clip550)" d="M2366.68 1481.64 L2374.32 1481.64 L2374.32 1455.28 L2366.01 1456.95 L2366.01 1452.69 L2374.27 1451.02 L2378.95 1451.02 L2378.95 1481.64 L2386.59 1481.64 L2386.59 1485.58 L2366.68 1485.58 L2366.68 1481.64 Z" fill="#000000" fill-rule="nonzero" fill-opacity="1" /><path clip-path="url(#clip550)" d="M2396.08 1451.02 L2414.43 1451.02 L2414.43 1454.96 L2400.36 1454.96 L2400.36 1463.43 Q2401.38 1463.08 2402.4 1462.92 Q2403.42 1462.73 2404.43 1462.73 Q2410.22 1462.73 2413.6 1465.9 Q2416.98 1469.08 2416.98 1474.49 Q2416.98 1480.07 2413.51 1483.17 Q2410.04 1486.25 2403.72 1486.25 Q2401.54 1486.25 2399.27 1485.88 Q2397.03 1485.51 2394.62 1484.77 L2394.62 1480.07 Q2396.7 1481.2 2398.92 1481.76 Q2401.15 1482.32 2403.62 1482.32 Q2407.63 1482.32 2409.97 1480.21 Q2412.3 1478.1 2412.3 1474.49 Q2412.3 1470.88 2409.97 1468.77 Q2407.63 1466.67 2403.62 1466.67 Q2401.75 1466.67 2399.87 1467.08 Q2398.02 1467.5 2396.08 1468.38 L2396.08 1451.02 Z" fill="#000000" fill-rule="nonzero" fill-opacity="1" /><path clip-path="url(#clip550)" d="M1146.29 1568.04 L1128.15 1520.52 L1134.87 1520.52 L1149.92 1560.53 L1165.01 1520.52 L1171.69 1520.52 L1153.58 1568.04 L1146.29 1568.04 Z" fill="#000000" fill-rule="nonzero" fill-opacity="1" /><path clip-path="url(#clip550)" d="M1187.13 1536.5 Q1182.42 1536.5 1179.68 1540.19 Q1176.94 1543.85 1176.94 1550.25 Q1176.94 1556.65 1179.65 1560.34 Q1182.39 1564 1187.13 1564 Q1191.81 1564 1194.54 1560.31 Q1197.28 1556.62 1197.28 1550.25 Q1197.28 1543.92 1194.54 1540.23 Q1191.81 1536.5 1187.13 1536.5 M1187.13 1531.54 Q1194.77 1531.54 1199.13 1536.5 Q1203.49 1541.47 1203.49 1550.25 Q1203.49 1559 1199.13 1564 Q1194.77 1568.97 1187.13 1568.97 Q1179.46 1568.97 1175.1 1564 Q1170.77 1559 1170.77 1550.25 Q1170.77 1541.47 1175.1 1536.5 Q1179.46 1531.54 1187.13 1531.54 Z" fill="#000000" fill-rule="nonzero" fill-opacity="1" /><path clip-path="url(#clip550)" d="M1213.2 1518.52 L1219.05 1518.52 L1219.05 1568.04 L1213.2 1568.04 L1213.2 1518.52 Z" fill="#000000" fill-rule="nonzero" fill-opacity="1" /><path clip-path="url(#clip550)" d="M1230.7 1553.98 L1230.7 1532.4 L1236.56 1532.4 L1236.56 1553.75 Q1236.56 1558.81 1238.53 1561.36 Q1240.5 1563.87 1244.45 1563.87 Q1249.19 1563.87 1251.93 1560.85 Q1254.7 1557.83 1254.7 1552.61 L1254.7 1532.4 L1260.56 1532.4 L1260.56 1568.04 L1254.7 1568.04 L1254.7 1562.57 Q1252.57 1565.82 1249.73 1567.41 Q1246.93 1568.97 1243.21 1568.97 Q1237.07 1568.97 1233.88 1565.15 Q1230.7 1561.33 1230.7 1553.98 M1245.44 1531.54 L1245.44 1531.54 Z" fill="#000000" fill-rule="nonzero" fill-opacity="1" /><path clip-path="url(#clip550)" d="M1300.37 1539.24 Q1302.57 1535.29 1305.63 1533.41 Q1308.68 1531.54 1312.82 1531.54 Q1318.39 1531.54 1321.41 1535.45 Q1324.44 1539.33 1324.44 1546.53 L1324.44 1568.04 L1318.55 1568.04 L1318.55 1546.72 Q1318.55 1541.59 1316.73 1539.11 Q1314.92 1536.63 1311.2 1536.63 Q1306.64 1536.63 1304 1539.65 Q1301.36 1542.68 1301.36 1547.9 L1301.36 1568.04 L1295.47 1568.04 L1295.47 1546.72 Q1295.47 1541.56 1293.66 1539.11 Q1291.84 1536.63 1288.06 1536.63 Q1283.57 1536.63 1280.93 1539.68 Q1278.28 1542.71 1278.28 1547.9 L1278.28 1568.04 L1272.4 1568.04 L1272.4 1532.4 L1278.28 1532.4 L1278.28 1537.93 Q1280.29 1534.66 1283.09 1533.1 Q1285.89 1531.54 1289.74 1531.54 Q1293.63 1531.54 1296.33 1533.51 Q1299.07 1535.48 1300.37 1539.24 Z" fill="#000000" fill-rule="nonzero" fill-opacity="1" /><path clip-path="url(#clip550)" d="M1366.61 1548.76 L1366.61 1551.62 L1339.68 1551.62 Q1340.06 1557.67 1343.31 1560.85 Q1346.59 1564 1352.41 1564 Q1355.79 1564 1358.94 1563.17 Q1362.12 1562.35 1365.24 1560.69 L1365.24 1566.23 Q1362.09 1567.57 1358.78 1568.27 Q1355.47 1568.97 1352.06 1568.97 Q1343.53 1568.97 1338.54 1564 Q1333.57 1559.04 1333.57 1550.57 Q1333.57 1541.82 1338.28 1536.69 Q1343.02 1531.54 1351.04 1531.54 Q1358.24 1531.54 1362.41 1536.18 Q1366.61 1540.8 1366.61 1548.76 M1360.75 1547.04 Q1360.69 1542.23 1358.05 1539.37 Q1355.44 1536.5 1351.11 1536.5 Q1346.21 1536.5 1343.25 1539.27 Q1340.32 1542.04 1339.87 1547.07 L1360.75 1547.04 Z" fill="#000000" fill-rule="nonzero" fill-opacity="1" /><path clip-path="url(#clip550)" d="M1411.01 1518.58 Q1406.74 1525.9 1404.68 1533.06 Q1402.61 1540.23 1402.61 1547.58 Q1402.61 1554.93 1404.68 1562.16 Q1406.78 1569.35 1411.01 1576.64 L1405.92 1576.64 Q1401.14 1569.16 1398.76 1561.93 Q1396.4 1554.71 1396.4 1547.58 Q1396.4 1540.48 1398.76 1533.29 Q1401.11 1526.09 1405.92 1518.58 L1411.01 1518.58 Z" fill="#000000" fill-rule="nonzero" fill-opacity="1" /><path clip-path="url(#clip550)" d="M1418.17 1532.4 L1424.38 1532.4 L1435.52 1562.31 L1446.66 1532.4 L1452.86 1532.4 L1439.5 1568.04 L1431.54 1568.04 L1418.17 1532.4 Z" fill="#000000" fill-rule="nonzero" fill-opacity="1" /><path clip-path="url(#clip550)" d="M1460.03 1518.58 L1465.12 1518.58 Q1469.89 1526.09 1472.25 1533.29 Q1474.63 1540.48 1474.63 1547.58 Q1474.63 1554.71 1472.25 1561.93 Q1469.89 1569.16 1465.12 1576.64 L1460.03 1576.64 Q1464.26 1569.35 1466.33 1562.16 Q1468.43 1554.93 1468.43 1547.58 Q1468.43 1540.23 1466.33 1533.06 Q1464.26 1525.9 1460.03 1518.58 Z" fill="#000000" fill-rule="nonzero" fill-opacity="1" /><polyline clip-path="url(#clip550)" style="stroke:#000000; stroke-linecap:round; stroke-linejoin:round; stroke-width:4; stroke-opacity:1; fill:none" points="250.028,1423.18 250.028,47.2441 "/>
<polyline clip-path="url(#clip550)" style="stroke:#000000; stroke-linecap:round; stroke-linejoin:round; stroke-width:4; stroke-opacity:1; fill:none" points="250.028,1423.18 268.926,1423.18 "/>
<polyline clip-path="url(#clip550)" style="stroke:#000000; stroke-linecap:round; stroke-linejoin:round; stroke-width:4; stroke-opacity:1; fill:none" points="250.028,1147.99 268.926,1147.99 "/>
<polyline clip-path="url(#clip550)" style="stroke:#000000; stroke-linecap:round; stroke-linejoin:round; stroke-width:4; stroke-opacity:1; fill:none" points="250.028,872.806 268.926,872.806 "/>
<polyline clip-path="url(#clip550)" style="stroke:#000000; stroke-linecap:round; stroke-linejoin:round; stroke-width:4; stroke-opacity:1; fill:none" points="250.028,597.618 268.926,597.618 "/>
<polyline clip-path="url(#clip550)" style="stroke:#000000; stroke-linecap:round; stroke-linejoin:round; stroke-width:4; stroke-opacity:1; fill:none" points="250.028,322.431 268.926,322.431 "/>
<path clip-path="url(#clip550)" d="M126.691 1408.98 Q123.08 1408.98 121.251 1412.54 Q119.445 1416.08 119.445 1423.21 Q119.445 1430.32 121.251 1433.89 Q123.08 1437.43 126.691 1437.43 Q130.325 1437.43 132.13 1433.89 Q133.959 1430.32 133.959 1423.21 Q133.959 1416.08 132.13 1412.54 Q130.325 1408.98 126.691 1408.98 M126.691 1405.27 Q132.501 1405.27 135.556 1409.88 Q138.635 1414.46 138.635 1423.21 Q138.635 1431.94 135.556 1436.55 Q132.501 1441.13 126.691 1441.13 Q120.88 1441.13 117.802 1436.55 Q114.746 1431.94 114.746 1423.21 Q114.746 1414.46 117.802 1409.88 Q120.88 1405.27 126.691 1405.27 Z" fill="#000000" fill-rule="nonzero" fill-opacity="1" /><path clip-path="url(#clip550)" d="M146.853 1434.58 L151.737 1434.58 L151.737 1440.46 L146.853 1440.46 L146.853 1434.58 Z" fill="#000000" fill-rule="nonzero" fill-opacity="1" /><path clip-path="url(#clip550)" d="M171.922 1408.98 Q168.311 1408.98 166.482 1412.54 Q164.677 1416.08 164.677 1423.21 Q164.677 1430.32 166.482 1433.89 Q168.311 1437.43 171.922 1437.43 Q175.556 1437.43 177.362 1433.89 Q179.19 1430.32 179.19 1423.21 Q179.19 1416.08 177.362 1412.54 Q175.556 1408.98 171.922 1408.98 M171.922 1405.27 Q177.732 1405.27 180.788 1409.88 Q183.866 1414.46 183.866 1423.21 Q183.866 1431.94 180.788 1436.55 Q177.732 1441.13 171.922 1441.13 Q166.112 1441.13 163.033 1436.55 Q159.978 1431.94 159.978 1423.21 Q159.978 1414.46 163.033 1409.88 Q166.112 1405.27 171.922 1405.27 Z" fill="#000000" fill-rule="nonzero" fill-opacity="1" /><path clip-path="url(#clip550)" d="M202.084 1408.98 Q198.473 1408.98 196.644 1412.54 Q194.838 1416.08 194.838 1423.21 Q194.838 1430.32 196.644 1433.89 Q198.473 1437.43 202.084 1437.43 Q205.718 1437.43 207.524 1433.89 Q209.352 1430.32 209.352 1423.21 Q209.352 1416.08 207.524 1412.54 Q205.718 1408.98 202.084 1408.98 M202.084 1405.27 Q207.894 1405.27 210.949 1409.88 Q214.028 1414.46 214.028 1423.21 Q214.028 1431.94 210.949 1436.55 Q207.894 1441.13 202.084 1441.13 Q196.274 1441.13 193.195 1436.55 Q190.139 1431.94 190.139 1423.21 Q190.139 1414.46 193.195 1409.88 Q196.274 1405.27 202.084 1405.27 Z" fill="#000000" fill-rule="nonzero" fill-opacity="1" /><path clip-path="url(#clip550)" d="M127.917 1133.79 Q124.306 1133.79 122.478 1137.36 Q120.672 1140.9 120.672 1148.03 Q120.672 1155.13 122.478 1158.7 Q124.306 1162.24 127.917 1162.24 Q131.552 1162.24 133.357 1158.7 Q135.186 1155.13 135.186 1148.03 Q135.186 1140.9 133.357 1137.36 Q131.552 1133.79 127.917 1133.79 M127.917 1130.09 Q133.728 1130.09 136.783 1134.69 Q139.862 1139.28 139.862 1148.03 Q139.862 1156.75 136.783 1161.36 Q133.728 1165.94 127.917 1165.94 Q122.107 1165.94 119.029 1161.36 Q115.973 1156.75 115.973 1148.03 Q115.973 1139.28 119.029 1134.69 Q122.107 1130.09 127.917 1130.09 Z" fill="#000000" fill-rule="nonzero" fill-opacity="1" /><path clip-path="url(#clip550)" d="M148.079 1159.39 L152.964 1159.39 L152.964 1165.27 L148.079 1165.27 L148.079 1159.39 Z" fill="#000000" fill-rule="nonzero" fill-opacity="1" /><path clip-path="url(#clip550)" d="M173.149 1133.79 Q169.538 1133.79 167.709 1137.36 Q165.903 1140.9 165.903 1148.03 Q165.903 1155.13 167.709 1158.7 Q169.538 1162.24 173.149 1162.24 Q176.783 1162.24 178.589 1158.7 Q180.417 1155.13 180.417 1148.03 Q180.417 1140.9 178.589 1137.36 Q176.783 1133.79 173.149 1133.79 M173.149 1130.09 Q178.959 1130.09 182.014 1134.69 Q185.093 1139.28 185.093 1148.03 Q185.093 1156.75 182.014 1161.36 Q178.959 1165.94 173.149 1165.94 Q167.339 1165.94 164.26 1161.36 Q161.204 1156.75 161.204 1148.03 Q161.204 1139.28 164.26 1134.69 Q167.339 1130.09 173.149 1130.09 Z" fill="#000000" fill-rule="nonzero" fill-opacity="1" /><path clip-path="url(#clip550)" d="M194.121 1161.34 L201.76 1161.34 L201.76 1134.97 L193.45 1136.64 L193.45 1132.38 L201.713 1130.71 L206.389 1130.71 L206.389 1161.34 L214.028 1161.34 L214.028 1165.27 L194.121 1165.27 L194.121 1161.34 Z" fill="#000000" fill-rule="nonzero" fill-opacity="1" /><path clip-path="url(#clip550)" d="M128.288 858.604 Q124.677 858.604 122.848 862.169 Q121.043 865.711 121.043 872.84 Q121.043 879.947 122.848 883.512 Q124.677 887.053 128.288 887.053 Q131.922 887.053 133.728 883.512 Q135.556 879.947 135.556 872.84 Q135.556 865.711 133.728 862.169 Q131.922 858.604 128.288 858.604 M128.288 854.901 Q134.098 854.901 137.154 859.507 Q140.232 864.09 140.232 872.84 Q140.232 881.567 137.154 886.174 Q134.098 890.757 128.288 890.757 Q122.478 890.757 119.399 886.174 Q116.343 881.567 116.343 872.84 Q116.343 864.09 119.399 859.507 Q122.478 854.901 128.288 854.901 Z" fill="#000000" fill-rule="nonzero" fill-opacity="1" /><path clip-path="url(#clip550)" d="M148.45 884.206 L153.334 884.206 L153.334 890.086 L148.45 890.086 L148.45 884.206 Z" fill="#000000" fill-rule="nonzero" fill-opacity="1" /><path clip-path="url(#clip550)" d="M173.519 858.604 Q169.908 858.604 168.079 862.169 Q166.274 865.711 166.274 872.84 Q166.274 879.947 168.079 883.512 Q169.908 887.053 173.519 887.053 Q177.153 887.053 178.959 883.512 Q180.788 879.947 180.788 872.84 Q180.788 865.711 178.959 862.169 Q177.153 858.604 173.519 858.604 M173.519 854.901 Q179.329 854.901 182.385 859.507 Q185.463 864.09 185.463 872.84 Q185.463 881.567 182.385 886.174 Q179.329 890.757 173.519 890.757 Q167.709 890.757 164.63 886.174 Q161.575 881.567 161.575 872.84 Q161.575 864.09 164.63 859.507 Q167.709 854.901 173.519 854.901 Z" fill="#000000" fill-rule="nonzero" fill-opacity="1" /><path clip-path="url(#clip550)" d="M197.709 886.15 L214.028 886.15 L214.028 890.086 L192.084 890.086 L192.084 886.15 Q194.746 883.396 199.329 878.766 Q203.936 874.113 205.116 872.771 Q207.362 870.248 208.241 868.512 Q209.144 866.752 209.144 865.063 Q209.144 862.308 207.199 860.572 Q205.278 858.836 202.176 858.836 Q199.977 858.836 197.524 859.6 Q195.093 860.363 192.315 861.914 L192.315 857.192 Q195.139 856.058 197.593 855.479 Q200.047 854.901 202.084 854.901 Q207.454 854.901 210.649 857.586 Q213.843 860.271 213.843 864.762 Q213.843 866.891 213.033 868.813 Q212.246 870.711 210.139 873.303 Q209.561 873.975 206.459 877.192 Q203.357 880.387 197.709 886.15 Z" fill="#000000" fill-rule="nonzero" fill-opacity="1" /><path clip-path="url(#clip550)" d="M127.339 583.417 Q123.728 583.417 121.899 586.982 Q120.093 590.524 120.093 597.653 Q120.093 604.76 121.899 608.324 Q123.728 611.866 127.339 611.866 Q130.973 611.866 132.779 608.324 Q134.607 604.76 134.607 597.653 Q134.607 590.524 132.779 586.982 Q130.973 583.417 127.339 583.417 M127.339 579.713 Q133.149 579.713 136.204 584.32 Q139.283 588.903 139.283 597.653 Q139.283 606.38 136.204 610.986 Q133.149 615.57 127.339 615.57 Q121.529 615.57 118.45 610.986 Q115.394 606.38 115.394 597.653 Q115.394 588.903 118.45 584.32 Q121.529 579.713 127.339 579.713 Z" fill="#000000" fill-rule="nonzero" fill-opacity="1" /><path clip-path="url(#clip550)" d="M147.501 609.019 L152.385 609.019 L152.385 614.898 L147.501 614.898 L147.501 609.019 Z" fill="#000000" fill-rule="nonzero" fill-opacity="1" /><path clip-path="url(#clip550)" d="M172.57 583.417 Q168.959 583.417 167.13 586.982 Q165.325 590.524 165.325 597.653 Q165.325 604.76 167.13 608.324 Q168.959 611.866 172.57 611.866 Q176.204 611.866 178.01 608.324 Q179.839 604.76 179.839 597.653 Q179.839 590.524 178.01 586.982 Q176.204 583.417 172.57 583.417 M172.57 579.713 Q178.38 579.713 181.436 584.32 Q184.514 588.903 184.514 597.653 Q184.514 606.38 181.436 610.986 Q178.38 615.57 172.57 615.57 Q166.76 615.57 163.681 610.986 Q160.626 606.38 160.626 597.653 Q160.626 588.903 163.681 584.32 Q166.76 579.713 172.57 579.713 Z" fill="#000000" fill-rule="nonzero" fill-opacity="1" /><path clip-path="url(#clip550)" d="M206.899 596.264 Q210.255 596.982 212.13 599.25 Q214.028 601.519 214.028 604.852 Q214.028 609.968 210.51 612.769 Q206.991 615.57 200.51 615.57 Q198.334 615.57 196.019 615.13 Q193.727 614.713 191.274 613.857 L191.274 609.343 Q193.218 610.477 195.533 611.056 Q197.848 611.635 200.371 611.635 Q204.769 611.635 207.061 609.898 Q209.375 608.162 209.375 604.852 Q209.375 601.797 207.223 600.084 Q205.093 598.348 201.274 598.348 L197.246 598.348 L197.246 594.505 L201.459 594.505 Q204.908 594.505 206.737 593.139 Q208.565 591.75 208.565 589.158 Q208.565 586.496 206.667 585.084 Q204.792 583.649 201.274 583.649 Q199.352 583.649 197.153 584.065 Q194.954 584.482 192.315 585.362 L192.315 581.195 Q194.977 580.454 197.292 580.084 Q199.63 579.713 201.69 579.713 Q207.014 579.713 210.116 582.144 Q213.218 584.551 213.218 588.672 Q213.218 591.542 211.574 593.533 Q209.931 595.5 206.899 596.264 Z" fill="#000000" fill-rule="nonzero" fill-opacity="1" /><path clip-path="url(#clip550)" d="M126.205 308.23 Q122.593 308.23 120.765 311.795 Q118.959 315.336 118.959 322.466 Q118.959 329.572 120.765 333.137 Q122.593 336.679 126.205 336.679 Q129.839 336.679 131.644 333.137 Q133.473 329.572 133.473 322.466 Q133.473 315.336 131.644 311.795 Q129.839 308.23 126.205 308.23 M126.205 304.526 Q132.015 304.526 135.07 309.133 Q138.149 313.716 138.149 322.466 Q138.149 331.193 135.07 335.799 Q132.015 340.383 126.205 340.383 Q120.394 340.383 117.316 335.799 Q114.26 331.193 114.26 322.466 Q114.26 313.716 117.316 309.133 Q120.394 304.526 126.205 304.526 Z" fill="#000000" fill-rule="nonzero" fill-opacity="1" /><path clip-path="url(#clip550)" d="M146.366 333.832 L151.251 333.832 L151.251 339.711 L146.366 339.711 L146.366 333.832 Z" fill="#000000" fill-rule="nonzero" fill-opacity="1" /><path clip-path="url(#clip550)" d="M171.436 308.23 Q167.825 308.23 165.996 311.795 Q164.19 315.336 164.19 322.466 Q164.19 329.572 165.996 333.137 Q167.825 336.679 171.436 336.679 Q175.07 336.679 176.876 333.137 Q178.704 329.572 178.704 322.466 Q178.704 315.336 176.876 311.795 Q175.07 308.23 171.436 308.23 M171.436 304.526 Q177.246 304.526 180.301 309.133 Q183.38 313.716 183.38 322.466 Q183.38 331.193 180.301 335.799 Q177.246 340.383 171.436 340.383 Q165.626 340.383 162.547 335.799 Q159.491 331.193 159.491 322.466 Q159.491 313.716 162.547 309.133 Q165.626 304.526 171.436 304.526 Z" fill="#000000" fill-rule="nonzero" fill-opacity="1" /><path clip-path="url(#clip550)" d="M204.445 309.225 L192.639 327.674 L204.445 327.674 L204.445 309.225 M203.218 305.151 L209.098 305.151 L209.098 327.674 L214.028 327.674 L214.028 331.563 L209.098 331.563 L209.098 339.711 L204.445 339.711 L204.445 331.563 L188.843 331.563 L188.843 327.049 L203.218 305.151 Z" fill="#000000" fill-rule="nonzero" fill-opacity="1" /><path clip-path="url(#clip550)" d="M16.4842 878.806 L16.4842 869.226 L48.8219 857.099 L16.4842 844.909 L16.4842 835.329 L64.0042 835.329 L64.0042 841.599 L22.277 841.599 L54.8694 853.853 L54.8694 860.314 L22.277 872.568 L64.0042 872.568 L64.0042 878.806 L16.4842 878.806 Z" fill="#000000" fill-rule="nonzero" fill-opacity="1" /><path clip-path="url(#clip550)" d="M46.0847 806.619 Q46.0847 813.717 47.7079 816.454 Q49.3312 819.192 53.2461 819.192 Q56.3653 819.192 58.2114 817.155 Q60.0256 815.086 60.0256 811.553 Q60.0256 806.683 56.5881 803.755 Q53.1188 800.795 47.3897 800.795 L46.0847 800.795 L46.0847 806.619 M43.6657 794.938 L64.0042 794.938 L64.0042 800.795 L58.5933 800.795 Q61.8398 802.8 63.3994 805.792 Q64.9272 808.784 64.9272 813.112 Q64.9272 818.587 61.8716 821.833 Q58.7843 825.048 53.6281 825.048 Q47.6125 825.048 44.5569 821.038 Q41.5014 816.995 41.5014 809.006 L41.5014 800.795 L40.9285 800.795 Q36.8862 800.795 34.6901 803.468 Q32.4621 806.11 32.4621 810.916 Q32.4621 813.972 33.1941 816.868 Q33.9262 819.764 35.3903 822.438 L29.9795 822.438 Q28.7381 819.223 28.1334 816.2 Q27.4968 813.176 27.4968 810.311 Q27.4968 802.577 31.5072 798.758 Q35.5176 794.938 43.6657 794.938 Z" fill="#000000" fill-rule="nonzero" fill-opacity="1" /><path clip-path="url(#clip550)" d="M29.4065 760.15 L34.9447 760.15 Q33.6716 762.632 33.035 765.306 Q32.3984 767.979 32.3984 770.844 Q32.3984 775.205 33.7352 777.401 Q35.072 779.565 37.7456 779.565 Q39.7826 779.565 40.9603 778.005 Q42.1061 776.446 43.1565 771.735 L43.6021 769.73 Q44.9389 763.492 47.3897 760.882 Q49.8086 758.24 54.1691 758.24 Q59.1344 758.24 62.0308 762.187 Q64.9272 766.102 64.9272 772.977 Q64.9272 775.841 64.3543 778.96 Q63.8132 782.048 62.6992 785.485 L56.6518 785.485 Q58.3387 782.239 59.198 779.088 Q60.0256 775.937 60.0256 772.849 Q60.0256 768.711 58.6251 766.484 Q57.1929 764.256 54.6147 764.256 Q52.2276 764.256 50.9545 765.879 Q49.6813 767.47 48.5037 772.913 L48.0262 774.95 Q46.8804 780.393 44.5251 782.812 Q42.138 785.231 38.0002 785.231 Q32.9713 785.231 30.2341 781.666 Q27.4968 778.101 27.4968 771.544 Q27.4968 768.298 27.9743 765.433 Q28.4517 762.569 29.4065 760.15 Z" fill="#000000" fill-rule="nonzero" fill-opacity="1" /><path clip-path="url(#clip550)" d="M29.4065 726.189 L34.9447 726.189 Q33.6716 728.671 33.035 731.345 Q32.3984 734.018 32.3984 736.883 Q32.3984 741.243 33.7352 743.44 Q35.072 745.604 37.7456 745.604 Q39.7826 745.604 40.9603 744.044 Q42.1061 742.485 43.1565 737.774 L43.6021 735.769 Q44.9389 729.531 47.3897 726.921 Q49.8086 724.279 54.1691 724.279 Q59.1344 724.279 62.0308 728.226 Q64.9272 732.141 64.9272 739.015 Q64.9272 741.88 64.3543 744.999 Q63.8132 748.087 62.6992 751.524 L56.6518 751.524 Q58.3387 748.278 59.198 745.127 Q60.0256 741.976 60.0256 738.888 Q60.0256 734.75 58.6251 732.522 Q57.1929 730.294 54.6147 730.294 Q52.2276 730.294 50.9545 731.918 Q49.6813 733.509 48.5037 738.952 L48.0262 740.989 Q46.8804 746.432 44.5251 748.85 Q42.138 751.269 38.0002 751.269 Q32.9713 751.269 30.2341 747.705 Q27.4968 744.14 27.4968 737.583 Q27.4968 734.337 27.9743 731.472 Q28.4517 728.608 29.4065 726.189 Z" fill="#000000" fill-rule="nonzero" fill-opacity="1" /><path clip-path="url(#clip550)" d="M14.5426 680.165 Q21.8632 684.43 29.0246 686.498 Q36.186 688.567 43.5384 688.567 Q50.8908 688.567 58.1159 686.498 Q65.3091 684.398 72.5979 680.165 L72.5979 685.257 Q65.1182 690.031 57.8931 692.419 Q50.668 694.774 43.5384 694.774 Q36.4406 694.774 29.2474 692.419 Q22.0542 690.063 14.5426 685.257 L14.5426 680.165 Z" fill="#000000" fill-rule="nonzero" fill-opacity="1" /><path clip-path="url(#clip550)" d="M35.1993 641.047 Q31.2526 638.851 29.3747 635.796 Q27.4968 632.74 27.4968 628.602 Q27.4968 623.032 31.4117 620.009 Q35.2948 616.985 42.4881 616.985 L64.0042 616.985 L64.0042 622.873 L42.679 622.873 Q37.5546 622.873 35.072 624.687 Q32.5894 626.502 32.5894 630.226 Q32.5894 634.777 35.6131 637.419 Q38.6368 640.061 43.8567 640.061 L64.0042 640.061 L64.0042 645.949 L42.679 645.949 Q37.5228 645.949 35.072 647.763 Q32.5894 649.577 32.5894 653.365 Q32.5894 657.853 35.6449 660.494 Q38.6686 663.136 43.8567 663.136 L64.0042 663.136 L64.0042 669.025 L28.3562 669.025 L28.3562 663.136 L33.8944 663.136 Q30.616 661.131 29.0564 658.33 Q27.4968 655.529 27.4968 651.678 Q27.4968 647.795 29.4702 645.089 Q31.4436 642.352 35.1993 641.047 Z" fill="#000000" fill-rule="nonzero" fill-opacity="1" /><path clip-path="url(#clip550)" d="M14.5426 606.227 L14.5426 601.134 Q22.0542 596.36 29.2474 594.005 Q36.4406 591.618 43.5384 591.618 Q50.668 591.618 57.8931 594.005 Q65.1182 596.36 72.5979 601.134 L72.5979 606.227 Q65.3091 601.994 58.1159 599.925 Q50.8908 597.824 43.5384 597.824 Q36.186 597.824 29.0246 599.925 Q21.8632 601.994 14.5426 606.227 Z" fill="#000000" fill-rule="nonzero" fill-opacity="1" /><path clip-path="url(#clip552)" d="M250.028 1065.52 L1180.52 1065.52 L1180.52 1065.52 L1180.51 1065.53 L1180.4 1065.57 L1179.34 1066.03 L1168.72 1070.58 L1062.52 1116.11 L346.305 1423.18 L346.305 1423.18 L250.028 1423.18 L250.028 1065.52  Z" fill="#a52a2a" fill-rule="evenodd" fill-opacity="0.35"/>
<polyline clip-path="url(#clip552)" style="stroke:#000000; stroke-linecap:round; stroke-linejoin:round; stroke-width:4; stroke-opacity:0; fill:none" points="250.028,1065.52 1180.52,1065.52 1180.51,1065.53 1180.4,1065.57 1179.34,1066.03 1168.72,1070.58 1062.52,1116.11 346.305,1423.18 250.028,1423.18 250.028,1065.52 "/>
<path clip-path="url(#clip552)" d="M250.028 1065.52 L1180.52 1065.52 L1180.52 1065.52 L1180.53 1065.51 L1180.57 1065.4 L1181.07 1064.31 L1186 1053.22 L1206.07 1004.39 L1244.1 893.527 L1295.77 694.441 L1360.65 335.284 L1398.68 47.2441 L1398.68 47.2441 L250.028 47.2441 L250.028 1065.52  Z" fill="#0000ff" fill-rule="evenodd" fill-opacity="0.35"/>
<polyline clip-path="url(#clip552)" style="stroke:#000000; stroke-linecap:round; stroke-linejoin:round; stroke-width:4; stroke-opacity:0; fill:none" points="250.028,1065.52 1180.52,1065.52 1180.53,1065.51 1180.57,1065.4 1181.07,1064.31 1186,1053.22 1206.07,1004.39 1244.1,893.527 1295.77,694.441 1360.65,335.284 1398.68,47.2441 250.028,47.2441 250.028,1065.52 "/>
<path clip-path="url(#clip552)" d="M1398.68 47.2441 L1398.68 47.2441 L1360.65 335.284 L1295.77 694.441 L1244.1 893.527 L1206.07 1004.39 L1186 1053.22 L1181.07 1064.31 L1180.57 1065.4 L1180.53 1065.51 L1180.52 1065.52 L1180.52 1065.52 L1329.34 972.557 L1417.42 879.592 L1474.1 786.627 L1516.36 693.661 L1549.06 600.696 L1574.1 507.731 L1594.17 414.765 L1610.63 321.8 L1624.37 228.835 L1624.37 228.835 L1652.89 47.2441 L250.028 47.2441 L1398.68 47.2441  Z" fill="#9acd32" fill-rule="evenodd" fill-opacity="0.35"/>
<polyline clip-path="url(#clip552)" style="stroke:#000000; stroke-linecap:round; stroke-linejoin:round; stroke-width:4; stroke-opacity:0; fill:none" points="1398.68,47.2441 1398.68,47.2441 1360.65,335.284 1295.77,694.441 1244.1,893.527 1206.07,1004.39 1186,1053.22 1181.07,1064.31 1180.57,1065.4 1180.53,1065.51 1180.52,1065.52 1329.34,972.557 1417.42,879.592 1474.1,786.627 1516.36,693.661 1549.06,600.696 1574.1,507.731 1594.17,414.765 1610.63,321.8 1624.37,228.835 1652.89,47.2441 250.028,47.2441 1398.68,47.2441 "/>
<path clip-path="url(#clip552)" d="M346.305 1423.18 L346.305 1423.18 L1062.52 1116.11 L1168.72 1070.58 L1179.34 1066.03 L1180.4 1065.57 L1180.51 1065.53 L1180.52 1065.52 L1180.52 1065.52 L1329.34 972.557 L1417.42 879.592 L1474.1 786.627 L1516.36 693.661 L1549.06 600.696 L1574.1 507.731 L1594.17 414.765 L1610.63 321.8 L1624.37 228.835 L1624.37 228.835 L1652.89 47.2441 L250.028 47.2441 L2352.76 47.2441 L2352.76 1423.18 L250.028 1423.18 L346.305 1423.18  Z" fill="#ff0000" fill-rule="evenodd" fill-opacity="0.35"/>
<polyline clip-path="url(#clip552)" style="stroke:#000000; stroke-linecap:round; stroke-linejoin:round; stroke-width:4; stroke-opacity:0; fill:none" points="346.305,1423.18 346.305,1423.18 1062.52,1116.11 1168.72,1070.58 1179.34,1066.03 1180.4,1065.57 1180.51,1065.53 1180.52,1065.52 1329.34,972.557 1417.42,879.592 1474.1,786.627 1516.36,693.661 1549.06,600.696 1574.1,507.731 1594.17,414.765 1610.63,321.8 1624.37,228.835 1652.89,47.2441 250.028,47.2441 2352.76,47.2441 2352.76,1423.18 250.028,1423.18 346.305,1423.18 "/>
<polyline clip-path="url(#clip552)" style="stroke:#808080; stroke-linecap:round; stroke-linejoin:round; stroke-width:4; stroke-opacity:1; fill:none" points="1180.52,1065.52 1180.53,1065.51 1180.57,1065.4 1181.07,1064.31 1186,1053.22 1206.07,1004.39 1244.1,893.527 1295.77,694.441 1360.65,335.284 1398.68,47.2441 "/>
<polyline clip-path="url(#clip552)" style="stroke:#808080; stroke-linecap:round; stroke-linejoin:round; stroke-width:4; stroke-opacity:1; fill:none" points="1180.52,1065.52 1180.51,1065.53 1180.4,1065.57 1179.34,1066.03 1168.72,1070.58 1062.52,1116.11 346.305,1423.18 "/>
<polyline clip-path="url(#clip552)" style="stroke:#008000; stroke-linecap:round; stroke-linejoin:round; stroke-width:12; stroke-opacity:1; fill:none" points="250.028,1065.52 1180.52,1065.52 "/>
<polyline clip-path="url(#clip552)" style="stroke:#ffd700; stroke-linecap:round; stroke-linejoin:round; stroke-width:12; stroke-opacity:1; fill:none" points="1180.52,1065.52 1329.34,972.557 1417.42,879.592 1474.1,786.627 1516.36,693.661 1549.06,600.696 1574.1,507.731 1594.17,414.765 1610.63,321.8 1624.37,228.835 "/>
<polyline clip-path="url(#clip552)" style="stroke:#808080; stroke-linecap:round; stroke-linejoin:round; stroke-width:12; stroke-opacity:1; fill:none" points="1624.37,228.835 1652.89,47.2441 "/>
<path clip-path="url(#clip550)" d="M1714.57 507.829 L2282.66 507.829 L2282.66 93.1086 L1714.57 93.1086  Z" fill="#ffffff" fill-rule="evenodd" fill-opacity="1"/>
<polyline clip-path="url(#clip550)" style="stroke:#000000; stroke-linecap:round; stroke-linejoin:round; stroke-width:4; stroke-opacity:1; fill:none" points="1714.57,507.829 2282.66,507.829 2282.66,93.1086 1714.57,93.1086 1714.57,507.829 "/>
<path clip-path="url(#clip550)" d="M1737.93 165.685 L1878.12 165.685 L1878.12 124.213 L1737.93 124.213 L1737.93 165.685  Z" fill="#a52a2a" fill-rule="evenodd" fill-opacity="0.35"/>
<polyline clip-path="url(#clip550)" style="stroke:#000000; stroke-linecap:round; stroke-linejoin:round; stroke-width:4; stroke-opacity:0; fill:none" points="1737.93,165.685 1878.12,165.685 1878.12,124.213 1737.93,124.213 1737.93,165.685 "/>
<path clip-path="url(#clip550)" d="M1901.48 151.997 L1901.48 136.303 L1905.74 136.303 L1905.74 151.835 Q1905.74 155.516 1907.17 157.368 Q1908.61 159.196 1911.48 159.196 Q1914.93 159.196 1916.92 156.997 Q1918.93 154.798 1918.93 151.002 L1918.93 136.303 L1923.19 136.303 L1923.19 162.229 L1918.93 162.229 L1918.93 158.247 Q1917.38 160.608 1915.32 161.766 Q1913.28 162.9 1910.58 162.9 Q1906.11 162.9 1903.79 160.122 Q1901.48 157.344 1901.48 151.997 M1912.2 135.678 L1912.2 135.678 Z" fill="#000000" fill-rule="nonzero" fill-opacity="1" /><path clip-path="url(#clip550)" d="M1941.22 145.585 L1941.22 152.807 L1949.35 152.807 L1949.35 155.006 L1941.22 155.006 L1941.22 162.229 L1938.79 162.229 L1938.79 155.006 L1930.67 155.006 L1930.67 152.807 L1938.79 152.807 L1938.79 145.585 L1941.22 145.585 Z" fill="#000000" fill-rule="nonzero" fill-opacity="1" /><path clip-path="url(#clip550)" d="M1982.43 142.946 Q1980.58 142.946 1979.3 144.243 Q1978.03 145.516 1978.03 147.368 Q1978.03 149.196 1979.3 150.469 Q1980.58 151.719 1982.43 151.719 Q1984.28 151.719 1985.55 150.469 Q1986.83 149.196 1986.83 147.368 Q1986.83 145.539 1985.53 144.243 Q1984.26 142.946 1982.43 142.946 M1982.43 139.96 Q1983.91 139.96 1985.28 140.539 Q1986.64 141.094 1987.64 142.159 Q1988.7 143.201 1989.23 144.52 Q1989.77 145.84 1989.77 147.368 Q1989.77 150.423 1987.61 152.553 Q1985.48 154.659 1982.38 154.659 Q1979.26 154.659 1977.17 152.576 Q1975.09 150.493 1975.09 147.368 Q1975.09 144.266 1977.22 142.113 Q1979.35 139.96 1982.43 139.96 Z" fill="#000000" fill-rule="nonzero" fill-opacity="1" /><path clip-path="url(#clip550)" d="M2016.36 151.997 L2016.36 136.303 L2020.62 136.303 L2020.62 151.835 Q2020.62 155.516 2022.06 157.368 Q2023.49 159.196 2026.36 159.196 Q2029.81 159.196 2031.8 156.997 Q2033.82 154.798 2033.82 151.002 L2033.82 136.303 L2038.08 136.303 L2038.08 162.229 L2033.82 162.229 L2033.82 158.247 Q2032.27 160.608 2030.21 161.766 Q2028.17 162.9 2025.46 162.9 Q2020.99 162.9 2018.68 160.122 Q2016.36 157.344 2016.36 151.997 M2027.08 135.678 L2027.08 135.678 Z" fill="#000000" fill-rule="nonzero" fill-opacity="1" /><path clip-path="url(#clip550)" d="M2056.69 147.761 L2056.69 150.006 Q2055.55 149.497 2054.33 149.243 Q2053.12 148.988 2051.8 148.988 Q2049.79 148.988 2048.79 149.52 Q2047.8 150.076 2047.8 151.164 Q2047.8 151.997 2048.52 152.46 Q2049.23 152.946 2051.39 153.363 L2052.31 153.548 Q2055.21 154.104 2056.36 155.076 Q2057.57 156.071 2057.57 157.854 Q2057.57 159.868 2055.76 161.048 Q2053.98 162.229 2050.83 162.229 Q2049.51 162.229 2048.08 161.997 Q2046.66 161.766 2045.09 161.326 L2045.09 158.849 Q2046.57 159.543 2048.03 159.891 Q2049.46 160.238 2050.88 160.238 Q2052.77 160.238 2053.79 159.659 Q2054.81 159.08 2054.81 158.039 Q2054.81 157.067 2054.07 156.534 Q2053.42 156.071 2050.85 155.539 L2049.93 155.354 Q2047.43 154.868 2046.32 153.918 Q2045.21 152.946 2045.21 151.256 Q2045.21 149.219 2046.85 148.108 Q2048.47 146.974 2051.48 146.974 Q2052.96 146.974 2054.28 147.182 Q2055.6 147.368 2056.69 147.761 Z" fill="#000000" fill-rule="nonzero" fill-opacity="1" /><path clip-path="url(#clip550)" d="M2089.97 142.946 Q2088.12 142.946 2086.85 144.243 Q2085.58 145.516 2085.58 147.368 Q2085.58 149.196 2086.85 150.469 Q2088.12 151.719 2089.97 151.719 Q2091.83 151.719 2093.1 150.469 Q2094.37 149.196 2094.37 147.368 Q2094.37 145.539 2093.08 144.243 Q2091.8 142.946 2089.97 142.946 M2089.97 139.96 Q2091.46 139.96 2092.82 140.539 Q2094.19 141.094 2095.18 142.159 Q2096.25 143.201 2096.78 144.52 Q2097.31 145.84 2097.31 147.368 Q2097.31 150.423 2095.16 152.553 Q2093.03 154.659 2089.93 154.659 Q2086.8 154.659 2084.72 152.576 Q2082.64 150.493 2082.64 147.368 Q2082.64 144.266 2084.77 142.113 Q2086.89 139.96 2089.97 139.96 Z" fill="#000000" fill-rule="nonzero" fill-opacity="1" /><path clip-path="url(#clip550)" d="M2123.91 151.997 L2123.91 136.303 L2128.17 136.303 L2128.17 151.835 Q2128.17 155.516 2129.6 157.368 Q2131.04 159.196 2133.91 159.196 Q2137.36 159.196 2139.35 156.997 Q2141.36 154.798 2141.36 151.002 L2141.36 136.303 L2145.62 136.303 L2145.62 162.229 L2141.36 162.229 L2141.36 158.247 Q2139.81 160.608 2137.75 161.766 Q2135.71 162.9 2133.01 162.9 Q2128.54 162.9 2126.22 160.122 Q2123.91 157.344 2123.91 151.997 M2134.63 135.678 L2134.63 135.678 Z" fill="#000000" fill-rule="nonzero" fill-opacity="1" /><path clip-path="url(#clip550)" d="M2163.65 145.585 L2163.65 152.807 L2171.78 152.807 L2171.78 155.006 L2163.65 155.006 L2163.65 162.229 L2161.22 162.229 L2161.22 155.006 L2153.1 155.006 L2153.1 152.807 L2161.22 152.807 L2161.22 145.585 L2163.65 145.585 Z" fill="#000000" fill-rule="nonzero" fill-opacity="1" /><path clip-path="url(#clip550)" d="M1737.93 217.525 L1878.12 217.525 L1878.12 176.053 L1737.93 176.053 L1737.93 217.525  Z" fill="#0000ff" fill-rule="evenodd" fill-opacity="0.35"/>
<polyline clip-path="url(#clip550)" style="stroke:#000000; stroke-linecap:round; stroke-linejoin:round; stroke-width:4; stroke-opacity:0; fill:none" points="1737.93,217.525 1878.12,217.525 1878.12,176.053 1737.93,176.053 1737.93,217.525 "/>
<path clip-path="url(#clip550)" d="M1901.48 203.837 L1901.48 188.143 L1905.74 188.143 L1905.74 203.675 Q1905.74 207.356 1907.17 209.208 Q1908.61 211.036 1911.48 211.036 Q1914.93 211.036 1916.92 208.837 Q1918.93 206.638 1918.93 202.842 L1918.93 188.143 L1923.19 188.143 L1923.19 214.069 L1918.93 214.069 L1918.93 210.087 Q1917.38 212.448 1915.32 213.606 Q1913.28 214.74 1910.58 214.74 Q1906.11 214.74 1903.79 211.962 Q1901.48 209.184 1901.48 203.837 M1912.2 187.518 L1912.2 187.518 Z" fill="#000000" fill-rule="nonzero" fill-opacity="1" /><path clip-path="url(#clip550)" d="M1930.67 204.647 L1949.35 204.647 L1949.35 206.846 L1930.67 206.846 L1930.67 204.647 Z" fill="#000000" fill-rule="nonzero" fill-opacity="1" /><path clip-path="url(#clip550)" d="M1982.43 194.786 Q1980.58 194.786 1979.3 196.083 Q1978.03 197.356 1978.03 199.208 Q1978.03 201.036 1979.3 202.309 Q1980.58 203.559 1982.43 203.559 Q1984.28 203.559 1985.55 202.309 Q1986.83 201.036 1986.83 199.208 Q1986.83 197.379 1985.53 196.083 Q1984.26 194.786 1982.43 194.786 M1982.43 191.8 Q1983.91 191.8 1985.28 192.379 Q1986.64 192.934 1987.64 193.999 Q1988.7 195.041 1989.23 196.36 Q1989.77 197.68 1989.77 199.208 Q1989.77 202.263 1987.61 204.393 Q1985.48 206.499 1982.38 206.499 Q1979.26 206.499 1977.17 204.416 Q1975.09 202.333 1975.09 199.208 Q1975.09 196.106 1977.22 193.953 Q1979.35 191.8 1982.43 191.8 Z" fill="#000000" fill-rule="nonzero" fill-opacity="1" /><path clip-path="url(#clip550)" d="M2016.36 203.837 L2016.36 188.143 L2020.62 188.143 L2020.62 203.675 Q2020.62 207.356 2022.06 209.208 Q2023.49 211.036 2026.36 211.036 Q2029.81 211.036 2031.8 208.837 Q2033.82 206.638 2033.82 202.842 L2033.82 188.143 L2038.08 188.143 L2038.08 214.069 L2033.82 214.069 L2033.82 210.087 Q2032.27 212.448 2030.21 213.606 Q2028.17 214.74 2025.46 214.74 Q2020.99 214.74 2018.68 211.962 Q2016.36 209.184 2016.36 203.837 M2027.08 187.518 L2027.08 187.518 Z" fill="#000000" fill-rule="nonzero" fill-opacity="1" /><path clip-path="url(#clip550)" d="M2056.69 199.601 L2056.69 201.846 Q2055.55 201.337 2054.33 201.083 Q2053.12 200.828 2051.8 200.828 Q2049.79 200.828 2048.79 201.36 Q2047.8 201.916 2047.8 203.004 Q2047.8 203.837 2048.52 204.3 Q2049.23 204.786 2051.39 205.203 L2052.31 205.388 Q2055.21 205.944 2056.36 206.916 Q2057.57 207.911 2057.57 209.694 Q2057.57 211.708 2055.76 212.888 Q2053.98 214.069 2050.83 214.069 Q2049.51 214.069 2048.08 213.837 Q2046.66 213.606 2045.09 213.166 L2045.09 210.689 Q2046.57 211.383 2048.03 211.731 Q2049.46 212.078 2050.88 212.078 Q2052.77 212.078 2053.79 211.499 Q2054.81 210.92 2054.81 209.879 Q2054.81 208.907 2054.07 208.374 Q2053.42 207.911 2050.85 207.379 L2049.93 207.194 Q2047.43 206.708 2046.32 205.758 Q2045.21 204.786 2045.21 203.096 Q2045.21 201.059 2046.85 199.948 Q2048.47 198.814 2051.48 198.814 Q2052.96 198.814 2054.28 199.022 Q2055.6 199.208 2056.69 199.601 Z" fill="#000000" fill-rule="nonzero" fill-opacity="1" /><path clip-path="url(#clip550)" d="M2089.97 194.786 Q2088.12 194.786 2086.85 196.083 Q2085.58 197.356 2085.58 199.208 Q2085.58 201.036 2086.85 202.309 Q2088.12 203.559 2089.97 203.559 Q2091.83 203.559 2093.1 202.309 Q2094.37 201.036 2094.37 199.208 Q2094.37 197.379 2093.08 196.083 Q2091.8 194.786 2089.97 194.786 M2089.97 191.8 Q2091.46 191.8 2092.82 192.379 Q2094.19 192.934 2095.18 193.999 Q2096.25 195.041 2096.78 196.36 Q2097.31 197.68 2097.31 199.208 Q2097.31 202.263 2095.16 204.393 Q2093.03 206.499 2089.93 206.499 Q2086.8 206.499 2084.72 204.416 Q2082.64 202.333 2082.64 199.208 Q2082.64 196.106 2084.77 193.953 Q2086.89 191.8 2089.97 191.8 Z" fill="#000000" fill-rule="nonzero" fill-opacity="1" /><path clip-path="url(#clip550)" d="M2123.91 203.837 L2123.91 188.143 L2128.17 188.143 L2128.17 203.675 Q2128.17 207.356 2129.6 209.208 Q2131.04 211.036 2133.91 211.036 Q2137.36 211.036 2139.35 208.837 Q2141.36 206.638 2141.36 202.842 L2141.36 188.143 L2145.62 188.143 L2145.62 214.069 L2141.36 214.069 L2141.36 210.087 Q2139.81 212.448 2137.75 213.606 Q2135.71 214.74 2133.01 214.74 Q2128.54 214.74 2126.22 211.962 Q2123.91 209.184 2123.91 203.837 M2134.63 187.518 L2134.63 187.518 Z" fill="#000000" fill-rule="nonzero" fill-opacity="1" /><path clip-path="url(#clip550)" d="M2163.65 197.425 L2163.65 204.647 L2171.78 204.647 L2171.78 206.846 L2163.65 206.846 L2163.65 214.069 L2161.22 214.069 L2161.22 206.846 L2153.1 206.846 L2153.1 204.647 L2161.22 204.647 L2161.22 197.425 L2163.65 197.425 Z" fill="#000000" fill-rule="nonzero" fill-opacity="1" /><path clip-path="url(#clip550)" d="M1737.93 269.365 L1878.12 269.365 L1878.12 227.893 L1737.93 227.893 L1737.93 269.365  Z" fill="#9acd32" fill-rule="evenodd" fill-opacity="0.35"/>
<polyline clip-path="url(#clip550)" style="stroke:#000000; stroke-linecap:round; stroke-linejoin:round; stroke-width:4; stroke-opacity:0; fill:none" points="1737.93,269.365 1878.12,269.365 1878.12,227.893 1737.93,227.893 1737.93,269.365 "/>
<path clip-path="url(#clip550)" d="M1901.48 255.677 L1901.48 239.983 L1905.74 239.983 L1905.74 255.515 Q1905.74 259.196 1907.17 261.048 Q1908.61 262.876 1911.48 262.876 Q1914.93 262.876 1916.92 260.677 Q1918.93 258.478 1918.93 254.682 L1918.93 239.983 L1923.19 239.983 L1923.19 265.909 L1918.93 265.909 L1918.93 261.927 Q1917.38 264.288 1915.32 265.446 Q1913.28 266.58 1910.58 266.58 Q1906.11 266.58 1903.79 263.802 Q1901.48 261.024 1901.48 255.677 M1912.2 239.358 L1912.2 239.358 Z" fill="#000000" fill-rule="nonzero" fill-opacity="1" /><path clip-path="url(#clip550)" d="M1930.67 256.487 L1949.35 256.487 L1949.35 258.686 L1930.67 258.686 L1930.67 256.487 Z" fill="#000000" fill-rule="nonzero" fill-opacity="1" /><path clip-path="url(#clip550)" d="M1982.43 246.626 Q1980.58 246.626 1979.3 247.923 Q1978.03 249.196 1978.03 251.048 Q1978.03 252.876 1979.3 254.149 Q1980.58 255.399 1982.43 255.399 Q1984.28 255.399 1985.55 254.149 Q1986.83 252.876 1986.83 251.048 Q1986.83 249.219 1985.53 247.923 Q1984.26 246.626 1982.43 246.626 M1982.43 243.64 Q1983.91 243.64 1985.28 244.219 Q1986.64 244.774 1987.64 245.839 Q1988.7 246.881 1989.23 248.2 Q1989.77 249.52 1989.77 251.048 Q1989.77 254.103 1987.61 256.233 Q1985.48 258.339 1982.38 258.339 Q1979.26 258.339 1977.17 256.256 Q1975.09 254.173 1975.09 251.048 Q1975.09 247.946 1977.22 245.793 Q1979.35 243.64 1982.43 243.64 Z" fill="#000000" fill-rule="nonzero" fill-opacity="1" /><path clip-path="url(#clip550)" d="M2016.36 255.677 L2016.36 239.983 L2020.62 239.983 L2020.62 255.515 Q2020.62 259.196 2022.06 261.048 Q2023.49 262.876 2026.36 262.876 Q2029.81 262.876 2031.8 260.677 Q2033.82 258.478 2033.82 254.682 L2033.82 239.983 L2038.08 239.983 L2038.08 265.909 L2033.82 265.909 L2033.82 261.927 Q2032.27 264.288 2030.21 265.446 Q2028.17 266.58 2025.46 266.58 Q2020.99 266.58 2018.68 263.802 Q2016.36 261.024 2016.36 255.677 M2027.08 239.358 L2027.08 239.358 Z" fill="#000000" fill-rule="nonzero" fill-opacity="1" /><path clip-path="url(#clip550)" d="M2056.11 249.265 L2056.11 256.487 L2064.23 256.487 L2064.23 258.686 L2056.11 258.686 L2056.11 265.909 L2053.68 265.909 L2053.68 258.686 L2045.55 258.686 L2045.55 256.487 L2053.68 256.487 L2053.68 249.265 L2056.11 249.265 Z" fill="#000000" fill-rule="nonzero" fill-opacity="1" /><path clip-path="url(#clip550)" d="M1737.93 321.205 L1878.12 321.205 L1878.12 279.733 L1737.93 279.733 L1737.93 321.205  Z" fill="#ff0000" fill-rule="evenodd" fill-opacity="0.35"/>
<polyline clip-path="url(#clip550)" style="stroke:#000000; stroke-linecap:round; stroke-linejoin:round; stroke-width:4; stroke-opacity:0; fill:none" points="1737.93,321.205 1878.12,321.205 1878.12,279.733 1737.93,279.733 1737.93,321.205 "/>
<path clip-path="url(#clip550)" d="M1901.48 307.517 L1901.48 291.823 L1905.74 291.823 L1905.74 307.355 Q1905.74 311.036 1907.17 312.888 Q1908.61 314.716 1911.48 314.716 Q1914.93 314.716 1916.92 312.517 Q1918.93 310.318 1918.93 306.522 L1918.93 291.823 L1923.19 291.823 L1923.19 317.749 L1918.93 317.749 L1918.93 313.767 Q1917.38 316.128 1915.32 317.286 Q1913.28 318.42 1910.58 318.42 Q1906.11 318.42 1903.79 315.642 Q1901.48 312.864 1901.48 307.517 M1912.2 291.198 L1912.2 291.198 Z" fill="#000000" fill-rule="nonzero" fill-opacity="1" /><path clip-path="url(#clip550)" d="M1941.22 301.105 L1941.22 308.327 L1949.35 308.327 L1949.35 310.526 L1941.22 310.526 L1941.22 317.749 L1938.79 317.749 L1938.79 310.526 L1930.67 310.526 L1930.67 308.327 L1938.79 308.327 L1938.79 301.105 L1941.22 301.105 Z" fill="#000000" fill-rule="nonzero" fill-opacity="1" /><polyline clip-path="url(#clip550)" style="stroke:#008000; stroke-linecap:round; stroke-linejoin:round; stroke-width:12; stroke-opacity:1; fill:none" points="1737.93,352.309 1878.12,352.309 "/>
<path clip-path="url(#clip550)" d="M1901.48 359.357 L1901.48 343.663 L1905.74 343.663 L1905.74 359.195 Q1905.74 362.876 1907.17 364.728 Q1908.61 366.556 1911.48 366.556 Q1914.93 366.556 1916.92 364.357 Q1918.93 362.158 1918.93 358.362 L1918.93 343.663 L1923.19 343.663 L1923.19 369.589 L1918.93 369.589 L1918.93 365.607 Q1917.38 367.968 1915.32 369.126 Q1913.28 370.26 1910.58 370.26 Q1906.11 370.26 1903.79 367.482 Q1901.48 364.704 1901.48 359.357 M1912.2 343.038 L1912.2 343.038 Z" fill="#000000" fill-rule="nonzero" fill-opacity="1" /><path clip-path="url(#clip550)" d="M1941.8 355.121 L1941.8 357.366 Q1940.67 356.857 1939.44 356.603 Q1938.24 356.348 1936.92 356.348 Q1934.9 356.348 1933.91 356.88 Q1932.91 357.436 1932.91 358.524 Q1932.91 359.357 1933.63 359.82 Q1934.35 360.306 1936.5 360.723 L1937.43 360.908 Q1940.32 361.464 1941.48 362.436 Q1942.68 363.431 1942.68 365.214 Q1942.68 367.228 1940.88 368.408 Q1939.09 369.589 1935.95 369.589 Q1934.63 369.589 1933.19 369.357 Q1931.78 369.126 1930.21 368.686 L1930.21 366.209 Q1931.69 366.903 1933.15 367.251 Q1934.58 367.598 1935.99 367.598 Q1937.89 367.598 1938.91 367.019 Q1939.93 366.44 1939.93 365.399 Q1939.93 364.427 1939.19 363.894 Q1938.54 363.431 1935.97 362.899 L1935.04 362.714 Q1932.54 362.228 1931.43 361.278 Q1930.32 360.306 1930.32 358.616 Q1930.32 356.579 1931.97 355.468 Q1933.59 354.334 1936.59 354.334 Q1938.08 354.334 1939.4 354.542 Q1940.72 354.728 1941.8 355.121 Z" fill="#000000" fill-rule="nonzero" fill-opacity="1" /><polyline clip-path="url(#clip550)" style="stroke:#ffd700; stroke-linecap:round; stroke-linejoin:round; stroke-width:12; stroke-opacity:1; fill:none" points="1737.93,404.149 1878.12,404.149 "/>
<path clip-path="url(#clip550)" d="M1919.91 396.267 L1919.91 400.294 Q1918.1 399.369 1916.16 398.906 Q1914.21 398.443 1912.13 398.443 Q1908.96 398.443 1907.36 399.415 Q1905.78 400.387 1905.78 402.331 Q1905.78 403.813 1906.92 404.669 Q1908.05 405.503 1911.48 406.267 L1912.94 406.591 Q1917.47 407.563 1919.37 409.345 Q1921.29 411.105 1921.29 414.276 Q1921.29 417.887 1918.42 419.993 Q1915.58 422.1 1910.58 422.1 Q1908.49 422.1 1906.22 421.683 Q1903.98 421.29 1901.48 420.48 L1901.48 416.081 Q1903.84 417.308 1906.13 417.933 Q1908.42 418.535 1910.67 418.535 Q1913.68 418.535 1915.3 417.517 Q1916.92 416.475 1916.92 414.6 Q1916.92 412.864 1915.74 411.938 Q1914.58 411.012 1910.62 410.156 L1909.14 409.808 Q1905.18 408.975 1903.42 407.262 Q1901.66 405.526 1901.66 402.517 Q1901.66 398.859 1904.26 396.869 Q1906.85 394.878 1911.62 394.878 Q1913.98 394.878 1916.06 395.225 Q1918.15 395.572 1919.91 396.267 Z" fill="#000000" fill-rule="nonzero" fill-opacity="1" /><path clip-path="url(#clip550)" d="M1925.6 395.503 L1929.86 395.503 L1935.18 415.734 L1940.48 395.503 L1945.51 395.503 L1950.83 415.734 L1956.13 395.503 L1960.39 395.503 L1953.61 421.429 L1948.59 421.429 L1943.01 400.179 L1937.4 421.429 L1932.38 421.429 L1925.6 395.503 Z" fill="#000000" fill-rule="nonzero" fill-opacity="1" /><path clip-path="url(#clip550)" d="M1966.85 395.503 L1971.11 395.503 L1971.11 421.429 L1966.85 421.429 L1966.85 395.503 M1966.85 385.41 L1971.11 385.41 L1971.11 390.804 L1966.85 390.804 L1966.85 385.41 Z" fill="#000000" fill-rule="nonzero" fill-opacity="1" /><path clip-path="url(#clip550)" d="M1984.23 388.142 L1984.23 395.503 L1993.01 395.503 L1993.01 398.813 L1984.23 398.813 L1984.23 412.887 Q1984.23 416.058 1985.09 416.961 Q1985.97 417.864 1988.63 417.864 L1993.01 417.864 L1993.01 421.429 L1988.63 421.429 Q1983.7 421.429 1981.83 419.6 Q1979.95 417.748 1979.95 412.887 L1979.95 398.813 L1976.83 398.813 L1976.83 395.503 L1979.95 395.503 L1979.95 388.142 L1984.23 388.142 Z" fill="#000000" fill-rule="nonzero" fill-opacity="1" /><path clip-path="url(#clip550)" d="M2017.27 396.498 L2017.27 400.48 Q2015.46 399.484 2013.63 398.998 Q2011.83 398.489 2009.97 398.489 Q2005.83 398.489 2003.54 401.128 Q2001.25 403.744 2001.25 408.489 Q2001.25 413.234 2003.54 415.873 Q2005.83 418.489 2009.97 418.489 Q2011.83 418.489 2013.63 418.003 Q2015.46 417.493 2017.27 416.498 L2017.27 420.433 Q2015.48 421.267 2013.56 421.683 Q2011.66 422.1 2009.51 422.1 Q2003.65 422.1 2000.21 418.419 Q1996.76 414.739 1996.76 408.489 Q1996.76 402.146 2000.23 398.512 Q2003.72 394.878 2009.79 394.878 Q2011.76 394.878 2013.63 395.295 Q2015.51 395.688 2017.27 396.498 Z" fill="#000000" fill-rule="nonzero" fill-opacity="1" /><path clip-path="url(#clip550)" d="M2046.22 405.781 L2046.22 421.429 L2041.96 421.429 L2041.96 405.919 Q2041.96 402.239 2040.53 400.41 Q2039.09 398.582 2036.22 398.582 Q2032.77 398.582 2030.78 400.781 Q2028.79 402.98 2028.79 406.776 L2028.79 421.429 L2024.51 421.429 L2024.51 385.41 L2028.79 385.41 L2028.79 399.531 Q2030.32 397.193 2032.38 396.035 Q2034.46 394.878 2037.17 394.878 Q2041.64 394.878 2043.93 397.656 Q2046.22 400.41 2046.22 405.781 Z" fill="#000000" fill-rule="nonzero" fill-opacity="1" /><path clip-path="url(#clip550)" d="M2054.72 395.503 L2058.98 395.503 L2058.98 421.429 L2054.72 421.429 L2054.72 395.503 M2054.72 385.41 L2058.98 385.41 L2058.98 390.804 L2054.72 390.804 L2054.72 385.41 Z" fill="#000000" fill-rule="nonzero" fill-opacity="1" /><path clip-path="url(#clip550)" d="M2089.44 405.781 L2089.44 421.429 L2085.18 421.429 L2085.18 405.919 Q2085.18 402.239 2083.75 400.41 Q2082.31 398.582 2079.44 398.582 Q2075.99 398.582 2074 400.781 Q2072.01 402.98 2072.01 406.776 L2072.01 421.429 L2067.73 421.429 L2067.73 395.503 L2072.01 395.503 L2072.01 399.531 Q2073.54 397.193 2075.6 396.035 Q2077.68 394.878 2080.39 394.878 Q2084.86 394.878 2087.15 397.656 Q2089.44 400.41 2089.44 405.781 Z" fill="#000000" fill-rule="nonzero" fill-opacity="1" /><path clip-path="url(#clip550)" d="M2115 408.165 Q2115 403.535 2113.08 400.989 Q2111.18 398.443 2107.73 398.443 Q2104.3 398.443 2102.38 400.989 Q2100.48 403.535 2100.48 408.165 Q2100.48 412.771 2102.38 415.318 Q2104.3 417.864 2107.73 417.864 Q2111.18 417.864 2113.08 415.318 Q2115 412.771 2115 408.165 M2119.26 418.211 Q2119.26 424.831 2116.32 428.049 Q2113.38 431.29 2107.31 431.29 Q2105.07 431.29 2103.08 430.942 Q2101.08 430.618 2099.21 429.924 L2099.21 425.78 Q2101.08 426.799 2102.91 427.285 Q2104.74 427.771 2106.64 427.771 Q2110.83 427.771 2112.91 425.572 Q2115 423.396 2115 418.975 L2115 416.868 Q2113.68 419.16 2111.62 420.294 Q2109.56 421.429 2106.69 421.429 Q2101.92 421.429 2099 417.794 Q2096.08 414.16 2096.08 408.165 Q2096.08 402.146 2099 398.512 Q2101.92 394.878 2106.69 394.878 Q2109.56 394.878 2111.62 396.012 Q2113.68 397.146 2115 399.438 L2115 395.503 L2119.26 395.503 L2119.26 418.211 Z" fill="#000000" fill-rule="nonzero" fill-opacity="1" /><path clip-path="url(#clip550)" d="M2143.1 385.41 L2147.36 385.41 L2147.36 421.429 L2143.1 421.429 L2143.1 385.41 Z" fill="#000000" fill-rule="nonzero" fill-opacity="1" /><path clip-path="url(#clip550)" d="M2166.32 398.489 Q2162.89 398.489 2160.9 401.174 Q2158.91 403.836 2158.91 408.489 Q2158.91 413.142 2160.88 415.827 Q2162.87 418.489 2166.32 418.489 Q2169.72 418.489 2171.71 415.804 Q2173.7 413.118 2173.7 408.489 Q2173.7 403.882 2171.71 401.197 Q2169.72 398.489 2166.32 398.489 M2166.32 394.878 Q2171.87 394.878 2175.04 398.489 Q2178.21 402.1 2178.21 408.489 Q2178.21 414.855 2175.04 418.489 Q2171.87 422.1 2166.32 422.1 Q2160.74 422.1 2157.57 418.489 Q2154.42 414.855 2154.42 408.489 Q2154.42 402.1 2157.57 398.489 Q2160.74 394.878 2166.32 394.878 Z" fill="#000000" fill-rule="nonzero" fill-opacity="1" /><path clip-path="url(#clip550)" d="M2203.93 396.498 L2203.93 400.48 Q2202.13 399.484 2200.3 398.998 Q2198.49 398.489 2196.64 398.489 Q2192.5 398.489 2190.2 401.128 Q2187.91 403.744 2187.91 408.489 Q2187.91 413.234 2190.2 415.873 Q2192.5 418.489 2196.64 418.489 Q2198.49 418.489 2200.3 418.003 Q2202.13 417.493 2203.93 416.498 L2203.93 420.433 Q2202.15 421.267 2200.23 421.683 Q2198.33 422.1 2196.18 422.1 Q2190.32 422.1 2186.87 418.419 Q2183.42 414.739 2183.42 408.489 Q2183.42 402.146 2186.89 398.512 Q2190.39 394.878 2196.45 394.878 Q2198.42 394.878 2200.3 395.295 Q2202.17 395.688 2203.93 396.498 Z" fill="#000000" fill-rule="nonzero" fill-opacity="1" /><path clip-path="url(#clip550)" d="M2210.9 411.197 L2210.9 395.503 L2215.16 395.503 L2215.16 411.035 Q2215.16 414.716 2216.59 416.568 Q2218.03 418.396 2220.9 418.396 Q2224.35 418.396 2226.34 416.197 Q2228.35 413.998 2228.35 410.202 L2228.35 395.503 L2232.61 395.503 L2232.61 421.429 L2228.35 421.429 L2228.35 417.447 Q2226.8 419.808 2224.74 420.966 Q2222.7 422.1 2220 422.1 Q2215.53 422.1 2213.21 419.322 Q2210.9 416.544 2210.9 411.197 M2221.62 394.878 L2221.62 394.878 Z" fill="#000000" fill-rule="nonzero" fill-opacity="1" /><path clip-path="url(#clip550)" d="M2257.91 396.267 L2257.91 400.294 Q2256.11 399.369 2254.16 398.906 Q2252.22 398.443 2250.13 398.443 Q2246.96 398.443 2245.37 399.415 Q2243.79 400.387 2243.79 402.331 Q2243.79 403.813 2244.93 404.669 Q2246.06 405.503 2249.49 406.267 L2250.94 406.591 Q2255.48 407.563 2257.38 409.345 Q2259.3 411.105 2259.3 414.276 Q2259.3 417.887 2256.43 419.993 Q2253.58 422.1 2248.58 422.1 Q2246.5 422.1 2244.23 421.683 Q2241.99 421.29 2239.49 420.48 L2239.49 416.081 Q2241.85 417.308 2244.14 417.933 Q2246.43 418.535 2248.68 418.535 Q2251.69 418.535 2253.31 417.517 Q2254.93 416.475 2254.93 414.6 Q2254.93 412.864 2253.75 411.938 Q2252.59 411.012 2248.63 410.156 L2247.15 409.808 Q2243.19 408.975 2241.43 407.262 Q2239.67 405.526 2239.67 402.517 Q2239.67 398.859 2242.26 396.869 Q2244.86 394.878 2249.63 394.878 Q2251.99 394.878 2254.07 395.225 Q2256.15 395.572 2257.91 396.267 Z" fill="#000000" fill-rule="nonzero" fill-opacity="1" /><polyline clip-path="url(#clip550)" style="stroke:#808080; stroke-linecap:round; stroke-linejoin:round; stroke-width:12; stroke-opacity:1; fill:none" points="1737.93,455.989 1878.12,455.989 "/>
<path clip-path="url(#clip550)" d="M1920.39 451.278 L1920.39 437.25 L1924.65 437.25 L1924.65 473.269 L1920.39 473.269 L1920.39 469.38 Q1919.05 471.695 1916.99 472.829 Q1914.95 473.94 1912.08 473.94 Q1907.38 473.94 1904.42 470.19 Q1901.48 466.44 1901.48 460.329 Q1901.48 454.218 1904.42 450.468 Q1907.38 446.718 1912.08 446.718 Q1914.95 446.718 1916.99 447.852 Q1919.05 448.963 1920.39 451.278 M1905.88 460.329 Q1905.88 465.028 1907.8 467.713 Q1909.74 470.375 1913.12 470.375 Q1916.5 470.375 1918.45 467.713 Q1920.39 465.028 1920.39 460.329 Q1920.39 455.63 1918.45 452.968 Q1916.5 450.283 1913.12 450.283 Q1909.74 450.283 1907.8 452.968 Q1905.88 455.63 1905.88 460.329 Z" fill="#000000" fill-rule="nonzero" fill-opacity="1" /><path clip-path="url(#clip550)" d="M1933.42 447.343 L1937.68 447.343 L1937.68 473.269 L1933.42 473.269 L1933.42 447.343 M1933.42 437.25 L1937.68 437.25 L1937.68 442.644 L1933.42 442.644 L1933.42 437.25 Z" fill="#000000" fill-rule="nonzero" fill-opacity="1" /><path clip-path="url(#clip550)" d="M1963.12 448.107 L1963.12 452.134 Q1961.32 451.209 1959.37 450.746 Q1957.43 450.283 1955.34 450.283 Q1952.17 450.283 1950.58 451.255 Q1949 452.227 1949 454.171 Q1949 455.653 1950.14 456.509 Q1951.27 457.343 1954.7 458.107 L1956.15 458.431 Q1960.69 459.403 1962.59 461.185 Q1964.51 462.945 1964.51 466.116 Q1964.51 469.727 1961.64 471.833 Q1958.79 473.94 1953.79 473.94 Q1951.71 473.94 1949.44 473.523 Q1947.2 473.13 1944.7 472.32 L1944.7 467.921 Q1947.06 469.148 1949.35 469.773 Q1951.64 470.375 1953.89 470.375 Q1956.9 470.375 1958.52 469.357 Q1960.14 468.315 1960.14 466.44 Q1960.14 464.704 1958.96 463.778 Q1957.8 462.852 1953.84 461.996 L1952.36 461.648 Q1948.4 460.815 1946.64 459.102 Q1944.88 457.366 1944.88 454.357 Q1944.88 450.699 1947.47 448.709 Q1950.07 446.718 1954.84 446.718 Q1957.2 446.718 1959.28 447.065 Q1961.36 447.412 1963.12 448.107 Z" fill="#000000" fill-rule="nonzero" fill-opacity="1" /><path clip-path="url(#clip550)" d="M1975.41 469.38 L1975.41 483.13 L1971.13 483.13 L1971.13 447.343 L1975.41 447.343 L1975.41 451.278 Q1976.76 448.963 1978.79 447.852 Q1980.85 446.718 1983.7 446.718 Q1988.42 446.718 1991.36 450.468 Q1994.33 454.218 1994.33 460.329 Q1994.33 466.44 1991.36 470.19 Q1988.42 473.94 1983.7 473.94 Q1980.85 473.94 1978.79 472.829 Q1976.76 471.695 1975.41 469.38 M1989.9 460.329 Q1989.9 455.63 1987.96 452.968 Q1986.04 450.283 1982.66 450.283 Q1979.28 450.283 1977.34 452.968 Q1975.41 455.63 1975.41 460.329 Q1975.41 465.028 1977.34 467.713 Q1979.28 470.375 1982.66 470.375 Q1986.04 470.375 1987.96 467.713 Q1989.9 465.028 1989.9 460.329 Z" fill="#000000" fill-rule="nonzero" fill-opacity="1" /><path clip-path="url(#clip550)" d="M2023.56 459.241 L2023.56 461.324 L2003.98 461.324 Q2004.26 465.722 2006.62 468.037 Q2009 470.329 2013.24 470.329 Q2015.69 470.329 2017.98 469.727 Q2020.3 469.125 2022.57 467.921 L2022.57 471.949 Q2020.27 472.921 2017.87 473.431 Q2015.46 473.94 2012.98 473.94 Q2006.78 473.94 2003.15 470.329 Q1999.53 466.718 1999.53 460.56 Q1999.53 454.195 2002.96 450.468 Q2006.41 446.718 2012.24 446.718 Q2017.47 446.718 2020.51 450.097 Q2023.56 453.454 2023.56 459.241 M2019.3 457.991 Q2019.26 454.496 2017.34 452.412 Q2015.44 450.329 2012.29 450.329 Q2008.72 450.329 2006.57 452.343 Q2004.44 454.357 2004.12 458.014 L2019.3 457.991 Z" fill="#000000" fill-rule="nonzero" fill-opacity="1" /><path clip-path="url(#clip550)" d="M2045.58 451.324 Q2044.86 450.908 2044 450.722 Q2043.17 450.514 2042.15 450.514 Q2038.54 450.514 2036.59 452.875 Q2034.67 455.213 2034.67 459.611 L2034.67 473.269 L2030.39 473.269 L2030.39 447.343 L2034.67 447.343 L2034.67 451.371 Q2036.02 449.009 2038.17 447.875 Q2040.32 446.718 2043.4 446.718 Q2043.84 446.718 2044.37 446.787 Q2044.9 446.834 2045.55 446.949 L2045.58 451.324 Z" fill="#000000" fill-rule="nonzero" fill-opacity="1" /><path clip-path="url(#clip550)" d="M2066.57 448.107 L2066.57 452.134 Q2064.77 451.209 2062.82 450.746 Q2060.88 450.283 2058.79 450.283 Q2055.62 450.283 2054.02 451.255 Q2052.45 452.227 2052.45 454.171 Q2052.45 455.653 2053.58 456.509 Q2054.72 457.343 2058.15 458.107 L2059.6 458.431 Q2064.14 459.403 2066.04 461.185 Q2067.96 462.945 2067.96 466.116 Q2067.96 469.727 2065.09 471.833 Q2062.24 473.94 2057.24 473.94 Q2055.16 473.94 2052.89 473.523 Q2050.65 473.13 2048.15 472.32 L2048.15 467.921 Q2050.51 469.148 2052.8 469.773 Q2055.09 470.375 2057.33 470.375 Q2060.34 470.375 2061.96 469.357 Q2063.58 468.315 2063.58 466.44 Q2063.58 464.704 2062.4 463.778 Q2061.25 462.852 2057.29 461.996 L2055.81 461.648 Q2051.85 460.815 2050.09 459.102 Q2048.33 457.366 2048.33 454.357 Q2048.33 450.699 2050.92 448.709 Q2053.52 446.718 2058.28 446.718 Q2060.64 446.718 2062.73 447.065 Q2064.81 447.412 2066.57 448.107 Z" fill="#000000" fill-rule="nonzero" fill-opacity="1" /><path clip-path="url(#clip550)" d="M2086.52 460.236 Q2081.36 460.236 2079.37 461.417 Q2077.38 462.597 2077.38 465.445 Q2077.38 467.713 2078.86 469.056 Q2080.37 470.375 2082.94 470.375 Q2086.48 470.375 2088.61 467.875 Q2090.76 465.352 2090.76 461.185 L2090.76 460.236 L2086.52 460.236 M2095.02 458.477 L2095.02 473.269 L2090.76 473.269 L2090.76 469.333 Q2089.3 471.695 2087.13 472.829 Q2084.95 473.94 2081.8 473.94 Q2077.82 473.94 2075.46 471.718 Q2073.12 469.472 2073.12 465.722 Q2073.12 461.347 2076.04 459.125 Q2078.98 456.903 2084.79 456.903 L2090.76 456.903 L2090.76 456.486 Q2090.76 453.547 2088.82 451.949 Q2086.89 450.329 2083.4 450.329 Q2081.18 450.329 2079.07 450.861 Q2076.96 451.394 2075.02 452.459 L2075.02 448.523 Q2077.36 447.621 2079.56 447.181 Q2081.76 446.718 2083.84 446.718 Q2089.46 446.718 2092.24 449.634 Q2095.02 452.551 2095.02 458.477 Z" fill="#000000" fill-rule="nonzero" fill-opacity="1" /><path clip-path="url(#clip550)" d="M2103.79 437.25 L2108.05 437.25 L2108.05 473.269 L2103.79 473.269 L2103.79 437.25 Z" fill="#000000" fill-rule="nonzero" fill-opacity="1" /><path clip-path="url(#clip550)" d="M2132.03 437.25 L2136.29 437.25 L2136.29 473.269 L2132.03 473.269 L2132.03 437.25 Z" fill="#000000" fill-rule="nonzero" fill-opacity="1" /><path clip-path="url(#clip550)" d="M2155.25 450.329 Q2151.83 450.329 2149.83 453.014 Q2147.84 455.676 2147.84 460.329 Q2147.84 464.982 2149.81 467.667 Q2151.8 470.329 2155.25 470.329 Q2158.65 470.329 2160.64 467.644 Q2162.64 464.958 2162.64 460.329 Q2162.64 455.722 2160.64 453.037 Q2158.65 450.329 2155.25 450.329 M2155.25 446.718 Q2160.81 446.718 2163.98 450.329 Q2167.15 453.94 2167.15 460.329 Q2167.15 466.695 2163.98 470.329 Q2160.81 473.94 2155.25 473.94 Q2149.67 473.94 2146.5 470.329 Q2143.35 466.695 2143.35 460.329 Q2143.35 453.94 2146.5 450.329 Q2149.67 446.718 2155.25 446.718 Z" fill="#000000" fill-rule="nonzero" fill-opacity="1" /><path clip-path="url(#clip550)" d="M2192.87 448.338 L2192.87 452.32 Q2191.06 451.324 2189.23 450.838 Q2187.43 450.329 2185.57 450.329 Q2181.43 450.329 2179.14 452.968 Q2176.85 455.584 2176.85 460.329 Q2176.85 465.074 2179.14 467.713 Q2181.43 470.329 2185.57 470.329 Q2187.43 470.329 2189.23 469.843 Q2191.06 469.333 2192.87 468.338 L2192.87 472.273 Q2191.08 473.107 2189.16 473.523 Q2187.26 473.94 2185.11 473.94 Q2179.26 473.94 2175.81 470.259 Q2172.36 466.579 2172.36 460.329 Q2172.36 453.986 2175.83 450.352 Q2179.32 446.718 2185.39 446.718 Q2187.36 446.718 2189.23 447.135 Q2191.11 447.528 2192.87 448.338 Z" fill="#000000" fill-rule="nonzero" fill-opacity="1" /><path clip-path="url(#clip550)" d="M2199.83 463.037 L2199.83 447.343 L2204.09 447.343 L2204.09 462.875 Q2204.09 466.556 2205.53 468.408 Q2206.96 470.236 2209.83 470.236 Q2213.28 470.236 2215.27 468.037 Q2217.29 465.838 2217.29 462.042 L2217.29 447.343 L2221.55 447.343 L2221.55 473.269 L2217.29 473.269 L2217.29 469.287 Q2215.74 471.648 2213.68 472.806 Q2211.64 473.94 2208.93 473.94 Q2204.46 473.94 2202.15 471.162 Q2199.83 468.384 2199.83 463.037 M2210.55 446.718 L2210.55 446.718 Z" fill="#000000" fill-rule="nonzero" fill-opacity="1" /><path clip-path="url(#clip550)" d="M2246.85 448.107 L2246.85 452.134 Q2245.04 451.209 2243.1 450.746 Q2241.15 450.283 2239.07 450.283 Q2235.9 450.283 2234.3 451.255 Q2232.73 452.227 2232.73 454.171 Q2232.73 455.653 2233.86 456.509 Q2235 457.343 2238.42 458.107 L2239.88 458.431 Q2244.42 459.403 2246.32 461.185 Q2248.24 462.945 2248.24 466.116 Q2248.24 469.727 2245.37 471.833 Q2242.52 473.94 2237.52 473.94 Q2235.44 473.94 2233.17 473.523 Q2230.92 473.13 2228.42 472.32 L2228.42 467.921 Q2230.78 469.148 2233.07 469.773 Q2235.37 470.375 2237.61 470.375 Q2240.62 470.375 2242.24 469.357 Q2243.86 468.315 2243.86 466.44 Q2243.86 464.704 2242.68 463.778 Q2241.52 462.852 2237.57 461.996 L2236.08 461.648 Q2232.13 460.815 2230.37 459.102 Q2228.61 457.366 2228.61 454.357 Q2228.61 450.699 2231.2 448.709 Q2233.79 446.718 2238.56 446.718 Q2240.92 446.718 2243.01 447.065 Q2245.09 447.412 2246.85 448.107 Z" fill="#000000" fill-rule="nonzero" fill-opacity="1" /></svg>
