<?xml version="1.0" encoding="utf-8"?>
<svg xmlns="http://www.w3.org/2000/svg" xmlns:xlink="http://www.w3.org/1999/xlink" width="600" height="400" viewBox="0 0 2400 1600">
<defs>
  <clipPath id="clip550">
    <rect x="0" y="0" width="2400" height="1600"/>
  </clipPath>
</defs>
<path clip-path="url(#clip550)" d="M0 1600 L2400 1600 L2400 0 L0 0  Z" fill="#ffffff" fill-rule="evenodd" fill-opacity="1"/>
<defs>
  <clipPath id="clip551">
    <rect x="480" y="0" width="1681" height="1600"/>
  </clipPath>
</defs>
<path clip-path="url(#clip550)" d="M205.121 1423.18 L2352.76 1423.18 L2352.76 47.2441 L205.121 47.2441  Z" fill="#ffffff" fill-rule="evenodd" fill-opacity="1"/>
<defs>
  <clipPath id="clip552">
    <rect x="205" y="47" width="2149" height="1377"/>
  </clipPath>
</defs>
<polyline clip-path="url(#clip552)" style="stroke:#000000; stroke-linecap:round; stroke-linejoin:round; stroke-width:2; stroke-opacity:0.1; fill:none" points="205.121,1423.18 205.121,47.2441 "/>
<polyline clip-path="url(#clip552)" style="stroke:#000000; stroke-linecap:round; stroke-linejoin:round; stroke-width:2; stroke-opacity:0.1; fill:none" points="634.648,1423.18 634.648,47.2441 "/>
<polyline clip-path="url(#clip552)" style="stroke:#000000; stroke-linecap:round; stroke-linejoin:round; stroke-width:2; stroke-opacity:0.1; fill:none" points="1064.17,1423.18 1064.17,47.2441 "/>
<polyline clip-path="url(#clip552)" style="stroke:#000000; stroke-linecap:round; stroke-linejoin:round; stroke-width:2; stroke-opacity:0.1; fill:none" points="1493.7,1423.18 1493.7,47.2441 "/>
<polyline clip-path="url(#clip552)" style="stroke:#000000; stroke-linecap:round; stroke-linejoin:round; stroke-width:2; stroke-opacity:0.1; fill:none" points="1923.23,1423.18 1923.23,47.2441 "/>
<polyline clip-path="url(#clip552)" style="stroke:#000000; stroke-linecap:round; stroke-linejoin:round; stroke-width:2; stroke-opacity:0.1; fill:none" points="2352.76,1423.18 2352.76,47.2441 "/>
<polyline clip-path="url(#clip552)" style="stroke:#000000; stroke-linecap:round; stroke-linejoin:round; stroke-width:2; stroke-opacity:0.1; fill:none" points="205.121,1423.18 2352.76,1423.18 "/>
<polyline clip-path="url(#clip552)" style="stroke:#000000; stroke-linecap:round; stroke-linejoin:round; stroke-width:2; stroke-opacity:0.1; fill:none" points="205.121,1079.2 2352.76,1079.2 "/>
<polyline clip-path="url(#clip552)" style="stroke:#000000; stroke-linecap:round; stroke-linejoin:round; stroke-width:2; stroke-opacity:0.1; fill:none" points="205.121,735.212 2352.76,735.212 "/>
<polyline clip-path="url(#clip552)" style="stroke:#000000; stroke-linecap:round; stroke-linejoin:round; stroke-width:2; stroke-opacity:0.1; fill:none" points="205.121,391.228 2352.76,391.228 "/>
<polyline clip-path="url(#clip552)" style="stroke:#000000; stroke-linecap:round; stroke-linejoin:round; stroke-width:2; stroke-opacity:0.1; fill:none" points="205.121,47.2441 2352.76,47.2441 "/>
<polyline clip-path="url(#clip550)" style="stroke:#000000; stroke-linecap:round; stroke-linejoin:round; stroke-width:4; stroke-opacity:1; fill:none" points="205.121,1423.18 2352.76,1423.18 "/>
<polyline clip-path="url(#clip550)" style="stroke:#000000; stroke-linecap:round; stroke-linejoin:round; stroke-width:4; stroke-opacity:1; fill:none" points="205.121,1423.18 205.121,1404.28 "/>
<polyline clip-path="url(#clip550)" style="stroke:#000000; stroke-linecap:round; stroke-linejoin:round; stroke-width:4; stroke-opacity:1; fill:none" points="634.648,1423.18 634.648,1404.28 "/>
<polyline clip-path="url(#clip550)" style="stroke:#000000; stroke-linecap:round; stroke-linejoin:round; stroke-width:4; stroke-opacity:1; fill:none" points="1064.17,1423.18 1064.17,1404.28 "/>
<polyline clip-path="url(#clip550)" style="stroke:#000000; stroke-linecap:round; stroke-linejoin:round; stroke-width:4; stroke-opacity:1; fill:none" points="1493.7,1423.18 1493.7,1404.28 "/>
<polyline clip-path="url(#clip550)" style="stroke:#000000; stroke-linecap:round; stroke-linejoin:round; stroke-width:4; stroke-opacity:1; fill:none" points="1923.23,1423.18 1923.23,1404.28 "/>
<polyline clip-path="url(#clip550)" style="stroke:#000000; stroke-linecap:round; stroke-linejoin:round; stroke-width:4; stroke-opacity:1; fill:none" points="2352.76,1423.18 2352.76,1404.28 "/>
<path clip-path="url(#clip550)" d="M205.121 1454.1 Q201.51 1454.1 199.681 1457.66 Q197.876 1461.2 197.876 1468.33 Q197.876 1475.44 199.681 1479.01 Q201.51 1482.55 205.121 1482.55 Q208.755 1482.55 210.561 1479.01 Q212.389 1475.44 212.389 1468.33 Q212.389 1461.2 210.561 1457.66 Q208.755 1454.1 205.121 1454.1 M205.121 1450.39 Q210.931 1450.39 213.987 1455 Q217.065 1459.58 217.065 1468.33 Q217.065 1477.06 213.987 1481.67 Q210.931 1486.25 205.121 1486.25 Q199.311 1486.25 196.232 1481.67 Q193.177 1477.06 193.177 1468.33 Q193.177 1459.58 196.232 1455 Q199.311 1450.39 205.121 1450.39 Z" fill="#000000" fill-rule="nonzero" fill-opacity="1" /><path clip-path="url(#clip550)" d="M609.336 1481.64 L616.974 1481.64 L616.974 1455.28 L608.664 1456.95 L608.664 1452.69 L616.928 1451.02 L621.604 1451.02 L621.604 1481.64 L629.243 1481.64 L629.243 1485.58 L609.336 1485.58 L609.336 1481.64 Z" fill="#000000" fill-rule="nonzero" fill-opacity="1" /><path clip-path="url(#clip550)" d="M648.687 1454.1 Q645.076 1454.1 643.247 1457.66 Q641.442 1461.2 641.442 1468.33 Q641.442 1475.44 643.247 1479.01 Q645.076 1482.55 648.687 1482.55 Q652.321 1482.55 654.127 1479.01 Q655.956 1475.44 655.956 1468.33 Q655.956 1461.2 654.127 1457.66 Q652.321 1454.1 648.687 1454.1 M648.687 1450.39 Q654.497 1450.39 657.553 1455 Q660.632 1459.58 660.632 1468.33 Q660.632 1477.06 657.553 1481.67 Q654.497 1486.25 648.687 1486.25 Q642.877 1486.25 639.798 1481.67 Q636.743 1477.06 636.743 1468.33 Q636.743 1459.58 639.798 1455 Q642.877 1450.39 648.687 1450.39 Z" fill="#000000" fill-rule="nonzero" fill-opacity="1" /><path clip-path="url(#clip550)" d="M1042.95 1481.64 L1059.27 1481.64 L1059.27 1485.58 L1037.32 1485.58 L1037.32 1481.64 Q1039.99 1478.89 1044.57 1474.26 Q1049.18 1469.61 1050.36 1468.27 Q1052.6 1465.74 1053.48 1464.01 Q1054.38 1462.25 1054.38 1460.56 Q1054.38 1457.8 1052.44 1456.07 Q1050.52 1454.33 1047.42 1454.33 Q1045.22 1454.33 1042.76 1455.09 Q1040.33 1455.86 1037.55 1457.41 L1037.55 1452.69 Q1040.38 1451.55 1042.83 1450.97 Q1045.29 1450.39 1047.32 1450.39 Q1052.69 1450.39 1055.89 1453.08 Q1059.08 1455.77 1059.08 1460.26 Q1059.08 1462.39 1058.27 1464.31 Q1057.49 1466.2 1055.38 1468.8 Q1054.8 1469.47 1051.7 1472.69 Q1048.6 1475.88 1042.95 1481.64 Z" fill="#000000" fill-rule="nonzero" fill-opacity="1" /><path clip-path="url(#clip550)" d="M1079.08 1454.1 Q1075.47 1454.1 1073.64 1457.66 Q1071.84 1461.2 1071.84 1468.33 Q1071.84 1475.44 1073.64 1479.01 Q1075.47 1482.55 1079.08 1482.55 Q1082.72 1482.55 1084.52 1479.01 Q1086.35 1475.44 1086.35 1468.33 Q1086.35 1461.2 1084.52 1457.66 Q1082.72 1454.1 1079.08 1454.1 M1079.08 1450.39 Q1084.89 1450.39 1087.95 1455 Q1091.03 1459.58 1091.03 1468.33 Q1091.03 1477.06 1087.95 1481.67 Q1084.89 1486.25 1079.08 1486.25 Q1073.27 1486.25 1070.19 1481.67 Q1067.14 1477.06 1067.14 1468.33 Q1067.14 1459.58 1070.19 1455 Q1073.27 1450.39 1079.08 1450.39 Z" fill="#000000" fill-rule="nonzero" fill-opacity="1" /><path clip-path="url(#clip550)" d="M1482.54 1466.95 Q1485.9 1467.66 1487.78 1469.93 Q1489.67 1472.2 1489.67 1475.53 Q1489.67 1480.65 1486.16 1483.45 Q1482.64 1486.25 1476.16 1486.25 Q1473.98 1486.25 1471.67 1485.81 Q1469.37 1485.39 1466.92 1484.54 L1466.92 1480.02 Q1468.86 1481.16 1471.18 1481.74 Q1473.49 1482.32 1476.02 1482.32 Q1480.41 1482.32 1482.71 1480.58 Q1485.02 1478.84 1485.02 1475.53 Q1485.02 1472.48 1482.87 1470.77 Q1480.74 1469.03 1476.92 1469.03 L1472.89 1469.03 L1472.89 1465.19 L1477.1 1465.19 Q1480.55 1465.19 1482.38 1463.82 Q1484.21 1462.43 1484.21 1459.84 Q1484.21 1457.18 1482.31 1455.77 Q1480.44 1454.33 1476.92 1454.33 Q1475 1454.33 1472.8 1454.75 Q1470.6 1455.16 1467.96 1456.04 L1467.96 1451.88 Q1470.62 1451.14 1472.94 1450.77 Q1475.28 1450.39 1477.34 1450.39 Q1482.66 1450.39 1485.76 1452.83 Q1488.86 1455.23 1488.86 1459.35 Q1488.86 1462.22 1487.22 1464.21 Q1485.58 1466.18 1482.54 1466.95 Z" fill="#000000" fill-rule="nonzero" fill-opacity="1" /><path clip-path="url(#clip550)" d="M1508.54 1454.1 Q1504.93 1454.1 1503.1 1457.66 Q1501.29 1461.2 1501.29 1468.33 Q1501.29 1475.44 1503.1 1479.01 Q1504.93 1482.55 1508.54 1482.55 Q1512.17 1482.55 1513.98 1479.01 Q1515.81 1475.44 1515.81 1468.33 Q1515.81 1461.2 1513.98 1457.66 Q1512.17 1454.1 1508.54 1454.1 M1508.54 1450.39 Q1514.35 1450.39 1517.41 1455 Q1520.48 1459.58 1520.48 1468.33 Q1520.48 1477.06 1517.41 1481.67 Q1514.35 1486.25 1508.54 1486.25 Q1502.73 1486.25 1499.65 1481.67 Q1496.6 1477.06 1496.6 1468.33 Q1496.6 1459.58 1499.65 1455 Q1502.73 1450.39 1508.54 1450.39 Z" fill="#000000" fill-rule="nonzero" fill-opacity="1" /><path clip-path="url(#clip550)" d="M1911.4 1455.09 L1899.59 1473.54 L1911.4 1473.54 L1911.4 1455.09 M1910.17 1451.02 L1916.05 1451.02 L1916.05 1473.54 L1920.98 1473.54 L1920.98 1477.43 L1916.05 1477.43 L1916.05 1485.58 L1911.4 1485.58 L1911.4 1477.43 L1895.8 1477.43 L1895.8 1472.92 L1910.17 1451.02 Z" fill="#000000" fill-rule="nonzero" fill-opacity="1" /><path clip-path="url(#clip550)" d="M1938.71 1454.1 Q1935.1 1454.1 1933.28 1457.66 Q1931.47 1461.2 1931.47 1468.33 Q1931.47 1475.44 1933.28 1479.01 Q1935.1 1482.55 1938.71 1482.55 Q1942.35 1482.55 1944.15 1479.01 Q1945.98 1475.44 1945.98 1468.33 Q1945.98 1461.2 1944.15 1457.66 Q1942.35 1454.1 1938.71 1454.1 M1938.71 1450.39 Q1944.53 1450.39 1947.58 1455 Q1950.66 1459.58 1950.66 1468.33 Q1950.66 1477.06 1947.58 1481.67 Q1944.53 1486.25 1938.71 1486.25 Q1932.9 1486.25 1929.83 1481.67 Q1926.77 1477.06 1926.77 1468.33 Q1926.77 1459.58 1929.83 1455 Q1932.9 1450.39 1938.71 1450.39 Z" fill="#000000" fill-rule="nonzero" fill-opacity="1" /><path clip-path="url(#clip550)" d="M2327.46 1451.02 L2345.81 1451.02 L2345.81 1454.96 L2331.74 1454.96 L2331.74 1463.43 Q2332.76 1463.08 2333.77 1462.92 Q2334.79 1462.73 2335.81 1462.73 Q2341.6 1462.73 2344.98 1465.9 Q2348.36 1469.08 2348.36 1474.49 Q2348.36 1480.07 2344.89 1483.17 Q2341.41 1486.25 2335.09 1486.25 Q2332.92 1486.25 2330.65 1485.88 Q2328.4 1485.51 2326 1484.77 L2326 1480.07 Q2328.08 1481.2 2330.3 1481.76 Q2332.52 1482.32 2335 1482.32 Q2339.01 1482.32 2341.34 1480.21 Q2343.68 1478.1 2343.68 1474.49 Q2343.68 1470.88 2341.34 1468.77 Q2339.01 1466.67 2335 1466.67 Q2333.13 1466.67 2331.25 1467.08 Q2329.4 1467.5 2327.46 1468.38 L2327.46 1451.02 Z" fill="#000000" fill-rule="nonzero" fill-opacity="1" /><path clip-path="url(#clip550)" d="M2367.57 1454.1 Q2363.96 1454.1 2362.13 1457.66 Q2360.33 1461.2 2360.33 1468.33 Q2360.33 1475.44 2362.13 1479.01 Q2363.96 1482.55 2367.57 1482.55 Q2371.2 1482.55 2373.01 1479.01 Q2374.84 1475.44 2374.84 1468.33 Q2374.84 1461.2 2373.01 1457.66 Q2371.2 1454.1 2367.57 1454.1 M2367.57 1450.39 Q2373.38 1450.39 2376.44 1455 Q2379.52 1459.58 2379.52 1468.33 Q2379.52 1477.06 2376.44 1481.67 Q2373.38 1486.25 2367.57 1486.25 Q2361.76 1486.25 2358.68 1481.67 Q2355.63 1477.06 2355.63 1468.33 Q2355.63 1459.58 2358.68 1455 Q2361.76 1450.39 2367.57 1450.39 Z" fill="#000000" fill-rule="nonzero" fill-opacity="1" /><path clip-path="url(#clip550)" d="M1147.44 1568.04 L1129.3 1520.52 L1136.01 1520.52 L1151.07 1560.53 L1166.15 1520.52 L1172.84 1520.52 L1154.73 1568.04 L1147.44 1568.04 Z" fill="#000000" fill-rule="nonzero" fill-opacity="1" /><path clip-path="url(#clip550)" d="M1188.27 1536.5 Q1183.56 1536.5 1180.83 1540.19 Q1178.09 1543.85 1178.09 1550.25 Q1178.09 1556.65 1180.8 1560.34 Q1183.53 1564 1188.27 1564 Q1192.95 1564 1195.69 1560.31 Q1198.43 1556.62 1198.43 1550.25 Q1198.43 1543.92 1195.69 1540.23 Q1192.95 1536.5 1188.27 1536.5 M1188.27 1531.54 Q1195.91 1531.54 1200.27 1536.5 Q1204.63 1541.47 1204.63 1550.25 Q1204.63 1559 1200.27 1564 Q1195.91 1568.97 1188.27 1568.97 Q1180.6 1568.97 1176.24 1564 Q1171.91 1559 1171.91 1550.25 Q1171.91 1541.47 1176.24 1536.5 Q1180.6 1531.54 1188.27 1531.54 Z" fill="#000000" fill-rule="nonzero" fill-opacity="1" /><path clip-path="url(#clip550)" d="M1214.34 1518.52 L1220.2 1518.52 L1220.2 1568.04 L1214.34 1568.04 L1214.34 1518.52 Z" fill="#000000" fill-rule="nonzero" fill-opacity="1" /><path clip-path="url(#clip550)" d="M1231.85 1553.98 L1231.85 1532.4 L1237.7 1532.4 L1237.7 1553.75 Q1237.7 1558.81 1239.68 1561.36 Q1241.65 1563.87 1245.6 1563.87 Q1250.34 1563.87 1253.08 1560.85 Q1255.85 1557.83 1255.85 1552.61 L1255.85 1532.4 L1261.7 1532.4 L1261.7 1568.04 L1255.85 1568.04 L1255.85 1562.57 Q1253.71 1565.82 1250.88 1567.41 Q1248.08 1568.97 1244.36 1568.97 Q1238.21 1568.97 1235.03 1565.15 Q1231.85 1561.33 1231.85 1553.98 M1246.58 1531.54 L1246.58 1531.54 Z" fill="#000000" fill-rule="nonzero" fill-opacity="1" /><path clip-path="url(#clip550)" d="M1301.52 1539.24 Q1303.72 1535.29 1306.77 1533.41 Q1309.83 1531.54 1313.97 1531.54 Q1319.54 1531.54 1322.56 1535.45 Q1325.58 1539.33 1325.58 1546.53 L1325.58 1568.04 L1319.69 1568.04 L1319.69 1546.72 Q1319.69 1541.59 1317.88 1539.11 Q1316.07 1536.63 1312.34 1536.63 Q1307.79 1536.63 1305.15 1539.65 Q1302.51 1542.68 1302.51 1547.9 L1302.51 1568.04 L1296.62 1568.04 L1296.62 1546.72 Q1296.62 1541.56 1294.8 1539.11 Q1292.99 1536.63 1289.2 1536.63 Q1284.72 1536.63 1282.07 1539.68 Q1279.43 1542.71 1279.43 1547.9 L1279.43 1568.04 L1273.54 1568.04 L1273.54 1532.4 L1279.43 1532.4 L1279.43 1537.93 Q1281.44 1534.66 1284.24 1533.1 Q1287.04 1531.54 1290.89 1531.54 Q1294.77 1531.54 1297.48 1533.51 Q1300.22 1535.48 1301.52 1539.24 Z" fill="#000000" fill-rule="nonzero" fill-opacity="1" /><path clip-path="url(#clip550)" d="M1367.76 1548.76 L1367.76 1551.62 L1340.83 1551.62 Q1341.21 1557.67 1344.46 1560.85 Q1347.74 1564 1353.56 1564 Q1356.93 1564 1360.09 1563.17 Q1363.27 1562.35 1366.39 1560.69 L1366.39 1566.23 Q1363.24 1567.57 1359.93 1568.27 Q1356.62 1568.97 1353.21 1568.97 Q1344.68 1568.97 1339.68 1564 Q1334.72 1559.04 1334.72 1550.57 Q1334.72 1541.82 1339.43 1536.69 Q1344.17 1531.54 1352.19 1531.54 Q1359.39 1531.54 1363.55 1536.18 Q1367.76 1540.8 1367.76 1548.76 M1361.9 1547.04 Q1361.84 1542.23 1359.19 1539.37 Q1356.58 1536.5 1352.26 1536.5 Q1347.35 1536.5 1344.39 1539.27 Q1341.47 1542.04 1341.02 1547.07 L1361.9 1547.04 Z" fill="#000000" fill-rule="nonzero" fill-opacity="1" /><path clip-path="url(#clip550)" d="M1393.89 1532.4 L1400.09 1532.4 L1411.23 1562.31 L1422.37 1532.4 L1428.58 1532.4 L1415.21 1568.04 L1407.26 1568.04 L1393.89 1532.4 Z" fill="#000000" fill-rule="nonzero" fill-opacity="1" /><polyline clip-path="url(#clip550)" style="stroke:#000000; stroke-linecap:round; stroke-linejoin:round; stroke-width:4; stroke-opacity:1; fill:none" points="205.121,1423.18 205.121,47.2441 "/>
<polyline clip-path="url(#clip550)" style="stroke:#000000; stroke-linecap:round; stroke-linejoin:round; stroke-width:4; stroke-opacity:1; fill:none" points="205.121,1423.18 224.019,1423.18 "/>
<polyline clip-path="url(#clip550)" style="stroke:#000000; stroke-linecap:round; stroke-linejoin:round; stroke-width:4; stroke-opacity:1; fill:none" points="205.121,1079.2 224.019,1079.2 "/>
<polyline clip-path="url(#clip550)" style="stroke:#000000; stroke-linecap:round; stroke-linejoin:round; stroke-width:4; stroke-opacity:1; fill:none" points="205.121,735.212 224.019,735.212 "/>
<polyline clip-path="url(#clip550)" style="stroke:#000000; stroke-linecap:round; stroke-linejoin:round; stroke-width:4; stroke-opacity:1; fill:none" points="205.121,391.228 224.019,391.228 "/>
<polyline clip-path="url(#clip550)" style="stroke:#000000; stroke-linecap:round; stroke-linejoin:round; stroke-width:4; stroke-opacity:1; fill:none" points="205.121,47.2441 224.019,47.2441 "/>
<path clip-path="url(#clip550)" d="M157.177 1408.98 Q153.566 1408.98 151.737 1412.54 Q149.931 1416.08 149.931 1423.21 Q149.931 1430.32 151.737 1433.89 Q153.566 1437.43 157.177 1437.43 Q160.811 1437.43 162.616 1433.89 Q164.445 1430.32 164.445 1423.21 Q164.445 1416.08 162.616 1412.54 Q160.811 1408.98 157.177 1408.98 M157.177 1405.27 Q162.987 1405.27 166.042 1409.88 Q169.121 1414.46 169.121 1423.21 Q169.121 1431.94 166.042 1436.55 Q162.987 1441.13 157.177 1441.13 Q151.366 1441.13 148.288 1436.55 Q145.232 1431.94 145.232 1423.21 Q145.232 1414.46 148.288 1409.88 Q151.366 1405.27 157.177 1405.27 Z" fill="#000000" fill-rule="nonzero" fill-opacity="1" /><path clip-path="url(#clip550)" d="M121.043 1092.54 L137.362 1092.54 L137.362 1096.48 L115.418 1096.48 L115.418 1092.54 Q118.08 1089.79 122.663 1085.16 Q127.269 1080.5 128.45 1079.16 Q130.695 1076.64 131.575 1074.9 Q132.478 1073.14 132.478 1071.45 Q132.478 1068.7 130.533 1066.96 Q128.612 1065.23 125.51 1065.23 Q123.311 1065.23 120.857 1065.99 Q118.427 1066.75 115.649 1068.3 L115.649 1063.58 Q118.473 1062.45 120.927 1061.87 Q123.38 1061.29 125.418 1061.29 Q130.788 1061.29 133.982 1063.98 Q137.177 1066.66 137.177 1071.15 Q137.177 1073.28 136.367 1075.2 Q135.579 1077.1 133.473 1079.69 Q132.894 1080.36 129.792 1083.58 Q126.691 1086.78 121.043 1092.54 Z" fill="#000000" fill-rule="nonzero" fill-opacity="1" /><path clip-path="url(#clip550)" d="M157.177 1064.99 Q153.566 1064.99 151.737 1068.56 Q149.931 1072.1 149.931 1079.23 Q149.931 1086.34 151.737 1089.9 Q153.566 1093.44 157.177 1093.44 Q160.811 1093.44 162.616 1089.9 Q164.445 1086.34 164.445 1079.23 Q164.445 1072.1 162.616 1068.56 Q160.811 1064.99 157.177 1064.99 M157.177 1061.29 Q162.987 1061.29 166.042 1065.9 Q169.121 1070.48 169.121 1079.23 Q169.121 1087.96 166.042 1092.56 Q162.987 1097.15 157.177 1097.15 Q151.366 1097.15 148.288 1092.56 Q145.232 1087.96 145.232 1079.23 Q145.232 1070.48 148.288 1065.9 Q151.366 1061.29 157.177 1061.29 Z" fill="#000000" fill-rule="nonzero" fill-opacity="1" /><path clip-path="url(#clip550)" d="M129.862 722.006 L118.056 740.455 L129.862 740.455 L129.862 722.006 M128.635 717.932 L134.515 717.932 L134.515 740.455 L139.445 740.455 L139.445 744.344 L134.515 744.344 L134.515 752.492 L129.862 752.492 L129.862 744.344 L114.26 744.344 L114.26 739.83 L128.635 717.932 Z" fill="#000000" fill-rule="nonzero" fill-opacity="1" /><path clip-path="url(#clip550)" d="M157.177 721.011 Q153.566 721.011 151.737 724.575 Q149.931 728.117 149.931 735.247 Q149.931 742.353 151.737 745.918 Q153.566 749.46 157.177 749.46 Q160.811 749.46 162.616 745.918 Q164.445 742.353 164.445 735.247 Q164.445 728.117 162.616 724.575 Q160.811 721.011 157.177 721.011 M157.177 717.307 Q162.987 717.307 166.042 721.913 Q169.121 726.497 169.121 735.247 Q169.121 743.973 166.042 748.58 Q162.987 753.163 157.177 753.163 Q151.366 753.163 148.288 748.58 Q145.232 743.973 145.232 735.247 Q145.232 726.497 148.288 721.913 Q151.366 717.307 157.177 717.307 Z" fill="#000000" fill-rule="nonzero" fill-opacity="1" /><path clip-path="url(#clip550)" d="M127.593 389.365 Q124.445 389.365 122.593 391.517 Q120.765 393.67 120.765 397.42 Q120.765 401.147 122.593 403.323 Q124.445 405.476 127.593 405.476 Q130.742 405.476 132.57 403.323 Q134.422 401.147 134.422 397.42 Q134.422 393.67 132.57 391.517 Q130.742 389.365 127.593 389.365 M136.876 374.712 L136.876 378.971 Q135.117 378.138 133.311 377.698 Q131.529 377.258 129.769 377.258 Q125.14 377.258 122.686 380.383 Q120.255 383.508 119.908 389.828 Q121.274 387.814 123.334 386.749 Q125.394 385.661 127.871 385.661 Q133.08 385.661 136.089 388.832 Q139.121 391.98 139.121 397.42 Q139.121 402.744 135.973 405.962 Q132.825 409.179 127.593 409.179 Q121.598 409.179 118.427 404.596 Q115.256 399.99 115.256 391.263 Q115.256 383.068 119.144 378.207 Q123.033 373.323 129.584 373.323 Q131.343 373.323 133.126 373.67 Q134.931 374.017 136.876 374.712 Z" fill="#000000" fill-rule="nonzero" fill-opacity="1" /><path clip-path="url(#clip550)" d="M157.177 377.027 Q153.566 377.027 151.737 380.592 Q149.931 384.133 149.931 391.263 Q149.931 398.369 151.737 401.934 Q153.566 405.476 157.177 405.476 Q160.811 405.476 162.616 401.934 Q164.445 398.369 164.445 391.263 Q164.445 384.133 162.616 380.592 Q160.811 377.027 157.177 377.027 M157.177 373.323 Q162.987 373.323 166.042 377.929 Q169.121 382.513 169.121 391.263 Q169.121 399.99 166.042 404.596 Q162.987 409.179 157.177 409.179 Q151.366 409.179 148.288 404.596 Q145.232 399.99 145.232 391.263 Q145.232 382.513 148.288 377.929 Q151.366 373.323 157.177 373.323 Z" fill="#000000" fill-rule="nonzero" fill-opacity="1" /><path clip-path="url(#clip550)" d="M127.015 48.1121 Q123.681 48.1121 121.76 49.8945 Q119.862 51.6769 119.862 54.8019 Q119.862 57.9269 121.76 59.7093 Q123.681 61.4917 127.015 61.4917 Q130.348 61.4917 132.269 59.7093 Q134.191 57.9038 134.191 54.8019 Q134.191 51.6769 132.269 49.8945 Q130.371 48.1121 127.015 48.1121 M122.339 46.1214 Q119.33 45.3807 117.64 43.3205 Q115.973 41.2603 115.973 38.2974 Q115.973 34.1539 118.913 31.7465 Q121.876 29.3391 127.015 29.3391 Q132.177 29.3391 135.117 31.7465 Q138.056 34.1539 138.056 38.2974 Q138.056 41.2603 136.367 43.3205 Q134.7 45.3807 131.714 46.1214 Q135.093 46.9084 136.968 49.2001 Q138.867 51.4918 138.867 54.8019 Q138.867 59.825 135.788 62.5102 Q132.732 65.1954 127.015 65.1954 Q121.297 65.1954 118.218 62.5102 Q115.163 59.825 115.163 54.8019 Q115.163 51.4918 117.061 49.2001 Q118.959 46.9084 122.339 46.1214 M120.626 38.7372 Q120.626 41.4224 122.293 42.927 Q123.982 44.4316 127.015 44.4316 Q130.024 44.4316 131.714 42.927 Q133.427 41.4224 133.427 38.7372 Q133.427 36.052 131.714 34.5474 Q130.024 33.0428 127.015 33.0428 Q123.982 33.0428 122.293 34.5474 Q120.626 36.052 120.626 38.7372 Z" fill="#000000" fill-rule="nonzero" fill-opacity="1" /><path clip-path="url(#clip550)" d="M157.177 33.0428 Q153.566 33.0428 151.737 36.6076 Q149.931 40.1492 149.931 47.2788 Q149.931 54.3853 151.737 57.9501 Q153.566 61.4917 157.177 61.4917 Q160.811 61.4917 162.616 57.9501 Q164.445 54.3853 164.445 47.2788 Q164.445 40.1492 162.616 36.6076 Q160.811 33.0428 157.177 33.0428 M157.177 29.3391 Q162.987 29.3391 166.042 33.9456 Q169.121 38.5289 169.121 47.2788 Q169.121 56.0056 166.042 60.6121 Q162.987 65.1954 157.177 65.1954 Q151.366 65.1954 148.288 60.6121 Q145.232 56.0056 145.232 47.2788 Q145.232 38.5289 148.288 33.9456 Q151.366 29.3391 157.177 29.3391 Z" fill="#000000" fill-rule="nonzero" fill-opacity="1" /><path clip-path="url(#clip550)" d="M16.4842 853.407 L16.4842 843.827 L48.8219 831.7 L16.4842 819.51 L16.4842 809.929 L64.0042 809.929 L64.0042 816.2 L22.277 816.2 L54.8694 828.454 L54.8694 834.915 L22.277 847.169 L64.0042 847.169 L64.0042 853.407 L16.4842 853.407 Z" fill="#000000" fill-rule="nonzero" fill-opacity="1" /><path clip-path="url(#clip550)" d="M46.0847 781.22 Q46.0847 788.318 47.7079 791.055 Q49.3312 793.792 53.2461 793.792 Q56.3653 793.792 58.2114 791.755 Q60.0256 789.687 60.0256 786.154 Q60.0256 781.284 56.5881 778.356 Q53.1188 775.395 47.3897 775.395 L46.0847 775.395 L46.0847 781.22 M43.6657 769.539 L64.0042 769.539 L64.0042 775.395 L58.5933 775.395 Q61.8398 777.401 63.3994 780.393 Q64.9272 783.384 64.9272 787.713 Q64.9272 793.188 61.8716 796.434 Q58.7843 799.649 53.6281 799.649 Q47.6125 799.649 44.5569 795.638 Q41.5014 791.596 41.5014 783.607 L41.5014 775.395 L40.9285 775.395 Q36.8862 775.395 34.6901 778.069 Q32.4621 780.711 32.4621 785.517 Q32.4621 788.573 33.1941 791.469 Q33.9262 794.365 35.3903 797.039 L29.9795 797.039 Q28.7381 793.824 28.1334 790.801 Q27.4968 787.777 27.4968 784.912 Q27.4968 777.178 31.5072 773.358 Q35.5176 769.539 43.6657 769.539 Z" fill="#000000" fill-rule="nonzero" fill-opacity="1" /><path clip-path="url(#clip550)" d="M29.4065 734.75 L34.9447 734.75 Q33.6716 737.233 33.035 739.907 Q32.3984 742.58 32.3984 745.445 Q32.3984 749.805 33.7352 752.002 Q35.072 754.166 37.7456 754.166 Q39.7826 754.166 40.9603 752.606 Q42.1061 751.047 43.1565 746.336 L43.6021 744.331 Q44.9389 738.092 47.3897 735.483 Q49.8086 732.841 54.1691 732.841 Q59.1344 732.841 62.0308 736.787 Q64.9272 740.702 64.9272 747.577 Q64.9272 750.442 64.3543 753.561 Q63.8132 756.648 62.6992 760.086 L56.6518 760.086 Q58.3387 756.839 59.198 753.688 Q60.0256 750.537 60.0256 747.45 Q60.0256 743.312 58.6251 741.084 Q57.1929 738.856 54.6147 738.856 Q52.2276 738.856 50.9545 740.48 Q49.6813 742.071 48.5037 747.514 L48.0262 749.551 Q46.8804 754.993 44.5251 757.412 Q42.138 759.831 38.0002 759.831 Q32.9713 759.831 30.2341 756.267 Q27.4968 752.702 27.4968 746.145 Q27.4968 742.899 27.9743 740.034 Q28.4517 737.169 29.4065 734.75 Z" fill="#000000" fill-rule="nonzero" fill-opacity="1" /><path clip-path="url(#clip550)" d="M29.4065 700.789 L34.9447 700.789 Q33.6716 703.272 33.035 705.946 Q32.3984 708.619 32.3984 711.484 Q32.3984 715.844 33.7352 718.04 Q35.072 720.205 37.7456 720.205 Q39.7826 720.205 40.9603 718.645 Q42.1061 717.086 43.1565 712.375 L43.6021 710.37 Q44.9389 704.131 47.3897 701.521 Q49.8086 698.88 54.1691 698.88 Q59.1344 698.88 62.0308 702.826 Q64.9272 706.741 64.9272 713.616 Q64.9272 716.481 64.3543 719.6 Q63.8132 722.687 62.6992 726.125 L56.6518 726.125 Q58.3387 722.878 59.198 719.727 Q60.0256 716.576 60.0256 713.489 Q60.0256 709.351 58.6251 707.123 Q57.1929 704.895 54.6147 704.895 Q52.2276 704.895 50.9545 706.519 Q49.6813 708.11 48.5037 713.553 L48.0262 715.59 Q46.8804 721.032 44.5251 723.451 Q42.138 725.87 38.0002 725.87 Q32.9713 725.87 30.2341 722.305 Q27.4968 718.741 27.4968 712.184 Q27.4968 708.938 27.9743 706.073 Q28.4517 703.208 29.4065 700.789 Z" fill="#000000" fill-rule="nonzero" fill-opacity="1" /><path clip-path="url(#clip550)" d="M35.1993 641.079 Q31.2526 638.883 29.3747 635.827 Q27.4968 632.772 27.4968 628.634 Q27.4968 623.064 31.4117 620.04 Q35.2948 617.017 42.4881 617.017 L64.0042 617.017 L64.0042 622.905 L42.679 622.905 Q37.5546 622.905 35.072 624.719 Q32.5894 626.533 32.5894 630.257 Q32.5894 634.809 35.6131 637.451 Q38.6368 640.092 43.8567 640.092 L64.0042 640.092 L64.0042 645.981 L42.679 645.981 Q37.5228 645.981 35.072 647.795 Q32.5894 649.609 32.5894 653.397 Q32.5894 657.885 35.6449 660.526 Q38.6686 663.168 43.8567 663.168 L64.0042 663.168 L64.0042 669.056 L28.3562 669.056 L28.3562 663.168 L33.8944 663.168 Q30.616 661.163 29.0564 658.362 Q27.4968 655.561 27.4968 651.71 Q27.4968 647.827 29.4702 645.121 Q31.4436 642.384 35.1993 641.079 Z" fill="#000000" fill-rule="nonzero" fill-opacity="1" /><path clip-path="url(#clip552)" d="M205.121 1070.21 L1127.63 1070.21 L1127.63 1070.21 L1127.63 1070.2 L1127.68 1070.1 L1128.16 1069.1 L1133 1059 L1153.84 1012.04 L1194.21 903.125 L1249.42 706.06 L1318.49 351.192 L1361.38 47.2441 L1361.38 47.2441 L205.121 47.2441 L205.121 1070.21  Z" fill="#0000ff" fill-rule="evenodd" fill-opacity="0.35"/>
<polyline clip-path="url(#clip552)" style="stroke:#000000; stroke-linecap:round; stroke-linejoin:round; stroke-width:4; stroke-opacity:0; fill:none" points="205.121,1070.21 1127.63,1070.21 1127.63,1070.2 1127.68,1070.1 1128.16,1069.1 1133,1059 1153.84,1012.04 1194.21,903.125 1249.42,706.06 1318.49,351.192 1361.38,47.2441 205.121,47.2441 205.121,1070.21 "/>
<path clip-path="url(#clip552)" d="M205.121 1070.21 L1127.63 1070.21 L1127.63 1070.21 L1127.62 1070.21 L1127.52 1070.25 L1126.56 1070.64 L1116.89 1074.51 L1020.22 1113.21 L246.123 1423.18 L246.123 1423.18 L205.121 1423.18 L205.121 1070.21  Z" fill="#a52a2a" fill-rule="evenodd" fill-opacity="0.35"/>
<polyline clip-path="url(#clip552)" style="stroke:#000000; stroke-linecap:round; stroke-linejoin:round; stroke-width:4; stroke-opacity:0; fill:none" points="205.121,1070.21 1127.63,1070.21 1127.62,1070.21 1127.52,1070.25 1126.56,1070.64 1116.89,1074.51 1020.22,1113.21 246.123,1423.18 205.121,1423.18 205.121,1070.21 "/>
<polyline clip-path="url(#clip552)" style="stroke:#808080; stroke-linecap:round; stroke-linejoin:round; stroke-width:4; stroke-opacity:1; fill:none" points="1127.63,1070.21 1127.63,1070.2 1127.68,1070.1 1128.16,1069.1 1133,1059 1153.84,1012.04 1194.21,903.125 1249.42,706.06 1318.49,351.192 1361.38,47.2441 "/>
<polyline clip-path="url(#clip552)" style="stroke:#808080; stroke-linecap:round; stroke-linejoin:round; stroke-width:4; stroke-opacity:1; fill:none" points="1127.63,1070.21 1127.62,1070.21 1127.52,1070.25 1126.56,1070.64 1116.89,1074.51 1020.22,1113.21 246.123,1423.18 "/>
<path clip-path="url(#clip552)" d="M1361.38 47.2441 L1361.38 47.2441 L1318.49 351.192 L1249.42 706.06 L1194.21 903.125 L1153.84 1012.04 L1133 1059 L1128.16 1069.1 L1127.68 1070.1 L1127.63 1070.2 L1127.63 1070.21 L1127.63 1070.21 L1320.53 964.131 L1430.98 858.057 L1502.53 751.982 L1552.66 645.908 L1589.73 539.834 L1618.26 433.759 L1640.89 327.685 L1659.28 221.61 L1674.53 115.536 L1674.53 115.536 L1675.52 107.948 L1676.5 100.36 L1677.47 92.772 L1678.42 85.184 L1679.37 77.596 L1680.3 70.008 L1681.22 62.42 L1682.13 54.8321 L1683.03 47.2441 L205.121 47.2441 L1361.38 47.2441  Z" fill="#9acd32" fill-rule="evenodd" fill-opacity="0.35"/>
<polyline clip-path="url(#clip552)" style="stroke:#000000; stroke-linecap:round; stroke-linejoin:round; stroke-width:4; stroke-opacity:0; fill:none" points="1361.38,47.2441 1361.38,47.2441 1318.49,351.192 1249.42,706.06 1194.21,903.125 1153.84,1012.04 1133,1059 1128.16,1069.1 1127.68,1070.1 1127.63,1070.2 1127.63,1070.21 1127.63,1070.21 1320.53,964.131 1430.98,858.057 1502.53,751.982 1552.66,645.908 1589.73,539.834 1618.26,433.759 1640.89,327.685 1659.28,221.61 1674.53,115.536 1675.52,107.948 1676.5,100.36 1677.47,92.772 1678.42,85.184 1679.37,77.596 1680.3,70.008 1681.22,62.42 1682.13,54.8321 1683.03,47.2441 205.121,47.2441 1361.38,47.2441 "/>
<path clip-path="url(#clip552)" d="M246.123 1423.18 L246.123 1423.18 L1020.22 1113.21 L1116.89 1074.51 L1126.56 1070.64 L1127.52 1070.25 L1127.62 1070.21 L1127.63 1070.21 L1127.63 1070.21 L1320.53 964.131 L1430.98 858.057 L1502.53 751.982 L1552.66 645.908 L1589.73 539.834 L1618.26 433.759 L1640.89 327.685 L1659.28 221.61 L1674.53 115.536 L1674.53 115.536 L1675.52 107.948 L1676.5 100.36 L1677.47 92.772 L1678.42 85.184 L1679.37 77.596 L1680.3 70.008 L1681.22 62.42 L1682.13 54.8321 L1683.03 47.2441 L205.121 47.2441 L2352.76 47.2441 L2352.76 1423.18 L205.121 1423.18 L246.123 1423.18  Z" fill="#ff0000" fill-rule="evenodd" fill-opacity="0.35"/>
<polyline clip-path="url(#clip552)" style="stroke:#000000; stroke-linecap:round; stroke-linejoin:round; stroke-width:4; stroke-opacity:0; fill:none" points="246.123,1423.18 246.123,1423.18 1020.22,1113.21 1116.89,1074.51 1126.56,1070.64 1127.52,1070.25 1127.62,1070.21 1127.63,1070.21 1127.63,1070.21 1320.53,964.131 1430.98,858.057 1502.53,751.982 1552.66,645.908 1589.73,539.834 1618.26,433.759 1640.89,327.685 1659.28,221.61 1674.53,115.536 1675.52,107.948 1676.5,100.36 1677.47,92.772 1678.42,85.184 1679.37,77.596 1680.3,70.008 1681.22,62.42 1682.13,54.8321 1683.03,47.2441 205.121,47.2441 2352.76,47.2441 2352.76,1423.18 205.121,1423.18 246.123,1423.18 "/>
<polyline clip-path="url(#clip552)" style="stroke:#808080; stroke-linecap:round; stroke-linejoin:round; stroke-width:12; stroke-opacity:1; fill:none" points="1674.53,115.536 1675.52,107.948 1676.5,100.36 1677.47,92.772 1678.42,85.184 1679.37,77.596 1680.3,70.008 1681.22,62.42 1682.13,54.8321 1683.03,47.2441 "/>
<polyline clip-path="url(#clip552)" style="stroke:#ffd700; stroke-linecap:round; stroke-linejoin:round; stroke-width:12; stroke-opacity:1; fill:none" points="1127.63,1070.21 1320.53,964.131 1430.98,858.057 1502.53,751.982 1552.66,645.908 1589.73,539.834 1618.26,433.759 1640.89,327.685 1659.28,221.61 1674.53,115.536 "/>
<polyline clip-path="url(#clip552)" style="stroke:#008000; stroke-linecap:round; stroke-linejoin:round; stroke-width:12; stroke-opacity:1; fill:none" points="205.121,1070.21 1127.63,1070.21 "/>
<path clip-path="url(#clip550)" d="M1706.48 507.829 L2281.17 507.829 L2281.17 93.1086 L1706.48 93.1086  Z" fill="#ffffff" fill-rule="evenodd" fill-opacity="1"/>
<polyline clip-path="url(#clip550)" style="stroke:#000000; stroke-linecap:round; stroke-linejoin:round; stroke-width:4; stroke-opacity:1; fill:none" points="1706.48,507.829 2281.17,507.829 2281.17,93.1086 1706.48,93.1086 1706.48,507.829 "/>
<path clip-path="url(#clip550)" d="M1730.34 165.685 L1873.51 165.685 L1873.51 124.213 L1730.34 124.213 L1730.34 165.685  Z" fill="#0000ff" fill-rule="evenodd" fill-opacity="0.35"/>
<polyline clip-path="url(#clip550)" style="stroke:#000000; stroke-linecap:round; stroke-linejoin:round; stroke-width:4; stroke-opacity:0; fill:none" points="1730.34,165.685 1873.51,165.685 1873.51,124.213 1730.34,124.213 1730.34,165.685 "/>
<path clip-path="url(#clip550)" d="M1897.38 151.997 L1897.38 136.303 L1901.64 136.303 L1901.64 151.835 Q1901.64 155.516 1903.07 157.368 Q1904.51 159.196 1907.38 159.196 Q1910.83 159.196 1912.82 156.997 Q1914.83 154.798 1914.83 151.002 L1914.83 136.303 L1919.09 136.303 L1919.09 162.229 L1914.83 162.229 L1914.83 158.247 Q1913.28 160.608 1911.22 161.766 Q1909.18 162.9 1906.47 162.9 Q1902.01 162.9 1899.69 160.122 Q1897.38 157.344 1897.38 151.997 M1908.09 135.678 L1908.09 135.678 Z" fill="#000000" fill-rule="nonzero" fill-opacity="1" /><path clip-path="url(#clip550)" d="M1926.57 152.807 L1945.25 152.807 L1945.25 155.006 L1926.57 155.006 L1926.57 152.807 Z" fill="#000000" fill-rule="nonzero" fill-opacity="1" /><path clip-path="url(#clip550)" d="M1978.33 142.946 Q1976.47 142.946 1975.2 144.243 Q1973.93 145.516 1973.93 147.368 Q1973.93 149.196 1975.2 150.469 Q1976.47 151.719 1978.33 151.719 Q1980.18 151.719 1981.45 150.469 Q1982.72 149.196 1982.72 147.368 Q1982.72 145.539 1981.43 144.243 Q1980.15 142.946 1978.33 142.946 M1978.33 139.96 Q1979.81 139.96 1981.17 140.539 Q1982.54 141.094 1983.53 142.159 Q1984.6 143.201 1985.13 144.52 Q1985.66 145.84 1985.66 147.368 Q1985.66 150.423 1983.51 152.553 Q1981.38 154.659 1978.28 154.659 Q1975.15 154.659 1973.07 152.576 Q1970.99 150.493 1970.99 147.368 Q1970.99 144.266 1973.12 142.113 Q1975.25 139.96 1978.33 139.96 Z" fill="#000000" fill-rule="nonzero" fill-opacity="1" /><path clip-path="url(#clip550)" d="M2012.26 151.997 L2012.26 136.303 L2016.52 136.303 L2016.52 151.835 Q2016.52 155.516 2017.95 157.368 Q2019.39 159.196 2022.26 159.196 Q2025.71 159.196 2027.7 156.997 Q2029.71 154.798 2029.71 151.002 L2029.71 136.303 L2033.97 136.303 L2033.97 162.229 L2029.71 162.229 L2029.71 158.247 Q2028.16 160.608 2026.1 161.766 Q2024.07 162.9 2021.36 162.9 Q2016.89 162.9 2014.58 160.122 Q2012.26 157.344 2012.26 151.997 M2022.98 135.678 L2022.98 135.678 Z" fill="#000000" fill-rule="nonzero" fill-opacity="1" /><path clip-path="url(#clip550)" d="M2052.58 147.761 L2052.58 150.006 Q2051.45 149.497 2050.22 149.243 Q2049.02 148.988 2047.7 148.988 Q2045.69 148.988 2044.69 149.52 Q2043.7 150.076 2043.7 151.164 Q2043.7 151.997 2044.41 152.46 Q2045.13 152.946 2047.28 153.363 L2048.21 153.548 Q2051.1 154.104 2052.26 155.076 Q2053.46 156.071 2053.46 157.854 Q2053.46 159.868 2051.66 161.048 Q2049.88 162.229 2046.73 162.229 Q2045.41 162.229 2043.97 161.997 Q2042.56 161.766 2040.99 161.326 L2040.99 158.849 Q2042.47 159.543 2043.93 159.891 Q2045.36 160.238 2046.77 160.238 Q2048.67 160.238 2049.69 159.659 Q2050.71 159.08 2050.71 158.039 Q2050.71 157.067 2049.97 156.534 Q2049.32 156.071 2046.75 155.539 L2045.83 155.354 Q2043.33 154.868 2042.21 153.918 Q2041.1 152.946 2041.1 151.256 Q2041.1 149.219 2042.75 148.108 Q2044.37 146.974 2047.38 146.974 Q2048.86 146.974 2050.18 147.182 Q2051.5 147.368 2052.58 147.761 Z" fill="#000000" fill-rule="nonzero" fill-opacity="1" /><path clip-path="url(#clip550)" d="M2085.87 142.946 Q2084.02 142.946 2082.75 144.243 Q2081.47 145.516 2081.47 147.368 Q2081.47 149.196 2082.75 150.469 Q2084.02 151.719 2085.87 151.719 Q2087.72 151.719 2089 150.469 Q2090.27 149.196 2090.27 147.368 Q2090.27 145.539 2088.97 144.243 Q2087.7 142.946 2085.87 142.946 M2085.87 139.96 Q2087.35 139.96 2088.72 140.539 Q2090.08 141.094 2091.08 142.159 Q2092.14 143.201 2092.68 144.52 Q2093.21 145.84 2093.21 147.368 Q2093.21 150.423 2091.06 152.553 Q2088.93 154.659 2085.82 154.659 Q2082.7 154.659 2080.62 152.576 Q2078.53 150.493 2078.53 147.368 Q2078.53 144.266 2080.66 142.113 Q2082.79 139.96 2085.87 139.96 Z" fill="#000000" fill-rule="nonzero" fill-opacity="1" /><path clip-path="url(#clip550)" d="M2119.81 151.997 L2119.81 136.303 L2124.07 136.303 L2124.07 151.835 Q2124.07 155.516 2125.5 157.368 Q2126.94 159.196 2129.81 159.196 Q2133.26 159.196 2135.25 156.997 Q2137.26 154.798 2137.26 151.002 L2137.26 136.303 L2141.52 136.303 L2141.52 162.229 L2137.26 162.229 L2137.26 158.247 Q2135.71 160.608 2133.65 161.766 Q2131.61 162.9 2128.9 162.9 Q2124.44 162.9 2122.12 160.122 Q2119.81 157.344 2119.81 151.997 M2130.52 135.678 L2130.52 135.678 Z" fill="#000000" fill-rule="nonzero" fill-opacity="1" /><path clip-path="url(#clip550)" d="M2159.55 145.585 L2159.55 152.807 L2167.68 152.807 L2167.68 155.006 L2159.55 155.006 L2159.55 162.229 L2157.12 162.229 L2157.12 155.006 L2149 155.006 L2149 152.807 L2157.12 152.807 L2157.12 145.585 L2159.55 145.585 Z" fill="#000000" fill-rule="nonzero" fill-opacity="1" /><path clip-path="url(#clip550)" d="M1730.34 217.525 L1873.51 217.525 L1873.51 176.053 L1730.34 176.053 L1730.34 217.525  Z" fill="#a52a2a" fill-rule="evenodd" fill-opacity="0.35"/>
<polyline clip-path="url(#clip550)" style="stroke:#000000; stroke-linecap:round; stroke-linejoin:round; stroke-width:4; stroke-opacity:0; fill:none" points="1730.34,217.525 1873.51,217.525 1873.51,176.053 1730.34,176.053 1730.34,217.525 "/>
<path clip-path="url(#clip550)" d="M1897.38 203.837 L1897.38 188.143 L1901.64 188.143 L1901.64 203.675 Q1901.64 207.356 1903.07 209.208 Q1904.51 211.036 1907.38 211.036 Q1910.83 211.036 1912.82 208.837 Q1914.83 206.638 1914.83 202.842 L1914.83 188.143 L1919.09 188.143 L1919.09 214.069 L1914.83 214.069 L1914.83 210.087 Q1913.28 212.448 1911.22 213.606 Q1909.18 214.74 1906.47 214.74 Q1902.01 214.74 1899.69 211.962 Q1897.38 209.184 1897.38 203.837 M1908.09 187.518 L1908.09 187.518 Z" fill="#000000" fill-rule="nonzero" fill-opacity="1" /><path clip-path="url(#clip550)" d="M1937.12 197.425 L1937.12 204.647 L1945.25 204.647 L1945.25 206.846 L1937.12 206.846 L1937.12 214.069 L1934.69 214.069 L1934.69 206.846 L1926.57 206.846 L1926.57 204.647 L1934.69 204.647 L1934.69 197.425 L1937.12 197.425 Z" fill="#000000" fill-rule="nonzero" fill-opacity="1" /><path clip-path="url(#clip550)" d="M1978.33 194.786 Q1976.47 194.786 1975.2 196.083 Q1973.93 197.356 1973.93 199.208 Q1973.93 201.036 1975.2 202.309 Q1976.47 203.559 1978.33 203.559 Q1980.18 203.559 1981.45 202.309 Q1982.72 201.036 1982.72 199.208 Q1982.72 197.379 1981.43 196.083 Q1980.15 194.786 1978.33 194.786 M1978.33 191.8 Q1979.81 191.8 1981.17 192.379 Q1982.54 192.934 1983.53 193.999 Q1984.6 195.041 1985.13 196.36 Q1985.66 197.68 1985.66 199.208 Q1985.66 202.263 1983.51 204.393 Q1981.38 206.499 1978.28 206.499 Q1975.15 206.499 1973.07 204.416 Q1970.99 202.333 1970.99 199.208 Q1970.99 196.106 1973.12 193.953 Q1975.25 191.8 1978.33 191.8 Z" fill="#000000" fill-rule="nonzero" fill-opacity="1" /><path clip-path="url(#clip550)" d="M2012.26 203.837 L2012.26 188.143 L2016.52 188.143 L2016.52 203.675 Q2016.52 207.356 2017.95 209.208 Q2019.39 211.036 2022.26 211.036 Q2025.71 211.036 2027.7 208.837 Q2029.71 206.638 2029.71 202.842 L2029.71 188.143 L2033.97 188.143 L2033.97 214.069 L2029.71 214.069 L2029.71 210.087 Q2028.16 212.448 2026.1 213.606 Q2024.07 214.74 2021.36 214.74 Q2016.89 214.74 2014.58 211.962 Q2012.26 209.184 2012.26 203.837 M2022.98 187.518 L2022.98 187.518 Z" fill="#000000" fill-rule="nonzero" fill-opacity="1" /><path clip-path="url(#clip550)" d="M2052.58 199.601 L2052.58 201.846 Q2051.45 201.337 2050.22 201.083 Q2049.02 200.828 2047.7 200.828 Q2045.69 200.828 2044.69 201.36 Q2043.7 201.916 2043.7 203.004 Q2043.7 203.837 2044.41 204.3 Q2045.13 204.786 2047.28 205.203 L2048.21 205.388 Q2051.1 205.944 2052.26 206.916 Q2053.46 207.911 2053.46 209.694 Q2053.46 211.708 2051.66 212.888 Q2049.88 214.069 2046.73 214.069 Q2045.41 214.069 2043.97 213.837 Q2042.56 213.606 2040.99 213.166 L2040.99 210.689 Q2042.47 211.383 2043.93 211.731 Q2045.36 212.078 2046.77 212.078 Q2048.67 212.078 2049.69 211.499 Q2050.71 210.92 2050.71 209.879 Q2050.71 208.907 2049.97 208.374 Q2049.32 207.911 2046.75 207.379 L2045.83 207.194 Q2043.33 206.708 2042.21 205.758 Q2041.1 204.786 2041.1 203.096 Q2041.1 201.059 2042.75 199.948 Q2044.37 198.814 2047.38 198.814 Q2048.86 198.814 2050.18 199.022 Q2051.5 199.208 2052.58 199.601 Z" fill="#000000" fill-rule="nonzero" fill-opacity="1" /><path clip-path="url(#clip550)" d="M2085.87 194.786 Q2084.02 194.786 2082.75 196.083 Q2081.47 197.356 2081.47 199.208 Q2081.47 201.036 2082.75 202.309 Q2084.02 203.559 2085.87 203.559 Q2087.72 203.559 2089 202.309 Q2090.27 201.036 2090.27 199.208 Q2090.27 197.379 2088.97 196.083 Q2087.7 194.786 2085.87 194.786 M2085.87 191.8 Q2087.35 191.8 2088.72 192.379 Q2090.08 192.934 2091.08 193.999 Q2092.14 195.041 2092.68 196.36 Q2093.21 197.68 2093.21 199.208 Q2093.21 202.263 2091.06 204.393 Q2088.93 206.499 2085.82 206.499 Q2082.7 206.499 2080.62 204.416 Q2078.53 202.333 2078.53 199.208 Q2078.53 196.106 2080.66 193.953 Q2082.79 191.8 2085.87 191.8 Z" fill="#000000" fill-rule="nonzero" fill-opacity="1" /><path clip-path="url(#clip550)" d="M2119.81 203.837 L2119.81 188.143 L2124.07 188.143 L2124.07 203.675 Q2124.07 207.356 2125.5 209.208 Q2126.94 211.036 2129.81 211.036 Q2133.26 211.036 2135.25 208.837 Q2137.26 206.638 2137.26 202.842 L2137.26 188.143 L2141.52 188.143 L2141.52 214.069 L2137.26 214.069 L2137.26 210.087 Q2135.71 212.448 2133.65 213.606 Q2131.61 214.74 2128.9 214.74 Q2124.44 214.74 2122.12 211.962 Q2119.81 209.184 2119.81 203.837 M2130.52 187.518 L2130.52 187.518 Z" fill="#000000" fill-rule="nonzero" fill-opacity="1" /><path clip-path="url(#clip550)" d="M2159.55 197.425 L2159.55 204.647 L2167.68 204.647 L2167.68 206.846 L2159.55 206.846 L2159.55 214.069 L2157.12 214.069 L2157.12 206.846 L2149 206.846 L2149 204.647 L2157.12 204.647 L2157.12 197.425 L2159.55 197.425 Z" fill="#000000" fill-rule="nonzero" fill-opacity="1" /><path clip-path="url(#clip550)" d="M1730.34 269.365 L1873.51 269.365 L1873.51 227.893 L1730.34 227.893 L1730.34 269.365  Z" fill="#9acd32" fill-rule="evenodd" fill-opacity="0.35"/>
<polyline clip-path="url(#clip550)" style="stroke:#000000; stroke-linecap:round; stroke-linejoin:round; stroke-width:4; stroke-opacity:0; fill:none" points="1730.34,269.365 1873.51,269.365 1873.51,227.893 1730.34,227.893 1730.34,269.365 "/>
<path clip-path="url(#clip550)" d="M1897.38 255.677 L1897.38 239.983 L1901.64 239.983 L1901.64 255.515 Q1901.64 259.196 1903.07 261.048 Q1904.51 262.876 1907.38 262.876 Q1910.83 262.876 1912.82 260.677 Q1914.83 258.478 1914.83 254.682 L1914.83 239.983 L1919.09 239.983 L1919.09 265.909 L1914.83 265.909 L1914.83 261.927 Q1913.28 264.288 1911.22 265.446 Q1909.18 266.58 1906.47 266.58 Q1902.01 266.58 1899.69 263.802 Q1897.38 261.024 1897.38 255.677 M1908.09 239.358 L1908.09 239.358 Z" fill="#000000" fill-rule="nonzero" fill-opacity="1" /><path clip-path="url(#clip550)" d="M1926.57 256.487 L1945.25 256.487 L1945.25 258.686 L1926.57 258.686 L1926.57 256.487 Z" fill="#000000" fill-rule="nonzero" fill-opacity="1" /><path clip-path="url(#clip550)" d="M1978.33 246.626 Q1976.47 246.626 1975.2 247.923 Q1973.93 249.196 1973.93 251.048 Q1973.93 252.876 1975.2 254.149 Q1976.47 255.399 1978.33 255.399 Q1980.18 255.399 1981.45 254.149 Q1982.72 252.876 1982.72 251.048 Q1982.72 249.219 1981.43 247.923 Q1980.15 246.626 1978.33 246.626 M1978.33 243.64 Q1979.81 243.64 1981.17 244.219 Q1982.54 244.774 1983.53 245.839 Q1984.6 246.881 1985.13 248.2 Q1985.66 249.52 1985.66 251.048 Q1985.66 254.103 1983.51 256.233 Q1981.38 258.339 1978.28 258.339 Q1975.15 258.339 1973.07 256.256 Q1970.99 254.173 1970.99 251.048 Q1970.99 247.946 1973.12 245.793 Q1975.25 243.64 1978.33 243.64 Z" fill="#000000" fill-rule="nonzero" fill-opacity="1" /><path clip-path="url(#clip550)" d="M2012.26 255.677 L2012.26 239.983 L2016.52 239.983 L2016.52 255.515 Q2016.52 259.196 2017.95 261.048 Q2019.39 262.876 2022.26 262.876 Q2025.71 262.876 2027.7 260.677 Q2029.71 258.478 2029.71 254.682 L2029.71 239.983 L2033.97 239.983 L2033.97 265.909 L2029.71 265.909 L2029.71 261.927 Q2028.16 264.288 2026.1 265.446 Q2024.07 266.58 2021.36 266.58 Q2016.89 266.58 2014.58 263.802 Q2012.26 261.024 2012.26 255.677 M2022.98 239.358 L2022.98 239.358 Z" fill="#000000" fill-rule="nonzero" fill-opacity="1" /><path clip-path="url(#clip550)" d="M2052.01 249.265 L2052.01 256.487 L2060.13 256.487 L2060.13 258.686 L2052.01 258.686 L2052.01 265.909 L2049.58 265.909 L2049.58 258.686 L2041.45 258.686 L2041.45 256.487 L2049.58 256.487 L2049.58 249.265 L2052.01 249.265 Z" fill="#000000" fill-rule="nonzero" fill-opacity="1" /><path clip-path="url(#clip550)" d="M1730.34 321.205 L1873.51 321.205 L1873.51 279.733 L1730.34 279.733 L1730.34 321.205  Z" fill="#ff0000" fill-rule="evenodd" fill-opacity="0.35"/>
<polyline clip-path="url(#clip550)" style="stroke:#000000; stroke-linecap:round; stroke-linejoin:round; stroke-width:4; stroke-opacity:0; fill:none" points="1730.34,321.205 1873.51,321.205 1873.51,279.733 1730.34,279.733 1730.34,321.205 "/>
<path clip-path="url(#clip550)" d="M1897.38 307.517 L1897.38 291.823 L1901.64 291.823 L1901.64 307.355 Q1901.64 311.036 1903.07 312.888 Q1904.51 314.716 1907.38 314.716 Q1910.83 314.716 1912.82 312.517 Q1914.83 310.318 1914.83 306.522 L1914.83 291.823 L1919.09 291.823 L1919.09 317.749 L1914.83 317.749 L1914.83 313.767 Q1913.28 316.128 1911.22 317.286 Q1909.18 318.42 1906.47 318.42 Q1902.01 318.42 1899.69 315.642 Q1897.38 312.864 1897.38 307.517 M1908.09 291.198 L1908.09 291.198 Z" fill="#000000" fill-rule="nonzero" fill-opacity="1" /><path clip-path="url(#clip550)" d="M1937.12 301.105 L1937.12 308.327 L1945.25 308.327 L1945.25 310.526 L1937.12 310.526 L1937.12 317.749 L1934.69 317.749 L1934.69 310.526 L1926.57 310.526 L1926.57 308.327 L1934.69 308.327 L1934.69 301.105 L1937.12 301.105 Z" fill="#000000" fill-rule="nonzero" fill-opacity="1" /><polyline clip-path="url(#clip550)" style="stroke:#808080; stroke-linecap:round; stroke-linejoin:round; stroke-width:12; stroke-opacity:1; fill:none" points="1730.34,352.309 1873.51,352.309 "/>
<path clip-path="url(#clip550)" d="M1916.29 347.598 L1916.29 333.57 L1920.55 333.57 L1920.55 369.589 L1916.29 369.589 L1916.29 365.7 Q1914.95 368.015 1912.89 369.149 Q1910.85 370.26 1907.98 370.26 Q1903.28 370.26 1900.32 366.51 Q1897.38 362.76 1897.38 356.649 Q1897.38 350.538 1900.32 346.788 Q1903.28 343.038 1907.98 343.038 Q1910.85 343.038 1912.89 344.172 Q1914.95 345.283 1916.29 347.598 M1901.77 356.649 Q1901.77 361.348 1903.7 364.033 Q1905.64 366.695 1909.02 366.695 Q1912.4 366.695 1914.34 364.033 Q1916.29 361.348 1916.29 356.649 Q1916.29 351.95 1914.34 349.288 Q1912.4 346.603 1909.02 346.603 Q1905.64 346.603 1903.7 349.288 Q1901.77 351.95 1901.77 356.649 Z" fill="#000000" fill-rule="nonzero" fill-opacity="1" /><path clip-path="url(#clip550)" d="M1929.32 343.663 L1933.58 343.663 L1933.58 369.589 L1929.32 369.589 L1929.32 343.663 M1929.32 333.57 L1933.58 333.57 L1933.58 338.964 L1929.32 338.964 L1929.32 333.57 Z" fill="#000000" fill-rule="nonzero" fill-opacity="1" /><path clip-path="url(#clip550)" d="M1959.02 344.427 L1959.02 348.454 Q1957.21 347.529 1955.27 347.066 Q1953.33 346.603 1951.24 346.603 Q1948.07 346.603 1946.47 347.575 Q1944.9 348.547 1944.9 350.491 Q1944.9 351.973 1946.03 352.829 Q1947.17 353.663 1950.59 354.427 L1952.05 354.751 Q1956.59 355.723 1958.49 357.505 Q1960.41 359.265 1960.41 362.436 Q1960.41 366.047 1957.54 368.153 Q1954.69 370.26 1949.69 370.26 Q1947.61 370.26 1945.34 369.843 Q1943.09 369.45 1940.59 368.64 L1940.59 364.241 Q1942.96 365.468 1945.25 366.093 Q1947.54 366.695 1949.78 366.695 Q1952.79 366.695 1954.41 365.677 Q1956.03 364.635 1956.03 362.76 Q1956.03 361.024 1954.85 360.098 Q1953.7 359.172 1949.74 358.316 L1948.26 357.968 Q1944.3 357.135 1942.54 355.422 Q1940.78 353.686 1940.78 350.677 Q1940.78 347.019 1943.37 345.029 Q1945.96 343.038 1950.73 343.038 Q1953.09 343.038 1955.18 343.385 Q1957.26 343.732 1959.02 344.427 Z" fill="#000000" fill-rule="nonzero" fill-opacity="1" /><path clip-path="url(#clip550)" d="M1971.31 365.7 L1971.31 379.45 L1967.03 379.45 L1967.03 343.663 L1971.31 343.663 L1971.31 347.598 Q1972.65 345.283 1974.69 344.172 Q1976.75 343.038 1979.6 343.038 Q1984.32 343.038 1987.26 346.788 Q1990.22 350.538 1990.22 356.649 Q1990.22 362.76 1987.26 366.51 Q1984.32 370.26 1979.6 370.26 Q1976.75 370.26 1974.69 369.149 Q1972.65 368.015 1971.31 365.7 M1985.8 356.649 Q1985.8 351.95 1983.86 349.288 Q1981.94 346.603 1978.56 346.603 Q1975.18 346.603 1973.23 349.288 Q1971.31 351.95 1971.31 356.649 Q1971.31 361.348 1973.23 364.033 Q1975.18 366.695 1978.56 366.695 Q1981.94 366.695 1983.86 364.033 Q1985.8 361.348 1985.8 356.649 Z" fill="#000000" fill-rule="nonzero" fill-opacity="1" /><path clip-path="url(#clip550)" d="M2019.46 355.561 L2019.46 357.644 L1999.88 357.644 Q2000.15 362.042 2002.52 364.357 Q2004.9 366.649 2009.14 366.649 Q2011.59 366.649 2013.88 366.047 Q2016.2 365.445 2018.46 364.241 L2018.46 368.269 Q2016.17 369.241 2013.77 369.751 Q2011.36 370.26 2008.88 370.26 Q2002.68 370.26 1999.04 366.649 Q1995.43 363.038 1995.43 356.88 Q1995.43 350.515 1998.86 346.788 Q2002.31 343.038 2008.14 343.038 Q2013.37 343.038 2016.4 346.417 Q2019.46 349.774 2019.46 355.561 M2015.2 354.311 Q2015.15 350.816 2013.23 348.732 Q2011.33 346.649 2008.19 346.649 Q2004.62 346.649 2002.47 348.663 Q2000.34 350.677 2000.02 354.334 L2015.2 354.311 Z" fill="#000000" fill-rule="nonzero" fill-opacity="1" /><path clip-path="url(#clip550)" d="M2041.47 347.644 Q2040.76 347.228 2039.9 347.042 Q2039.07 346.834 2038.05 346.834 Q2034.44 346.834 2032.49 349.195 Q2030.57 351.533 2030.57 355.931 L2030.57 369.589 L2026.29 369.589 L2026.29 343.663 L2030.57 343.663 L2030.57 347.691 Q2031.91 345.329 2034.07 344.195 Q2036.22 343.038 2039.3 343.038 Q2039.74 343.038 2040.27 343.107 Q2040.8 343.154 2041.45 343.269 L2041.47 347.644 Z" fill="#000000" fill-rule="nonzero" fill-opacity="1" /><path clip-path="url(#clip550)" d="M2062.47 344.427 L2062.47 348.454 Q2060.66 347.529 2058.72 347.066 Q2056.77 346.603 2054.69 346.603 Q2051.52 346.603 2049.92 347.575 Q2048.35 348.547 2048.35 350.491 Q2048.35 351.973 2049.48 352.829 Q2050.62 353.663 2054.04 354.427 L2055.5 354.751 Q2060.04 355.723 2061.94 357.505 Q2063.86 359.265 2063.86 362.436 Q2063.86 366.047 2060.99 368.153 Q2058.14 370.26 2053.14 370.26 Q2051.06 370.26 2048.79 369.843 Q2046.54 369.45 2044.04 368.64 L2044.04 364.241 Q2046.4 365.468 2048.7 366.093 Q2050.99 366.695 2053.23 366.695 Q2056.24 366.695 2057.86 365.677 Q2059.48 364.635 2059.48 362.76 Q2059.48 361.024 2058.3 360.098 Q2057.14 359.172 2053.19 358.316 L2051.7 357.968 Q2047.75 357.135 2045.99 355.422 Q2044.23 353.686 2044.23 350.677 Q2044.23 347.019 2046.82 345.029 Q2049.41 343.038 2054.18 343.038 Q2056.54 343.038 2058.63 343.385 Q2060.71 343.732 2062.47 344.427 Z" fill="#000000" fill-rule="nonzero" fill-opacity="1" /><path clip-path="url(#clip550)" d="M2070.64 343.663 L2074.9 343.663 L2074.9 369.589 L2070.64 369.589 L2070.64 343.663 M2070.64 333.57 L2074.9 333.57 L2074.9 338.964 L2070.64 338.964 L2070.64 333.57 Z" fill="#000000" fill-rule="nonzero" fill-opacity="1" /><path clip-path="url(#clip550)" d="M2095.59 356.556 Q2090.43 356.556 2088.44 357.737 Q2086.45 358.917 2086.45 361.765 Q2086.45 364.033 2087.93 365.376 Q2089.44 366.695 2092.01 366.695 Q2095.55 366.695 2097.68 364.195 Q2099.83 361.672 2099.83 357.505 L2099.83 356.556 L2095.59 356.556 M2104.09 354.797 L2104.09 369.589 L2099.83 369.589 L2099.83 365.653 Q2098.37 368.015 2096.2 369.149 Q2094.02 370.26 2090.87 370.26 Q2086.89 370.26 2084.53 368.038 Q2082.19 365.792 2082.19 362.042 Q2082.19 357.667 2085.11 355.445 Q2088.05 353.223 2093.86 353.223 L2099.83 353.223 L2099.83 352.806 Q2099.83 349.867 2097.89 348.269 Q2095.96 346.649 2092.47 346.649 Q2090.25 346.649 2088.14 347.181 Q2086.03 347.714 2084.09 348.779 L2084.09 344.843 Q2086.43 343.941 2088.63 343.501 Q2090.82 343.038 2092.91 343.038 Q2098.53 343.038 2101.31 345.954 Q2104.09 348.871 2104.09 354.797 Z" fill="#000000" fill-rule="nonzero" fill-opacity="1" /><path clip-path="url(#clip550)" d="M2112.86 333.57 L2117.12 333.57 L2117.12 369.589 L2112.86 369.589 L2112.86 333.57 Z" fill="#000000" fill-rule="nonzero" fill-opacity="1" /><path clip-path="url(#clip550)" d="M2141.1 333.57 L2145.36 333.57 L2145.36 369.589 L2141.1 369.589 L2141.1 333.57 Z" fill="#000000" fill-rule="nonzero" fill-opacity="1" /><path clip-path="url(#clip550)" d="M2164.32 346.649 Q2160.89 346.649 2158.9 349.334 Q2156.91 351.996 2156.91 356.649 Q2156.91 361.302 2158.88 363.987 Q2160.87 366.649 2164.32 366.649 Q2167.72 366.649 2169.71 363.964 Q2171.7 361.278 2171.7 356.649 Q2171.7 352.042 2169.71 349.357 Q2167.72 346.649 2164.32 346.649 M2164.32 343.038 Q2169.88 343.038 2173.05 346.649 Q2176.22 350.26 2176.22 356.649 Q2176.22 363.015 2173.05 366.649 Q2169.88 370.26 2164.32 370.26 Q2158.74 370.26 2155.57 366.649 Q2152.42 363.015 2152.42 356.649 Q2152.42 350.26 2155.57 346.649 Q2158.74 343.038 2164.32 343.038 Z" fill="#000000" fill-rule="nonzero" fill-opacity="1" /><path clip-path="url(#clip550)" d="M2201.94 344.658 L2201.94 348.64 Q2200.13 347.644 2198.3 347.158 Q2196.5 346.649 2194.64 346.649 Q2190.5 346.649 2188.21 349.288 Q2185.92 351.904 2185.92 356.649 Q2185.92 361.394 2188.21 364.033 Q2190.5 366.649 2194.64 366.649 Q2196.5 366.649 2198.3 366.163 Q2200.13 365.653 2201.94 364.658 L2201.94 368.593 Q2200.15 369.427 2198.23 369.843 Q2196.33 370.26 2194.18 370.26 Q2188.32 370.26 2184.88 366.579 Q2181.43 362.899 2181.43 356.649 Q2181.43 350.306 2184.9 346.672 Q2188.39 343.038 2194.46 343.038 Q2196.43 343.038 2198.3 343.455 Q2200.18 343.848 2201.94 344.658 Z" fill="#000000" fill-rule="nonzero" fill-opacity="1" /><path clip-path="url(#clip550)" d="M2208.9 359.357 L2208.9 343.663 L2213.16 343.663 L2213.16 359.195 Q2213.16 362.876 2214.6 364.728 Q2216.03 366.556 2218.9 366.556 Q2222.35 366.556 2224.34 364.357 Q2226.36 362.158 2226.36 358.362 L2226.36 343.663 L2230.62 343.663 L2230.62 369.589 L2226.36 369.589 L2226.36 365.607 Q2224.81 367.968 2222.75 369.126 Q2220.71 370.26 2218 370.26 Q2213.53 370.26 2211.22 367.482 Q2208.9 364.704 2208.9 359.357 M2219.62 343.038 L2219.62 343.038 Z" fill="#000000" fill-rule="nonzero" fill-opacity="1" /><path clip-path="url(#clip550)" d="M2255.92 344.427 L2255.92 348.454 Q2254.11 347.529 2252.17 347.066 Q2250.22 346.603 2248.14 346.603 Q2244.97 346.603 2243.37 347.575 Q2241.8 348.547 2241.8 350.491 Q2241.8 351.973 2242.93 352.829 Q2244.06 353.663 2247.49 354.427 L2248.95 354.751 Q2253.49 355.723 2255.38 357.505 Q2257.31 359.265 2257.31 362.436 Q2257.31 366.047 2254.44 368.153 Q2251.59 370.26 2246.59 370.26 Q2244.5 370.26 2242.24 369.843 Q2239.99 369.45 2237.49 368.64 L2237.49 364.241 Q2239.85 365.468 2242.14 366.093 Q2244.44 366.695 2246.68 366.695 Q2249.69 366.695 2251.31 365.677 Q2252.93 364.635 2252.93 362.76 Q2252.93 361.024 2251.75 360.098 Q2250.59 359.172 2246.63 358.316 L2245.15 357.968 Q2241.19 357.135 2239.44 355.422 Q2237.68 353.686 2237.68 350.677 Q2237.68 347.019 2240.27 345.029 Q2242.86 343.038 2247.63 343.038 Q2249.99 343.038 2252.07 343.385 Q2254.16 343.732 2255.92 344.427 Z" fill="#000000" fill-rule="nonzero" fill-opacity="1" /><polyline clip-path="url(#clip550)" style="stroke:#ffd700; stroke-linecap:round; stroke-linejoin:round; stroke-width:12; stroke-opacity:1; fill:none" points="1730.34,404.149 1873.51,404.149 "/>
<path clip-path="url(#clip550)" d="M1915.8 396.267 L1915.8 400.294 Q1914 399.369 1912.05 398.906 Q1910.11 398.443 1908.02 398.443 Q1904.85 398.443 1903.26 399.415 Q1901.68 400.387 1901.68 402.331 Q1901.68 403.813 1902.82 404.669 Q1903.95 405.503 1907.38 406.267 L1908.84 406.591 Q1913.37 407.563 1915.27 409.345 Q1917.19 411.105 1917.19 414.276 Q1917.19 417.887 1914.32 419.993 Q1911.47 422.1 1906.47 422.1 Q1904.39 422.1 1902.12 421.683 Q1899.88 421.29 1897.38 420.48 L1897.38 416.081 Q1899.74 417.308 1902.03 417.933 Q1904.32 418.535 1906.57 418.535 Q1909.58 418.535 1911.2 417.517 Q1912.82 416.475 1912.82 414.6 Q1912.82 412.864 1911.64 411.938 Q1910.48 411.012 1906.52 410.156 L1905.04 409.808 Q1901.08 408.975 1899.32 407.262 Q1897.56 405.526 1897.56 402.517 Q1897.56 398.859 1900.15 396.869 Q1902.75 394.878 1907.52 394.878 Q1909.88 394.878 1911.96 395.225 Q1914.04 395.572 1915.8 396.267 Z" fill="#000000" fill-rule="nonzero" fill-opacity="1" /><path clip-path="url(#clip550)" d="M1921.5 395.503 L1925.76 395.503 L1931.08 415.734 L1936.38 395.503 L1941.4 395.503 L1946.73 415.734 L1952.03 395.503 L1956.29 395.503 L1949.51 421.429 L1944.48 421.429 L1938.9 400.179 L1933.3 421.429 L1928.28 421.429 L1921.5 395.503 Z" fill="#000000" fill-rule="nonzero" fill-opacity="1" /><path clip-path="url(#clip550)" d="M1962.75 395.503 L1967.01 395.503 L1967.01 421.429 L1962.75 421.429 L1962.75 395.503 M1962.75 385.41 L1967.01 385.41 L1967.01 390.804 L1962.75 390.804 L1962.75 385.41 Z" fill="#000000" fill-rule="nonzero" fill-opacity="1" /><path clip-path="url(#clip550)" d="M1980.13 388.142 L1980.13 395.503 L1988.9 395.503 L1988.9 398.813 L1980.13 398.813 L1980.13 412.887 Q1980.13 416.058 1980.99 416.961 Q1981.87 417.864 1984.53 417.864 L1988.9 417.864 L1988.9 421.429 L1984.53 421.429 Q1979.6 421.429 1977.72 419.6 Q1975.85 417.748 1975.85 412.887 L1975.85 398.813 L1972.72 398.813 L1972.72 395.503 L1975.85 395.503 L1975.85 388.142 L1980.13 388.142 Z" fill="#000000" fill-rule="nonzero" fill-opacity="1" /><path clip-path="url(#clip550)" d="M2013.16 396.498 L2013.16 400.48 Q2011.36 399.484 2009.53 398.998 Q2007.72 398.489 2005.87 398.489 Q2001.73 398.489 1999.44 401.128 Q1997.14 403.744 1997.14 408.489 Q1997.14 413.234 1999.44 415.873 Q2001.73 418.489 2005.87 418.489 Q2007.72 418.489 2009.53 418.003 Q2011.36 417.493 2013.16 416.498 L2013.16 420.433 Q2011.38 421.267 2009.46 421.683 Q2007.56 422.1 2005.41 422.1 Q1999.55 422.1 1996.1 418.419 Q1992.65 414.739 1992.65 408.489 Q1992.65 402.146 1996.13 398.512 Q1999.62 394.878 2005.69 394.878 Q2007.65 394.878 2009.53 395.295 Q2011.4 395.688 2013.16 396.498 Z" fill="#000000" fill-rule="nonzero" fill-opacity="1" /><path clip-path="url(#clip550)" d="M2042.12 405.781 L2042.12 421.429 L2037.86 421.429 L2037.86 405.919 Q2037.86 402.239 2036.43 400.41 Q2034.99 398.582 2032.12 398.582 Q2028.67 398.582 2026.68 400.781 Q2024.69 402.98 2024.69 406.776 L2024.69 421.429 L2020.41 421.429 L2020.41 385.41 L2024.69 385.41 L2024.69 399.531 Q2026.22 397.193 2028.28 396.035 Q2030.36 394.878 2033.07 394.878 Q2037.54 394.878 2039.83 397.656 Q2042.12 400.41 2042.12 405.781 Z" fill="#000000" fill-rule="nonzero" fill-opacity="1" /><path clip-path="url(#clip550)" d="M2050.62 395.503 L2054.88 395.503 L2054.88 421.429 L2050.62 421.429 L2050.62 395.503 M2050.62 385.41 L2054.88 385.41 L2054.88 390.804 L2050.62 390.804 L2050.62 385.41 Z" fill="#000000" fill-rule="nonzero" fill-opacity="1" /><path clip-path="url(#clip550)" d="M2085.34 405.781 L2085.34 421.429 L2081.08 421.429 L2081.08 405.919 Q2081.08 402.239 2079.64 400.41 Q2078.21 398.582 2075.34 398.582 Q2071.89 398.582 2069.9 400.781 Q2067.91 402.98 2067.91 406.776 L2067.91 421.429 L2063.63 421.429 L2063.63 395.503 L2067.91 395.503 L2067.91 399.531 Q2069.44 397.193 2071.5 396.035 Q2073.58 394.878 2076.29 394.878 Q2080.76 394.878 2083.05 397.656 Q2085.34 400.41 2085.34 405.781 Z" fill="#000000" fill-rule="nonzero" fill-opacity="1" /><path clip-path="url(#clip550)" d="M2110.89 408.165 Q2110.89 403.535 2108.97 400.989 Q2107.07 398.443 2103.63 398.443 Q2100.2 398.443 2098.28 400.989 Q2096.38 403.535 2096.38 408.165 Q2096.38 412.771 2098.28 415.318 Q2100.2 417.864 2103.63 417.864 Q2107.07 417.864 2108.97 415.318 Q2110.89 412.771 2110.89 408.165 M2115.15 418.211 Q2115.15 424.831 2112.21 428.049 Q2109.27 431.29 2103.21 431.29 Q2100.96 431.29 2098.97 430.942 Q2096.98 430.618 2095.11 429.924 L2095.11 425.78 Q2096.98 426.799 2098.81 427.285 Q2100.64 427.771 2102.54 427.771 Q2106.73 427.771 2108.81 425.572 Q2110.89 423.396 2110.89 418.975 L2110.89 416.868 Q2109.57 419.16 2107.51 420.294 Q2105.45 421.429 2102.58 421.429 Q2097.82 421.429 2094.9 417.794 Q2091.98 414.16 2091.98 408.165 Q2091.98 402.146 2094.9 398.512 Q2097.82 394.878 2102.58 394.878 Q2105.45 394.878 2107.51 396.012 Q2109.57 397.146 2110.89 399.438 L2110.89 395.503 L2115.15 395.503 L2115.15 418.211 Z" fill="#000000" fill-rule="nonzero" fill-opacity="1" /><path clip-path="url(#clip550)" d="M2139 385.41 L2143.26 385.41 L2143.26 421.429 L2139 421.429 L2139 385.41 Z" fill="#000000" fill-rule="nonzero" fill-opacity="1" /><path clip-path="url(#clip550)" d="M2162.21 398.489 Q2158.79 398.489 2156.8 401.174 Q2154.81 403.836 2154.81 408.489 Q2154.81 413.142 2156.77 415.827 Q2158.76 418.489 2162.21 418.489 Q2165.62 418.489 2167.61 415.804 Q2169.6 413.118 2169.6 408.489 Q2169.6 403.882 2167.61 401.197 Q2165.62 398.489 2162.21 398.489 M2162.21 394.878 Q2167.77 394.878 2170.94 398.489 Q2174.11 402.1 2174.11 408.489 Q2174.11 414.855 2170.94 418.489 Q2167.77 422.1 2162.21 422.1 Q2156.63 422.1 2153.46 418.489 Q2150.32 414.855 2150.32 408.489 Q2150.32 402.1 2153.46 398.489 Q2156.63 394.878 2162.21 394.878 Z" fill="#000000" fill-rule="nonzero" fill-opacity="1" /><path clip-path="url(#clip550)" d="M2199.83 396.498 L2199.83 400.48 Q2198.02 399.484 2196.19 398.998 Q2194.39 398.489 2192.54 398.489 Q2188.39 398.489 2186.1 401.128 Q2183.81 403.744 2183.81 408.489 Q2183.81 413.234 2186.1 415.873 Q2188.39 418.489 2192.54 418.489 Q2194.39 418.489 2196.19 418.003 Q2198.02 417.493 2199.83 416.498 L2199.83 420.433 Q2198.05 421.267 2196.13 421.683 Q2194.23 422.1 2192.07 422.1 Q2186.22 422.1 2182.77 418.419 Q2179.32 414.739 2179.32 408.489 Q2179.32 402.146 2182.79 398.512 Q2186.29 394.878 2192.35 394.878 Q2194.32 394.878 2196.19 395.295 Q2198.07 395.688 2199.83 396.498 Z" fill="#000000" fill-rule="nonzero" fill-opacity="1" /><path clip-path="url(#clip550)" d="M2206.8 411.197 L2206.8 395.503 L2211.06 395.503 L2211.06 411.035 Q2211.06 414.716 2212.49 416.568 Q2213.93 418.396 2216.8 418.396 Q2220.25 418.396 2222.24 416.197 Q2224.25 413.998 2224.25 410.202 L2224.25 395.503 L2228.51 395.503 L2228.51 421.429 L2224.25 421.429 L2224.25 417.447 Q2222.7 419.808 2220.64 420.966 Q2218.6 422.1 2215.89 422.1 Q2211.43 422.1 2209.11 419.322 Q2206.8 416.544 2206.8 411.197 M2217.51 394.878 L2217.51 394.878 Z" fill="#000000" fill-rule="nonzero" fill-opacity="1" /><path clip-path="url(#clip550)" d="M2253.81 396.267 L2253.81 400.294 Q2252 399.369 2250.06 398.906 Q2248.12 398.443 2246.03 398.443 Q2242.86 398.443 2241.26 399.415 Q2239.69 400.387 2239.69 402.331 Q2239.69 403.813 2240.82 404.669 Q2241.96 405.503 2245.38 406.267 L2246.84 406.591 Q2251.38 407.563 2253.28 409.345 Q2255.2 411.105 2255.2 414.276 Q2255.2 417.887 2252.33 419.993 Q2249.48 422.1 2244.48 422.1 Q2242.4 422.1 2240.13 421.683 Q2237.88 421.29 2235.38 420.48 L2235.38 416.081 Q2237.75 417.308 2240.04 417.933 Q2242.33 418.535 2244.57 418.535 Q2247.58 418.535 2249.2 417.517 Q2250.82 416.475 2250.82 414.6 Q2250.82 412.864 2249.64 411.938 Q2248.49 411.012 2244.53 410.156 L2243.05 409.808 Q2239.09 408.975 2237.33 407.262 Q2235.57 405.526 2235.57 402.517 Q2235.57 398.859 2238.16 396.869 Q2240.75 394.878 2245.52 394.878 Q2247.88 394.878 2249.97 395.225 Q2252.05 395.572 2253.81 396.267 Z" fill="#000000" fill-rule="nonzero" fill-opacity="1" /><polyline clip-path="url(#clip550)" style="stroke:#008000; stroke-linecap:round; stroke-linejoin:round; stroke-width:12; stroke-opacity:1; fill:none" points="1730.34,455.989 1873.51,455.989 "/>
<path clip-path="url(#clip550)" d="M1897.38 463.037 L1897.38 447.343 L1901.64 447.343 L1901.64 462.875 Q1901.64 466.556 1903.07 468.408 Q1904.51 470.236 1907.38 470.236 Q1910.83 470.236 1912.82 468.037 Q1914.83 465.838 1914.83 462.042 L1914.83 447.343 L1919.09 447.343 L1919.09 473.269 L1914.83 473.269 L1914.83 469.287 Q1913.28 471.648 1911.22 472.806 Q1909.18 473.94 1906.47 473.94 Q1902.01 473.94 1899.69 471.162 Q1897.38 468.384 1897.38 463.037 M1908.09 446.718 L1908.09 446.718 Z" fill="#000000" fill-rule="nonzero" fill-opacity="1" /><path clip-path="url(#clip550)" d="M1937.7 458.801 L1937.7 461.046 Q1936.57 460.537 1935.34 460.283 Q1934.14 460.028 1932.82 460.028 Q1930.8 460.028 1929.81 460.56 Q1928.81 461.116 1928.81 462.204 Q1928.81 463.037 1929.53 463.5 Q1930.25 463.986 1932.4 464.403 L1933.33 464.588 Q1936.22 465.144 1937.38 466.116 Q1938.58 467.111 1938.58 468.894 Q1938.58 470.908 1936.77 472.088 Q1934.99 473.269 1931.84 473.269 Q1930.52 473.269 1929.09 473.037 Q1927.68 472.806 1926.1 472.366 L1926.1 469.889 Q1927.59 470.583 1929.04 470.931 Q1930.48 471.278 1931.89 471.278 Q1933.79 471.278 1934.81 470.699 Q1935.83 470.12 1935.83 469.079 Q1935.83 468.107 1935.08 467.574 Q1934.44 467.111 1931.87 466.579 L1930.94 466.394 Q1928.44 465.908 1927.33 464.958 Q1926.22 463.986 1926.22 462.296 Q1926.22 460.259 1927.86 459.148 Q1929.48 458.014 1932.49 458.014 Q1933.97 458.014 1935.29 458.222 Q1936.61 458.408 1937.7 458.801 Z" fill="#000000" fill-rule="nonzero" fill-opacity="1" /></svg>
