<?xml version="1.0" encoding="utf-8"?>
<svg xmlns="http://www.w3.org/2000/svg" xmlns:xlink="http://www.w3.org/1999/xlink" width="600" height="500" viewBox="0 0 2400 2000">
<defs>
  <clipPath id="clip870">
    <rect x="0" y="0" width="2400" height="2000"/>
  </clipPath>
</defs>
<path clip-path="url(#clip870)" d="M0 2000 L2400 2000 L2400 0 L0 0  Z" fill="#ffffff" fill-rule="evenodd" fill-opacity="1"/>
<defs>
  <clipPath id="clip871">
    <rect x="259" y="1331" width="2094" height="468"/>
  </clipPath>
</defs>
<path clip-path="url(#clip870)" d="M259.339 478.339 L2352.76 478.339 L2352.76 111.592 L259.339 111.592  Z" fill="#ffffff" fill-rule="evenodd" fill-opacity="1"/>
<defs>
  <clipPath id="clip872">
    <rect x="259" y="111" width="2094" height="368"/>
  </clipPath>
</defs>
<polyline clip-path="url(#clip872)" style="stroke:#000000; stroke-linecap:round; stroke-linejoin:round; stroke-width:2; stroke-opacity:0.1; fill:none" points="318.586,478.339 318.586,111.592 "/>
<polyline clip-path="url(#clip872)" style="stroke:#000000; stroke-linecap:round; stroke-linejoin:round; stroke-width:2; stroke-opacity:0.1; fill:none" points="713.571,478.339 713.571,111.592 "/>
<polyline clip-path="url(#clip872)" style="stroke:#000000; stroke-linecap:round; stroke-linejoin:round; stroke-width:2; stroke-opacity:0.1; fill:none" points="1108.56,478.339 1108.56,111.592 "/>
<polyline clip-path="url(#clip872)" style="stroke:#000000; stroke-linecap:round; stroke-linejoin:round; stroke-width:2; stroke-opacity:0.1; fill:none" points="1503.54,478.339 1503.54,111.592 "/>
<polyline clip-path="url(#clip872)" style="stroke:#000000; stroke-linecap:round; stroke-linejoin:round; stroke-width:2; stroke-opacity:0.1; fill:none" points="1898.52,478.339 1898.52,111.592 "/>
<polyline clip-path="url(#clip872)" style="stroke:#000000; stroke-linecap:round; stroke-linejoin:round; stroke-width:2; stroke-opacity:0.1; fill:none" points="2293.51,478.339 2293.51,111.592 "/>
<polyline clip-path="url(#clip872)" style="stroke:#000000; stroke-linecap:round; stroke-linejoin:round; stroke-width:2; stroke-opacity:0.1; fill:none" points="259.339,467.959 2352.76,467.959 "/>
<polyline clip-path="url(#clip872)" style="stroke:#000000; stroke-linecap:round; stroke-linejoin:round; stroke-width:2; stroke-opacity:0.1; fill:none" points="259.339,391.76 2352.76,391.76 "/>
<polyline clip-path="url(#clip872)" style="stroke:#000000; stroke-linecap:round; stroke-linejoin:round; stroke-width:2; stroke-opacity:0.1; fill:none" points="259.339,315.561 2352.76,315.561 "/>
<polyline clip-path="url(#clip872)" style="stroke:#000000; stroke-linecap:round; stroke-linejoin:round; stroke-width:2; stroke-opacity:0.1; fill:none" points="259.339,239.361 2352.76,239.361 "/>
<polyline clip-path="url(#clip872)" style="stroke:#000000; stroke-linecap:round; stroke-linejoin:round; stroke-width:2; stroke-opacity:0.1; fill:none" points="259.339,163.162 2352.76,163.162 "/>
<polyline clip-path="url(#clip870)" style="stroke:#000000; stroke-linecap:round; stroke-linejoin:round; stroke-width:4; stroke-opacity:1; fill:none" points="259.339,478.339 2352.76,478.339 "/>
<polyline clip-path="url(#clip870)" style="stroke:#000000; stroke-linecap:round; stroke-linejoin:round; stroke-width:4; stroke-opacity:1; fill:none" points="318.586,478.339 318.586,459.441 "/>
<polyline clip-path="url(#clip870)" style="stroke:#000000; stroke-linecap:round; stroke-linejoin:round; stroke-width:4; stroke-opacity:1; fill:none" points="713.571,478.339 713.571,459.441 "/>
<polyline clip-path="url(#clip870)" style="stroke:#000000; stroke-linecap:round; stroke-linejoin:round; stroke-width:4; stroke-opacity:1; fill:none" points="1108.56,478.339 1108.56,459.441 "/>
<polyline clip-path="url(#clip870)" style="stroke:#000000; stroke-linecap:round; stroke-linejoin:round; stroke-width:4; stroke-opacity:1; fill:none" points="1503.54,478.339 1503.54,459.441 "/>
<polyline clip-path="url(#clip870)" style="stroke:#000000; stroke-linecap:round; stroke-linejoin:round; stroke-width:4; stroke-opacity:1; fill:none" points="1898.52,478.339 1898.52,459.441 "/>
<polyline clip-path="url(#clip870)" style="stroke:#000000; stroke-linecap:round; stroke-linejoin:round; stroke-width:4; stroke-opacity:1; fill:none" points="2293.51,478.339 2293.51,459.441 "/>
<path clip-path="url(#clip870)" d="M318.586 509.257 Q314.975 509.257 313.147 512.822 Q311.341 516.364 311.341 523.493 Q311.341 530.6 313.147 534.165 Q314.975 537.706 318.586 537.706 Q322.221 537.706 324.026 534.165 Q325.855 530.6 325.855 523.493 Q325.855 516.364 324.026 512.822 Q322.221 509.257 318.586 509.257 M318.586 505.554 Q324.397 505.554 327.452 510.16 Q330.531 514.743 330.531 523.493 Q330.531 532.22 327.452 536.827 Q324.397 541.41 318.586 541.41 Q312.776 541.41 309.698 536.827 Q306.642 532.22 306.642 523.493 Q306.642 514.743 309.698 510.16 Q312.776 505.554 318.586 505.554 Z" fill="#000000" fill-rule="nonzero" fill-opacity="1" /><path clip-path="url(#clip870)" d="M688.258 536.804 L695.897 536.804 L695.897 510.438 L687.587 512.105 L687.587 507.845 L695.851 506.179 L700.527 506.179 L700.527 536.804 L708.166 536.804 L708.166 540.739 L688.258 540.739 L688.258 536.804 Z" fill="#000000" fill-rule="nonzero" fill-opacity="1" /><path clip-path="url(#clip870)" d="M727.61 509.257 Q723.999 509.257 722.17 512.822 Q720.365 516.364 720.365 523.493 Q720.365 530.6 722.17 534.165 Q723.999 537.706 727.61 537.706 Q731.244 537.706 733.05 534.165 Q734.878 530.6 734.878 523.493 Q734.878 516.364 733.05 512.822 Q731.244 509.257 727.61 509.257 M727.61 505.554 Q733.42 505.554 736.476 510.16 Q739.554 514.743 739.554 523.493 Q739.554 532.22 736.476 536.827 Q733.42 541.41 727.61 541.41 Q721.8 541.41 718.721 536.827 Q715.666 532.22 715.666 523.493 Q715.666 514.743 718.721 510.16 Q721.8 505.554 727.61 505.554 Z" fill="#000000" fill-rule="nonzero" fill-opacity="1" /><path clip-path="url(#clip870)" d="M1087.33 536.804 L1103.65 536.804 L1103.65 540.739 L1081.7 540.739 L1081.7 536.804 Q1084.37 534.049 1088.95 529.419 Q1093.56 524.767 1094.74 523.424 Q1096.98 520.901 1097.86 519.165 Q1098.76 517.406 1098.76 515.716 Q1098.76 512.961 1096.82 511.225 Q1094.9 509.489 1091.8 509.489 Q1089.6 509.489 1087.14 510.253 Q1084.71 511.017 1081.93 512.568 L1081.93 507.845 Q1084.76 506.711 1087.21 506.132 Q1089.67 505.554 1091.7 505.554 Q1097.07 505.554 1100.27 508.239 Q1103.46 510.924 1103.46 515.415 Q1103.46 517.544 1102.65 519.466 Q1101.87 521.364 1099.76 523.956 Q1099.18 524.628 1096.08 527.845 Q1092.98 531.04 1087.33 536.804 Z" fill="#000000" fill-rule="nonzero" fill-opacity="1" /><path clip-path="url(#clip870)" d="M1123.46 509.257 Q1119.85 509.257 1118.02 512.822 Q1116.22 516.364 1116.22 523.493 Q1116.22 530.6 1118.02 534.165 Q1119.85 537.706 1123.46 537.706 Q1127.1 537.706 1128.9 534.165 Q1130.73 530.6 1130.73 523.493 Q1130.73 516.364 1128.9 512.822 Q1127.1 509.257 1123.46 509.257 M1123.46 505.554 Q1129.27 505.554 1132.33 510.16 Q1135.41 514.743 1135.41 523.493 Q1135.41 532.22 1132.33 536.827 Q1129.27 541.41 1123.46 541.41 Q1117.65 541.41 1114.57 536.827 Q1111.52 532.22 1111.52 523.493 Q1111.52 514.743 1114.57 510.16 Q1117.65 505.554 1123.46 505.554 Z" fill="#000000" fill-rule="nonzero" fill-opacity="1" /><path clip-path="url(#clip870)" d="M1492.38 522.105 Q1495.74 522.822 1497.61 525.091 Q1499.51 527.359 1499.51 530.692 Q1499.51 535.808 1495.99 538.609 Q1492.47 541.41 1485.99 541.41 Q1483.82 541.41 1481.5 540.97 Q1479.21 540.554 1476.76 539.697 L1476.76 535.183 Q1478.7 536.317 1481.02 536.896 Q1483.33 537.475 1485.85 537.475 Q1490.25 537.475 1492.54 535.739 Q1494.86 534.003 1494.86 530.692 Q1494.86 527.637 1492.71 525.924 Q1490.58 524.188 1486.76 524.188 L1482.73 524.188 L1482.73 520.345 L1486.94 520.345 Q1490.39 520.345 1492.22 518.98 Q1494.05 517.591 1494.05 514.998 Q1494.05 512.336 1492.15 510.924 Q1490.28 509.489 1486.76 509.489 Q1484.84 509.489 1482.64 509.906 Q1480.44 510.322 1477.8 511.202 L1477.8 507.035 Q1480.46 506.294 1482.78 505.924 Q1485.11 505.554 1487.17 505.554 Q1492.5 505.554 1495.6 507.984 Q1498.7 510.392 1498.7 514.512 Q1498.7 517.382 1497.06 519.373 Q1495.41 521.341 1492.38 522.105 Z" fill="#000000" fill-rule="nonzero" fill-opacity="1" /><path clip-path="url(#clip870)" d="M1518.38 509.257 Q1514.77 509.257 1512.94 512.822 Q1511.13 516.364 1511.13 523.493 Q1511.13 530.6 1512.94 534.165 Q1514.77 537.706 1518.38 537.706 Q1522.01 537.706 1523.82 534.165 Q1525.65 530.6 1525.65 523.493 Q1525.65 516.364 1523.82 512.822 Q1522.01 509.257 1518.38 509.257 M1518.38 505.554 Q1524.19 505.554 1527.24 510.16 Q1530.32 514.743 1530.32 523.493 Q1530.32 532.22 1527.24 536.827 Q1524.19 541.41 1518.38 541.41 Q1512.57 541.41 1509.49 536.827 Q1506.43 532.22 1506.43 523.493 Q1506.43 514.743 1509.49 510.16 Q1512.57 505.554 1518.38 505.554 Z" fill="#000000" fill-rule="nonzero" fill-opacity="1" /><path clip-path="url(#clip870)" d="M1886.7 510.253 L1874.89 528.702 L1886.7 528.702 L1886.7 510.253 M1885.47 506.179 L1891.35 506.179 L1891.35 528.702 L1896.28 528.702 L1896.28 532.591 L1891.35 532.591 L1891.35 540.739 L1886.7 540.739 L1886.7 532.591 L1871.09 532.591 L1871.09 528.077 L1885.47 506.179 Z" fill="#000000" fill-rule="nonzero" fill-opacity="1" /><path clip-path="url(#clip870)" d="M1914.01 509.257 Q1910.4 509.257 1908.57 512.822 Q1906.76 516.364 1906.76 523.493 Q1906.76 530.6 1908.57 534.165 Q1910.4 537.706 1914.01 537.706 Q1917.64 537.706 1919.45 534.165 Q1921.28 530.6 1921.28 523.493 Q1921.28 516.364 1919.45 512.822 Q1917.64 509.257 1914.01 509.257 M1914.01 505.554 Q1919.82 505.554 1922.88 510.16 Q1925.95 514.743 1925.95 523.493 Q1925.95 532.22 1922.88 536.827 Q1919.82 541.41 1914.01 541.41 Q1908.2 541.41 1905.12 536.827 Q1902.07 532.22 1902.07 523.493 Q1902.07 514.743 1905.12 510.16 Q1908.2 505.554 1914.01 505.554 Z" fill="#000000" fill-rule="nonzero" fill-opacity="1" /><path clip-path="url(#clip870)" d="M2268.21 506.179 L2286.56 506.179 L2286.56 510.114 L2272.49 510.114 L2272.49 518.586 Q2273.51 518.239 2274.53 518.077 Q2275.55 517.892 2276.56 517.892 Q2282.35 517.892 2285.73 521.063 Q2289.11 524.234 2289.11 529.651 Q2289.11 535.229 2285.64 538.331 Q2282.17 541.41 2275.85 541.41 Q2273.67 541.41 2271.4 541.04 Q2269.16 540.669 2266.75 539.929 L2266.75 535.229 Q2268.83 536.364 2271.05 536.919 Q2273.28 537.475 2275.75 537.475 Q2279.76 537.475 2282.1 535.368 Q2284.43 533.262 2284.43 529.651 Q2284.43 526.04 2282.1 523.933 Q2279.76 521.827 2275.75 521.827 Q2273.88 521.827 2272 522.243 Q2270.15 522.66 2268.21 523.54 L2268.21 506.179 Z" fill="#000000" fill-rule="nonzero" fill-opacity="1" /><path clip-path="url(#clip870)" d="M2308.32 509.257 Q2304.71 509.257 2302.88 512.822 Q2301.08 516.364 2301.08 523.493 Q2301.08 530.6 2302.88 534.165 Q2304.71 537.706 2308.32 537.706 Q2311.96 537.706 2313.76 534.165 Q2315.59 530.6 2315.59 523.493 Q2315.59 516.364 2313.76 512.822 Q2311.96 509.257 2308.32 509.257 M2308.32 505.554 Q2314.13 505.554 2317.19 510.16 Q2320.27 514.743 2320.27 523.493 Q2320.27 532.22 2317.19 536.827 Q2314.13 541.41 2308.32 541.41 Q2302.51 541.41 2299.43 536.827 Q2296.38 532.22 2296.38 523.493 Q2296.38 514.743 2299.43 510.16 Q2302.51 505.554 2308.32 505.554 Z" fill="#000000" fill-rule="nonzero" fill-opacity="1" /><polyline clip-path="url(#clip870)" style="stroke:#000000; stroke-linecap:round; stroke-linejoin:round; stroke-width:4; stroke-opacity:1; fill:none" points="259.339,478.339 259.339,111.592 "/>
<polyline clip-path="url(#clip870)" style="stroke:#000000; stroke-linecap:round; stroke-linejoin:round; stroke-width:4; stroke-opacity:1; fill:none" points="259.339,467.959 278.236,467.959 "/>
<polyline clip-path="url(#clip870)" style="stroke:#000000; stroke-linecap:round; stroke-linejoin:round; stroke-width:4; stroke-opacity:1; fill:none" points="259.339,391.76 278.236,391.76 "/>
<polyline clip-path="url(#clip870)" style="stroke:#000000; stroke-linecap:round; stroke-linejoin:round; stroke-width:4; stroke-opacity:1; fill:none" points="259.339,315.561 278.236,315.561 "/>
<polyline clip-path="url(#clip870)" style="stroke:#000000; stroke-linecap:round; stroke-linejoin:round; stroke-width:4; stroke-opacity:1; fill:none" points="259.339,239.361 278.236,239.361 "/>
<polyline clip-path="url(#clip870)" style="stroke:#000000; stroke-linecap:round; stroke-linejoin:round; stroke-width:4; stroke-opacity:1; fill:none" points="259.339,163.162 278.236,163.162 "/>
<path clip-path="url(#clip870)" d="M166.163 453.758 Q162.552 453.758 160.723 457.323 Q158.918 460.864 158.918 467.994 Q158.918 475.1 160.723 478.665 Q162.552 482.207 166.163 482.207 Q169.797 482.207 171.603 478.665 Q173.432 475.1 173.432 467.994 Q173.432 460.864 171.603 457.323 Q169.797 453.758 166.163 453.758 M166.163 450.054 Q171.973 450.054 175.029 454.661 Q178.107 459.244 178.107 467.994 Q178.107 476.721 175.029 481.327 Q171.973 485.91 166.163 485.91 Q160.353 485.91 157.274 481.327 Q154.219 476.721 154.219 467.994 Q154.219 459.244 157.274 454.661 Q160.353 450.054 166.163 450.054 Z" fill="#000000" fill-rule="nonzero" fill-opacity="1" /><path clip-path="url(#clip870)" d="M186.325 479.359 L191.209 479.359 L191.209 485.239 L186.325 485.239 L186.325 479.359 Z" fill="#000000" fill-rule="nonzero" fill-opacity="1" /><path clip-path="url(#clip870)" d="M211.394 453.758 Q207.783 453.758 205.955 457.323 Q204.149 460.864 204.149 467.994 Q204.149 475.1 205.955 478.665 Q207.783 482.207 211.394 482.207 Q215.029 482.207 216.834 478.665 Q218.663 475.1 218.663 467.994 Q218.663 460.864 216.834 457.323 Q215.029 453.758 211.394 453.758 M211.394 450.054 Q217.204 450.054 220.26 454.661 Q223.339 459.244 223.339 467.994 Q223.339 476.721 220.26 481.327 Q217.204 485.91 211.394 485.91 Q205.584 485.91 202.505 481.327 Q199.45 476.721 199.45 467.994 Q199.45 459.244 202.505 454.661 Q205.584 450.054 211.394 450.054 Z" fill="#000000" fill-rule="nonzero" fill-opacity="1" /><path clip-path="url(#clip870)" d="M161.186 405.105 L177.506 405.105 L177.506 409.04 L155.561 409.04 L155.561 405.105 Q158.223 402.35 162.807 397.72 Q167.413 393.068 168.594 391.725 Q170.839 389.202 171.719 387.466 Q172.621 385.707 172.621 384.017 Q172.621 381.262 170.677 379.526 Q168.756 377.79 165.654 377.79 Q163.455 377.79 161.001 378.554 Q158.571 379.318 155.793 380.869 L155.793 376.147 Q158.617 375.012 161.071 374.434 Q163.524 373.855 165.561 373.855 Q170.932 373.855 174.126 376.54 Q177.32 379.225 177.32 383.716 Q177.32 385.846 176.51 387.767 Q175.723 389.665 173.617 392.258 Q173.038 392.929 169.936 396.146 Q166.834 399.341 161.186 405.105 Z" fill="#000000" fill-rule="nonzero" fill-opacity="1" /><path clip-path="url(#clip870)" d="M187.32 403.16 L192.205 403.16 L192.205 409.04 L187.32 409.04 L187.32 403.16 Z" fill="#000000" fill-rule="nonzero" fill-opacity="1" /><path clip-path="url(#clip870)" d="M202.436 374.48 L220.792 374.48 L220.792 378.415 L206.718 378.415 L206.718 386.887 Q207.737 386.54 208.755 386.378 Q209.774 386.193 210.792 386.193 Q216.579 386.193 219.959 389.364 Q223.339 392.535 223.339 397.952 Q223.339 403.531 219.867 406.632 Q216.394 409.711 210.075 409.711 Q207.899 409.711 205.63 409.341 Q203.385 408.97 200.978 408.23 L200.978 403.531 Q203.061 404.665 205.283 405.22 Q207.505 405.776 209.982 405.776 Q213.987 405.776 216.325 403.67 Q218.663 401.563 218.663 397.952 Q218.663 394.341 216.325 392.234 Q213.987 390.128 209.982 390.128 Q208.107 390.128 206.232 390.545 Q204.38 390.961 202.436 391.841 L202.436 374.48 Z" fill="#000000" fill-rule="nonzero" fill-opacity="1" /><path clip-path="url(#clip870)" d="M156.209 298.281 L174.566 298.281 L174.566 302.216 L160.492 302.216 L160.492 310.688 Q161.51 310.341 162.529 310.179 Q163.547 309.994 164.566 309.994 Q170.353 309.994 173.732 313.165 Q177.112 316.336 177.112 321.753 Q177.112 327.331 173.64 330.433 Q170.168 333.512 163.848 333.512 Q161.672 333.512 159.404 333.142 Q157.159 332.771 154.751 332.03 L154.751 327.331 Q156.834 328.466 159.057 329.021 Q161.279 329.577 163.756 329.577 Q167.76 329.577 170.098 327.47 Q172.436 325.364 172.436 321.753 Q172.436 318.142 170.098 316.035 Q167.76 313.929 163.756 313.929 Q161.881 313.929 160.006 314.345 Q158.154 314.762 156.209 315.642 L156.209 298.281 Z" fill="#000000" fill-rule="nonzero" fill-opacity="1" /><path clip-path="url(#clip870)" d="M186.325 326.961 L191.209 326.961 L191.209 332.841 L186.325 332.841 L186.325 326.961 Z" fill="#000000" fill-rule="nonzero" fill-opacity="1" /><path clip-path="url(#clip870)" d="M211.394 301.359 Q207.783 301.359 205.955 304.924 Q204.149 308.466 204.149 315.595 Q204.149 322.702 205.955 326.267 Q207.783 329.808 211.394 329.808 Q215.029 329.808 216.834 326.267 Q218.663 322.702 218.663 315.595 Q218.663 308.466 216.834 304.924 Q215.029 301.359 211.394 301.359 M211.394 297.656 Q217.204 297.656 220.26 302.262 Q223.339 306.845 223.339 315.595 Q223.339 324.322 220.26 328.929 Q217.204 333.512 211.394 333.512 Q205.584 333.512 202.505 328.929 Q199.45 324.322 199.45 315.595 Q199.45 306.845 202.505 302.262 Q205.584 297.656 211.394 297.656 Z" fill="#000000" fill-rule="nonzero" fill-opacity="1" /><path clip-path="url(#clip870)" d="M155.978 222.081 L178.2 222.081 L178.2 224.072 L165.654 256.641 L160.77 256.641 L172.575 226.017 L155.978 226.017 L155.978 222.081 Z" fill="#000000" fill-rule="nonzero" fill-opacity="1" /><path clip-path="url(#clip870)" d="M187.32 250.762 L192.205 250.762 L192.205 256.641 L187.32 256.641 L187.32 250.762 Z" fill="#000000" fill-rule="nonzero" fill-opacity="1" /><path clip-path="url(#clip870)" d="M202.436 222.081 L220.792 222.081 L220.792 226.017 L206.718 226.017 L206.718 234.489 Q207.737 234.142 208.755 233.98 Q209.774 233.794 210.792 233.794 Q216.579 233.794 219.959 236.966 Q223.339 240.137 223.339 245.554 Q223.339 251.132 219.867 254.234 Q216.394 257.313 210.075 257.313 Q207.899 257.313 205.63 256.942 Q203.385 256.572 200.978 255.831 L200.978 251.132 Q203.061 252.266 205.283 252.822 Q207.505 253.378 209.982 253.378 Q213.987 253.378 216.325 251.271 Q218.663 249.165 218.663 245.554 Q218.663 241.942 216.325 239.836 Q213.987 237.73 209.982 237.73 Q208.107 237.73 206.232 238.146 Q204.38 238.563 202.436 239.442 L202.436 222.081 Z" fill="#000000" fill-rule="nonzero" fill-opacity="1" /><path clip-path="url(#clip870)" d="M126.811 176.507 L134.45 176.507 L134.45 150.141 L126.14 151.808 L126.14 147.549 L134.404 145.882 L139.08 145.882 L139.08 176.507 L146.719 176.507 L146.719 180.442 L126.811 180.442 L126.811 176.507 Z" fill="#000000" fill-rule="nonzero" fill-opacity="1" /><path clip-path="url(#clip870)" d="M166.163 148.961 Q162.552 148.961 160.723 152.526 Q158.918 156.067 158.918 163.197 Q158.918 170.303 160.723 173.868 Q162.552 177.41 166.163 177.41 Q169.797 177.41 171.603 173.868 Q173.432 170.303 173.432 163.197 Q173.432 156.067 171.603 152.526 Q169.797 148.961 166.163 148.961 M166.163 145.257 Q171.973 145.257 175.029 149.864 Q178.107 154.447 178.107 163.197 Q178.107 171.924 175.029 176.53 Q171.973 181.114 166.163 181.114 Q160.353 181.114 157.274 176.53 Q154.219 171.924 154.219 163.197 Q154.219 154.447 157.274 149.864 Q160.353 145.257 166.163 145.257 Z" fill="#000000" fill-rule="nonzero" fill-opacity="1" /><path clip-path="url(#clip870)" d="M186.325 174.563 L191.209 174.563 L191.209 180.442 L186.325 180.442 L186.325 174.563 Z" fill="#000000" fill-rule="nonzero" fill-opacity="1" /><path clip-path="url(#clip870)" d="M211.394 148.961 Q207.783 148.961 205.955 152.526 Q204.149 156.067 204.149 163.197 Q204.149 170.303 205.955 173.868 Q207.783 177.41 211.394 177.41 Q215.029 177.41 216.834 173.868 Q218.663 170.303 218.663 163.197 Q218.663 156.067 216.834 152.526 Q215.029 148.961 211.394 148.961 M211.394 145.257 Q217.204 145.257 220.26 149.864 Q223.339 154.447 223.339 163.197 Q223.339 171.924 220.26 176.53 Q217.204 181.114 211.394 181.114 Q205.584 181.114 202.505 176.53 Q199.45 171.924 199.45 163.197 Q199.45 154.447 202.505 149.864 Q205.584 145.257 211.394 145.257 Z" fill="#000000" fill-rule="nonzero" fill-opacity="1" /><path clip-path="url(#clip870)" d="M40.2362 312.312 L40.2362 306.105 L70.155 294.965 L40.2362 283.825 L40.2362 277.619 L75.8842 290.987 L75.8842 298.944 L40.2362 312.312 Z" fill="#000000" fill-rule="nonzero" fill-opacity="1" /><path clip-path="url(#clip870)" d="M1262.09 18.3489 L1262.09 22.8801 Q1260.06 21.8384 1257.87 21.3176 Q1255.68 20.7968 1253.34 20.7968 Q1249.77 20.7968 1247.97 21.8905 Q1246.2 22.9843 1246.2 25.1717 Q1246.2 26.8384 1247.48 27.8019 Q1248.76 28.7394 1252.61 29.5988 L1254.25 29.9634 Q1259.35 31.0571 1261.49 33.0623 Q1263.65 35.0415 1263.65 38.6092 Q1263.65 42.6716 1260.42 45.0414 Q1257.22 47.4112 1251.59 47.4112 Q1249.25 47.4112 1246.7 46.9425 Q1244.17 46.4998 1241.36 45.5883 L1241.36 40.6404 Q1244.02 42.0206 1246.59 42.7237 Q1249.17 43.4008 1251.7 43.4008 Q1255.08 43.4008 1256.91 42.255 Q1258.73 41.0831 1258.73 38.9737 Q1258.73 37.0206 1257.4 35.979 Q1256.1 34.9373 1251.65 33.9738 L1249.98 33.5832 Q1245.53 32.6457 1243.55 30.7186 Q1241.57 28.7655 1241.57 25.3801 Q1241.57 21.2655 1244.49 19.0259 Q1247.4 16.7864 1252.77 16.7864 Q1255.42 16.7864 1257.77 17.177 Q1260.11 17.5676 1262.09 18.3489 Z" fill="#000000" fill-rule="nonzero" fill-opacity="1" /><path clip-path="url(#clip870)" d="M1276.02 9.20828 L1276.02 17.4895 L1285.89 17.4895 L1285.89 21.2134 L1276.02 21.2134 L1276.02 37.0467 Q1276.02 40.6144 1276.98 41.63 Q1277.97 42.6456 1280.97 42.6456 L1285.89 42.6456 L1285.89 46.656 L1280.97 46.656 Q1275.42 46.656 1273.31 44.5987 Q1271.2 42.5154 1271.2 37.0467 L1271.2 21.2134 L1267.69 21.2134 L1267.69 17.4895 L1271.2 17.4895 L1271.2 9.20828 L1276.02 9.20828 Z" fill="#000000" fill-rule="nonzero" fill-opacity="1" /><path clip-path="url(#clip870)" d="M1305.45 31.9946 Q1299.64 31.9946 1297.4 33.3227 Q1295.16 34.6509 1295.16 37.854 Q1295.16 40.406 1296.83 41.9164 Q1298.52 43.4008 1301.41 43.4008 Q1305.4 43.4008 1307.79 40.5883 Q1310.21 37.7498 1310.21 33.0623 L1310.21 31.9946 L1305.45 31.9946 M1315.01 30.0155 L1315.01 46.656 L1310.21 46.656 L1310.21 42.2289 Q1308.57 44.8852 1306.13 46.1612 Q1303.68 47.4112 1300.14 47.4112 Q1295.66 47.4112 1293 44.9112 Q1290.37 42.3852 1290.37 38.1665 Q1290.37 33.2446 1293.65 30.7446 Q1296.96 28.2446 1303.5 28.2446 L1310.21 28.2446 L1310.21 27.7759 Q1310.21 24.4686 1308.03 22.6718 Q1305.87 20.8488 1301.93 20.8488 Q1299.43 20.8488 1297.06 21.4478 Q1294.69 22.0468 1292.51 23.2447 L1292.51 18.8176 Q1295.14 17.802 1297.61 17.3072 Q1300.08 16.7864 1302.43 16.7864 Q1308.76 16.7864 1311.88 20.0676 Q1315.01 23.3488 1315.01 30.0155 Z" fill="#000000" fill-rule="nonzero" fill-opacity="1" /><path clip-path="url(#clip870)" d="M1329.61 9.20828 L1329.61 17.4895 L1339.48 17.4895 L1339.48 21.2134 L1329.61 21.2134 L1329.61 37.0467 Q1329.61 40.6144 1330.58 41.63 Q1331.57 42.6456 1334.56 42.6456 L1339.48 42.6456 L1339.48 46.656 L1334.56 46.656 Q1329.02 46.656 1326.91 44.5987 Q1324.8 42.5154 1324.8 37.0467 L1324.8 21.2134 L1321.28 21.2134 L1321.28 17.4895 L1324.8 17.4895 L1324.8 9.20828 L1329.61 9.20828 Z" fill="#000000" fill-rule="nonzero" fill-opacity="1" /><path clip-path="url(#clip870)" d="M1370.73 30.8748 L1370.73 33.2186 L1348.7 33.2186 Q1349.02 38.1665 1351.67 40.7706 Q1354.35 43.3487 1359.12 43.3487 Q1361.88 43.3487 1364.46 42.6716 Q1367.06 41.9946 1369.61 40.6404 L1369.61 45.1716 Q1367.04 46.2654 1364.33 46.8383 Q1361.62 47.4112 1358.83 47.4112 Q1351.85 47.4112 1347.77 43.3487 Q1343.7 39.2862 1343.7 32.3592 Q1343.7 25.1978 1347.56 21.0051 Q1351.44 16.7864 1358 16.7864 Q1363.89 16.7864 1367.3 20.5884 Q1370.73 24.3645 1370.73 30.8748 M1365.94 29.4686 Q1365.89 25.5363 1363.73 23.1926 Q1361.59 20.8488 1358.05 20.8488 Q1354.04 20.8488 1351.62 23.1145 Q1349.22 25.3801 1348.86 29.4946 L1365.94 29.4686 Z" fill="#000000" fill-rule="nonzero" fill-opacity="1" /><polyline clip-path="url(#clip872)" style="stroke:#009af9; stroke-linecap:round; stroke-linejoin:round; stroke-width:4; stroke-opacity:1; fill:none" points="318.586,467.959 328.781,466.999 338.975,466.009 398.682,459.576 458.389,452.11 486.164,448.316 513.94,444.341 551.169,438.76 588.399,432.932 649.925,422.874 707.139,413.174 778.961,400.687 843.387,389.303 917.13,376.146 972.253,366.259 1042.76,353.574 1107.11,341.975 1180.34,328.757 1238.4,318.273 1274.46,311.758 1310.53,304.977 1338.15,298.536 1365.77,292.359 1443.64,275.952 1501.84,264.357 1568.02,251.62 1633.57,239.335 1705.68,226.082 1760.76,216.093 1830.26,203.609 1894.55,192.151 1960.85,180.4 2028.05,168.539 2098.22,156.194 2153.5,146.491 2279.38,124.442 2293.51,121.972 "/>
<circle clip-path="url(#clip872)" cx="318.586" cy="467.959" r="7.2" fill="#ff0000" fill-rule="evenodd" fill-opacity="0.5" stroke="#000000" stroke-opacity="0.5" stroke-width="4"/>
<circle clip-path="url(#clip872)" cx="338.535" cy="466.052" r="7.2" fill="#ff0000" fill-rule="evenodd" fill-opacity="0.5" stroke="#000000" stroke-opacity="0.5" stroke-width="4"/>
<circle clip-path="url(#clip872)" cx="358.484" cy="464.025" r="7.2" fill="#ff0000" fill-rule="evenodd" fill-opacity="0.5" stroke="#000000" stroke-opacity="0.5" stroke-width="4"/>
<circle clip-path="url(#clip872)" cx="378.432" cy="461.877" r="7.2" fill="#ff0000" fill-rule="evenodd" fill-opacity="0.5" stroke="#000000" stroke-opacity="0.5" stroke-width="4"/>
<circle clip-path="url(#clip872)" cx="398.381" cy="459.611" r="7.2" fill="#ff0000" fill-rule="evenodd" fill-opacity="0.5" stroke="#000000" stroke-opacity="0.5" stroke-width="4"/>
<circle clip-path="url(#clip872)" cx="418.33" cy="457.229" r="7.2" fill="#ff0000" fill-rule="evenodd" fill-opacity="0.5" stroke="#000000" stroke-opacity="0.5" stroke-width="4"/>
<circle clip-path="url(#clip872)" cx="438.279" cy="454.734" r="7.2" fill="#ff0000" fill-rule="evenodd" fill-opacity="0.5" stroke="#000000" stroke-opacity="0.5" stroke-width="4"/>
<circle clip-path="url(#clip872)" cx="458.227" cy="452.132" r="7.2" fill="#ff0000" fill-rule="evenodd" fill-opacity="0.5" stroke="#000000" stroke-opacity="0.5" stroke-width="4"/>
<circle clip-path="url(#clip872)" cx="478.176" cy="449.427" r="7.2" fill="#ff0000" fill-rule="evenodd" fill-opacity="0.5" stroke="#000000" stroke-opacity="0.5" stroke-width="4"/>
<circle clip-path="url(#clip872)" cx="498.125" cy="446.625" r="7.2" fill="#ff0000" fill-rule="evenodd" fill-opacity="0.5" stroke="#000000" stroke-opacity="0.5" stroke-width="4"/>
<circle clip-path="url(#clip872)" cx="518.073" cy="443.735" r="7.2" fill="#ff0000" fill-rule="evenodd" fill-opacity="0.5" stroke="#000000" stroke-opacity="0.5" stroke-width="4"/>
<circle clip-path="url(#clip872)" cx="538.022" cy="440.761" r="7.2" fill="#ff0000" fill-rule="evenodd" fill-opacity="0.5" stroke="#000000" stroke-opacity="0.5" stroke-width="4"/>
<circle clip-path="url(#clip872)" cx="557.971" cy="437.712" r="7.2" fill="#ff0000" fill-rule="evenodd" fill-opacity="0.5" stroke="#000000" stroke-opacity="0.5" stroke-width="4"/>
<circle clip-path="url(#clip872)" cx="577.92" cy="434.594" r="7.2" fill="#ff0000" fill-rule="evenodd" fill-opacity="0.5" stroke="#000000" stroke-opacity="0.5" stroke-width="4"/>
<circle clip-path="url(#clip872)" cx="597.868" cy="431.415" r="7.2" fill="#ff0000" fill-rule="evenodd" fill-opacity="0.5" stroke="#000000" stroke-opacity="0.5" stroke-width="4"/>
<circle clip-path="url(#clip872)" cx="617.817" cy="428.181" r="7.2" fill="#ff0000" fill-rule="evenodd" fill-opacity="0.5" stroke="#000000" stroke-opacity="0.5" stroke-width="4"/>
<circle clip-path="url(#clip872)" cx="637.766" cy="424.897" r="7.2" fill="#ff0000" fill-rule="evenodd" fill-opacity="0.5" stroke="#000000" stroke-opacity="0.5" stroke-width="4"/>
<circle clip-path="url(#clip872)" cx="657.714" cy="421.57" r="7.2" fill="#ff0000" fill-rule="evenodd" fill-opacity="0.5" stroke="#000000" stroke-opacity="0.5" stroke-width="4"/>
<circle clip-path="url(#clip872)" cx="677.663" cy="418.206" r="7.2" fill="#ff0000" fill-rule="evenodd" fill-opacity="0.5" stroke="#000000" stroke-opacity="0.5" stroke-width="4"/>
<circle clip-path="url(#clip872)" cx="697.612" cy="414.808" r="7.2" fill="#ff0000" fill-rule="evenodd" fill-opacity="0.5" stroke="#000000" stroke-opacity="0.5" stroke-width="4"/>
<circle clip-path="url(#clip872)" cx="717.56" cy="411.38" r="7.2" fill="#ff0000" fill-rule="evenodd" fill-opacity="0.5" stroke="#000000" stroke-opacity="0.5" stroke-width="4"/>
<circle clip-path="url(#clip872)" cx="737.509" cy="407.928" r="7.2" fill="#ff0000" fill-rule="evenodd" fill-opacity="0.5" stroke="#000000" stroke-opacity="0.5" stroke-width="4"/>
<circle clip-path="url(#clip872)" cx="757.458" cy="404.453" r="7.2" fill="#ff0000" fill-rule="evenodd" fill-opacity="0.5" stroke="#000000" stroke-opacity="0.5" stroke-width="4"/>
<circle clip-path="url(#clip872)" cx="777.407" cy="400.96" r="7.2" fill="#ff0000" fill-rule="evenodd" fill-opacity="0.5" stroke="#000000" stroke-opacity="0.5" stroke-width="4"/>
<circle clip-path="url(#clip872)" cx="797.355" cy="397.451" r="7.2" fill="#ff0000" fill-rule="evenodd" fill-opacity="0.5" stroke="#000000" stroke-opacity="0.5" stroke-width="4"/>
<circle clip-path="url(#clip872)" cx="817.304" cy="393.928" r="7.2" fill="#ff0000" fill-rule="evenodd" fill-opacity="0.5" stroke="#000000" stroke-opacity="0.5" stroke-width="4"/>
<circle clip-path="url(#clip872)" cx="837.253" cy="390.392" r="7.2" fill="#ff0000" fill-rule="evenodd" fill-opacity="0.5" stroke="#000000" stroke-opacity="0.5" stroke-width="4"/>
<circle clip-path="url(#clip872)" cx="857.201" cy="386.846" r="7.2" fill="#ff0000" fill-rule="evenodd" fill-opacity="0.5" stroke="#000000" stroke-opacity="0.5" stroke-width="4"/>
<circle clip-path="url(#clip872)" cx="877.15" cy="383.291" r="7.2" fill="#ff0000" fill-rule="evenodd" fill-opacity="0.5" stroke="#000000" stroke-opacity="0.5" stroke-width="4"/>
<circle clip-path="url(#clip872)" cx="897.099" cy="379.729" r="7.2" fill="#ff0000" fill-rule="evenodd" fill-opacity="0.5" stroke="#000000" stroke-opacity="0.5" stroke-width="4"/>
<circle clip-path="url(#clip872)" cx="917.048" cy="376.161" r="7.2" fill="#ff0000" fill-rule="evenodd" fill-opacity="0.5" stroke="#000000" stroke-opacity="0.5" stroke-width="4"/>
<circle clip-path="url(#clip872)" cx="936.996" cy="372.587" r="7.2" fill="#ff0000" fill-rule="evenodd" fill-opacity="0.5" stroke="#000000" stroke-opacity="0.5" stroke-width="4"/>
<circle clip-path="url(#clip872)" cx="956.945" cy="369.008" r="7.2" fill="#ff0000" fill-rule="evenodd" fill-opacity="0.5" stroke="#000000" stroke-opacity="0.5" stroke-width="4"/>
<circle clip-path="url(#clip872)" cx="976.894" cy="365.425" r="7.2" fill="#ff0000" fill-rule="evenodd" fill-opacity="0.5" stroke="#000000" stroke-opacity="0.5" stroke-width="4"/>
<circle clip-path="url(#clip872)" cx="996.842" cy="361.839" r="7.2" fill="#ff0000" fill-rule="evenodd" fill-opacity="0.5" stroke="#000000" stroke-opacity="0.5" stroke-width="4"/>
<circle clip-path="url(#clip872)" cx="1016.79" cy="358.25" r="7.2" fill="#ff0000" fill-rule="evenodd" fill-opacity="0.5" stroke="#000000" stroke-opacity="0.5" stroke-width="4"/>
<circle clip-path="url(#clip872)" cx="1036.74" cy="354.658" r="7.2" fill="#ff0000" fill-rule="evenodd" fill-opacity="0.5" stroke="#000000" stroke-opacity="0.5" stroke-width="4"/>
<circle clip-path="url(#clip872)" cx="1056.69" cy="351.065" r="7.2" fill="#ff0000" fill-rule="evenodd" fill-opacity="0.5" stroke="#000000" stroke-opacity="0.5" stroke-width="4"/>
<circle clip-path="url(#clip872)" cx="1076.64" cy="347.469" r="7.2" fill="#ff0000" fill-rule="evenodd" fill-opacity="0.5" stroke="#000000" stroke-opacity="0.5" stroke-width="4"/>
<circle clip-path="url(#clip872)" cx="1096.59" cy="343.872" r="7.2" fill="#ff0000" fill-rule="evenodd" fill-opacity="0.5" stroke="#000000" stroke-opacity="0.5" stroke-width="4"/>
<circle clip-path="url(#clip872)" cx="1116.53" cy="340.274" r="7.2" fill="#ff0000" fill-rule="evenodd" fill-opacity="0.5" stroke="#000000" stroke-opacity="0.5" stroke-width="4"/>
<circle clip-path="url(#clip872)" cx="1136.48" cy="336.674" r="7.2" fill="#ff0000" fill-rule="evenodd" fill-opacity="0.5" stroke="#000000" stroke-opacity="0.5" stroke-width="4"/>
<circle clip-path="url(#clip872)" cx="1156.43" cy="333.074" r="7.2" fill="#ff0000" fill-rule="evenodd" fill-opacity="0.5" stroke="#000000" stroke-opacity="0.5" stroke-width="4"/>
<circle clip-path="url(#clip872)" cx="1176.38" cy="329.472" r="7.2" fill="#ff0000" fill-rule="evenodd" fill-opacity="0.5" stroke="#000000" stroke-opacity="0.5" stroke-width="4"/>
<circle clip-path="url(#clip872)" cx="1196.33" cy="325.871" r="7.2" fill="#ff0000" fill-rule="evenodd" fill-opacity="0.5" stroke="#000000" stroke-opacity="0.5" stroke-width="4"/>
<circle clip-path="url(#clip872)" cx="1216.28" cy="322.268" r="7.2" fill="#ff0000" fill-rule="evenodd" fill-opacity="0.5" stroke="#000000" stroke-opacity="0.5" stroke-width="4"/>
<circle clip-path="url(#clip872)" cx="1236.23" cy="318.665" r="7.2" fill="#ff0000" fill-rule="evenodd" fill-opacity="0.5" stroke="#000000" stroke-opacity="0.5" stroke-width="4"/>
<circle clip-path="url(#clip872)" cx="1256.18" cy="315.062" r="7.2" fill="#ff0000" fill-rule="evenodd" fill-opacity="0.5" stroke="#000000" stroke-opacity="0.5" stroke-width="4"/>
<circle clip-path="url(#clip872)" cx="1276.12" cy="311.458" r="7.2" fill="#ff0000" fill-rule="evenodd" fill-opacity="0.5" stroke="#000000" stroke-opacity="0.5" stroke-width="4"/>
<circle clip-path="url(#clip872)" cx="1296.07" cy="307.854" r="7.2" fill="#ff0000" fill-rule="evenodd" fill-opacity="0.5" stroke="#000000" stroke-opacity="0.5" stroke-width="4"/>
<circle clip-path="url(#clip872)" cx="1316.02" cy="303.672" r="7.2" fill="#ff0000" fill-rule="evenodd" fill-opacity="0.5" stroke="#000000" stroke-opacity="0.5" stroke-width="4"/>
<circle clip-path="url(#clip872)" cx="1335.97" cy="299.033" r="7.2" fill="#ff0000" fill-rule="evenodd" fill-opacity="0.5" stroke="#000000" stroke-opacity="0.5" stroke-width="4"/>
<circle clip-path="url(#clip872)" cx="1355.92" cy="294.534" r="7.2" fill="#ff0000" fill-rule="evenodd" fill-opacity="0.5" stroke="#000000" stroke-opacity="0.5" stroke-width="4"/>
<circle clip-path="url(#clip872)" cx="1375.87" cy="290.155" r="7.2" fill="#ff0000" fill-rule="evenodd" fill-opacity="0.5" stroke="#000000" stroke-opacity="0.5" stroke-width="4"/>
<circle clip-path="url(#clip872)" cx="1395.82" cy="285.876" r="7.2" fill="#ff0000" fill-rule="evenodd" fill-opacity="0.5" stroke="#000000" stroke-opacity="0.5" stroke-width="4"/>
<circle clip-path="url(#clip872)" cx="1415.77" cy="281.685" r="7.2" fill="#ff0000" fill-rule="evenodd" fill-opacity="0.5" stroke="#000000" stroke-opacity="0.5" stroke-width="4"/>
<circle clip-path="url(#clip872)" cx="1435.71" cy="277.569" r="7.2" fill="#ff0000" fill-rule="evenodd" fill-opacity="0.5" stroke="#000000" stroke-opacity="0.5" stroke-width="4"/>
<circle clip-path="url(#clip872)" cx="1455.66" cy="273.52" r="7.2" fill="#ff0000" fill-rule="evenodd" fill-opacity="0.5" stroke="#000000" stroke-opacity="0.5" stroke-width="4"/>
<circle clip-path="url(#clip872)" cx="1475.61" cy="269.528" r="7.2" fill="#ff0000" fill-rule="evenodd" fill-opacity="0.5" stroke="#000000" stroke-opacity="0.5" stroke-width="4"/>
<circle clip-path="url(#clip872)" cx="1495.56" cy="265.588" r="7.2" fill="#ff0000" fill-rule="evenodd" fill-opacity="0.5" stroke="#000000" stroke-opacity="0.5" stroke-width="4"/>
<circle clip-path="url(#clip872)" cx="1515.51" cy="261.693" r="7.2" fill="#ff0000" fill-rule="evenodd" fill-opacity="0.5" stroke="#000000" stroke-opacity="0.5" stroke-width="4"/>
<circle clip-path="url(#clip872)" cx="1535.46" cy="257.838" r="7.2" fill="#ff0000" fill-rule="evenodd" fill-opacity="0.5" stroke="#000000" stroke-opacity="0.5" stroke-width="4"/>
<circle clip-path="url(#clip872)" cx="1555.41" cy="254.018" r="7.2" fill="#ff0000" fill-rule="evenodd" fill-opacity="0.5" stroke="#000000" stroke-opacity="0.5" stroke-width="4"/>
<circle clip-path="url(#clip872)" cx="1575.35" cy="250.231" r="7.2" fill="#ff0000" fill-rule="evenodd" fill-opacity="0.5" stroke="#000000" stroke-opacity="0.5" stroke-width="4"/>
<circle clip-path="url(#clip872)" cx="1595.3" cy="246.473" r="7.2" fill="#ff0000" fill-rule="evenodd" fill-opacity="0.5" stroke="#000000" stroke-opacity="0.5" stroke-width="4"/>
<circle clip-path="url(#clip872)" cx="1615.25" cy="242.741" r="7.2" fill="#ff0000" fill-rule="evenodd" fill-opacity="0.5" stroke="#000000" stroke-opacity="0.5" stroke-width="4"/>
<circle clip-path="url(#clip872)" cx="1635.2" cy="239.032" r="7.2" fill="#ff0000" fill-rule="evenodd" fill-opacity="0.5" stroke="#000000" stroke-opacity="0.5" stroke-width="4"/>
<circle clip-path="url(#clip872)" cx="1655.15" cy="235.343" r="7.2" fill="#ff0000" fill-rule="evenodd" fill-opacity="0.5" stroke="#000000" stroke-opacity="0.5" stroke-width="4"/>
<circle clip-path="url(#clip872)" cx="1675.1" cy="231.674" r="7.2" fill="#ff0000" fill-rule="evenodd" fill-opacity="0.5" stroke="#000000" stroke-opacity="0.5" stroke-width="4"/>
<circle clip-path="url(#clip872)" cx="1695.05" cy="228.022" r="7.2" fill="#ff0000" fill-rule="evenodd" fill-opacity="0.5" stroke="#000000" stroke-opacity="0.5" stroke-width="4"/>
<circle clip-path="url(#clip872)" cx="1715" cy="224.385" r="7.2" fill="#ff0000" fill-rule="evenodd" fill-opacity="0.5" stroke="#000000" stroke-opacity="0.5" stroke-width="4"/>
<circle clip-path="url(#clip872)" cx="1734.94" cy="220.762" r="7.2" fill="#ff0000" fill-rule="evenodd" fill-opacity="0.5" stroke="#000000" stroke-opacity="0.5" stroke-width="4"/>
<circle clip-path="url(#clip872)" cx="1754.89" cy="217.152" r="7.2" fill="#ff0000" fill-rule="evenodd" fill-opacity="0.5" stroke="#000000" stroke-opacity="0.5" stroke-width="4"/>
<circle clip-path="url(#clip872)" cx="1774.84" cy="213.554" r="7.2" fill="#ff0000" fill-rule="evenodd" fill-opacity="0.5" stroke="#000000" stroke-opacity="0.5" stroke-width="4"/>
<circle clip-path="url(#clip872)" cx="1794.79" cy="209.966" r="7.2" fill="#ff0000" fill-rule="evenodd" fill-opacity="0.5" stroke="#000000" stroke-opacity="0.5" stroke-width="4"/>
<circle clip-path="url(#clip872)" cx="1814.74" cy="206.387" r="7.2" fill="#ff0000" fill-rule="evenodd" fill-opacity="0.5" stroke="#000000" stroke-opacity="0.5" stroke-width="4"/>
<circle clip-path="url(#clip872)" cx="1834.69" cy="202.818" r="7.2" fill="#ff0000" fill-rule="evenodd" fill-opacity="0.5" stroke="#000000" stroke-opacity="0.5" stroke-width="4"/>
<circle clip-path="url(#clip872)" cx="1854.64" cy="199.256" r="7.2" fill="#ff0000" fill-rule="evenodd" fill-opacity="0.5" stroke="#000000" stroke-opacity="0.5" stroke-width="4"/>
<circle clip-path="url(#clip872)" cx="1874.59" cy="195.701" r="7.2" fill="#ff0000" fill-rule="evenodd" fill-opacity="0.5" stroke="#000000" stroke-opacity="0.5" stroke-width="4"/>
<circle clip-path="url(#clip872)" cx="1894.53" cy="192.153" r="7.2" fill="#ff0000" fill-rule="evenodd" fill-opacity="0.5" stroke="#000000" stroke-opacity="0.5" stroke-width="4"/>
<circle clip-path="url(#clip872)" cx="1914.48" cy="188.612" r="7.2" fill="#ff0000" fill-rule="evenodd" fill-opacity="0.5" stroke="#000000" stroke-opacity="0.5" stroke-width="4"/>
<circle clip-path="url(#clip872)" cx="1934.43" cy="185.075" r="7.2" fill="#ff0000" fill-rule="evenodd" fill-opacity="0.5" stroke="#000000" stroke-opacity="0.5" stroke-width="4"/>
<circle clip-path="url(#clip872)" cx="1954.38" cy="181.544" r="7.2" fill="#ff0000" fill-rule="evenodd" fill-opacity="0.5" stroke="#000000" stroke-opacity="0.5" stroke-width="4"/>
<circle clip-path="url(#clip872)" cx="1974.33" cy="178.017" r="7.2" fill="#ff0000" fill-rule="evenodd" fill-opacity="0.5" stroke="#000000" stroke-opacity="0.5" stroke-width="4"/>
<circle clip-path="url(#clip872)" cx="1994.28" cy="174.494" r="7.2" fill="#ff0000" fill-rule="evenodd" fill-opacity="0.5" stroke="#000000" stroke-opacity="0.5" stroke-width="4"/>
<circle clip-path="url(#clip872)" cx="2014.23" cy="170.975" r="7.2" fill="#ff0000" fill-rule="evenodd" fill-opacity="0.5" stroke="#000000" stroke-opacity="0.5" stroke-width="4"/>
<circle clip-path="url(#clip872)" cx="2034.18" cy="167.46" r="7.2" fill="#ff0000" fill-rule="evenodd" fill-opacity="0.5" stroke="#000000" stroke-opacity="0.5" stroke-width="4"/>
<circle clip-path="url(#clip872)" cx="2054.12" cy="163.948" r="7.2" fill="#ff0000" fill-rule="evenodd" fill-opacity="0.5" stroke="#000000" stroke-opacity="0.5" stroke-width="4"/>
<circle clip-path="url(#clip872)" cx="2074.07" cy="160.438" r="7.2" fill="#ff0000" fill-rule="evenodd" fill-opacity="0.5" stroke="#000000" stroke-opacity="0.5" stroke-width="4"/>
<circle clip-path="url(#clip872)" cx="2094.02" cy="156.932" r="7.2" fill="#ff0000" fill-rule="evenodd" fill-opacity="0.5" stroke="#000000" stroke-opacity="0.5" stroke-width="4"/>
<circle clip-path="url(#clip872)" cx="2113.97" cy="153.428" r="7.2" fill="#ff0000" fill-rule="evenodd" fill-opacity="0.5" stroke="#000000" stroke-opacity="0.5" stroke-width="4"/>
<circle clip-path="url(#clip872)" cx="2133.92" cy="149.926" r="7.2" fill="#ff0000" fill-rule="evenodd" fill-opacity="0.5" stroke="#000000" stroke-opacity="0.5" stroke-width="4"/>
<circle clip-path="url(#clip872)" cx="2153.87" cy="146.426" r="7.2" fill="#ff0000" fill-rule="evenodd" fill-opacity="0.5" stroke="#000000" stroke-opacity="0.5" stroke-width="4"/>
<circle clip-path="url(#clip872)" cx="2173.82" cy="142.928" r="7.2" fill="#ff0000" fill-rule="evenodd" fill-opacity="0.5" stroke="#000000" stroke-opacity="0.5" stroke-width="4"/>
<circle clip-path="url(#clip872)" cx="2193.76" cy="139.432" r="7.2" fill="#ff0000" fill-rule="evenodd" fill-opacity="0.5" stroke="#000000" stroke-opacity="0.5" stroke-width="4"/>
<circle clip-path="url(#clip872)" cx="2213.71" cy="135.937" r="7.2" fill="#ff0000" fill-rule="evenodd" fill-opacity="0.5" stroke="#000000" stroke-opacity="0.5" stroke-width="4"/>
<circle clip-path="url(#clip872)" cx="2233.66" cy="132.444" r="7.2" fill="#ff0000" fill-rule="evenodd" fill-opacity="0.5" stroke="#000000" stroke-opacity="0.5" stroke-width="4"/>
<circle clip-path="url(#clip872)" cx="2253.61" cy="128.952" r="7.2" fill="#ff0000" fill-rule="evenodd" fill-opacity="0.5" stroke="#000000" stroke-opacity="0.5" stroke-width="4"/>
<circle clip-path="url(#clip872)" cx="2273.56" cy="125.461" r="7.2" fill="#ff0000" fill-rule="evenodd" fill-opacity="0.5" stroke="#000000" stroke-opacity="0.5" stroke-width="4"/>
<circle clip-path="url(#clip872)" cx="2293.51" cy="121.972" r="7.2" fill="#ff0000" fill-rule="evenodd" fill-opacity="0.5" stroke="#000000" stroke-opacity="0.5" stroke-width="4"/>
<path clip-path="url(#clip870)" d="M329.119 227.497 L638.322 227.497 L638.322 123.817 L329.119 123.817  Z" fill="#ffffff" fill-rule="evenodd" fill-opacity="1"/>
<polyline clip-path="url(#clip870)" style="stroke:#000000; stroke-linecap:round; stroke-linejoin:round; stroke-width:4; stroke-opacity:1; fill:none" points="329.119,227.497 638.322,227.497 638.322,123.817 329.119,123.817 329.119,227.497 "/>
<circle clip-path="url(#clip870)" cx="422.16" cy="175.657" r="18.432" fill="#ff0000" fill-rule="evenodd" fill-opacity="0.5" stroke="#000000" stroke-opacity="0.5" stroke-width="10.24"/>
<path clip-path="url(#clip870)" d="M534.113 170.946 L534.113 156.919 L538.372 156.919 L538.372 192.937 L534.113 192.937 L534.113 189.048 Q532.77 191.363 530.71 192.497 Q528.673 193.608 525.803 193.608 Q521.104 193.608 518.141 189.858 Q515.201 186.108 515.201 179.997 Q515.201 173.886 518.141 170.136 Q521.104 166.386 525.803 166.386 Q528.673 166.386 530.71 167.52 Q532.77 168.632 534.113 170.946 M519.599 179.997 Q519.599 184.696 521.52 187.381 Q523.465 190.044 526.844 190.044 Q530.224 190.044 532.168 187.381 Q534.113 184.696 534.113 179.997 Q534.113 175.298 532.168 172.636 Q530.224 169.951 526.844 169.951 Q523.465 169.951 521.52 172.636 Q519.599 175.298 519.599 179.997 Z" fill="#000000" fill-rule="nonzero" fill-opacity="1" /><path clip-path="url(#clip870)" d="M558.927 179.905 Q553.765 179.905 551.775 181.085 Q549.784 182.266 549.784 185.113 Q549.784 187.381 551.265 188.724 Q552.77 190.044 555.339 190.044 Q558.881 190.044 561.011 187.544 Q563.164 185.02 563.164 180.854 L563.164 179.905 L558.927 179.905 M567.423 178.145 L567.423 192.937 L563.164 192.937 L563.164 189.002 Q561.705 191.363 559.529 192.497 Q557.353 193.608 554.205 193.608 Q550.224 193.608 547.863 191.386 Q545.525 189.141 545.525 185.391 Q545.525 181.016 548.441 178.794 Q551.381 176.571 557.191 176.571 L563.164 176.571 L563.164 176.155 Q563.164 173.215 561.219 171.618 Q559.298 169.997 555.802 169.997 Q553.58 169.997 551.474 170.53 Q549.367 171.062 547.423 172.127 L547.423 168.192 Q549.761 167.289 551.96 166.849 Q554.159 166.386 556.242 166.386 Q561.867 166.386 564.645 169.303 Q567.423 172.22 567.423 178.145 Z" fill="#000000" fill-rule="nonzero" fill-opacity="1" /><path clip-path="url(#clip870)" d="M580.409 159.65 L580.409 167.011 L589.182 167.011 L589.182 170.321 L580.409 170.321 L580.409 184.395 Q580.409 187.567 581.265 188.469 Q582.145 189.372 584.807 189.372 L589.182 189.372 L589.182 192.937 L584.807 192.937 Q579.876 192.937 578.001 191.108 Q576.126 189.256 576.126 184.395 L576.126 170.321 L573.001 170.321 L573.001 167.011 L576.126 167.011 L576.126 159.65 L580.409 159.65 Z" fill="#000000" fill-rule="nonzero" fill-opacity="1" /><path clip-path="url(#clip870)" d="M606.566 179.905 Q601.404 179.905 599.413 181.085 Q597.423 182.266 597.423 185.113 Q597.423 187.381 598.904 188.724 Q600.409 190.044 602.978 190.044 Q606.52 190.044 608.649 187.544 Q610.802 185.02 610.802 180.854 L610.802 179.905 L606.566 179.905 M615.061 178.145 L615.061 192.937 L610.802 192.937 L610.802 189.002 Q609.344 191.363 607.168 192.497 Q604.992 193.608 601.844 193.608 Q597.862 193.608 595.501 191.386 Q593.163 189.141 593.163 185.391 Q593.163 181.016 596.08 178.794 Q599.02 176.571 604.83 176.571 L610.802 176.571 L610.802 176.155 Q610.802 173.215 608.858 171.618 Q606.936 169.997 603.441 169.997 Q601.219 169.997 599.112 170.53 Q597.006 171.062 595.061 172.127 L595.061 168.192 Q597.399 167.289 599.599 166.849 Q601.798 166.386 603.881 166.386 Q609.506 166.386 612.284 169.303 Q615.061 172.22 615.061 178.145 Z" fill="#000000" fill-rule="nonzero" fill-opacity="1" /><path clip-path="url(#clip870)" d="M259.339 1018.52 L2352.76 1018.52 L2352.76 651.775 L259.339 651.775  Z" fill="#ffffff" fill-rule="evenodd" fill-opacity="1"/>
<defs>
  <clipPath id="clip873">
    <rect x="259" y="651" width="2094" height="368"/>
  </clipPath>
</defs>
<polyline clip-path="url(#clip873)" style="stroke:#000000; stroke-linecap:round; stroke-linejoin:round; stroke-width:2; stroke-opacity:0.1; fill:none" points="318.586,1018.52 318.586,651.775 "/>
<polyline clip-path="url(#clip873)" style="stroke:#000000; stroke-linecap:round; stroke-linejoin:round; stroke-width:2; stroke-opacity:0.1; fill:none" points="713.571,1018.52 713.571,651.775 "/>
<polyline clip-path="url(#clip873)" style="stroke:#000000; stroke-linecap:round; stroke-linejoin:round; stroke-width:2; stroke-opacity:0.1; fill:none" points="1108.56,1018.52 1108.56,651.775 "/>
<polyline clip-path="url(#clip873)" style="stroke:#000000; stroke-linecap:round; stroke-linejoin:round; stroke-width:2; stroke-opacity:0.1; fill:none" points="1503.54,1018.52 1503.54,651.775 "/>
<polyline clip-path="url(#clip873)" style="stroke:#000000; stroke-linecap:round; stroke-linejoin:round; stroke-width:2; stroke-opacity:0.1; fill:none" points="1898.52,1018.52 1898.52,651.775 "/>
<polyline clip-path="url(#clip873)" style="stroke:#000000; stroke-linecap:round; stroke-linejoin:round; stroke-width:2; stroke-opacity:0.1; fill:none" points="2293.51,1018.52 2293.51,651.775 "/>
<polyline clip-path="url(#clip873)" style="stroke:#000000; stroke-linecap:round; stroke-linejoin:round; stroke-width:2; stroke-opacity:0.1; fill:none" points="259.339,1017.03 2352.76,1017.03 "/>
<polyline clip-path="url(#clip873)" style="stroke:#000000; stroke-linecap:round; stroke-linejoin:round; stroke-width:2; stroke-opacity:0.1; fill:none" points="259.339,946.053 2352.76,946.053 "/>
<polyline clip-path="url(#clip873)" style="stroke:#000000; stroke-linecap:round; stroke-linejoin:round; stroke-width:2; stroke-opacity:0.1; fill:none" points="259.339,875.078 2352.76,875.078 "/>
<polyline clip-path="url(#clip873)" style="stroke:#000000; stroke-linecap:round; stroke-linejoin:round; stroke-width:2; stroke-opacity:0.1; fill:none" points="259.339,804.104 2352.76,804.104 "/>
<polyline clip-path="url(#clip873)" style="stroke:#000000; stroke-linecap:round; stroke-linejoin:round; stroke-width:2; stroke-opacity:0.1; fill:none" points="259.339,733.129 2352.76,733.129 "/>
<polyline clip-path="url(#clip873)" style="stroke:#000000; stroke-linecap:round; stroke-linejoin:round; stroke-width:2; stroke-opacity:0.1; fill:none" points="259.339,662.155 2352.76,662.155 "/>
<polyline clip-path="url(#clip870)" style="stroke:#000000; stroke-linecap:round; stroke-linejoin:round; stroke-width:4; stroke-opacity:1; fill:none" points="259.339,1018.52 2352.76,1018.52 "/>
<polyline clip-path="url(#clip870)" style="stroke:#000000; stroke-linecap:round; stroke-linejoin:round; stroke-width:4; stroke-opacity:1; fill:none" points="318.586,1018.52 318.586,999.624 "/>
<polyline clip-path="url(#clip870)" style="stroke:#000000; stroke-linecap:round; stroke-linejoin:round; stroke-width:4; stroke-opacity:1; fill:none" points="713.571,1018.52 713.571,999.624 "/>
<polyline clip-path="url(#clip870)" style="stroke:#000000; stroke-linecap:round; stroke-linejoin:round; stroke-width:4; stroke-opacity:1; fill:none" points="1108.56,1018.52 1108.56,999.624 "/>
<polyline clip-path="url(#clip870)" style="stroke:#000000; stroke-linecap:round; stroke-linejoin:round; stroke-width:4; stroke-opacity:1; fill:none" points="1503.54,1018.52 1503.54,999.624 "/>
<polyline clip-path="url(#clip870)" style="stroke:#000000; stroke-linecap:round; stroke-linejoin:round; stroke-width:4; stroke-opacity:1; fill:none" points="1898.52,1018.52 1898.52,999.624 "/>
<polyline clip-path="url(#clip870)" style="stroke:#000000; stroke-linecap:round; stroke-linejoin:round; stroke-width:4; stroke-opacity:1; fill:none" points="2293.51,1018.52 2293.51,999.624 "/>
<path clip-path="url(#clip870)" d="M318.586 1049.44 Q314.975 1049.44 313.147 1053 Q311.341 1056.55 311.341 1063.68 Q311.341 1070.78 313.147 1074.35 Q314.975 1077.89 318.586 1077.89 Q322.221 1077.89 324.026 1074.35 Q325.855 1070.78 325.855 1063.68 Q325.855 1056.55 324.026 1053 Q322.221 1049.44 318.586 1049.44 M318.586 1045.74 Q324.397 1045.74 327.452 1050.34 Q330.531 1054.93 330.531 1063.68 Q330.531 1072.4 327.452 1077.01 Q324.397 1081.59 318.586 1081.59 Q312.776 1081.59 309.698 1077.01 Q306.642 1072.4 306.642 1063.68 Q306.642 1054.93 309.698 1050.34 Q312.776 1045.74 318.586 1045.74 Z" fill="#000000" fill-rule="nonzero" fill-opacity="1" /><path clip-path="url(#clip870)" d="M688.258 1076.99 L695.897 1076.99 L695.897 1050.62 L687.587 1052.29 L687.587 1048.03 L695.851 1046.36 L700.527 1046.36 L700.527 1076.99 L708.166 1076.99 L708.166 1080.92 L688.258 1080.92 L688.258 1076.99 Z" fill="#000000" fill-rule="nonzero" fill-opacity="1" /><path clip-path="url(#clip870)" d="M727.61 1049.44 Q723.999 1049.44 722.17 1053 Q720.365 1056.55 720.365 1063.68 Q720.365 1070.78 722.17 1074.35 Q723.999 1077.89 727.61 1077.89 Q731.244 1077.89 733.05 1074.35 Q734.878 1070.78 734.878 1063.68 Q734.878 1056.55 733.05 1053 Q731.244 1049.44 727.61 1049.44 M727.61 1045.74 Q733.42 1045.74 736.476 1050.34 Q739.554 1054.93 739.554 1063.68 Q739.554 1072.4 736.476 1077.01 Q733.42 1081.59 727.61 1081.59 Q721.8 1081.59 718.721 1077.01 Q715.666 1072.4 715.666 1063.68 Q715.666 1054.93 718.721 1050.34 Q721.8 1045.74 727.61 1045.74 Z" fill="#000000" fill-rule="nonzero" fill-opacity="1" /><path clip-path="url(#clip870)" d="M1087.33 1076.99 L1103.65 1076.99 L1103.65 1080.92 L1081.7 1080.92 L1081.7 1076.99 Q1084.37 1074.23 1088.95 1069.6 Q1093.56 1064.95 1094.74 1063.61 Q1096.98 1061.08 1097.86 1059.35 Q1098.76 1057.59 1098.76 1055.9 Q1098.76 1053.14 1096.82 1051.41 Q1094.9 1049.67 1091.8 1049.67 Q1089.6 1049.67 1087.14 1050.44 Q1084.71 1051.2 1081.93 1052.75 L1081.93 1048.03 Q1084.76 1046.89 1087.21 1046.32 Q1089.67 1045.74 1091.7 1045.74 Q1097.07 1045.74 1100.27 1048.42 Q1103.46 1051.11 1103.46 1055.6 Q1103.46 1057.73 1102.65 1059.65 Q1101.87 1061.55 1099.76 1064.14 Q1099.18 1064.81 1096.08 1068.03 Q1092.98 1071.22 1087.33 1076.99 Z" fill="#000000" fill-rule="nonzero" fill-opacity="1" /><path clip-path="url(#clip870)" d="M1123.46 1049.44 Q1119.85 1049.44 1118.02 1053 Q1116.22 1056.55 1116.22 1063.68 Q1116.22 1070.78 1118.02 1074.35 Q1119.85 1077.89 1123.46 1077.89 Q1127.1 1077.89 1128.9 1074.35 Q1130.73 1070.78 1130.73 1063.68 Q1130.73 1056.55 1128.9 1053 Q1127.1 1049.44 1123.46 1049.44 M1123.46 1045.74 Q1129.27 1045.74 1132.33 1050.34 Q1135.41 1054.93 1135.41 1063.68 Q1135.41 1072.4 1132.33 1077.01 Q1129.27 1081.59 1123.46 1081.59 Q1117.65 1081.59 1114.57 1077.01 Q1111.52 1072.4 1111.52 1063.68 Q1111.52 1054.93 1114.57 1050.34 Q1117.65 1045.74 1123.46 1045.74 Z" fill="#000000" fill-rule="nonzero" fill-opacity="1" /><path clip-path="url(#clip870)" d="M1492.38 1062.29 Q1495.74 1063 1497.61 1065.27 Q1499.51 1067.54 1499.51 1070.88 Q1499.51 1075.99 1495.99 1078.79 Q1492.47 1081.59 1485.99 1081.59 Q1483.82 1081.59 1481.5 1081.15 Q1479.21 1080.74 1476.76 1079.88 L1476.76 1075.37 Q1478.7 1076.5 1481.02 1077.08 Q1483.33 1077.66 1485.85 1077.66 Q1490.25 1077.66 1492.54 1075.92 Q1494.86 1074.19 1494.86 1070.88 Q1494.86 1067.82 1492.71 1066.11 Q1490.58 1064.37 1486.76 1064.37 L1482.73 1064.37 L1482.73 1060.53 L1486.94 1060.53 Q1490.39 1060.53 1492.22 1059.16 Q1494.05 1057.77 1494.05 1055.18 Q1494.05 1052.52 1492.15 1051.11 Q1490.28 1049.67 1486.76 1049.67 Q1484.84 1049.67 1482.64 1050.09 Q1480.44 1050.51 1477.8 1051.38 L1477.8 1047.22 Q1480.46 1046.48 1482.78 1046.11 Q1485.11 1045.74 1487.17 1045.74 Q1492.5 1045.74 1495.6 1048.17 Q1498.7 1050.57 1498.7 1054.69 Q1498.7 1057.57 1497.06 1059.56 Q1495.41 1061.52 1492.38 1062.29 Z" fill="#000000" fill-rule="nonzero" fill-opacity="1" /><path clip-path="url(#clip870)" d="M1518.38 1049.44 Q1514.77 1049.44 1512.94 1053 Q1511.13 1056.55 1511.13 1063.68 Q1511.13 1070.78 1512.94 1074.35 Q1514.77 1077.89 1518.38 1077.89 Q1522.01 1077.89 1523.82 1074.35 Q1525.65 1070.78 1525.65 1063.68 Q1525.65 1056.55 1523.82 1053 Q1522.01 1049.44 1518.38 1049.44 M1518.38 1045.74 Q1524.19 1045.74 1527.24 1050.34 Q1530.32 1054.93 1530.32 1063.68 Q1530.32 1072.4 1527.24 1077.01 Q1524.19 1081.59 1518.38 1081.59 Q1512.57 1081.59 1509.49 1077.01 Q1506.43 1072.4 1506.43 1063.68 Q1506.43 1054.93 1509.49 1050.34 Q1512.57 1045.74 1518.38 1045.74 Z" fill="#000000" fill-rule="nonzero" fill-opacity="1" /><path clip-path="url(#clip870)" d="M1886.7 1050.44 L1874.89 1068.88 L1886.7 1068.88 L1886.7 1050.44 M1885.47 1046.36 L1891.35 1046.36 L1891.35 1068.88 L1896.28 1068.88 L1896.28 1072.77 L1891.35 1072.77 L1891.35 1080.92 L1886.7 1080.92 L1886.7 1072.77 L1871.09 1072.77 L1871.09 1068.26 L1885.47 1046.36 Z" fill="#000000" fill-rule="nonzero" fill-opacity="1" /><path clip-path="url(#clip870)" d="M1914.01 1049.44 Q1910.4 1049.44 1908.57 1053 Q1906.76 1056.55 1906.76 1063.68 Q1906.76 1070.78 1908.57 1074.35 Q1910.4 1077.89 1914.01 1077.89 Q1917.64 1077.89 1919.45 1074.35 Q1921.28 1070.78 1921.28 1063.68 Q1921.28 1056.55 1919.45 1053 Q1917.64 1049.44 1914.01 1049.44 M1914.01 1045.74 Q1919.82 1045.74 1922.88 1050.34 Q1925.95 1054.93 1925.95 1063.68 Q1925.95 1072.4 1922.88 1077.01 Q1919.82 1081.59 1914.01 1081.59 Q1908.2 1081.59 1905.12 1077.01 Q1902.07 1072.4 1902.07 1063.68 Q1902.07 1054.93 1905.12 1050.34 Q1908.2 1045.74 1914.01 1045.74 Z" fill="#000000" fill-rule="nonzero" fill-opacity="1" /><path clip-path="url(#clip870)" d="M2268.21 1046.36 L2286.56 1046.36 L2286.56 1050.3 L2272.49 1050.3 L2272.49 1058.77 Q2273.51 1058.42 2274.53 1058.26 Q2275.55 1058.07 2276.56 1058.07 Q2282.35 1058.07 2285.73 1061.25 Q2289.11 1064.42 2289.11 1069.83 Q2289.11 1075.41 2285.64 1078.51 Q2282.17 1081.59 2275.85 1081.59 Q2273.67 1081.59 2271.4 1081.22 Q2269.16 1080.85 2266.75 1080.11 L2266.75 1075.41 Q2268.83 1076.55 2271.05 1077.1 Q2273.28 1077.66 2275.75 1077.66 Q2279.76 1077.66 2282.1 1075.55 Q2284.43 1073.44 2284.43 1069.83 Q2284.43 1066.22 2282.1 1064.12 Q2279.76 1062.01 2275.75 1062.01 Q2273.88 1062.01 2272 1062.43 Q2270.15 1062.84 2268.21 1063.72 L2268.21 1046.36 Z" fill="#000000" fill-rule="nonzero" fill-opacity="1" /><path clip-path="url(#clip870)" d="M2308.32 1049.44 Q2304.71 1049.44 2302.88 1053 Q2301.08 1056.55 2301.08 1063.68 Q2301.08 1070.78 2302.88 1074.35 Q2304.71 1077.89 2308.32 1077.89 Q2311.96 1077.89 2313.76 1074.35 Q2315.59 1070.78 2315.59 1063.68 Q2315.59 1056.55 2313.76 1053 Q2311.96 1049.44 2308.32 1049.44 M2308.32 1045.74 Q2314.13 1045.74 2317.19 1050.34 Q2320.27 1054.93 2320.27 1063.68 Q2320.27 1072.4 2317.19 1077.01 Q2314.13 1081.59 2308.32 1081.59 Q2302.51 1081.59 2299.43 1077.01 Q2296.38 1072.4 2296.38 1063.68 Q2296.38 1054.93 2299.43 1050.34 Q2302.51 1045.74 2308.32 1045.74 Z" fill="#000000" fill-rule="nonzero" fill-opacity="1" /><path clip-path="url(#clip870)" d="M1305.11 1117.62 L1305.11 1127.74 L1317.17 1127.74 L1317.17 1132.29 L1305.11 1132.29 L1305.11 1151.64 Q1305.11 1156 1306.29 1157.24 Q1307.5 1158.48 1311.16 1158.48 L1317.17 1158.48 L1317.17 1163.39 L1311.16 1163.39 Q1304.38 1163.39 1301.8 1160.87 Q1299.22 1158.32 1299.22 1151.64 L1299.22 1132.29 L1294.92 1132.29 L1294.92 1127.74 L1299.22 1127.74 L1299.22 1117.62 L1305.11 1117.62 Z" fill="#000000" fill-rule="nonzero" fill-opacity="1" /><polyline clip-path="url(#clip870)" style="stroke:#000000; stroke-linecap:round; stroke-linejoin:round; stroke-width:4; stroke-opacity:1; fill:none" points="259.339,1018.52 259.339,651.775 "/>
<polyline clip-path="url(#clip870)" style="stroke:#000000; stroke-linecap:round; stroke-linejoin:round; stroke-width:4; stroke-opacity:1; fill:none" points="259.339,1017.03 278.236,1017.03 "/>
<polyline clip-path="url(#clip870)" style="stroke:#000000; stroke-linecap:round; stroke-linejoin:round; stroke-width:4; stroke-opacity:1; fill:none" points="259.339,946.053 278.236,946.053 "/>
<polyline clip-path="url(#clip870)" style="stroke:#000000; stroke-linecap:round; stroke-linejoin:round; stroke-width:4; stroke-opacity:1; fill:none" points="259.339,875.078 278.236,875.078 "/>
<polyline clip-path="url(#clip870)" style="stroke:#000000; stroke-linecap:round; stroke-linejoin:round; stroke-width:4; stroke-opacity:1; fill:none" points="259.339,804.104 278.236,804.104 "/>
<polyline clip-path="url(#clip870)" style="stroke:#000000; stroke-linecap:round; stroke-linejoin:round; stroke-width:4; stroke-opacity:1; fill:none" points="259.339,733.129 278.236,733.129 "/>
<polyline clip-path="url(#clip870)" style="stroke:#000000; stroke-linecap:round; stroke-linejoin:round; stroke-width:4; stroke-opacity:1; fill:none" points="259.339,662.155 278.236,662.155 "/>
<path clip-path="url(#clip870)" d="M157.969 1030.37 L165.608 1030.37 L165.608 1004.01 L157.297 1005.67 L157.297 1001.41 L165.561 999.747 L170.237 999.747 L170.237 1030.37 L177.876 1030.37 L177.876 1034.31 L157.969 1034.31 L157.969 1030.37 Z" fill="#000000" fill-rule="nonzero" fill-opacity="1" /><path clip-path="url(#clip870)" d="M187.32 1028.43 L192.205 1028.43 L192.205 1034.31 L187.32 1034.31 L187.32 1028.43 Z" fill="#000000" fill-rule="nonzero" fill-opacity="1" /><path clip-path="url(#clip870)" d="M202.436 999.747 L220.792 999.747 L220.792 1003.68 L206.718 1003.68 L206.718 1012.15 Q207.737 1011.81 208.755 1011.65 Q209.774 1011.46 210.792 1011.46 Q216.579 1011.46 219.959 1014.63 Q223.339 1017.8 223.339 1023.22 Q223.339 1028.8 219.867 1031.9 Q216.394 1034.98 210.075 1034.98 Q207.899 1034.98 205.63 1034.61 Q203.385 1034.24 200.978 1033.5 L200.978 1028.8 Q203.061 1029.93 205.283 1030.49 Q207.505 1031.04 209.982 1031.04 Q213.987 1031.04 216.325 1028.94 Q218.663 1026.83 218.663 1023.22 Q218.663 1019.61 216.325 1017.5 Q213.987 1015.4 209.982 1015.4 Q208.107 1015.4 206.232 1015.81 Q204.38 1016.23 202.436 1017.11 L202.436 999.747 Z" fill="#000000" fill-rule="nonzero" fill-opacity="1" /><path clip-path="url(#clip870)" d="M160.191 959.398 L176.51 959.398 L176.51 963.333 L154.566 963.333 L154.566 959.398 Q157.228 956.643 161.811 952.013 Q166.418 947.361 167.598 946.018 Q169.844 943.495 170.723 941.759 Q171.626 939.999 171.626 938.31 Q171.626 935.555 169.682 933.819 Q167.76 932.083 164.658 932.083 Q162.459 932.083 160.006 932.847 Q157.575 933.611 154.797 935.162 L154.797 930.439 Q157.621 929.305 160.075 928.726 Q162.529 928.148 164.566 928.148 Q169.936 928.148 173.131 930.833 Q176.325 933.518 176.325 938.009 Q176.325 940.138 175.515 942.06 Q174.728 943.958 172.621 946.55 Q172.043 947.222 168.941 950.439 Q165.839 953.634 160.191 959.398 Z" fill="#000000" fill-rule="nonzero" fill-opacity="1" /><path clip-path="url(#clip870)" d="M186.325 957.453 L191.209 957.453 L191.209 963.333 L186.325 963.333 L186.325 957.453 Z" fill="#000000" fill-rule="nonzero" fill-opacity="1" /><path clip-path="url(#clip870)" d="M211.394 931.851 Q207.783 931.851 205.955 935.416 Q204.149 938.958 204.149 946.087 Q204.149 953.194 205.955 956.759 Q207.783 960.3 211.394 960.3 Q215.029 960.3 216.834 956.759 Q218.663 953.194 218.663 946.087 Q218.663 938.958 216.834 935.416 Q215.029 931.851 211.394 931.851 M211.394 928.148 Q217.204 928.148 220.26 932.754 Q223.339 937.337 223.339 946.087 Q223.339 954.814 220.26 959.421 Q217.204 964.004 211.394 964.004 Q205.584 964.004 202.505 959.421 Q199.45 954.814 199.45 946.087 Q199.45 937.337 202.505 932.754 Q205.584 928.148 211.394 928.148 Z" fill="#000000" fill-rule="nonzero" fill-opacity="1" /><path clip-path="url(#clip870)" d="M161.186 888.423 L177.506 888.423 L177.506 892.358 L155.561 892.358 L155.561 888.423 Q158.223 885.668 162.807 881.039 Q167.413 876.386 168.594 875.043 Q170.839 872.52 171.719 870.784 Q172.621 869.025 172.621 867.335 Q172.621 864.581 170.677 862.844 Q168.756 861.108 165.654 861.108 Q163.455 861.108 161.001 861.872 Q158.571 862.636 155.793 864.187 L155.793 859.465 Q158.617 858.331 161.071 857.752 Q163.524 857.173 165.561 857.173 Q170.932 857.173 174.126 859.858 Q177.32 862.544 177.32 867.034 Q177.32 869.164 176.51 871.085 Q175.723 872.983 173.617 875.576 Q173.038 876.247 169.936 879.465 Q166.834 882.659 161.186 888.423 Z" fill="#000000" fill-rule="nonzero" fill-opacity="1" /><path clip-path="url(#clip870)" d="M187.32 886.479 L192.205 886.479 L192.205 892.358 L187.32 892.358 L187.32 886.479 Z" fill="#000000" fill-rule="nonzero" fill-opacity="1" /><path clip-path="url(#clip870)" d="M202.436 857.798 L220.792 857.798 L220.792 861.733 L206.718 861.733 L206.718 870.206 Q207.737 869.858 208.755 869.696 Q209.774 869.511 210.792 869.511 Q216.579 869.511 219.959 872.682 Q223.339 875.854 223.339 881.27 Q223.339 886.849 219.867 889.951 Q216.394 893.029 210.075 893.029 Q207.899 893.029 205.63 892.659 Q203.385 892.289 200.978 891.548 L200.978 886.849 Q203.061 887.983 205.283 888.539 Q207.505 889.094 209.982 889.094 Q213.987 889.094 216.325 886.988 Q218.663 884.881 218.663 881.27 Q218.663 877.659 216.325 875.553 Q213.987 873.446 209.982 873.446 Q208.107 873.446 206.232 873.863 Q204.38 874.28 202.436 875.159 L202.436 857.798 Z" fill="#000000" fill-rule="nonzero" fill-opacity="1" /><path clip-path="url(#clip870)" d="M170.33 802.749 Q173.686 803.467 175.561 805.736 Q177.459 808.004 177.459 811.337 Q177.459 816.453 173.941 819.254 Q170.422 822.055 163.941 822.055 Q161.765 822.055 159.45 821.615 Q157.159 821.198 154.705 820.342 L154.705 815.828 Q156.649 816.962 158.964 817.541 Q161.279 818.12 163.802 818.12 Q168.2 818.12 170.492 816.384 Q172.807 814.648 172.807 811.337 Q172.807 808.282 170.654 806.569 Q168.524 804.833 164.705 804.833 L160.677 804.833 L160.677 800.99 L164.89 800.99 Q168.339 800.99 170.168 799.624 Q171.996 798.236 171.996 795.643 Q171.996 792.981 170.098 791.569 Q168.223 790.134 164.705 790.134 Q162.783 790.134 160.584 790.55 Q158.385 790.967 155.746 791.847 L155.746 787.68 Q158.409 786.939 160.723 786.569 Q163.061 786.199 165.121 786.199 Q170.445 786.199 173.547 788.629 Q176.649 791.037 176.649 795.157 Q176.649 798.027 175.006 800.018 Q173.362 801.986 170.33 802.749 Z" fill="#000000" fill-rule="nonzero" fill-opacity="1" /><path clip-path="url(#clip870)" d="M186.325 815.504 L191.209 815.504 L191.209 821.384 L186.325 821.384 L186.325 815.504 Z" fill="#000000" fill-rule="nonzero" fill-opacity="1" /><path clip-path="url(#clip870)" d="M211.394 789.902 Q207.783 789.902 205.955 793.467 Q204.149 797.009 204.149 804.138 Q204.149 811.245 205.955 814.81 Q207.783 818.351 211.394 818.351 Q215.029 818.351 216.834 814.81 Q218.663 811.245 218.663 804.138 Q218.663 797.009 216.834 793.467 Q215.029 789.902 211.394 789.902 M211.394 786.199 Q217.204 786.199 220.26 790.805 Q223.339 795.388 223.339 804.138 Q223.339 812.865 220.26 817.472 Q217.204 822.055 211.394 822.055 Q205.584 822.055 202.505 817.472 Q199.45 812.865 199.45 804.138 Q199.45 795.388 202.505 790.805 Q205.584 786.199 211.394 786.199 Z" fill="#000000" fill-rule="nonzero" fill-opacity="1" /><path clip-path="url(#clip870)" d="M171.325 731.775 Q174.682 732.493 176.557 734.761 Q178.455 737.03 178.455 740.363 Q178.455 745.479 174.936 748.279 Q171.418 751.08 164.936 751.08 Q162.76 751.08 160.446 750.641 Q158.154 750.224 155.7 749.367 L155.7 744.854 Q157.645 745.988 159.959 746.567 Q162.274 747.145 164.797 747.145 Q169.195 747.145 171.487 745.409 Q173.802 743.673 173.802 740.363 Q173.802 737.307 171.649 735.594 Q169.52 733.858 165.7 733.858 L161.672 733.858 L161.672 730.016 L165.885 730.016 Q169.334 730.016 171.163 728.65 Q172.992 727.261 172.992 724.668 Q172.992 722.006 171.094 720.594 Q169.219 719.159 165.7 719.159 Q163.779 719.159 161.58 719.576 Q159.381 719.993 156.742 720.872 L156.742 716.706 Q159.404 715.965 161.719 715.594 Q164.057 715.224 166.117 715.224 Q171.441 715.224 174.543 717.655 Q177.645 720.062 177.645 724.182 Q177.645 727.053 176.001 729.043 Q174.357 731.011 171.325 731.775 Z" fill="#000000" fill-rule="nonzero" fill-opacity="1" /><path clip-path="url(#clip870)" d="M187.32 744.529 L192.205 744.529 L192.205 750.409 L187.32 750.409 L187.32 744.529 Z" fill="#000000" fill-rule="nonzero" fill-opacity="1" /><path clip-path="url(#clip870)" d="M202.436 715.849 L220.792 715.849 L220.792 719.784 L206.718 719.784 L206.718 728.256 Q207.737 727.909 208.755 727.747 Q209.774 727.562 210.792 727.562 Q216.579 727.562 219.959 730.733 Q223.339 733.905 223.339 739.321 Q223.339 744.9 219.867 748.002 Q216.394 751.08 210.075 751.08 Q207.899 751.08 205.63 750.71 Q203.385 750.34 200.978 749.599 L200.978 744.9 Q203.061 746.034 205.283 746.59 Q207.505 747.145 209.982 747.145 Q213.987 747.145 216.325 745.039 Q218.663 742.932 218.663 739.321 Q218.663 735.71 216.325 733.604 Q213.987 731.497 209.982 731.497 Q208.107 731.497 206.232 731.914 Q204.38 732.33 202.436 733.21 L202.436 715.849 Z" fill="#000000" fill-rule="nonzero" fill-opacity="1" /><path clip-path="url(#clip870)" d="M169.01 648.949 L157.205 667.398 L169.01 667.398 L169.01 648.949 M167.783 644.875 L173.663 644.875 L173.663 667.398 L178.594 667.398 L178.594 671.286 L173.663 671.286 L173.663 679.435 L169.01 679.435 L169.01 671.286 L153.409 671.286 L153.409 666.773 L167.783 644.875 Z" fill="#000000" fill-rule="nonzero" fill-opacity="1" /><path clip-path="url(#clip870)" d="M186.325 673.555 L191.209 673.555 L191.209 679.435 L186.325 679.435 L186.325 673.555 Z" fill="#000000" fill-rule="nonzero" fill-opacity="1" /><path clip-path="url(#clip870)" d="M211.394 647.953 Q207.783 647.953 205.955 651.518 Q204.149 655.06 204.149 662.189 Q204.149 669.296 205.955 672.861 Q207.783 676.402 211.394 676.402 Q215.029 676.402 216.834 672.861 Q218.663 669.296 218.663 662.189 Q218.663 655.06 216.834 651.518 Q215.029 647.953 211.394 647.953 M211.394 644.25 Q217.204 644.25 220.26 648.856 Q223.339 653.439 223.339 662.189 Q223.339 670.916 220.26 675.523 Q217.204 680.106 211.394 680.106 Q205.584 680.106 202.505 675.523 Q199.45 670.916 199.45 662.189 Q199.45 653.439 202.505 648.856 Q205.584 644.25 211.394 644.25 Z" fill="#000000" fill-rule="nonzero" fill-opacity="1" /><path clip-path="url(#clip870)" d="M74.3477 833.191 Q70.401 830.995 68.5231 827.939 Q66.6452 824.884 66.6452 820.746 Q66.6452 815.176 70.5601 812.152 Q74.4432 809.128 81.6364 809.128 L103.153 809.128 L103.153 815.017 L81.8274 815.017 Q76.703 815.017 74.2204 816.831 Q71.7378 818.645 71.7378 822.369 Q71.7378 826.921 74.7615 829.562 Q77.7852 832.204 83.0051 832.204 L103.153 832.204 L103.153 838.092 L81.8274 838.092 Q76.6712 838.092 74.2204 839.907 Q71.7378 841.721 71.7378 845.508 Q71.7378 849.996 74.7933 852.638 Q77.817 855.28 83.0051 855.28 L103.153 855.28 L103.153 861.168 L67.5046 861.168 L67.5046 855.28 L73.0427 855.28 Q69.7644 853.275 68.2048 850.474 Q66.6452 847.673 66.6452 843.821 Q66.6452 839.938 68.6186 837.233 Q70.5919 834.496 74.3477 833.191 Z" fill="#000000" fill-rule="nonzero" fill-opacity="1" /><polyline clip-path="url(#clip873)" style="stroke:#009af9; stroke-linecap:round; stroke-linejoin:round; stroke-width:4; stroke-opacity:1; fill:none" points="318.586,662.155 321.135,667.973 323.683,673.704 326.232,679.35 328.781,684.911 331.329,690.389 333.878,695.785 336.426,701.1 338.975,706.334 346.438,721.21 353.902,735.431 361.365,749.023 368.828,762.008 376.292,774.41 383.755,786.25 391.218,797.551 398.682,808.332 406.145,818.615 413.608,828.418 421.072,837.761 428.535,846.662 435.998,855.138 443.462,863.208 450.925,870.887 458.389,878.193 465.332,884.668 472.276,890.845 479.22,896.736 486.164,902.353 493.108,907.706 500.052,912.807 506.996,917.666 513.94,922.293 523.247,928.149 532.555,933.629 541.862,938.753 551.169,943.544 560.477,948.02 569.784,952.2 579.092,956.104 588.399,959.747 603.781,965.241 619.162,970.132 634.544,974.483 649.925,978.351 664.229,981.56 678.532,984.434 692.836,987.006 707.139,989.305 725.095,991.847 743.05,994.052 761.006,995.965 778.961,997.626 811.174,1000.07 843.387,1001.95 880.258,1003.59 917.13,1004.81 944.692,1005.51 972.253,1006.06 1042.76,1007.04 1107.11,1007.55 1180.34,1007.88 1238.4,1008.03 1256.43,1008.07 1274.46,1008.1 1283.48,1008.11 1292.49,1008.12 1297,1008.13 1301.51,1008.14 1303.76,1008.14 1306.02,1008.14 1308.27,1006.59 1310.53,1005.05 1317.43,1000.43 1324.34,995.998 1331.24,991.74 1338.15,987.646 1351.96,979.92 1365.77,972.761 1385.23,963.534 1404.7,955.209 1424.17,947.683 1443.64,940.866 1458.19,936.188 1472.74,931.836 1487.29,927.784 1501.84,924.008 1518.39,920.024 1534.93,916.342 1551.48,912.939 1568.02,909.791 1600.79,904.231 1633.57,899.454 1669.62,894.963 1705.68,891.154 1733.22,888.635 1760.76,886.41 1795.51,883.966 1830.26,881.872 1862.41,880.203 1894.55,878.758 1960.85,876.352 2028.05,874.53 2098.22,873.126 2153.5,872.287 2279.38,870.986 2293.51,870.879 "/>
<path clip-path="url(#clip870)" d="M259.339 1798.66 L2352.76 1798.66 L2352.76 1331.45 L259.339 1331.45  Z" fill="#ffffff" fill-rule="evenodd" fill-opacity="1"/>
<polyline clip-path="url(#clip871)" style="stroke:#000000; stroke-linecap:round; stroke-linejoin:round; stroke-width:2; stroke-opacity:0.1; fill:none" points="318.586,1798.66 318.586,1331.45 "/>
<polyline clip-path="url(#clip871)" style="stroke:#000000; stroke-linecap:round; stroke-linejoin:round; stroke-width:2; stroke-opacity:0.1; fill:none" points="713.571,1798.66 713.571,1331.45 "/>
<polyline clip-path="url(#clip871)" style="stroke:#000000; stroke-linecap:round; stroke-linejoin:round; stroke-width:2; stroke-opacity:0.1; fill:none" points="1108.56,1798.66 1108.56,1331.45 "/>
<polyline clip-path="url(#clip871)" style="stroke:#000000; stroke-linecap:round; stroke-linejoin:round; stroke-width:2; stroke-opacity:0.1; fill:none" points="1503.54,1798.66 1503.54,1331.45 "/>
<polyline clip-path="url(#clip871)" style="stroke:#000000; stroke-linecap:round; stroke-linejoin:round; stroke-width:2; stroke-opacity:0.1; fill:none" points="1898.52,1798.66 1898.52,1331.45 "/>
<polyline clip-path="url(#clip871)" style="stroke:#000000; stroke-linecap:round; stroke-linejoin:round; stroke-width:2; stroke-opacity:0.1; fill:none" points="2293.51,1798.66 2293.51,1331.45 "/>
<polyline clip-path="url(#clip871)" style="stroke:#000000; stroke-linecap:round; stroke-linejoin:round; stroke-width:2; stroke-opacity:0.1; fill:none" points="259.339,1777.42 2352.76,1777.42 "/>
<polyline clip-path="url(#clip871)" style="stroke:#000000; stroke-linecap:round; stroke-linejoin:round; stroke-width:2; stroke-opacity:0.1; fill:none" points="259.339,1671.24 2352.76,1671.24 "/>
<polyline clip-path="url(#clip871)" style="stroke:#000000; stroke-linecap:round; stroke-linejoin:round; stroke-width:2; stroke-opacity:0.1; fill:none" points="259.339,1565.06 2352.76,1565.06 "/>
<polyline clip-path="url(#clip871)" style="stroke:#000000; stroke-linecap:round; stroke-linejoin:round; stroke-width:2; stroke-opacity:0.1; fill:none" points="259.339,1458.87 2352.76,1458.87 "/>
<polyline clip-path="url(#clip871)" style="stroke:#000000; stroke-linecap:round; stroke-linejoin:round; stroke-width:2; stroke-opacity:0.1; fill:none" points="259.339,1352.69 2352.76,1352.69 "/>
<polyline clip-path="url(#clip870)" style="stroke:#000000; stroke-linecap:round; stroke-linejoin:round; stroke-width:4; stroke-opacity:1; fill:none" points="259.339,1798.66 2352.76,1798.66 "/>
<polyline clip-path="url(#clip870)" style="stroke:#000000; stroke-linecap:round; stroke-linejoin:round; stroke-width:4; stroke-opacity:1; fill:none" points="318.586,1798.66 318.586,1779.76 "/>
<polyline clip-path="url(#clip870)" style="stroke:#000000; stroke-linecap:round; stroke-linejoin:round; stroke-width:4; stroke-opacity:1; fill:none" points="713.571,1798.66 713.571,1779.76 "/>
<polyline clip-path="url(#clip870)" style="stroke:#000000; stroke-linecap:round; stroke-linejoin:round; stroke-width:4; stroke-opacity:1; fill:none" points="1108.56,1798.66 1108.56,1779.76 "/>
<polyline clip-path="url(#clip870)" style="stroke:#000000; stroke-linecap:round; stroke-linejoin:round; stroke-width:4; stroke-opacity:1; fill:none" points="1503.54,1798.66 1503.54,1779.76 "/>
<polyline clip-path="url(#clip870)" style="stroke:#000000; stroke-linecap:round; stroke-linejoin:round; stroke-width:4; stroke-opacity:1; fill:none" points="1898.52,1798.66 1898.52,1779.76 "/>
<polyline clip-path="url(#clip870)" style="stroke:#000000; stroke-linecap:round; stroke-linejoin:round; stroke-width:4; stroke-opacity:1; fill:none" points="2293.51,1798.66 2293.51,1779.76 "/>
<path clip-path="url(#clip870)" d="M318.586 1829.58 Q314.975 1829.58 313.147 1833.14 Q311.341 1836.68 311.341 1843.81 Q311.341 1850.92 313.147 1854.49 Q314.975 1858.03 318.586 1858.03 Q322.221 1858.03 324.026 1854.49 Q325.855 1850.92 325.855 1843.81 Q325.855 1836.68 324.026 1833.14 Q322.221 1829.58 318.586 1829.58 M318.586 1825.87 Q324.397 1825.87 327.452 1830.48 Q330.531 1835.06 330.531 1843.81 Q330.531 1852.54 327.452 1857.15 Q324.397 1861.73 318.586 1861.73 Q312.776 1861.73 309.698 1857.15 Q306.642 1852.54 306.642 1843.81 Q306.642 1835.06 309.698 1830.48 Q312.776 1825.87 318.586 1825.87 Z" fill="#000000" fill-rule="nonzero" fill-opacity="1" /><path clip-path="url(#clip870)" d="M688.258 1857.12 L695.897 1857.12 L695.897 1830.76 L687.587 1832.43 L687.587 1828.17 L695.851 1826.5 L700.527 1826.5 L700.527 1857.12 L708.166 1857.12 L708.166 1861.06 L688.258 1861.06 L688.258 1857.12 Z" fill="#000000" fill-rule="nonzero" fill-opacity="1" /><path clip-path="url(#clip870)" d="M727.61 1829.58 Q723.999 1829.58 722.17 1833.14 Q720.365 1836.68 720.365 1843.81 Q720.365 1850.92 722.17 1854.49 Q723.999 1858.03 727.61 1858.03 Q731.244 1858.03 733.05 1854.49 Q734.878 1850.92 734.878 1843.81 Q734.878 1836.68 733.05 1833.14 Q731.244 1829.58 727.61 1829.58 M727.61 1825.87 Q733.42 1825.87 736.476 1830.48 Q739.554 1835.06 739.554 1843.81 Q739.554 1852.54 736.476 1857.15 Q733.42 1861.73 727.61 1861.73 Q721.8 1861.73 718.721 1857.15 Q715.666 1852.54 715.666 1843.81 Q715.666 1835.06 718.721 1830.48 Q721.8 1825.87 727.61 1825.87 Z" fill="#000000" fill-rule="nonzero" fill-opacity="1" /><path clip-path="url(#clip870)" d="M1087.33 1857.12 L1103.65 1857.12 L1103.65 1861.06 L1081.7 1861.06 L1081.7 1857.12 Q1084.37 1854.37 1088.95 1849.74 Q1093.56 1845.09 1094.74 1843.75 Q1096.98 1841.22 1097.86 1839.49 Q1098.76 1837.73 1098.76 1836.04 Q1098.76 1833.28 1096.82 1831.55 Q1094.9 1829.81 1091.8 1829.81 Q1089.6 1829.81 1087.14 1830.57 Q1084.71 1831.34 1081.93 1832.89 L1081.93 1828.17 Q1084.76 1827.03 1087.21 1826.45 Q1089.67 1825.87 1091.7 1825.87 Q1097.07 1825.87 1100.27 1828.56 Q1103.46 1831.25 1103.46 1835.74 Q1103.46 1837.87 1102.65 1839.79 Q1101.87 1841.68 1099.76 1844.28 Q1099.18 1844.95 1096.08 1848.17 Q1092.98 1851.36 1087.33 1857.12 Z" fill="#000000" fill-rule="nonzero" fill-opacity="1" /><path clip-path="url(#clip870)" d="M1123.46 1829.58 Q1119.85 1829.58 1118.02 1833.14 Q1116.22 1836.68 1116.22 1843.81 Q1116.22 1850.92 1118.02 1854.49 Q1119.85 1858.03 1123.46 1858.03 Q1127.1 1858.03 1128.9 1854.49 Q1130.73 1850.92 1130.73 1843.81 Q1130.73 1836.68 1128.9 1833.14 Q1127.1 1829.58 1123.46 1829.58 M1123.46 1825.87 Q1129.27 1825.87 1132.33 1830.48 Q1135.41 1835.06 1135.41 1843.81 Q1135.41 1852.54 1132.33 1857.15 Q1129.27 1861.73 1123.46 1861.73 Q1117.65 1861.73 1114.57 1857.15 Q1111.52 1852.54 1111.52 1843.81 Q1111.52 1835.06 1114.57 1830.48 Q1117.65 1825.87 1123.46 1825.87 Z" fill="#000000" fill-rule="nonzero" fill-opacity="1" /><path clip-path="url(#clip870)" d="M1492.38 1842.43 Q1495.74 1843.14 1497.61 1845.41 Q1499.51 1847.68 1499.51 1851.01 Q1499.51 1856.13 1495.99 1858.93 Q1492.47 1861.73 1485.99 1861.73 Q1483.82 1861.73 1481.5 1861.29 Q1479.21 1860.87 1476.76 1860.02 L1476.76 1855.5 Q1478.7 1856.64 1481.02 1857.22 Q1483.33 1857.8 1485.85 1857.8 Q1490.25 1857.8 1492.54 1856.06 Q1494.86 1854.32 1494.86 1851.01 Q1494.86 1847.96 1492.71 1846.25 Q1490.58 1844.51 1486.76 1844.51 L1482.73 1844.51 L1482.73 1840.67 L1486.94 1840.67 Q1490.39 1840.67 1492.22 1839.3 Q1494.05 1837.91 1494.05 1835.32 Q1494.05 1832.66 1492.15 1831.25 Q1490.28 1829.81 1486.76 1829.81 Q1484.84 1829.81 1482.64 1830.23 Q1480.44 1830.64 1477.8 1831.52 L1477.8 1827.36 Q1480.46 1826.62 1482.78 1826.25 Q1485.11 1825.87 1487.17 1825.87 Q1492.5 1825.87 1495.6 1828.31 Q1498.7 1830.71 1498.7 1834.83 Q1498.7 1837.7 1497.06 1839.69 Q1495.41 1841.66 1492.38 1842.43 Z" fill="#000000" fill-rule="nonzero" fill-opacity="1" /><path clip-path="url(#clip870)" d="M1518.38 1829.58 Q1514.77 1829.58 1512.94 1833.14 Q1511.13 1836.68 1511.13 1843.81 Q1511.13 1850.92 1512.94 1854.49 Q1514.77 1858.03 1518.38 1858.03 Q1522.01 1858.03 1523.82 1854.49 Q1525.65 1850.92 1525.65 1843.81 Q1525.65 1836.68 1523.82 1833.14 Q1522.01 1829.58 1518.38 1829.58 M1518.38 1825.87 Q1524.19 1825.87 1527.24 1830.48 Q1530.32 1835.06 1530.32 1843.81 Q1530.32 1852.54 1527.24 1857.15 Q1524.19 1861.73 1518.38 1861.73 Q1512.57 1861.73 1509.49 1857.15 Q1506.43 1852.54 1506.43 1843.81 Q1506.43 1835.06 1509.49 1830.48 Q1512.57 1825.87 1518.38 1825.87 Z" fill="#000000" fill-rule="nonzero" fill-opacity="1" /><path clip-path="url(#clip870)" d="M1886.7 1830.57 L1874.89 1849.02 L1886.7 1849.02 L1886.7 1830.57 M1885.47 1826.5 L1891.35 1826.5 L1891.35 1849.02 L1896.28 1849.02 L1896.28 1852.91 L1891.35 1852.91 L1891.35 1861.06 L1886.7 1861.06 L1886.7 1852.91 L1871.09 1852.91 L1871.09 1848.4 L1885.47 1826.5 Z" fill="#000000" fill-rule="nonzero" fill-opacity="1" /><path clip-path="url(#clip870)" d="M1914.01 1829.58 Q1910.4 1829.58 1908.57 1833.14 Q1906.76 1836.68 1906.76 1843.81 Q1906.76 1850.92 1908.57 1854.49 Q1910.4 1858.03 1914.01 1858.03 Q1917.64 1858.03 1919.45 1854.49 Q1921.28 1850.92 1921.28 1843.81 Q1921.28 1836.68 1919.45 1833.14 Q1917.64 1829.58 1914.01 1829.58 M1914.01 1825.87 Q1919.82 1825.87 1922.88 1830.48 Q1925.95 1835.06 1925.95 1843.81 Q1925.95 1852.54 1922.88 1857.15 Q1919.82 1861.73 1914.01 1861.73 Q1908.2 1861.73 1905.12 1857.15 Q1902.07 1852.54 1902.07 1843.81 Q1902.07 1835.06 1905.12 1830.48 Q1908.2 1825.87 1914.01 1825.87 Z" fill="#000000" fill-rule="nonzero" fill-opacity="1" /><path clip-path="url(#clip870)" d="M2268.21 1826.5 L2286.56 1826.5 L2286.56 1830.44 L2272.49 1830.44 L2272.49 1838.91 Q2273.51 1838.56 2274.53 1838.4 Q2275.55 1838.21 2276.56 1838.21 Q2282.35 1838.21 2285.73 1841.38 Q2289.11 1844.56 2289.11 1849.97 Q2289.11 1855.55 2285.64 1858.65 Q2282.17 1861.73 2275.85 1861.73 Q2273.67 1861.73 2271.4 1861.36 Q2269.16 1860.99 2266.75 1860.25 L2266.75 1855.55 Q2268.83 1856.68 2271.05 1857.24 Q2273.28 1857.8 2275.75 1857.8 Q2279.76 1857.8 2282.1 1855.69 Q2284.43 1853.58 2284.43 1849.97 Q2284.43 1846.36 2282.1 1844.25 Q2279.76 1842.15 2275.75 1842.15 Q2273.88 1842.15 2272 1842.56 Q2270.15 1842.98 2268.21 1843.86 L2268.21 1826.5 Z" fill="#000000" fill-rule="nonzero" fill-opacity="1" /><path clip-path="url(#clip870)" d="M2308.32 1829.58 Q2304.71 1829.58 2302.88 1833.14 Q2301.08 1836.68 2301.08 1843.81 Q2301.08 1850.92 2302.88 1854.49 Q2304.71 1858.03 2308.32 1858.03 Q2311.96 1858.03 2313.76 1854.49 Q2315.59 1850.92 2315.59 1843.81 Q2315.59 1836.68 2313.76 1833.14 Q2311.96 1829.58 2308.32 1829.58 M2308.32 1825.87 Q2314.13 1825.87 2317.19 1830.48 Q2320.27 1835.06 2320.27 1843.81 Q2320.27 1852.54 2317.19 1857.15 Q2314.13 1861.73 2308.32 1861.73 Q2302.51 1861.73 2299.43 1857.15 Q2296.38 1852.54 2296.38 1843.81 Q2296.38 1835.06 2299.43 1830.48 Q2302.51 1825.87 2308.32 1825.87 Z" fill="#000000" fill-rule="nonzero" fill-opacity="1" /><path clip-path="url(#clip870)" d="M1305.11 1897.75 L1305.11 1907.88 L1317.17 1907.88 L1317.17 1912.43 L1305.11 1912.43 L1305.11 1931.78 Q1305.11 1936.14 1306.29 1937.38 Q1307.5 1938.62 1311.16 1938.62 L1317.17 1938.62 L1317.17 1943.52 L1311.16 1943.52 Q1304.38 1943.52 1301.8 1941.01 Q1299.22 1938.46 1299.22 1931.78 L1299.22 1912.43 L1294.92 1912.43 L1294.92 1907.88 L1299.22 1907.88 L1299.22 1897.75 L1305.11 1897.75 Z" fill="#000000" fill-rule="nonzero" fill-opacity="1" /><polyline clip-path="url(#clip870)" style="stroke:#000000; stroke-linecap:round; stroke-linejoin:round; stroke-width:4; stroke-opacity:1; fill:none" points="259.339,1798.66 259.339,1331.45 "/>
<polyline clip-path="url(#clip870)" style="stroke:#000000; stroke-linecap:round; stroke-linejoin:round; stroke-width:4; stroke-opacity:1; fill:none" points="259.339,1777.42 278.236,1777.42 "/>
<polyline clip-path="url(#clip870)" style="stroke:#000000; stroke-linecap:round; stroke-linejoin:round; stroke-width:4; stroke-opacity:1; fill:none" points="259.339,1671.24 278.236,1671.24 "/>
<polyline clip-path="url(#clip870)" style="stroke:#000000; stroke-linecap:round; stroke-linejoin:round; stroke-width:4; stroke-opacity:1; fill:none" points="259.339,1565.06 278.236,1565.06 "/>
<polyline clip-path="url(#clip870)" style="stroke:#000000; stroke-linecap:round; stroke-linejoin:round; stroke-width:4; stroke-opacity:1; fill:none" points="259.339,1458.87 278.236,1458.87 "/>
<polyline clip-path="url(#clip870)" style="stroke:#000000; stroke-linecap:round; stroke-linejoin:round; stroke-width:4; stroke-opacity:1; fill:none" points="259.339,1352.69 278.236,1352.69 "/>
<path clip-path="url(#clip870)" d="M116.395 1777.87 L146.071 1777.87 L146.071 1781.81 L116.395 1781.81 L116.395 1777.87 Z" fill="#000000" fill-rule="nonzero" fill-opacity="1" /><path clip-path="url(#clip870)" d="M156.973 1790.77 L164.612 1790.77 L164.612 1764.4 L156.302 1766.07 L156.302 1761.81 L164.566 1760.14 L169.242 1760.14 L169.242 1790.77 L176.881 1790.77 L176.881 1794.7 L156.973 1794.7 L156.973 1790.77 Z" fill="#000000" fill-rule="nonzero" fill-opacity="1" /><path clip-path="url(#clip870)" d="M186.325 1788.82 L191.209 1788.82 L191.209 1794.7 L186.325 1794.7 L186.325 1788.82 Z" fill="#000000" fill-rule="nonzero" fill-opacity="1" /><path clip-path="url(#clip870)" d="M211.394 1763.22 Q207.783 1763.22 205.955 1766.79 Q204.149 1770.33 204.149 1777.46 Q204.149 1784.56 205.955 1788.13 Q207.783 1791.67 211.394 1791.67 Q215.029 1791.67 216.834 1788.13 Q218.663 1784.56 218.663 1777.46 Q218.663 1770.33 216.834 1766.79 Q215.029 1763.22 211.394 1763.22 M211.394 1759.52 Q217.204 1759.52 220.26 1764.12 Q223.339 1768.71 223.339 1777.46 Q223.339 1786.18 220.26 1790.79 Q217.204 1795.37 211.394 1795.37 Q205.584 1795.37 202.505 1790.79 Q199.45 1786.18 199.45 1777.46 Q199.45 1768.71 202.505 1764.12 Q205.584 1759.52 211.394 1759.52 Z" fill="#000000" fill-rule="nonzero" fill-opacity="1" /><path clip-path="url(#clip870)" d="M117.39 1671.69 L147.066 1671.69 L147.066 1675.63 L117.39 1675.63 L117.39 1671.69 Z" fill="#000000" fill-rule="nonzero" fill-opacity="1" /><path clip-path="url(#clip870)" d="M167.158 1657.04 Q163.547 1657.04 161.719 1660.6 Q159.913 1664.15 159.913 1671.27 Q159.913 1678.38 161.719 1681.95 Q163.547 1685.49 167.158 1685.49 Q170.793 1685.49 172.598 1681.95 Q174.427 1678.38 174.427 1671.27 Q174.427 1664.15 172.598 1660.6 Q170.793 1657.04 167.158 1657.04 M167.158 1653.34 Q172.969 1653.34 176.024 1657.94 Q179.103 1662.52 179.103 1671.27 Q179.103 1680 176.024 1684.61 Q172.969 1689.19 167.158 1689.19 Q161.348 1689.19 158.27 1684.61 Q155.214 1680 155.214 1671.27 Q155.214 1662.52 158.27 1657.94 Q161.348 1653.34 167.158 1653.34 Z" fill="#000000" fill-rule="nonzero" fill-opacity="1" /><path clip-path="url(#clip870)" d="M187.32 1682.64 L192.205 1682.64 L192.205 1688.52 L187.32 1688.52 L187.32 1682.64 Z" fill="#000000" fill-rule="nonzero" fill-opacity="1" /><path clip-path="url(#clip870)" d="M202.436 1653.96 L220.792 1653.96 L220.792 1657.9 L206.718 1657.9 L206.718 1666.37 Q207.737 1666.02 208.755 1665.86 Q209.774 1665.67 210.792 1665.67 Q216.579 1665.67 219.959 1668.84 Q223.339 1672.02 223.339 1677.43 Q223.339 1683.01 219.867 1686.11 Q216.394 1689.19 210.075 1689.19 Q207.899 1689.19 205.63 1688.82 Q203.385 1688.45 200.978 1687.71 L200.978 1683.01 Q203.061 1684.15 205.283 1684.7 Q207.505 1685.26 209.982 1685.26 Q213.987 1685.26 216.325 1683.15 Q218.663 1681.04 218.663 1677.43 Q218.663 1673.82 216.325 1671.71 Q213.987 1669.61 209.982 1669.61 Q208.107 1669.61 206.232 1670.02 Q204.38 1670.44 202.436 1671.32 L202.436 1653.96 Z" fill="#000000" fill-rule="nonzero" fill-opacity="1" /><path clip-path="url(#clip870)" d="M166.163 1550.86 Q162.552 1550.86 160.723 1554.42 Q158.918 1557.96 158.918 1565.09 Q158.918 1572.2 160.723 1575.76 Q162.552 1579.3 166.163 1579.3 Q169.797 1579.3 171.603 1575.76 Q173.432 1572.2 173.432 1565.09 Q173.432 1557.96 171.603 1554.42 Q169.797 1550.86 166.163 1550.86 M166.163 1547.15 Q171.973 1547.15 175.029 1551.76 Q178.107 1556.34 178.107 1565.09 Q178.107 1573.82 175.029 1578.42 Q171.973 1583.01 166.163 1583.01 Q160.353 1583.01 157.274 1578.42 Q154.219 1573.82 154.219 1565.09 Q154.219 1556.34 157.274 1551.76 Q160.353 1547.15 166.163 1547.15 Z" fill="#000000" fill-rule="nonzero" fill-opacity="1" /><path clip-path="url(#clip870)" d="M186.325 1576.46 L191.209 1576.46 L191.209 1582.34 L186.325 1582.34 L186.325 1576.46 Z" fill="#000000" fill-rule="nonzero" fill-opacity="1" /><path clip-path="url(#clip870)" d="M211.394 1550.86 Q207.783 1550.86 205.955 1554.42 Q204.149 1557.96 204.149 1565.09 Q204.149 1572.2 205.955 1575.76 Q207.783 1579.3 211.394 1579.3 Q215.029 1579.3 216.834 1575.76 Q218.663 1572.2 218.663 1565.09 Q218.663 1557.96 216.834 1554.42 Q215.029 1550.86 211.394 1550.86 M211.394 1547.15 Q217.204 1547.15 220.26 1551.76 Q223.339 1556.34 223.339 1565.09 Q223.339 1573.82 220.26 1578.42 Q217.204 1583.01 211.394 1583.01 Q205.584 1583.01 202.505 1578.42 Q199.45 1573.82 199.45 1565.09 Q199.45 1556.34 202.505 1551.76 Q205.584 1547.15 211.394 1547.15 Z" fill="#000000" fill-rule="nonzero" fill-opacity="1" /><path clip-path="url(#clip870)" d="M167.158 1444.67 Q163.547 1444.67 161.719 1448.24 Q159.913 1451.78 159.913 1458.91 Q159.913 1466.01 161.719 1469.58 Q163.547 1473.12 167.158 1473.12 Q170.793 1473.12 172.598 1469.58 Q174.427 1466.01 174.427 1458.91 Q174.427 1451.78 172.598 1448.24 Q170.793 1444.67 167.158 1444.67 M167.158 1440.97 Q172.969 1440.97 176.024 1445.58 Q179.103 1450.16 179.103 1458.91 Q179.103 1467.64 176.024 1472.24 Q172.969 1476.82 167.158 1476.82 Q161.348 1476.82 158.27 1472.24 Q155.214 1467.64 155.214 1458.91 Q155.214 1450.16 158.27 1445.58 Q161.348 1440.97 167.158 1440.97 Z" fill="#000000" fill-rule="nonzero" fill-opacity="1" /><path clip-path="url(#clip870)" d="M187.32 1470.27 L192.205 1470.27 L192.205 1476.15 L187.32 1476.15 L187.32 1470.27 Z" fill="#000000" fill-rule="nonzero" fill-opacity="1" /><path clip-path="url(#clip870)" d="M202.436 1441.59 L220.792 1441.59 L220.792 1445.53 L206.718 1445.53 L206.718 1454 Q207.737 1453.65 208.755 1453.49 Q209.774 1453.31 210.792 1453.31 Q216.579 1453.31 219.959 1456.48 Q223.339 1459.65 223.339 1465.07 Q223.339 1470.64 219.867 1473.75 Q216.394 1476.82 210.075 1476.82 Q207.899 1476.82 205.63 1476.45 Q203.385 1476.08 200.978 1475.34 L200.978 1470.64 Q203.061 1471.78 205.283 1472.33 Q207.505 1472.89 209.982 1472.89 Q213.987 1472.89 216.325 1470.78 Q218.663 1468.68 218.663 1465.07 Q218.663 1461.45 216.325 1459.35 Q213.987 1457.24 209.982 1457.24 Q208.107 1457.24 206.232 1457.66 Q204.38 1458.08 202.436 1458.95 L202.436 1441.59 Z" fill="#000000" fill-rule="nonzero" fill-opacity="1" /><path clip-path="url(#clip870)" d="M156.973 1366.04 L164.612 1366.04 L164.612 1339.67 L156.302 1341.34 L156.302 1337.08 L164.566 1335.41 L169.242 1335.41 L169.242 1366.04 L176.881 1366.04 L176.881 1369.97 L156.973 1369.97 L156.973 1366.04 Z" fill="#000000" fill-rule="nonzero" fill-opacity="1" /><path clip-path="url(#clip870)" d="M186.325 1364.09 L191.209 1364.09 L191.209 1369.97 L186.325 1369.97 L186.325 1364.09 Z" fill="#000000" fill-rule="nonzero" fill-opacity="1" /><path clip-path="url(#clip870)" d="M211.394 1338.49 Q207.783 1338.49 205.955 1342.05 Q204.149 1345.6 204.149 1352.73 Q204.149 1359.83 205.955 1363.4 Q207.783 1366.94 211.394 1366.94 Q215.029 1366.94 216.834 1363.4 Q218.663 1359.83 218.663 1352.73 Q218.663 1345.6 216.834 1342.05 Q215.029 1338.49 211.394 1338.49 M211.394 1334.79 Q217.204 1334.79 220.26 1339.39 Q223.339 1343.98 223.339 1352.73 Q223.339 1361.45 220.26 1366.06 Q217.204 1370.64 211.394 1370.64 Q205.584 1370.64 202.505 1366.06 Q199.45 1361.45 199.45 1352.73 Q199.45 1343.98 202.505 1339.39 Q205.584 1334.79 211.394 1334.79 Z" fill="#000000" fill-rule="nonzero" fill-opacity="1" /><path clip-path="url(#clip870)" d="M1240.66 1238.47 L1240.66 1242.95 Q1238.63 1241.83 1236.57 1241.28 Q1234.54 1240.71 1232.45 1240.71 Q1227.79 1240.71 1225.21 1243.68 Q1222.64 1246.62 1222.64 1251.96 Q1222.64 1257.3 1225.21 1260.27 Q1227.79 1263.21 1232.45 1263.21 Q1234.54 1263.21 1236.57 1262.66 Q1238.63 1262.09 1240.66 1260.97 L1240.66 1265.4 Q1238.65 1266.34 1236.49 1266.8 Q1234.35 1267.27 1231.93 1267.27 Q1225.34 1267.27 1221.46 1263.13 Q1217.58 1258.99 1217.58 1251.96 Q1217.58 1244.83 1221.49 1240.74 Q1225.42 1236.65 1232.25 1236.65 Q1234.46 1236.65 1236.57 1237.12 Q1238.68 1237.56 1240.66 1238.47 Z" fill="#000000" fill-rule="nonzero" fill-opacity="1" /><path clip-path="url(#clip870)" d="M1260.29 1240.71 Q1256.44 1240.71 1254.2 1243.73 Q1251.96 1246.73 1251.96 1251.96 Q1251.96 1257.19 1254.17 1260.22 Q1256.41 1263.21 1260.29 1263.21 Q1264.12 1263.21 1266.36 1260.19 Q1268.6 1257.17 1268.6 1251.96 Q1268.6 1246.78 1266.36 1243.76 Q1264.12 1240.71 1260.29 1240.71 M1260.29 1236.65 Q1266.54 1236.65 1270.11 1240.71 Q1273.68 1244.77 1273.68 1251.96 Q1273.68 1259.12 1270.11 1263.21 Q1266.54 1267.27 1260.29 1267.27 Q1254.02 1267.27 1250.45 1263.21 Q1246.91 1259.12 1246.91 1251.96 Q1246.91 1244.77 1250.45 1240.71 Q1254.02 1236.65 1260.29 1236.65 Z" fill="#000000" fill-rule="nonzero" fill-opacity="1" /><path clip-path="url(#clip870)" d="M1305.87 1248.91 L1305.87 1266.52 L1301.07 1266.52 L1301.07 1249.07 Q1301.07 1244.93 1299.46 1242.87 Q1297.84 1240.81 1294.62 1240.81 Q1290.73 1240.81 1288.5 1243.29 Q1286.26 1245.76 1286.26 1250.03 L1286.26 1266.52 L1281.44 1266.52 L1281.44 1237.35 L1286.26 1237.35 L1286.26 1241.88 Q1287.97 1239.25 1290.29 1237.95 Q1292.64 1236.65 1295.68 1236.65 Q1300.71 1236.65 1303.29 1239.77 Q1305.87 1242.87 1305.87 1248.91 Z" fill="#000000" fill-rule="nonzero" fill-opacity="1" /><path clip-path="url(#clip870)" d="M1320.16 1229.07 L1320.16 1237.35 L1330.03 1237.35 L1330.03 1241.08 L1320.16 1241.08 L1320.16 1256.91 Q1320.16 1260.48 1321.13 1261.49 Q1322.11 1262.51 1325.11 1262.51 L1330.03 1262.51 L1330.03 1266.52 L1325.11 1266.52 Q1319.56 1266.52 1317.45 1264.46 Q1315.34 1262.38 1315.34 1256.91 L1315.34 1241.08 L1311.83 1241.08 L1311.83 1237.35 L1315.34 1237.35 L1315.34 1229.07 L1320.16 1229.07 Z" fill="#000000" fill-rule="nonzero" fill-opacity="1" /><path clip-path="url(#clip870)" d="M1353.23 1241.83 Q1352.43 1241.36 1351.46 1241.15 Q1350.53 1240.92 1349.38 1240.92 Q1345.32 1240.92 1343.13 1243.58 Q1340.97 1246.21 1340.97 1251.15 L1340.97 1266.52 L1336.15 1266.52 L1336.15 1237.35 L1340.97 1237.35 L1340.97 1241.88 Q1342.48 1239.23 1344.9 1237.95 Q1347.32 1236.65 1350.79 1236.65 Q1351.28 1236.65 1351.88 1236.73 Q1352.48 1236.78 1353.21 1236.91 L1353.23 1241.83 Z" fill="#000000" fill-rule="nonzero" fill-opacity="1" /><path clip-path="url(#clip870)" d="M1368.39 1240.71 Q1364.54 1240.71 1362.3 1243.73 Q1360.06 1246.73 1360.06 1251.96 Q1360.06 1257.19 1362.27 1260.22 Q1364.51 1263.21 1368.39 1263.21 Q1372.22 1263.21 1374.46 1260.19 Q1376.7 1257.17 1376.7 1251.96 Q1376.7 1246.78 1374.46 1243.76 Q1372.22 1240.71 1368.39 1240.71 M1368.39 1236.65 Q1374.64 1236.65 1378.21 1240.71 Q1381.78 1244.77 1381.78 1251.96 Q1381.78 1259.12 1378.21 1263.21 Q1374.64 1267.27 1368.39 1267.27 Q1362.11 1267.27 1358.55 1263.21 Q1355.01 1259.12 1355.01 1251.96 Q1355.01 1244.77 1358.55 1240.71 Q1362.11 1236.65 1368.39 1236.65 Z" fill="#000000" fill-rule="nonzero" fill-opacity="1" /><path clip-path="url(#clip870)" d="M1389.72 1226 L1394.51 1226 L1394.51 1266.52 L1389.72 1266.52 L1389.72 1226 Z" fill="#000000" fill-rule="nonzero" fill-opacity="1" /><polyline clip-path="url(#clip871)" style="stroke:#009af9; stroke-linecap:round; stroke-linejoin:round; stroke-width:4; stroke-opacity:1; fill:none" points="318.586,1437.64 328.781,1437.64 388.487,1437.64 416.263,1437.64 453.493,1437.64 484.256,1437.64 512.863,1437.64 548.774,1437.64 580.987,1437.64 617.858,1437.64 645.42,1437.64 680.672,1437.64 712.846,1437.64 749.464,1437.64 778.493,1437.64 814.557,1437.64 842.176,1437.64 881.115,1437.64 910.213,1437.64 943.305,1437.64 976.077,1437.64 1012.13,1437.64 1039.67,1437.64 1074.42,1437.64 1106.57,1437.64 1139.72,1437.64 1173.32,1437.64 1208.4,1437.64 1236.04,1437.64 1298.99,1437.64 1306.05,1437.64 "/>
<polyline clip-path="url(#clip871)" style="stroke:#009af9; stroke-linecap:round; stroke-linejoin:round; stroke-width:4; stroke-opacity:1; fill:none" points="1306.05,1395.16 1316.24,1395.16 1375.95,1395.16 1403.72,1395.16 1440.95,1395.16 1471.72,1395.16 1500.32,1395.16 1536.23,1395.16 1568.45,1395.16 1605.32,1395.16 1632.88,1395.16 1668.13,1395.16 1700.31,1395.16 1736.93,1395.16 1765.95,1395.16 1802.02,1395.16 1829.64,1395.16 1868.58,1395.16 1897.67,1395.16 1930.77,1395.16 1963.54,1395.16 1999.59,1395.16 2027.13,1395.16 2061.89,1395.16 2094.03,1395.16 2127.18,1395.16 2160.78,1395.16 2195.87,1395.16 2223.5,1395.16 2286.45,1395.16 2293.51,1395.16 "/>
</svg>
