<?xml version="1.0" encoding="utf-8"?>
<svg xmlns="http://www.w3.org/2000/svg" xmlns:xlink="http://www.w3.org/1999/xlink" width="600" height="400" viewBox="0 0 2400 1600">
<defs>
  <clipPath id="clip160">
    <rect x="0" y="0" width="2400" height="1600"/>
  </clipPath>
</defs>
<path clip-path="url(#clip160)" d="M0 1600 L2400 1600 L2400 0 L0 0  Z" fill="#ffffff" fill-rule="evenodd" fill-opacity="1"/>
<defs>
  <clipPath id="clip161">
    <rect x="480" y="0" width="1681" height="1600"/>
  </clipPath>
</defs>
<path clip-path="url(#clip160)" d="M309.866 1423.18 L2352.76 1423.18 L2352.76 47.2441 L309.866 47.2441  Z" fill="#ffffff" fill-rule="evenodd" fill-opacity="1"/>
<defs>
  <clipPath id="clip162">
    <rect x="309" y="47" width="2044" height="1377"/>
  </clipPath>
</defs>
<polyline clip-path="url(#clip162)" style="stroke:#000000; stroke-linecap:round; stroke-linejoin:round; stroke-width:2; stroke-opacity:0.1; fill:none" points="367.683,1423.18 367.683,47.2441 "/>
<polyline clip-path="url(#clip162)" style="stroke:#000000; stroke-linecap:round; stroke-linejoin:round; stroke-width:2; stroke-opacity:0.1; fill:none" points="801.316,1423.18 801.316,47.2441 "/>
<polyline clip-path="url(#clip162)" style="stroke:#000000; stroke-linecap:round; stroke-linejoin:round; stroke-width:2; stroke-opacity:0.1; fill:none" points="1234.95,1423.18 1234.95,47.2441 "/>
<polyline clip-path="url(#clip162)" style="stroke:#000000; stroke-linecap:round; stroke-linejoin:round; stroke-width:2; stroke-opacity:0.1; fill:none" points="1668.58,1423.18 1668.58,47.2441 "/>
<polyline clip-path="url(#clip162)" style="stroke:#000000; stroke-linecap:round; stroke-linejoin:round; stroke-width:2; stroke-opacity:0.1; fill:none" points="2102.21,1423.18 2102.21,47.2441 "/>
<polyline clip-path="url(#clip162)" style="stroke:#000000; stroke-linecap:round; stroke-linejoin:round; stroke-width:2; stroke-opacity:0.1; fill:none" points="309.866,1264.25 2352.76,1264.25 "/>
<polyline clip-path="url(#clip162)" style="stroke:#000000; stroke-linecap:round; stroke-linejoin:round; stroke-width:2; stroke-opacity:0.1; fill:none" points="309.866,1028.64 2352.76,1028.64 "/>
<polyline clip-path="url(#clip162)" style="stroke:#000000; stroke-linecap:round; stroke-linejoin:round; stroke-width:2; stroke-opacity:0.1; fill:none" points="309.866,793.023 2352.76,793.023 "/>
<polyline clip-path="url(#clip162)" style="stroke:#000000; stroke-linecap:round; stroke-linejoin:round; stroke-width:2; stroke-opacity:0.1; fill:none" points="309.866,557.41 2352.76,557.41 "/>
<polyline clip-path="url(#clip162)" style="stroke:#000000; stroke-linecap:round; stroke-linejoin:round; stroke-width:2; stroke-opacity:0.1; fill:none" points="309.866,321.796 2352.76,321.796 "/>
<polyline clip-path="url(#clip162)" style="stroke:#000000; stroke-linecap:round; stroke-linejoin:round; stroke-width:2; stroke-opacity:0.1; fill:none" points="309.866,86.183 2352.76,86.183 "/>
<polyline clip-path="url(#clip160)" style="stroke:#000000; stroke-linecap:round; stroke-linejoin:round; stroke-width:4; stroke-opacity:1; fill:none" points="309.866,1423.18 2352.76,1423.18 "/>
<polyline clip-path="url(#clip160)" style="stroke:#000000; stroke-linecap:round; stroke-linejoin:round; stroke-width:4; stroke-opacity:1; fill:none" points="367.683,1423.18 367.683,1404.28 "/>
<polyline clip-path="url(#clip160)" style="stroke:#000000; stroke-linecap:round; stroke-linejoin:round; stroke-width:4; stroke-opacity:1; fill:none" points="801.316,1423.18 801.316,1404.28 "/>
<polyline clip-path="url(#clip160)" style="stroke:#000000; stroke-linecap:round; stroke-linejoin:round; stroke-width:4; stroke-opacity:1; fill:none" points="1234.95,1423.18 1234.95,1404.28 "/>
<polyline clip-path="url(#clip160)" style="stroke:#000000; stroke-linecap:round; stroke-linejoin:round; stroke-width:4; stroke-opacity:1; fill:none" points="1668.58,1423.18 1668.58,1404.28 "/>
<polyline clip-path="url(#clip160)" style="stroke:#000000; stroke-linecap:round; stroke-linejoin:round; stroke-width:4; stroke-opacity:1; fill:none" points="2102.21,1423.18 2102.21,1404.28 "/>
<path clip-path="url(#clip160)" d="M367.683 1454.1 Q364.072 1454.1 362.244 1457.66 Q360.438 1461.2 360.438 1468.33 Q360.438 1475.44 362.244 1479.01 Q364.072 1482.55 367.683 1482.55 Q371.318 1482.55 373.123 1479.01 Q374.952 1475.44 374.952 1468.33 Q374.952 1461.2 373.123 1457.66 Q371.318 1454.1 367.683 1454.1 M367.683 1450.39 Q373.494 1450.39 376.549 1455 Q379.628 1459.58 379.628 1468.33 Q379.628 1477.06 376.549 1481.67 Q373.494 1486.25 367.683 1486.25 Q361.873 1486.25 358.795 1481.67 Q355.739 1477.06 355.739 1468.33 Q355.739 1459.58 358.795 1455 Q361.873 1450.39 367.683 1450.39 Z" fill="#000000" fill-rule="nonzero" fill-opacity="1" /><path clip-path="url(#clip160)" d="M791.594 1451.02 L809.95 1451.02 L809.95 1454.96 L795.876 1454.96 L795.876 1463.43 Q796.894 1463.08 797.913 1462.92 Q798.932 1462.73 799.95 1462.73 Q805.737 1462.73 809.117 1465.9 Q812.496 1469.08 812.496 1474.49 Q812.496 1480.07 809.024 1483.17 Q805.552 1486.25 799.232 1486.25 Q797.057 1486.25 794.788 1485.88 Q792.543 1485.51 790.135 1484.77 L790.135 1480.07 Q792.219 1481.2 794.441 1481.76 Q796.663 1482.32 799.14 1482.32 Q803.144 1482.32 805.482 1480.21 Q807.82 1478.1 807.82 1474.49 Q807.82 1470.88 805.482 1468.77 Q803.144 1466.67 799.14 1466.67 Q797.265 1466.67 795.39 1467.08 Q793.538 1467.5 791.594 1468.38 L791.594 1451.02 Z" fill="#000000" fill-rule="nonzero" fill-opacity="1" /><path clip-path="url(#clip160)" d="M1209.64 1481.64 L1217.27 1481.64 L1217.27 1455.28 L1208.96 1456.95 L1208.96 1452.69 L1217.23 1451.02 L1221.9 1451.02 L1221.9 1481.64 L1229.54 1481.64 L1229.54 1485.58 L1209.64 1485.58 L1209.64 1481.64 Z" fill="#000000" fill-rule="nonzero" fill-opacity="1" /><path clip-path="url(#clip160)" d="M1248.99 1454.1 Q1245.38 1454.1 1243.55 1457.66 Q1241.74 1461.2 1241.74 1468.33 Q1241.74 1475.44 1243.55 1479.01 Q1245.38 1482.55 1248.99 1482.55 Q1252.62 1482.55 1254.43 1479.01 Q1256.26 1475.44 1256.26 1468.33 Q1256.26 1461.2 1254.43 1457.66 Q1252.62 1454.1 1248.99 1454.1 M1248.99 1450.39 Q1254.8 1450.39 1257.85 1455 Q1260.93 1459.58 1260.93 1468.33 Q1260.93 1477.06 1257.85 1481.67 Q1254.8 1486.25 1248.99 1486.25 Q1243.18 1486.25 1240.1 1481.67 Q1237.04 1477.06 1237.04 1468.33 Q1237.04 1459.58 1240.1 1455 Q1243.18 1450.39 1248.99 1450.39 Z" fill="#000000" fill-rule="nonzero" fill-opacity="1" /><path clip-path="url(#clip160)" d="M1643.77 1481.64 L1651.4 1481.64 L1651.4 1455.28 L1643.09 1456.95 L1643.09 1452.69 L1651.36 1451.02 L1656.03 1451.02 L1656.03 1481.64 L1663.67 1481.64 L1663.67 1485.58 L1643.77 1485.58 L1643.77 1481.64 Z" fill="#000000" fill-rule="nonzero" fill-opacity="1" /><path clip-path="url(#clip160)" d="M1673.16 1451.02 L1691.52 1451.02 L1691.52 1454.96 L1677.45 1454.96 L1677.45 1463.43 Q1678.46 1463.08 1679.48 1462.92 Q1680.5 1462.73 1681.52 1462.73 Q1687.31 1462.73 1690.69 1465.9 Q1694.07 1469.08 1694.07 1474.49 Q1694.07 1480.07 1690.59 1483.17 Q1687.12 1486.25 1680.8 1486.25 Q1678.63 1486.25 1676.36 1485.88 Q1674.11 1485.51 1671.71 1484.77 L1671.71 1480.07 Q1673.79 1481.2 1676.01 1481.76 Q1678.23 1482.32 1680.71 1482.32 Q1684.71 1482.32 1687.05 1480.21 Q1689.39 1478.1 1689.39 1474.49 Q1689.39 1470.88 1687.05 1468.77 Q1684.71 1466.67 1680.71 1466.67 Q1678.84 1466.67 1676.96 1467.08 Q1675.11 1467.5 1673.16 1468.38 L1673.16 1451.02 Z" fill="#000000" fill-rule="nonzero" fill-opacity="1" /><path clip-path="url(#clip160)" d="M2080.99 1481.64 L2097.31 1481.64 L2097.31 1485.58 L2075.36 1485.58 L2075.36 1481.64 Q2078.02 1478.89 2082.61 1474.26 Q2087.21 1469.61 2088.39 1468.27 Q2090.64 1465.74 2091.52 1464.01 Q2092.42 1462.25 2092.42 1460.56 Q2092.42 1457.8 2090.48 1456.07 Q2088.56 1454.33 2085.45 1454.33 Q2083.25 1454.33 2080.8 1455.09 Q2078.37 1455.86 2075.59 1457.41 L2075.59 1452.69 Q2078.42 1451.55 2080.87 1450.97 Q2083.32 1450.39 2085.36 1450.39 Q2090.73 1450.39 2093.93 1453.08 Q2097.12 1455.77 2097.12 1460.26 Q2097.12 1462.39 2096.31 1464.31 Q2095.52 1466.2 2093.42 1468.8 Q2092.84 1469.47 2089.74 1472.69 Q2086.63 1475.88 2080.99 1481.64 Z" fill="#000000" fill-rule="nonzero" fill-opacity="1" /><path clip-path="url(#clip160)" d="M2117.12 1454.1 Q2113.51 1454.1 2111.68 1457.66 Q2109.87 1461.2 2109.87 1468.33 Q2109.87 1475.44 2111.68 1479.01 Q2113.51 1482.55 2117.12 1482.55 Q2120.75 1482.55 2122.56 1479.01 Q2124.39 1475.44 2124.39 1468.33 Q2124.39 1461.2 2122.56 1457.66 Q2120.75 1454.1 2117.12 1454.1 M2117.12 1450.39 Q2122.93 1450.39 2125.99 1455 Q2129.06 1459.58 2129.06 1468.33 Q2129.06 1477.06 2125.99 1481.67 Q2122.93 1486.25 2117.12 1486.25 Q2111.31 1486.25 2108.23 1481.67 Q2105.18 1477.06 2105.18 1468.33 Q2105.18 1459.58 2108.23 1455 Q2111.31 1450.39 2117.12 1450.39 Z" fill="#000000" fill-rule="nonzero" fill-opacity="1" /><path clip-path="url(#clip160)" d="M922.887 1520.52 L931.544 1520.52 L952.615 1560.28 L952.615 1520.52 L958.853 1520.52 L958.853 1568.04 L950.196 1568.04 L929.125 1528.29 L929.125 1568.04 L922.887 1568.04 L922.887 1520.52 Z" fill="#000000" fill-rule="nonzero" fill-opacity="1" /><path clip-path="url(#clip160)" d="M970.789 1553.98 L970.789 1532.4 L976.645 1532.4 L976.645 1553.75 Q976.645 1558.81 978.619 1561.36 Q980.592 1563.87 984.539 1563.87 Q989.281 1563.87 992.019 1560.85 Q994.788 1557.83 994.788 1552.61 L994.788 1532.4 L1000.64 1532.4 L1000.64 1568.04 L994.788 1568.04 L994.788 1562.57 Q992.655 1565.82 989.823 1567.41 Q987.022 1568.97 983.298 1568.97 Q977.155 1568.97 973.972 1565.15 Q970.789 1561.33 970.789 1553.98 M985.526 1531.54 L985.526 1531.54 Z" fill="#000000" fill-rule="nonzero" fill-opacity="1" /><path clip-path="url(#clip160)" d="M1040.46 1539.24 Q1042.66 1535.29 1045.71 1533.41 Q1048.77 1531.54 1052.91 1531.54 Q1058.48 1531.54 1061.5 1535.45 Q1064.52 1539.33 1064.52 1546.53 L1064.52 1568.04 L1058.64 1568.04 L1058.64 1546.72 Q1058.64 1541.59 1056.82 1539.11 Q1055.01 1536.63 1051.28 1536.63 Q1046.73 1536.63 1044.09 1539.65 Q1041.45 1542.68 1041.45 1547.9 L1041.45 1568.04 L1035.56 1568.04 L1035.56 1546.72 Q1035.56 1541.56 1033.75 1539.11 Q1031.93 1536.63 1028.14 1536.63 Q1023.66 1536.63 1021.01 1539.68 Q1018.37 1542.71 1018.37 1547.9 L1018.37 1568.04 L1012.48 1568.04 L1012.48 1532.4 L1018.37 1532.4 L1018.37 1537.93 Q1020.38 1534.66 1023.18 1533.1 Q1025.98 1531.54 1029.83 1531.54 Q1033.71 1531.54 1036.42 1533.51 Q1039.16 1535.48 1040.46 1539.24 Z" fill="#000000" fill-rule="nonzero" fill-opacity="1" /><path clip-path="url(#clip160)" d="M1101.8 1550.25 Q1101.8 1543.79 1099.12 1540.13 Q1096.48 1536.44 1091.83 1536.44 Q1087.19 1536.44 1084.51 1540.13 Q1081.87 1543.79 1081.87 1550.25 Q1081.87 1556.71 1084.51 1560.4 Q1087.19 1564.07 1091.83 1564.07 Q1096.48 1564.07 1099.12 1560.4 Q1101.8 1556.71 1101.8 1550.25 M1081.87 1537.81 Q1083.72 1534.62 1086.52 1533.1 Q1089.35 1531.54 1093.27 1531.54 Q1099.76 1531.54 1103.8 1536.69 Q1107.87 1541.85 1107.87 1550.25 Q1107.87 1558.65 1103.8 1563.81 Q1099.76 1568.97 1093.27 1568.97 Q1089.35 1568.97 1086.52 1567.44 Q1083.72 1565.88 1081.87 1562.7 L1081.87 1568.04 L1075.98 1568.04 L1075.98 1518.52 L1081.87 1518.52 L1081.87 1537.81 Z" fill="#000000" fill-rule="nonzero" fill-opacity="1" /><path clip-path="url(#clip160)" d="M1148.07 1548.76 L1148.07 1551.62 L1121.15 1551.62 Q1121.53 1557.67 1124.78 1560.85 Q1128.05 1564 1133.88 1564 Q1137.25 1564 1140.4 1563.17 Q1143.59 1562.35 1146.71 1560.69 L1146.71 1566.23 Q1143.55 1567.57 1140.24 1568.27 Q1136.93 1568.97 1133.53 1568.97 Q1125 1568.97 1120 1564 Q1115.04 1559.04 1115.04 1550.57 Q1115.04 1541.82 1119.75 1536.69 Q1124.49 1531.54 1132.51 1531.54 Q1139.7 1531.54 1143.87 1536.18 Q1148.07 1540.8 1148.07 1548.76 M1142.22 1547.04 Q1142.15 1542.23 1139.51 1539.37 Q1136.9 1536.5 1132.57 1536.5 Q1127.67 1536.5 1124.71 1539.27 Q1121.78 1542.04 1121.34 1547.07 L1142.22 1547.04 Z" fill="#000000" fill-rule="nonzero" fill-opacity="1" /><path clip-path="url(#clip160)" d="M1178.34 1537.87 Q1177.36 1537.3 1176.18 1537.04 Q1175.03 1536.76 1173.63 1536.76 Q1168.67 1536.76 1165.99 1540 Q1163.35 1543.22 1163.35 1549.27 L1163.35 1568.04 L1157.46 1568.04 L1157.46 1532.4 L1163.35 1532.4 L1163.35 1537.93 Q1165.2 1534.69 1168.16 1533.13 Q1171.12 1531.54 1175.35 1531.54 Q1175.96 1531.54 1176.69 1531.63 Q1177.42 1531.7 1178.31 1531.85 L1178.34 1537.87 Z" fill="#000000" fill-rule="nonzero" fill-opacity="1" /><path clip-path="url(#clip160)" d="M1219.02 1536.5 Q1214.31 1536.5 1211.57 1540.19 Q1208.83 1543.85 1208.83 1550.25 Q1208.83 1556.65 1211.54 1560.34 Q1214.28 1564 1219.02 1564 Q1223.7 1564 1226.44 1560.31 Q1229.17 1556.62 1229.17 1550.25 Q1229.17 1543.92 1226.44 1540.23 Q1223.7 1536.5 1219.02 1536.5 M1219.02 1531.54 Q1226.66 1531.54 1231.02 1536.5 Q1235.38 1541.47 1235.38 1550.25 Q1235.38 1559 1231.02 1564 Q1226.66 1568.97 1219.02 1568.97 Q1211.35 1568.97 1206.99 1564 Q1202.66 1559 1202.66 1550.25 Q1202.66 1541.47 1206.99 1536.5 Q1211.35 1531.54 1219.02 1531.54 Z" fill="#000000" fill-rule="nonzero" fill-opacity="1" /><path clip-path="url(#clip160)" d="M1263.13 1518.52 L1263.13 1523.39 L1257.53 1523.39 Q1254.38 1523.39 1253.14 1524.66 Q1251.93 1525.93 1251.93 1529.24 L1251.93 1532.4 L1261.57 1532.4 L1261.57 1536.95 L1251.93 1536.95 L1251.93 1568.04 L1246.04 1568.04 L1246.04 1536.95 L1240.44 1536.95 L1240.44 1532.4 L1246.04 1532.4 L1246.04 1529.91 Q1246.04 1523.96 1248.81 1521.26 Q1251.58 1518.52 1257.6 1518.52 L1263.13 1518.52 Z" fill="#000000" fill-rule="nonzero" fill-opacity="1" /><path clip-path="url(#clip160)" d="M1288.15 1553.98 L1288.15 1532.4 L1294.01 1532.4 L1294.01 1553.75 Q1294.01 1558.81 1295.98 1561.36 Q1297.95 1563.87 1301.9 1563.87 Q1306.64 1563.87 1309.38 1560.85 Q1312.15 1557.83 1312.15 1552.61 L1312.15 1532.4 L1318.01 1532.4 L1318.01 1568.04 L1312.15 1568.04 L1312.15 1562.57 Q1310.02 1565.82 1307.18 1567.41 Q1304.38 1568.97 1300.66 1568.97 Q1294.52 1568.97 1291.33 1565.15 Q1288.15 1561.33 1288.15 1553.98 M1302.89 1531.54 L1302.89 1531.54 Z" fill="#000000" fill-rule="nonzero" fill-opacity="1" /><path clip-path="url(#clip160)" d="M1359.7 1546.53 L1359.7 1568.04 L1353.85 1568.04 L1353.85 1546.72 Q1353.85 1541.66 1351.87 1539.14 Q1349.9 1536.63 1345.95 1536.63 Q1341.21 1536.63 1338.47 1539.65 Q1335.74 1542.68 1335.74 1547.9 L1335.74 1568.04 L1329.85 1568.04 L1329.85 1532.4 L1335.74 1532.4 L1335.74 1537.93 Q1337.84 1534.72 1340.67 1533.13 Q1343.53 1531.54 1347.26 1531.54 Q1353.4 1531.54 1356.55 1535.36 Q1359.7 1539.14 1359.7 1546.53 Z" fill="#000000" fill-rule="nonzero" fill-opacity="1" /><path clip-path="url(#clip160)" d="M1370.78 1553.98 L1370.78 1532.4 L1376.63 1532.4 L1376.63 1553.75 Q1376.63 1558.81 1378.61 1561.36 Q1380.58 1563.87 1384.53 1563.87 Q1389.27 1563.87 1392.01 1560.85 Q1394.78 1557.83 1394.78 1552.61 L1394.78 1532.4 L1400.63 1532.4 L1400.63 1568.04 L1394.78 1568.04 L1394.78 1562.57 Q1392.64 1565.82 1389.81 1567.41 Q1387.01 1568.97 1383.29 1568.97 Q1377.14 1568.97 1373.96 1565.15 Q1370.78 1561.33 1370.78 1553.98 M1385.51 1531.54 L1385.51 1531.54 Z" fill="#000000" fill-rule="nonzero" fill-opacity="1" /><path clip-path="url(#clip160)" d="M1435.42 1533.45 L1435.42 1538.98 Q1432.94 1537.71 1430.27 1537.07 Q1427.59 1536.44 1424.73 1536.44 Q1420.37 1536.44 1418.17 1537.77 Q1416.01 1539.11 1416.01 1541.79 Q1416.01 1543.82 1417.57 1545 Q1419.13 1546.15 1423.84 1547.2 L1425.84 1547.64 Q1432.08 1548.98 1434.69 1551.43 Q1437.33 1553.85 1437.33 1558.21 Q1437.33 1563.17 1433.38 1566.07 Q1429.47 1568.97 1422.6 1568.97 Q1419.73 1568.97 1416.61 1568.39 Q1413.52 1567.85 1410.09 1566.74 L1410.09 1560.69 Q1413.33 1562.38 1416.48 1563.24 Q1419.64 1564.07 1422.72 1564.07 Q1426.86 1564.07 1429.09 1562.66 Q1431.32 1561.23 1431.32 1558.65 Q1431.32 1556.27 1429.69 1554.99 Q1428.1 1553.72 1422.66 1552.54 L1420.62 1552.07 Q1415.18 1550.92 1412.76 1548.56 Q1410.34 1546.18 1410.34 1542.04 Q1410.34 1537.01 1413.91 1534.27 Q1417.47 1531.54 1424.03 1531.54 Q1427.27 1531.54 1430.14 1532.01 Q1433 1532.49 1435.42 1533.45 Z" fill="#000000" fill-rule="nonzero" fill-opacity="1" /><path clip-path="url(#clip160)" d="M1477.15 1548.76 L1477.15 1551.62 L1450.22 1551.62 Q1450.6 1557.67 1453.85 1560.85 Q1457.13 1564 1462.95 1564 Q1466.33 1564 1469.48 1563.17 Q1472.66 1562.35 1475.78 1560.69 L1475.78 1566.23 Q1472.63 1567.57 1469.32 1568.27 Q1466.01 1568.97 1462.6 1568.97 Q1454.07 1568.97 1449.08 1564 Q1444.11 1559.04 1444.11 1550.57 Q1444.11 1541.82 1448.82 1536.69 Q1453.56 1531.54 1461.59 1531.54 Q1468.78 1531.54 1472.95 1536.18 Q1477.15 1540.8 1477.15 1548.76 M1471.29 1547.04 Q1471.23 1542.23 1468.59 1539.37 Q1465.98 1536.5 1461.65 1536.5 Q1456.75 1536.5 1453.79 1539.27 Q1450.86 1542.04 1450.41 1547.07 L1471.29 1547.04 Z" fill="#000000" fill-rule="nonzero" fill-opacity="1" /><path clip-path="url(#clip160)" d="M1510.22 1537.81 L1510.22 1518.52 L1516.08 1518.52 L1516.08 1568.04 L1510.22 1568.04 L1510.22 1562.7 Q1508.37 1565.88 1505.54 1567.44 Q1502.74 1568.97 1498.79 1568.97 Q1492.33 1568.97 1488.26 1563.81 Q1484.22 1558.65 1484.22 1550.25 Q1484.22 1541.85 1488.26 1536.69 Q1492.33 1531.54 1498.79 1531.54 Q1502.74 1531.54 1505.54 1533.1 Q1508.37 1534.62 1510.22 1537.81 M1490.26 1550.25 Q1490.26 1556.71 1492.9 1560.4 Q1495.58 1564.07 1500.22 1564.07 Q1504.87 1564.07 1507.55 1560.4 Q1510.22 1556.71 1510.22 1550.25 Q1510.22 1543.79 1507.55 1540.13 Q1504.87 1536.44 1500.22 1536.44 Q1495.58 1536.44 1492.9 1540.13 Q1490.26 1543.79 1490.26 1550.25 Z" fill="#000000" fill-rule="nonzero" fill-opacity="1" /><path clip-path="url(#clip160)" d="M1554.52 1562.7 L1554.52 1581.6 L1548.64 1581.6 L1548.64 1532.4 L1554.52 1532.4 L1554.52 1537.81 Q1556.37 1534.62 1559.17 1533.1 Q1562 1531.54 1565.92 1531.54 Q1572.41 1531.54 1576.45 1536.69 Q1580.53 1541.85 1580.53 1550.25 Q1580.53 1558.65 1576.45 1563.81 Q1572.41 1568.97 1565.92 1568.97 Q1562 1568.97 1559.17 1567.44 Q1556.37 1565.88 1554.52 1562.7 M1574.45 1550.25 Q1574.45 1543.79 1571.78 1540.13 Q1569.13 1536.44 1564.49 1536.44 Q1559.84 1536.44 1557.17 1540.13 Q1554.52 1543.79 1554.52 1550.25 Q1554.52 1556.71 1557.17 1560.4 Q1559.84 1564.07 1564.49 1564.07 Q1569.13 1564.07 1571.78 1560.4 Q1574.45 1556.71 1574.45 1550.25 Z" fill="#000000" fill-rule="nonzero" fill-opacity="1" /><path clip-path="url(#clip160)" d="M1604.05 1536.5 Q1599.34 1536.5 1596.6 1540.19 Q1593.86 1543.85 1593.86 1550.25 Q1593.86 1556.65 1596.57 1560.34 Q1599.31 1564 1604.05 1564 Q1608.73 1564 1611.47 1560.31 Q1614.2 1556.62 1614.2 1550.25 Q1614.2 1543.92 1611.47 1540.23 Q1608.73 1536.5 1604.05 1536.5 M1604.05 1531.54 Q1611.69 1531.54 1616.05 1536.5 Q1620.41 1541.47 1620.41 1550.25 Q1620.41 1559 1616.05 1564 Q1611.69 1568.97 1604.05 1568.97 Q1596.38 1568.97 1592.02 1564 Q1587.69 1559 1587.69 1550.25 Q1587.69 1541.47 1592.02 1536.5 Q1596.38 1531.54 1604.05 1531.54 Z" fill="#000000" fill-rule="nonzero" fill-opacity="1" /><path clip-path="url(#clip160)" d="M1630.12 1532.4 L1635.97 1532.4 L1635.97 1568.04 L1630.12 1568.04 L1630.12 1532.4 M1630.12 1518.52 L1635.97 1518.52 L1635.97 1525.93 L1630.12 1525.93 L1630.12 1518.52 Z" fill="#000000" fill-rule="nonzero" fill-opacity="1" /><path clip-path="url(#clip160)" d="M1677.86 1546.53 L1677.86 1568.04 L1672 1568.04 L1672 1546.72 Q1672 1541.66 1670.03 1539.14 Q1668.06 1536.63 1664.11 1536.63 Q1659.37 1536.63 1656.63 1539.65 Q1653.89 1542.68 1653.89 1547.9 L1653.89 1568.04 L1648 1568.04 L1648 1532.4 L1653.89 1532.4 L1653.89 1537.93 Q1655.99 1534.72 1658.83 1533.13 Q1661.69 1531.54 1665.41 1531.54 Q1671.56 1531.54 1674.71 1535.36 Q1677.86 1539.14 1677.86 1546.53 Z" fill="#000000" fill-rule="nonzero" fill-opacity="1" /><path clip-path="url(#clip160)" d="M1695.33 1522.27 L1695.33 1532.4 L1707.4 1532.4 L1707.4 1536.95 L1695.33 1536.95 L1695.33 1556.3 Q1695.33 1560.66 1696.51 1561.9 Q1697.72 1563.14 1701.38 1563.14 L1707.4 1563.14 L1707.4 1568.04 L1701.38 1568.04 Q1694.6 1568.04 1692.02 1565.53 Q1689.45 1562.98 1689.45 1556.3 L1689.45 1536.95 L1685.15 1536.95 L1685.15 1532.4 L1689.45 1532.4 L1689.45 1522.27 L1695.33 1522.27 Z" fill="#000000" fill-rule="nonzero" fill-opacity="1" /><path clip-path="url(#clip160)" d="M1737.82 1533.45 L1737.82 1538.98 Q1735.34 1537.71 1732.67 1537.07 Q1730 1536.44 1727.13 1536.44 Q1722.77 1536.44 1720.57 1537.77 Q1718.41 1539.11 1718.41 1541.79 Q1718.41 1543.82 1719.97 1545 Q1721.53 1546.15 1726.24 1547.2 L1728.24 1547.64 Q1734.48 1548.98 1737.09 1551.43 Q1739.73 1553.85 1739.73 1558.21 Q1739.73 1563.17 1735.79 1566.07 Q1731.87 1568.97 1725 1568.97 Q1722.13 1568.97 1719.01 1568.39 Q1715.93 1567.85 1712.49 1566.74 L1712.49 1560.69 Q1715.74 1562.38 1718.89 1563.24 Q1722.04 1564.07 1725.13 1564.07 Q1729.26 1564.07 1731.49 1562.66 Q1733.72 1561.23 1733.72 1558.65 Q1733.72 1556.27 1732.1 1554.99 Q1730.5 1553.72 1725.06 1552.54 L1723.02 1552.07 Q1717.58 1550.92 1715.16 1548.56 Q1712.74 1546.18 1712.74 1542.04 Q1712.74 1537.01 1716.31 1534.27 Q1719.87 1531.54 1726.43 1531.54 Q1729.68 1531.54 1732.54 1532.01 Q1735.41 1532.49 1737.82 1533.45 Z" fill="#000000" fill-rule="nonzero" fill-opacity="1" /><polyline clip-path="url(#clip160)" style="stroke:#000000; stroke-linecap:round; stroke-linejoin:round; stroke-width:4; stroke-opacity:1; fill:none" points="309.866,1423.18 309.866,47.2441 "/>
<polyline clip-path="url(#clip160)" style="stroke:#000000; stroke-linecap:round; stroke-linejoin:round; stroke-width:4; stroke-opacity:1; fill:none" points="309.866,1264.25 328.763,1264.25 "/>
<polyline clip-path="url(#clip160)" style="stroke:#000000; stroke-linecap:round; stroke-linejoin:round; stroke-width:4; stroke-opacity:1; fill:none" points="309.866,1028.64 328.763,1028.64 "/>
<polyline clip-path="url(#clip160)" style="stroke:#000000; stroke-linecap:round; stroke-linejoin:round; stroke-width:4; stroke-opacity:1; fill:none" points="309.866,793.023 328.763,793.023 "/>
<polyline clip-path="url(#clip160)" style="stroke:#000000; stroke-linecap:round; stroke-linejoin:round; stroke-width:4; stroke-opacity:1; fill:none" points="309.866,557.41 328.763,557.41 "/>
<polyline clip-path="url(#clip160)" style="stroke:#000000; stroke-linecap:round; stroke-linejoin:round; stroke-width:4; stroke-opacity:1; fill:none" points="309.866,321.796 328.763,321.796 "/>
<polyline clip-path="url(#clip160)" style="stroke:#000000; stroke-linecap:round; stroke-linejoin:round; stroke-width:4; stroke-opacity:1; fill:none" points="309.866,86.183 328.763,86.183 "/>
<path clip-path="url(#clip160)" d="M127.2 1250.05 Q123.589 1250.05 121.76 1253.61 Q119.955 1257.16 119.955 1264.29 Q119.955 1271.39 121.76 1274.96 Q123.589 1278.5 127.2 1278.5 Q130.834 1278.5 132.64 1274.96 Q134.468 1271.39 134.468 1264.29 Q134.468 1257.16 132.64 1253.61 Q130.834 1250.05 127.2 1250.05 M127.2 1246.35 Q133.01 1246.35 136.066 1250.95 Q139.144 1255.54 139.144 1264.29 Q139.144 1273.01 136.066 1277.62 Q133.01 1282.2 127.2 1282.2 Q121.39 1282.2 118.311 1277.62 Q115.256 1273.01 115.256 1264.29 Q115.256 1255.54 118.311 1250.95 Q121.39 1246.35 127.2 1246.35 Z" fill="#000000" fill-rule="nonzero" fill-opacity="1" /><path clip-path="url(#clip160)" d="M147.362 1275.65 L152.246 1275.65 L152.246 1281.53 L147.362 1281.53 L147.362 1275.65 Z" fill="#000000" fill-rule="nonzero" fill-opacity="1" /><path clip-path="url(#clip160)" d="M162.57 1280.81 L162.57 1276.55 Q164.329 1277.39 166.135 1277.83 Q167.94 1278.27 169.677 1278.27 Q174.306 1278.27 176.737 1275.16 Q179.19 1272.04 179.538 1265.7 Q178.195 1267.69 176.135 1268.75 Q174.075 1269.82 171.575 1269.82 Q166.39 1269.82 163.357 1266.69 Q160.348 1263.54 160.348 1258.1 Q160.348 1252.78 163.496 1249.56 Q166.644 1246.35 171.876 1246.35 Q177.871 1246.35 181.019 1250.95 Q184.19 1255.54 184.19 1264.29 Q184.19 1272.46 180.301 1277.34 Q176.436 1282.2 169.885 1282.2 Q168.126 1282.2 166.32 1281.85 Q164.515 1281.51 162.57 1280.81 M171.876 1266.16 Q175.024 1266.16 176.852 1264.01 Q178.704 1261.85 178.704 1258.1 Q178.704 1254.38 176.852 1252.22 Q175.024 1250.05 171.876 1250.05 Q168.727 1250.05 166.876 1252.22 Q165.047 1254.38 165.047 1258.1 Q165.047 1261.85 166.876 1264.01 Q168.727 1266.16 171.876 1266.16 Z" fill="#000000" fill-rule="nonzero" fill-opacity="1" /><path clip-path="url(#clip160)" d="M192.732 1280.81 L192.732 1276.55 Q194.491 1277.39 196.297 1277.83 Q198.102 1278.27 199.838 1278.27 Q204.468 1278.27 206.899 1275.16 Q209.352 1272.04 209.699 1265.7 Q208.357 1267.69 206.297 1268.75 Q204.237 1269.82 201.737 1269.82 Q196.551 1269.82 193.519 1266.69 Q190.51 1263.54 190.51 1258.1 Q190.51 1252.78 193.658 1249.56 Q196.806 1246.35 202.037 1246.35 Q208.033 1246.35 211.181 1250.95 Q214.352 1255.54 214.352 1264.29 Q214.352 1272.46 210.463 1277.34 Q206.598 1282.2 200.047 1282.2 Q198.287 1282.2 196.482 1281.85 Q194.676 1281.51 192.732 1280.81 M202.037 1266.16 Q205.186 1266.16 207.014 1264.01 Q208.866 1261.85 208.866 1258.1 Q208.866 1254.38 207.014 1252.22 Q205.186 1250.05 202.037 1250.05 Q198.889 1250.05 197.037 1252.22 Q195.209 1254.38 195.209 1258.1 Q195.209 1261.85 197.037 1264.01 Q198.889 1266.16 202.037 1266.16 Z" fill="#000000" fill-rule="nonzero" fill-opacity="1" /><path clip-path="url(#clip160)" d="M221.574 1246.97 L243.797 1246.97 L243.797 1248.96 L231.25 1281.53 L226.366 1281.53 L238.172 1250.91 L221.574 1250.91 L221.574 1246.97 Z" fill="#000000" fill-rule="nonzero" fill-opacity="1" /><path clip-path="url(#clip160)" d="M252.963 1246.97 L271.32 1246.97 L271.32 1250.91 L257.246 1250.91 L257.246 1259.38 Q258.264 1259.03 259.283 1258.87 Q260.301 1258.68 261.32 1258.68 Q267.107 1258.68 270.486 1261.85 Q273.866 1265.03 273.866 1270.44 Q273.866 1276.02 270.394 1279.12 Q266.921 1282.2 260.602 1282.2 Q258.426 1282.2 256.158 1281.83 Q253.912 1281.46 251.505 1280.72 L251.505 1276.02 Q253.588 1277.16 255.81 1277.71 Q258.033 1278.27 260.509 1278.27 Q264.514 1278.27 266.852 1276.16 Q269.19 1274.05 269.19 1270.44 Q269.19 1266.83 266.852 1264.72 Q264.514 1262.62 260.509 1262.62 Q258.634 1262.62 256.759 1263.04 Q254.908 1263.45 252.963 1264.33 L252.963 1246.97 Z" fill="#000000" fill-rule="nonzero" fill-opacity="1" /><path clip-path="url(#clip160)" d="M126.205 1014.44 Q122.593 1014.44 120.765 1018 Q118.959 1021.54 118.959 1028.67 Q118.959 1035.78 120.765 1039.34 Q122.593 1042.88 126.205 1042.88 Q129.839 1042.88 131.644 1039.34 Q133.473 1035.78 133.473 1028.67 Q133.473 1021.54 131.644 1018 Q129.839 1014.44 126.205 1014.44 M126.205 1010.73 Q132.015 1010.73 135.07 1015.34 Q138.149 1019.92 138.149 1028.67 Q138.149 1037.4 135.07 1042 Q132.015 1046.59 126.205 1046.59 Q120.394 1046.59 117.316 1042 Q114.26 1037.4 114.26 1028.67 Q114.26 1019.92 117.316 1015.34 Q120.394 1010.73 126.205 1010.73 Z" fill="#000000" fill-rule="nonzero" fill-opacity="1" /><path clip-path="url(#clip160)" d="M146.366 1040.04 L151.251 1040.04 L151.251 1045.92 L146.366 1045.92 L146.366 1040.04 Z" fill="#000000" fill-rule="nonzero" fill-opacity="1" /><path clip-path="url(#clip160)" d="M161.575 1045.2 L161.575 1040.94 Q163.334 1041.77 165.14 1042.21 Q166.945 1042.65 168.681 1042.65 Q173.311 1042.65 175.741 1039.55 Q178.195 1036.43 178.542 1030.08 Q177.2 1032.07 175.139 1033.14 Q173.079 1034.2 170.579 1034.2 Q165.394 1034.2 162.362 1031.08 Q159.353 1027.93 159.353 1022.49 Q159.353 1017.17 162.501 1013.95 Q165.649 1010.73 170.88 1010.73 Q176.876 1010.73 180.024 1015.34 Q183.195 1019.92 183.195 1028.67 Q183.195 1036.84 179.306 1041.73 Q175.44 1046.59 168.889 1046.59 Q167.13 1046.59 165.325 1046.24 Q163.519 1045.89 161.575 1045.2 M170.88 1030.55 Q174.028 1030.55 175.857 1028.39 Q177.709 1026.24 177.709 1022.49 Q177.709 1018.76 175.857 1016.61 Q174.028 1014.44 170.88 1014.44 Q167.732 1014.44 165.88 1016.61 Q164.052 1018.76 164.052 1022.49 Q164.052 1026.24 165.88 1028.39 Q167.732 1030.55 170.88 1030.55 Z" fill="#000000" fill-rule="nonzero" fill-opacity="1" /><path clip-path="url(#clip160)" d="M191.737 1045.2 L191.737 1040.94 Q193.496 1041.77 195.301 1042.21 Q197.107 1042.65 198.843 1042.65 Q203.473 1042.65 205.903 1039.55 Q208.357 1036.43 208.704 1030.08 Q207.362 1032.07 205.301 1033.14 Q203.241 1034.2 200.741 1034.2 Q195.556 1034.2 192.524 1031.08 Q189.514 1027.93 189.514 1022.49 Q189.514 1017.17 192.663 1013.95 Q195.811 1010.73 201.042 1010.73 Q207.037 1010.73 210.186 1015.34 Q213.357 1019.92 213.357 1028.67 Q213.357 1036.84 209.468 1041.73 Q205.602 1046.59 199.051 1046.59 Q197.292 1046.59 195.487 1046.24 Q193.681 1045.89 191.737 1045.2 M201.042 1030.55 Q204.19 1030.55 206.019 1028.39 Q207.871 1026.24 207.871 1022.49 Q207.871 1018.76 206.019 1016.61 Q204.19 1014.44 201.042 1014.44 Q197.894 1014.44 196.042 1016.61 Q194.213 1018.76 194.213 1022.49 Q194.213 1026.24 196.042 1028.39 Q197.894 1030.55 201.042 1030.55 Z" fill="#000000" fill-rule="nonzero" fill-opacity="1" /><path clip-path="url(#clip160)" d="M231.76 1029.5 Q228.426 1029.5 226.505 1031.29 Q224.607 1033.07 224.607 1036.19 Q224.607 1039.32 226.505 1041.1 Q228.426 1042.88 231.76 1042.88 Q235.093 1042.88 237.014 1041.1 Q238.935 1039.3 238.935 1036.19 Q238.935 1033.07 237.014 1031.29 Q235.116 1029.5 231.76 1029.5 M227.084 1027.51 Q224.074 1026.77 222.385 1024.71 Q220.718 1022.65 220.718 1019.69 Q220.718 1015.55 223.658 1013.14 Q226.621 1010.73 231.76 1010.73 Q236.922 1010.73 239.861 1013.14 Q242.801 1015.55 242.801 1019.69 Q242.801 1022.65 241.111 1024.71 Q239.445 1026.77 236.459 1027.51 Q239.838 1028.3 241.713 1030.59 Q243.611 1032.88 243.611 1036.19 Q243.611 1041.22 240.533 1043.9 Q237.477 1046.59 231.76 1046.59 Q226.042 1046.59 222.963 1043.9 Q219.908 1041.22 219.908 1036.19 Q219.908 1032.88 221.806 1030.59 Q223.704 1028.3 227.084 1027.51 M225.371 1020.13 Q225.371 1022.82 227.037 1024.32 Q228.727 1025.82 231.76 1025.82 Q234.769 1025.82 236.459 1024.32 Q238.172 1022.82 238.172 1020.13 Q238.172 1017.44 236.459 1015.94 Q234.769 1014.44 231.76 1014.44 Q228.727 1014.44 227.037 1015.94 Q225.371 1017.44 225.371 1020.13 Z" fill="#000000" fill-rule="nonzero" fill-opacity="1" /><path clip-path="url(#clip160)" d="M261.921 1014.44 Q258.31 1014.44 256.482 1018 Q254.676 1021.54 254.676 1028.67 Q254.676 1035.78 256.482 1039.34 Q258.31 1042.88 261.921 1042.88 Q265.556 1042.88 267.361 1039.34 Q269.19 1035.78 269.19 1028.67 Q269.19 1021.54 267.361 1018 Q265.556 1014.44 261.921 1014.44 M261.921 1010.73 Q267.732 1010.73 270.787 1015.34 Q273.866 1019.92 273.866 1028.67 Q273.866 1037.4 270.787 1042 Q267.732 1046.59 261.921 1046.59 Q256.111 1046.59 253.033 1042 Q249.977 1037.4 249.977 1028.67 Q249.977 1019.92 253.033 1015.34 Q256.111 1010.73 261.921 1010.73 Z" fill="#000000" fill-rule="nonzero" fill-opacity="1" /><path clip-path="url(#clip160)" d="M127.2 778.822 Q123.589 778.822 121.76 782.387 Q119.955 785.929 119.955 793.058 Q119.955 800.165 121.76 803.729 Q123.589 807.271 127.2 807.271 Q130.834 807.271 132.64 803.729 Q134.468 800.165 134.468 793.058 Q134.468 785.929 132.64 782.387 Q130.834 778.822 127.2 778.822 M127.2 775.118 Q133.01 775.118 136.066 779.725 Q139.144 784.308 139.144 793.058 Q139.144 801.785 136.066 806.391 Q133.01 810.975 127.2 810.975 Q121.39 810.975 118.311 806.391 Q115.256 801.785 115.256 793.058 Q115.256 784.308 118.311 779.725 Q121.39 775.118 127.2 775.118 Z" fill="#000000" fill-rule="nonzero" fill-opacity="1" /><path clip-path="url(#clip160)" d="M147.362 804.424 L152.246 804.424 L152.246 810.303 L147.362 810.303 L147.362 804.424 Z" fill="#000000" fill-rule="nonzero" fill-opacity="1" /><path clip-path="url(#clip160)" d="M162.57 809.586 L162.57 805.327 Q164.329 806.16 166.135 806.6 Q167.94 807.04 169.677 807.04 Q174.306 807.04 176.737 803.938 Q179.19 800.813 179.538 794.47 Q178.195 796.461 176.135 797.526 Q174.075 798.591 171.575 798.591 Q166.39 798.591 163.357 795.466 Q160.348 792.317 160.348 786.878 Q160.348 781.554 163.496 778.336 Q166.644 775.118 171.876 775.118 Q177.871 775.118 181.019 779.725 Q184.19 784.308 184.19 793.058 Q184.19 801.229 180.301 806.114 Q176.436 810.975 169.885 810.975 Q168.126 810.975 166.32 810.627 Q164.515 810.28 162.57 809.586 M171.876 794.933 Q175.024 794.933 176.852 792.78 Q178.704 790.628 178.704 786.878 Q178.704 783.151 176.852 780.998 Q175.024 778.822 171.876 778.822 Q168.727 778.822 166.876 780.998 Q165.047 783.151 165.047 786.878 Q165.047 790.628 166.876 792.78 Q168.727 794.933 171.876 794.933 Z" fill="#000000" fill-rule="nonzero" fill-opacity="1" /><path clip-path="url(#clip160)" d="M192.732 809.586 L192.732 805.327 Q194.491 806.16 196.297 806.6 Q198.102 807.04 199.838 807.04 Q204.468 807.04 206.899 803.938 Q209.352 800.813 209.699 794.47 Q208.357 796.461 206.297 797.526 Q204.237 798.591 201.737 798.591 Q196.551 798.591 193.519 795.466 Q190.51 792.317 190.51 786.878 Q190.51 781.554 193.658 778.336 Q196.806 775.118 202.037 775.118 Q208.033 775.118 211.181 779.725 Q214.352 784.308 214.352 793.058 Q214.352 801.229 210.463 806.114 Q206.598 810.975 200.047 810.975 Q198.287 810.975 196.482 810.627 Q194.676 810.28 192.732 809.586 M202.037 794.933 Q205.186 794.933 207.014 792.78 Q208.866 790.628 208.866 786.878 Q208.866 783.151 207.014 780.998 Q205.186 778.822 202.037 778.822 Q198.889 778.822 197.037 780.998 Q195.209 783.151 195.209 786.878 Q195.209 790.628 197.037 792.78 Q198.889 794.933 202.037 794.933 Z" fill="#000000" fill-rule="nonzero" fill-opacity="1" /><path clip-path="url(#clip160)" d="M232.755 793.891 Q229.422 793.891 227.5 795.674 Q225.602 797.456 225.602 800.581 Q225.602 803.706 227.5 805.489 Q229.422 807.271 232.755 807.271 Q236.088 807.271 238.009 805.489 Q239.931 803.683 239.931 800.581 Q239.931 797.456 238.009 795.674 Q236.111 793.891 232.755 793.891 M228.079 791.901 Q225.07 791.16 223.38 789.1 Q221.713 787.04 221.713 784.077 Q221.713 779.933 224.653 777.526 Q227.616 775.118 232.755 775.118 Q237.917 775.118 240.857 777.526 Q243.797 779.933 243.797 784.077 Q243.797 787.04 242.107 789.1 Q240.44 791.16 237.454 791.901 Q240.834 792.688 242.709 794.979 Q244.607 797.271 244.607 800.581 Q244.607 805.604 241.528 808.29 Q238.472 810.975 232.755 810.975 Q227.037 810.975 223.959 808.29 Q220.903 805.604 220.903 800.581 Q220.903 797.271 222.801 794.979 Q224.699 792.688 228.079 791.901 M226.366 784.517 Q226.366 787.202 228.033 788.706 Q229.723 790.211 232.755 790.211 Q235.764 790.211 237.454 788.706 Q239.167 787.202 239.167 784.517 Q239.167 781.831 237.454 780.327 Q235.764 778.822 232.755 778.822 Q229.723 778.822 228.033 780.327 Q226.366 781.831 226.366 784.517 Z" fill="#000000" fill-rule="nonzero" fill-opacity="1" /><path clip-path="url(#clip160)" d="M252.963 775.743 L271.32 775.743 L271.32 779.679 L257.246 779.679 L257.246 788.151 Q258.264 787.804 259.283 787.642 Q260.301 787.456 261.32 787.456 Q267.107 787.456 270.486 790.628 Q273.866 793.799 273.866 799.216 Q273.866 804.794 270.394 807.896 Q266.921 810.975 260.602 810.975 Q258.426 810.975 256.158 810.604 Q253.912 810.234 251.505 809.493 L251.505 804.794 Q253.588 805.928 255.81 806.484 Q258.033 807.04 260.509 807.04 Q264.514 807.04 266.852 804.933 Q269.19 802.827 269.19 799.216 Q269.19 795.604 266.852 793.498 Q264.514 791.391 260.509 791.391 Q258.634 791.391 256.759 791.808 Q254.908 792.225 252.963 793.104 L252.963 775.743 Z" fill="#000000" fill-rule="nonzero" fill-opacity="1" /><path clip-path="url(#clip160)" d="M126.205 543.209 Q122.593 543.209 120.765 546.773 Q118.959 550.315 118.959 557.445 Q118.959 564.551 120.765 568.116 Q122.593 571.658 126.205 571.658 Q129.839 571.658 131.644 568.116 Q133.473 564.551 133.473 557.445 Q133.473 550.315 131.644 546.773 Q129.839 543.209 126.205 543.209 M126.205 539.505 Q132.015 539.505 135.07 544.111 Q138.149 548.695 138.149 557.445 Q138.149 566.171 135.07 570.778 Q132.015 575.361 126.205 575.361 Q120.394 575.361 117.316 570.778 Q114.26 566.171 114.26 557.445 Q114.26 548.695 117.316 544.111 Q120.394 539.505 126.205 539.505 Z" fill="#000000" fill-rule="nonzero" fill-opacity="1" /><path clip-path="url(#clip160)" d="M146.366 568.81 L151.251 568.81 L151.251 574.69 L146.366 574.69 L146.366 568.81 Z" fill="#000000" fill-rule="nonzero" fill-opacity="1" /><path clip-path="url(#clip160)" d="M161.575 573.972 L161.575 569.713 Q163.334 570.546 165.14 570.986 Q166.945 571.426 168.681 571.426 Q173.311 571.426 175.741 568.324 Q178.195 565.199 178.542 558.857 Q177.2 560.847 175.139 561.912 Q173.079 562.977 170.579 562.977 Q165.394 562.977 162.362 559.852 Q159.353 556.704 159.353 551.264 Q159.353 545.94 162.501 542.723 Q165.649 539.505 170.88 539.505 Q176.876 539.505 180.024 544.111 Q183.195 548.695 183.195 557.445 Q183.195 565.616 179.306 570.5 Q175.44 575.361 168.889 575.361 Q167.13 575.361 165.325 575.014 Q163.519 574.667 161.575 573.972 M170.88 559.32 Q174.028 559.32 175.857 557.167 Q177.709 555.014 177.709 551.264 Q177.709 547.537 175.857 545.385 Q174.028 543.209 170.88 543.209 Q167.732 543.209 165.88 545.385 Q164.052 547.537 164.052 551.264 Q164.052 555.014 165.88 557.167 Q167.732 559.32 170.88 559.32 Z" fill="#000000" fill-rule="nonzero" fill-opacity="1" /><path clip-path="url(#clip160)" d="M191.737 573.972 L191.737 569.713 Q193.496 570.546 195.301 570.986 Q197.107 571.426 198.843 571.426 Q203.473 571.426 205.903 568.324 Q208.357 565.199 208.704 558.857 Q207.362 560.847 205.301 561.912 Q203.241 562.977 200.741 562.977 Q195.556 562.977 192.524 559.852 Q189.514 556.704 189.514 551.264 Q189.514 545.94 192.663 542.723 Q195.811 539.505 201.042 539.505 Q207.037 539.505 210.186 544.111 Q213.357 548.695 213.357 557.445 Q213.357 565.616 209.468 570.5 Q205.602 575.361 199.051 575.361 Q197.292 575.361 195.487 575.014 Q193.681 574.667 191.737 573.972 M201.042 559.32 Q204.19 559.32 206.019 557.167 Q207.871 555.014 207.871 551.264 Q207.871 547.537 206.019 545.385 Q204.19 543.209 201.042 543.209 Q197.894 543.209 196.042 545.385 Q194.213 547.537 194.213 551.264 Q194.213 555.014 196.042 557.167 Q197.894 559.32 201.042 559.32 Z" fill="#000000" fill-rule="nonzero" fill-opacity="1" /><path clip-path="url(#clip160)" d="M221.898 573.972 L221.898 569.713 Q223.658 570.546 225.463 570.986 Q227.269 571.426 229.005 571.426 Q233.635 571.426 236.065 568.324 Q238.519 565.199 238.866 558.857 Q237.523 560.847 235.463 561.912 Q233.403 562.977 230.903 562.977 Q225.718 562.977 222.686 559.852 Q219.676 556.704 219.676 551.264 Q219.676 545.94 222.824 542.723 Q225.973 539.505 231.204 539.505 Q237.199 539.505 240.347 544.111 Q243.519 548.695 243.519 557.445 Q243.519 565.616 239.63 570.5 Q235.764 575.361 229.213 575.361 Q227.454 575.361 225.648 575.014 Q223.843 574.667 221.898 573.972 M231.204 559.32 Q234.352 559.32 236.181 557.167 Q238.033 555.014 238.033 551.264 Q238.033 547.537 236.181 545.385 Q234.352 543.209 231.204 543.209 Q228.056 543.209 226.204 545.385 Q224.375 547.537 224.375 551.264 Q224.375 555.014 226.204 557.167 Q228.056 559.32 231.204 559.32 Z" fill="#000000" fill-rule="nonzero" fill-opacity="1" /><path clip-path="url(#clip160)" d="M261.921 543.209 Q258.31 543.209 256.482 546.773 Q254.676 550.315 254.676 557.445 Q254.676 564.551 256.482 568.116 Q258.31 571.658 261.921 571.658 Q265.556 571.658 267.361 568.116 Q269.19 564.551 269.19 557.445 Q269.19 550.315 267.361 546.773 Q265.556 543.209 261.921 543.209 M261.921 539.505 Q267.732 539.505 270.787 544.111 Q273.866 548.695 273.866 557.445 Q273.866 566.171 270.787 570.778 Q267.732 575.361 261.921 575.361 Q256.111 575.361 253.033 570.778 Q249.977 566.171 249.977 557.445 Q249.977 548.695 253.033 544.111 Q256.111 539.505 261.921 539.505 Z" fill="#000000" fill-rule="nonzero" fill-opacity="1" /><path clip-path="url(#clip160)" d="M127.2 307.595 Q123.589 307.595 121.76 311.16 Q119.955 314.702 119.955 321.831 Q119.955 328.938 121.76 332.502 Q123.589 336.044 127.2 336.044 Q130.834 336.044 132.64 332.502 Q134.468 328.938 134.468 321.831 Q134.468 314.702 132.64 311.16 Q130.834 307.595 127.2 307.595 M127.2 303.892 Q133.01 303.892 136.066 308.498 Q139.144 313.081 139.144 321.831 Q139.144 330.558 136.066 335.164 Q133.01 339.748 127.2 339.748 Q121.39 339.748 118.311 335.164 Q115.256 330.558 115.256 321.831 Q115.256 313.081 118.311 308.498 Q121.39 303.892 127.2 303.892 Z" fill="#000000" fill-rule="nonzero" fill-opacity="1" /><path clip-path="url(#clip160)" d="M147.362 333.197 L152.246 333.197 L152.246 339.076 L147.362 339.076 L147.362 333.197 Z" fill="#000000" fill-rule="nonzero" fill-opacity="1" /><path clip-path="url(#clip160)" d="M162.57 338.359 L162.57 334.1 Q164.329 334.933 166.135 335.373 Q167.94 335.813 169.677 335.813 Q174.306 335.813 176.737 332.711 Q179.19 329.586 179.538 323.243 Q178.195 325.234 176.135 326.299 Q174.075 327.364 171.575 327.364 Q166.39 327.364 163.357 324.239 Q160.348 321.09 160.348 315.651 Q160.348 310.327 163.496 307.109 Q166.644 303.892 171.876 303.892 Q177.871 303.892 181.019 308.498 Q184.19 313.081 184.19 321.831 Q184.19 330.002 180.301 334.887 Q176.436 339.748 169.885 339.748 Q168.126 339.748 166.32 339.401 Q164.515 339.053 162.57 338.359 M171.876 323.706 Q175.024 323.706 176.852 321.553 Q178.704 319.401 178.704 315.651 Q178.704 311.924 176.852 309.771 Q175.024 307.595 171.876 307.595 Q168.727 307.595 166.876 309.771 Q165.047 311.924 165.047 315.651 Q165.047 319.401 166.876 321.553 Q168.727 323.706 171.876 323.706 Z" fill="#000000" fill-rule="nonzero" fill-opacity="1" /><path clip-path="url(#clip160)" d="M192.732 338.359 L192.732 334.1 Q194.491 334.933 196.297 335.373 Q198.102 335.813 199.838 335.813 Q204.468 335.813 206.899 332.711 Q209.352 329.586 209.699 323.243 Q208.357 325.234 206.297 326.299 Q204.237 327.364 201.737 327.364 Q196.551 327.364 193.519 324.239 Q190.51 321.09 190.51 315.651 Q190.51 310.327 193.658 307.109 Q196.806 303.892 202.037 303.892 Q208.033 303.892 211.181 308.498 Q214.352 313.081 214.352 321.831 Q214.352 330.002 210.463 334.887 Q206.598 339.748 200.047 339.748 Q198.287 339.748 196.482 339.401 Q194.676 339.053 192.732 338.359 M202.037 323.706 Q205.186 323.706 207.014 321.553 Q208.866 319.401 208.866 315.651 Q208.866 311.924 207.014 309.771 Q205.186 307.595 202.037 307.595 Q198.889 307.595 197.037 309.771 Q195.209 311.924 195.209 315.651 Q195.209 319.401 197.037 321.553 Q198.889 323.706 202.037 323.706 Z" fill="#000000" fill-rule="nonzero" fill-opacity="1" /><path clip-path="url(#clip160)" d="M222.894 338.359 L222.894 334.1 Q224.653 334.933 226.459 335.373 Q228.264 335.813 230 335.813 Q234.63 335.813 237.06 332.711 Q239.514 329.586 239.861 323.243 Q238.519 325.234 236.459 326.299 Q234.398 327.364 231.898 327.364 Q226.713 327.364 223.681 324.239 Q220.672 321.09 220.672 315.651 Q220.672 310.327 223.82 307.109 Q226.968 303.892 232.199 303.892 Q238.195 303.892 241.343 308.498 Q244.514 313.081 244.514 321.831 Q244.514 330.002 240.625 334.887 Q236.76 339.748 230.209 339.748 Q228.449 339.748 226.644 339.401 Q224.838 339.053 222.894 338.359 M232.199 323.706 Q235.347 323.706 237.176 321.553 Q239.028 319.401 239.028 315.651 Q239.028 311.924 237.176 309.771 Q235.347 307.595 232.199 307.595 Q229.051 307.595 227.199 309.771 Q225.371 311.924 225.371 315.651 Q225.371 319.401 227.199 321.553 Q229.051 323.706 232.199 323.706 Z" fill="#000000" fill-rule="nonzero" fill-opacity="1" /><path clip-path="url(#clip160)" d="M252.963 304.516 L271.32 304.516 L271.32 308.452 L257.246 308.452 L257.246 316.924 Q258.264 316.577 259.283 316.415 Q260.301 316.229 261.32 316.229 Q267.107 316.229 270.486 319.401 Q273.866 322.572 273.866 327.989 Q273.866 333.567 270.394 336.669 Q266.921 339.748 260.602 339.748 Q258.426 339.748 256.158 339.377 Q253.912 339.007 251.505 338.266 L251.505 333.567 Q253.588 334.702 255.81 335.257 Q258.033 335.813 260.509 335.813 Q264.514 335.813 266.852 333.706 Q269.19 331.6 269.19 327.989 Q269.19 324.378 266.852 322.271 Q264.514 320.165 260.509 320.165 Q258.634 320.165 256.759 320.581 Q254.908 320.998 252.963 321.878 L252.963 304.516 Z" fill="#000000" fill-rule="nonzero" fill-opacity="1" /><path clip-path="url(#clip160)" d="M117.015 99.5279 L124.654 99.5279 L124.654 73.1623 L116.343 74.8289 L116.343 70.5697 L124.607 68.903 L129.283 68.903 L129.283 99.5279 L136.922 99.5279 L136.922 103.463 L117.015 103.463 L117.015 99.5279 Z" fill="#000000" fill-rule="nonzero" fill-opacity="1" /><path clip-path="url(#clip160)" d="M146.366 97.5834 L151.251 97.5834 L151.251 103.463 L146.366 103.463 L146.366 97.5834 Z" fill="#000000" fill-rule="nonzero" fill-opacity="1" /><path clip-path="url(#clip160)" d="M171.436 71.9817 Q167.825 71.9817 165.996 75.5465 Q164.19 79.0882 164.19 86.2178 Q164.19 93.3242 165.996 96.889 Q167.825 100.431 171.436 100.431 Q175.07 100.431 176.876 96.889 Q178.704 93.3242 178.704 86.2178 Q178.704 79.0882 176.876 75.5465 Q175.07 71.9817 171.436 71.9817 M171.436 68.278 Q177.246 68.278 180.301 72.8845 Q183.38 77.4678 183.38 86.2178 Q183.38 94.9446 180.301 99.551 Q177.246 104.134 171.436 104.134 Q165.626 104.134 162.547 99.551 Q159.491 94.9446 159.491 86.2178 Q159.491 77.4678 162.547 72.8845 Q165.626 68.278 171.436 68.278 Z" fill="#000000" fill-rule="nonzero" fill-opacity="1" /><path clip-path="url(#clip160)" d="M201.598 71.9817 Q197.987 71.9817 196.158 75.5465 Q194.352 79.0882 194.352 86.2178 Q194.352 93.3242 196.158 96.889 Q197.987 100.431 201.598 100.431 Q205.232 100.431 207.037 96.889 Q208.866 93.3242 208.866 86.2178 Q208.866 79.0882 207.037 75.5465 Q205.232 71.9817 201.598 71.9817 M201.598 68.278 Q207.408 68.278 210.463 72.8845 Q213.542 77.4678 213.542 86.2178 Q213.542 94.9446 210.463 99.551 Q207.408 104.134 201.598 104.134 Q195.787 104.134 192.709 99.551 Q189.653 94.9446 189.653 86.2178 Q189.653 77.4678 192.709 72.8845 Q195.787 68.278 201.598 68.278 Z" fill="#000000" fill-rule="nonzero" fill-opacity="1" /><path clip-path="url(#clip160)" d="M231.76 71.9817 Q228.148 71.9817 226.32 75.5465 Q224.514 79.0882 224.514 86.2178 Q224.514 93.3242 226.32 96.889 Q228.148 100.431 231.76 100.431 Q235.394 100.431 237.199 96.889 Q239.028 93.3242 239.028 86.2178 Q239.028 79.0882 237.199 75.5465 Q235.394 71.9817 231.76 71.9817 M231.76 68.278 Q237.57 68.278 240.625 72.8845 Q243.704 77.4678 243.704 86.2178 Q243.704 94.9446 240.625 99.551 Q237.57 104.134 231.76 104.134 Q225.949 104.134 222.871 99.551 Q219.815 94.9446 219.815 86.2178 Q219.815 77.4678 222.871 72.8845 Q225.949 68.278 231.76 68.278 Z" fill="#000000" fill-rule="nonzero" fill-opacity="1" /><path clip-path="url(#clip160)" d="M261.921 71.9817 Q258.31 71.9817 256.482 75.5465 Q254.676 79.0882 254.676 86.2178 Q254.676 93.3242 256.482 96.889 Q258.31 100.431 261.921 100.431 Q265.556 100.431 267.361 96.889 Q269.19 93.3242 269.19 86.2178 Q269.19 79.0882 267.361 75.5465 Q265.556 71.9817 261.921 71.9817 M261.921 68.278 Q267.732 68.278 270.787 72.8845 Q273.866 77.4678 273.866 86.2178 Q273.866 94.9446 270.787 99.551 Q267.732 104.134 261.921 104.134 Q256.111 104.134 253.033 99.551 Q249.977 94.9446 249.977 86.2178 Q249.977 77.4678 253.033 72.8845 Q256.111 68.278 261.921 68.278 Z" fill="#000000" fill-rule="nonzero" fill-opacity="1" /><path clip-path="url(#clip160)" d="M41.7242 743.137 Q42.4244 741.068 44.7161 739.127 Q47.0077 737.154 51.0181 735.18 L64.0042 728.655 L64.0042 735.562 L51.8138 741.641 Q47.0395 743.997 45.48 746.225 Q43.9204 748.421 43.9204 752.24 L43.9204 759.243 L64.0042 759.243 L64.0042 765.672 L16.4842 765.672 L16.4842 751.158 Q16.4842 743.01 19.8898 739 Q23.2955 734.989 30.1704 734.989 Q34.6582 734.989 37.6183 737.09 Q40.5784 739.159 41.7242 743.137 M21.7677 759.243 L38.6368 759.243 L38.6368 751.158 Q38.6368 746.511 36.5043 744.156 Q34.34 741.769 30.1704 741.769 Q26.0009 741.769 23.9002 744.156 Q21.7677 746.511 21.7677 751.158 L21.7677 759.243 Z" fill="#000000" fill-rule="nonzero" fill-opacity="1" /><path clip-path="url(#clip160)" d="M39.1142 718.247 L39.1142 704.752 L42.7427 704.752 L42.7427 723.786 L39.2416 723.786 Q38.2549 722.703 36.4725 720.698 Q26.7648 709.749 23.7729 709.749 Q21.6722 709.749 20.3991 711.404 Q19.0941 713.059 19.0941 715.765 Q19.0941 717.42 19.667 719.361 Q20.2081 721.303 21.3221 723.595 L17.4072 723.595 Q16.516 721.144 16.0704 719.043 Q15.6248 716.911 15.6248 715.096 Q15.6248 710.481 17.7255 707.712 Q19.8262 704.943 23.2636 704.943 Q27.6878 704.943 36.7271 715.478 Q38.2549 717.261 39.1142 718.247 Z" fill="#000000" fill-rule="nonzero" fill-opacity="1" /><polyline clip-path="url(#clip162)" style="stroke:#009af9; stroke-linecap:round; stroke-linejoin:round; stroke-width:4; stroke-opacity:1; fill:none" points="367.683,1384.24 411.485,1156.65 455.286,962.78 499.087,799.077 542.888,662.046 586.69,548.327 630.491,454.746 674.292,378.368 718.093,316.517 761.895,266.805 805.696,227.131 849.497,195.674 893.298,170.885 937.1,151.461 980.901,136.317 1024.7,124.564 1068.5,115.481 1112.3,108.49 1156.11,103.127 1199.91,99.0233 1243.71,95.891 1287.51,93.5083 1331.31,91.701 1375.11,90.3322 1418.91,89.2961 1462.71,88.5125 1506.52,87.9221 1550.32,87.4793 1594.12,87.1477 1637.92,86.8993 1681.72,86.7128 1725.52,86.5725 1769.32,86.4679 1813.12,86.3907 1856.93,86.3342 1900.73,86.2929 1944.53,86.2626 1988.33,86.24 2032.13,86.2229 2075.93,86.2102 2119.73,86.2009 2163.53,86.1945 2207.34,86.1902 2251.14,86.1874 2294.94,86.1857 "/>
<circle clip-path="url(#clip162)" cx="1375.11" cy="90.3322" r="14.4" fill="#000000" fill-rule="evenodd" fill-opacity="1" stroke="none"/>
<path clip-path="url(#clip160)" d="M1677.9 1377.32 L2284.66 1377.32 L2284.66 1273.64 L1677.9 1273.64  Z" fill="#ffffff" fill-rule="evenodd" fill-opacity="1"/>
<polyline clip-path="url(#clip160)" style="stroke:#000000; stroke-linecap:round; stroke-linejoin:round; stroke-width:4; stroke-opacity:1; fill:none" points="1677.9,1377.32 2284.66,1377.32 2284.66,1273.64 1677.9,1273.64 1677.9,1377.32 "/>
<circle clip-path="url(#clip160)" cx="1768.69" cy="1325.48" r="20.48" fill="#000000" fill-rule="evenodd" fill-opacity="1" stroke="none"/>
<path clip-path="url(#clip160)" d="M1881.73 1309.33 L1881.73 1313.89 Q1879.07 1312.62 1876.71 1311.99 Q1874.35 1311.37 1872.15 1311.37 Q1868.33 1311.37 1866.25 1312.85 Q1864.19 1314.33 1864.19 1317.06 Q1864.19 1319.35 1865.55 1320.53 Q1866.94 1321.69 1870.78 1322.41 L1873.61 1322.99 Q1878.84 1323.98 1881.31 1326.51 Q1883.81 1329.01 1883.81 1333.22 Q1883.81 1338.24 1880.44 1340.83 Q1877.08 1343.43 1870.57 1343.43 Q1868.12 1343.43 1865.34 1342.87 Q1862.59 1342.32 1859.62 1341.23 L1859.62 1336.41 Q1862.47 1338.01 1865.2 1338.82 Q1867.94 1339.63 1870.57 1339.63 Q1874.58 1339.63 1876.75 1338.06 Q1878.93 1336.48 1878.93 1333.57 Q1878.93 1331.02 1877.36 1329.58 Q1875.81 1328.15 1872.24 1327.43 L1869.39 1326.88 Q1864.16 1325.83 1861.82 1323.61 Q1859.49 1321.39 1859.49 1317.43 Q1859.49 1312.85 1862.7 1310.21 Q1865.94 1307.57 1871.62 1307.57 Q1874.05 1307.57 1876.57 1308.01 Q1879.09 1308.45 1881.73 1309.33 Z" fill="#000000" fill-rule="nonzero" fill-opacity="1" /><path clip-path="url(#clip160)" d="M1913.1 1328.73 L1913.1 1330.81 L1893.51 1330.81 Q1893.79 1335.21 1896.15 1337.52 Q1898.54 1339.82 1902.77 1339.82 Q1905.23 1339.82 1907.52 1339.21 Q1909.83 1338.61 1912.1 1337.41 L1912.1 1341.44 Q1909.81 1342.41 1907.4 1342.92 Q1905 1343.43 1902.52 1343.43 Q1896.31 1343.43 1892.68 1339.82 Q1889.07 1336.2 1889.07 1330.05 Q1889.07 1323.68 1892.5 1319.95 Q1895.94 1316.2 1901.78 1316.2 Q1907.01 1316.2 1910.04 1319.58 Q1913.1 1322.94 1913.1 1328.73 M1908.84 1327.48 Q1908.79 1323.98 1906.87 1321.9 Q1904.97 1319.82 1901.82 1319.82 Q1898.26 1319.82 1896.11 1321.83 Q1893.98 1323.84 1893.65 1327.5 L1908.84 1327.48 Z" fill="#000000" fill-rule="nonzero" fill-opacity="1" /><path clip-path="url(#clip160)" d="M1920.09 1306.74 L1924.35 1306.74 L1924.35 1342.76 L1920.09 1342.76 L1920.09 1306.74 Z" fill="#000000" fill-rule="nonzero" fill-opacity="1" /><path clip-path="url(#clip160)" d="M1955.43 1328.73 L1955.43 1330.81 L1935.85 1330.81 Q1936.13 1335.21 1938.49 1337.52 Q1940.87 1339.82 1945.11 1339.82 Q1947.56 1339.82 1949.86 1339.21 Q1952.17 1338.61 1954.44 1337.41 L1954.44 1341.44 Q1952.15 1342.41 1949.74 1342.92 Q1947.33 1343.43 1944.86 1343.43 Q1938.65 1343.43 1935.02 1339.82 Q1931.41 1336.2 1931.41 1330.05 Q1931.41 1323.68 1934.83 1319.95 Q1938.28 1316.2 1944.12 1316.2 Q1949.35 1316.2 1952.38 1319.58 Q1955.43 1322.94 1955.43 1328.73 M1951.18 1327.48 Q1951.13 1323.98 1949.21 1321.9 Q1947.31 1319.82 1944.16 1319.82 Q1940.6 1319.82 1938.44 1321.83 Q1936.31 1323.84 1935.99 1327.5 L1951.18 1327.48 Z" fill="#000000" fill-rule="nonzero" fill-opacity="1" /><path clip-path="url(#clip160)" d="M1981.08 1317.82 L1981.08 1321.81 Q1979.28 1320.81 1977.45 1320.32 Q1975.64 1319.82 1973.79 1319.82 Q1969.65 1319.82 1967.36 1322.45 Q1965.06 1325.07 1965.06 1329.82 Q1965.06 1334.56 1967.36 1337.2 Q1969.65 1339.82 1973.79 1339.82 Q1975.64 1339.82 1977.45 1339.33 Q1979.28 1338.82 1981.08 1337.82 L1981.08 1341.76 Q1979.3 1342.59 1977.38 1343.01 Q1975.48 1343.43 1973.33 1343.43 Q1967.47 1343.43 1964.02 1339.75 Q1960.57 1336.07 1960.57 1329.82 Q1960.57 1323.47 1964.05 1319.84 Q1967.54 1316.2 1973.61 1316.2 Q1975.57 1316.2 1977.45 1316.62 Q1979.32 1317.01 1981.08 1317.82 Z" fill="#000000" fill-rule="nonzero" fill-opacity="1" /><path clip-path="url(#clip160)" d="M1992.7 1309.47 L1992.7 1316.83 L2001.48 1316.83 L2001.48 1320.14 L1992.7 1320.14 L1992.7 1334.21 Q1992.7 1337.38 1993.56 1338.29 Q1994.44 1339.19 1997.1 1339.19 L2001.48 1339.19 L2001.48 1342.76 L1997.1 1342.76 Q1992.17 1342.76 1990.3 1340.93 Q1988.42 1339.07 1988.42 1334.21 L1988.42 1320.14 L1985.3 1320.14 L1985.3 1316.83 L1988.42 1316.83 L1988.42 1309.47 L1992.7 1309.47 Z" fill="#000000" fill-rule="nonzero" fill-opacity="1" /><path clip-path="url(#clip160)" d="M2029.25 1328.73 L2029.25 1330.81 L2009.67 1330.81 Q2009.95 1335.21 2012.31 1337.52 Q2014.69 1339.82 2018.93 1339.82 Q2021.38 1339.82 2023.68 1339.21 Q2025.99 1338.61 2028.26 1337.41 L2028.26 1341.44 Q2025.97 1342.41 2023.56 1342.92 Q2021.15 1343.43 2018.68 1343.43 Q2012.47 1343.43 2008.84 1339.82 Q2005.23 1336.2 2005.23 1330.05 Q2005.23 1323.68 2008.65 1319.95 Q2012.1 1316.2 2017.93 1316.2 Q2023.17 1316.2 2026.2 1319.58 Q2029.25 1322.94 2029.25 1328.73 M2024.99 1327.48 Q2024.95 1323.98 2023.03 1321.9 Q2021.13 1319.82 2017.98 1319.82 Q2014.42 1319.82 2012.26 1321.83 Q2010.13 1323.84 2009.81 1327.5 L2024.99 1327.48 Z" fill="#000000" fill-rule="nonzero" fill-opacity="1" /><path clip-path="url(#clip160)" d="M2053.3 1320.76 L2053.3 1306.74 L2057.56 1306.74 L2057.56 1342.76 L2053.3 1342.76 L2053.3 1338.87 Q2051.96 1341.18 2049.9 1342.32 Q2047.86 1343.43 2044.99 1343.43 Q2040.3 1343.43 2037.33 1339.68 Q2034.39 1335.93 2034.39 1329.82 Q2034.39 1323.7 2037.33 1319.95 Q2040.3 1316.2 2044.99 1316.2 Q2047.86 1316.2 2049.9 1317.34 Q2051.96 1318.45 2053.3 1320.76 M2038.79 1329.82 Q2038.79 1334.51 2040.71 1337.2 Q2042.66 1339.86 2046.04 1339.86 Q2049.42 1339.86 2051.36 1337.2 Q2053.3 1334.51 2053.3 1329.82 Q2053.3 1325.12 2051.36 1322.45 Q2049.42 1319.77 2046.04 1319.77 Q2042.66 1319.77 2040.71 1322.45 Q2038.79 1325.12 2038.79 1329.82 Z" fill="#000000" fill-rule="nonzero" fill-opacity="1" /><path clip-path="url(#clip160)" d="M2102.96 1327.11 L2102.96 1342.76 L2098.7 1342.76 L2098.7 1327.25 Q2098.7 1323.57 2097.26 1321.74 Q2095.83 1319.91 2092.96 1319.91 Q2089.51 1319.91 2087.52 1322.11 Q2085.53 1324.31 2085.53 1328.1 L2085.53 1342.76 L2081.24 1342.76 L2081.24 1316.83 L2085.53 1316.83 L2085.53 1320.86 Q2087.05 1318.52 2089.11 1317.36 Q2091.2 1316.2 2093.91 1316.2 Q2098.37 1316.2 2100.67 1318.98 Q2102.96 1321.74 2102.96 1327.11 Z" fill="#000000" fill-rule="nonzero" fill-opacity="1" /><path clip-path="url(#clip160)" d="M2111.01 1332.52 L2111.01 1316.83 L2115.27 1316.83 L2115.27 1332.36 Q2115.27 1336.04 2116.71 1337.89 Q2118.14 1339.72 2121.01 1339.72 Q2124.46 1339.72 2126.45 1337.52 Q2128.47 1335.32 2128.47 1331.53 L2128.47 1316.83 L2132.73 1316.83 L2132.73 1342.76 L2128.47 1342.76 L2128.47 1338.77 Q2126.92 1341.13 2124.86 1342.29 Q2122.82 1343.43 2120.11 1343.43 Q2115.64 1343.43 2113.33 1340.65 Q2111.01 1337.87 2111.01 1332.52 M2121.73 1316.2 L2121.73 1316.2 Z" fill="#000000" fill-rule="nonzero" fill-opacity="1" /><path clip-path="url(#clip160)" d="M2161.68 1321.81 Q2163.28 1318.94 2165.5 1317.57 Q2167.73 1316.2 2170.73 1316.2 Q2174.79 1316.2 2176.98 1319.05 Q2179.18 1321.88 2179.18 1327.11 L2179.18 1342.76 L2174.9 1342.76 L2174.9 1327.25 Q2174.9 1323.52 2173.58 1321.71 Q2172.26 1319.91 2169.55 1319.91 Q2166.24 1319.91 2164.32 1322.11 Q2162.4 1324.31 2162.4 1328.1 L2162.4 1342.76 L2158.12 1342.76 L2158.12 1327.25 Q2158.12 1323.5 2156.8 1321.71 Q2155.48 1319.91 2152.73 1319.91 Q2149.46 1319.91 2147.54 1322.13 Q2145.62 1324.33 2145.62 1328.1 L2145.62 1342.76 L2141.34 1342.76 L2141.34 1316.83 L2145.62 1316.83 L2145.62 1320.86 Q2147.08 1318.47 2149.11 1317.34 Q2151.15 1316.2 2153.95 1316.2 Q2156.78 1316.2 2158.74 1317.64 Q2160.73 1319.07 2161.68 1321.81 Z" fill="#000000" fill-rule="nonzero" fill-opacity="1" /><path clip-path="url(#clip160)" d="M2206.29 1329.82 Q2206.29 1325.12 2204.35 1322.45 Q2202.42 1319.77 2199.04 1319.77 Q2195.66 1319.77 2193.72 1322.45 Q2191.8 1325.12 2191.8 1329.82 Q2191.8 1334.51 2193.72 1337.2 Q2195.66 1339.86 2199.04 1339.86 Q2202.42 1339.86 2204.35 1337.2 Q2206.29 1334.51 2206.29 1329.82 M2191.8 1320.76 Q2193.14 1318.45 2195.18 1317.34 Q2197.24 1316.2 2200.09 1316.2 Q2204.81 1316.2 2207.75 1319.95 Q2210.71 1323.7 2210.71 1329.82 Q2210.71 1335.93 2207.75 1339.68 Q2204.81 1343.43 2200.09 1343.43 Q2197.24 1343.43 2195.18 1342.32 Q2193.14 1341.18 2191.8 1338.87 L2191.8 1342.76 L2187.52 1342.76 L2187.52 1306.74 L2191.8 1306.74 L2191.8 1320.76 Z" fill="#000000" fill-rule="nonzero" fill-opacity="1" /><path clip-path="url(#clip160)" d="M2239.95 1328.73 L2239.95 1330.81 L2220.36 1330.81 Q2220.64 1335.21 2223 1337.52 Q2225.39 1339.82 2229.62 1339.82 Q2232.08 1339.82 2234.37 1339.21 Q2236.68 1338.61 2238.95 1337.41 L2238.95 1341.44 Q2236.66 1342.41 2234.25 1342.92 Q2231.85 1343.43 2229.37 1343.43 Q2223.16 1343.43 2219.53 1339.82 Q2215.92 1336.2 2215.92 1330.05 Q2215.92 1323.68 2219.35 1319.95 Q2222.79 1316.2 2228.63 1316.2 Q2233.86 1316.2 2236.89 1319.58 Q2239.95 1322.94 2239.95 1328.73 M2235.69 1327.48 Q2235.64 1323.98 2233.72 1321.9 Q2231.82 1319.82 2228.67 1319.82 Q2225.11 1319.82 2222.96 1321.83 Q2220.83 1323.84 2220.5 1327.5 L2235.69 1327.48 Z" fill="#000000" fill-rule="nonzero" fill-opacity="1" /><path clip-path="url(#clip160)" d="M2261.96 1320.81 Q2261.24 1320.39 2260.39 1320.21 Q2259.55 1320 2258.53 1320 Q2254.92 1320 2252.98 1322.36 Q2251.06 1324.7 2251.06 1329.1 L2251.06 1342.76 L2246.78 1342.76 L2246.78 1316.83 L2251.06 1316.83 L2251.06 1320.86 Q2252.4 1318.5 2254.55 1317.36 Q2256.71 1316.2 2259.78 1316.2 Q2260.22 1316.2 2260.76 1316.27 Q2261.29 1316.32 2261.94 1316.44 L2261.96 1320.81 Z" fill="#000000" fill-rule="nonzero" fill-opacity="1" /></svg>
