<?xml version="1.0" encoding="utf-8"?>
<svg xmlns="http://www.w3.org/2000/svg" xmlns:xlink="http://www.w3.org/1999/xlink" width="600" height="400" viewBox="0 0 2400 1600">
<defs>
  <clipPath id="clip850">
    <rect x="0" y="0" width="2400" height="1600"/>
  </clipPath>
</defs>
<path clip-path="url(#clip850)" d="M0 1600 L2400 1600 L2400 0 L0 0  Z" fill="#ffffff" fill-rule="evenodd" fill-opacity="1"/>
<defs>
  <clipPath id="clip851">
    <rect x="480" y="0" width="1681" height="1600"/>
  </clipPath>
</defs>
<path clip-path="url(#clip850)" d="M138.959 1486.45 L2352.76 1486.45 L2352.76 47.2441 L138.959 47.2441  Z" fill="#ffffff" fill-rule="evenodd" fill-opacity="1"/>
<defs>
  <clipPath id="clip852">
    <rect x="138" y="47" width="2215" height="1440"/>
  </clipPath>
</defs>
<polyline clip-path="url(#clip852)" style="stroke:#000000; stroke-linecap:round; stroke-linejoin:round; stroke-width:2; stroke-opacity:0.1; fill:none" points="138.959,1486.45 138.959,47.2441 "/>
<polyline clip-path="url(#clip852)" style="stroke:#000000; stroke-linecap:round; stroke-linejoin:round; stroke-width:2; stroke-opacity:0.1; fill:none" points="581.719,1486.45 581.719,47.2441 "/>
<polyline clip-path="url(#clip852)" style="stroke:#000000; stroke-linecap:round; stroke-linejoin:round; stroke-width:2; stroke-opacity:0.1; fill:none" points="1024.48,1486.45 1024.48,47.2441 "/>
<polyline clip-path="url(#clip852)" style="stroke:#000000; stroke-linecap:round; stroke-linejoin:round; stroke-width:2; stroke-opacity:0.1; fill:none" points="1467.24,1486.45 1467.24,47.2441 "/>
<polyline clip-path="url(#clip852)" style="stroke:#000000; stroke-linecap:round; stroke-linejoin:round; stroke-width:2; stroke-opacity:0.1; fill:none" points="1910,1486.45 1910,47.2441 "/>
<polyline clip-path="url(#clip852)" style="stroke:#000000; stroke-linecap:round; stroke-linejoin:round; stroke-width:2; stroke-opacity:0.1; fill:none" points="2352.76,1486.45 2352.76,47.2441 "/>
<polyline clip-path="url(#clip852)" style="stroke:#000000; stroke-linecap:round; stroke-linejoin:round; stroke-width:2; stroke-opacity:0.1; fill:none" points="138.959,1486.45 2352.76,1486.45 "/>
<polyline clip-path="url(#clip852)" style="stroke:#000000; stroke-linecap:round; stroke-linejoin:round; stroke-width:2; stroke-opacity:0.1; fill:none" points="138.959,1198.61 2352.76,1198.61 "/>
<polyline clip-path="url(#clip852)" style="stroke:#000000; stroke-linecap:round; stroke-linejoin:round; stroke-width:2; stroke-opacity:0.1; fill:none" points="138.959,910.766 2352.76,910.766 "/>
<polyline clip-path="url(#clip852)" style="stroke:#000000; stroke-linecap:round; stroke-linejoin:round; stroke-width:2; stroke-opacity:0.1; fill:none" points="138.959,622.926 2352.76,622.926 "/>
<polyline clip-path="url(#clip852)" style="stroke:#000000; stroke-linecap:round; stroke-linejoin:round; stroke-width:2; stroke-opacity:0.1; fill:none" points="138.959,335.085 2352.76,335.085 "/>
<polyline clip-path="url(#clip852)" style="stroke:#000000; stroke-linecap:round; stroke-linejoin:round; stroke-width:2; stroke-opacity:0.1; fill:none" points="138.959,47.2441 2352.76,47.2441 "/>
<polyline clip-path="url(#clip850)" style="stroke:#000000; stroke-linecap:round; stroke-linejoin:round; stroke-width:4; stroke-opacity:1; fill:none" points="138.959,1486.45 2352.76,1486.45 "/>
<polyline clip-path="url(#clip850)" style="stroke:#000000; stroke-linecap:round; stroke-linejoin:round; stroke-width:4; stroke-opacity:1; fill:none" points="138.959,1486.45 138.959,1467.55 "/>
<polyline clip-path="url(#clip850)" style="stroke:#000000; stroke-linecap:round; stroke-linejoin:round; stroke-width:4; stroke-opacity:1; fill:none" points="581.719,1486.45 581.719,1467.55 "/>
<polyline clip-path="url(#clip850)" style="stroke:#000000; stroke-linecap:round; stroke-linejoin:round; stroke-width:4; stroke-opacity:1; fill:none" points="1024.48,1486.45 1024.48,1467.55 "/>
<polyline clip-path="url(#clip850)" style="stroke:#000000; stroke-linecap:round; stroke-linejoin:round; stroke-width:4; stroke-opacity:1; fill:none" points="1467.24,1486.45 1467.24,1467.55 "/>
<polyline clip-path="url(#clip850)" style="stroke:#000000; stroke-linecap:round; stroke-linejoin:round; stroke-width:4; stroke-opacity:1; fill:none" points="1910,1486.45 1910,1467.55 "/>
<polyline clip-path="url(#clip850)" style="stroke:#000000; stroke-linecap:round; stroke-linejoin:round; stroke-width:4; stroke-opacity:1; fill:none" points="2352.76,1486.45 2352.76,1467.55 "/>
<path clip-path="url(#clip850)" d="M138.959 1517.37 Q135.348 1517.37 133.52 1520.93 Q131.714 1524.47 131.714 1531.6 Q131.714 1538.71 133.52 1542.27 Q135.348 1545.82 138.959 1545.82 Q142.594 1545.82 144.399 1542.27 Q146.228 1538.71 146.228 1531.6 Q146.228 1524.47 144.399 1520.93 Q142.594 1517.37 138.959 1517.37 M138.959 1513.66 Q144.77 1513.66 147.825 1518.27 Q150.904 1522.85 150.904 1531.6 Q150.904 1540.33 147.825 1544.94 Q144.77 1549.52 138.959 1549.52 Q133.149 1549.52 130.071 1544.94 Q127.015 1540.33 127.015 1531.6 Q127.015 1522.85 130.071 1518.27 Q133.149 1513.66 138.959 1513.66 Z" fill="#000000" fill-rule="nonzero" fill-opacity="1" /><path clip-path="url(#clip850)" d="M576.372 1544.91 L592.691 1544.91 L592.691 1548.85 L570.747 1548.85 L570.747 1544.91 Q573.409 1542.16 577.992 1537.53 Q582.598 1532.88 583.779 1531.53 Q586.024 1529.01 586.904 1527.27 Q587.807 1525.51 587.807 1523.82 Q587.807 1521.07 585.862 1519.33 Q583.941 1517.6 580.839 1517.6 Q578.64 1517.6 576.186 1518.36 Q573.756 1519.13 570.978 1520.68 L570.978 1515.95 Q573.802 1514.82 576.256 1514.24 Q578.709 1513.66 580.747 1513.66 Q586.117 1513.66 589.311 1516.35 Q592.506 1519.03 592.506 1523.52 Q592.506 1525.65 591.696 1527.57 Q590.908 1529.47 588.802 1532.07 Q588.223 1532.74 585.121 1535.95 Q582.02 1539.15 576.372 1544.91 Z" fill="#000000" fill-rule="nonzero" fill-opacity="1" /><path clip-path="url(#clip850)" d="M1027.49 1518.36 L1015.68 1536.81 L1027.49 1536.81 L1027.49 1518.36 M1026.26 1514.29 L1032.14 1514.29 L1032.14 1536.81 L1037.07 1536.81 L1037.07 1540.7 L1032.14 1540.7 L1032.14 1548.85 L1027.49 1548.85 L1027.49 1540.7 L1011.89 1540.7 L1011.89 1536.19 L1026.26 1514.29 Z" fill="#000000" fill-rule="nonzero" fill-opacity="1" /><path clip-path="url(#clip850)" d="M1467.64 1529.7 Q1464.49 1529.7 1462.64 1531.86 Q1460.81 1534.01 1460.81 1537.76 Q1460.81 1541.49 1462.64 1543.66 Q1464.49 1545.82 1467.64 1545.82 Q1470.79 1545.82 1472.62 1543.66 Q1474.47 1541.49 1474.47 1537.76 Q1474.47 1534.01 1472.62 1531.86 Q1470.79 1529.7 1467.64 1529.7 M1476.92 1515.05 L1476.92 1519.31 Q1475.17 1518.48 1473.36 1518.04 Q1471.58 1517.6 1469.82 1517.6 Q1465.19 1517.6 1462.74 1520.72 Q1460.3 1523.85 1459.96 1530.17 Q1461.32 1528.15 1463.38 1527.09 Q1465.44 1526 1467.92 1526 Q1473.13 1526 1476.14 1529.17 Q1479.17 1532.32 1479.17 1537.76 Q1479.17 1543.08 1476.02 1546.3 Q1472.87 1549.52 1467.64 1549.52 Q1461.65 1549.52 1458.48 1544.94 Q1455.3 1540.33 1455.3 1531.6 Q1455.3 1523.41 1459.19 1518.55 Q1463.08 1513.66 1469.63 1513.66 Q1471.39 1513.66 1473.17 1514.01 Q1474.98 1514.36 1476.92 1515.05 Z" fill="#000000" fill-rule="nonzero" fill-opacity="1" /><path clip-path="url(#clip850)" d="M1910 1532.44 Q1906.66 1532.44 1904.74 1534.22 Q1902.84 1536 1902.84 1539.13 Q1902.84 1542.25 1904.74 1544.03 Q1906.66 1545.82 1910 1545.82 Q1913.33 1545.82 1915.25 1544.03 Q1917.17 1542.23 1917.17 1539.13 Q1917.17 1536 1915.25 1534.22 Q1913.35 1532.44 1910 1532.44 M1905.32 1530.45 Q1902.31 1529.7 1900.62 1527.64 Q1898.96 1525.58 1898.96 1522.62 Q1898.96 1518.48 1901.89 1516.07 Q1904.86 1513.66 1910 1513.66 Q1915.16 1513.66 1918.1 1516.07 Q1921.04 1518.48 1921.04 1522.62 Q1921.04 1525.58 1919.35 1527.64 Q1917.68 1529.7 1914.7 1530.45 Q1918.08 1531.23 1919.95 1533.52 Q1921.85 1535.82 1921.85 1539.13 Q1921.85 1544.15 1918.77 1546.83 Q1915.71 1549.52 1910 1549.52 Q1904.28 1549.52 1901.2 1546.83 Q1898.14 1544.15 1898.14 1539.13 Q1898.14 1535.82 1900.04 1533.52 Q1901.94 1531.23 1905.32 1530.45 M1903.61 1523.06 Q1903.61 1525.75 1905.27 1527.25 Q1906.96 1528.76 1910 1528.76 Q1913.01 1528.76 1914.7 1527.25 Q1916.41 1525.75 1916.41 1523.06 Q1916.41 1520.38 1914.7 1518.87 Q1913.01 1517.37 1910 1517.37 Q1906.96 1517.37 1905.27 1518.87 Q1903.61 1520.38 1903.61 1523.06 Z" fill="#000000" fill-rule="nonzero" fill-opacity="1" /><path clip-path="url(#clip850)" d="M2327.44 1544.91 L2335.08 1544.91 L2335.08 1518.55 L2326.77 1520.21 L2326.77 1515.95 L2335.04 1514.29 L2339.71 1514.29 L2339.71 1544.91 L2347.35 1544.91 L2347.35 1548.85 L2327.44 1548.85 L2327.44 1544.91 Z" fill="#000000" fill-rule="nonzero" fill-opacity="1" /><path clip-path="url(#clip850)" d="M2366.8 1517.37 Q2363.18 1517.37 2361.36 1520.93 Q2359.55 1524.47 2359.55 1531.6 Q2359.55 1538.71 2361.36 1542.27 Q2363.18 1545.82 2366.8 1545.82 Q2370.43 1545.82 2372.23 1542.27 Q2374.06 1538.71 2374.06 1531.6 Q2374.06 1524.47 2372.23 1520.93 Q2370.43 1517.37 2366.8 1517.37 M2366.8 1513.66 Q2372.61 1513.66 2375.66 1518.27 Q2378.74 1522.85 2378.74 1531.6 Q2378.74 1540.33 2375.66 1544.94 Q2372.61 1549.52 2366.8 1549.52 Q2360.99 1549.52 2357.91 1544.94 Q2354.85 1540.33 2354.85 1531.6 Q2354.85 1522.85 2357.91 1518.27 Q2360.99 1513.66 2366.8 1513.66 Z" fill="#000000" fill-rule="nonzero" fill-opacity="1" /><polyline clip-path="url(#clip850)" style="stroke:#000000; stroke-linecap:round; stroke-linejoin:round; stroke-width:4; stroke-opacity:1; fill:none" points="138.959,1486.45 138.959,47.2441 "/>
<polyline clip-path="url(#clip850)" style="stroke:#000000; stroke-linecap:round; stroke-linejoin:round; stroke-width:4; stroke-opacity:1; fill:none" points="138.959,1486.45 157.857,1486.45 "/>
<polyline clip-path="url(#clip850)" style="stroke:#000000; stroke-linecap:round; stroke-linejoin:round; stroke-width:4; stroke-opacity:1; fill:none" points="138.959,1198.61 157.857,1198.61 "/>
<polyline clip-path="url(#clip850)" style="stroke:#000000; stroke-linecap:round; stroke-linejoin:round; stroke-width:4; stroke-opacity:1; fill:none" points="138.959,910.766 157.857,910.766 "/>
<polyline clip-path="url(#clip850)" style="stroke:#000000; stroke-linecap:round; stroke-linejoin:round; stroke-width:4; stroke-opacity:1; fill:none" points="138.959,622.926 157.857,622.926 "/>
<polyline clip-path="url(#clip850)" style="stroke:#000000; stroke-linecap:round; stroke-linejoin:round; stroke-width:4; stroke-opacity:1; fill:none" points="138.959,335.085 157.857,335.085 "/>
<polyline clip-path="url(#clip850)" style="stroke:#000000; stroke-linecap:round; stroke-linejoin:round; stroke-width:4; stroke-opacity:1; fill:none" points="138.959,47.2441 157.857,47.2441 "/>
<path clip-path="url(#clip850)" d="M91.0151 1472.25 Q87.404 1472.25 85.5753 1475.81 Q83.7697 1479.35 83.7697 1486.48 Q83.7697 1493.59 85.5753 1497.15 Q87.404 1500.7 91.0151 1500.7 Q94.6493 1500.7 96.4548 1497.15 Q98.2835 1493.59 98.2835 1486.48 Q98.2835 1479.35 96.4548 1475.81 Q94.6493 1472.25 91.0151 1472.25 M91.0151 1468.54 Q96.8252 1468.54 99.8808 1473.15 Q102.959 1477.73 102.959 1486.48 Q102.959 1495.21 99.8808 1499.82 Q96.8252 1504.4 91.0151 1504.4 Q85.2049 1504.4 82.1262 1499.82 Q79.0707 1495.21 79.0707 1486.48 Q79.0707 1477.73 82.1262 1473.15 Q85.2049 1468.54 91.0151 1468.54 Z" fill="#000000" fill-rule="nonzero" fill-opacity="1" /><path clip-path="url(#clip850)" d="M86.6401 1211.95 L102.959 1211.95 L102.959 1215.89 L81.0151 1215.89 L81.0151 1211.95 Q83.6771 1209.2 88.2604 1204.57 Q92.8669 1199.91 94.0475 1198.57 Q96.2928 1196.05 97.1724 1194.31 Q98.0752 1192.55 98.0752 1190.86 Q98.0752 1188.11 96.1308 1186.37 Q94.2095 1184.64 91.1077 1184.64 Q88.9086 1184.64 86.4549 1185.4 Q84.0244 1186.17 81.2466 1187.72 L81.2466 1182.99 Q84.0707 1181.86 86.5243 1181.28 Q88.978 1180.7 91.0151 1180.7 Q96.3854 1180.7 99.5798 1183.39 Q102.774 1186.07 102.774 1190.56 Q102.774 1192.69 101.964 1194.61 Q101.177 1196.51 99.0706 1199.1 Q98.4919 1199.78 95.39 1202.99 Q92.2882 1206.19 86.6401 1211.95 Z" fill="#000000" fill-rule="nonzero" fill-opacity="1" /><path clip-path="url(#clip850)" d="M93.3762 897.56 L81.5707 916.009 L93.3762 916.009 L93.3762 897.56 M92.1493 893.486 L98.0289 893.486 L98.0289 916.009 L102.959 916.009 L102.959 919.898 L98.0289 919.898 L98.0289 928.046 L93.3762 928.046 L93.3762 919.898 L77.7744 919.898 L77.7744 915.384 L92.1493 893.486 Z" fill="#000000" fill-rule="nonzero" fill-opacity="1" /><path clip-path="url(#clip850)" d="M91.4317 621.062 Q88.2836 621.062 86.4318 623.215 Q84.6031 625.368 84.6031 629.118 Q84.6031 632.845 86.4318 635.02 Q88.2836 637.173 91.4317 637.173 Q94.5799 637.173 96.4085 635.02 Q98.2604 632.845 98.2604 629.118 Q98.2604 625.368 96.4085 623.215 Q94.5799 621.062 91.4317 621.062 M100.714 606.409 L100.714 610.669 Q98.9548 609.835 97.1493 609.396 Q95.3669 608.956 93.6076 608.956 Q88.978 608.956 86.5243 612.081 Q84.0938 615.206 83.7466 621.525 Q85.1123 619.511 87.1725 618.446 Q89.2327 617.359 91.7095 617.359 Q96.9178 617.359 99.927 620.53 Q102.959 623.678 102.959 629.118 Q102.959 634.442 99.8113 637.659 Q96.6632 640.877 91.4317 640.877 Q85.4364 640.877 82.2651 636.294 Q79.0938 631.687 79.0938 622.96 Q79.0938 614.766 82.9827 609.905 Q86.8716 605.021 93.4225 605.021 Q95.1817 605.021 96.9641 605.368 Q98.7696 605.715 100.714 606.409 Z" fill="#000000" fill-rule="nonzero" fill-opacity="1" /><path clip-path="url(#clip850)" d="M91.1077 335.953 Q87.7743 335.953 85.8531 337.735 Q83.9549 339.518 83.9549 342.643 Q83.9549 345.768 85.8531 347.55 Q87.7743 349.332 91.1077 349.332 Q94.441 349.332 96.3623 347.55 Q98.2835 345.745 98.2835 342.643 Q98.2835 339.518 96.3623 337.735 Q94.4641 335.953 91.1077 335.953 M86.4318 333.962 Q83.4225 333.221 81.7327 331.161 Q80.066 329.101 80.066 326.138 Q80.066 321.995 83.0058 319.587 Q85.9688 317.18 91.1077 317.18 Q96.2697 317.18 99.2095 319.587 Q102.149 321.995 102.149 326.138 Q102.149 329.101 100.459 331.161 Q98.7928 333.221 95.8067 333.962 Q99.1863 334.749 101.061 337.041 Q102.959 339.333 102.959 342.643 Q102.959 347.666 99.8808 350.351 Q96.8252 353.036 91.1077 353.036 Q85.3901 353.036 82.3114 350.351 Q79.2559 347.666 79.2559 342.643 Q79.2559 339.333 81.154 337.041 Q83.0521 334.749 86.4318 333.962 M84.7188 326.578 Q84.7188 329.263 86.3855 330.768 Q88.0753 332.272 91.1077 332.272 Q94.1169 332.272 95.8067 330.768 Q97.5197 329.263 97.5197 326.578 Q97.5197 323.893 95.8067 322.388 Q94.1169 320.884 91.1077 320.884 Q88.0753 320.884 86.3855 322.388 Q84.7188 323.893 84.7188 326.578 Z" fill="#000000" fill-rule="nonzero" fill-opacity="1" /><path clip-path="url(#clip850)" d="M51.6634 60.5889 L59.3023 60.5889 L59.3023 34.2233 L50.9921 35.89 L50.9921 31.6308 L59.256 29.9641 L63.9319 29.9641 L63.9319 60.5889 L71.5707 60.5889 L71.5707 64.5241 L51.6634 64.5241 L51.6634 60.5889 Z" fill="#000000" fill-rule="nonzero" fill-opacity="1" /><path clip-path="url(#clip850)" d="M91.0151 33.0428 Q87.404 33.0428 85.5753 36.6076 Q83.7697 40.1492 83.7697 47.2788 Q83.7697 54.3853 85.5753 57.9501 Q87.404 61.4917 91.0151 61.4917 Q94.6493 61.4917 96.4548 57.9501 Q98.2835 54.3853 98.2835 47.2788 Q98.2835 40.1492 96.4548 36.6076 Q94.6493 33.0428 91.0151 33.0428 M91.0151 29.3391 Q96.8252 29.3391 99.8808 33.9456 Q102.959 38.5289 102.959 47.2788 Q102.959 56.0056 99.8808 60.6121 Q96.8252 65.1954 91.0151 65.1954 Q85.2049 65.1954 82.1262 60.6121 Q79.0707 56.0056 79.0707 47.2788 Q79.0707 38.5289 82.1262 33.9456 Q85.2049 29.3391 91.0151 29.3391 Z" fill="#000000" fill-rule="nonzero" fill-opacity="1" /><path clip-path="url(#clip852)" d="M138.959 1220.24 L1313.81 1220.24 L1313.81 1220.24 L1312.92 1220.45 L1304 1222.49 L1232.38 1239.26 L1058.05 1283.46 L813.981 1357.1 L558.863 1466.25 L525.71 1486.45 L525.71 1486.45 L138.959 1486.45 L138.959 1220.24  Z" fill="#a52a2a" fill-rule="evenodd" fill-opacity="0.35"/>
<polyline clip-path="url(#clip852)" style="stroke:#000000; stroke-linecap:round; stroke-linejoin:round; stroke-width:4; stroke-opacity:0; fill:none" points="138.959,1220.24 1313.81,1220.24 1312.92,1220.45 1304,1222.49 1232.38,1239.26 1058.05,1283.46 813.981,1357.1 558.863,1466.25 525.71,1486.45 138.959,1486.45 138.959,1220.24 "/>
<path clip-path="url(#clip852)" d="M138.959 1220.24 L1313.81 1220.24 L1313.81 1220.24 L1312.92 1219.17 L1304 1208.18 L1277.97 1173.46 L1234.71 1105.91 L1177.86 994.511 L1103.7 798.747 L1011.61 443.983 L940.212 47.2441 L940.212 47.2441 L138.959 47.2441 L138.959 1220.24  Z" fill="#0000ff" fill-rule="evenodd" fill-opacity="0.35"/>
<polyline clip-path="url(#clip852)" style="stroke:#000000; stroke-linecap:round; stroke-linejoin:round; stroke-width:4; stroke-opacity:0; fill:none" points="138.959,1220.24 1313.81,1220.24 1312.92,1219.17 1304,1208.18 1277.97,1173.46 1234.71,1105.91 1177.86,994.511 1103.7,798.747 1011.61,443.983 940.212,47.2441 138.959,47.2441 138.959,1220.24 "/>
<path clip-path="url(#clip852)" d="M940.212 47.2441 L940.212 47.2441 L1011.61 443.983 L1103.7 798.747 L1177.86 994.511 L1234.71 1105.91 L1277.97 1173.46 L1304 1208.18 L1312.92 1219.17 L1313.81 1220.24 L1313.81 1220.24 L1370.97 1205.92 L1474.13 1171.35 L1566.99 1123.87 L1648.21 1056.83 L1714.63 963.432 L1767.05 832.225 L1807.12 646.506 L1836.97 381.373 L1856.75 47.2441 L138.959 47.2441 L940.212 47.2441  Z" fill="#9acd32" fill-rule="evenodd" fill-opacity="0.35"/>
<polyline clip-path="url(#clip852)" style="stroke:#000000; stroke-linecap:round; stroke-linejoin:round; stroke-width:4; stroke-opacity:0; fill:none" points="940.212,47.2441 940.212,47.2441 1011.61,443.983 1103.7,798.747 1177.86,994.511 1234.71,1105.91 1277.97,1173.46 1304,1208.18 1312.92,1219.17 1313.81,1220.24 1370.97,1205.92 1474.13,1171.35 1566.99,1123.87 1648.21,1056.83 1714.63,963.432 1767.05,832.225 1807.12,646.506 1836.97,381.373 1856.75,47.2441 138.959,47.2441 940.212,47.2441 "/>
<path clip-path="url(#clip852)" d="M525.71 1486.45 L525.71 1486.45 L558.863 1466.25 L813.981 1357.1 L1058.05 1283.46 L1232.38 1239.26 L1304 1222.49 L1312.92 1220.45 L1313.81 1220.24 L1313.81 1220.24 L1370.97 1205.92 L1474.13 1171.35 L1566.99 1123.87 L1648.21 1056.83 L1714.63 963.432 L1767.05 832.225 L1807.12 646.506 L1836.97 381.373 L1856.75 47.2441 L138.959 47.2441 L2352.76 47.2441 L2352.76 1486.45 L138.959 1486.45 L525.71 1486.45  Z" fill="#ff0000" fill-rule="evenodd" fill-opacity="0.35"/>
<polyline clip-path="url(#clip852)" style="stroke:#000000; stroke-linecap:round; stroke-linejoin:round; stroke-width:4; stroke-opacity:0; fill:none" points="525.71,1486.45 525.71,1486.45 558.863,1466.25 813.981,1357.1 1058.05,1283.46 1232.38,1239.26 1304,1222.49 1312.92,1220.45 1313.81,1220.24 1370.97,1205.92 1474.13,1171.35 1566.99,1123.87 1648.21,1056.83 1714.63,963.432 1767.05,832.225 1807.12,646.506 1836.97,381.373 1856.75,47.2441 138.959,47.2441 2352.76,47.2441 2352.76,1486.45 138.959,1486.45 525.71,1486.45 "/>
<polyline clip-path="url(#clip852)" style="stroke:#808080; stroke-linecap:round; stroke-linejoin:round; stroke-width:4; stroke-opacity:1; fill:none" points="1313.81,1220.24 1312.92,1219.17 1304,1208.18 1277.97,1173.46 1234.71,1105.91 1177.86,994.511 1103.7,798.747 1011.61,443.983 940.212,47.2441 "/>
<polyline clip-path="url(#clip852)" style="stroke:#808080; stroke-linecap:round; stroke-linejoin:round; stroke-width:4; stroke-opacity:1; fill:none" points="1313.81,1220.24 1312.92,1220.45 1304,1222.49 1232.38,1239.26 1058.05,1283.46 813.981,1357.1 558.863,1466.25 525.71,1486.45 "/>
<polyline clip-path="url(#clip852)" style="stroke:#008000; stroke-linecap:round; stroke-linejoin:round; stroke-width:12; stroke-opacity:1; fill:none" points="138.959,1220.24 1313.81,1220.24 "/>
<polyline clip-path="url(#clip852)" style="stroke:#ffd700; stroke-linecap:round; stroke-linejoin:round; stroke-width:12; stroke-opacity:1; fill:none" points="1313.81,1220.24 1370.97,1205.92 1474.13,1171.35 1566.99,1123.87 1648.21,1056.83 1714.63,963.432 1767.05,832.225 1807.12,646.506 1836.97,381.373 1856.75,47.2441 "/>
<path clip-path="url(#clip850)" d="M1699.76 1438.47 L2278.96 1438.47 L2278.96 1075.59 L1699.76 1075.59  Z" fill="#ffffff" fill-rule="evenodd" fill-opacity="1"/>
<polyline clip-path="url(#clip850)" style="stroke:#000000; stroke-linecap:round; stroke-linejoin:round; stroke-width:4; stroke-opacity:1; fill:none" points="1699.76,1438.47 2278.96,1438.47 2278.96,1075.59 1699.76,1075.59 1699.76,1438.47 "/>
<path clip-path="url(#clip850)" d="M1724.36 1148.17 L1871.95 1148.17 L1871.95 1106.7 L1724.36 1106.7 L1724.36 1148.17  Z" fill="#a52a2a" fill-rule="evenodd" fill-opacity="0.35"/>
<polyline clip-path="url(#clip850)" style="stroke:#000000; stroke-linecap:round; stroke-linejoin:round; stroke-width:4; stroke-opacity:0; fill:none" points="1724.36,1148.17 1871.95,1148.17 1871.95,1106.7 1724.36,1106.7 1724.36,1148.17 "/>
<path clip-path="url(#clip850)" d="M1896.54 1134.48 L1896.54 1118.79 L1900.8 1118.79 L1900.8 1134.32 Q1900.8 1138 1902.24 1139.85 Q1903.67 1141.68 1906.54 1141.68 Q1909.99 1141.68 1911.98 1139.48 Q1914 1137.28 1914 1133.49 L1914 1118.79 L1918.26 1118.79 L1918.26 1144.71 L1914 1144.71 L1914 1140.73 Q1912.45 1143.09 1910.39 1144.25 Q1908.35 1145.39 1905.64 1145.39 Q1901.17 1145.39 1898.86 1142.61 Q1896.54 1139.83 1896.54 1134.48 M1907.26 1118.16 L1907.26 1118.16 Z" fill="#000000" fill-rule="nonzero" fill-opacity="1" /><path clip-path="url(#clip850)" d="M1936.29 1128.07 L1936.29 1135.29 L1944.41 1135.29 L1944.41 1137.49 L1936.29 1137.49 L1936.29 1144.71 L1933.86 1144.71 L1933.86 1137.49 L1925.73 1137.49 L1925.73 1135.29 L1933.86 1135.29 L1933.86 1128.07 L1936.29 1128.07 Z" fill="#000000" fill-rule="nonzero" fill-opacity="1" /><path clip-path="url(#clip850)" d="M1977.49 1125.43 Q1975.64 1125.43 1974.37 1126.73 Q1973.09 1128 1973.09 1129.85 Q1973.09 1131.68 1974.37 1132.96 Q1975.64 1134.21 1977.49 1134.21 Q1979.34 1134.21 1980.62 1132.96 Q1981.89 1131.68 1981.89 1129.85 Q1981.89 1128.02 1980.59 1126.73 Q1979.32 1125.43 1977.49 1125.43 M1977.49 1122.45 Q1978.97 1122.45 1980.34 1123.02 Q1981.7 1123.58 1982.7 1124.65 Q1983.76 1125.69 1984.3 1127.01 Q1984.83 1128.33 1984.83 1129.85 Q1984.83 1132.91 1982.68 1135.04 Q1980.55 1137.15 1977.45 1137.15 Q1974.32 1137.15 1972.24 1135.06 Q1970.15 1132.98 1970.15 1129.85 Q1970.15 1126.75 1972.28 1124.6 Q1974.41 1122.45 1977.49 1122.45 Z" fill="#000000" fill-rule="nonzero" fill-opacity="1" /><path clip-path="url(#clip850)" d="M2011.43 1134.48 L2011.43 1118.79 L2015.69 1118.79 L2015.69 1134.32 Q2015.69 1138 2017.12 1139.85 Q2018.56 1141.68 2021.43 1141.68 Q2024.88 1141.68 2026.87 1139.48 Q2028.88 1137.28 2028.88 1133.49 L2028.88 1118.79 L2033.14 1118.79 L2033.14 1144.71 L2028.88 1144.71 L2028.88 1140.73 Q2027.33 1143.09 2025.27 1144.25 Q2023.23 1145.39 2020.52 1145.39 Q2016.06 1145.39 2013.74 1142.61 Q2011.43 1139.83 2011.43 1134.48 M2022.14 1118.16 L2022.14 1118.16 Z" fill="#000000" fill-rule="nonzero" fill-opacity="1" /><path clip-path="url(#clip850)" d="M2051.75 1130.25 L2051.75 1132.49 Q2050.62 1131.98 2049.39 1131.73 Q2048.19 1131.47 2046.87 1131.47 Q2044.85 1131.47 2043.86 1132.01 Q2042.86 1132.56 2042.86 1133.65 Q2042.86 1134.48 2043.58 1134.95 Q2044.3 1135.43 2046.45 1135.85 L2047.38 1136.03 Q2050.27 1136.59 2051.43 1137.56 Q2052.63 1138.56 2052.63 1140.34 Q2052.63 1142.35 2050.82 1143.53 Q2049.04 1144.71 2045.89 1144.71 Q2044.57 1144.71 2043.14 1144.48 Q2041.73 1144.25 2040.15 1143.81 L2040.15 1141.33 Q2041.63 1142.03 2043.09 1142.38 Q2044.53 1142.72 2045.94 1142.72 Q2047.84 1142.72 2048.86 1142.14 Q2049.88 1141.57 2049.88 1140.52 Q2049.88 1139.55 2049.13 1139.02 Q2048.49 1138.56 2045.92 1138.02 L2044.99 1137.84 Q2042.49 1137.35 2041.38 1136.4 Q2040.27 1135.43 2040.27 1133.74 Q2040.27 1131.71 2041.91 1130.59 Q2043.53 1129.46 2046.54 1129.46 Q2048.02 1129.46 2049.34 1129.67 Q2050.66 1129.85 2051.75 1130.25 Z" fill="#000000" fill-rule="nonzero" fill-opacity="1" /><path clip-path="url(#clip850)" d="M2085.04 1125.43 Q2083.19 1125.43 2081.91 1126.73 Q2080.64 1128 2080.64 1129.85 Q2080.64 1131.68 2081.91 1132.96 Q2083.19 1134.21 2085.04 1134.21 Q2086.89 1134.21 2088.16 1132.96 Q2089.44 1131.68 2089.44 1129.85 Q2089.44 1128.02 2088.14 1126.73 Q2086.87 1125.43 2085.04 1125.43 M2085.04 1122.45 Q2086.52 1122.45 2087.88 1123.02 Q2089.25 1123.58 2090.25 1124.65 Q2091.31 1125.69 2091.84 1127.01 Q2092.38 1128.33 2092.38 1129.85 Q2092.38 1132.91 2090.22 1135.04 Q2088.09 1137.15 2084.99 1137.15 Q2081.87 1137.15 2079.78 1135.06 Q2077.7 1132.98 2077.7 1129.85 Q2077.7 1126.75 2079.83 1124.6 Q2081.96 1122.45 2085.04 1122.45 Z" fill="#000000" fill-rule="nonzero" fill-opacity="1" /><path clip-path="url(#clip850)" d="M2118.97 1134.48 L2118.97 1118.79 L2123.23 1118.79 L2123.23 1134.32 Q2123.23 1138 2124.67 1139.85 Q2126.1 1141.68 2128.97 1141.68 Q2132.42 1141.68 2134.41 1139.48 Q2136.43 1137.28 2136.43 1133.49 L2136.43 1118.79 L2140.69 1118.79 L2140.69 1144.71 L2136.43 1144.71 L2136.43 1140.73 Q2134.87 1143.09 2132.81 1144.25 Q2130.78 1145.39 2128.07 1145.39 Q2123.6 1145.39 2121.29 1142.61 Q2118.97 1139.83 2118.97 1134.48 M2129.69 1118.16 L2129.69 1118.16 Z" fill="#000000" fill-rule="nonzero" fill-opacity="1" /><path clip-path="url(#clip850)" d="M2158.72 1128.07 L2158.72 1135.29 L2166.84 1135.29 L2166.84 1137.49 L2158.72 1137.49 L2158.72 1144.71 L2156.29 1144.71 L2156.29 1137.49 L2148.16 1137.49 L2148.16 1135.29 L2156.29 1135.29 L2156.29 1128.07 L2158.72 1128.07 Z" fill="#000000" fill-rule="nonzero" fill-opacity="1" /><path clip-path="url(#clip850)" d="M1724.36 1200.01 L1871.95 1200.01 L1871.95 1158.54 L1724.36 1158.54 L1724.36 1200.01  Z" fill="#0000ff" fill-rule="evenodd" fill-opacity="0.35"/>
<polyline clip-path="url(#clip850)" style="stroke:#000000; stroke-linecap:round; stroke-linejoin:round; stroke-width:4; stroke-opacity:0; fill:none" points="1724.36,1200.01 1871.95,1200.01 1871.95,1158.54 1724.36,1158.54 1724.36,1200.01 "/>
<path clip-path="url(#clip850)" d="M1896.54 1186.32 L1896.54 1170.63 L1900.8 1170.63 L1900.8 1186.16 Q1900.8 1189.84 1902.24 1191.69 Q1903.67 1193.52 1906.54 1193.52 Q1909.99 1193.52 1911.98 1191.32 Q1914 1189.12 1914 1185.33 L1914 1170.63 L1918.26 1170.63 L1918.26 1196.55 L1914 1196.55 L1914 1192.57 Q1912.45 1194.93 1910.39 1196.09 Q1908.35 1197.23 1905.64 1197.23 Q1901.17 1197.23 1898.86 1194.45 Q1896.54 1191.67 1896.54 1186.32 M1907.26 1170 L1907.26 1170 Z" fill="#000000" fill-rule="nonzero" fill-opacity="1" /><path clip-path="url(#clip850)" d="M1925.73 1187.13 L1944.41 1187.13 L1944.41 1189.33 L1925.73 1189.33 L1925.73 1187.13 Z" fill="#000000" fill-rule="nonzero" fill-opacity="1" /><path clip-path="url(#clip850)" d="M1977.49 1177.27 Q1975.64 1177.27 1974.37 1178.57 Q1973.09 1179.84 1973.09 1181.69 Q1973.09 1183.52 1974.37 1184.8 Q1975.64 1186.05 1977.49 1186.05 Q1979.34 1186.05 1980.62 1184.8 Q1981.89 1183.52 1981.89 1181.69 Q1981.89 1179.86 1980.59 1178.57 Q1979.32 1177.27 1977.49 1177.27 M1977.49 1174.29 Q1978.97 1174.29 1980.34 1174.86 Q1981.7 1175.42 1982.7 1176.49 Q1983.76 1177.53 1984.3 1178.85 Q1984.83 1180.17 1984.83 1181.69 Q1984.83 1184.75 1982.68 1186.88 Q1980.55 1188.99 1977.45 1188.99 Q1974.32 1188.99 1972.24 1186.9 Q1970.15 1184.82 1970.15 1181.69 Q1970.15 1178.59 1972.28 1176.44 Q1974.41 1174.29 1977.49 1174.29 Z" fill="#000000" fill-rule="nonzero" fill-opacity="1" /><path clip-path="url(#clip850)" d="M2011.43 1186.32 L2011.43 1170.63 L2015.69 1170.63 L2015.69 1186.16 Q2015.69 1189.84 2017.12 1191.69 Q2018.56 1193.52 2021.43 1193.52 Q2024.88 1193.52 2026.87 1191.32 Q2028.88 1189.12 2028.88 1185.33 L2028.88 1170.63 L2033.14 1170.63 L2033.14 1196.55 L2028.88 1196.55 L2028.88 1192.57 Q2027.33 1194.93 2025.27 1196.09 Q2023.23 1197.23 2020.52 1197.23 Q2016.06 1197.23 2013.74 1194.45 Q2011.43 1191.67 2011.43 1186.32 M2022.14 1170 L2022.14 1170 Z" fill="#000000" fill-rule="nonzero" fill-opacity="1" /><path clip-path="url(#clip850)" d="M2051.75 1182.09 L2051.75 1184.33 Q2050.62 1183.82 2049.39 1183.57 Q2048.19 1183.31 2046.87 1183.31 Q2044.85 1183.31 2043.86 1183.85 Q2042.86 1184.4 2042.86 1185.49 Q2042.86 1186.32 2043.58 1186.79 Q2044.3 1187.27 2046.45 1187.69 L2047.38 1187.87 Q2050.27 1188.43 2051.43 1189.4 Q2052.63 1190.4 2052.63 1192.18 Q2052.63 1194.19 2050.82 1195.37 Q2049.04 1196.55 2045.89 1196.55 Q2044.57 1196.55 2043.14 1196.32 Q2041.73 1196.09 2040.15 1195.65 L2040.15 1193.17 Q2041.63 1193.87 2043.09 1194.22 Q2044.53 1194.56 2045.94 1194.56 Q2047.84 1194.56 2048.86 1193.98 Q2049.88 1193.41 2049.88 1192.36 Q2049.88 1191.39 2049.13 1190.86 Q2048.49 1190.4 2045.92 1189.86 L2044.99 1189.68 Q2042.49 1189.19 2041.38 1188.24 Q2040.27 1187.27 2040.27 1185.58 Q2040.27 1183.55 2041.91 1182.43 Q2043.53 1181.3 2046.54 1181.3 Q2048.02 1181.3 2049.34 1181.51 Q2050.66 1181.69 2051.75 1182.09 Z" fill="#000000" fill-rule="nonzero" fill-opacity="1" /><path clip-path="url(#clip850)" d="M2085.04 1177.27 Q2083.19 1177.27 2081.91 1178.57 Q2080.64 1179.84 2080.64 1181.69 Q2080.64 1183.52 2081.91 1184.8 Q2083.19 1186.05 2085.04 1186.05 Q2086.89 1186.05 2088.16 1184.8 Q2089.44 1183.52 2089.44 1181.69 Q2089.44 1179.86 2088.14 1178.57 Q2086.87 1177.27 2085.04 1177.27 M2085.04 1174.29 Q2086.52 1174.29 2087.88 1174.86 Q2089.25 1175.42 2090.25 1176.49 Q2091.31 1177.53 2091.84 1178.85 Q2092.38 1180.17 2092.38 1181.69 Q2092.38 1184.75 2090.22 1186.88 Q2088.09 1188.99 2084.99 1188.99 Q2081.87 1188.99 2079.78 1186.9 Q2077.7 1184.82 2077.7 1181.69 Q2077.7 1178.59 2079.83 1176.44 Q2081.96 1174.29 2085.04 1174.29 Z" fill="#000000" fill-rule="nonzero" fill-opacity="1" /><path clip-path="url(#clip850)" d="M2118.97 1186.32 L2118.97 1170.63 L2123.23 1170.63 L2123.23 1186.16 Q2123.23 1189.84 2124.67 1191.69 Q2126.1 1193.52 2128.97 1193.52 Q2132.42 1193.52 2134.41 1191.32 Q2136.43 1189.12 2136.43 1185.33 L2136.43 1170.63 L2140.69 1170.63 L2140.69 1196.55 L2136.43 1196.55 L2136.43 1192.57 Q2134.87 1194.93 2132.81 1196.09 Q2130.78 1197.23 2128.07 1197.23 Q2123.6 1197.23 2121.29 1194.45 Q2118.97 1191.67 2118.97 1186.32 M2129.69 1170 L2129.69 1170 Z" fill="#000000" fill-rule="nonzero" fill-opacity="1" /><path clip-path="url(#clip850)" d="M2158.72 1179.91 L2158.72 1187.13 L2166.84 1187.13 L2166.84 1189.33 L2158.72 1189.33 L2158.72 1196.55 L2156.29 1196.55 L2156.29 1189.33 L2148.16 1189.33 L2148.16 1187.13 L2156.29 1187.13 L2156.29 1179.91 L2158.72 1179.91 Z" fill="#000000" fill-rule="nonzero" fill-opacity="1" /><path clip-path="url(#clip850)" d="M1724.36 1251.85 L1871.95 1251.85 L1871.95 1210.38 L1724.36 1210.38 L1724.36 1251.85  Z" fill="#9acd32" fill-rule="evenodd" fill-opacity="0.35"/>
<polyline clip-path="url(#clip850)" style="stroke:#000000; stroke-linecap:round; stroke-linejoin:round; stroke-width:4; stroke-opacity:0; fill:none" points="1724.36,1251.85 1871.95,1251.85 1871.95,1210.38 1724.36,1210.38 1724.36,1251.85 "/>
<path clip-path="url(#clip850)" d="M1896.54 1238.16 L1896.54 1222.47 L1900.8 1222.47 L1900.8 1238 Q1900.8 1241.68 1902.24 1243.53 Q1903.67 1245.36 1906.54 1245.36 Q1909.99 1245.36 1911.98 1243.16 Q1914 1240.96 1914 1237.17 L1914 1222.47 L1918.26 1222.47 L1918.26 1248.39 L1914 1248.39 L1914 1244.41 Q1912.45 1246.77 1910.39 1247.93 Q1908.35 1249.07 1905.64 1249.07 Q1901.17 1249.07 1898.86 1246.29 Q1896.54 1243.51 1896.54 1238.16 M1907.26 1221.84 L1907.26 1221.84 Z" fill="#000000" fill-rule="nonzero" fill-opacity="1" /><path clip-path="url(#clip850)" d="M1925.73 1238.97 L1944.41 1238.97 L1944.41 1241.17 L1925.73 1241.17 L1925.73 1238.97 Z" fill="#000000" fill-rule="nonzero" fill-opacity="1" /><path clip-path="url(#clip850)" d="M1977.49 1229.11 Q1975.64 1229.11 1974.37 1230.41 Q1973.09 1231.68 1973.09 1233.53 Q1973.09 1235.36 1974.37 1236.64 Q1975.64 1237.89 1977.49 1237.89 Q1979.34 1237.89 1980.62 1236.64 Q1981.89 1235.36 1981.89 1233.53 Q1981.89 1231.7 1980.59 1230.41 Q1979.32 1229.11 1977.49 1229.11 M1977.49 1226.13 Q1978.97 1226.13 1980.34 1226.7 Q1981.7 1227.26 1982.7 1228.33 Q1983.76 1229.37 1984.3 1230.69 Q1984.83 1232.01 1984.83 1233.53 Q1984.83 1236.59 1982.68 1238.72 Q1980.55 1240.83 1977.45 1240.83 Q1974.32 1240.83 1972.24 1238.74 Q1970.15 1236.66 1970.15 1233.53 Q1970.15 1230.43 1972.28 1228.28 Q1974.41 1226.13 1977.49 1226.13 Z" fill="#000000" fill-rule="nonzero" fill-opacity="1" /><path clip-path="url(#clip850)" d="M2011.43 1238.16 L2011.43 1222.47 L2015.69 1222.47 L2015.69 1238 Q2015.69 1241.68 2017.12 1243.53 Q2018.56 1245.36 2021.43 1245.36 Q2024.88 1245.36 2026.87 1243.16 Q2028.88 1240.96 2028.88 1237.17 L2028.88 1222.47 L2033.14 1222.47 L2033.14 1248.39 L2028.88 1248.39 L2028.88 1244.41 Q2027.33 1246.77 2025.27 1247.93 Q2023.23 1249.07 2020.52 1249.07 Q2016.06 1249.07 2013.74 1246.29 Q2011.43 1243.51 2011.43 1238.16 M2022.14 1221.84 L2022.14 1221.84 Z" fill="#000000" fill-rule="nonzero" fill-opacity="1" /><path clip-path="url(#clip850)" d="M2051.17 1231.75 L2051.17 1238.97 L2059.3 1238.97 L2059.3 1241.17 L2051.17 1241.17 L2051.17 1248.39 L2048.74 1248.39 L2048.74 1241.17 L2040.62 1241.17 L2040.62 1238.97 L2048.74 1238.97 L2048.74 1231.75 L2051.17 1231.75 Z" fill="#000000" fill-rule="nonzero" fill-opacity="1" /><path clip-path="url(#clip850)" d="M1724.36 1303.69 L1871.95 1303.69 L1871.95 1262.22 L1724.36 1262.22 L1724.36 1303.69  Z" fill="#ff0000" fill-rule="evenodd" fill-opacity="0.35"/>
<polyline clip-path="url(#clip850)" style="stroke:#000000; stroke-linecap:round; stroke-linejoin:round; stroke-width:4; stroke-opacity:0; fill:none" points="1724.36,1303.69 1871.95,1303.69 1871.95,1262.22 1724.36,1262.22 1724.36,1303.69 "/>
<path clip-path="url(#clip850)" d="M1896.54 1290 L1896.54 1274.31 L1900.8 1274.31 L1900.8 1289.84 Q1900.8 1293.52 1902.24 1295.37 Q1903.67 1297.2 1906.54 1297.2 Q1909.99 1297.2 1911.98 1295 Q1914 1292.8 1914 1289.01 L1914 1274.31 L1918.26 1274.31 L1918.26 1300.23 L1914 1300.23 L1914 1296.25 Q1912.45 1298.61 1910.39 1299.77 Q1908.35 1300.91 1905.64 1300.91 Q1901.17 1300.91 1898.86 1298.13 Q1896.54 1295.35 1896.54 1290 M1907.26 1273.68 L1907.26 1273.68 Z" fill="#000000" fill-rule="nonzero" fill-opacity="1" /><path clip-path="url(#clip850)" d="M1936.29 1283.59 L1936.29 1290.81 L1944.41 1290.81 L1944.41 1293.01 L1936.29 1293.01 L1936.29 1300.23 L1933.86 1300.23 L1933.86 1293.01 L1925.73 1293.01 L1925.73 1290.81 L1933.86 1290.81 L1933.86 1283.59 L1936.29 1283.59 Z" fill="#000000" fill-rule="nonzero" fill-opacity="1" /><polyline clip-path="url(#clip850)" style="stroke:#008000; stroke-linecap:round; stroke-linejoin:round; stroke-width:12; stroke-opacity:1; fill:none" points="1724.36,1334.79 1871.95,1334.79 "/>
<path clip-path="url(#clip850)" d="M1896.54 1341.84 L1896.54 1326.15 L1900.8 1326.15 L1900.8 1341.68 Q1900.8 1345.36 1902.24 1347.21 Q1903.67 1349.04 1906.54 1349.04 Q1909.99 1349.04 1911.98 1346.84 Q1914 1344.64 1914 1340.85 L1914 1326.15 L1918.26 1326.15 L1918.26 1352.07 L1914 1352.07 L1914 1348.09 Q1912.45 1350.45 1910.39 1351.61 Q1908.35 1352.75 1905.64 1352.75 Q1901.17 1352.75 1898.86 1349.97 Q1896.54 1347.19 1896.54 1341.84 M1907.26 1325.52 L1907.26 1325.52 Z" fill="#000000" fill-rule="nonzero" fill-opacity="1" /><path clip-path="url(#clip850)" d="M1936.87 1337.61 L1936.87 1339.85 Q1935.73 1339.34 1934.51 1339.09 Q1933.3 1338.83 1931.98 1338.83 Q1929.97 1338.83 1928.97 1339.37 Q1927.98 1339.92 1927.98 1341.01 Q1927.98 1341.84 1928.7 1342.31 Q1929.41 1342.79 1931.57 1343.21 L1932.49 1343.39 Q1935.39 1343.95 1936.54 1344.92 Q1937.75 1345.92 1937.75 1347.7 Q1937.75 1349.71 1935.94 1350.89 Q1934.16 1352.07 1931.01 1352.07 Q1929.69 1352.07 1928.26 1351.84 Q1926.84 1351.61 1925.27 1351.17 L1925.27 1348.69 Q1926.75 1349.39 1928.21 1349.74 Q1929.64 1350.08 1931.06 1350.08 Q1932.95 1350.08 1933.97 1349.5 Q1934.99 1348.93 1934.99 1347.88 Q1934.99 1346.91 1934.25 1346.38 Q1933.6 1345.92 1931.03 1345.38 L1930.11 1345.2 Q1927.61 1344.71 1926.5 1343.76 Q1925.39 1342.79 1925.39 1341.1 Q1925.39 1339.07 1927.03 1337.95 Q1928.65 1336.82 1931.66 1336.82 Q1933.14 1336.82 1934.46 1337.03 Q1935.78 1337.21 1936.87 1337.61 Z" fill="#000000" fill-rule="nonzero" fill-opacity="1" /><polyline clip-path="url(#clip850)" style="stroke:#ffd700; stroke-linecap:round; stroke-linejoin:round; stroke-width:12; stroke-opacity:1; fill:none" points="1724.36,1386.63 1871.95,1386.63 "/>
<path clip-path="url(#clip850)" d="M1914.97 1378.75 L1914.97 1382.78 Q1913.16 1381.85 1911.22 1381.39 Q1909.27 1380.93 1907.19 1380.93 Q1904.02 1380.93 1902.42 1381.9 Q1900.85 1382.87 1900.85 1384.82 Q1900.85 1386.3 1901.98 1387.16 Q1903.12 1387.99 1906.54 1388.75 L1908 1389.08 Q1912.54 1390.05 1914.44 1391.83 Q1916.36 1393.59 1916.36 1396.76 Q1916.36 1400.37 1913.49 1402.48 Q1910.64 1404.59 1905.64 1404.59 Q1903.56 1404.59 1901.29 1404.17 Q1899.04 1403.78 1896.54 1402.97 L1896.54 1398.57 Q1898.9 1399.79 1901.2 1400.42 Q1903.49 1401.02 1905.73 1401.02 Q1908.74 1401.02 1910.36 1400 Q1911.98 1398.96 1911.98 1397.09 Q1911.98 1395.35 1910.8 1394.42 Q1909.64 1393.5 1905.69 1392.64 L1904.2 1392.29 Q1900.25 1391.46 1898.49 1389.75 Q1896.73 1388.01 1896.73 1385 Q1896.73 1381.35 1899.32 1379.35 Q1901.91 1377.36 1906.68 1377.36 Q1909.04 1377.36 1911.13 1377.71 Q1913.21 1378.06 1914.97 1378.75 Z" fill="#000000" fill-rule="nonzero" fill-opacity="1" /><path clip-path="url(#clip850)" d="M1920.66 1377.99 L1924.92 1377.99 L1930.25 1398.22 L1935.55 1377.99 L1940.57 1377.99 L1945.89 1398.22 L1951.2 1377.99 L1955.45 1377.99 L1948.67 1403.91 L1943.65 1403.91 L1938.07 1382.66 L1932.47 1403.91 L1927.45 1403.91 L1920.66 1377.99 Z" fill="#000000" fill-rule="nonzero" fill-opacity="1" /><path clip-path="url(#clip850)" d="M1961.91 1377.99 L1966.17 1377.99 L1966.17 1403.91 L1961.91 1403.91 L1961.91 1377.99 M1961.91 1367.9 L1966.17 1367.9 L1966.17 1373.29 L1961.91 1373.29 L1961.91 1367.9 Z" fill="#000000" fill-rule="nonzero" fill-opacity="1" /><path clip-path="url(#clip850)" d="M1979.3 1370.63 L1979.3 1377.99 L1988.07 1377.99 L1988.07 1381.3 L1979.3 1381.3 L1979.3 1395.37 Q1979.3 1398.54 1980.15 1399.45 Q1981.03 1400.35 1983.7 1400.35 L1988.07 1400.35 L1988.07 1403.91 L1983.7 1403.91 Q1978.76 1403.91 1976.89 1402.09 Q1975.01 1400.23 1975.01 1395.37 L1975.01 1381.3 L1971.89 1381.3 L1971.89 1377.99 L1975.01 1377.99 L1975.01 1370.63 L1979.3 1370.63 Z" fill="#000000" fill-rule="nonzero" fill-opacity="1" /><path clip-path="url(#clip850)" d="M2012.33 1378.98 L2012.33 1382.97 Q2010.52 1381.97 2008.69 1381.48 Q2006.89 1380.97 2005.04 1380.97 Q2000.89 1380.97 1998.6 1383.61 Q1996.31 1386.23 1996.31 1390.97 Q1996.31 1395.72 1998.6 1398.36 Q2000.89 1400.97 2005.04 1400.97 Q2006.89 1400.97 2008.69 1400.49 Q2010.52 1399.98 2012.33 1398.98 L2012.33 1402.92 Q2010.55 1403.75 2008.63 1404.17 Q2006.73 1404.59 2004.57 1404.59 Q1998.72 1404.59 1995.27 1400.91 Q1991.82 1397.22 1991.82 1390.97 Q1991.82 1384.63 1995.29 1381 Q1998.79 1377.36 2004.85 1377.36 Q2006.82 1377.36 2008.69 1377.78 Q2010.57 1378.17 2012.33 1378.98 Z" fill="#000000" fill-rule="nonzero" fill-opacity="1" /><path clip-path="url(#clip850)" d="M2041.29 1388.27 L2041.29 1403.91 L2037.03 1403.91 L2037.03 1388.41 Q2037.03 1384.72 2035.59 1382.9 Q2034.16 1381.07 2031.29 1381.07 Q2027.84 1381.07 2025.85 1383.27 Q2023.86 1385.47 2023.86 1389.26 L2023.86 1403.91 L2019.57 1403.91 L2019.57 1367.9 L2023.86 1367.9 L2023.86 1382.02 Q2025.38 1379.68 2027.44 1378.52 Q2029.53 1377.36 2032.24 1377.36 Q2036.7 1377.36 2039 1380.14 Q2041.29 1382.9 2041.29 1388.27 Z" fill="#000000" fill-rule="nonzero" fill-opacity="1" /><path clip-path="url(#clip850)" d="M2049.78 1377.99 L2054.04 1377.99 L2054.04 1403.91 L2049.78 1403.91 L2049.78 1377.99 M2049.78 1367.9 L2054.04 1367.9 L2054.04 1373.29 L2049.78 1373.29 L2049.78 1367.9 Z" fill="#000000" fill-rule="nonzero" fill-opacity="1" /><path clip-path="url(#clip850)" d="M2084.5 1388.27 L2084.5 1403.91 L2080.25 1403.91 L2080.25 1388.41 Q2080.25 1384.72 2078.81 1382.9 Q2077.38 1381.07 2074.5 1381.07 Q2071.06 1381.07 2069.07 1383.27 Q2067.07 1385.47 2067.07 1389.26 L2067.07 1403.91 L2062.79 1403.91 L2062.79 1377.99 L2067.07 1377.99 L2067.07 1382.02 Q2068.6 1379.68 2070.66 1378.52 Q2072.75 1377.36 2075.45 1377.36 Q2079.92 1377.36 2082.21 1380.14 Q2084.5 1382.9 2084.5 1388.27 Z" fill="#000000" fill-rule="nonzero" fill-opacity="1" /><path clip-path="url(#clip850)" d="M2110.06 1390.65 Q2110.06 1386.02 2108.14 1383.47 Q2106.24 1380.93 2102.79 1380.93 Q2099.37 1380.93 2097.44 1383.47 Q2095.55 1386.02 2095.55 1390.65 Q2095.55 1395.26 2097.44 1397.8 Q2099.37 1400.35 2102.79 1400.35 Q2106.24 1400.35 2108.14 1397.8 Q2110.06 1395.26 2110.06 1390.65 M2114.32 1400.7 Q2114.32 1407.32 2111.38 1410.53 Q2108.44 1413.78 2102.38 1413.78 Q2100.13 1413.78 2098.14 1413.43 Q2096.15 1413.1 2094.27 1412.41 L2094.27 1408.27 Q2096.15 1409.28 2097.98 1409.77 Q2099.81 1410.26 2101.7 1410.26 Q2105.89 1410.26 2107.98 1408.06 Q2110.06 1405.88 2110.06 1401.46 L2110.06 1399.35 Q2108.74 1401.65 2106.68 1402.78 Q2104.62 1403.91 2101.75 1403.91 Q2096.98 1403.91 2094.06 1400.28 Q2091.15 1396.65 2091.15 1390.65 Q2091.15 1384.63 2094.06 1381 Q2096.98 1377.36 2101.75 1377.36 Q2104.62 1377.36 2106.68 1378.5 Q2108.74 1379.63 2110.06 1381.92 L2110.06 1377.99 L2114.32 1377.99 L2114.32 1400.7 Z" fill="#000000" fill-rule="nonzero" fill-opacity="1" /><path clip-path="url(#clip850)" d="M2138.16 1367.9 L2142.42 1367.9 L2142.42 1403.91 L2138.16 1403.91 L2138.16 1367.9 Z" fill="#000000" fill-rule="nonzero" fill-opacity="1" /><path clip-path="url(#clip850)" d="M2161.38 1380.97 Q2157.95 1380.97 2155.96 1383.66 Q2153.97 1386.32 2153.97 1390.97 Q2153.97 1395.63 2155.94 1398.31 Q2157.93 1400.97 2161.38 1400.97 Q2164.78 1400.97 2166.77 1398.29 Q2168.76 1395.6 2168.76 1390.97 Q2168.76 1386.37 2166.77 1383.68 Q2164.78 1380.97 2161.38 1380.97 M2161.38 1377.36 Q2166.93 1377.36 2170.11 1380.97 Q2173.28 1384.59 2173.28 1390.97 Q2173.28 1397.34 2170.11 1400.97 Q2166.93 1404.59 2161.38 1404.59 Q2155.8 1404.59 2152.63 1400.97 Q2149.48 1397.34 2149.48 1390.97 Q2149.48 1384.59 2152.63 1380.97 Q2155.8 1377.36 2161.38 1377.36 Z" fill="#000000" fill-rule="nonzero" fill-opacity="1" /><path clip-path="url(#clip850)" d="M2198.99 1378.98 L2198.99 1382.97 Q2197.19 1381.97 2195.36 1381.48 Q2193.56 1380.97 2191.7 1380.97 Q2187.56 1380.97 2185.27 1383.61 Q2182.98 1386.23 2182.98 1390.97 Q2182.98 1395.72 2185.27 1398.36 Q2187.56 1400.97 2191.7 1400.97 Q2193.56 1400.97 2195.36 1400.49 Q2197.19 1399.98 2198.99 1398.98 L2198.99 1402.92 Q2197.21 1403.75 2195.29 1404.17 Q2193.39 1404.59 2191.24 1404.59 Q2185.38 1404.59 2181.93 1400.91 Q2178.49 1397.22 2178.49 1390.97 Q2178.49 1384.63 2181.96 1381 Q2185.45 1377.36 2191.52 1377.36 Q2193.49 1377.36 2195.36 1377.78 Q2197.24 1378.17 2198.99 1378.98 Z" fill="#000000" fill-rule="nonzero" fill-opacity="1" /><path clip-path="url(#clip850)" d="M2205.96 1393.68 L2205.96 1377.99 L2210.22 1377.99 L2210.22 1393.52 Q2210.22 1397.2 2211.66 1399.05 Q2213.09 1400.88 2215.96 1400.88 Q2219.41 1400.88 2221.4 1398.68 Q2223.42 1396.48 2223.42 1392.69 L2223.42 1377.99 L2227.68 1377.99 L2227.68 1403.91 L2223.42 1403.91 L2223.42 1399.93 Q2221.87 1402.29 2219.8 1403.45 Q2217.77 1404.59 2215.06 1404.59 Q2210.59 1404.59 2208.28 1401.81 Q2205.96 1399.03 2205.96 1393.68 M2216.68 1377.36 L2216.68 1377.36 Z" fill="#000000" fill-rule="nonzero" fill-opacity="1" /><path clip-path="url(#clip850)" d="M2252.98 1378.75 L2252.98 1382.78 Q2251.17 1381.85 2249.23 1381.39 Q2247.28 1380.93 2245.2 1380.93 Q2242.03 1380.93 2240.43 1381.9 Q2238.86 1382.87 2238.86 1384.82 Q2238.86 1386.3 2239.99 1387.16 Q2241.12 1387.99 2244.55 1388.75 L2246.01 1389.08 Q2250.55 1390.05 2252.44 1391.83 Q2254.36 1393.59 2254.36 1396.76 Q2254.36 1400.37 2251.49 1402.48 Q2248.65 1404.59 2243.65 1404.59 Q2241.56 1404.59 2239.3 1404.17 Q2237.05 1403.78 2234.55 1402.97 L2234.55 1398.57 Q2236.91 1399.79 2239.2 1400.42 Q2241.49 1401.02 2243.74 1401.02 Q2246.75 1401.02 2248.37 1400 Q2249.99 1398.96 2249.99 1397.09 Q2249.99 1395.35 2248.81 1394.42 Q2247.65 1393.5 2243.69 1392.64 L2242.21 1392.29 Q2238.25 1391.46 2236.49 1389.75 Q2234.74 1388.01 2234.74 1385 Q2234.74 1381.35 2237.33 1379.35 Q2239.92 1377.36 2244.69 1377.36 Q2247.05 1377.36 2249.13 1377.71 Q2251.22 1378.06 2252.98 1378.75 Z" fill="#000000" fill-rule="nonzero" fill-opacity="1" /></svg>
