<?xml version="1.0" encoding="utf-8"?>
<svg xmlns="http://www.w3.org/2000/svg" xmlns:xlink="http://www.w3.org/1999/xlink" width="600" height="400" viewBox="0 0 2400 1600">
<defs>
  <clipPath id="clip280">
    <rect x="0" y="0" width="2400" height="1600"/>
  </clipPath>
</defs>
<path clip-path="url(#clip280)" d="M0 1600 L2400 1600 L2400 0 L0 0  Z" fill="#ffffff" fill-rule="evenodd" fill-opacity="1"/>
<defs>
  <clipPath id="clip281">
    <rect x="480" y="0" width="1681" height="1600"/>
  </clipPath>
</defs>
<path clip-path="url(#clip280)" d="M178.867 1486.45 L2352.76 1486.45 L2352.76 47.2441 L178.867 47.2441  Z" fill="#ffffff" fill-rule="evenodd" fill-opacity="1"/>
<defs>
  <clipPath id="clip282">
    <rect x="178" y="47" width="2175" height="1440"/>
  </clipPath>
</defs>
<polyline clip-path="url(#clip282)" style="stroke:#000000; stroke-linecap:round; stroke-linejoin:round; stroke-width:2; stroke-opacity:0.1; fill:none" points="178.867,1486.45 178.867,47.2441 "/>
<polyline clip-path="url(#clip282)" style="stroke:#000000; stroke-linecap:round; stroke-linejoin:round; stroke-width:2; stroke-opacity:0.1; fill:none" points="903.496,1486.45 903.496,47.2441 "/>
<polyline clip-path="url(#clip282)" style="stroke:#000000; stroke-linecap:round; stroke-linejoin:round; stroke-width:2; stroke-opacity:0.1; fill:none" points="1628.13,1486.45 1628.13,47.2441 "/>
<polyline clip-path="url(#clip282)" style="stroke:#000000; stroke-linecap:round; stroke-linejoin:round; stroke-width:2; stroke-opacity:0.1; fill:none" points="2352.76,1486.45 2352.76,47.2441 "/>
<polyline clip-path="url(#clip282)" style="stroke:#000000; stroke-linecap:round; stroke-linejoin:round; stroke-width:2; stroke-opacity:0.1; fill:none" points="178.867,1399.54 2352.76,1399.54 "/>
<polyline clip-path="url(#clip282)" style="stroke:#000000; stroke-linecap:round; stroke-linejoin:round; stroke-width:2; stroke-opacity:0.1; fill:none" points="178.867,1148.47 2352.76,1148.47 "/>
<polyline clip-path="url(#clip282)" style="stroke:#000000; stroke-linecap:round; stroke-linejoin:round; stroke-width:2; stroke-opacity:0.1; fill:none" points="178.867,897.409 2352.76,897.409 "/>
<polyline clip-path="url(#clip282)" style="stroke:#000000; stroke-linecap:round; stroke-linejoin:round; stroke-width:2; stroke-opacity:0.1; fill:none" points="178.867,646.345 2352.76,646.345 "/>
<polyline clip-path="url(#clip282)" style="stroke:#000000; stroke-linecap:round; stroke-linejoin:round; stroke-width:2; stroke-opacity:0.1; fill:none" points="178.867,395.28 2352.76,395.28 "/>
<polyline clip-path="url(#clip282)" style="stroke:#000000; stroke-linecap:round; stroke-linejoin:round; stroke-width:2; stroke-opacity:0.1; fill:none" points="178.867,144.215 2352.76,144.215 "/>
<polyline clip-path="url(#clip280)" style="stroke:#000000; stroke-linecap:round; stroke-linejoin:round; stroke-width:4; stroke-opacity:1; fill:none" points="178.867,1486.45 2352.76,1486.45 "/>
<polyline clip-path="url(#clip280)" style="stroke:#000000; stroke-linecap:round; stroke-linejoin:round; stroke-width:4; stroke-opacity:1; fill:none" points="178.867,1486.45 178.867,1467.55 "/>
<polyline clip-path="url(#clip280)" style="stroke:#000000; stroke-linecap:round; stroke-linejoin:round; stroke-width:4; stroke-opacity:1; fill:none" points="903.496,1486.45 903.496,1467.55 "/>
<polyline clip-path="url(#clip280)" style="stroke:#000000; stroke-linecap:round; stroke-linejoin:round; stroke-width:4; stroke-opacity:1; fill:none" points="1628.13,1486.45 1628.13,1467.55 "/>
<polyline clip-path="url(#clip280)" style="stroke:#000000; stroke-linecap:round; stroke-linejoin:round; stroke-width:4; stroke-opacity:1; fill:none" points="2352.76,1486.45 2352.76,1467.55 "/>
<path clip-path="url(#clip280)" d="M178.867 1517.37 Q175.256 1517.37 173.427 1520.93 Q171.621 1524.47 171.621 1531.6 Q171.621 1538.71 173.427 1542.27 Q175.256 1545.82 178.867 1545.82 Q182.501 1545.82 184.306 1542.27 Q186.135 1538.71 186.135 1531.6 Q186.135 1524.47 184.306 1520.93 Q182.501 1517.37 178.867 1517.37 M178.867 1513.66 Q184.677 1513.66 187.732 1518.27 Q190.811 1522.85 190.811 1531.6 Q190.811 1540.33 187.732 1544.94 Q184.677 1549.52 178.867 1549.52 Q173.056 1549.52 169.978 1544.94 Q166.922 1540.33 166.922 1531.6 Q166.922 1522.85 169.978 1518.27 Q173.056 1513.66 178.867 1513.66 Z" fill="#000000" fill-rule="nonzero" fill-opacity="1" /><path clip-path="url(#clip280)" d="M878.184 1544.91 L885.823 1544.91 L885.823 1518.55 L877.513 1520.21 L877.513 1515.95 L885.777 1514.29 L890.452 1514.29 L890.452 1544.91 L898.091 1544.91 L898.091 1548.85 L878.184 1548.85 L878.184 1544.91 Z" fill="#000000" fill-rule="nonzero" fill-opacity="1" /><path clip-path="url(#clip280)" d="M917.536 1517.37 Q913.925 1517.37 912.096 1520.93 Q910.29 1524.47 910.29 1531.6 Q910.29 1538.71 912.096 1542.27 Q913.925 1545.82 917.536 1545.82 Q921.17 1545.82 922.975 1542.27 Q924.804 1538.71 924.804 1531.6 Q924.804 1524.47 922.975 1520.93 Q921.17 1517.37 917.536 1517.37 M917.536 1513.66 Q923.346 1513.66 926.401 1518.27 Q929.48 1522.85 929.48 1531.6 Q929.48 1540.33 926.401 1544.94 Q923.346 1549.52 917.536 1549.52 Q911.726 1549.52 908.647 1544.94 Q905.591 1540.33 905.591 1531.6 Q905.591 1522.85 908.647 1518.27 Q911.726 1513.66 917.536 1513.66 Z" fill="#000000" fill-rule="nonzero" fill-opacity="1" /><path clip-path="url(#clip280)" d="M1606.9 1544.91 L1623.22 1544.91 L1623.22 1548.85 L1601.27 1548.85 L1601.27 1544.91 Q1603.94 1542.16 1608.52 1537.53 Q1613.13 1532.88 1614.31 1531.53 Q1616.55 1529.01 1617.43 1527.27 Q1618.33 1525.51 1618.33 1523.82 Q1618.33 1521.07 1616.39 1519.33 Q1614.47 1517.6 1611.37 1517.6 Q1609.17 1517.6 1606.71 1518.36 Q1604.28 1519.13 1601.51 1520.68 L1601.51 1515.95 Q1604.33 1514.82 1606.78 1514.24 Q1609.24 1513.66 1611.27 1513.66 Q1616.64 1513.66 1619.84 1516.35 Q1623.03 1519.03 1623.03 1523.52 Q1623.03 1525.65 1622.22 1527.57 Q1621.44 1529.47 1619.33 1532.07 Q1618.75 1532.74 1615.65 1535.95 Q1612.55 1539.15 1606.9 1544.91 Z" fill="#000000" fill-rule="nonzero" fill-opacity="1" /><path clip-path="url(#clip280)" d="M1643.03 1517.37 Q1639.42 1517.37 1637.59 1520.93 Q1635.79 1524.47 1635.79 1531.6 Q1635.79 1538.71 1637.59 1542.27 Q1639.42 1545.82 1643.03 1545.82 Q1646.67 1545.82 1648.47 1542.27 Q1650.3 1538.71 1650.3 1531.6 Q1650.3 1524.47 1648.47 1520.93 Q1646.67 1517.37 1643.03 1517.37 M1643.03 1513.66 Q1648.84 1513.66 1651.9 1518.27 Q1654.98 1522.85 1654.98 1531.6 Q1654.98 1540.33 1651.9 1544.94 Q1648.84 1549.52 1643.03 1549.52 Q1637.22 1549.52 1634.14 1544.94 Q1631.09 1540.33 1631.09 1531.6 Q1631.09 1522.85 1634.14 1518.27 Q1637.22 1513.66 1643.03 1513.66 Z" fill="#000000" fill-rule="nonzero" fill-opacity="1" /><path clip-path="url(#clip280)" d="M2341.6 1530.21 Q2344.96 1530.93 2346.83 1533.2 Q2348.73 1535.47 2348.73 1538.8 Q2348.73 1543.92 2345.21 1546.72 Q2341.69 1549.52 2335.21 1549.52 Q2333.03 1549.52 2330.72 1549.08 Q2328.43 1548.66 2325.97 1547.81 L2325.97 1543.29 Q2327.92 1544.43 2330.23 1545.01 Q2332.55 1545.58 2335.07 1545.58 Q2339.47 1545.58 2341.76 1543.85 Q2344.08 1542.11 2344.08 1538.8 Q2344.08 1535.75 2341.92 1534.03 Q2339.79 1532.3 2335.97 1532.3 L2331.95 1532.3 L2331.95 1528.45 L2336.16 1528.45 Q2339.61 1528.45 2341.44 1527.09 Q2343.27 1525.7 2343.27 1523.11 Q2343.27 1520.45 2341.37 1519.03 Q2339.49 1517.6 2335.97 1517.6 Q2334.05 1517.6 2331.85 1518.01 Q2329.65 1518.43 2327.02 1519.31 L2327.02 1515.14 Q2329.68 1514.4 2331.99 1514.03 Q2334.33 1513.66 2336.39 1513.66 Q2341.71 1513.66 2344.82 1516.09 Q2347.92 1518.5 2347.92 1522.62 Q2347.92 1525.49 2346.27 1527.48 Q2344.63 1529.45 2341.6 1530.21 Z" fill="#000000" fill-rule="nonzero" fill-opacity="1" /><path clip-path="url(#clip280)" d="M2367.59 1517.37 Q2363.98 1517.37 2362.15 1520.93 Q2360.35 1524.47 2360.35 1531.6 Q2360.35 1538.71 2362.15 1542.27 Q2363.98 1545.82 2367.59 1545.82 Q2371.23 1545.82 2373.03 1542.27 Q2374.86 1538.71 2374.86 1531.6 Q2374.86 1524.47 2373.03 1520.93 Q2371.23 1517.37 2367.59 1517.37 M2367.59 1513.66 Q2373.4 1513.66 2376.46 1518.27 Q2379.54 1522.85 2379.54 1531.6 Q2379.54 1540.33 2376.46 1544.94 Q2373.4 1549.52 2367.59 1549.52 Q2361.78 1549.52 2358.7 1544.94 Q2355.65 1540.33 2355.65 1531.6 Q2355.65 1522.85 2358.7 1518.27 Q2361.78 1513.66 2367.59 1513.66 Z" fill="#000000" fill-rule="nonzero" fill-opacity="1" /><polyline clip-path="url(#clip280)" style="stroke:#000000; stroke-linecap:round; stroke-linejoin:round; stroke-width:4; stroke-opacity:1; fill:none" points="178.867,1486.45 178.867,47.2441 "/>
<polyline clip-path="url(#clip280)" style="stroke:#000000; stroke-linecap:round; stroke-linejoin:round; stroke-width:4; stroke-opacity:1; fill:none" points="178.867,1399.54 197.764,1399.54 "/>
<polyline clip-path="url(#clip280)" style="stroke:#000000; stroke-linecap:round; stroke-linejoin:round; stroke-width:4; stroke-opacity:1; fill:none" points="178.867,1148.47 197.764,1148.47 "/>
<polyline clip-path="url(#clip280)" style="stroke:#000000; stroke-linecap:round; stroke-linejoin:round; stroke-width:4; stroke-opacity:1; fill:none" points="178.867,897.409 197.764,897.409 "/>
<polyline clip-path="url(#clip280)" style="stroke:#000000; stroke-linecap:round; stroke-linejoin:round; stroke-width:4; stroke-opacity:1; fill:none" points="178.867,646.345 197.764,646.345 "/>
<polyline clip-path="url(#clip280)" style="stroke:#000000; stroke-linecap:round; stroke-linejoin:round; stroke-width:4; stroke-opacity:1; fill:none" points="178.867,395.28 197.764,395.28 "/>
<polyline clip-path="url(#clip280)" style="stroke:#000000; stroke-linecap:round; stroke-linejoin:round; stroke-width:4; stroke-opacity:1; fill:none" points="178.867,144.215 197.764,144.215 "/>
<path clip-path="url(#clip280)" d="M50.9921 1399.99 L80.6679 1399.99 L80.6679 1403.93 L50.9921 1403.93 L50.9921 1399.99 Z" fill="#000000" fill-rule="nonzero" fill-opacity="1" /><path clip-path="url(#clip280)" d="M91.5706 1412.88 L99.2095 1412.88 L99.2095 1386.52 L90.8993 1388.19 L90.8993 1383.93 L99.1632 1382.26 L103.839 1382.26 L103.839 1412.88 L111.478 1412.88 L111.478 1416.82 L91.5706 1416.82 L91.5706 1412.88 Z" fill="#000000" fill-rule="nonzero" fill-opacity="1" /><path clip-path="url(#clip280)" d="M130.922 1385.34 Q127.311 1385.34 125.482 1388.9 Q123.677 1392.44 123.677 1399.57 Q123.677 1406.68 125.482 1410.25 Q127.311 1413.79 130.922 1413.79 Q134.556 1413.79 136.362 1410.25 Q138.191 1406.68 138.191 1399.57 Q138.191 1392.44 136.362 1388.9 Q134.556 1385.34 130.922 1385.34 M130.922 1381.63 Q136.732 1381.63 139.788 1386.24 Q142.867 1390.82 142.867 1399.57 Q142.867 1408.3 139.788 1412.91 Q136.732 1417.49 130.922 1417.49 Q125.112 1417.49 122.033 1412.91 Q118.978 1408.3 118.978 1399.57 Q118.978 1390.82 122.033 1386.24 Q125.112 1381.63 130.922 1381.63 Z" fill="#000000" fill-rule="nonzero" fill-opacity="1" /><path clip-path="url(#clip280)" d="M82.1494 1148.93 L111.825 1148.93 L111.825 1152.86 L82.1494 1152.86 L82.1494 1148.93 Z" fill="#000000" fill-rule="nonzero" fill-opacity="1" /><path clip-path="url(#clip280)" d="M121.964 1131.19 L140.32 1131.19 L140.32 1135.13 L126.246 1135.13 L126.246 1143.6 Q127.265 1143.25 128.283 1143.09 Q129.302 1142.91 130.32 1142.91 Q136.107 1142.91 139.487 1146.08 Q142.867 1149.25 142.867 1154.67 Q142.867 1160.25 139.394 1163.35 Q135.922 1166.43 129.603 1166.43 Q127.427 1166.43 125.158 1166.06 Q122.913 1165.68 120.506 1164.94 L120.506 1160.25 Q122.589 1161.38 124.811 1161.93 Q127.033 1162.49 129.51 1162.49 Q133.515 1162.49 135.853 1160.38 Q138.191 1158.28 138.191 1154.67 Q138.191 1151.06 135.853 1148.95 Q133.515 1146.84 129.51 1146.84 Q127.635 1146.84 125.76 1147.26 Q123.908 1147.68 121.964 1148.56 L121.964 1131.19 Z" fill="#000000" fill-rule="nonzero" fill-opacity="1" /><path clip-path="url(#clip280)" d="M130.922 883.208 Q127.311 883.208 125.482 886.773 Q123.677 890.315 123.677 897.444 Q123.677 904.551 125.482 908.115 Q127.311 911.657 130.922 911.657 Q134.556 911.657 136.362 908.115 Q138.191 904.551 138.191 897.444 Q138.191 890.315 136.362 886.773 Q134.556 883.208 130.922 883.208 M130.922 879.504 Q136.732 879.504 139.788 884.111 Q142.867 888.694 142.867 897.444 Q142.867 906.171 139.788 910.777 Q136.732 915.361 130.922 915.361 Q125.112 915.361 122.033 910.777 Q118.978 906.171 118.978 897.444 Q118.978 888.694 122.033 884.111 Q125.112 879.504 130.922 879.504 Z" fill="#000000" fill-rule="nonzero" fill-opacity="1" /><path clip-path="url(#clip280)" d="M121.964 629.065 L140.32 629.065 L140.32 633 L126.246 633 L126.246 641.472 Q127.265 641.125 128.283 640.963 Q129.302 640.777 130.32 640.777 Q136.107 640.777 139.487 643.949 Q142.867 647.12 142.867 652.537 Q142.867 658.115 139.394 661.217 Q135.922 664.296 129.603 664.296 Q127.427 664.296 125.158 663.926 Q122.913 663.555 120.506 662.814 L120.506 658.115 Q122.589 659.25 124.811 659.805 Q127.033 660.361 129.51 660.361 Q133.515 660.361 135.853 658.254 Q138.191 656.148 138.191 652.537 Q138.191 648.926 135.853 646.819 Q133.515 644.713 129.51 644.713 Q127.635 644.713 125.76 645.129 Q123.908 645.546 121.964 646.426 L121.964 629.065 Z" fill="#000000" fill-rule="nonzero" fill-opacity="1" /><path clip-path="url(#clip280)" d="M91.5706 408.625 L99.2095 408.625 L99.2095 382.259 L90.8993 383.926 L90.8993 379.666 L99.1632 378 L103.839 378 L103.839 408.625 L111.478 408.625 L111.478 412.56 L91.5706 412.56 L91.5706 408.625 Z" fill="#000000" fill-rule="nonzero" fill-opacity="1" /><path clip-path="url(#clip280)" d="M130.922 381.078 Q127.311 381.078 125.482 384.643 Q123.677 388.185 123.677 395.314 Q123.677 402.421 125.482 405.986 Q127.311 409.527 130.922 409.527 Q134.556 409.527 136.362 405.986 Q138.191 402.421 138.191 395.314 Q138.191 388.185 136.362 384.643 Q134.556 381.078 130.922 381.078 M130.922 377.375 Q136.732 377.375 139.788 381.981 Q142.867 386.564 142.867 395.314 Q142.867 404.041 139.788 408.648 Q136.732 413.231 130.922 413.231 Q125.112 413.231 122.033 408.648 Q118.978 404.041 118.978 395.314 Q118.978 386.564 122.033 381.981 Q125.112 377.375 130.922 377.375 Z" fill="#000000" fill-rule="nonzero" fill-opacity="1" /><path clip-path="url(#clip280)" d="M92.566 157.56 L100.205 157.56 L100.205 131.194 L91.8947 132.861 L91.8947 128.601 L100.159 126.935 L104.834 126.935 L104.834 157.56 L112.473 157.56 L112.473 161.495 L92.566 161.495 L92.566 157.56 Z" fill="#000000" fill-rule="nonzero" fill-opacity="1" /><path clip-path="url(#clip280)" d="M121.964 126.935 L140.32 126.935 L140.32 130.87 L126.246 130.87 L126.246 139.342 Q127.265 138.995 128.283 138.833 Q129.302 138.648 130.32 138.648 Q136.107 138.648 139.487 141.819 Q142.867 144.99 142.867 150.407 Q142.867 155.986 139.394 159.087 Q135.922 162.166 129.603 162.166 Q127.427 162.166 125.158 161.796 Q122.913 161.425 120.506 160.685 L120.506 155.986 Q122.589 157.12 124.811 157.675 Q127.033 158.231 129.51 158.231 Q133.515 158.231 135.853 156.124 Q138.191 154.018 138.191 150.407 Q138.191 146.796 135.853 144.689 Q133.515 142.583 129.51 142.583 Q127.635 142.583 125.76 143 Q123.908 143.416 121.964 144.296 L121.964 126.935 Z" fill="#000000" fill-rule="nonzero" fill-opacity="1" /><polyline clip-path="url(#clip282)" style="stroke:#009af9; stroke-linecap:round; stroke-linejoin:round; stroke-width:4; stroke-opacity:1; fill:none" points="178.867,1413.6 190.088,1416.04 201.309,1418.38 267.031,1430.18 332.753,1438.66 363.327,1441.49 393.901,1443.59 434.882,1445.3 475.862,1445.72 543.587,1443.59 606.565,1438.47 646.094,1433.7 685.623,1427.74 721.081,1421.37 756.539,1414.05 837.712,1393.65 898.388,1375.12 937.192,1361.79 975.995,1347.3 1011.41,1333.08 1046.83,1317.9 1087.13,1299.45 1127.44,1279.76 1159.39,1263.26 1191.35,1245.99 1231.04,1223.44 1270.74,1199.69 1301.14,1180.68 1331.55,1160.97 1374.41,1131.97 1417.27,1101.57 1449.3,1077.94 1481.33,1053.52 1517.75,1024.79 1554.18,995.051 1590.25,964.597 1626.33,933.149 1666.01,897.399 1705.7,860.444 1736.02,831.406 1766.33,801.664 1804.59,763.129 1842.84,723.475 1878.22,685.802 1913.6,647.172 1950.09,606.329 1986.58,564.466 2023.57,520.995 2060.55,476.476 2099.17,428.874 2137.79,380.131 2168.22,340.93 2198.64,301.021 2267.93,207.492 2337.21,110.292 2344.98,99.1571 2352.76,87.9763 "/>
</svg>
