<?xml version="1.0" encoding="utf-8"?>
<svg xmlns="http://www.w3.org/2000/svg" xmlns:xlink="http://www.w3.org/1999/xlink" width="600" height="400" viewBox="0 0 2400 1600">
<defs>
  <clipPath id="clip310">
    <rect x="0" y="0" width="2400" height="1600"/>
  </clipPath>
</defs>
<path clip-path="url(#clip310)" d="M0 1600 L2400 1600 L2400 0 L0 0  Z" fill="#ffffff" fill-rule="evenodd" fill-opacity="1"/>
<defs>
  <clipPath id="clip311">
    <rect x="480" y="0" width="1681" height="1600"/>
  </clipPath>
</defs>
<path clip-path="url(#clip310)" d="M156.598 1486.45 L2352.76 1486.45 L2352.76 47.2441 L156.598 47.2441  Z" fill="#ffffff" fill-rule="evenodd" fill-opacity="1"/>
<defs>
  <clipPath id="clip312">
    <rect x="156" y="47" width="2197" height="1440"/>
  </clipPath>
</defs>
<polyline clip-path="url(#clip312)" style="stroke:#000000; stroke-linecap:round; stroke-linejoin:round; stroke-width:2; stroke-opacity:0.1; fill:none" points="156.598,1486.45 156.598,47.2441 "/>
<polyline clip-path="url(#clip312)" style="stroke:#000000; stroke-linecap:round; stroke-linejoin:round; stroke-width:2; stroke-opacity:0.1; fill:none" points="705.638,1486.45 705.638,47.2441 "/>
<polyline clip-path="url(#clip312)" style="stroke:#000000; stroke-linecap:round; stroke-linejoin:round; stroke-width:2; stroke-opacity:0.1; fill:none" points="1254.68,1486.45 1254.68,47.2441 "/>
<polyline clip-path="url(#clip312)" style="stroke:#000000; stroke-linecap:round; stroke-linejoin:round; stroke-width:2; stroke-opacity:0.1; fill:none" points="1803.72,1486.45 1803.72,47.2441 "/>
<polyline clip-path="url(#clip312)" style="stroke:#000000; stroke-linecap:round; stroke-linejoin:round; stroke-width:2; stroke-opacity:0.1; fill:none" points="2352.76,1486.45 2352.76,47.2441 "/>
<polyline clip-path="url(#clip312)" style="stroke:#000000; stroke-linecap:round; stroke-linejoin:round; stroke-width:2; stroke-opacity:0.1; fill:none" points="156.598,1245.36 2352.76,1245.36 "/>
<polyline clip-path="url(#clip312)" style="stroke:#000000; stroke-linecap:round; stroke-linejoin:round; stroke-width:2; stroke-opacity:0.1; fill:none" points="156.598,936.725 2352.76,936.725 "/>
<polyline clip-path="url(#clip312)" style="stroke:#000000; stroke-linecap:round; stroke-linejoin:round; stroke-width:2; stroke-opacity:0.1; fill:none" points="156.598,628.089 2352.76,628.089 "/>
<polyline clip-path="url(#clip312)" style="stroke:#000000; stroke-linecap:round; stroke-linejoin:round; stroke-width:2; stroke-opacity:0.1; fill:none" points="156.598,319.453 2352.76,319.453 "/>
<polyline clip-path="url(#clip310)" style="stroke:#000000; stroke-linecap:round; stroke-linejoin:round; stroke-width:4; stroke-opacity:1; fill:none" points="156.598,1486.45 2352.76,1486.45 "/>
<polyline clip-path="url(#clip310)" style="stroke:#000000; stroke-linecap:round; stroke-linejoin:round; stroke-width:4; stroke-opacity:1; fill:none" points="156.598,1486.45 156.598,1467.55 "/>
<polyline clip-path="url(#clip310)" style="stroke:#000000; stroke-linecap:round; stroke-linejoin:round; stroke-width:4; stroke-opacity:1; fill:none" points="705.638,1486.45 705.638,1467.55 "/>
<polyline clip-path="url(#clip310)" style="stroke:#000000; stroke-linecap:round; stroke-linejoin:round; stroke-width:4; stroke-opacity:1; fill:none" points="1254.68,1486.45 1254.68,1467.55 "/>
<polyline clip-path="url(#clip310)" style="stroke:#000000; stroke-linecap:round; stroke-linejoin:round; stroke-width:4; stroke-opacity:1; fill:none" points="1803.72,1486.45 1803.72,1467.55 "/>
<polyline clip-path="url(#clip310)" style="stroke:#000000; stroke-linecap:round; stroke-linejoin:round; stroke-width:4; stroke-opacity:1; fill:none" points="2352.76,1486.45 2352.76,1467.55 "/>
<path clip-path="url(#clip310)" d="M156.598 1517.37 Q152.987 1517.37 151.158 1520.93 Q149.353 1524.47 149.353 1531.6 Q149.353 1538.71 151.158 1542.27 Q152.987 1545.82 156.598 1545.82 Q160.232 1545.82 162.038 1542.27 Q163.867 1538.71 163.867 1531.6 Q163.867 1524.47 162.038 1520.93 Q160.232 1517.37 156.598 1517.37 M156.598 1513.66 Q162.408 1513.66 165.464 1518.27 Q168.543 1522.85 168.543 1531.6 Q168.543 1540.33 165.464 1544.94 Q162.408 1549.52 156.598 1549.52 Q150.788 1549.52 147.709 1544.94 Q144.654 1540.33 144.654 1531.6 Q144.654 1522.85 147.709 1518.27 Q150.788 1513.66 156.598 1513.66 Z" fill="#000000" fill-rule="nonzero" fill-opacity="1" /><path clip-path="url(#clip310)" d="M700.29 1544.91 L716.61 1544.91 L716.61 1548.85 L694.665 1548.85 L694.665 1544.91 Q697.328 1542.16 701.911 1537.53 Q706.517 1532.88 707.698 1531.53 Q709.943 1529.01 710.823 1527.27 Q711.726 1525.51 711.726 1523.82 Q711.726 1521.07 709.781 1519.33 Q707.86 1517.6 704.758 1517.6 Q702.559 1517.6 700.105 1518.36 Q697.675 1519.13 694.897 1520.68 L694.897 1515.95 Q697.721 1514.82 700.175 1514.24 Q702.628 1513.66 704.665 1513.66 Q710.036 1513.66 713.23 1516.35 Q716.425 1519.03 716.425 1523.52 Q716.425 1525.65 715.614 1527.57 Q714.827 1529.47 712.721 1532.07 Q712.142 1532.74 709.04 1535.95 Q705.939 1539.15 700.29 1544.91 Z" fill="#000000" fill-rule="nonzero" fill-opacity="1" /><path clip-path="url(#clip310)" d="M1257.69 1518.36 L1245.88 1536.81 L1257.69 1536.81 L1257.69 1518.36 M1256.46 1514.29 L1262.34 1514.29 L1262.34 1536.81 L1267.27 1536.81 L1267.27 1540.7 L1262.34 1540.7 L1262.34 1548.85 L1257.69 1548.85 L1257.69 1540.7 L1242.08 1540.7 L1242.08 1536.19 L1256.46 1514.29 Z" fill="#000000" fill-rule="nonzero" fill-opacity="1" /><path clip-path="url(#clip310)" d="M1804.12 1529.7 Q1800.97 1529.7 1799.12 1531.86 Q1797.29 1534.01 1797.29 1537.76 Q1797.29 1541.49 1799.12 1543.66 Q1800.97 1545.82 1804.12 1545.82 Q1807.27 1545.82 1809.1 1543.66 Q1810.95 1541.49 1810.95 1537.76 Q1810.95 1534.01 1809.1 1531.86 Q1807.27 1529.7 1804.12 1529.7 M1813.4 1515.05 L1813.4 1519.31 Q1811.64 1518.48 1809.84 1518.04 Q1808.06 1517.6 1806.3 1517.6 Q1801.67 1517.6 1799.21 1520.72 Q1796.78 1523.85 1796.44 1530.17 Q1797.8 1528.15 1799.86 1527.09 Q1801.92 1526 1804.4 1526 Q1809.61 1526 1812.62 1529.17 Q1815.65 1532.32 1815.65 1537.76 Q1815.65 1543.08 1812.5 1546.3 Q1809.35 1549.52 1804.12 1549.52 Q1798.13 1549.52 1794.95 1544.94 Q1791.78 1540.33 1791.78 1531.6 Q1791.78 1523.41 1795.67 1518.55 Q1799.56 1513.66 1806.11 1513.66 Q1807.87 1513.66 1809.65 1514.01 Q1811.46 1514.36 1813.4 1515.05 Z" fill="#000000" fill-rule="nonzero" fill-opacity="1" /><path clip-path="url(#clip310)" d="M2352.76 1532.44 Q2349.42 1532.44 2347.5 1534.22 Q2345.6 1536 2345.6 1539.13 Q2345.6 1542.25 2347.5 1544.03 Q2349.42 1545.82 2352.76 1545.82 Q2356.09 1545.82 2358.01 1544.03 Q2359.93 1542.23 2359.93 1539.13 Q2359.93 1536 2358.01 1534.22 Q2356.11 1532.44 2352.76 1532.44 M2348.08 1530.45 Q2345.07 1529.7 2343.38 1527.64 Q2341.71 1525.58 2341.71 1522.62 Q2341.71 1518.48 2344.65 1516.07 Q2347.62 1513.66 2352.76 1513.66 Q2357.92 1513.66 2360.86 1516.07 Q2363.8 1518.48 2363.8 1522.62 Q2363.8 1525.58 2362.11 1527.64 Q2360.44 1529.7 2357.45 1530.45 Q2360.83 1531.23 2362.71 1533.52 Q2364.61 1535.82 2364.61 1539.13 Q2364.61 1544.15 2361.53 1546.83 Q2358.47 1549.52 2352.76 1549.52 Q2347.04 1549.52 2343.96 1546.83 Q2340.9 1544.15 2340.9 1539.13 Q2340.9 1535.82 2342.8 1533.52 Q2344.7 1531.23 2348.08 1530.45 M2346.37 1523.06 Q2346.37 1525.75 2348.03 1527.25 Q2349.72 1528.76 2352.76 1528.76 Q2355.77 1528.76 2357.45 1527.25 Q2359.17 1525.75 2359.17 1523.06 Q2359.17 1520.38 2357.45 1518.87 Q2355.77 1517.37 2352.76 1517.37 Q2349.72 1517.37 2348.03 1518.87 Q2346.37 1520.38 2346.37 1523.06 Z" fill="#000000" fill-rule="nonzero" fill-opacity="1" /><polyline clip-path="url(#clip310)" style="stroke:#000000; stroke-linecap:round; stroke-linejoin:round; stroke-width:4; stroke-opacity:1; fill:none" points="156.598,1486.45 156.598,47.2441 "/>
<polyline clip-path="url(#clip310)" style="stroke:#000000; stroke-linecap:round; stroke-linejoin:round; stroke-width:4; stroke-opacity:1; fill:none" points="156.598,1245.36 175.496,1245.36 "/>
<polyline clip-path="url(#clip310)" style="stroke:#000000; stroke-linecap:round; stroke-linejoin:round; stroke-width:4; stroke-opacity:1; fill:none" points="156.598,936.725 175.496,936.725 "/>
<polyline clip-path="url(#clip310)" style="stroke:#000000; stroke-linecap:round; stroke-linejoin:round; stroke-width:4; stroke-opacity:1; fill:none" points="156.598,628.089 175.496,628.089 "/>
<polyline clip-path="url(#clip310)" style="stroke:#000000; stroke-linecap:round; stroke-linejoin:round; stroke-width:4; stroke-opacity:1; fill:none" points="156.598,319.453 175.496,319.453 "/>
<path clip-path="url(#clip310)" d="M63.4226 1231.16 Q59.8115 1231.16 57.9828 1234.72 Q56.1773 1238.27 56.1773 1245.4 Q56.1773 1252.5 57.9828 1256.07 Q59.8115 1259.61 63.4226 1259.61 Q67.0569 1259.61 68.8624 1256.07 Q70.6911 1252.5 70.6911 1245.4 Q70.6911 1238.27 68.8624 1234.72 Q67.0569 1231.16 63.4226 1231.16 M63.4226 1227.46 Q69.2328 1227.46 72.2883 1232.06 Q75.367 1236.65 75.367 1245.4 Q75.367 1254.12 72.2883 1258.73 Q69.2328 1263.31 63.4226 1263.31 Q57.6125 1263.31 54.5338 1258.73 Q51.4782 1254.12 51.4782 1245.4 Q51.4782 1236.65 54.5338 1232.06 Q57.6125 1227.46 63.4226 1227.46 Z" fill="#000000" fill-rule="nonzero" fill-opacity="1" /><path clip-path="url(#clip310)" d="M83.5845 1256.76 L88.4688 1256.76 L88.4688 1262.64 L83.5845 1262.64 L83.5845 1256.76 Z" fill="#000000" fill-rule="nonzero" fill-opacity="1" /><path clip-path="url(#clip310)" d="M108.654 1231.16 Q105.043 1231.16 103.214 1234.72 Q101.409 1238.27 101.409 1245.4 Q101.409 1252.5 103.214 1256.07 Q105.043 1259.61 108.654 1259.61 Q112.288 1259.61 114.094 1256.07 Q115.922 1252.5 115.922 1245.4 Q115.922 1238.27 114.094 1234.72 Q112.288 1231.16 108.654 1231.16 M108.654 1227.46 Q114.464 1227.46 117.52 1232.06 Q120.598 1236.65 120.598 1245.4 Q120.598 1254.12 117.52 1258.73 Q114.464 1263.31 108.654 1263.31 Q102.844 1263.31 99.765 1258.73 Q96.7095 1254.12 96.7095 1245.4 Q96.7095 1236.65 99.765 1232.06 Q102.844 1227.46 108.654 1227.46 Z" fill="#000000" fill-rule="nonzero" fill-opacity="1" /><path clip-path="url(#clip310)" d="M65.0198 922.524 Q61.4087 922.524 59.58 926.089 Q57.7745 929.63 57.7745 936.76 Q57.7745 943.866 59.58 947.431 Q61.4087 950.973 65.0198 950.973 Q68.6541 950.973 70.4596 947.431 Q72.2883 943.866 72.2883 936.76 Q72.2883 929.63 70.4596 926.089 Q68.6541 922.524 65.0198 922.524 M65.0198 918.82 Q70.83 918.82 73.8855 923.427 Q76.9642 928.01 76.9642 936.76 Q76.9642 945.487 73.8855 950.093 Q70.83 954.676 65.0198 954.676 Q59.2097 954.676 56.131 950.093 Q53.0754 945.487 53.0754 936.76 Q53.0754 928.01 56.131 923.427 Q59.2097 918.82 65.0198 918.82 Z" fill="#000000" fill-rule="nonzero" fill-opacity="1" /><path clip-path="url(#clip310)" d="M85.1818 948.125 L90.066 948.125 L90.066 954.005 L85.1818 954.005 L85.1818 948.125 Z" fill="#000000" fill-rule="nonzero" fill-opacity="1" /><path clip-path="url(#clip310)" d="M104.279 950.07 L120.598 950.07 L120.598 954.005 L98.6539 954.005 L98.6539 950.07 Q101.316 947.315 105.899 942.686 Q110.506 938.033 111.686 936.69 Q113.932 934.167 114.811 932.431 Q115.714 930.672 115.714 928.982 Q115.714 926.227 113.77 924.491 Q111.848 922.755 108.746 922.755 Q106.547 922.755 104.094 923.519 Q101.663 924.283 98.8854 925.834 L98.8854 921.112 Q101.709 919.977 104.163 919.399 Q106.617 918.82 108.654 918.82 Q114.024 918.82 117.219 921.505 Q120.413 924.19 120.413 928.681 Q120.413 930.811 119.603 932.732 Q118.816 934.63 116.709 937.223 Q116.131 937.894 113.029 941.112 Q109.927 944.306 104.279 950.07 Z" fill="#000000" fill-rule="nonzero" fill-opacity="1" /><path clip-path="url(#clip310)" d="M62.9365 613.888 Q59.3254 613.888 57.4967 617.453 Q55.6912 620.994 55.6912 628.124 Q55.6912 635.23 57.4967 638.795 Q59.3254 642.337 62.9365 642.337 Q66.5707 642.337 68.3763 638.795 Q70.205 635.23 70.205 628.124 Q70.205 620.994 68.3763 617.453 Q66.5707 613.888 62.9365 613.888 M62.9365 610.184 Q68.7467 610.184 71.8022 614.791 Q74.8809 619.374 74.8809 628.124 Q74.8809 636.851 71.8022 641.457 Q68.7467 646.04 62.9365 646.04 Q57.1264 646.04 54.0477 641.457 Q50.9921 636.851 50.9921 628.124 Q50.9921 619.374 54.0477 614.791 Q57.1264 610.184 62.9365 610.184 Z" fill="#000000" fill-rule="nonzero" fill-opacity="1" /><path clip-path="url(#clip310)" d="M83.0984 639.49 L87.9827 639.49 L87.9827 645.369 L83.0984 645.369 L83.0984 639.49 Z" fill="#000000" fill-rule="nonzero" fill-opacity="1" /><path clip-path="url(#clip310)" d="M111.015 614.883 L99.2095 633.332 L111.015 633.332 L111.015 614.883 M109.788 610.809 L115.668 610.809 L115.668 633.332 L120.598 633.332 L120.598 637.221 L115.668 637.221 L115.668 645.369 L111.015 645.369 L111.015 637.221 L95.4132 637.221 L95.4132 632.707 L109.788 610.809 Z" fill="#000000" fill-rule="nonzero" fill-opacity="1" /><path clip-path="url(#clip310)" d="M63.2606 305.252 Q59.6495 305.252 57.8208 308.817 Q56.0152 312.358 56.0152 319.488 Q56.0152 326.594 57.8208 330.159 Q59.6495 333.701 63.2606 333.701 Q66.8948 333.701 68.7004 330.159 Q70.5291 326.594 70.5291 319.488 Q70.5291 312.358 68.7004 308.817 Q66.8948 305.252 63.2606 305.252 M63.2606 301.548 Q69.0707 301.548 72.1263 306.155 Q75.205 310.738 75.205 319.488 Q75.205 328.215 72.1263 332.821 Q69.0707 337.405 63.2606 337.405 Q57.4504 337.405 54.3717 332.821 Q51.3162 328.215 51.3162 319.488 Q51.3162 310.738 54.3717 306.155 Q57.4504 301.548 63.2606 301.548 Z" fill="#000000" fill-rule="nonzero" fill-opacity="1" /><path clip-path="url(#clip310)" d="M83.4225 330.854 L88.3067 330.854 L88.3067 336.733 L83.4225 336.733 L83.4225 330.854 Z" fill="#000000" fill-rule="nonzero" fill-opacity="1" /><path clip-path="url(#clip310)" d="M109.071 317.59 Q105.922 317.59 104.071 319.743 Q102.242 321.895 102.242 325.645 Q102.242 329.372 104.071 331.548 Q105.922 333.701 109.071 333.701 Q112.219 333.701 114.047 331.548 Q115.899 329.372 115.899 325.645 Q115.899 321.895 114.047 319.743 Q112.219 317.59 109.071 317.59 M118.353 302.937 L118.353 307.196 Q116.594 306.363 114.788 305.923 Q113.006 305.483 111.246 305.483 Q106.617 305.483 104.163 308.608 Q101.733 311.733 101.385 318.053 Q102.751 316.039 104.811 314.974 Q106.871 313.886 109.348 313.886 Q114.557 313.886 117.566 317.057 Q120.598 320.206 120.598 325.645 Q120.598 330.969 117.45 334.187 Q114.302 337.405 109.071 337.405 Q103.075 337.405 99.9039 332.821 Q96.7326 328.215 96.7326 319.488 Q96.7326 311.294 100.621 306.432 Q104.51 301.548 111.061 301.548 Q112.82 301.548 114.603 301.895 Q116.408 302.243 118.353 302.937 Z" fill="#000000" fill-rule="nonzero" fill-opacity="1" /><polyline clip-path="url(#clip312)" style="stroke:#009af9; stroke-linecap:round; stroke-linejoin:round; stroke-width:8; stroke-opacity:1; fill:none" points="156.598,87.9763 178.782,193.578 200.965,316.772 223.148,448.735 245.332,581.844 267.515,709.747 289.699,827.545 311.882,931.899 334.066,1021.02 356.249,1094.47 378.432,1152.92 400.616,1197.77 422.799,1230.84 444.983,1254.1 467.166,1269.47 489.349,1278.65 511.533,1283.11 533.716,1284.04 555.9,1282.35 578.083,1278.76 600.266,1273.78 622.45,1267.8 644.633,1261.15 666.817,1254.08 689,1246.89 711.184,1239.87 733.367,1233.42 755.55,1228.02 777.734,1224.27 799.917,1222.83 822.101,1224.43 844.284,1229.74 866.467,1239.31 888.651,1253.44 910.834,1272.03 933.018,1294.55 955.201,1319.95 977.384,1346.78 999.568,1373.27 1021.75,1397.58 1043.93,1418.03 1066.12,1433.29 1088.3,1442.59 1110.48,1445.72 1132.67,1443.04 1154.85,1435.37 1177.04,1423.78 1199.22,1409.47 1221.4,1393.6 1243.59,1377.18 1265.77,1361 1287.95,1345.66 1310.14,1331.5 1332.32,1318.72 1354.5,1307.38 1376.69,1297.42 1398.87,1288.75 1421.05,1281.22 1443.24,1274.7 1465.42,1269.03 1487.6,1264.11 1509.79,1259.82 1531.97,1256.09 1554.15,1252.87 1576.34,1250.15 1598.52,1247.94 1620.7,1246.27 1642.89,1245.2 1665.07,1244.82 1687.25,1245.18 1709.44,1246.36 1731.62,1248.36 1753.8,1251.15 1775.99,1254.62 1798.17,1258.59 1820.35,1262.83 1842.54,1267.03 1864.72,1270.9 1886.9,1274.15 1909.09,1276.56 1931.27,1277.99 1953.45,1278.41 1975.64,1277.87 1997.82,1276.5 2020,1274.47 2042.19,1272 2064.37,1269.28 2086.55,1266.48 2108.74,1263.74 2130.92,1261.17 2153.11,1258.81 2175.29,1256.7 2197.47,1254.85 2219.66,1253.26 2241.84,1251.88 2264.02,1250.72 2286.21,1249.73 2308.39,1248.88 2330.57,1248.17 2352.76,1247.56 "/>
<circle clip-path="url(#clip312)" cx="435.628" cy="1245.36" r="14.4" fill="#000000" fill-rule="evenodd" fill-opacity="1" stroke="none"/>
<circle clip-path="url(#clip312)" cx="693.733" cy="1245.36" r="14.4" fill="#000000" fill-rule="evenodd" fill-opacity="1" stroke="none"/>
<circle clip-path="url(#clip312)" cx="876.864" cy="1245.36" r="14.4" fill="#000000" fill-rule="evenodd" fill-opacity="1" stroke="none"/>
<circle clip-path="url(#clip312)" cx="1638.49" cy="1245.36" r="14.4" fill="#000000" fill-rule="evenodd" fill-opacity="1" stroke="none"/>
<circle clip-path="url(#clip312)" cx="1691.89" cy="1245.36" r="14.4" fill="#000000" fill-rule="evenodd" fill-opacity="1" stroke="none"/>
<path clip-path="url(#clip310)" d="M1966.83 198.898 L2279.55 198.898 L2279.55 95.2176 L1966.83 95.2176  Z" fill="#ffffff" fill-rule="evenodd" fill-opacity="1"/>
<polyline clip-path="url(#clip310)" style="stroke:#000000; stroke-linecap:round; stroke-linejoin:round; stroke-width:4; stroke-opacity:1; fill:none" points="1966.83,198.898 2279.55,198.898 2279.55,95.2176 1966.83,95.2176 1966.83,198.898 "/>
<polyline clip-path="url(#clip310)" style="stroke:#009af9; stroke-linecap:round; stroke-linejoin:round; stroke-width:8; stroke-opacity:1; fill:none" points="1991.24,147.058 2137.65,147.058 "/>
<path clip-path="url(#clip310)" d="M2178.44 148.134 Q2179.94 148.643 2181.35 150.31 Q2182.79 151.977 2184.22 154.893 L2188.97 164.338 L2183.95 164.338 L2179.52 155.472 Q2177.81 152 2176.19 150.865 Q2174.59 149.731 2171.82 149.731 L2166.72 149.731 L2166.72 164.338 L2162.05 164.338 L2162.05 129.778 L2172.6 129.778 Q2178.53 129.778 2181.45 132.254 Q2184.36 134.731 2184.36 139.731 Q2184.36 142.995 2182.83 145.148 Q2181.33 147.301 2178.44 148.134 M2166.72 133.62 L2166.72 145.889 L2172.6 145.889 Q2175.98 145.889 2177.7 144.338 Q2179.43 142.764 2179.43 139.731 Q2179.43 136.699 2177.7 135.171 Q2175.98 133.62 2172.6 133.62 L2166.72 133.62 Z" fill="#000000" fill-rule="nonzero" fill-opacity="1" /><path clip-path="url(#clip310)" d="M2214.85 150.31 L2214.85 152.393 L2195.26 152.393 Q2195.54 156.791 2197.9 159.106 Q2200.29 161.398 2204.52 161.398 Q2206.98 161.398 2209.27 160.796 Q2211.58 160.194 2213.85 158.99 L2213.85 163.018 Q2211.56 163.99 2209.15 164.5 Q2206.75 165.009 2204.27 165.009 Q2198.07 165.009 2194.43 161.398 Q2190.82 157.787 2190.82 151.629 Q2190.82 145.264 2194.25 141.537 Q2197.7 137.787 2203.53 137.787 Q2208.76 137.787 2211.79 141.166 Q2214.85 144.523 2214.85 150.31 M2210.59 149.06 Q2210.54 145.565 2208.62 143.481 Q2206.72 141.398 2203.58 141.398 Q2200.01 141.398 2197.86 143.412 Q2195.73 145.426 2195.4 149.083 L2210.59 149.06 Z" fill="#000000" fill-rule="nonzero" fill-opacity="1" /><path clip-path="url(#clip310)" d="M2233.62 151.305 Q2228.46 151.305 2226.47 152.486 Q2224.48 153.666 2224.48 156.514 Q2224.48 158.782 2225.96 160.125 Q2227.46 161.444 2230.03 161.444 Q2233.57 161.444 2235.7 158.944 Q2237.86 156.421 2237.86 152.254 L2237.86 151.305 L2233.62 151.305 M2242.12 149.546 L2242.12 164.338 L2237.86 164.338 L2237.86 160.402 Q2236.4 162.763 2234.22 163.898 Q2232.05 165.009 2228.9 165.009 Q2224.92 165.009 2222.56 162.787 Q2220.22 160.541 2220.22 156.791 Q2220.22 152.416 2223.14 150.194 Q2226.07 147.972 2231.89 147.972 L2237.86 147.972 L2237.86 147.555 Q2237.86 144.615 2235.91 143.018 Q2233.99 141.398 2230.5 141.398 Q2228.27 141.398 2226.17 141.93 Q2224.06 142.463 2222.12 143.527 L2222.12 139.592 Q2224.45 138.69 2226.65 138.25 Q2228.85 137.787 2230.94 137.787 Q2236.56 137.787 2239.34 140.703 Q2242.12 143.62 2242.12 149.546 Z" fill="#000000" fill-rule="nonzero" fill-opacity="1" /><path clip-path="url(#clip310)" d="M2250.89 128.319 L2255.15 128.319 L2255.15 164.338 L2250.89 164.338 L2250.89 128.319 Z" fill="#000000" fill-rule="nonzero" fill-opacity="1" /></svg>
