<?xml version="1.0" encoding="utf-8"?>
<svg xmlns="http://www.w3.org/2000/svg" xmlns:xlink="http://www.w3.org/1999/xlink" width="600" height="400" viewBox="0 0 2400 1600">
<defs>
  <clipPath id="clip420">
    <rect x="0" y="0" width="2400" height="1600"/>
  </clipPath>
</defs>
<path clip-path="url(#clip420)" d="M0 1600 L2400 1600 L2400 0 L0 0  Z" fill="#ffffff" fill-rule="evenodd" fill-opacity="1"/>
<defs>
  <clipPath id="clip421">
    <rect x="480" y="0" width="1681" height="1600"/>
  </clipPath>
</defs>
<path clip-path="url(#clip420)" d="M232.389 1423.18 L2352.76 1423.18 L2352.76 47.2441 L232.389 47.2441  Z" fill="#ffffff" fill-rule="evenodd" fill-opacity="1"/>
<defs>
  <clipPath id="clip422">
    <rect x="232" y="47" width="2121" height="1377"/>
  </clipPath>
</defs>
<polyline clip-path="url(#clip422)" style="stroke:#000000; stroke-linecap:round; stroke-linejoin:round; stroke-width:2; stroke-opacity:0.1; fill:none" points="232.389,1423.18 232.389,47.2441 "/>
<polyline clip-path="url(#clip422)" style="stroke:#000000; stroke-linecap:round; stroke-linejoin:round; stroke-width:2; stroke-opacity:0.1; fill:none" points="762.481,1423.18 762.481,47.2441 "/>
<polyline clip-path="url(#clip422)" style="stroke:#000000; stroke-linecap:round; stroke-linejoin:round; stroke-width:2; stroke-opacity:0.1; fill:none" points="1292.57,1423.18 1292.57,47.2441 "/>
<polyline clip-path="url(#clip422)" style="stroke:#000000; stroke-linecap:round; stroke-linejoin:round; stroke-width:2; stroke-opacity:0.1; fill:none" points="1822.66,1423.18 1822.66,47.2441 "/>
<polyline clip-path="url(#clip422)" style="stroke:#000000; stroke-linecap:round; stroke-linejoin:round; stroke-width:2; stroke-opacity:0.1; fill:none" points="2352.76,1423.18 2352.76,47.2441 "/>
<polyline clip-path="url(#clip422)" style="stroke:#000000; stroke-linecap:round; stroke-linejoin:round; stroke-width:2; stroke-opacity:0.1; fill:none" points="232.389,1423.18 2352.76,1423.18 "/>
<polyline clip-path="url(#clip422)" style="stroke:#000000; stroke-linecap:round; stroke-linejoin:round; stroke-width:2; stroke-opacity:0.1; fill:none" points="232.389,1147.99 2352.76,1147.99 "/>
<polyline clip-path="url(#clip422)" style="stroke:#000000; stroke-linecap:round; stroke-linejoin:round; stroke-width:2; stroke-opacity:0.1; fill:none" points="232.389,872.806 2352.76,872.806 "/>
<polyline clip-path="url(#clip422)" style="stroke:#000000; stroke-linecap:round; stroke-linejoin:round; stroke-width:2; stroke-opacity:0.1; fill:none" points="232.389,597.618 2352.76,597.618 "/>
<polyline clip-path="url(#clip422)" style="stroke:#000000; stroke-linecap:round; stroke-linejoin:round; stroke-width:2; stroke-opacity:0.1; fill:none" points="232.389,322.431 2352.76,322.431 "/>
<polyline clip-path="url(#clip422)" style="stroke:#000000; stroke-linecap:round; stroke-linejoin:round; stroke-width:2; stroke-opacity:0.1; fill:none" points="232.389,47.2441 2352.76,47.2441 "/>
<polyline clip-path="url(#clip420)" style="stroke:#000000; stroke-linecap:round; stroke-linejoin:round; stroke-width:4; stroke-opacity:1; fill:none" points="232.389,1423.18 2352.76,1423.18 "/>
<polyline clip-path="url(#clip420)" style="stroke:#000000; stroke-linecap:round; stroke-linejoin:round; stroke-width:4; stroke-opacity:1; fill:none" points="232.389,1423.18 232.389,1404.28 "/>
<polyline clip-path="url(#clip420)" style="stroke:#000000; stroke-linecap:round; stroke-linejoin:round; stroke-width:4; stroke-opacity:1; fill:none" points="762.481,1423.18 762.481,1404.28 "/>
<polyline clip-path="url(#clip420)" style="stroke:#000000; stroke-linecap:round; stroke-linejoin:round; stroke-width:4; stroke-opacity:1; fill:none" points="1292.57,1423.18 1292.57,1404.28 "/>
<polyline clip-path="url(#clip420)" style="stroke:#000000; stroke-linecap:round; stroke-linejoin:round; stroke-width:4; stroke-opacity:1; fill:none" points="1822.66,1423.18 1822.66,1404.28 "/>
<polyline clip-path="url(#clip420)" style="stroke:#000000; stroke-linecap:round; stroke-linejoin:round; stroke-width:4; stroke-opacity:1; fill:none" points="2352.76,1423.18 2352.76,1404.28 "/>
<path clip-path="url(#clip420)" d="M232.389 1454.1 Q228.778 1454.1 226.95 1457.66 Q225.144 1461.2 225.144 1468.33 Q225.144 1475.44 226.95 1479.01 Q228.778 1482.55 232.389 1482.55 Q236.024 1482.55 237.829 1479.01 Q239.658 1475.44 239.658 1468.33 Q239.658 1461.2 237.829 1457.66 Q236.024 1454.1 232.389 1454.1 M232.389 1450.39 Q238.2 1450.39 241.255 1455 Q244.334 1459.58 244.334 1468.33 Q244.334 1477.06 241.255 1481.67 Q238.2 1486.25 232.389 1486.25 Q226.579 1486.25 223.501 1481.67 Q220.445 1477.06 220.445 1468.33 Q220.445 1459.58 223.501 1455 Q226.579 1450.39 232.389 1450.39 Z" fill="#000000" fill-rule="nonzero" fill-opacity="1" /><path clip-path="url(#clip420)" d="M737.18 1451.02 L755.537 1451.02 L755.537 1454.96 L741.463 1454.96 L741.463 1463.43 Q742.481 1463.08 743.5 1462.92 Q744.518 1462.73 745.537 1462.73 Q751.324 1462.73 754.703 1465.9 Q758.083 1469.08 758.083 1474.49 Q758.083 1480.07 754.611 1483.17 Q751.138 1486.25 744.819 1486.25 Q742.643 1486.25 740.375 1485.88 Q738.129 1485.51 735.722 1484.77 L735.722 1480.07 Q737.805 1481.2 740.027 1481.76 Q742.25 1482.32 744.726 1482.32 Q748.731 1482.32 751.069 1480.21 Q753.407 1478.1 753.407 1474.49 Q753.407 1470.88 751.069 1468.77 Q748.731 1466.67 744.726 1466.67 Q742.851 1466.67 740.976 1467.08 Q739.125 1467.5 737.18 1468.38 L737.18 1451.02 Z" fill="#000000" fill-rule="nonzero" fill-opacity="1" /><path clip-path="url(#clip420)" d="M777.296 1454.1 Q773.685 1454.1 771.856 1457.66 Q770.05 1461.2 770.05 1468.33 Q770.05 1475.44 771.856 1479.01 Q773.685 1482.55 777.296 1482.55 Q780.93 1482.55 782.736 1479.01 Q784.564 1475.44 784.564 1468.33 Q784.564 1461.2 782.736 1457.66 Q780.93 1454.1 777.296 1454.1 M777.296 1450.39 Q783.106 1450.39 786.161 1455 Q789.24 1459.58 789.24 1468.33 Q789.24 1477.06 786.161 1481.67 Q783.106 1486.25 777.296 1486.25 Q771.486 1486.25 768.407 1481.67 Q765.351 1477.06 765.351 1468.33 Q765.351 1459.58 768.407 1455 Q771.486 1450.39 777.296 1450.39 Z" fill="#000000" fill-rule="nonzero" fill-opacity="1" /><path clip-path="url(#clip420)" d="M1252.18 1481.64 L1259.82 1481.64 L1259.82 1455.28 L1251.51 1456.95 L1251.51 1452.69 L1259.77 1451.02 L1264.45 1451.02 L1264.45 1481.64 L1272.09 1481.64 L1272.09 1485.58 L1252.18 1485.58 L1252.18 1481.64 Z" fill="#000000" fill-rule="nonzero" fill-opacity="1" /><path clip-path="url(#clip420)" d="M1291.53 1454.1 Q1287.92 1454.1 1286.09 1457.66 Q1284.29 1461.2 1284.29 1468.33 Q1284.29 1475.44 1286.09 1479.01 Q1287.92 1482.55 1291.53 1482.55 Q1295.17 1482.55 1296.97 1479.01 Q1298.8 1475.44 1298.8 1468.33 Q1298.8 1461.2 1296.97 1457.66 Q1295.17 1454.1 1291.53 1454.1 M1291.53 1450.39 Q1297.34 1450.39 1300.4 1455 Q1303.48 1459.58 1303.48 1468.33 Q1303.48 1477.06 1300.4 1481.67 Q1297.34 1486.25 1291.53 1486.25 Q1285.72 1486.25 1282.64 1481.67 Q1279.59 1477.06 1279.59 1468.33 Q1279.59 1459.58 1282.64 1455 Q1285.72 1450.39 1291.53 1450.39 Z" fill="#000000" fill-rule="nonzero" fill-opacity="1" /><path clip-path="url(#clip420)" d="M1321.69 1454.1 Q1318.08 1454.1 1316.25 1457.66 Q1314.45 1461.2 1314.45 1468.33 Q1314.45 1475.44 1316.25 1479.01 Q1318.08 1482.55 1321.69 1482.55 Q1325.33 1482.55 1327.13 1479.01 Q1328.96 1475.44 1328.96 1468.33 Q1328.96 1461.2 1327.13 1457.66 Q1325.33 1454.1 1321.69 1454.1 M1321.69 1450.39 Q1327.5 1450.39 1330.56 1455 Q1333.64 1459.58 1333.64 1468.33 Q1333.64 1477.06 1330.56 1481.67 Q1327.5 1486.25 1321.69 1486.25 Q1315.88 1486.25 1312.8 1481.67 Q1309.75 1477.06 1309.75 1468.33 Q1309.75 1459.58 1312.8 1455 Q1315.88 1450.39 1321.69 1450.39 Z" fill="#000000" fill-rule="nonzero" fill-opacity="1" /><path clip-path="url(#clip420)" d="M1782.27 1481.64 L1789.91 1481.64 L1789.91 1455.28 L1781.6 1456.95 L1781.6 1452.69 L1789.86 1451.02 L1794.54 1451.02 L1794.54 1481.64 L1802.18 1481.64 L1802.18 1485.58 L1782.27 1485.58 L1782.27 1481.64 Z" fill="#000000" fill-rule="nonzero" fill-opacity="1" /><path clip-path="url(#clip420)" d="M1811.67 1451.02 L1830.03 1451.02 L1830.03 1454.96 L1815.95 1454.96 L1815.95 1463.43 Q1816.97 1463.08 1817.99 1462.92 Q1819.01 1462.73 1820.03 1462.73 Q1825.81 1462.73 1829.19 1465.9 Q1832.57 1469.08 1832.57 1474.49 Q1832.57 1480.07 1829.1 1483.17 Q1825.63 1486.25 1819.31 1486.25 Q1817.13 1486.25 1814.86 1485.88 Q1812.62 1485.51 1810.21 1484.77 L1810.21 1480.07 Q1812.29 1481.2 1814.52 1481.76 Q1816.74 1482.32 1819.22 1482.32 Q1823.22 1482.32 1825.56 1480.21 Q1827.9 1478.1 1827.9 1474.49 Q1827.9 1470.88 1825.56 1468.77 Q1823.22 1466.67 1819.22 1466.67 Q1817.34 1466.67 1815.47 1467.08 Q1813.61 1467.5 1811.67 1468.38 L1811.67 1451.02 Z" fill="#000000" fill-rule="nonzero" fill-opacity="1" /><path clip-path="url(#clip420)" d="M1851.78 1454.1 Q1848.17 1454.1 1846.34 1457.66 Q1844.54 1461.2 1844.54 1468.33 Q1844.54 1475.44 1846.34 1479.01 Q1848.17 1482.55 1851.78 1482.55 Q1855.42 1482.55 1857.22 1479.01 Q1859.05 1475.44 1859.05 1468.33 Q1859.05 1461.2 1857.22 1457.66 Q1855.42 1454.1 1851.78 1454.1 M1851.78 1450.39 Q1857.59 1450.39 1860.65 1455 Q1863.73 1459.58 1863.73 1468.33 Q1863.73 1477.06 1860.65 1481.67 Q1857.59 1486.25 1851.78 1486.25 Q1845.97 1486.25 1842.9 1481.67 Q1839.84 1477.06 1839.84 1468.33 Q1839.84 1459.58 1842.9 1455 Q1845.97 1450.39 1851.78 1450.39 Z" fill="#000000" fill-rule="nonzero" fill-opacity="1" /><path clip-path="url(#clip420)" d="M2316.45 1481.64 L2332.77 1481.64 L2332.77 1485.58 L2310.82 1485.58 L2310.82 1481.64 Q2313.49 1478.89 2318.07 1474.26 Q2322.68 1469.61 2323.86 1468.27 Q2326.1 1465.74 2326.98 1464.01 Q2327.88 1462.25 2327.88 1460.56 Q2327.88 1457.8 2325.94 1456.07 Q2324.02 1454.33 2320.92 1454.33 Q2318.72 1454.33 2316.26 1455.09 Q2313.83 1455.86 2311.05 1457.41 L2311.05 1452.69 Q2313.88 1451.55 2316.33 1450.97 Q2318.79 1450.39 2320.82 1450.39 Q2326.19 1450.39 2329.39 1453.08 Q2332.58 1455.77 2332.58 1460.26 Q2332.58 1462.39 2331.77 1464.31 Q2330.99 1466.2 2328.88 1468.8 Q2328.3 1469.47 2325.2 1472.69 Q2322.1 1475.88 2316.45 1481.64 Z" fill="#000000" fill-rule="nonzero" fill-opacity="1" /><path clip-path="url(#clip420)" d="M2352.58 1454.1 Q2348.97 1454.1 2347.14 1457.66 Q2345.34 1461.2 2345.34 1468.33 Q2345.34 1475.44 2347.14 1479.01 Q2348.97 1482.55 2352.58 1482.55 Q2356.22 1482.55 2358.02 1479.01 Q2359.85 1475.44 2359.85 1468.33 Q2359.85 1461.2 2358.02 1457.66 Q2356.22 1454.1 2352.58 1454.1 M2352.58 1450.39 Q2358.39 1450.39 2361.45 1455 Q2364.53 1459.58 2364.53 1468.33 Q2364.53 1477.06 2361.45 1481.67 Q2358.39 1486.25 2352.58 1486.25 Q2346.77 1486.25 2343.69 1481.67 Q2340.64 1477.06 2340.64 1468.33 Q2340.64 1459.58 2343.69 1455 Q2346.77 1450.39 2352.58 1450.39 Z" fill="#000000" fill-rule="nonzero" fill-opacity="1" /><path clip-path="url(#clip420)" d="M2382.74 1454.1 Q2379.13 1454.1 2377.3 1457.66 Q2375.5 1461.2 2375.5 1468.33 Q2375.5 1475.44 2377.3 1479.01 Q2379.13 1482.55 2382.74 1482.55 Q2386.38 1482.55 2388.18 1479.01 Q2390.01 1475.44 2390.01 1468.33 Q2390.01 1461.2 2388.18 1457.66 Q2386.38 1454.1 2382.74 1454.1 M2382.74 1450.39 Q2388.55 1450.39 2391.61 1455 Q2394.69 1459.58 2394.69 1468.33 Q2394.69 1477.06 2391.61 1481.67 Q2388.55 1486.25 2382.74 1486.25 Q2376.93 1486.25 2373.86 1481.67 Q2370.8 1477.06 2370.8 1468.33 Q2370.8 1459.58 2373.86 1455 Q2376.93 1450.39 2382.74 1450.39 Z" fill="#000000" fill-rule="nonzero" fill-opacity="1" /><path clip-path="url(#clip420)" d="M1137.47 1568.04 L1119.33 1520.52 L1126.05 1520.52 L1141.1 1560.53 L1156.19 1520.52 L1162.87 1520.52 L1144.76 1568.04 L1137.47 1568.04 Z" fill="#000000" fill-rule="nonzero" fill-opacity="1" /><path clip-path="url(#clip420)" d="M1178.31 1536.5 Q1173.6 1536.5 1170.86 1540.19 Q1168.12 1543.85 1168.12 1550.25 Q1168.12 1556.65 1170.83 1560.34 Q1173.57 1564 1178.31 1564 Q1182.99 1564 1185.72 1560.31 Q1188.46 1556.62 1188.46 1550.25 Q1188.46 1543.92 1185.72 1540.23 Q1182.99 1536.5 1178.31 1536.5 M1178.31 1531.54 Q1185.95 1531.54 1190.31 1536.5 Q1194.67 1541.47 1194.67 1550.25 Q1194.67 1559 1190.31 1564 Q1185.95 1568.97 1178.31 1568.97 Q1170.64 1568.97 1166.28 1564 Q1161.95 1559 1161.95 1550.25 Q1161.95 1541.47 1166.28 1536.5 Q1170.64 1531.54 1178.31 1531.54 Z" fill="#000000" fill-rule="nonzero" fill-opacity="1" /><path clip-path="url(#clip420)" d="M1204.38 1518.52 L1210.23 1518.52 L1210.23 1568.04 L1204.38 1568.04 L1204.38 1518.52 Z" fill="#000000" fill-rule="nonzero" fill-opacity="1" /><path clip-path="url(#clip420)" d="M1221.88 1553.98 L1221.88 1532.4 L1227.74 1532.4 L1227.74 1553.75 Q1227.74 1558.81 1229.71 1561.36 Q1231.68 1563.87 1235.63 1563.87 Q1240.37 1563.87 1243.11 1560.85 Q1245.88 1557.83 1245.88 1552.61 L1245.88 1532.4 L1251.74 1532.4 L1251.74 1568.04 L1245.88 1568.04 L1245.88 1562.57 Q1243.75 1565.82 1240.91 1567.41 Q1238.11 1568.97 1234.39 1568.97 Q1228.25 1568.97 1225.06 1565.15 Q1221.88 1561.33 1221.88 1553.98 M1236.62 1531.54 L1236.62 1531.54 Z" fill="#000000" fill-rule="nonzero" fill-opacity="1" /><path clip-path="url(#clip420)" d="M1291.55 1539.24 Q1293.75 1535.29 1296.81 1533.41 Q1299.86 1531.54 1304 1531.54 Q1309.57 1531.54 1312.59 1535.45 Q1315.62 1539.33 1315.62 1546.53 L1315.62 1568.04 L1309.73 1568.04 L1309.73 1546.72 Q1309.73 1541.59 1307.91 1539.11 Q1306.1 1536.63 1302.38 1536.63 Q1297.82 1536.63 1295.18 1539.65 Q1292.54 1542.68 1292.54 1547.9 L1292.54 1568.04 L1286.65 1568.04 L1286.65 1546.72 Q1286.65 1541.56 1284.84 1539.11 Q1283.02 1536.63 1279.24 1536.63 Q1274.75 1536.63 1272.11 1539.68 Q1269.47 1542.71 1269.47 1547.9 L1269.47 1568.04 L1263.58 1568.04 L1263.58 1532.4 L1269.47 1532.4 L1269.47 1537.93 Q1271.47 1534.66 1274.27 1533.1 Q1277.07 1531.54 1280.92 1531.54 Q1284.81 1531.54 1287.51 1533.51 Q1290.25 1535.48 1291.55 1539.24 Z" fill="#000000" fill-rule="nonzero" fill-opacity="1" /><path clip-path="url(#clip420)" d="M1357.79 1548.76 L1357.79 1551.62 L1330.86 1551.62 Q1331.24 1557.67 1334.49 1560.85 Q1337.77 1564 1343.59 1564 Q1346.97 1564 1350.12 1563.17 Q1353.3 1562.35 1356.42 1560.69 L1356.42 1566.23 Q1353.27 1567.57 1349.96 1568.27 Q1346.65 1568.97 1343.24 1568.97 Q1334.71 1568.97 1329.72 1564 Q1324.75 1559.04 1324.75 1550.57 Q1324.75 1541.82 1329.46 1536.69 Q1334.2 1531.54 1342.23 1531.54 Q1349.42 1531.54 1353.59 1536.18 Q1357.79 1540.8 1357.79 1548.76 M1351.93 1547.04 Q1351.87 1542.23 1349.23 1539.37 Q1346.62 1536.5 1342.29 1536.5 Q1337.39 1536.5 1334.43 1539.27 Q1331.5 1542.04 1331.05 1547.07 L1351.93 1547.04 Z" fill="#000000" fill-rule="nonzero" fill-opacity="1" /><path clip-path="url(#clip420)" d="M1402.19 1518.58 Q1397.93 1525.9 1395.86 1533.06 Q1393.79 1540.23 1393.79 1547.58 Q1393.79 1554.93 1395.86 1562.16 Q1397.96 1569.35 1402.19 1576.64 L1397.1 1576.64 Q1392.32 1569.16 1389.94 1561.93 Q1387.58 1554.71 1387.58 1547.58 Q1387.58 1540.48 1389.94 1533.29 Q1392.29 1526.09 1397.1 1518.58 L1402.19 1518.58 Z" fill="#000000" fill-rule="nonzero" fill-opacity="1" /><path clip-path="url(#clip420)" d="M1409.35 1532.4 L1415.56 1532.4 L1426.7 1562.31 L1437.84 1532.4 L1444.04 1532.4 L1430.68 1568.04 L1422.72 1568.04 L1409.35 1532.4 Z" fill="#000000" fill-rule="nonzero" fill-opacity="1" /><path clip-path="url(#clip420)" d="M1451.21 1518.58 L1456.3 1518.58 Q1461.07 1526.09 1463.43 1533.29 Q1465.82 1540.48 1465.82 1547.58 Q1465.82 1554.71 1463.43 1561.93 Q1461.07 1569.16 1456.3 1576.64 L1451.21 1576.64 Q1455.44 1569.35 1457.51 1562.16 Q1459.61 1554.93 1459.61 1547.58 Q1459.61 1540.23 1457.51 1533.06 Q1455.44 1525.9 1451.21 1518.58 Z" fill="#000000" fill-rule="nonzero" fill-opacity="1" /><polyline clip-path="url(#clip420)" style="stroke:#000000; stroke-linecap:round; stroke-linejoin:round; stroke-width:4; stroke-opacity:1; fill:none" points="232.389,1423.18 232.389,47.2441 "/>
<polyline clip-path="url(#clip420)" style="stroke:#000000; stroke-linecap:round; stroke-linejoin:round; stroke-width:4; stroke-opacity:1; fill:none" points="232.389,1423.18 251.287,1423.18 "/>
<polyline clip-path="url(#clip420)" style="stroke:#000000; stroke-linecap:round; stroke-linejoin:round; stroke-width:4; stroke-opacity:1; fill:none" points="232.389,1147.99 251.287,1147.99 "/>
<polyline clip-path="url(#clip420)" style="stroke:#000000; stroke-linecap:round; stroke-linejoin:round; stroke-width:4; stroke-opacity:1; fill:none" points="232.389,872.806 251.287,872.806 "/>
<polyline clip-path="url(#clip420)" style="stroke:#000000; stroke-linecap:round; stroke-linejoin:round; stroke-width:4; stroke-opacity:1; fill:none" points="232.389,597.618 251.287,597.618 "/>
<polyline clip-path="url(#clip420)" style="stroke:#000000; stroke-linecap:round; stroke-linejoin:round; stroke-width:4; stroke-opacity:1; fill:none" points="232.389,322.431 251.287,322.431 "/>
<polyline clip-path="url(#clip420)" style="stroke:#000000; stroke-linecap:round; stroke-linejoin:round; stroke-width:4; stroke-opacity:1; fill:none" points="232.389,47.2441 251.287,47.2441 "/>
<path clip-path="url(#clip420)" d="M184.445 1408.98 Q180.834 1408.98 179.005 1412.54 Q177.2 1416.08 177.2 1423.21 Q177.2 1430.32 179.005 1433.89 Q180.834 1437.43 184.445 1437.43 Q188.079 1437.43 189.885 1433.89 Q191.713 1430.32 191.713 1423.21 Q191.713 1416.08 189.885 1412.54 Q188.079 1408.98 184.445 1408.98 M184.445 1405.27 Q190.255 1405.27 193.311 1409.88 Q196.389 1414.46 196.389 1423.21 Q196.389 1431.94 193.311 1436.55 Q190.255 1441.13 184.445 1441.13 Q178.635 1441.13 175.556 1436.55 Q172.501 1431.94 172.501 1423.21 Q172.501 1414.46 175.556 1409.88 Q178.635 1405.27 184.445 1405.27 Z" fill="#000000" fill-rule="nonzero" fill-opacity="1" /><path clip-path="url(#clip420)" d="M148.311 1161.34 L164.63 1161.34 L164.63 1165.27 L142.686 1165.27 L142.686 1161.34 Q145.348 1158.58 149.931 1153.95 Q154.538 1149.3 155.718 1147.96 Q157.964 1145.43 158.843 1143.7 Q159.746 1141.94 159.746 1140.25 Q159.746 1137.5 157.802 1135.76 Q155.88 1134.02 152.778 1134.02 Q150.579 1134.02 148.126 1134.79 Q145.695 1135.55 142.917 1137.1 L142.917 1132.38 Q145.741 1131.25 148.195 1130.67 Q150.649 1130.09 152.686 1130.09 Q158.056 1130.09 161.251 1132.77 Q164.445 1135.46 164.445 1139.95 Q164.445 1142.08 163.635 1144 Q162.848 1145.9 160.741 1148.49 Q160.163 1149.16 157.061 1152.38 Q153.959 1155.57 148.311 1161.34 Z" fill="#000000" fill-rule="nonzero" fill-opacity="1" /><path clip-path="url(#clip420)" d="M184.445 1133.79 Q180.834 1133.79 179.005 1137.36 Q177.2 1140.9 177.2 1148.03 Q177.2 1155.13 179.005 1158.7 Q180.834 1162.24 184.445 1162.24 Q188.079 1162.24 189.885 1158.7 Q191.713 1155.13 191.713 1148.03 Q191.713 1140.9 189.885 1137.36 Q188.079 1133.79 184.445 1133.79 M184.445 1130.09 Q190.255 1130.09 193.311 1134.69 Q196.389 1139.28 196.389 1148.03 Q196.389 1156.75 193.311 1161.36 Q190.255 1165.94 184.445 1165.94 Q178.635 1165.94 175.556 1161.36 Q172.501 1156.75 172.501 1148.03 Q172.501 1139.28 175.556 1134.69 Q178.635 1130.09 184.445 1130.09 Z" fill="#000000" fill-rule="nonzero" fill-opacity="1" /><path clip-path="url(#clip420)" d="M157.13 859.6 L145.325 878.049 L157.13 878.049 L157.13 859.6 M155.903 855.526 L161.783 855.526 L161.783 878.049 L166.714 878.049 L166.714 881.937 L161.783 881.937 L161.783 890.086 L157.13 890.086 L157.13 881.937 L141.529 881.937 L141.529 877.424 L155.903 855.526 Z" fill="#000000" fill-rule="nonzero" fill-opacity="1" /><path clip-path="url(#clip420)" d="M184.445 858.604 Q180.834 858.604 179.005 862.169 Q177.2 865.711 177.2 872.84 Q177.2 879.947 179.005 883.512 Q180.834 887.053 184.445 887.053 Q188.079 887.053 189.885 883.512 Q191.713 879.947 191.713 872.84 Q191.713 865.711 189.885 862.169 Q188.079 858.604 184.445 858.604 M184.445 854.901 Q190.255 854.901 193.311 859.507 Q196.389 864.09 196.389 872.84 Q196.389 881.567 193.311 886.174 Q190.255 890.757 184.445 890.757 Q178.635 890.757 175.556 886.174 Q172.501 881.567 172.501 872.84 Q172.501 864.09 175.556 859.507 Q178.635 854.901 184.445 854.901 Z" fill="#000000" fill-rule="nonzero" fill-opacity="1" /><path clip-path="url(#clip420)" d="M154.862 595.755 Q151.714 595.755 149.862 597.908 Q148.033 600.061 148.033 603.81 Q148.033 607.537 149.862 609.713 Q151.714 611.866 154.862 611.866 Q158.01 611.866 159.839 609.713 Q161.69 607.537 161.69 603.81 Q161.69 600.061 159.839 597.908 Q158.01 595.755 154.862 595.755 M164.144 581.102 L164.144 585.362 Q162.385 584.528 160.579 584.088 Q158.797 583.649 157.038 583.649 Q152.408 583.649 149.954 586.774 Q147.524 589.899 147.177 596.218 Q148.542 594.204 150.603 593.139 Q152.663 592.051 155.14 592.051 Q160.348 592.051 163.357 595.223 Q166.39 598.371 166.39 603.81 Q166.39 609.135 163.241 612.352 Q160.093 615.57 154.862 615.57 Q148.866 615.57 145.695 610.986 Q142.524 606.38 142.524 597.653 Q142.524 589.459 146.413 584.598 Q150.302 579.713 156.853 579.713 Q158.612 579.713 160.394 580.061 Q162.2 580.408 164.144 581.102 Z" fill="#000000" fill-rule="nonzero" fill-opacity="1" /><path clip-path="url(#clip420)" d="M184.445 583.417 Q180.834 583.417 179.005 586.982 Q177.2 590.524 177.2 597.653 Q177.2 604.76 179.005 608.324 Q180.834 611.866 184.445 611.866 Q188.079 611.866 189.885 608.324 Q191.713 604.76 191.713 597.653 Q191.713 590.524 189.885 586.982 Q188.079 583.417 184.445 583.417 M184.445 579.713 Q190.255 579.713 193.311 584.32 Q196.389 588.903 196.389 597.653 Q196.389 606.38 193.311 610.986 Q190.255 615.57 184.445 615.57 Q178.635 615.57 175.556 610.986 Q172.501 606.38 172.501 597.653 Q172.501 588.903 175.556 584.32 Q178.635 579.713 184.445 579.713 Z" fill="#000000" fill-rule="nonzero" fill-opacity="1" /><path clip-path="url(#clip420)" d="M154.283 323.299 Q150.95 323.299 149.028 325.082 Q147.13 326.864 147.13 329.989 Q147.13 333.114 149.028 334.896 Q150.95 336.679 154.283 336.679 Q157.616 336.679 159.538 334.896 Q161.459 333.091 161.459 329.989 Q161.459 326.864 159.538 325.082 Q157.64 323.299 154.283 323.299 M149.607 321.309 Q146.598 320.568 144.908 318.508 Q143.241 316.447 143.241 313.485 Q143.241 309.341 146.181 306.934 Q149.144 304.526 154.283 304.526 Q159.445 304.526 162.385 306.934 Q165.325 309.341 165.325 313.485 Q165.325 316.447 163.635 318.508 Q161.968 320.568 158.982 321.309 Q162.362 322.096 164.237 324.387 Q166.135 326.679 166.135 329.989 Q166.135 335.012 163.056 337.697 Q160.001 340.383 154.283 340.383 Q148.566 340.383 145.487 337.697 Q142.431 335.012 142.431 329.989 Q142.431 326.679 144.329 324.387 Q146.228 322.096 149.607 321.309 M147.894 313.924 Q147.894 316.61 149.561 318.114 Q151.251 319.619 154.283 319.619 Q157.292 319.619 158.982 318.114 Q160.695 316.61 160.695 313.924 Q160.695 311.239 158.982 309.735 Q157.292 308.23 154.283 308.23 Q151.251 308.23 149.561 309.735 Q147.894 311.239 147.894 313.924 Z" fill="#000000" fill-rule="nonzero" fill-opacity="1" /><path clip-path="url(#clip420)" d="M184.445 308.23 Q180.834 308.23 179.005 311.795 Q177.2 315.336 177.2 322.466 Q177.2 329.572 179.005 333.137 Q180.834 336.679 184.445 336.679 Q188.079 336.679 189.885 333.137 Q191.713 329.572 191.713 322.466 Q191.713 315.336 189.885 311.795 Q188.079 308.23 184.445 308.23 M184.445 304.526 Q190.255 304.526 193.311 309.133 Q196.389 313.716 196.389 322.466 Q196.389 331.193 193.311 335.799 Q190.255 340.383 184.445 340.383 Q178.635 340.383 175.556 335.799 Q172.501 331.193 172.501 322.466 Q172.501 313.716 175.556 309.133 Q178.635 304.526 184.445 304.526 Z" fill="#000000" fill-rule="nonzero" fill-opacity="1" /><path clip-path="url(#clip420)" d="M114.931 60.5889 L122.57 60.5889 L122.57 34.2233 L114.26 35.89 L114.26 31.6308 L122.524 29.9641 L127.2 29.9641 L127.2 60.5889 L134.839 60.5889 L134.839 64.5241 L114.931 64.5241 L114.931 60.5889 Z" fill="#000000" fill-rule="nonzero" fill-opacity="1" /><path clip-path="url(#clip420)" d="M154.283 33.0428 Q150.672 33.0428 148.843 36.6076 Q147.038 40.1492 147.038 47.2788 Q147.038 54.3853 148.843 57.9501 Q150.672 61.4917 154.283 61.4917 Q157.917 61.4917 159.723 57.9501 Q161.552 54.3853 161.552 47.2788 Q161.552 40.1492 159.723 36.6076 Q157.917 33.0428 154.283 33.0428 M154.283 29.3391 Q160.093 29.3391 163.149 33.9456 Q166.227 38.5289 166.227 47.2788 Q166.227 56.0056 163.149 60.6121 Q160.093 65.1954 154.283 65.1954 Q148.473 65.1954 145.394 60.6121 Q142.339 56.0056 142.339 47.2788 Q142.339 38.5289 145.394 33.9456 Q148.473 29.3391 154.283 29.3391 Z" fill="#000000" fill-rule="nonzero" fill-opacity="1" /><path clip-path="url(#clip420)" d="M184.445 33.0428 Q180.834 33.0428 179.005 36.6076 Q177.2 40.1492 177.2 47.2788 Q177.2 54.3853 179.005 57.9501 Q180.834 61.4917 184.445 61.4917 Q188.079 61.4917 189.885 57.9501 Q191.713 54.3853 191.713 47.2788 Q191.713 40.1492 189.885 36.6076 Q188.079 33.0428 184.445 33.0428 M184.445 29.3391 Q190.255 29.3391 193.311 33.9456 Q196.389 38.5289 196.389 47.2788 Q196.389 56.0056 193.311 60.6121 Q190.255 65.1954 184.445 65.1954 Q178.635 65.1954 175.556 60.6121 Q172.501 56.0056 172.501 47.2788 Q172.501 38.5289 175.556 33.9456 Q178.635 29.3391 184.445 29.3391 Z" fill="#000000" fill-rule="nonzero" fill-opacity="1" /><path clip-path="url(#clip420)" d="M16.4842 878.806 L16.4842 869.226 L48.8219 857.099 L16.4842 844.909 L16.4842 835.329 L64.0042 835.329 L64.0042 841.599 L22.277 841.599 L54.8694 853.853 L54.8694 860.314 L22.277 872.568 L64.0042 872.568 L64.0042 878.806 L16.4842 878.806 Z" fill="#000000" fill-rule="nonzero" fill-opacity="1" /><path clip-path="url(#clip420)" d="M46.0847 806.619 Q46.0847 813.717 47.7079 816.454 Q49.3312 819.192 53.2461 819.192 Q56.3653 819.192 58.2114 817.155 Q60.0256 815.086 60.0256 811.553 Q60.0256 806.683 56.5881 803.755 Q53.1188 800.795 47.3897 800.795 L46.0847 800.795 L46.0847 806.619 M43.6657 794.938 L64.0042 794.938 L64.0042 800.795 L58.5933 800.795 Q61.8398 802.8 63.3994 805.792 Q64.9272 808.784 64.9272 813.112 Q64.9272 818.587 61.8716 821.833 Q58.7843 825.048 53.6281 825.048 Q47.6125 825.048 44.5569 821.038 Q41.5014 816.995 41.5014 809.006 L41.5014 800.795 L40.9285 800.795 Q36.8862 800.795 34.6901 803.468 Q32.4621 806.11 32.4621 810.916 Q32.4621 813.972 33.1941 816.868 Q33.9262 819.764 35.3903 822.438 L29.9795 822.438 Q28.7381 819.223 28.1334 816.2 Q27.4968 813.176 27.4968 810.311 Q27.4968 802.577 31.5072 798.758 Q35.5176 794.938 43.6657 794.938 Z" fill="#000000" fill-rule="nonzero" fill-opacity="1" /><path clip-path="url(#clip420)" d="M29.4065 760.15 L34.9447 760.15 Q33.6716 762.632 33.035 765.306 Q32.3984 767.979 32.3984 770.844 Q32.3984 775.205 33.7352 777.401 Q35.072 779.565 37.7456 779.565 Q39.7826 779.565 40.9603 778.005 Q42.1061 776.446 43.1565 771.735 L43.6021 769.73 Q44.9389 763.492 47.3897 760.882 Q49.8086 758.24 54.1691 758.24 Q59.1344 758.24 62.0308 762.187 Q64.9272 766.102 64.9272 772.977 Q64.9272 775.841 64.3543 778.96 Q63.8132 782.048 62.6992 785.485 L56.6518 785.485 Q58.3387 782.239 59.198 779.088 Q60.0256 775.937 60.0256 772.849 Q60.0256 768.711 58.6251 766.484 Q57.1929 764.256 54.6147 764.256 Q52.2276 764.256 50.9545 765.879 Q49.6813 767.47 48.5037 772.913 L48.0262 774.95 Q46.8804 780.393 44.5251 782.812 Q42.138 785.231 38.0002 785.231 Q32.9713 785.231 30.2341 781.666 Q27.4968 778.101 27.4968 771.544 Q27.4968 768.298 27.9743 765.433 Q28.4517 762.569 29.4065 760.15 Z" fill="#000000" fill-rule="nonzero" fill-opacity="1" /><path clip-path="url(#clip420)" d="M29.4065 726.189 L34.9447 726.189 Q33.6716 728.671 33.035 731.345 Q32.3984 734.018 32.3984 736.883 Q32.3984 741.243 33.7352 743.44 Q35.072 745.604 37.7456 745.604 Q39.7826 745.604 40.9603 744.044 Q42.1061 742.485 43.1565 737.774 L43.6021 735.769 Q44.9389 729.531 47.3897 726.921 Q49.8086 724.279 54.1691 724.279 Q59.1344 724.279 62.0308 728.226 Q64.9272 732.141 64.9272 739.015 Q64.9272 741.88 64.3543 744.999 Q63.8132 748.087 62.6992 751.524 L56.6518 751.524 Q58.3387 748.278 59.198 745.127 Q60.0256 741.976 60.0256 738.888 Q60.0256 734.75 58.6251 732.522 Q57.1929 730.294 54.6147 730.294 Q52.2276 730.294 50.9545 731.918 Q49.6813 733.509 48.5037 738.952 L48.0262 740.989 Q46.8804 746.432 44.5251 748.85 Q42.138 751.269 38.0002 751.269 Q32.9713 751.269 30.2341 747.705 Q27.4968 744.14 27.4968 737.583 Q27.4968 734.337 27.9743 731.472 Q28.4517 728.608 29.4065 726.189 Z" fill="#000000" fill-rule="nonzero" fill-opacity="1" /><path clip-path="url(#clip420)" d="M14.5426 680.165 Q21.8632 684.43 29.0246 686.498 Q36.186 688.567 43.5384 688.567 Q50.8908 688.567 58.1159 686.498 Q65.3091 684.398 72.5979 680.165 L72.5979 685.257 Q65.1182 690.031 57.8931 692.419 Q50.668 694.774 43.5384 694.774 Q36.4406 694.774 29.2474 692.419 Q22.0542 690.063 14.5426 685.257 L14.5426 680.165 Z" fill="#000000" fill-rule="nonzero" fill-opacity="1" /><path clip-path="url(#clip420)" d="M35.1993 641.047 Q31.2526 638.851 29.3747 635.796 Q27.4968 632.74 27.4968 628.602 Q27.4968 623.032 31.4117 620.009 Q35.2948 616.985 42.4881 616.985 L64.0042 616.985 L64.0042 622.873 L42.679 622.873 Q37.5546 622.873 35.072 624.687 Q32.5894 626.502 32.5894 630.226 Q32.5894 634.777 35.6131 637.419 Q38.6368 640.061 43.8567 640.061 L64.0042 640.061 L64.0042 645.949 L42.679 645.949 Q37.5228 645.949 35.072 647.763 Q32.5894 649.577 32.5894 653.365 Q32.5894 657.853 35.6449 660.494 Q38.6686 663.136 43.8567 663.136 L64.0042 663.136 L64.0042 669.025 L28.3562 669.025 L28.3562 663.136 L33.8944 663.136 Q30.616 661.131 29.0564 658.33 Q27.4968 655.529 27.4968 651.678 Q27.4968 647.795 29.4702 645.089 Q31.4436 642.352 35.1993 641.047 Z" fill="#000000" fill-rule="nonzero" fill-opacity="1" /><path clip-path="url(#clip420)" d="M14.5426 606.227 L14.5426 601.134 Q22.0542 596.36 29.2474 594.005 Q36.4406 591.618 43.5384 591.618 Q50.668 591.618 57.8931 594.005 Q65.1182 596.36 72.5979 601.134 L72.5979 606.227 Q65.3091 601.994 58.1159 599.925 Q50.8908 597.824 43.5384 597.824 Q36.186 597.824 29.0246 599.925 Q21.8632 601.994 14.5426 606.227 Z" fill="#000000" fill-rule="nonzero" fill-opacity="1" /><path clip-path="url(#clip422)" d="M232.389 1140.8 L2050.36 1140.8 L2050.36 1140.8 L2050.36 1140.8 L2050.34 1140.83 L2050.1 1141.14 L2047.71 1144.24 L2023.85 1175.21 L1832.78 1423.18 L1832.78 1423.18 L232.389 1423.18 L232.389 1140.8  Z" fill="#a52a2a" fill-rule="evenodd" fill-opacity="0.35"/>
<polyline clip-path="url(#clip422)" style="stroke:#000000; stroke-linecap:round; stroke-linejoin:round; stroke-width:4; stroke-opacity:0; fill:none" points="232.389,1140.8 2050.36,1140.8 2050.36,1140.8 2050.34,1140.83 2050.1,1141.14 2047.71,1144.24 2023.85,1175.21 1832.78,1423.18 232.389,1423.18 232.389,1140.8 "/>
<path clip-path="url(#clip422)" d="M232.389 1140.8 L2050.36 1140.8 L2050.36 1140.8 L2050.36 1140.79 L2050.38 1140.71 L2050.5 1139.92 L2051.69 1131.84 L2056.83 1094.26 L2066.8 1007.13 L2080.42 849.482 L2097.47 565.586 L2117.52 47.2441 L2117.52 47.2441 L232.389 47.2441 L232.389 1140.8  Z" fill="#0000ff" fill-rule="evenodd" fill-opacity="0.35"/>
<polyline clip-path="url(#clip422)" style="stroke:#000000; stroke-linecap:round; stroke-linejoin:round; stroke-width:4; stroke-opacity:0; fill:none" points="232.389,1140.8 2050.36,1140.8 2050.36,1140.79 2050.38,1140.71 2050.5,1139.92 2051.69,1131.84 2056.83,1094.26 2066.8,1007.13 2080.42,849.482 2097.47,565.586 2117.52,47.2441 232.389,47.2441 232.389,1140.8 "/>
<path clip-path="url(#clip422)" d="M2117.52 47.2441 L2117.52 47.2441 L2097.47 565.586 L2080.42 849.482 L2066.8 1007.13 L2056.83 1094.26 L2051.69 1131.84 L2050.5 1139.92 L2050.38 1140.71 L2050.36 1140.79 L2050.36 1140.8 L2050.36 1140.8 L2053.28 1136.95 L2075.78 1102.21 L2108.05 1029.17 L2136.61 920.29 L2159.81 762.2 L2178.11 528.38 L2185.36 376.924 L2185.36 376.924 L2185.36 376.924 L2185.64 369.886 L2186.3 353.369 L2187.42 324.462 L2189.67 263.105 L2193.45 149.894 L2196.52 47.2441 L232.389 47.2441 L2117.52 47.2441  Z" fill="#9acd32" fill-rule="evenodd" fill-opacity="0.35"/>
<polyline clip-path="url(#clip422)" style="stroke:#000000; stroke-linecap:round; stroke-linejoin:round; stroke-width:4; stroke-opacity:0; fill:none" points="2117.52,47.2441 2117.52,47.2441 2097.47,565.586 2080.42,849.482 2066.8,1007.13 2056.83,1094.26 2051.69,1131.84 2050.5,1139.92 2050.38,1140.71 2050.36,1140.79 2050.36,1140.8 2053.28,1136.95 2075.78,1102.21 2108.05,1029.17 2136.61,920.29 2159.81,762.2 2178.11,528.38 2185.36,376.924 2185.36,376.924 2185.64,369.886 2186.3,353.369 2187.42,324.462 2189.67,263.105 2193.45,149.894 2196.52,47.2441 232.389,47.2441 2117.52,47.2441 "/>
<path clip-path="url(#clip422)" d="M1832.78 1423.18 L1832.78 1423.18 L2023.85 1175.21 L2047.71 1144.24 L2050.1 1141.14 L2050.34 1140.83 L2050.36 1140.8 L2050.36 1140.8 L2050.36 1140.8 L2053.28 1136.95 L2075.78 1102.21 L2108.05 1029.17 L2136.61 920.29 L2159.81 762.2 L2178.11 528.38 L2185.36 376.924 L2185.36 376.924 L2185.36 376.924 L2185.64 369.886 L2186.3 353.369 L2187.42 324.462 L2189.67 263.105 L2193.45 149.894 L2196.52 47.2441 L232.389 47.2441 L2352.76 47.2441 L2352.76 1423.18 L232.389 1423.18 L1832.78 1423.18  Z" fill="#ff0000" fill-rule="evenodd" fill-opacity="0.35"/>
<polyline clip-path="url(#clip422)" style="stroke:#000000; stroke-linecap:round; stroke-linejoin:round; stroke-width:4; stroke-opacity:0; fill:none" points="1832.78,1423.18 1832.78,1423.18 2023.85,1175.21 2047.71,1144.24 2050.1,1141.14 2050.34,1140.83 2050.36,1140.8 2050.36,1140.8 2053.28,1136.95 2075.78,1102.21 2108.05,1029.17 2136.61,920.29 2159.81,762.2 2178.11,528.38 2185.36,376.924 2185.36,376.924 2185.64,369.886 2186.3,353.369 2187.42,324.462 2189.67,263.105 2193.45,149.894 2196.52,47.2441 232.389,47.2441 2352.76,47.2441 2352.76,1423.18 232.389,1423.18 1832.78,1423.18 "/>
<polyline clip-path="url(#clip422)" style="stroke:#808080; stroke-linecap:round; stroke-linejoin:round; stroke-width:4; stroke-opacity:1; fill:none" points="2050.36,1140.8 2050.36,1140.79 2050.38,1140.71 2050.5,1139.92 2051.69,1131.84 2056.83,1094.26 2066.8,1007.13 2080.42,849.482 2097.47,565.586 2117.52,47.2441 "/>
<polyline clip-path="url(#clip422)" style="stroke:#808080; stroke-linecap:round; stroke-linejoin:round; stroke-width:4; stroke-opacity:1; fill:none" points="2050.36,1140.8 2050.36,1140.8 2050.34,1140.83 2050.1,1141.14 2047.71,1144.24 2023.85,1175.21 1832.78,1423.18 "/>
<polyline clip-path="url(#clip422)" style="stroke:#008000; stroke-linecap:round; stroke-linejoin:round; stroke-width:12; stroke-opacity:1; fill:none" points="232.389,1140.8 2050.36,1140.8 "/>
<polyline clip-path="url(#clip422)" style="stroke:#ffd700; stroke-linecap:round; stroke-linejoin:round; stroke-width:12; stroke-opacity:1; fill:none" points="2050.36,1140.8 2053.28,1136.95 2075.78,1102.21 2108.05,1029.17 2136.61,920.29 2159.81,762.2 2178.11,528.38 2185.36,376.924 "/>
<polyline clip-path="url(#clip422)" style="stroke:#808080; stroke-linecap:round; stroke-linejoin:round; stroke-width:12; stroke-opacity:1; fill:none" points="2185.36,376.924 2185.64,369.886 2186.3,353.369 2187.42,324.462 2189.67,263.105 2193.45,149.894 2196.52,47.2441 "/>
<polyline clip-path="url(#clip422)" style="stroke:#009af9; stroke-linecap:round; stroke-linejoin:round; stroke-width:4; stroke-opacity:1; fill:none" points="285.399,872.806 278.323,957.377 271.248,1028.95 264.173,1089.53 257.098,1140.8 "/>
<polyline clip-path="url(#clip422)" style="stroke:#009af9; stroke-linecap:round; stroke-linejoin:round; stroke-width:4; stroke-opacity:1; fill:none" points="257.098,1140.8 303.93,1140.8 350.762,1140.8 397.594,1140.8 444.426,1140.8 "/>
<polyline clip-path="url(#clip422)" style="stroke:#009af9; stroke-linecap:round; stroke-linejoin:round; stroke-width:4; stroke-opacity:1; fill:none" points="408.426,1122.8 444.426,1140.8 408.426,1158.8 "/>
<polyline clip-path="url(#clip422)" style="stroke:#009af9; stroke-linecap:round; stroke-linejoin:round; stroke-width:4; stroke-opacity:1; fill:none" points="444.426,1140.8 397.594,1140.8 "/>
<polyline clip-path="url(#clip422)" style="stroke:#009af9; stroke-linecap:round; stroke-linejoin:round; stroke-width:4; stroke-opacity:1; fill:none" points="444.426,1140.8 497.435,1140.8 550.444,1140.8 603.453,1140.8 656.463,1140.8 "/>
<polyline clip-path="url(#clip422)" style="stroke:#009af9; stroke-linecap:round; stroke-linejoin:round; stroke-width:4; stroke-opacity:1; fill:none" points="620.463,1122.8 656.463,1140.8 620.463,1158.8 "/>
<polyline clip-path="url(#clip422)" style="stroke:#009af9; stroke-linecap:round; stroke-linejoin:round; stroke-width:4; stroke-opacity:1; fill:none" points="656.463,1140.8 603.453,1140.8 "/>
<polyline clip-path="url(#clip422)" style="stroke:#009af9; stroke-linecap:round; stroke-linejoin:round; stroke-width:4; stroke-opacity:1; fill:none" points="656.463,1140.8 709.472,1140.8 762.481,1140.8 815.49,1140.8 868.499,1140.8 "/>
<polyline clip-path="url(#clip422)" style="stroke:#009af9; stroke-linecap:round; stroke-linejoin:round; stroke-width:4; stroke-opacity:1; fill:none" points="832.499,1122.8 868.499,1140.8 832.499,1158.8 "/>
<polyline clip-path="url(#clip422)" style="stroke:#009af9; stroke-linecap:round; stroke-linejoin:round; stroke-width:4; stroke-opacity:1; fill:none" points="868.499,1140.8 815.49,1140.8 "/>
<polyline clip-path="url(#clip422)" style="stroke:#009af9; stroke-linecap:round; stroke-linejoin:round; stroke-width:4; stroke-opacity:1; fill:none" points="868.499,1140.8 921.508,1140.8 974.518,1140.8 1027.53,1140.8 1080.54,1140.8 "/>
<polyline clip-path="url(#clip422)" style="stroke:#009af9; stroke-linecap:round; stroke-linejoin:round; stroke-width:4; stroke-opacity:1; fill:none" points="1044.54,1122.8 1080.54,1140.8 1044.54,1158.8 "/>
<polyline clip-path="url(#clip422)" style="stroke:#009af9; stroke-linecap:round; stroke-linejoin:round; stroke-width:4; stroke-opacity:1; fill:none" points="1080.54,1140.8 1027.53,1140.8 "/>
<polyline clip-path="url(#clip422)" style="stroke:#009af9; stroke-linecap:round; stroke-linejoin:round; stroke-width:4; stroke-opacity:1; fill:none" points="1080.54,1140.8 1133.55,1140.8 1186.55,1140.8 1239.56,1140.8 1292.57,1140.8 "/>
<polyline clip-path="url(#clip422)" style="stroke:#009af9; stroke-linecap:round; stroke-linejoin:round; stroke-width:4; stroke-opacity:1; fill:none" points="1256.57,1122.8 1292.57,1140.8 1256.57,1158.8 "/>
<polyline clip-path="url(#clip422)" style="stroke:#009af9; stroke-linecap:round; stroke-linejoin:round; stroke-width:4; stroke-opacity:1; fill:none" points="1292.57,1140.8 1239.56,1140.8 "/>
<polyline clip-path="url(#clip422)" style="stroke:#009af9; stroke-linecap:round; stroke-linejoin:round; stroke-width:4; stroke-opacity:1; fill:none" points="1292.57,1140.8 1345.58,1140.8 1398.59,1140.8 1451.6,1140.8 1504.61,1140.8 "/>
<polyline clip-path="url(#clip422)" style="stroke:#009af9; stroke-linecap:round; stroke-linejoin:round; stroke-width:4; stroke-opacity:1; fill:none" points="1468.61,1122.8 1504.61,1140.8 1468.61,1158.8 "/>
<polyline clip-path="url(#clip422)" style="stroke:#009af9; stroke-linecap:round; stroke-linejoin:round; stroke-width:4; stroke-opacity:1; fill:none" points="1504.61,1140.8 1451.6,1140.8 "/>
<polyline clip-path="url(#clip422)" style="stroke:#009af9; stroke-linecap:round; stroke-linejoin:round; stroke-width:4; stroke-opacity:1; fill:none" points="1504.61,1140.8 1557.62,1140.8 1610.63,1140.8 1663.64,1140.8 1716.65,1140.8 "/>
<polyline clip-path="url(#clip422)" style="stroke:#009af9; stroke-linecap:round; stroke-linejoin:round; stroke-width:4; stroke-opacity:1; fill:none" points="1680.65,1122.8 1716.65,1140.8 1680.65,1158.8 "/>
<polyline clip-path="url(#clip422)" style="stroke:#009af9; stroke-linecap:round; stroke-linejoin:round; stroke-width:4; stroke-opacity:1; fill:none" points="1716.65,1140.8 1663.64,1140.8 "/>
<polyline clip-path="url(#clip422)" style="stroke:#009af9; stroke-linecap:round; stroke-linejoin:round; stroke-width:4; stroke-opacity:1; fill:none" points="1716.65,1140.8 1769.66,1140.8 1822.66,1140.8 1875.67,1140.8 1928.68,1140.8 "/>
<polyline clip-path="url(#clip422)" style="stroke:#009af9; stroke-linecap:round; stroke-linejoin:round; stroke-width:4; stroke-opacity:1; fill:none" points="1892.68,1122.8 1928.68,1140.8 1892.68,1158.8 "/>
<polyline clip-path="url(#clip422)" style="stroke:#009af9; stroke-linecap:round; stroke-linejoin:round; stroke-width:4; stroke-opacity:1; fill:none" points="1928.68,1140.8 1875.67,1140.8 "/>
<polyline clip-path="url(#clip422)" style="stroke:#009af9; stroke-linecap:round; stroke-linejoin:round; stroke-width:4; stroke-opacity:1; fill:none" points="1928.68,1140.8 1959.1,1140.8 1989.52,1140.8 2019.94,1140.8 2050.36,1140.8 "/>
<polyline clip-path="url(#clip422)" style="stroke:#009af9; stroke-linecap:round; stroke-linejoin:round; stroke-width:4; stroke-opacity:1; fill:none" points="2050.36,1140.8 2072.95,1111.48 2095.54,1082.17 2118.13,1052.85 2140.72,1023.53 "/>
<polyline clip-path="url(#clip422)" style="stroke:#009af9; stroke-linecap:round; stroke-linejoin:round; stroke-width:4; stroke-opacity:1; fill:none" points="2104.49,1041.06 2140.72,1023.53 2133,1063.04 "/>
<polyline clip-path="url(#clip422)" style="stroke:#009af9; stroke-linecap:round; stroke-linejoin:round; stroke-width:4; stroke-opacity:1; fill:none" points="2140.72,1023.53 2118.13,1052.85 "/>
<polyline clip-path="url(#clip422)" style="stroke:#009af9; stroke-linecap:round; stroke-linejoin:round; stroke-width:4; stroke-opacity:1; fill:none" points="2140.72,1023.53 2193.73,954.737 2246.74,885.94 2299.75,817.143 2352.76,748.346 "/>
<path clip-path="url(#clip420)" d="M303.068 559.669 L872.927 559.669 L872.927 93.1086 L303.068 93.1086  Z" fill="#ffffff" fill-rule="evenodd" fill-opacity="1"/>
<polyline clip-path="url(#clip420)" style="stroke:#000000; stroke-linecap:round; stroke-linejoin:round; stroke-width:4; stroke-opacity:1; fill:none" points="303.068,559.669 872.927,559.669 872.927,93.1086 303.068,93.1086 303.068,559.669 "/>
<path clip-path="url(#clip420)" d="M326.628 165.685 L467.986 165.685 L467.986 124.213 L326.628 124.213 L326.628 165.685  Z" fill="#a52a2a" fill-rule="evenodd" fill-opacity="0.35"/>
<polyline clip-path="url(#clip420)" style="stroke:#000000; stroke-linecap:round; stroke-linejoin:round; stroke-width:4; stroke-opacity:0; fill:none" points="326.628,165.685 467.986,165.685 467.986,124.213 326.628,124.213 326.628,165.685 "/>
<path clip-path="url(#clip420)" d="M491.545 151.997 L491.545 136.303 L495.804 136.303 L495.804 151.835 Q495.804 155.516 497.24 157.368 Q498.675 159.196 501.545 159.196 Q504.994 159.196 506.985 156.997 Q508.999 154.798 508.999 151.002 L508.999 136.303 L513.258 136.303 L513.258 162.229 L508.999 162.229 L508.999 158.247 Q507.448 160.608 505.388 161.766 Q503.351 162.9 500.642 162.9 Q496.175 162.9 493.86 160.122 Q491.545 157.344 491.545 151.997 M502.263 135.678 L502.263 135.678 Z" fill="#000000" fill-rule="nonzero" fill-opacity="1" /><path clip-path="url(#clip420)" d="M531.29 145.585 L531.29 152.807 L539.415 152.807 L539.415 155.006 L531.29 155.006 L531.29 162.229 L528.86 162.229 L528.86 155.006 L520.735 155.006 L520.735 152.807 L528.86 152.807 L528.86 145.585 L531.29 145.585 Z" fill="#000000" fill-rule="nonzero" fill-opacity="1" /><path clip-path="url(#clip420)" d="M572.494 142.946 Q570.642 142.946 569.369 144.243 Q568.096 145.516 568.096 147.368 Q568.096 149.196 569.369 150.469 Q570.642 151.719 572.494 151.719 Q574.346 151.719 575.619 150.469 Q576.892 149.196 576.892 147.368 Q576.892 145.539 575.596 144.243 Q574.323 142.946 572.494 142.946 M572.494 139.96 Q573.975 139.96 575.341 140.539 Q576.707 141.094 577.702 142.159 Q578.767 143.201 579.299 144.52 Q579.832 145.84 579.832 147.368 Q579.832 150.423 577.679 152.553 Q575.549 154.659 572.448 154.659 Q569.323 154.659 567.239 152.576 Q565.156 150.493 565.156 147.368 Q565.156 144.266 567.286 142.113 Q569.415 139.96 572.494 139.96 Z" fill="#000000" fill-rule="nonzero" fill-opacity="1" /><path clip-path="url(#clip420)" d="M606.429 151.997 L606.429 136.303 L610.688 136.303 L610.688 151.835 Q610.688 155.516 612.123 157.368 Q613.558 159.196 616.429 159.196 Q619.878 159.196 621.869 156.997 Q623.883 154.798 623.883 151.002 L623.883 136.303 L628.142 136.303 L628.142 162.229 L623.883 162.229 L623.883 158.247 Q622.332 160.608 620.271 161.766 Q618.234 162.9 615.526 162.9 Q611.059 162.9 608.744 160.122 Q606.429 157.344 606.429 151.997 M617.146 135.678 L617.146 135.678 Z" fill="#000000" fill-rule="nonzero" fill-opacity="1" /><path clip-path="url(#clip420)" d="M646.753 147.761 L646.753 150.006 Q645.619 149.497 644.392 149.243 Q643.188 148.988 641.869 148.988 Q639.855 148.988 638.859 149.52 Q637.864 150.076 637.864 151.164 Q637.864 151.997 638.582 152.46 Q639.299 152.946 641.452 153.363 L642.378 153.548 Q645.271 154.104 646.429 155.076 Q647.632 156.071 647.632 157.854 Q647.632 159.868 645.827 161.048 Q644.044 162.229 640.896 162.229 Q639.577 162.229 638.142 161.997 Q636.73 161.766 635.156 161.326 L635.156 158.849 Q636.637 159.543 638.095 159.891 Q639.531 160.238 640.943 160.238 Q642.841 160.238 643.859 159.659 Q644.878 159.08 644.878 158.039 Q644.878 157.067 644.137 156.534 Q643.489 156.071 640.919 155.539 L639.994 155.354 Q637.494 154.868 636.382 153.918 Q635.271 152.946 635.271 151.256 Q635.271 149.219 636.915 148.108 Q638.535 146.974 641.544 146.974 Q643.026 146.974 644.345 147.182 Q645.665 147.368 646.753 147.761 Z" fill="#000000" fill-rule="nonzero" fill-opacity="1" /><path clip-path="url(#clip420)" d="M680.04 142.946 Q678.188 142.946 676.915 144.243 Q675.641 145.516 675.641 147.368 Q675.641 149.196 676.915 150.469 Q678.188 151.719 680.04 151.719 Q681.891 151.719 683.165 150.469 Q684.438 149.196 684.438 147.368 Q684.438 145.539 683.141 144.243 Q681.868 142.946 680.04 142.946 M680.04 139.96 Q681.521 139.96 682.887 140.539 Q684.253 141.094 685.248 142.159 Q686.313 143.201 686.845 144.52 Q687.378 145.84 687.378 147.368 Q687.378 150.423 685.225 152.553 Q683.095 154.659 679.993 154.659 Q676.868 154.659 674.785 152.576 Q672.702 150.493 672.702 147.368 Q672.702 144.266 674.831 142.113 Q676.961 139.96 680.04 139.96 Z" fill="#000000" fill-rule="nonzero" fill-opacity="1" /><path clip-path="url(#clip420)" d="M713.975 151.997 L713.975 136.303 L718.234 136.303 L718.234 151.835 Q718.234 155.516 719.669 157.368 Q721.104 159.196 723.975 159.196 Q727.424 159.196 729.414 156.997 Q731.428 154.798 731.428 151.002 L731.428 136.303 L735.687 136.303 L735.687 162.229 L731.428 162.229 L731.428 158.247 Q729.877 160.608 727.817 161.766 Q725.78 162.9 723.072 162.9 Q718.604 162.9 716.289 160.122 Q713.975 157.344 713.975 151.997 M724.692 135.678 L724.692 135.678 Z" fill="#000000" fill-rule="nonzero" fill-opacity="1" /><path clip-path="url(#clip420)" d="M753.72 145.585 L753.72 152.807 L761.845 152.807 L761.845 155.006 L753.72 155.006 L753.72 162.229 L751.289 162.229 L751.289 155.006 L743.164 155.006 L743.164 152.807 L751.289 152.807 L751.289 145.585 L753.72 145.585 Z" fill="#000000" fill-rule="nonzero" fill-opacity="1" /><path clip-path="url(#clip420)" d="M326.628 217.525 L467.986 217.525 L467.986 176.053 L326.628 176.053 L326.628 217.525  Z" fill="#0000ff" fill-rule="evenodd" fill-opacity="0.35"/>
<polyline clip-path="url(#clip420)" style="stroke:#000000; stroke-linecap:round; stroke-linejoin:round; stroke-width:4; stroke-opacity:0; fill:none" points="326.628,217.525 467.986,217.525 467.986,176.053 326.628,176.053 326.628,217.525 "/>
<path clip-path="url(#clip420)" d="M491.545 203.837 L491.545 188.143 L495.804 188.143 L495.804 203.675 Q495.804 207.356 497.24 209.208 Q498.675 211.036 501.545 211.036 Q504.994 211.036 506.985 208.837 Q508.999 206.638 508.999 202.842 L508.999 188.143 L513.258 188.143 L513.258 214.069 L508.999 214.069 L508.999 210.087 Q507.448 212.448 505.388 213.606 Q503.351 214.74 500.642 214.74 Q496.175 214.74 493.86 211.962 Q491.545 209.184 491.545 203.837 M502.263 187.518 L502.263 187.518 Z" fill="#000000" fill-rule="nonzero" fill-opacity="1" /><path clip-path="url(#clip420)" d="M520.735 204.647 L539.415 204.647 L539.415 206.846 L520.735 206.846 L520.735 204.647 Z" fill="#000000" fill-rule="nonzero" fill-opacity="1" /><path clip-path="url(#clip420)" d="M572.494 194.786 Q570.642 194.786 569.369 196.083 Q568.096 197.356 568.096 199.208 Q568.096 201.036 569.369 202.309 Q570.642 203.559 572.494 203.559 Q574.346 203.559 575.619 202.309 Q576.892 201.036 576.892 199.208 Q576.892 197.379 575.596 196.083 Q574.323 194.786 572.494 194.786 M572.494 191.8 Q573.975 191.8 575.341 192.379 Q576.707 192.934 577.702 193.999 Q578.767 195.041 579.299 196.36 Q579.832 197.68 579.832 199.208 Q579.832 202.263 577.679 204.393 Q575.549 206.499 572.448 206.499 Q569.323 206.499 567.239 204.416 Q565.156 202.333 565.156 199.208 Q565.156 196.106 567.286 193.953 Q569.415 191.8 572.494 191.8 Z" fill="#000000" fill-rule="nonzero" fill-opacity="1" /><path clip-path="url(#clip420)" d="M606.429 203.837 L606.429 188.143 L610.688 188.143 L610.688 203.675 Q610.688 207.356 612.123 209.208 Q613.558 211.036 616.429 211.036 Q619.878 211.036 621.869 208.837 Q623.883 206.638 623.883 202.842 L623.883 188.143 L628.142 188.143 L628.142 214.069 L623.883 214.069 L623.883 210.087 Q622.332 212.448 620.271 213.606 Q618.234 214.74 615.526 214.74 Q611.059 214.74 608.744 211.962 Q606.429 209.184 606.429 203.837 M617.146 187.518 L617.146 187.518 Z" fill="#000000" fill-rule="nonzero" fill-opacity="1" /><path clip-path="url(#clip420)" d="M646.753 199.601 L646.753 201.846 Q645.619 201.337 644.392 201.083 Q643.188 200.828 641.869 200.828 Q639.855 200.828 638.859 201.36 Q637.864 201.916 637.864 203.004 Q637.864 203.837 638.582 204.3 Q639.299 204.786 641.452 205.203 L642.378 205.388 Q645.271 205.944 646.429 206.916 Q647.632 207.911 647.632 209.694 Q647.632 211.708 645.827 212.888 Q644.044 214.069 640.896 214.069 Q639.577 214.069 638.142 213.837 Q636.73 213.606 635.156 213.166 L635.156 210.689 Q636.637 211.383 638.095 211.731 Q639.531 212.078 640.943 212.078 Q642.841 212.078 643.859 211.499 Q644.878 210.92 644.878 209.879 Q644.878 208.907 644.137 208.374 Q643.489 207.911 640.919 207.379 L639.994 207.194 Q637.494 206.708 636.382 205.758 Q635.271 204.786 635.271 203.096 Q635.271 201.059 636.915 199.948 Q638.535 198.814 641.544 198.814 Q643.026 198.814 644.345 199.022 Q645.665 199.208 646.753 199.601 Z" fill="#000000" fill-rule="nonzero" fill-opacity="1" /><path clip-path="url(#clip420)" d="M680.04 194.786 Q678.188 194.786 676.915 196.083 Q675.641 197.356 675.641 199.208 Q675.641 201.036 676.915 202.309 Q678.188 203.559 680.04 203.559 Q681.891 203.559 683.165 202.309 Q684.438 201.036 684.438 199.208 Q684.438 197.379 683.141 196.083 Q681.868 194.786 680.04 194.786 M680.04 191.8 Q681.521 191.8 682.887 192.379 Q684.253 192.934 685.248 193.999 Q686.313 195.041 686.845 196.36 Q687.378 197.68 687.378 199.208 Q687.378 202.263 685.225 204.393 Q683.095 206.499 679.993 206.499 Q676.868 206.499 674.785 204.416 Q672.702 202.333 672.702 199.208 Q672.702 196.106 674.831 193.953 Q676.961 191.8 680.04 191.8 Z" fill="#000000" fill-rule="nonzero" fill-opacity="1" /><path clip-path="url(#clip420)" d="M713.975 203.837 L713.975 188.143 L718.234 188.143 L718.234 203.675 Q718.234 207.356 719.669 209.208 Q721.104 211.036 723.975 211.036 Q727.424 211.036 729.414 208.837 Q731.428 206.638 731.428 202.842 L731.428 188.143 L735.687 188.143 L735.687 214.069 L731.428 214.069 L731.428 210.087 Q729.877 212.448 727.817 213.606 Q725.78 214.74 723.072 214.74 Q718.604 214.74 716.289 211.962 Q713.975 209.184 713.975 203.837 M724.692 187.518 L724.692 187.518 Z" fill="#000000" fill-rule="nonzero" fill-opacity="1" /><path clip-path="url(#clip420)" d="M753.72 197.425 L753.72 204.647 L761.845 204.647 L761.845 206.846 L753.72 206.846 L753.72 214.069 L751.289 214.069 L751.289 206.846 L743.164 206.846 L743.164 204.647 L751.289 204.647 L751.289 197.425 L753.72 197.425 Z" fill="#000000" fill-rule="nonzero" fill-opacity="1" /><path clip-path="url(#clip420)" d="M326.628 269.365 L467.986 269.365 L467.986 227.893 L326.628 227.893 L326.628 269.365  Z" fill="#9acd32" fill-rule="evenodd" fill-opacity="0.35"/>
<polyline clip-path="url(#clip420)" style="stroke:#000000; stroke-linecap:round; stroke-linejoin:round; stroke-width:4; stroke-opacity:0; fill:none" points="326.628,269.365 467.986,269.365 467.986,227.893 326.628,227.893 326.628,269.365 "/>
<path clip-path="url(#clip420)" d="M491.545 255.677 L491.545 239.983 L495.804 239.983 L495.804 255.515 Q495.804 259.196 497.24 261.048 Q498.675 262.876 501.545 262.876 Q504.994 262.876 506.985 260.677 Q508.999 258.478 508.999 254.682 L508.999 239.983 L513.258 239.983 L513.258 265.909 L508.999 265.909 L508.999 261.927 Q507.448 264.288 505.388 265.446 Q503.351 266.58 500.642 266.58 Q496.175 266.58 493.86 263.802 Q491.545 261.024 491.545 255.677 M502.263 239.358 L502.263 239.358 Z" fill="#000000" fill-rule="nonzero" fill-opacity="1" /><path clip-path="url(#clip420)" d="M520.735 256.487 L539.415 256.487 L539.415 258.686 L520.735 258.686 L520.735 256.487 Z" fill="#000000" fill-rule="nonzero" fill-opacity="1" /><path clip-path="url(#clip420)" d="M572.494 246.626 Q570.642 246.626 569.369 247.923 Q568.096 249.196 568.096 251.048 Q568.096 252.876 569.369 254.149 Q570.642 255.399 572.494 255.399 Q574.346 255.399 575.619 254.149 Q576.892 252.876 576.892 251.048 Q576.892 249.219 575.596 247.923 Q574.323 246.626 572.494 246.626 M572.494 243.64 Q573.975 243.64 575.341 244.219 Q576.707 244.774 577.702 245.839 Q578.767 246.881 579.299 248.2 Q579.832 249.52 579.832 251.048 Q579.832 254.103 577.679 256.233 Q575.549 258.339 572.448 258.339 Q569.323 258.339 567.239 256.256 Q565.156 254.173 565.156 251.048 Q565.156 247.946 567.286 245.793 Q569.415 243.64 572.494 243.64 Z" fill="#000000" fill-rule="nonzero" fill-opacity="1" /><path clip-path="url(#clip420)" d="M606.429 255.677 L606.429 239.983 L610.688 239.983 L610.688 255.515 Q610.688 259.196 612.123 261.048 Q613.558 262.876 616.429 262.876 Q619.878 262.876 621.869 260.677 Q623.883 258.478 623.883 254.682 L623.883 239.983 L628.142 239.983 L628.142 265.909 L623.883 265.909 L623.883 261.927 Q622.332 264.288 620.271 265.446 Q618.234 266.58 615.526 266.58 Q611.059 266.58 608.744 263.802 Q606.429 261.024 606.429 255.677 M617.146 239.358 L617.146 239.358 Z" fill="#000000" fill-rule="nonzero" fill-opacity="1" /><path clip-path="url(#clip420)" d="M646.174 249.265 L646.174 256.487 L654.299 256.487 L654.299 258.686 L646.174 258.686 L646.174 265.909 L643.744 265.909 L643.744 258.686 L635.619 258.686 L635.619 256.487 L643.744 256.487 L643.744 249.265 L646.174 249.265 Z" fill="#000000" fill-rule="nonzero" fill-opacity="1" /><path clip-path="url(#clip420)" d="M326.628 321.205 L467.986 321.205 L467.986 279.733 L326.628 279.733 L326.628 321.205  Z" fill="#ff0000" fill-rule="evenodd" fill-opacity="0.35"/>
<polyline clip-path="url(#clip420)" style="stroke:#000000; stroke-linecap:round; stroke-linejoin:round; stroke-width:4; stroke-opacity:0; fill:none" points="326.628,321.205 467.986,321.205 467.986,279.733 326.628,279.733 326.628,321.205 "/>
<path clip-path="url(#clip420)" d="M491.545 307.517 L491.545 291.823 L495.804 291.823 L495.804 307.355 Q495.804 311.036 497.24 312.888 Q498.675 314.716 501.545 314.716 Q504.994 314.716 506.985 312.517 Q508.999 310.318 508.999 306.522 L508.999 291.823 L513.258 291.823 L513.258 317.749 L508.999 317.749 L508.999 313.767 Q507.448 316.128 505.388 317.286 Q503.351 318.42 500.642 318.42 Q496.175 318.42 493.86 315.642 Q491.545 312.864 491.545 307.517 M502.263 291.198 L502.263 291.198 Z" fill="#000000" fill-rule="nonzero" fill-opacity="1" /><path clip-path="url(#clip420)" d="M531.29 301.105 L531.29 308.327 L539.415 308.327 L539.415 310.526 L531.29 310.526 L531.29 317.749 L528.86 317.749 L528.86 310.526 L520.735 310.526 L520.735 308.327 L528.86 308.327 L528.86 301.105 L531.29 301.105 Z" fill="#000000" fill-rule="nonzero" fill-opacity="1" /><polyline clip-path="url(#clip420)" style="stroke:#008000; stroke-linecap:round; stroke-linejoin:round; stroke-width:12; stroke-opacity:1; fill:none" points="326.628,352.309 467.986,352.309 "/>
<path clip-path="url(#clip420)" d="M491.545 359.357 L491.545 343.663 L495.804 343.663 L495.804 359.195 Q495.804 362.876 497.24 364.728 Q498.675 366.556 501.545 366.556 Q504.994 366.556 506.985 364.357 Q508.999 362.158 508.999 358.362 L508.999 343.663 L513.258 343.663 L513.258 369.589 L508.999 369.589 L508.999 365.607 Q507.448 367.968 505.388 369.126 Q503.351 370.26 500.642 370.26 Q496.175 370.26 493.86 367.482 Q491.545 364.704 491.545 359.357 M502.263 343.038 L502.263 343.038 Z" fill="#000000" fill-rule="nonzero" fill-opacity="1" /><path clip-path="url(#clip420)" d="M531.869 355.121 L531.869 357.366 Q530.735 356.857 529.508 356.603 Q528.304 356.348 526.985 356.348 Q524.971 356.348 523.976 356.88 Q522.98 357.436 522.98 358.524 Q522.98 359.357 523.698 359.82 Q524.415 360.306 526.568 360.723 L527.494 360.908 Q530.388 361.464 531.545 362.436 Q532.749 363.431 532.749 365.214 Q532.749 367.228 530.943 368.408 Q529.161 369.589 526.013 369.589 Q524.693 369.589 523.258 369.357 Q521.846 369.126 520.272 368.686 L520.272 366.209 Q521.753 366.903 523.212 367.251 Q524.647 367.598 526.059 367.598 Q527.957 367.598 528.976 367.019 Q529.994 366.44 529.994 365.399 Q529.994 364.427 529.253 363.894 Q528.605 363.431 526.036 362.899 L525.11 362.714 Q522.61 362.228 521.499 361.278 Q520.388 360.306 520.388 358.616 Q520.388 356.579 522.031 355.468 Q523.652 354.334 526.661 354.334 Q528.142 354.334 529.462 354.542 Q530.781 354.728 531.869 355.121 Z" fill="#000000" fill-rule="nonzero" fill-opacity="1" /><polyline clip-path="url(#clip420)" style="stroke:#ffd700; stroke-linecap:round; stroke-linejoin:round; stroke-width:12; stroke-opacity:1; fill:none" points="326.628,404.149 467.986,404.149 "/>
<path clip-path="url(#clip420)" d="M509.971 396.267 L509.971 400.294 Q508.166 399.369 506.221 398.906 Q504.277 398.443 502.193 398.443 Q499.022 398.443 497.425 399.415 Q495.851 400.387 495.851 402.331 Q495.851 403.813 496.985 404.669 Q498.119 405.503 501.545 406.267 L503.004 406.591 Q507.541 407.563 509.439 409.345 Q511.36 411.105 511.36 414.276 Q511.36 417.887 508.49 419.993 Q505.642 422.1 500.642 422.1 Q498.559 422.1 496.291 421.683 Q494.045 421.29 491.545 420.48 L491.545 416.081 Q493.906 417.308 496.198 417.933 Q498.49 418.535 500.735 418.535 Q503.744 418.535 505.365 417.517 Q506.985 416.475 506.985 414.6 Q506.985 412.864 505.804 411.938 Q504.647 411.012 500.689 410.156 L499.207 409.808 Q495.249 408.975 493.49 407.262 Q491.73 405.526 491.73 402.517 Q491.73 398.859 494.323 396.869 Q496.916 394.878 501.684 394.878 Q504.045 394.878 506.129 395.225 Q508.212 395.572 509.971 396.267 Z" fill="#000000" fill-rule="nonzero" fill-opacity="1" /><path clip-path="url(#clip420)" d="M515.666 395.503 L519.925 395.503 L525.249 415.734 L530.55 395.503 L535.573 395.503 L540.897 415.734 L546.198 395.503 L550.457 395.503 L543.675 421.429 L538.651 421.429 L533.073 400.179 L527.471 421.429 L522.448 421.429 L515.666 395.503 Z" fill="#000000" fill-rule="nonzero" fill-opacity="1" /><path clip-path="url(#clip420)" d="M556.915 395.503 L561.175 395.503 L561.175 421.429 L556.915 421.429 L556.915 395.503 M556.915 385.41 L561.175 385.41 L561.175 390.804 L556.915 390.804 L556.915 385.41 Z" fill="#000000" fill-rule="nonzero" fill-opacity="1" /><path clip-path="url(#clip420)" d="M574.299 388.142 L574.299 395.503 L583.073 395.503 L583.073 398.813 L574.299 398.813 L574.299 412.887 Q574.299 416.058 575.156 416.961 Q576.036 417.864 578.698 417.864 L583.073 417.864 L583.073 421.429 L578.698 421.429 Q573.767 421.429 571.892 419.6 Q570.017 417.748 570.017 412.887 L570.017 398.813 L566.892 398.813 L566.892 395.503 L570.017 395.503 L570.017 388.142 L574.299 388.142 Z" fill="#000000" fill-rule="nonzero" fill-opacity="1" /><path clip-path="url(#clip420)" d="M607.332 396.498 L607.332 400.48 Q605.526 399.484 603.697 398.998 Q601.892 398.489 600.04 398.489 Q595.897 398.489 593.605 401.128 Q591.313 403.744 591.313 408.489 Q591.313 413.234 593.605 415.873 Q595.897 418.489 600.04 418.489 Q601.892 418.489 603.697 418.003 Q605.526 417.493 607.332 416.498 L607.332 420.433 Q605.549 421.267 603.628 421.683 Q601.73 422.1 599.577 422.1 Q593.721 422.1 590.272 418.419 Q586.823 414.739 586.823 408.489 Q586.823 402.146 590.295 398.512 Q593.79 394.878 599.855 394.878 Q601.822 394.878 603.697 395.295 Q605.572 395.688 607.332 396.498 Z" fill="#000000" fill-rule="nonzero" fill-opacity="1" /><path clip-path="url(#clip420)" d="M636.29 405.781 L636.29 421.429 L632.031 421.429 L632.031 405.919 Q632.031 402.239 630.595 400.41 Q629.16 398.582 626.29 398.582 Q622.841 398.582 620.85 400.781 Q618.859 402.98 618.859 406.776 L618.859 421.429 L614.577 421.429 L614.577 385.41 L618.859 385.41 L618.859 399.531 Q620.387 397.193 622.447 396.035 Q624.531 394.878 627.239 394.878 Q631.707 394.878 633.998 397.656 Q636.29 400.41 636.29 405.781 Z" fill="#000000" fill-rule="nonzero" fill-opacity="1" /><path clip-path="url(#clip420)" d="M644.785 395.503 L649.044 395.503 L649.044 421.429 L644.785 421.429 L644.785 395.503 M644.785 385.41 L649.044 385.41 L649.044 390.804 L644.785 390.804 L644.785 385.41 Z" fill="#000000" fill-rule="nonzero" fill-opacity="1" /><path clip-path="url(#clip420)" d="M679.507 405.781 L679.507 421.429 L675.248 421.429 L675.248 405.919 Q675.248 402.239 673.813 400.41 Q672.378 398.582 669.507 398.582 Q666.058 398.582 664.067 400.781 Q662.077 402.98 662.077 406.776 L662.077 421.429 L657.794 421.429 L657.794 395.503 L662.077 395.503 L662.077 399.531 Q663.605 397.193 665.665 396.035 Q667.748 394.878 670.456 394.878 Q674.924 394.878 677.216 397.656 Q679.507 400.41 679.507 405.781 Z" fill="#000000" fill-rule="nonzero" fill-opacity="1" /><path clip-path="url(#clip420)" d="M705.063 408.165 Q705.063 403.535 703.141 400.989 Q701.243 398.443 697.794 398.443 Q694.368 398.443 692.447 400.989 Q690.549 403.535 690.549 408.165 Q690.549 412.771 692.447 415.318 Q694.368 417.864 697.794 417.864 Q701.243 417.864 703.141 415.318 Q705.063 412.771 705.063 408.165 M709.322 418.211 Q709.322 424.831 706.382 428.049 Q703.442 431.29 697.377 431.29 Q695.132 431.29 693.141 430.942 Q691.151 430.618 689.276 429.924 L689.276 425.78 Q691.151 426.799 692.979 427.285 Q694.808 427.771 696.706 427.771 Q700.896 427.771 702.979 425.572 Q705.063 423.396 705.063 418.975 L705.063 416.868 Q703.743 419.16 701.683 420.294 Q699.623 421.429 696.752 421.429 Q691.984 421.429 689.067 417.794 Q686.151 414.16 686.151 408.165 Q686.151 402.146 689.067 398.512 Q691.984 394.878 696.752 394.878 Q699.623 394.878 701.683 396.012 Q703.743 397.146 705.063 399.438 L705.063 395.503 L709.322 395.503 L709.322 418.211 Z" fill="#000000" fill-rule="nonzero" fill-opacity="1" /><path clip-path="url(#clip420)" d="M733.164 385.41 L737.424 385.41 L737.424 421.429 L733.164 421.429 L733.164 385.41 Z" fill="#000000" fill-rule="nonzero" fill-opacity="1" /><path clip-path="url(#clip420)" d="M756.382 398.489 Q752.956 398.489 750.965 401.174 Q748.974 403.836 748.974 408.489 Q748.974 413.142 750.942 415.827 Q752.933 418.489 756.382 418.489 Q759.785 418.489 761.775 415.804 Q763.766 413.118 763.766 408.489 Q763.766 403.882 761.775 401.197 Q759.785 398.489 756.382 398.489 M756.382 394.878 Q761.937 394.878 765.109 398.489 Q768.28 402.1 768.28 408.489 Q768.28 414.855 765.109 418.489 Q761.937 422.1 756.382 422.1 Q750.803 422.1 747.632 418.489 Q744.484 414.855 744.484 408.489 Q744.484 402.1 747.632 398.489 Q750.803 394.878 756.382 394.878 Z" fill="#000000" fill-rule="nonzero" fill-opacity="1" /><path clip-path="url(#clip420)" d="M793.997 396.498 L793.997 400.48 Q792.192 399.484 790.363 398.998 Q788.558 398.489 786.706 398.489 Q782.562 398.489 780.271 401.128 Q777.979 403.744 777.979 408.489 Q777.979 413.234 780.271 415.873 Q782.562 418.489 786.706 418.489 Q788.558 418.489 790.363 418.003 Q792.192 417.493 793.997 416.498 L793.997 420.433 Q792.215 421.267 790.294 421.683 Q788.396 422.1 786.243 422.1 Q780.386 422.1 776.937 418.419 Q773.488 414.739 773.488 408.489 Q773.488 402.146 776.96 398.512 Q780.456 394.878 786.521 394.878 Q788.488 394.878 790.363 395.295 Q792.238 395.688 793.997 396.498 Z" fill="#000000" fill-rule="nonzero" fill-opacity="1" /><path clip-path="url(#clip420)" d="M800.965 411.197 L800.965 395.503 L805.224 395.503 L805.224 411.035 Q805.224 414.716 806.659 416.568 Q808.094 418.396 810.965 418.396 Q814.414 418.396 816.405 416.197 Q818.419 413.998 818.419 410.202 L818.419 395.503 L822.678 395.503 L822.678 421.429 L818.419 421.429 L818.419 417.447 Q816.868 419.808 814.807 420.966 Q812.77 422.1 810.062 422.1 Q805.595 422.1 803.28 419.322 Q800.965 416.544 800.965 411.197 M811.682 394.878 L811.682 394.878 Z" fill="#000000" fill-rule="nonzero" fill-opacity="1" /><path clip-path="url(#clip420)" d="M847.979 396.267 L847.979 400.294 Q846.173 399.369 844.229 398.906 Q842.284 398.443 840.201 398.443 Q837.03 398.443 835.432 399.415 Q833.858 400.387 833.858 402.331 Q833.858 403.813 834.992 404.669 Q836.127 405.503 839.553 406.267 L841.011 406.591 Q845.548 407.563 847.446 409.345 Q849.367 411.105 849.367 414.276 Q849.367 417.887 846.497 419.993 Q843.65 422.1 838.65 422.1 Q836.567 422.1 834.298 421.683 Q832.053 421.29 829.553 420.48 L829.553 416.081 Q831.914 417.308 834.205 417.933 Q836.497 418.535 838.742 418.535 Q841.752 418.535 843.372 417.517 Q844.992 416.475 844.992 414.6 Q844.992 412.864 843.812 411.938 Q842.654 411.012 838.696 410.156 L837.215 409.808 Q833.256 408.975 831.497 407.262 Q829.738 405.526 829.738 402.517 Q829.738 398.859 832.33 396.869 Q834.923 394.878 839.692 394.878 Q842.053 394.878 844.136 395.225 Q846.219 395.572 847.979 396.267 Z" fill="#000000" fill-rule="nonzero" fill-opacity="1" /><polyline clip-path="url(#clip420)" style="stroke:#808080; stroke-linecap:round; stroke-linejoin:round; stroke-width:12; stroke-opacity:1; fill:none" points="326.628,455.989 467.986,455.989 "/>
<path clip-path="url(#clip420)" d="M510.457 451.278 L510.457 437.25 L514.716 437.25 L514.716 473.269 L510.457 473.269 L510.457 469.38 Q509.115 471.695 507.054 472.829 Q505.017 473.94 502.147 473.94 Q497.448 473.94 494.485 470.19 Q491.545 466.44 491.545 460.329 Q491.545 454.218 494.485 450.468 Q497.448 446.718 502.147 446.718 Q505.017 446.718 507.054 447.852 Q509.115 448.963 510.457 451.278 M495.943 460.329 Q495.943 465.028 497.865 467.713 Q499.809 470.375 503.189 470.375 Q506.568 470.375 508.513 467.713 Q510.457 465.028 510.457 460.329 Q510.457 455.63 508.513 452.968 Q506.568 450.283 503.189 450.283 Q499.809 450.283 497.865 452.968 Q495.943 455.63 495.943 460.329 Z" fill="#000000" fill-rule="nonzero" fill-opacity="1" /><path clip-path="url(#clip420)" d="M523.49 447.343 L527.749 447.343 L527.749 473.269 L523.49 473.269 L523.49 447.343 M523.49 437.25 L527.749 437.25 L527.749 442.644 L523.49 442.644 L523.49 437.25 Z" fill="#000000" fill-rule="nonzero" fill-opacity="1" /><path clip-path="url(#clip420)" d="M553.188 448.107 L553.188 452.134 Q551.383 451.209 549.438 450.746 Q547.494 450.283 545.411 450.283 Q542.239 450.283 540.642 451.255 Q539.068 452.227 539.068 454.171 Q539.068 455.653 540.202 456.509 Q541.337 457.343 544.763 458.107 L546.221 458.431 Q550.758 459.403 552.656 461.185 Q554.577 462.945 554.577 466.116 Q554.577 469.727 551.707 471.833 Q548.86 473.94 543.86 473.94 Q541.776 473.94 539.508 473.523 Q537.263 473.13 534.763 472.32 L534.763 467.921 Q537.124 469.148 539.415 469.773 Q541.707 470.375 543.952 470.375 Q546.962 470.375 548.582 469.357 Q550.202 468.315 550.202 466.44 Q550.202 464.704 549.022 463.778 Q547.864 462.852 543.906 461.996 L542.425 461.648 Q538.466 460.815 536.707 459.102 Q534.948 457.366 534.948 454.357 Q534.948 450.699 537.54 448.709 Q540.133 446.718 544.901 446.718 Q547.263 446.718 549.346 447.065 Q551.429 447.412 553.188 448.107 Z" fill="#000000" fill-rule="nonzero" fill-opacity="1" /><path clip-path="url(#clip420)" d="M565.48 469.38 L565.48 483.13 L561.198 483.13 L561.198 447.343 L565.48 447.343 L565.48 451.278 Q566.823 448.963 568.86 447.852 Q570.92 446.718 573.767 446.718 Q578.489 446.718 581.429 450.468 Q584.392 454.218 584.392 460.329 Q584.392 466.44 581.429 470.19 Q578.489 473.94 573.767 473.94 Q570.92 473.94 568.86 472.829 Q566.823 471.695 565.48 469.38 M579.971 460.329 Q579.971 455.63 578.026 452.968 Q576.105 450.283 572.725 450.283 Q569.346 450.283 567.401 452.968 Q565.48 455.63 565.48 460.329 Q565.48 465.028 567.401 467.713 Q569.346 470.375 572.725 470.375 Q576.105 470.375 578.026 467.713 Q579.971 465.028 579.971 460.329 Z" fill="#000000" fill-rule="nonzero" fill-opacity="1" /><path clip-path="url(#clip420)" d="M613.628 459.241 L613.628 461.324 L594.045 461.324 Q594.322 465.722 596.684 468.037 Q599.068 470.329 603.304 470.329 Q605.758 470.329 608.049 469.727 Q610.364 469.125 612.633 467.921 L612.633 471.949 Q610.341 472.921 607.934 473.431 Q605.526 473.94 603.049 473.94 Q596.846 473.94 593.211 470.329 Q589.6 466.718 589.6 460.56 Q589.6 454.195 593.026 450.468 Q596.475 446.718 602.309 446.718 Q607.54 446.718 610.572 450.097 Q613.628 453.454 613.628 459.241 M609.369 457.991 Q609.322 454.496 607.401 452.412 Q605.503 450.329 602.355 450.329 Q598.79 450.329 596.637 452.343 Q594.508 454.357 594.184 458.014 L609.369 457.991 Z" fill="#000000" fill-rule="nonzero" fill-opacity="1" /><path clip-path="url(#clip420)" d="M635.642 451.324 Q634.924 450.908 634.068 450.722 Q633.234 450.514 632.216 450.514 Q628.605 450.514 626.66 452.875 Q624.739 455.213 624.739 459.611 L624.739 473.269 L620.457 473.269 L620.457 447.343 L624.739 447.343 L624.739 451.371 Q626.082 449.009 628.234 447.875 Q630.387 446.718 633.466 446.718 Q633.906 446.718 634.438 446.787 Q634.97 446.834 635.619 446.949 L635.642 451.324 Z" fill="#000000" fill-rule="nonzero" fill-opacity="1" /><path clip-path="url(#clip420)" d="M656.637 448.107 L656.637 452.134 Q654.831 451.209 652.887 450.746 Q650.943 450.283 648.859 450.283 Q645.688 450.283 644.091 451.255 Q642.517 452.227 642.517 454.171 Q642.517 455.653 643.651 456.509 Q644.785 457.343 648.211 458.107 L649.669 458.431 Q654.206 459.403 656.105 461.185 Q658.026 462.945 658.026 466.116 Q658.026 469.727 655.155 471.833 Q652.308 473.94 647.308 473.94 Q645.225 473.94 642.956 473.523 Q640.711 473.13 638.211 472.32 L638.211 467.921 Q640.572 469.148 642.864 469.773 Q645.156 470.375 647.401 470.375 Q650.41 470.375 652.031 469.357 Q653.651 468.315 653.651 466.44 Q653.651 464.704 652.47 463.778 Q651.313 462.852 647.355 461.996 L645.873 461.648 Q641.915 460.815 640.156 459.102 Q638.396 457.366 638.396 454.357 Q638.396 450.699 640.989 448.709 Q643.581 446.718 648.35 446.718 Q650.711 446.718 652.794 447.065 Q654.878 447.412 656.637 448.107 Z" fill="#000000" fill-rule="nonzero" fill-opacity="1" /><path clip-path="url(#clip420)" d="M676.591 460.236 Q671.429 460.236 669.438 461.417 Q667.447 462.597 667.447 465.445 Q667.447 467.713 668.929 469.056 Q670.433 470.375 673.003 470.375 Q676.544 470.375 678.674 467.875 Q680.827 465.352 680.827 461.185 L680.827 460.236 L676.591 460.236 M685.086 458.477 L685.086 473.269 L680.827 473.269 L680.827 469.333 Q679.368 471.695 677.192 472.829 Q675.016 473.94 671.868 473.94 Q667.887 473.94 665.526 471.718 Q663.188 469.472 663.188 465.722 Q663.188 461.347 666.105 459.125 Q669.044 456.903 674.854 456.903 L680.827 456.903 L680.827 456.486 Q680.827 453.547 678.882 451.949 Q676.961 450.329 673.466 450.329 Q671.243 450.329 669.137 450.861 Q667.03 451.394 665.086 452.459 L665.086 448.523 Q667.424 447.621 669.623 447.181 Q671.822 446.718 673.905 446.718 Q679.53 446.718 682.308 449.634 Q685.086 452.551 685.086 458.477 Z" fill="#000000" fill-rule="nonzero" fill-opacity="1" /><path clip-path="url(#clip420)" d="M693.859 437.25 L698.118 437.25 L698.118 473.269 L693.859 473.269 L693.859 437.25 Z" fill="#000000" fill-rule="nonzero" fill-opacity="1" /><path clip-path="url(#clip420)" d="M722.1 437.25 L726.359 437.25 L726.359 473.269 L722.1 473.269 L722.1 437.25 Z" fill="#000000" fill-rule="nonzero" fill-opacity="1" /><path clip-path="url(#clip420)" d="M745.317 450.329 Q741.891 450.329 739.9 453.014 Q737.91 455.676 737.91 460.329 Q737.91 464.982 739.877 467.667 Q741.868 470.329 745.317 470.329 Q748.72 470.329 750.711 467.644 Q752.701 464.958 752.701 460.329 Q752.701 455.722 750.711 453.037 Q748.72 450.329 745.317 450.329 M745.317 446.718 Q750.873 446.718 754.044 450.329 Q757.215 453.94 757.215 460.329 Q757.215 466.695 754.044 470.329 Q750.873 473.94 745.317 473.94 Q739.738 473.94 736.567 470.329 Q733.419 466.695 733.419 460.329 Q733.419 453.94 736.567 450.329 Q739.738 446.718 745.317 446.718 Z" fill="#000000" fill-rule="nonzero" fill-opacity="1" /><path clip-path="url(#clip420)" d="M782.933 448.338 L782.933 452.32 Q781.127 451.324 779.298 450.838 Q777.493 450.329 775.641 450.329 Q771.497 450.329 769.206 452.968 Q766.914 455.584 766.914 460.329 Q766.914 465.074 769.206 467.713 Q771.497 470.329 775.641 470.329 Q777.493 470.329 779.298 469.843 Q781.127 469.333 782.933 468.338 L782.933 472.273 Q781.15 473.107 779.229 473.523 Q777.331 473.94 775.178 473.94 Q769.322 473.94 765.872 470.259 Q762.423 466.579 762.423 460.329 Q762.423 453.986 765.896 450.352 Q769.391 446.718 775.456 446.718 Q777.423 446.718 779.298 447.135 Q781.173 447.528 782.933 448.338 Z" fill="#000000" fill-rule="nonzero" fill-opacity="1" /><path clip-path="url(#clip420)" d="M789.9 463.037 L789.9 447.343 L794.159 447.343 L794.159 462.875 Q794.159 466.556 795.595 468.408 Q797.03 470.236 799.9 470.236 Q803.349 470.236 805.34 468.037 Q807.354 465.838 807.354 462.042 L807.354 447.343 L811.613 447.343 L811.613 473.269 L807.354 473.269 L807.354 469.287 Q805.803 471.648 803.743 472.806 Q801.706 473.94 798.997 473.94 Q794.53 473.94 792.215 471.162 Q789.9 468.384 789.9 463.037 M800.618 446.718 L800.618 446.718 Z" fill="#000000" fill-rule="nonzero" fill-opacity="1" /><path clip-path="url(#clip420)" d="M836.914 448.107 L836.914 452.134 Q835.108 451.209 833.164 450.746 Q831.219 450.283 829.136 450.283 Q825.965 450.283 824.368 451.255 Q822.793 452.227 822.793 454.171 Q822.793 455.653 823.928 456.509 Q825.062 457.343 828.488 458.107 L829.946 458.431 Q834.483 459.403 836.381 461.185 Q838.303 462.945 838.303 466.116 Q838.303 469.727 835.432 471.833 Q832.585 473.94 827.585 473.94 Q825.502 473.94 823.233 473.523 Q820.988 473.13 818.488 472.32 L818.488 467.921 Q820.849 469.148 823.141 469.773 Q825.432 470.375 827.678 470.375 Q830.687 470.375 832.307 469.357 Q833.928 468.315 833.928 466.44 Q833.928 464.704 832.747 463.778 Q831.59 462.852 827.631 461.996 L826.15 461.648 Q822.192 460.815 820.432 459.102 Q818.673 457.366 818.673 454.357 Q818.673 450.699 821.266 448.709 Q823.858 446.718 828.627 446.718 Q830.988 446.718 833.071 447.065 Q835.155 447.412 836.914 448.107 Z" fill="#000000" fill-rule="nonzero" fill-opacity="1" /><polyline clip-path="url(#clip420)" style="stroke:#009af9; stroke-linecap:round; stroke-linejoin:round; stroke-width:4; stroke-opacity:1; fill:none" points="326.628,507.829 467.986,507.829 "/>
<path clip-path="url(#clip420)" d="M503.443 502.169 Q500.017 502.169 498.027 504.854 Q496.036 507.516 496.036 512.169 Q496.036 516.822 498.004 519.507 Q499.994 522.169 503.443 522.169 Q506.846 522.169 508.837 519.484 Q510.828 516.798 510.828 512.169 Q510.828 507.562 508.837 504.877 Q506.846 502.169 503.443 502.169 M503.443 498.558 Q508.999 498.558 512.17 502.169 Q515.341 505.78 515.341 512.169 Q515.341 518.535 512.17 522.169 Q508.999 525.78 503.443 525.78 Q497.865 525.78 494.693 522.169 Q491.545 518.535 491.545 512.169 Q491.545 505.78 494.693 502.169 Q497.865 498.558 503.443 498.558 Z" fill="#000000" fill-rule="nonzero" fill-opacity="1" /><path clip-path="url(#clip420)" d="M526.522 521.22 L526.522 534.97 L522.24 534.97 L522.24 499.183 L526.522 499.183 L526.522 503.118 Q527.865 500.803 529.902 499.692 Q531.962 498.558 534.809 498.558 Q539.531 498.558 542.471 502.308 Q545.434 506.058 545.434 512.169 Q545.434 518.28 542.471 522.03 Q539.531 525.78 534.809 525.78 Q531.962 525.78 529.902 524.669 Q527.865 523.535 526.522 521.22 M541.013 512.169 Q541.013 507.47 539.068 504.808 Q537.147 502.123 533.767 502.123 Q530.388 502.123 528.443 504.808 Q526.522 507.47 526.522 512.169 Q526.522 516.868 528.443 519.553 Q530.388 522.215 533.767 522.215 Q537.147 522.215 539.068 519.553 Q541.013 516.868 541.013 512.169 Z" fill="#000000" fill-rule="nonzero" fill-opacity="1" /><path clip-path="url(#clip420)" d="M556.707 491.822 L556.707 499.183 L565.48 499.183 L565.48 502.493 L556.707 502.493 L556.707 516.567 Q556.707 519.738 557.563 520.641 Q558.443 521.544 561.105 521.544 L565.48 521.544 L565.48 525.109 L561.105 525.109 Q556.175 525.109 554.3 523.28 Q552.425 521.428 552.425 516.567 L552.425 502.493 L549.3 502.493 L549.3 499.183 L552.425 499.183 L552.425 491.822 L556.707 491.822 Z" fill="#000000" fill-rule="nonzero" fill-opacity="1" /><path clip-path="url(#clip420)" d="M571.082 499.183 L575.341 499.183 L575.341 525.109 L571.082 525.109 L571.082 499.183 M571.082 489.09 L575.341 489.09 L575.341 494.484 L571.082 494.484 L571.082 489.09 Z" fill="#000000" fill-rule="nonzero" fill-opacity="1" /><path clip-path="url(#clip420)" d="M604.438 504.16 Q606.035 501.289 608.258 499.924 Q610.48 498.558 613.489 498.558 Q617.54 498.558 619.739 501.405 Q621.938 504.229 621.938 509.461 L621.938 525.109 L617.656 525.109 L617.656 509.599 Q617.656 505.873 616.336 504.067 Q615.017 502.262 612.309 502.262 Q608.998 502.262 607.077 504.461 Q605.156 506.66 605.156 510.456 L605.156 525.109 L600.873 525.109 L600.873 509.599 Q600.873 505.849 599.554 504.067 Q598.235 502.262 595.48 502.262 Q592.216 502.262 590.295 504.484 Q588.373 506.683 588.373 510.456 L588.373 525.109 L584.091 525.109 L584.091 499.183 L588.373 499.183 L588.373 503.211 Q589.832 500.826 591.869 499.692 Q593.906 498.558 596.707 498.558 Q599.531 498.558 601.498 499.993 Q603.489 501.428 604.438 504.16 Z" fill="#000000" fill-rule="nonzero" fill-opacity="1" /><path clip-path="url(#clip420)" d="M642.216 512.076 Q637.054 512.076 635.063 513.257 Q633.072 514.437 633.072 517.285 Q633.072 519.553 634.554 520.896 Q636.058 522.215 638.628 522.215 Q642.169 522.215 644.299 519.715 Q646.452 517.192 646.452 513.025 L646.452 512.076 L642.216 512.076 M650.711 510.317 L650.711 525.109 L646.452 525.109 L646.452 521.173 Q644.994 523.535 642.818 524.669 Q640.642 525.78 637.494 525.78 Q633.512 525.78 631.151 523.558 Q628.813 521.312 628.813 517.562 Q628.813 513.187 631.73 510.965 Q634.669 508.743 640.48 508.743 L646.452 508.743 L646.452 508.326 Q646.452 505.387 644.507 503.789 Q642.586 502.169 639.091 502.169 Q636.869 502.169 634.762 502.701 Q632.656 503.234 630.711 504.299 L630.711 500.363 Q633.049 499.461 635.248 499.021 Q637.447 498.558 639.531 498.558 Q645.156 498.558 647.933 501.474 Q650.711 504.391 650.711 510.317 Z" fill="#000000" fill-rule="nonzero" fill-opacity="1" /><path clip-path="url(#clip420)" d="M659.484 489.09 L663.743 489.09 L663.743 525.109 L659.484 525.109 L659.484 489.09 Z" fill="#000000" fill-rule="nonzero" fill-opacity="1" /></svg>
