<?xml version="1.0" encoding="utf-8"?>
<svg xmlns="http://www.w3.org/2000/svg" xmlns:xlink="http://www.w3.org/1999/xlink" width="600" height="400" viewBox="0 0 2400 1600">
<defs>
  <clipPath id="clip600">
    <rect x="0" y="0" width="2400" height="1600"/>
  </clipPath>
</defs>
<path clip-path="url(#clip600)" d="M0 1600 L2400 1600 L2400 0 L0 0  Z" fill="#ffffff" fill-rule="evenodd" fill-opacity="1"/>
<defs>
  <clipPath id="clip601">
    <rect x="480" y="0" width="1681" height="1600"/>
  </clipPath>
</defs>
<path clip-path="url(#clip600)" d="M193.936 1486.45 L2352.76 1486.45 L2352.76 47.2441 L193.936 47.2441  Z" fill="#ffffff" fill-rule="evenodd" fill-opacity="1"/>
<defs>
  <clipPath id="clip602">
    <rect x="193" y="47" width="2160" height="1440"/>
  </clipPath>
</defs>
<polyline clip-path="url(#clip602)" style="stroke:#000000; stroke-linecap:round; stroke-linejoin:round; stroke-width:2; stroke-opacity:0.1; fill:none" points="255.035,1486.45 255.035,47.2441 "/>
<polyline clip-path="url(#clip602)" style="stroke:#000000; stroke-linecap:round; stroke-linejoin:round; stroke-width:2; stroke-opacity:0.1; fill:none" points="662.359,1486.45 662.359,47.2441 "/>
<polyline clip-path="url(#clip602)" style="stroke:#000000; stroke-linecap:round; stroke-linejoin:round; stroke-width:2; stroke-opacity:0.1; fill:none" points="1069.68,1486.45 1069.68,47.2441 "/>
<polyline clip-path="url(#clip602)" style="stroke:#000000; stroke-linecap:round; stroke-linejoin:round; stroke-width:2; stroke-opacity:0.1; fill:none" points="1477.01,1486.45 1477.01,47.2441 "/>
<polyline clip-path="url(#clip602)" style="stroke:#000000; stroke-linecap:round; stroke-linejoin:round; stroke-width:2; stroke-opacity:0.1; fill:none" points="1884.33,1486.45 1884.33,47.2441 "/>
<polyline clip-path="url(#clip602)" style="stroke:#000000; stroke-linecap:round; stroke-linejoin:round; stroke-width:2; stroke-opacity:0.1; fill:none" points="2291.66,1486.45 2291.66,47.2441 "/>
<polyline clip-path="url(#clip602)" style="stroke:#000000; stroke-linecap:round; stroke-linejoin:round; stroke-width:2; stroke-opacity:0.1; fill:none" points="193.936,1486.45 2352.76,1486.45 "/>
<polyline clip-path="url(#clip602)" style="stroke:#000000; stroke-linecap:round; stroke-linejoin:round; stroke-width:2; stroke-opacity:0.1; fill:none" points="193.936,1126.65 2352.76,1126.65 "/>
<polyline clip-path="url(#clip602)" style="stroke:#000000; stroke-linecap:round; stroke-linejoin:round; stroke-width:2; stroke-opacity:0.1; fill:none" points="193.936,766.846 2352.76,766.846 "/>
<polyline clip-path="url(#clip602)" style="stroke:#000000; stroke-linecap:round; stroke-linejoin:round; stroke-width:2; stroke-opacity:0.1; fill:none" points="193.936,407.045 2352.76,407.045 "/>
<polyline clip-path="url(#clip602)" style="stroke:#000000; stroke-linecap:round; stroke-linejoin:round; stroke-width:2; stroke-opacity:0.1; fill:none" points="193.936,47.2441 2352.76,47.2441 "/>
<polyline clip-path="url(#clip600)" style="stroke:#000000; stroke-linecap:round; stroke-linejoin:round; stroke-width:4; stroke-opacity:1; fill:none" points="193.936,1486.45 2352.76,1486.45 "/>
<polyline clip-path="url(#clip600)" style="stroke:#000000; stroke-linecap:round; stroke-linejoin:round; stroke-width:4; stroke-opacity:1; fill:none" points="255.035,1486.45 255.035,1467.55 "/>
<polyline clip-path="url(#clip600)" style="stroke:#000000; stroke-linecap:round; stroke-linejoin:round; stroke-width:4; stroke-opacity:1; fill:none" points="662.359,1486.45 662.359,1467.55 "/>
<polyline clip-path="url(#clip600)" style="stroke:#000000; stroke-linecap:round; stroke-linejoin:round; stroke-width:4; stroke-opacity:1; fill:none" points="1069.68,1486.45 1069.68,1467.55 "/>
<polyline clip-path="url(#clip600)" style="stroke:#000000; stroke-linecap:round; stroke-linejoin:round; stroke-width:4; stroke-opacity:1; fill:none" points="1477.01,1486.45 1477.01,1467.55 "/>
<polyline clip-path="url(#clip600)" style="stroke:#000000; stroke-linecap:round; stroke-linejoin:round; stroke-width:4; stroke-opacity:1; fill:none" points="1884.33,1486.45 1884.33,1467.55 "/>
<polyline clip-path="url(#clip600)" style="stroke:#000000; stroke-linecap:round; stroke-linejoin:round; stroke-width:4; stroke-opacity:1; fill:none" points="2291.66,1486.45 2291.66,1467.55 "/>
<path clip-path="url(#clip600)" d="M255.035 1517.37 Q251.424 1517.37 249.595 1520.93 Q247.789 1524.47 247.789 1531.6 Q247.789 1538.71 249.595 1542.27 Q251.424 1545.82 255.035 1545.82 Q258.669 1545.82 260.474 1542.27 Q262.303 1538.71 262.303 1531.6 Q262.303 1524.47 260.474 1520.93 Q258.669 1517.37 255.035 1517.37 M255.035 1513.66 Q260.845 1513.66 263.9 1518.27 Q266.979 1522.85 266.979 1531.6 Q266.979 1540.33 263.9 1544.94 Q260.845 1549.52 255.035 1549.52 Q249.225 1549.52 246.146 1544.94 Q243.09 1540.33 243.09 1531.6 Q243.09 1522.85 246.146 1518.27 Q249.225 1513.66 255.035 1513.66 Z" fill="#000000" fill-rule="nonzero" fill-opacity="1" /><path clip-path="url(#clip600)" d="M637.047 1544.91 L644.686 1544.91 L644.686 1518.55 L636.376 1520.21 L636.376 1515.95 L644.639 1514.29 L649.315 1514.29 L649.315 1544.91 L656.954 1544.91 L656.954 1548.85 L637.047 1548.85 L637.047 1544.91 Z" fill="#000000" fill-rule="nonzero" fill-opacity="1" /><path clip-path="url(#clip600)" d="M676.398 1517.37 Q672.787 1517.37 670.959 1520.93 Q669.153 1524.47 669.153 1531.6 Q669.153 1538.71 670.959 1542.27 Q672.787 1545.82 676.398 1545.82 Q680.033 1545.82 681.838 1542.27 Q683.667 1538.71 683.667 1531.6 Q683.667 1524.47 681.838 1520.93 Q680.033 1517.37 676.398 1517.37 M676.398 1513.66 Q682.209 1513.66 685.264 1518.27 Q688.343 1522.85 688.343 1531.6 Q688.343 1540.33 685.264 1544.94 Q682.209 1549.52 676.398 1549.52 Q670.588 1549.52 667.51 1544.94 Q664.454 1540.33 664.454 1531.6 Q664.454 1522.85 667.51 1518.27 Q670.588 1513.66 676.398 1513.66 Z" fill="#000000" fill-rule="nonzero" fill-opacity="1" /><path clip-path="url(#clip600)" d="M1048.46 1544.91 L1064.78 1544.91 L1064.78 1548.85 L1042.83 1548.85 L1042.83 1544.91 Q1045.49 1542.16 1050.08 1537.53 Q1054.68 1532.88 1055.86 1531.53 Q1058.11 1529.01 1058.99 1527.27 Q1059.89 1525.51 1059.89 1523.82 Q1059.89 1521.07 1057.95 1519.33 Q1056.03 1517.6 1052.92 1517.6 Q1050.73 1517.6 1048.27 1518.36 Q1045.84 1519.13 1043.06 1520.68 L1043.06 1515.95 Q1045.89 1514.82 1048.34 1514.24 Q1050.79 1513.66 1052.83 1513.66 Q1058.2 1513.66 1061.4 1516.35 Q1064.59 1519.03 1064.59 1523.52 Q1064.59 1525.65 1063.78 1527.57 Q1062.99 1529.47 1060.89 1532.07 Q1060.31 1532.74 1057.21 1535.95 Q1054.11 1539.15 1048.46 1544.91 Z" fill="#000000" fill-rule="nonzero" fill-opacity="1" /><path clip-path="url(#clip600)" d="M1084.59 1517.37 Q1080.98 1517.37 1079.15 1520.93 Q1077.35 1524.47 1077.35 1531.6 Q1077.35 1538.71 1079.15 1542.27 Q1080.98 1545.82 1084.59 1545.82 Q1088.23 1545.82 1090.03 1542.27 Q1091.86 1538.71 1091.86 1531.6 Q1091.86 1524.47 1090.03 1520.93 Q1088.23 1517.37 1084.59 1517.37 M1084.59 1513.66 Q1090.4 1513.66 1093.46 1518.27 Q1096.54 1522.85 1096.54 1531.6 Q1096.54 1540.33 1093.46 1544.94 Q1090.4 1549.52 1084.59 1549.52 Q1078.78 1549.52 1075.7 1544.94 Q1072.65 1540.33 1072.65 1531.6 Q1072.65 1522.85 1075.7 1518.27 Q1078.78 1513.66 1084.59 1513.66 Z" fill="#000000" fill-rule="nonzero" fill-opacity="1" /><path clip-path="url(#clip600)" d="M1465.85 1530.21 Q1469.21 1530.93 1471.08 1533.2 Q1472.98 1535.47 1472.98 1538.8 Q1472.98 1543.92 1469.46 1546.72 Q1465.94 1549.52 1459.46 1549.52 Q1457.29 1549.52 1454.97 1549.08 Q1452.68 1548.66 1450.23 1547.81 L1450.23 1543.29 Q1452.17 1544.43 1454.49 1545.01 Q1456.8 1545.58 1459.32 1545.58 Q1463.72 1545.58 1466.01 1543.85 Q1468.33 1542.11 1468.33 1538.8 Q1468.33 1535.75 1466.17 1534.03 Q1464.05 1532.3 1460.23 1532.3 L1456.2 1532.3 L1456.2 1528.45 L1460.41 1528.45 Q1463.86 1528.45 1465.69 1527.09 Q1467.52 1525.7 1467.52 1523.11 Q1467.52 1520.45 1465.62 1519.03 Q1463.74 1517.6 1460.23 1517.6 Q1458.3 1517.6 1456.11 1518.01 Q1453.91 1518.43 1451.27 1519.31 L1451.27 1515.14 Q1453.93 1514.4 1456.24 1514.03 Q1458.58 1513.66 1460.64 1513.66 Q1465.97 1513.66 1469.07 1516.09 Q1472.17 1518.5 1472.17 1522.62 Q1472.17 1525.49 1470.53 1527.48 Q1468.88 1529.45 1465.85 1530.21 Z" fill="#000000" fill-rule="nonzero" fill-opacity="1" /><path clip-path="url(#clip600)" d="M1491.85 1517.37 Q1488.23 1517.37 1486.41 1520.93 Q1484.6 1524.47 1484.6 1531.6 Q1484.6 1538.71 1486.41 1542.27 Q1488.23 1545.82 1491.85 1545.82 Q1495.48 1545.82 1497.29 1542.27 Q1499.11 1538.71 1499.11 1531.6 Q1499.11 1524.47 1497.29 1520.93 Q1495.48 1517.37 1491.85 1517.37 M1491.85 1513.66 Q1497.66 1513.66 1500.71 1518.27 Q1503.79 1522.85 1503.79 1531.6 Q1503.79 1540.33 1500.71 1544.94 Q1497.66 1549.52 1491.85 1549.52 Q1486.04 1549.52 1482.96 1544.94 Q1479.9 1540.33 1479.9 1531.6 Q1479.9 1522.85 1482.96 1518.27 Q1486.04 1513.66 1491.85 1513.66 Z" fill="#000000" fill-rule="nonzero" fill-opacity="1" /><path clip-path="url(#clip600)" d="M1872.5 1518.36 L1860.7 1536.81 L1872.5 1536.81 L1872.5 1518.36 M1871.28 1514.29 L1877.16 1514.29 L1877.16 1536.81 L1882.09 1536.81 L1882.09 1540.7 L1877.16 1540.7 L1877.16 1548.85 L1872.5 1548.85 L1872.5 1540.7 L1856.9 1540.7 L1856.9 1536.19 L1871.28 1514.29 Z" fill="#000000" fill-rule="nonzero" fill-opacity="1" /><path clip-path="url(#clip600)" d="M1899.82 1517.37 Q1896.21 1517.37 1894.38 1520.93 Q1892.57 1524.47 1892.57 1531.6 Q1892.57 1538.71 1894.38 1542.27 Q1896.21 1545.82 1899.82 1545.82 Q1903.45 1545.82 1905.26 1542.27 Q1907.09 1538.71 1907.09 1531.6 Q1907.09 1524.47 1905.26 1520.93 Q1903.45 1517.37 1899.82 1517.37 M1899.82 1513.66 Q1905.63 1513.66 1908.68 1518.27 Q1911.76 1522.85 1911.76 1531.6 Q1911.76 1540.33 1908.68 1544.94 Q1905.63 1549.52 1899.82 1549.52 Q1894.01 1549.52 1890.93 1544.94 Q1887.87 1540.33 1887.87 1531.6 Q1887.87 1522.85 1890.93 1518.27 Q1894.01 1513.66 1899.82 1513.66 Z" fill="#000000" fill-rule="nonzero" fill-opacity="1" /><path clip-path="url(#clip600)" d="M2266.36 1514.29 L2284.71 1514.29 L2284.71 1518.22 L2270.64 1518.22 L2270.64 1526.7 Q2271.66 1526.35 2272.68 1526.19 Q2273.69 1526 2274.71 1526 Q2280.5 1526 2283.88 1529.17 Q2287.26 1532.34 2287.26 1537.76 Q2287.26 1543.34 2283.79 1546.44 Q2280.31 1549.52 2274 1549.52 Q2271.82 1549.52 2269.55 1549.15 Q2267.31 1548.78 2264.9 1548.04 L2264.9 1543.34 Q2266.98 1544.47 2269.2 1545.03 Q2271.43 1545.58 2273.9 1545.58 Q2277.91 1545.58 2280.25 1543.48 Q2282.58 1541.37 2282.58 1537.76 Q2282.58 1534.15 2280.25 1532.04 Q2277.91 1529.94 2273.9 1529.94 Q2272.03 1529.94 2270.15 1530.35 Q2268.3 1530.77 2266.36 1531.65 L2266.36 1514.29 Z" fill="#000000" fill-rule="nonzero" fill-opacity="1" /><path clip-path="url(#clip600)" d="M2306.47 1517.37 Q2302.86 1517.37 2301.03 1520.93 Q2299.23 1524.47 2299.23 1531.6 Q2299.23 1538.71 2301.03 1542.27 Q2302.86 1545.82 2306.47 1545.82 Q2310.11 1545.82 2311.91 1542.27 Q2313.74 1538.71 2313.74 1531.6 Q2313.74 1524.47 2311.91 1520.93 Q2310.11 1517.37 2306.47 1517.37 M2306.47 1513.66 Q2312.28 1513.66 2315.34 1518.27 Q2318.42 1522.85 2318.42 1531.6 Q2318.42 1540.33 2315.34 1544.94 Q2312.28 1549.52 2306.47 1549.52 Q2300.66 1549.52 2297.58 1544.94 Q2294.53 1540.33 2294.53 1531.6 Q2294.53 1522.85 2297.58 1518.27 Q2300.66 1513.66 2306.47 1513.66 Z" fill="#000000" fill-rule="nonzero" fill-opacity="1" /><polyline clip-path="url(#clip600)" style="stroke:#000000; stroke-linecap:round; stroke-linejoin:round; stroke-width:4; stroke-opacity:1; fill:none" points="193.936,1486.45 193.936,47.2441 "/>
<polyline clip-path="url(#clip600)" style="stroke:#000000; stroke-linecap:round; stroke-linejoin:round; stroke-width:4; stroke-opacity:1; fill:none" points="193.936,1486.45 212.834,1486.45 "/>
<polyline clip-path="url(#clip600)" style="stroke:#000000; stroke-linecap:round; stroke-linejoin:round; stroke-width:4; stroke-opacity:1; fill:none" points="193.936,1126.65 212.834,1126.65 "/>
<polyline clip-path="url(#clip600)" style="stroke:#000000; stroke-linecap:round; stroke-linejoin:round; stroke-width:4; stroke-opacity:1; fill:none" points="193.936,766.846 212.834,766.846 "/>
<polyline clip-path="url(#clip600)" style="stroke:#000000; stroke-linecap:round; stroke-linejoin:round; stroke-width:4; stroke-opacity:1; fill:none" points="193.936,407.045 212.834,407.045 "/>
<polyline clip-path="url(#clip600)" style="stroke:#000000; stroke-linecap:round; stroke-linejoin:round; stroke-width:4; stroke-opacity:1; fill:none" points="193.936,47.2441 212.834,47.2441 "/>
<path clip-path="url(#clip600)" d="M50.9921 1486.9 L80.6679 1486.9 L80.6679 1490.83 L50.9921 1490.83 L50.9921 1486.9 Z" fill="#000000" fill-rule="nonzero" fill-opacity="1" /><path clip-path="url(#clip600)" d="M91.5706 1499.79 L99.2095 1499.79 L99.2095 1473.43 L90.8993 1475.09 L90.8993 1470.83 L99.1632 1469.17 L103.839 1469.17 L103.839 1499.79 L111.478 1499.79 L111.478 1503.73 L91.5706 1503.73 L91.5706 1499.79 Z" fill="#000000" fill-rule="nonzero" fill-opacity="1" /><path clip-path="url(#clip600)" d="M120.922 1497.85 L125.807 1497.85 L125.807 1503.73 L120.922 1503.73 L120.922 1497.85 Z" fill="#000000" fill-rule="nonzero" fill-opacity="1" /><path clip-path="url(#clip600)" d="M145.992 1472.25 Q142.381 1472.25 140.552 1475.81 Q138.746 1479.35 138.746 1486.48 Q138.746 1493.59 140.552 1497.15 Q142.381 1500.7 145.992 1500.7 Q149.626 1500.7 151.431 1497.15 Q153.26 1493.59 153.26 1486.48 Q153.26 1479.35 151.431 1475.81 Q149.626 1472.25 145.992 1472.25 M145.992 1468.54 Q151.802 1468.54 154.857 1473.15 Q157.936 1477.73 157.936 1486.48 Q157.936 1495.21 154.857 1499.82 Q151.802 1504.4 145.992 1504.4 Q140.181 1504.4 137.103 1499.82 Q134.047 1495.21 134.047 1486.48 Q134.047 1477.73 137.103 1473.15 Q140.181 1468.54 145.992 1468.54 Z" fill="#000000" fill-rule="nonzero" fill-opacity="1" /><path clip-path="url(#clip600)" d="M51.9875 1127.1 L81.6633 1127.1 L81.6633 1131.03 L51.9875 1131.03 L51.9875 1127.1 Z" fill="#000000" fill-rule="nonzero" fill-opacity="1" /><path clip-path="url(#clip600)" d="M101.756 1112.45 Q98.1447 1112.45 96.316 1116.01 Q94.5104 1119.55 94.5104 1126.68 Q94.5104 1133.79 96.316 1137.35 Q98.1447 1140.89 101.756 1140.89 Q105.39 1140.89 107.196 1137.35 Q109.024 1133.79 109.024 1126.68 Q109.024 1119.55 107.196 1116.01 Q105.39 1112.45 101.756 1112.45 M101.756 1108.74 Q107.566 1108.74 110.621 1113.35 Q113.7 1117.93 113.7 1126.68 Q113.7 1135.41 110.621 1140.01 Q107.566 1144.6 101.756 1144.6 Q95.9456 1144.6 92.8669 1140.01 Q89.8114 1135.41 89.8114 1126.68 Q89.8114 1117.93 92.8669 1113.35 Q95.9456 1108.74 101.756 1108.74 Z" fill="#000000" fill-rule="nonzero" fill-opacity="1" /><path clip-path="url(#clip600)" d="M121.918 1138.05 L126.802 1138.05 L126.802 1143.93 L121.918 1143.93 L121.918 1138.05 Z" fill="#000000" fill-rule="nonzero" fill-opacity="1" /><path clip-path="url(#clip600)" d="M137.033 1109.37 L155.39 1109.37 L155.39 1113.3 L141.316 1113.3 L141.316 1121.77 Q142.334 1121.43 143.353 1121.27 Q144.371 1121.08 145.39 1121.08 Q151.177 1121.08 154.556 1124.25 Q157.936 1127.42 157.936 1132.84 Q157.936 1138.42 154.464 1141.52 Q150.992 1144.6 144.672 1144.6 Q142.496 1144.6 140.228 1144.23 Q137.982 1143.86 135.575 1143.12 L135.575 1138.42 Q137.658 1139.55 139.881 1140.11 Q142.103 1140.66 144.58 1140.66 Q148.584 1140.66 150.922 1138.56 Q153.26 1136.45 153.26 1132.84 Q153.26 1129.23 150.922 1127.12 Q148.584 1125.01 144.58 1125.01 Q142.705 1125.01 140.83 1125.43 Q138.978 1125.85 137.033 1126.73 L137.033 1109.37 Z" fill="#000000" fill-rule="nonzero" fill-opacity="1" /><path clip-path="url(#clip600)" d="M100.76 752.645 Q97.1493 752.645 95.3206 756.209 Q93.515 759.751 93.515 766.881 Q93.515 773.987 95.3206 777.552 Q97.1493 781.094 100.76 781.094 Q104.395 781.094 106.2 777.552 Q108.029 773.987 108.029 766.881 Q108.029 759.751 106.2 756.209 Q104.395 752.645 100.76 752.645 M100.76 748.941 Q106.571 748.941 109.626 753.547 Q112.705 758.131 112.705 766.881 Q112.705 775.608 109.626 780.214 Q106.571 784.797 100.76 784.797 Q94.9502 784.797 91.8715 780.214 Q88.816 775.608 88.816 766.881 Q88.816 758.131 91.8715 753.547 Q94.9502 748.941 100.76 748.941 Z" fill="#000000" fill-rule="nonzero" fill-opacity="1" /><path clip-path="url(#clip600)" d="M120.922 778.246 L125.807 778.246 L125.807 784.126 L120.922 784.126 L120.922 778.246 Z" fill="#000000" fill-rule="nonzero" fill-opacity="1" /><path clip-path="url(#clip600)" d="M145.992 752.645 Q142.381 752.645 140.552 756.209 Q138.746 759.751 138.746 766.881 Q138.746 773.987 140.552 777.552 Q142.381 781.094 145.992 781.094 Q149.626 781.094 151.431 777.552 Q153.26 773.987 153.26 766.881 Q153.26 759.751 151.431 756.209 Q149.626 752.645 145.992 752.645 M145.992 748.941 Q151.802 748.941 154.857 753.547 Q157.936 758.131 157.936 766.881 Q157.936 775.608 154.857 780.214 Q151.802 784.797 145.992 784.797 Q140.181 784.797 137.103 780.214 Q134.047 775.608 134.047 766.881 Q134.047 758.131 137.103 753.547 Q140.181 748.941 145.992 748.941 Z" fill="#000000" fill-rule="nonzero" fill-opacity="1" /><path clip-path="url(#clip600)" d="M101.756 392.844 Q98.1447 392.844 96.316 396.409 Q94.5104 399.95 94.5104 407.08 Q94.5104 414.186 96.316 417.751 Q98.1447 421.293 101.756 421.293 Q105.39 421.293 107.196 417.751 Q109.024 414.186 109.024 407.08 Q109.024 399.95 107.196 396.409 Q105.39 392.844 101.756 392.844 M101.756 389.14 Q107.566 389.14 110.621 393.746 Q113.7 398.33 113.7 407.08 Q113.7 415.807 110.621 420.413 Q107.566 424.996 101.756 424.996 Q95.9456 424.996 92.8669 420.413 Q89.8114 415.807 89.8114 407.08 Q89.8114 398.33 92.8669 393.746 Q95.9456 389.14 101.756 389.14 Z" fill="#000000" fill-rule="nonzero" fill-opacity="1" /><path clip-path="url(#clip600)" d="M121.918 418.445 L126.802 418.445 L126.802 424.325 L121.918 424.325 L121.918 418.445 Z" fill="#000000" fill-rule="nonzero" fill-opacity="1" /><path clip-path="url(#clip600)" d="M137.033 389.765 L155.39 389.765 L155.39 393.7 L141.316 393.7 L141.316 402.172 Q142.334 401.825 143.353 401.663 Q144.371 401.478 145.39 401.478 Q151.177 401.478 154.556 404.649 Q157.936 407.82 157.936 413.237 Q157.936 418.816 154.464 421.918 Q150.992 424.996 144.672 424.996 Q142.496 424.996 140.228 424.626 Q137.982 424.256 135.575 423.515 L135.575 418.816 Q137.658 419.95 139.881 420.506 Q142.103 421.061 144.58 421.061 Q148.584 421.061 150.922 418.955 Q153.26 416.848 153.26 413.237 Q153.26 409.626 150.922 407.52 Q148.584 405.413 144.58 405.413 Q142.705 405.413 140.83 405.83 Q138.978 406.246 137.033 407.126 L137.033 389.765 Z" fill="#000000" fill-rule="nonzero" fill-opacity="1" /><path clip-path="url(#clip600)" d="M91.5706 60.5889 L99.2095 60.5889 L99.2095 34.2233 L90.8993 35.89 L90.8993 31.6308 L99.1632 29.9641 L103.839 29.9641 L103.839 60.5889 L111.478 60.5889 L111.478 64.5241 L91.5706 64.5241 L91.5706 60.5889 Z" fill="#000000" fill-rule="nonzero" fill-opacity="1" /><path clip-path="url(#clip600)" d="M120.922 58.6445 L125.807 58.6445 L125.807 64.5241 L120.922 64.5241 L120.922 58.6445 Z" fill="#000000" fill-rule="nonzero" fill-opacity="1" /><path clip-path="url(#clip600)" d="M145.992 33.0428 Q142.381 33.0428 140.552 36.6076 Q138.746 40.1492 138.746 47.2788 Q138.746 54.3853 140.552 57.9501 Q142.381 61.4917 145.992 61.4917 Q149.626 61.4917 151.431 57.9501 Q153.26 54.3853 153.26 47.2788 Q153.26 40.1492 151.431 36.6076 Q149.626 33.0428 145.992 33.0428 M145.992 29.3391 Q151.802 29.3391 154.857 33.9456 Q157.936 38.5289 157.936 47.2788 Q157.936 56.0056 154.857 60.6121 Q151.802 65.1954 145.992 65.1954 Q140.181 65.1954 137.103 60.6121 Q134.047 56.0056 134.047 47.2788 Q134.047 38.5289 137.103 33.9456 Q140.181 29.3391 145.992 29.3391 Z" fill="#000000" fill-rule="nonzero" fill-opacity="1" /><polyline clip-path="url(#clip602)" style="stroke:#009af9; stroke-linecap:round; stroke-linejoin:round; stroke-width:4; stroke-opacity:1; fill:none" points="255.035,766.846 255.199,766.846 255.363,766.846 255.527,766.846 255.692,766.846 255.856,766.846 256.02,766.846 256.185,766.846 256.349,766.846 256.513,766.846 256.677,766.846 256.842,766.846 257.006,766.846 257.17,766.846 257.334,766.846 257.499,766.846 257.663,766.846 257.827,766.846 257.991,766.846 258.156,766.846 258.32,766.846 258.484,766.846 258.648,766.846 258.813,766.846 258.977,766.846 259.141,766.846 259.305,766.846 259.47,766.846 259.634,766.846 259.798,766.846 259.963,766.846 260.127,766.846 260.291,766.846 260.455,766.846 260.62,766.846 260.784,766.846 260.948,766.846 261.112,766.846 261.277,766.846 261.441,766.846 261.605,766.846 261.769,766.846 261.934,766.846 262.098,766.846 262.262,766.846 262.426,766.846 262.591,766.846 262.755,766.846 262.919,766.846 263.083,766.846 263.248,766.846 263.412,766.846 263.576,766.846 263.741,766.846 263.905,766.846 264.069,766.846 264.233,766.846 264.398,766.846 264.562,766.846 264.726,766.846 264.89,766.846 265.055,766.846 265.219,766.846 265.383,766.846 265.547,766.846 265.712,766.846 265.876,766.846 266.04,766.846 266.204,766.846 266.369,766.846 266.533,766.846 266.697,766.846 266.862,766.846 267.026,766.846 267.19,766.846 267.354,766.846 267.519,766.846 267.683,766.846 267.847,766.846 268.011,766.846 268.176,766.846 268.34,766.846 268.504,766.846 268.668,766.846 268.833,766.846 268.997,766.846 269.161,766.846 269.325,766.846 269.49,766.846 269.654,766.846 269.818,766.846 269.982,766.846 270.147,766.846 270.311,766.846 270.475,766.846 270.64,766.846 270.804,766.846 270.968,766.846 271.132,766.846 271.297,766.846 271.461,766.846 271.625,766.846 271.789,766.846 271.954,766.846 272.118,766.846 272.282,766.846 272.446,766.846 272.611,766.846 272.775,766.846 272.939,766.846 273.103,766.846 273.268,766.846 273.432,766.846 273.596,766.846 273.761,766.846 273.925,766.846 274.089,766.846 274.253,766.846 274.418,766.846 274.582,766.846 274.746,766.846 274.91,766.846 275.075,766.846 275.239,766.846 275.403,766.846 275.567,766.846 275.732,766.846 275.896,766.846 276.06,766.846 277.022,766.846 277.984,766.846 278.946,766.846 279.908,766.846 280.87,766.846 281.833,766.846 282.795,766.846 283.757,766.846 284.719,766.846 285.681,766.846 286.643,766.846 287.605,766.846 288.567,766.846 289.529,766.846 290.491,766.846 291.453,766.846 292.415,766.846 293.377,766.846 294.339,766.846 295.301,766.846 296.264,766.846 297.226,766.846 298.188,766.846 299.15,766.846 300.112,766.846 301.074,766.846 302.036,766.846 302.998,766.846 303.96,766.846 304.922,766.846 305.884,766.846 306.846,766.846 310.695,766.846 314.543,766.846 316.467,766.846 318.391,766.846 319.353,766.846 320.315,766.846 321.277,766.846 322.239,766.846 323.201,766.846 324.163,766.846 325.126,766.846 326.088,766.846 327.05,766.846 328.012,766.846 328.974,766.846 329.936,766.846 330.898,766.846 331.86,766.846 332.822,766.846 333.784,766.846 334.746,766.846 335.708,766.846 336.67,766.846 337.632,766.846 338.594,766.846 339.556,766.846 340.519,766.846 341.481,766.846 342.443,766.846 343.405,766.846 344.367,766.846 345.329,766.846 346.291,766.846 347.253,766.846 348.215,766.846 349.177,766.846 350.139,766.846 351.101,766.846 352.063,766.846 353.025,766.846 353.987,766.846 354.95,766.846 355.912,766.846 356.874,766.846 357.836,766.846 358.798,766.846 359.76,766.846 360.722,766.846 361.684,766.846 362.646,766.846 363.608,766.846 364.57,766.846 365.532,766.846 366.494,766.846 367.456,766.846 368.418,766.846 369.381,766.846 370.343,766.846 371.305,766.846 372.267,766.846 373.229,766.846 374.191,766.846 375.153,766.846 376.115,766.846 377.077,766.846 378.039,766.846 379.001,766.846 379.963,766.846 380.925,766.846 381.887,766.846 382.849,766.846 383.812,766.846 384.774,766.846 385.736,766.846 386.698,766.846 387.66,766.846 388.622,766.846 389.584,766.846 390.546,766.846 391.508,766.846 392.47,766.846 393.432,766.846 394.394,766.846 395.356,766.846 396.318,766.846 397.28,766.846 398.242,766.846 399.205,766.846 399.652,766.846 400.1,766.846 400.547,766.846 400.995,766.846 401.442,766.846 401.89,766.846 402.337,766.846 402.785,766.846 403.233,766.846 403.68,766.846 404.128,766.846 404.575,766.846 405.023,766.846 405.47,766.846 405.918,766.846 406.365,766.846 406.813,766.846 407.261,766.846 407.708,766.846 408.156,766.846 408.603,766.846 409.051,766.846 409.498,766.846 409.946,766.846 410.393,766.846 410.841,766.846 411.288,766.846 411.736,766.846 412.184,766.846 412.631,766.846 413.079,766.846 413.526,766.846 413.974,766.846 414.421,766.846 414.869,766.846 415.316,766.846 415.764,766.846 416.212,766.846 416.659,766.846 417.107,766.846 417.554,766.846 418.002,766.846 418.449,766.846 418.897,766.846 419.344,766.846 419.792,766.846 420.24,766.846 420.687,766.846 421.135,766.846 421.582,766.846 422.03,766.846 422.477,766.846 422.925,766.846 423.372,766.846 423.82,766.846 424.268,766.846 424.715,766.846 425.163,766.846 425.61,766.846 426.058,766.846 426.505,766.846 426.953,766.846 427.4,766.846 427.848,766.846 428.295,766.846 428.743,766.846 429.191,766.846 429.638,766.846 430.086,766.846 430.533,766.846 430.981,766.846 431.428,766.846 431.876,766.846 432.323,766.846 432.771,766.846 433.219,766.846 433.666,766.846 434.114,766.846 434.561,766.846 435.009,766.846 435.456,766.846 435.904,766.846 436.351,766.846 436.799,766.846 437.247,766.846 437.694,766.846 438.142,766.846 438.589,766.846 439.037,766.846 439.484,766.846 439.932,766.846 440.379,766.846 440.827,766.846 441.275,766.846 441.722,766.846 442.17,766.846 442.617,766.846 443.065,766.846 443.512,766.846 443.96,766.846 444.407,766.846 444.855,766.846 445.302,766.846 445.75,766.846 446.198,766.846 446.645,766.846 447.093,766.846 447.54,766.846 447.988,766.846 448.435,766.846 448.883,766.846 449.33,766.846 449.778,766.846 450.226,766.846 450.673,766.846 451.121,766.846 451.568,766.846 452.016,766.846 452.463,766.846 452.911,766.846 453.358,766.846 453.806,766.846 454.254,766.846 454.701,766.846 455.149,766.846 455.596,766.846 456.044,766.846 456.491,766.846 457.091,766.846 457.691,766.846 458.291,766.846 458.891,766.846 459.491,766.846 460.091,766.846 460.691,766.846 461.29,766.846 461.89,766.846 462.49,766.846 463.09,766.846 463.69,766.846 464.29,766.846 464.89,766.846 465.49,766.846 466.09,766.846 466.689,766.846 467.289,766.846 467.889,766.846 468.489,766.846 469.089,766.846 469.689,766.846 470.289,766.846 470.889,766.846 471.489,766.846 472.088,766.846 472.688,766.846 473.288,766.846 473.888,766.846 474.488,766.846 475.088,766.846 475.688,766.846 476.288,766.846 476.887,766.846 477.487,766.846 478.087,766.846 478.687,766.846 479.287,766.846 479.887,766.846 480.487,766.846 481.087,766.846 481.687,766.846 482.286,766.846 482.886,766.846 484.086,766.846 485.286,766.846 490.085,766.846 494.884,766.846 514.081,766.846 533.277,766.846 596.726,766.846 655.726,766.846 729.793,766.846 796.231,766.846 872.278,766.846 929.123,766.846 1001.83,766.846 1068.19,766.846 1143.71,766.846 1203.58,766.846 1240.77,766.846 1277.97,766.846 1306.45,766.846 1334.93,766.846 1344.97,766.846 1355.01,766.846 1357.52,766.846 1360.03,766.846 1361.28,766.846 1362.54,766.846 1363.79,766.846 1365.05,766.846 1365.67,766.846 1366.3,766.846 1366.93,766.846 1367.56,766.846 1368.18,766.846 1368.81,766.846 1369.44,766.846 1370.07,766.846 1370.69,766.846 1371.32,766.846 1371.95,766.846 1372.58,766.846 1373.2,766.846 1373.83,766.846 1374.46,766.846 1375.09,766.846 1375.71,766.846 1376.34,766.846 1376.97,766.846 1377.59,766.846 1378.22,766.846 1378.85,766.846 1379.48,766.846 1380.1,766.846 1380.73,766.846 1381.36,766.846 1381.99,766.846 1382.61,766.846 1383.24,766.846 1383.87,766.846 1384.5,766.846 1385.12,766.846 1385.75,766.846 1386.38,766.846 1387.01,766.846 1387.63,766.846 1388.26,766.846 1388.89,766.846 1389.52,766.846 1390.14,766.846 1390.77,766.846 1391.4,766.846 1392.03,766.846 1392.65,766.846 1393.28,766.846 1393.91,766.846 1394.54,766.846 1395.16,766.846 1395.79,766.846 1396.42,766.846 1397.05,766.846 1397.67,766.846 1398.3,766.846 1398.93,766.846 1399.55,766.846 1400.18,766.846 1400.81,766.846 1401.44,766.846 1402.06,766.846 1402.69,766.846 1403.32,766.846 1403.95,766.846 1404.57,766.846 1405.2,766.846 1405.83,766.846 1406.46,766.846 1407.08,766.846 1407.71,766.846 1408.34,766.846 1408.97,766.846 1409.59,766.846 1410.22,766.846 1410.85,766.846 1411.48,766.846 1412.1,766.846 1412.73,766.846 1413.36,766.846 1413.99,766.846 1414.61,766.846 1415.24,766.846 1415.71,766.846 1416.18,766.846 1416.65,766.846 1417.12,766.846 1417.58,766.846 1418.05,766.846 1418.52,766.846 1418.99,766.846 1419.46,766.846 1419.93,766.846 1420.4,766.846 1420.87,766.846 1421.34,766.846 1421.8,766.846 1422.27,766.846 1422.74,766.846 1423.21,766.846 1423.68,766.846 1424.15,766.846 1424.62,766.846 1425.09,766.846 1425.56,766.846 1426.02,766.846 1426.49,766.846 1426.96,766.846 1427.43,766.846 1427.9,766.846 1428.37,766.846 1428.84,766.846 1429.31,766.846 1429.78,766.846 1430.24,766.846 1430.71,766.846 1431.18,766.846 1431.65,766.846 1432.12,766.846 1432.59,766.846 1433.06,766.846 1433.53,766.846 1434,766.846 1434.46,766.846 1434.93,766.846 1435.4,766.846 1435.87,766.846 1436.34,766.846 1436.81,766.846 1437.28,766.846 1437.75,766.846 1438.22,766.846 1438.68,766.846 1439.15,766.846 1439.62,766.846 1440.09,766.846 1440.56,766.846 1441.03,766.846 1441.5,766.846 1441.97,766.846 1442.43,766.846 1442.9,766.846 1443.37,766.846 1443.84,766.846 1444.31,766.846 1444.78,766.846 1445.25,766.846 1445.72,766.846 1446.19,766.846 1446.65,766.846 1447.12,766.846 1447.59,766.846 1448.06,766.846 1448.53,766.846 1449,766.846 1449.47,766.846 1449.94,766.846 1450.41,766.846 1450.87,766.846 1451.34,766.846 1451.81,766.846 1452.28,766.846 1452.75,766.846 1453.22,766.846 1453.69,766.846 1454.16,766.846 1454.63,766.846 1455.09,766.846 1455.56,766.846 1456.03,766.846 1456.5,766.846 1456.97,766.846 1457.44,766.846 1457.91,766.846 1458.38,766.846 1458.85,766.846 1459.31,766.846 1459.78,766.846 1460.25,766.846 1460.72,766.846 1461.19,766.846 1461.66,766.846 1462.13,766.846 1462.6,766.846 1463.07,766.846 1463.53,766.846 1464,766.846 1464.47,766.846 1464.94,766.846 1465.41,766.846 1465.88,766.846 1466.35,766.846 1466.82,766.846 1467.28,766.846 1467.75,766.846 1468.22,766.846 1468.69,766.846 1469.16,766.846 1469.63,766.846 1470.1,766.846 1470.57,766.846 1471.04,766.846 1471.5,766.846 1471.97,766.846 1472.44,766.846 1472.91,766.846 1473.38,766.846 1473.85,766.846 1474.32,766.846 1474.79,766.846 1475.26,766.846 1475.79,766.846 1476.32,766.846 1476.86,766.846 1477.39,766.846 1477.92,766.846 1478.45,766.846 1478.99,766.846 1479.52,766.846 1480.05,766.846 1480.59,766.846 1481.12,766.846 1481.65,766.846 1482.19,766.846 1482.72,766.846 1483.25,766.846 1483.79,766.846 1484.32,766.846 1484.85,766.846 1485.39,766.846 1485.92,766.846 1486.45,766.846 1486.99,766.846 1487.52,766.846 1488.05,766.846 1488.59,766.846 1489.12,766.846 1489.65,766.846 1490.19,766.846 1490.72,766.846 1491.25,766.846 1491.79,766.846 1492.32,766.846 1492.85,766.846 1493.38,766.846 1493.92,766.846 1494.45,766.846 1494.98,766.846 1495.52,766.846 1496.05,766.846 1496.58,766.846 1497.12,766.846 1497.65,766.846 1498.18,766.846 1498.72,766.846 1499.25,766.846 1499.78,766.846 1500.32,766.846 1500.85,766.846 1501.38,766.846 1501.92,766.846 1502.45,766.846 1502.98,766.846 1503.52,766.846 1504.05,766.846 1504.58,766.846 1505.12,766.846 1505.65,766.846 1506.18,766.846 1506.71,766.846 1507.25,766.846 1507.78,766.846 1508.31,766.846 1508.85,766.846 1509.38,766.846 1509.91,766.846 1510.45,766.846 1510.98,766.846 1511.51,766.846 1512.05,766.846 1512.58,766.846 1513.11,766.846 1513.65,766.846 1514.18,766.846 1514.71,766.846 1515.25,766.846 1515.78,766.846 1516.31,766.846 1516.85,766.846 1517.38,766.846 1517.91,766.846 1518.45,766.846 1518.98,766.846 1519.51,766.846 1520.05,766.846 1520.58,766.846 1521.11,766.846 1521.64,766.846 1522.18,766.846 1522.71,766.846 1523.24,766.846 1523.78,766.846 1524.31,766.846 1524.84,766.846 1525.38,766.846 1525.91,766.846 1526.44,766.846 1526.98,766.846 1527.51,766.846 1528.04,766.846 1528.58,766.846 1529.11,766.846 1529.64,766.846 1530.18,766.846 1530.71,766.846 1531.24,766.846 1531.78,766.846 1532.31,766.846 1532.84,766.846 1533.38,766.846 1533.91,766.846 1534.44,766.846 1534.97,766.846 1535.51,766.846 1536.04,766.846 1536.57,766.846 1537.11,766.846 1537.64,766.846 1538.17,766.846 1538.71,766.846 1539.24,766.846 1539.77,766.846 1540.31,766.846 1540.84,766.846 1541.37,766.846 1541.91,766.846 1542.44,766.846 1542.97,766.846 1543.51,766.846 1544.03,766.846 1544.56,766.846 1545.09,766.846 1545.62,766.846 1546.15,766.846 1546.67,766.846 1547.2,766.846 1547.73,766.846 1548.26,766.846 1548.79,766.846 1549.31,766.846 1549.84,766.846 1550.37,766.846 1550.9,766.846 1551.43,766.846 1551.96,766.846 1552.48,766.846 1553.01,766.846 1553.54,766.846 1554.07,766.846 1554.6,766.846 1555.12,766.846 1555.65,766.846 1556.18,766.846 1556.71,766.846 1557.24,766.846 1557.76,766.846 1558.29,766.846 1558.82,766.846 1559.35,766.846 1559.88,766.846 1560.4,766.846 1560.93,766.846 1561.46,766.846 1561.99,766.846 1562.52,766.846 1563.04,766.846 1563.57,766.846 1564.1,766.846 1564.63,766.846 1565.16,766.846 1565.68,766.846 1566.21,766.846 1566.74,766.846 1567.27,766.846 1567.8,766.846 1568.33,766.846 1568.85,766.846 1569.38,766.846 1569.91,766.846 1570.44,766.846 1570.97,766.846 1571.49,766.846 1572.02,766.846 1572.55,766.846 1573.08,766.846 1573.61,766.846 1574.13,766.846 1574.66,766.846 1575.19,766.846 1575.72,766.846 1576.25,766.846 1576.77,766.846 1577.3,766.846 1577.83,766.846 1578.36,766.846 1578.89,766.846 1579.41,766.846 1579.94,766.846 1580.47,766.846 1581,766.846 1581.53,766.846 1582.05,766.846 1582.58,766.846 1583.11,766.846 1583.64,766.846 1584.17,766.846 1584.69,766.846 1585.22,766.846 1585.75,766.846 1586.28,766.846 1586.81,766.846 1587.34,766.846 1587.86,766.846 1588.39,766.846 1588.92,766.846 1589.45,766.846 1589.98,766.846 1590.5,766.846 1591.03,766.846 1591.56,766.846 1592.09,766.846 1592.62,766.846 1593.14,766.846 1593.67,766.846 1594.2,766.846 1594.73,766.846 1595.26,766.846 1595.78,766.846 1596.31,766.846 1596.84,766.846 1597.37,766.846 1597.9,766.846 1598.42,766.846 1598.95,766.846 1599.48,766.846 1600.01,766.846 1600.54,766.846 1601.06,766.846 1601.59,766.846 1602.12,766.846 1602.65,766.846 1603.18,766.846 1603.7,766.846 1604.23,766.846 1604.76,766.846 1605.29,766.846 1605.82,766.846 1606.35,766.846 1606.87,766.846 1607.4,766.846 1607.93,766.846 1608.46,766.846 1608.99,766.846 1609.51,766.846 1610.04,766.846 1610.57,766.846 1611.1,766.846 1611.68,766.846 1612.26,766.846 1612.84,766.846 1613.42,766.846 1614,766.846 1614.58,766.846 1615.16,766.846 1615.75,766.846 1616.33,766.846 1616.91,766.846 1617.49,766.846 1618.07,766.846 1618.65,766.846 1619.23,766.846 1619.81,766.846 1620.39,766.846 1620.97,766.846 1621.56,766.846 1622.14,766.846 1622.72,766.846 1623.3,766.846 1623.88,766.846 1624.46,766.846 1625.04,766.846 1625.62,766.846 1626.2,766.846 1626.78,766.846 1627.36,766.846 1627.95,766.846 1628.53,766.846 1629.11,766.846 1629.69,766.846 1630.27,766.846 1630.85,766.846 1631.43,766.846 1632.01,766.846 1632.59,766.846 1633.17,766.846 1633.76,766.846 1634.34,766.846 1634.92,766.846 1635.5,766.846 1636.08,766.846 1636.66,766.846 1637.24,766.846 1637.82,766.846 1638.4,766.846 1638.98,766.846 1639.56,766.846 1640.15,766.846 1640.73,766.846 1641.31,766.846 1641.89,766.846 1642.47,766.846 1643.05,766.846 1643.63,766.846 1644.21,766.846 1644.79,766.846 1645.37,766.846 1645.96,766.846 1646.54,766.846 1647.12,766.846 1647.7,766.846 1648.28,766.846 1648.86,766.846 1649.44,766.846 1650.02,766.846 1650.6,766.846 1651.18,766.846 1651.77,766.846 1652.35,766.846 1652.93,766.846 1653.51,766.846 1654.09,766.846 1654.67,766.846 1655.25,766.846 1655.83,766.846 1656.41,766.846 1656.99,766.846 1657.57,766.846 1658.16,766.846 1658.74,766.846 1659.32,766.846 1659.9,766.846 1660.48,766.846 1661.06,766.846 1661.64,766.846 1662.22,766.846 1662.8,766.846 1663.38,766.846 1663.97,766.846 1664.55,766.846 1665.13,766.846 1665.71,766.846 1666.29,766.846 1666.87,766.846 1667.45,766.846 1668.03,766.846 1668.61,766.846 1669.19,766.846 1669.77,766.846 1670.36,766.846 1670.94,766.846 1671.52,766.846 1672.1,766.846 1672.68,766.846 1673.26,766.846 1673.84,766.846 1674.42,766.846 1675,766.846 1675.58,766.846 1676.17,766.846 1676.75,766.846 1677.33,766.846 1677.91,766.846 1678.49,766.846 1679.07,766.846 1679.65,766.846 1680.23,766.846 1680.81,766.846 1681.39,766.846 1681.98,766.846 1682.56,766.846 1683.14,766.846 1683.72,766.846 1684.3,766.846 1684.88,766.846 1685.46,766.846 1685.9,766.846 1686.35,766.846 1686.79,766.846 1687.24,766.846 1687.68,766.846 1688.12,766.846 1688.57,766.846 1689.01,766.846 1689.45,766.846 1689.9,766.846 1690.34,766.846 1690.79,766.846 1691.23,766.846 1691.67,766.846 1692.12,766.846 1692.56,766.846 1693,766.846 1693.45,766.846 1693.89,766.846 1694.34,766.846 1694.78,766.846 1695.22,766.846 1695.67,766.846 1696.11,766.846 1696.55,766.846 1697,766.846 1697.44,766.846 1697.89,766.846 1698.33,766.846 1698.77,766.846 1699.22,766.846 1699.66,766.846 1700.1,766.846 1700.55,766.846 1700.99,766.846 1701.44,766.846 1701.88,766.846 1702.32,766.846 1702.77,766.846 1703.21,766.846 1703.65,766.846 1704.1,766.846 1704.54,766.846 1704.99,766.846 1705.43,766.846 1705.87,766.846 1706.32,766.846 1706.76,766.846 1707.2,766.846 1707.65,766.846 1708.09,766.846 1708.54,766.846 1708.98,766.846 1709.42,766.846 1709.87,766.846 1710.31,766.846 1710.75,766.846 1711.2,766.846 1711.64,766.846 1712.09,766.846 1712.53,766.846 1712.97,766.846 1713.42,766.846 1713.86,766.846 1714.3,766.846 1714.75,766.846 1715.19,766.846 1715.64,766.846 1716.08,766.846 1716.52,766.846 1716.97,766.846 1717.41,766.846 1717.85,766.846 1718.3,766.846 1718.74,766.846 1719.19,766.846 1719.63,766.846 1720.07,766.846 1720.52,766.846 1720.96,766.846 1721.4,766.846 1721.85,766.846 1722.29,766.846 1722.74,766.846 1723.18,766.846 1723.62,766.846 1724.07,766.846 1724.51,766.846 1724.95,766.846 1725.4,766.846 1725.84,766.846 1726.29,766.846 1726.73,766.846 1727.17,766.846 1727.62,766.846 1728.06,766.846 1728.51,766.846 1728.95,766.846 1729.39,766.846 1729.84,766.846 1730.28,766.846 1730.72,766.846 1731.17,766.846 1731.61,766.846 1732.06,766.846 1732.5,766.846 1732.94,766.846 1733.39,766.846 1733.83,766.846 1734.27,766.846 1734.72,766.846 1735.16,766.846 1735.61,766.846 1736.05,766.846 1736.49,766.846 1736.94,766.846 1737.38,766.846 1737.82,766.846 1738.27,766.846 1738.71,766.846 1739.16,766.846 1739.6,766.846 1740.04,766.846 1740.49,766.846 1740.93,766.846 1741.37,766.846 1741.82,766.846 1742.26,766.846 1742.82,766.846 1743.38,766.846 1743.94,766.846 1744.5,766.846 1745.06,766.846 1745.62,766.846 1746.18,766.846 1746.74,766.846 1747.3,766.846 1747.86,766.846 1748.42,766.846 1748.98,766.846 1749.54,766.846 1750.1,766.846 1750.66,766.846 1751.22,766.846 1751.78,766.846 1752.34,766.846 1752.9,766.846 1753.46,766.846 1754.02,766.846 1754.58,766.846 1755.14,766.846 1755.7,766.846 1756.26,766.846 1756.82,766.846 1757.38,766.846 1757.94,766.846 1758.5,766.846 1759.06,766.846 1759.62,766.846 1760.18,766.846 1760.74,766.846 1761.3,766.846 1761.86,766.846 1762.42,766.846 1762.98,766.846 1763.54,766.846 1764.1,766.846 1764.66,766.846 1765.22,766.846 1765.78,766.846 1766.34,766.846 1766.9,766.846 1767.46,766.846 1768.02,766.846 1768.58,766.846 1769.14,766.846 1769.7,766.846 1770.26,766.846 1770.82,766.846 1771.38,766.846 1771.94,766.846 1772.5,766.846 1773.06,766.846 1773.62,766.846 1774.18,766.846 1774.74,766.846 1775.3,766.846 1775.86,766.846 1776.42,766.846 1776.98,766.846 1777.54,766.846 1778.1,766.846 1778.66,766.846 1779.22,766.846 1779.78,766.846 1780.34,766.846 1780.9,766.846 1781.46,766.846 1782.02,766.846 1782.58,766.846 1783.14,766.846 1783.7,766.846 1784.26,766.846 1784.82,766.846 1785.38,766.846 1785.94,766.846 1786.5,766.846 1787.06,766.846 1787.62,766.846 1788.18,766.846 1788.74,766.846 1789.3,766.846 1789.86,766.846 1790.42,766.846 1790.98,766.846 1791.54,766.846 1792.1,766.846 1792.66,766.846 1793.22,766.846 1793.78,766.846 1794.34,766.846 1794.9,766.846 1795.46,766.846 1796.02,766.846 1796.58,766.846 1797.14,766.846 1797.7,766.846 1798.26,766.846 1798.82,766.846 1799.38,766.846 1799.94,766.846 1800.5,766.846 1801.06,766.846 1801.62,766.846 1802.18,766.846 1802.74,766.846 1803.3,766.846 1803.86,766.846 1804.42,766.846 1804.98,766.846 1805.54,766.846 1806.1,766.846 1806.66,766.846 1807.22,766.846 1807.78,766.846 1808.34,766.846 1808.9,766.846 1809.46,766.846 1810.02,766.846 1810.58,766.846 1811.14,766.846 1811.7,766.846 1812.26,766.846 1812.82,766.846 1813.38,766.846 1813.94,766.846 1814.46,766.846 1814.97,766.846 1815.49,766.846 1816.01,766.846 1816.53,766.846 1817.05,766.846 1817.56,766.846 1818.08,766.846 1818.6,766.846 1819.12,766.846 1819.64,766.846 1820.15,766.846 1820.67,766.846 1821.19,766.846 1821.71,766.846 1822.23,766.846 1822.74,766.846 1823.26,766.846 1823.78,766.846 1824.3,766.846 1824.82,766.846 1825.33,766.846 1825.85,766.846 1826.37,766.846 1826.89,766.846 1827.4,766.846 1827.92,766.846 1828.44,766.846 1828.96,766.846 1829.48,766.846 1829.99,766.846 1830.51,766.846 1831.03,766.846 1831.55,766.846 1832.07,766.846 1832.58,766.846 1833.1,766.846 1833.62,766.846 1834.14,766.846 1834.66,766.846 1835.17,766.846 1835.69,766.846 1836.21,766.846 1836.73,766.846 1837.25,766.846 1837.76,766.846 1838.28,766.846 1838.8,766.846 1839.32,766.846 1839.83,766.846 1840.35,766.846 1840.87,766.846 1841.39,766.846 1841.91,766.846 1842.42,766.846 1842.94,766.846 1843.46,766.846 1843.98,766.846 1844.5,766.846 1845.01,766.846 1845.53,766.846 1846.05,766.846 1846.57,766.846 1847.09,766.846 1847.6,766.846 1848.12,766.846 1848.64,766.846 1849.16,766.846 1849.68,766.846 1850.19,766.846 1850.71,766.846 1851.23,766.846 1851.75,766.846 1852.27,766.846 1852.78,766.846 1853.3,766.846 1853.82,766.846 1854.34,766.846 1854.85,766.846 1855.37,766.846 1855.89,766.846 1856.41,766.846 1856.93,766.846 1857.44,766.846 1857.96,766.846 1858.48,766.846 1859,766.846 1859.52,766.846 1860.03,766.846 1860.55,766.846 1861.07,766.846 1861.59,766.846 1862.11,766.846 1862.62,766.846 1863.14,766.846 1863.66,766.846 1864.18,766.846 1864.7,766.846 1865.21,766.846 1865.73,766.846 1866.25,766.846 1866.77,766.846 1867.28,766.846 1867.8,766.846 1868.32,766.846 1868.84,766.846 1869.36,766.846 1869.87,766.846 1870.39,766.846 1870.91,766.846 1871.43,766.846 1871.95,766.846 1872.46,766.846 1872.98,766.846 1873.5,766.846 1874.02,766.846 1874.54,766.846 1875.05,766.846 1875.57,766.846 1876.09,766.846 1876.61,766.846 1877.13,766.846 1877.64,766.846 1878.16,766.846 1878.68,766.846 1879.2,766.846 1879.71,766.846 1880.23,766.846 1880.77,766.846 1881.3,766.846 1881.84,766.846 1882.37,766.846 1882.9,766.846 1883.44,766.846 1883.97,766.846 1884.51,766.846 1885.04,766.846 1885.57,766.846 1886.11,766.846 1886.64,766.846 1887.18,766.846 1887.71,766.846 1888.25,766.846 1888.78,766.846 1889.31,766.846 1889.85,766.846 1890.38,766.846 1890.92,766.846 1891.45,766.846 1891.98,766.846 1892.52,766.846 1893.05,766.846 1893.59,766.846 1894.12,766.846 1894.65,766.846 1895.19,766.846 1895.72,766.846 1896.26,766.846 1896.79,766.846 1897.33,766.846 1897.86,766.846 1898.39,766.846 1898.93,766.846 1899.46,766.846 1900,766.846 1900.53,766.846 1901.06,766.846 1901.6,766.846 1902.13,766.846 1902.67,766.846 1903.2,766.846 1903.74,766.846 1904.27,766.846 1904.8,766.846 1905.34,766.846 1905.87,766.846 1906.41,766.846 1906.94,766.846 1907.47,766.846 1908.01,766.846 1908.54,766.846 1909.08,766.846 1909.61,766.846 1910.15,766.846 1910.68,766.846 1911.21,766.846 1911.75,766.846 1912.28,766.846 1912.82,766.846 1913.35,766.846 1913.88,766.846 1914.42,766.846 1914.95,766.846 1915.49,766.846 1916.02,766.846 1916.55,766.846 1917.09,766.846 1917.62,766.846 1918.16,766.846 1918.69,766.846 1919.23,766.846 1919.76,766.846 1920.29,766.846 1920.83,766.846 1921.36,766.846 1921.9,766.846 1922.43,766.846 1922.96,766.846 1923.5,766.846 1924.03,766.846 1924.57,766.846 1925.1,766.846 1925.64,766.846 1926.17,766.846 1926.7,766.846 1927.24,766.846 1927.77,766.846 1928.31,766.846 1928.84,766.846 1929.37,766.846 1929.91,766.846 1930.44,766.846 1930.98,766.846 1931.51,766.846 1932.05,766.846 1932.58,766.846 1933.11,766.846 1933.65,766.846 1934.18,766.846 1934.72,766.846 1935.25,766.846 1935.78,766.846 1936.32,766.846 1936.85,766.846 1937.39,766.846 1937.92,766.846 1938.45,766.846 1938.99,766.846 1939.52,766.846 1940.06,766.846 1940.59,766.846 1941.13,766.846 1941.66,766.846 1942.19,766.846 1942.73,766.846 1943.26,766.846 1943.8,766.846 1944.33,766.846 1944.86,766.846 1945.4,766.846 1945.93,766.846 1946.47,766.846 1947,766.846 1947.54,766.846 1948.07,766.846 1948.6,766.846 1949.15,766.846 1949.69,766.846 1950.23,766.846 1950.77,766.846 1951.31,766.846 1951.85,766.846 1952.39,766.846 1952.94,766.846 1953.48,766.846 1954.02,766.846 1954.56,766.846 1955.1,766.846 1955.64,766.846 1956.18,766.846 1956.73,766.846 1957.27,766.846 1957.81,766.846 1958.35,766.846 1958.89,766.846 1959.43,766.846 1959.97,766.846 1960.52,766.846 1961.06,766.846 1961.6,766.846 1962.14,766.846 1962.68,766.846 1963.22,766.846 1963.76,766.846 1964.3,766.846 1964.85,766.846 1965.39,766.846 1965.93,766.846 1966.47,766.846 1967.01,766.846 1967.55,766.846 1968.09,766.846 1968.64,766.846 1969.18,766.846 1969.72,766.846 1970.26,766.846 1970.8,766.846 1971.34,766.846 1971.88,766.846 1972.43,766.846 1972.97,766.846 1973.51,766.846 1974.05,766.846 1974.59,766.846 1975.13,766.846 1975.67,766.846 1976.22,766.846 1976.76,766.846 1977.3,766.846 1977.84,766.846 1978.38,766.846 1978.92,766.846 1979.46,766.846 1980.01,766.846 1980.55,766.846 1981.09,766.846 1981.63,766.846 1982.17,766.846 1982.71,766.846 1983.25,766.846 1983.8,766.846 1984.34,766.846 1984.88,766.846 1985.42,766.846 1985.96,766.846 1986.5,766.846 1987.04,766.846 1987.59,766.846 1988.13,766.846 1988.67,766.846 1989.21,766.846 1989.75,766.846 1990.29,766.846 1990.83,766.846 1991.38,766.846 1991.92,766.846 1992.46,766.846 1993,766.846 1993.54,766.846 1994.08,766.846 1994.62,766.846 1995.17,766.846 1995.71,766.846 1996.25,766.846 1996.79,766.846 1997.33,766.846 1997.87,766.846 1998.41,766.846 1998.96,766.846 1999.5,766.846 2000.04,766.846 2000.58,766.846 2001.12,766.846 2001.66,766.846 2002.2,766.846 2002.75,766.846 2003.29,766.846 2003.83,766.846 2004.37,766.846 2004.91,766.846 2005.45,766.846 2005.99,766.846 2006.54,766.846 2007.08,766.846 2007.62,766.846 2008.16,766.846 2008.7,766.846 2009.24,766.846 2009.78,766.846 2010.33,766.846 2010.87,766.846 2011.41,766.846 2011.95,766.846 2012.49,766.846 2013.03,766.846 2013.57,766.846 2014.12,766.846 2014.66,766.846 2015.2,766.846 2015.74,766.846 2016.28,766.846 2016.82,766.846 2017.36,766.846 2017.91,766.846 2018.47,766.846 2019.04,766.846 2019.6,766.846 2020.17,766.846 2020.73,766.846 2021.3,766.846 2021.86,766.846 2022.43,766.846 2022.99,766.846 2023.56,766.846 2024.12,766.846 2024.69,766.846 2025.26,766.846 2025.82,766.846 2026.39,766.846 2026.95,766.846 2027.52,766.846 2028.08,766.846 2028.65,766.846 2029.21,766.846 2029.78,766.846 2030.34,766.846 2030.91,766.846 2031.47,766.846 2032.04,766.846 2032.6,766.846 2033.17,766.846 2033.74,766.846 2034.3,766.846 2034.87,766.846 2035.43,766.846 2036,766.846 2036.56,766.846 2037.13,766.846 2037.69,766.846 2038.26,766.846 2038.82,766.846 2039.39,766.846 2039.95,766.846 2040.52,766.846 2041.08,766.846 2041.65,766.846 2042.22,766.846 2042.78,766.846 2043.35,766.846 2043.91,766.846 2044.48,766.846 2045.04,766.846 2045.61,766.846 2046.17,766.846 2046.74,766.846 2047.3,766.846 2047.87,766.846 2048.43,766.846 2049,766.846 2049.56,766.846 2050.13,766.846 2050.7,766.846 2051.26,766.846 2051.83,766.846 2052.39,766.846 2052.96,766.846 2053.52,766.846 2054.09,766.846 2054.65,766.846 2055.22,766.846 2055.78,766.846 2056.35,766.846 2056.91,766.846 2057.48,766.846 2058.05,766.846 2058.61,766.846 2059.18,766.846 2059.74,766.846 2060.31,766.846 2060.87,766.846 2061.44,766.846 2062,766.846 2062.57,766.846 2063.13,766.846 2063.7,766.846 2064.26,766.846 2064.83,766.846 2065.39,766.846 2065.96,766.846 2066.53,766.846 2067.09,766.846 2067.66,766.846 2068.22,766.846 2068.79,766.846 2069.35,766.846 2069.92,766.846 2070.48,766.846 2071.05,766.846 2071.61,766.846 2072.18,766.846 2072.74,766.846 2073.31,766.846 2073.87,766.846 2074.44,766.846 2075.01,766.846 2075.57,766.846 2076.14,766.846 2076.7,766.846 2077.27,766.846 2077.83,766.846 2078.4,766.846 2078.96,766.846 2079.53,766.846 2080.09,766.846 2080.66,766.846 2081.22,766.846 2081.79,766.846 2082.35,766.846 2082.92,766.846 2083.49,766.846 2084.05,766.846 2084.62,766.846 2085.18,766.846 2085.75,766.846 2086.31,766.846 2086.88,766.846 2087.44,766.846 2088.01,766.846 2088.57,766.846 2089.14,766.846 2089.7,766.846 2090.27,766.846 2090.71,766.846 2091.16,766.846 2091.61,766.846 2092.05,766.846 2092.5,766.846 2092.94,766.846 2093.39,766.846 2093.83,766.846 2094.28,766.846 2094.72,766.846 2095.17,766.846 2095.61,766.846 2096.06,766.846 2096.5,766.846 2096.95,766.846 2097.4,766.846 2097.84,766.846 2098.29,766.846 2098.73,766.846 2099.18,766.846 2099.62,766.846 2100.07,766.846 2100.51,766.846 2100.96,766.846 2101.4,766.846 2101.85,766.846 2102.29,766.846 2102.74,766.846 2103.18,766.846 2103.63,766.846 2104.08,766.846 2104.52,766.846 2104.97,766.846 2105.41,766.846 2105.86,766.846 2106.3,766.846 2106.75,766.846 2107.19,766.846 2107.64,766.846 2108.08,766.846 2108.53,766.846 2108.97,766.846 2109.42,766.846 2109.86,766.846 2110.31,766.846 2110.76,766.846 2111.2,766.846 2111.65,766.846 2112.09,766.846 2112.54,766.846 2112.98,766.846 2113.43,766.846 2113.87,766.846 2114.32,766.846 2114.76,766.846 2115.21,766.846 2115.65,766.846 2116.1,766.846 2116.55,766.846 2116.99,766.846 2117.44,766.846 2117.88,766.846 2118.33,766.846 2118.77,766.846 2119.22,766.846 2119.66,766.846 2120.11,766.846 2120.55,766.846 2121,766.846 2121.44,766.846 2121.89,766.846 2122.33,766.846 2122.78,766.846 2123.23,766.846 2123.67,766.846 2124.12,766.846 2124.56,766.846 2125.01,766.846 2125.45,766.846 2125.9,766.846 2126.34,766.846 2126.79,766.846 2127.23,766.846 2127.68,766.846 2128.12,766.846 2128.57,766.846 2129.01,766.846 2129.46,766.846 2129.91,766.846 2130.35,766.846 2130.8,766.846 2131.24,766.846 2131.69,766.846 2132.13,766.846 2132.58,766.846 2133.02,766.846 2133.47,766.846 2133.91,766.846 2134.36,766.846 2134.8,766.846 2135.25,766.846 2135.7,766.846 2136.14,766.846 2136.59,766.846 2137.03,766.846 2137.48,766.846 2137.92,766.846 2138.37,766.846 2138.81,766.846 2139.26,766.846 2139.7,766.846 2140.15,766.846 2140.59,766.846 2141.04,766.846 2141.48,766.846 2141.93,766.846 2142.38,766.846 2142.82,766.846 2143.27,766.846 2143.71,766.846 2144.16,766.846 2144.6,766.846 2145.05,766.846 2145.49,766.846 2145.94,766.846 2146.38,766.846 2146.83,766.846 2147.27,766.846 2148.29,766.846 2149.3,766.846 2150.32,766.846 2151.33,766.846 2152.35,766.846 2153.36,766.846 2154.37,766.846 2155.39,766.846 2156.4,766.846 2157.42,766.846 2158.43,766.846 2159.44,766.846 2160.46,766.846 2161.47,766.846 2162.49,766.846 2163.5,766.846 2164.52,766.846 2165.53,766.846 2166.54,766.846 2167.56,766.846 2168.57,766.846 2169.59,766.846 2170.6,766.846 2171.62,766.846 2172.63,766.846 2173.64,766.846 2174.66,766.846 2175.67,766.846 2176.69,766.846 2177.7,766.846 2178.71,766.846 2179.73,766.846 2180.74,766.846 2181.76,766.846 2182.77,766.846 2183.79,766.846 2184.8,766.846 2185.81,766.846 2186.83,766.846 2187.84,766.846 2188.86,766.846 2189.87,766.846 2190.88,766.846 2191.9,766.846 2192.91,766.846 2193.93,766.846 2194.94,766.846 2195.96,766.846 2196.97,766.846 2197.98,766.846 2199,766.846 2200.01,766.846 2201.03,766.846 2202.04,766.846 2203.06,766.846 2204.07,766.846 2205.08,766.846 2206.1,766.846 2207.11,766.846 2208.13,766.846 2209.14,766.846 2210.15,766.846 2211.17,766.846 2212.18,766.846 2213.2,766.846 2214.21,766.846 2215.23,766.846 2216.24,766.846 2217.25,766.846 2218.27,766.846 2219.28,766.846 2220.3,766.846 2221.31,766.846 2222.33,766.846 2223.34,766.846 2224.35,766.846 2225.37,766.846 2226.38,766.846 2227.4,766.846 2228.41,766.846 2229.42,766.846 2230.44,766.846 2231.45,766.846 2232.47,766.846 2233.48,766.846 2234.5,766.846 2235.51,766.846 2236.52,766.846 2237.54,766.846 2238.55,766.846 2239.57,766.846 2240.58,766.846 2241.6,766.846 2242.61,766.846 2243.62,766.846 2244.64,766.846 2245.65,766.846 2246.67,766.846 2247.68,766.846 2248.69,766.846 2249.71,766.846 2250.72,766.846 2251.74,766.846 2252.75,766.846 2253.77,766.846 2254.78,766.846 2255.79,766.846 2256.81,766.846 2257.82,766.846 2258.84,766.846 2259.85,766.846 2260.86,766.846 2261.88,766.846 2262.89,766.846 2263.91,766.846 2264.92,766.846 2265.94,766.846 2266.95,766.846 2267.96,766.846 2268.98,766.846 2269.99,766.846 2271.01,766.846 2272.02,766.846 2273.04,766.846 2274.05,766.846 2275.06,766.846 2276.08,766.846 2277.09,766.846 2277.21,766.846 2277.32,766.846 2277.43,766.846 2277.55,766.846 2277.66,766.846 2277.77,766.846 2277.89,766.846 2278,766.846 2278.12,766.846 2278.23,766.846 2278.34,766.846 2278.46,766.846 2278.57,766.846 2278.69,766.846 2278.8,766.846 2278.91,766.846 2279.03,766.846 2279.14,766.846 2279.25,766.846 2279.37,766.846 2279.48,766.846 2279.6,766.846 2279.71,766.846 2279.82,766.846 2279.94,766.846 2280.05,766.846 2280.16,766.846 2280.28,766.846 2280.39,766.846 2280.51,766.846 2280.62,766.846 2280.73,766.846 2280.85,766.846 2280.96,766.846 2281.07,766.846 2281.19,766.846 2281.3,766.846 2281.42,766.846 2281.53,766.846 2281.64,766.846 2281.76,766.846 2281.87,766.846 2281.99,766.846 2282.1,766.846 2282.21,766.846 2282.33,766.846 2282.44,766.846 2282.55,766.846 2282.67,766.846 2282.78,766.846 2282.9,766.846 2283.01,766.846 2283.12,766.846 2283.24,766.846 2283.35,766.846 2283.46,766.846 2283.58,766.846 2283.69,766.846 2283.81,766.846 2283.92,766.846 2284.03,766.846 2284.15,766.846 2284.26,766.846 2284.37,766.846 2284.49,766.846 2284.6,766.846 2284.72,766.846 2284.83,766.846 2284.94,766.846 2285.06,766.846 2285.17,766.846 2285.29,766.846 2285.4,766.846 2285.51,766.846 2285.63,766.846 2285.74,766.846 2285.85,766.846 2285.97,766.846 2286.08,766.846 2286.2,766.846 2286.31,766.846 2286.42,766.846 2286.54,766.846 2286.65,766.846 2286.76,766.846 2286.88,766.846 2286.99,766.846 2287.11,766.846 2287.22,766.846 2287.33,766.846 2287.45,766.846 2287.56,766.846 2287.67,766.846 2287.79,766.846 2287.9,766.846 2288.02,766.846 2288.13,766.846 2288.24,766.846 2288.36,766.846 2288.47,766.846 2288.58,766.846 2288.7,766.846 2288.81,766.846 2288.93,766.846 2289.04,766.846 2289.15,766.846 2289.27,766.846 2289.38,766.846 2289.5,766.846 2289.61,766.846 2289.72,766.846 2289.84,766.846 2289.95,766.846 2290.06,766.846 2290.18,766.846 2290.29,766.846 2290.41,766.846 2290.52,766.846 2290.63,766.846 2290.75,766.846 2290.86,766.846 2290.97,766.846 2291.09,766.846 2291.2,766.846 2291.32,766.846 2291.43,766.846 2291.54,766.846 2291.66,766.846 "/>
<polyline clip-path="url(#clip602)" style="stroke:#e26f46; stroke-linecap:round; stroke-linejoin:round; stroke-width:4; stroke-opacity:1; fill:none" points="255.035,1644.77 260.291,1604.22 265.547,1564.63 270.804,1526 276.06,1488.33 306.846,1286.93 337.632,1118.42 368.418,982.802 399.205,880.065 413.526,843.479 427.848,814.011 442.17,791.659 456.491,776.424 494.884,766.846 533.277,766.846 596.726,766.846 655.726,766.846 729.793,766.846 796.231,766.846 872.278,766.846 929.123,766.846 1001.83,766.846 1068.19,766.846 1143.71,766.846 1203.58,766.846 1277.97,766.846 1334.93,766.846 1375.09,768.326 1415.24,809.17 1445.25,876.219 1475.26,974.511 1492.32,1044.33 1509.38,1124.26 1526.44,1214.29 1543.51,1314.42 1577.3,1542.56 1611.1,1810.33 1629.69,1974.53 1648.28,2150.72 1666.87,2338.9 1685.46,2539.07 1713.86,2868.02 1742.26,3224.95 1760.18,3464.56 1778.1,3715.31 1796.02,3977.2 1813.94,4250.24 1847.09,4784.66 1880.23,5357.21 1914.42,5987.62 1948.6,6658.59 1965.93,7014.12 1983.25,7380.07 2000.58,7756.43 2017.91,8143.21 2036,8558.2 2054.09,8984.54 2072.18,9422.24 2090.27,9871.29 2104.52,10233 2118.77,10601.8 2133.02,10977.6 2147.27,11360.5 2179.73,12258.8 2212.18,13193.5 2244.64,14164.9 2277.09,15172.7 2280.73,15288.1 2284.37,15403.9 2288.02,15520.2 2291.66,15636.9 "/>
<polyline clip-path="url(#clip602)" style="stroke:#3da44d; stroke-linecap:round; stroke-linejoin:round; stroke-width:4; stroke-opacity:1; fill:none" points="255.035,-111.078 260.291,-70.5296 265.547,-30.9396 270.804,7.69171 276.06,45.3643 306.846,246.759 337.632,415.268 368.418,550.89 399.205,653.627 413.526,690.213 427.848,719.681 442.17,742.033 456.491,757.268 494.884,766.846 533.277,766.846 596.726,766.846 655.726,766.846 729.793,766.846 796.231,766.846 872.278,766.846 929.123,766.846 1001.83,766.846 1068.19,766.846 1143.71,766.846 1203.58,766.846 1277.97,766.846 1334.93,766.846 1375.09,765.366 1415.24,724.522 1445.25,657.473 1475.26,559.181 1492.32,489.357 1509.38,409.432 1526.44,319.404 1543.51,219.276 1577.3,-8.86756 1611.1,-276.641 1629.69,-440.837 1648.28,-617.025 1666.87,-805.205 1685.46,-1005.38 1713.86,-1334.32 1742.26,-1691.26 1760.18,-1930.87 1778.1,-2181.62 1796.02,-2443.51 1813.94,-2716.55 1847.09,-3250.97 1880.23,-3823.52 1914.42,-4453.93 1948.6,-5124.9 1965.93,-5480.43 1983.25,-5846.38 2000.58,-6222.74 2017.91,-6609.52 2036,-7024.51 2054.09,-7450.85 2072.18,-7888.55 2090.27,-8337.6 2104.52,-8699.34 2118.77,-9068.12 2133.02,-9443.95 2147.27,-9826.83 2179.73,-10725.1 2212.18,-11659.8 2244.64,-12631.2 2277.09,-13639.1 2280.73,-13754.4 2284.37,-13870.2 2288.02,-13986.5 2291.66,-14103.3 "/>
<polyline clip-path="url(#clip602)" style="stroke:#c271d2; stroke-linecap:round; stroke-linejoin:round; stroke-width:4; stroke-opacity:1; fill:none" points="255.035,1402.71 265.547,1372.99 276.06,1343.28 337.632,1169.24 399.205,995.193 413.526,954.711 427.848,914.228 442.17,873.746 456.491,833.264 466.09,806.133 475.688,779.002 480.487,766.846 485.286,766.846 490.085,766.846 494.884,766.846 514.081,766.846 533.277,766.846 565.001,766.846 596.726,766.846 626.226,766.846 655.726,766.846 729.793,766.846 796.231,766.846 872.278,766.846 929.123,766.846 1001.83,766.846 1068.19,766.846 1143.71,766.846 1203.58,766.846 1240.77,766.846 1277.97,766.846 1306.45,766.846 1334.93,766.846 1344.97,766.846 1355.01,766.846 1360.03,766.846 1365.05,766.846 1370.07,754.925 1375.09,740.737 1395.16,683.984 1415.24,627.232 1445.25,542.411 1475.26,457.59 1543.51,264.67 1611.1,73.6124 1685.46,-136.586 1742.26,-297.141 1813.94,-499.748 1880.23,-687.138 1948.6,-880.398 2017.91,-1076.29 2090.27,-1280.84 2147.27,-1441.97 2277.09,-1808.92 2291.66,-1850.09 "/>
<path clip-path="url(#clip600)" d="M1998.5 354.418 L2280.8 354.418 L2280.8 95.2176 L1998.5 95.2176  Z" fill="#ffffff" fill-rule="evenodd" fill-opacity="1"/>
<polyline clip-path="url(#clip600)" style="stroke:#000000; stroke-linecap:round; stroke-linejoin:round; stroke-width:4; stroke-opacity:1; fill:none" points="1998.5,354.418 2280.8,354.418 2280.8,95.2176 1998.5,95.2176 1998.5,354.418 "/>
<polyline clip-path="url(#clip600)" style="stroke:#009af9; stroke-linecap:round; stroke-linejoin:round; stroke-width:4; stroke-opacity:1; fill:none" points="2022.49,147.058 2166.41,147.058 "/>
<path clip-path="url(#clip600)" d="M2190.4 129.778 L2195.07 129.778 L2195.07 143.944 L2212.06 143.944 L2212.06 129.778 L2216.74 129.778 L2216.74 164.338 L2212.06 164.338 L2212.06 147.879 L2195.07 147.879 L2195.07 164.338 L2190.4 164.338 L2190.4 129.778 Z" fill="#000000" fill-rule="nonzero" fill-opacity="1" /><polyline clip-path="url(#clip600)" style="stroke:#e26f46; stroke-linecap:round; stroke-linejoin:round; stroke-width:4; stroke-opacity:1; fill:none" points="2022.49,198.898 2166.41,198.898 "/>
<path clip-path="url(#clip600)" d="M2190.4 181.618 L2195.07 181.618 L2195.07 195.784 L2212.06 195.784 L2212.06 181.618 L2216.74 181.618 L2216.74 216.178 L2212.06 216.178 L2212.06 199.719 L2195.07 199.719 L2195.07 216.178 L2190.4 216.178 L2190.4 181.618 Z" fill="#000000" fill-rule="nonzero" fill-opacity="1" /><path clip-path="url(#clip600)" d="M2234.59 200.506 Q2233.43 198.516 2231.09 198.516 Q2228.75 198.516 2227.6 200.506 Q2226.41 202.497 2226.41 206.479 Q2226.41 210.483 2227.6 212.474 Q2228.75 214.465 2231.09 214.465 Q2233.43 214.465 2234.59 212.474 Q2235.77 210.483 2235.77 206.479 Q2235.77 202.497 2234.59 200.506 M2231.09 196.455 Q2234.82 196.455 2236.79 199.025 Q2238.75 201.594 2238.75 206.479 Q2238.75 211.386 2236.79 213.955 Q2234.82 216.525 2231.09 216.525 Q2227.34 216.525 2225.37 213.955 Q2223.41 211.386 2223.41 206.479 Q2223.41 201.594 2225.37 199.025 Q2227.34 196.455 2231.09 196.455 Z" fill="#000000" fill-rule="nonzero" fill-opacity="1" /><polyline clip-path="url(#clip600)" style="stroke:#3da44d; stroke-linecap:round; stroke-linejoin:round; stroke-width:4; stroke-opacity:1; fill:none" points="2022.49,250.738 2166.41,250.738 "/>
<path clip-path="url(#clip600)" d="M2190.4 233.458 L2195.07 233.458 L2195.07 247.624 L2212.06 247.624 L2212.06 233.458 L2216.74 233.458 L2216.74 268.018 L2212.06 268.018 L2212.06 251.559 L2195.07 251.559 L2195.07 268.018 L2190.4 268.018 L2190.4 233.458 Z" fill="#000000" fill-rule="nonzero" fill-opacity="1" /><path clip-path="url(#clip600)" d="M2225 265.471 L2229.73 265.471 L2229.73 251.328 L2224.56 252.277 L2224.56 249.592 L2229.89 248.689 L2233.06 248.689 L2233.06 265.471 L2237.8 265.471 L2237.8 268.018 L2225 268.018 L2225 265.471 Z" fill="#000000" fill-rule="nonzero" fill-opacity="1" /><polyline clip-path="url(#clip600)" style="stroke:#c271d2; stroke-linecap:round; stroke-linejoin:round; stroke-width:4; stroke-opacity:1; fill:none" points="2022.49,302.578 2166.41,302.578 "/>
<path clip-path="url(#clip600)" d="M2190.4 285.298 L2195.07 285.298 L2195.07 299.464 L2212.06 299.464 L2212.06 285.298 L2216.74 285.298 L2216.74 319.858 L2212.06 319.858 L2212.06 303.399 L2195.07 303.399 L2195.07 319.858 L2190.4 319.858 L2190.4 285.298 Z" fill="#000000" fill-rule="nonzero" fill-opacity="1" /><path clip-path="url(#clip600)" d="M2234.59 304.186 Q2233.43 302.196 2231.09 302.196 Q2228.75 302.196 2227.6 304.186 Q2226.41 306.177 2226.41 310.159 Q2226.41 314.163 2227.6 316.154 Q2228.75 318.145 2231.09 318.145 Q2233.43 318.145 2234.59 316.154 Q2235.77 314.163 2235.77 310.159 Q2235.77 306.177 2234.59 304.186 M2231.09 300.135 Q2234.82 300.135 2236.79 302.705 Q2238.75 305.274 2238.75 310.159 Q2238.75 315.066 2236.79 317.635 Q2234.82 320.205 2231.09 320.205 Q2227.34 320.205 2225.37 317.635 Q2223.41 315.066 2223.41 310.159 Q2223.41 305.274 2225.37 302.705 Q2227.34 300.135 2231.09 300.135 Z" fill="#000000" fill-rule="nonzero" fill-opacity="1" /><path clip-path="url(#clip600)" d="M2244.01 317.311 L2248.73 317.311 L2248.73 303.168 L2243.57 304.117 L2243.57 301.432 L2248.89 300.529 L2252.06 300.529 L2252.06 317.311 L2256.81 317.311 L2256.81 319.858 L2244.01 319.858 L2244.01 317.311 Z" fill="#000000" fill-rule="nonzero" fill-opacity="1" /></svg>
