<?xml version="1.0" encoding="utf-8"?>
<svg xmlns="http://www.w3.org/2000/svg" xmlns:xlink="http://www.w3.org/1999/xlink" width="500" height="200" viewBox="0 0 2000 800">
<defs>
  <clipPath id="clip930">
    <rect x="0" y="0" width="2000" height="800"/>
  </clipPath>
</defs>
<path clip-path="url(#clip930)" d="M0 800 L2000 800 L2000 0 L0 0  Z" fill="#ffffff" fill-rule="evenodd" fill-opacity="1"/>
<defs>
  <clipPath id="clip931">
    <rect x="400" y="0" width="1401" height="800"/>
  </clipPath>
</defs>
<path clip-path="url(#clip930)" d="M168.015 664.012 L639.53 664.012 L639.53 47.2441 L168.015 47.2441  Z" fill="#ffffff" fill-rule="evenodd" fill-opacity="1"/>
<defs>
  <clipPath id="clip932">
    <rect x="168" y="47" width="473" height="618"/>
  </clipPath>
</defs>
<polyline clip-path="url(#clip932)" style="stroke:#000000; stroke-linecap:round; stroke-linejoin:round; stroke-width:2; stroke-opacity:0.1; fill:none" points="181.36,664.012 181.36,47.2441 "/>
<polyline clip-path="url(#clip932)" style="stroke:#000000; stroke-linecap:round; stroke-linejoin:round; stroke-width:2; stroke-opacity:0.1; fill:none" points="261.087,664.012 261.087,47.2441 "/>
<polyline clip-path="url(#clip932)" style="stroke:#000000; stroke-linecap:round; stroke-linejoin:round; stroke-width:2; stroke-opacity:0.1; fill:none" points="340.814,664.012 340.814,47.2441 "/>
<polyline clip-path="url(#clip932)" style="stroke:#000000; stroke-linecap:round; stroke-linejoin:round; stroke-width:2; stroke-opacity:0.1; fill:none" points="420.54,664.012 420.54,47.2441 "/>
<polyline clip-path="url(#clip932)" style="stroke:#000000; stroke-linecap:round; stroke-linejoin:round; stroke-width:2; stroke-opacity:0.1; fill:none" points="500.267,664.012 500.267,47.2441 "/>
<polyline clip-path="url(#clip932)" style="stroke:#000000; stroke-linecap:round; stroke-linejoin:round; stroke-width:2; stroke-opacity:0.1; fill:none" points="579.994,664.012 579.994,47.2441 "/>
<polyline clip-path="url(#clip932)" style="stroke:#000000; stroke-linecap:round; stroke-linejoin:round; stroke-width:2; stroke-opacity:0.1; fill:none" points="168.015,646.556 639.53,646.556 "/>
<polyline clip-path="url(#clip932)" style="stroke:#000000; stroke-linecap:round; stroke-linejoin:round; stroke-width:2; stroke-opacity:0.1; fill:none" points="168.015,517.15 639.53,517.15 "/>
<polyline clip-path="url(#clip932)" style="stroke:#000000; stroke-linecap:round; stroke-linejoin:round; stroke-width:2; stroke-opacity:0.1; fill:none" points="168.015,387.744 639.53,387.744 "/>
<polyline clip-path="url(#clip932)" style="stroke:#000000; stroke-linecap:round; stroke-linejoin:round; stroke-width:2; stroke-opacity:0.1; fill:none" points="168.015,258.338 639.53,258.338 "/>
<polyline clip-path="url(#clip932)" style="stroke:#000000; stroke-linecap:round; stroke-linejoin:round; stroke-width:2; stroke-opacity:0.1; fill:none" points="168.015,128.932 639.53,128.932 "/>
<polyline clip-path="url(#clip930)" style="stroke:#000000; stroke-linecap:round; stroke-linejoin:round; stroke-width:4; stroke-opacity:1; fill:none" points="168.015,664.012 639.53,664.012 "/>
<polyline clip-path="url(#clip930)" style="stroke:#000000; stroke-linecap:round; stroke-linejoin:round; stroke-width:4; stroke-opacity:1; fill:none" points="181.36,664.012 181.36,645.114 "/>
<polyline clip-path="url(#clip930)" style="stroke:#000000; stroke-linecap:round; stroke-linejoin:round; stroke-width:4; stroke-opacity:1; fill:none" points="261.087,664.012 261.087,645.114 "/>
<polyline clip-path="url(#clip930)" style="stroke:#000000; stroke-linecap:round; stroke-linejoin:round; stroke-width:4; stroke-opacity:1; fill:none" points="340.814,664.012 340.814,645.114 "/>
<polyline clip-path="url(#clip930)" style="stroke:#000000; stroke-linecap:round; stroke-linejoin:round; stroke-width:4; stroke-opacity:1; fill:none" points="420.54,664.012 420.54,645.114 "/>
<polyline clip-path="url(#clip930)" style="stroke:#000000; stroke-linecap:round; stroke-linejoin:round; stroke-width:4; stroke-opacity:1; fill:none" points="500.267,664.012 500.267,645.114 "/>
<polyline clip-path="url(#clip930)" style="stroke:#000000; stroke-linecap:round; stroke-linejoin:round; stroke-width:4; stroke-opacity:1; fill:none" points="579.994,664.012 579.994,645.114 "/>
<path clip-path="url(#clip930)" d="M181.36 691.731 Q177.749 691.731 175.92 695.295 Q174.114 698.837 174.114 705.967 Q174.114 713.073 175.92 716.638 Q177.749 720.179 181.36 720.179 Q184.994 720.179 186.799 716.638 Q188.628 713.073 188.628 705.967 Q188.628 698.837 186.799 695.295 Q184.994 691.731 181.36 691.731 M181.36 688.027 Q187.17 688.027 190.225 692.633 Q193.304 697.217 193.304 705.967 Q193.304 714.693 190.225 719.3 Q187.17 723.883 181.36 723.883 Q175.549 723.883 172.471 719.3 Q169.415 714.693 169.415 705.967 Q169.415 697.217 172.471 692.633 Q175.549 688.027 181.36 688.027 Z" fill="#000000" fill-rule="nonzero" fill-opacity="1" /><path clip-path="url(#clip930)" d="M235.774 719.277 L243.413 719.277 L243.413 692.911 L235.103 694.578 L235.103 690.319 L243.367 688.652 L248.043 688.652 L248.043 719.277 L255.681 719.277 L255.681 723.212 L235.774 723.212 L235.774 719.277 Z" fill="#000000" fill-rule="nonzero" fill-opacity="1" /><path clip-path="url(#clip930)" d="M275.126 691.731 Q271.515 691.731 269.686 695.295 Q267.881 698.837 267.881 705.967 Q267.881 713.073 269.686 716.638 Q271.515 720.179 275.126 720.179 Q278.76 720.179 280.566 716.638 Q282.394 713.073 282.394 705.967 Q282.394 698.837 280.566 695.295 Q278.76 691.731 275.126 691.731 M275.126 688.027 Q280.936 688.027 283.992 692.633 Q287.07 697.217 287.07 705.967 Q287.07 714.693 283.992 719.3 Q280.936 723.883 275.126 723.883 Q269.316 723.883 266.237 719.3 Q263.181 714.693 263.181 705.967 Q263.181 697.217 266.237 692.633 Q269.316 688.027 275.126 688.027 Z" fill="#000000" fill-rule="nonzero" fill-opacity="1" /><path clip-path="url(#clip930)" d="M319.587 719.277 L335.906 719.277 L335.906 723.212 L313.962 723.212 L313.962 719.277 Q316.624 716.522 321.207 711.892 Q325.814 707.24 326.994 705.897 Q329.24 703.374 330.119 701.638 Q331.022 699.879 331.022 698.189 Q331.022 695.434 329.077 693.698 Q327.156 691.962 324.054 691.962 Q321.855 691.962 319.402 692.726 Q316.971 693.49 314.193 695.041 L314.193 690.319 Q317.017 689.184 319.471 688.606 Q321.925 688.027 323.962 688.027 Q329.332 688.027 332.527 690.712 Q335.721 693.397 335.721 697.888 Q335.721 700.018 334.911 701.939 Q334.124 703.837 332.017 706.43 Q331.439 707.101 328.337 710.318 Q325.235 713.513 319.587 719.277 Z" fill="#000000" fill-rule="nonzero" fill-opacity="1" /><path clip-path="url(#clip930)" d="M355.721 691.731 Q352.11 691.731 350.281 695.295 Q348.476 698.837 348.476 705.967 Q348.476 713.073 350.281 716.638 Q352.11 720.179 355.721 720.179 Q359.355 720.179 361.161 716.638 Q362.989 713.073 362.989 705.967 Q362.989 698.837 361.161 695.295 Q359.355 691.731 355.721 691.731 M355.721 688.027 Q361.531 688.027 364.587 692.633 Q367.665 697.217 367.665 705.967 Q367.665 714.693 364.587 719.3 Q361.531 723.883 355.721 723.883 Q349.911 723.883 346.832 719.3 Q343.776 714.693 343.776 705.967 Q343.776 697.217 346.832 692.633 Q349.911 688.027 355.721 688.027 Z" fill="#000000" fill-rule="nonzero" fill-opacity="1" /><path clip-path="url(#clip930)" d="M409.383 704.578 Q412.74 705.295 414.615 707.564 Q416.513 709.832 416.513 713.166 Q416.513 718.281 412.994 721.082 Q409.476 723.883 402.994 723.883 Q400.818 723.883 398.504 723.443 Q396.212 723.027 393.758 722.17 L393.758 717.656 Q395.703 718.791 398.017 719.369 Q400.332 719.948 402.855 719.948 Q407.254 719.948 409.545 718.212 Q411.86 716.476 411.86 713.166 Q411.86 710.11 409.707 708.397 Q407.578 706.661 403.758 706.661 L399.73 706.661 L399.73 702.818 L403.943 702.818 Q407.392 702.818 409.221 701.453 Q411.05 700.064 411.05 697.471 Q411.05 694.809 409.152 693.397 Q407.277 691.962 403.758 691.962 Q401.837 691.962 399.638 692.379 Q397.439 692.795 394.8 693.675 L394.8 689.508 Q397.462 688.768 399.777 688.397 Q402.115 688.027 404.175 688.027 Q409.499 688.027 412.601 690.457 Q415.703 692.865 415.703 696.985 Q415.703 699.855 414.059 701.846 Q412.416 703.814 409.383 704.578 Z" fill="#000000" fill-rule="nonzero" fill-opacity="1" /><path clip-path="url(#clip930)" d="M435.378 691.731 Q431.767 691.731 429.939 695.295 Q428.133 698.837 428.133 705.967 Q428.133 713.073 429.939 716.638 Q431.767 720.179 435.378 720.179 Q439.013 720.179 440.818 716.638 Q442.647 713.073 442.647 705.967 Q442.647 698.837 440.818 695.295 Q439.013 691.731 435.378 691.731 M435.378 688.027 Q441.189 688.027 444.244 692.633 Q447.323 697.217 447.323 705.967 Q447.323 714.693 444.244 719.3 Q441.189 723.883 435.378 723.883 Q429.568 723.883 426.49 719.3 Q423.434 714.693 423.434 705.967 Q423.434 697.217 426.49 692.633 Q429.568 688.027 435.378 688.027 Z" fill="#000000" fill-rule="nonzero" fill-opacity="1" /><path clip-path="url(#clip930)" d="M488.439 692.726 L476.633 711.175 L488.439 711.175 L488.439 692.726 M487.212 688.652 L493.092 688.652 L493.092 711.175 L498.022 711.175 L498.022 715.064 L493.092 715.064 L493.092 723.212 L488.439 723.212 L488.439 715.064 L472.837 715.064 L472.837 710.55 L487.212 688.652 Z" fill="#000000" fill-rule="nonzero" fill-opacity="1" /><path clip-path="url(#clip930)" d="M515.753 691.731 Q512.142 691.731 510.314 695.295 Q508.508 698.837 508.508 705.967 Q508.508 713.073 510.314 716.638 Q512.142 720.179 515.753 720.179 Q519.388 720.179 521.193 716.638 Q523.022 713.073 523.022 705.967 Q523.022 698.837 521.193 695.295 Q519.388 691.731 515.753 691.731 M515.753 688.027 Q521.564 688.027 524.619 692.633 Q527.698 697.217 527.698 705.967 Q527.698 714.693 524.619 719.3 Q521.564 723.883 515.753 723.883 Q509.943 723.883 506.865 719.3 Q503.809 714.693 503.809 705.967 Q503.809 697.217 506.865 692.633 Q509.943 688.027 515.753 688.027 Z" fill="#000000" fill-rule="nonzero" fill-opacity="1" /><path clip-path="url(#clip930)" d="M554.694 688.652 L573.05 688.652 L573.05 692.587 L558.976 692.587 L558.976 701.059 Q559.994 700.712 561.013 700.55 Q562.032 700.365 563.05 700.365 Q568.837 700.365 572.217 703.536 Q575.596 706.707 575.596 712.124 Q575.596 717.703 572.124 720.804 Q568.652 723.883 562.332 723.883 Q560.157 723.883 557.888 723.513 Q555.643 723.142 553.235 722.402 L553.235 717.703 Q555.319 718.837 557.541 719.392 Q559.763 719.948 562.24 719.948 Q566.244 719.948 568.582 717.842 Q570.92 715.735 570.92 712.124 Q570.92 708.513 568.582 706.406 Q566.244 704.3 562.24 704.3 Q560.365 704.3 558.49 704.717 Q556.638 705.133 554.694 706.013 L554.694 688.652 Z" fill="#000000" fill-rule="nonzero" fill-opacity="1" /><path clip-path="url(#clip930)" d="M594.809 691.731 Q591.198 691.731 589.369 695.295 Q587.564 698.837 587.564 705.967 Q587.564 713.073 589.369 716.638 Q591.198 720.179 594.809 720.179 Q598.443 720.179 600.249 716.638 Q602.078 713.073 602.078 705.967 Q602.078 698.837 600.249 695.295 Q598.443 691.731 594.809 691.731 M594.809 688.027 Q600.619 688.027 603.675 692.633 Q606.753 697.217 606.753 705.967 Q606.753 714.693 603.675 719.3 Q600.619 723.883 594.809 723.883 Q588.999 723.883 585.92 719.3 Q582.865 714.693 582.865 705.967 Q582.865 697.217 585.92 692.633 Q588.999 688.027 594.809 688.027 Z" fill="#000000" fill-rule="nonzero" fill-opacity="1" /><path clip-path="url(#clip930)" d="M402.834 757.106 L402.834 767.228 L414.897 767.228 L414.897 771.779 L402.834 771.779 L402.834 791.131 Q402.834 795.492 404.011 796.733 Q405.221 797.974 408.881 797.974 L414.897 797.974 L414.897 802.876 L408.881 802.876 Q402.102 802.876 399.524 800.361 Q396.945 797.815 396.945 791.131 L396.945 771.779 L392.649 771.779 L392.649 767.228 L396.945 767.228 L396.945 757.106 L402.834 757.106 Z" fill="#000000" fill-rule="nonzero" fill-opacity="1" /><polyline clip-path="url(#clip930)" style="stroke:#000000; stroke-linecap:round; stroke-linejoin:round; stroke-width:4; stroke-opacity:1; fill:none" points="168.015,664.012 168.015,47.2441 "/>
<polyline clip-path="url(#clip930)" style="stroke:#000000; stroke-linecap:round; stroke-linejoin:round; stroke-width:4; stroke-opacity:1; fill:none" points="168.015,646.556 186.912,646.556 "/>
<polyline clip-path="url(#clip930)" style="stroke:#000000; stroke-linecap:round; stroke-linejoin:round; stroke-width:4; stroke-opacity:1; fill:none" points="168.015,517.15 186.912,517.15 "/>
<polyline clip-path="url(#clip930)" style="stroke:#000000; stroke-linecap:round; stroke-linejoin:round; stroke-width:4; stroke-opacity:1; fill:none" points="168.015,387.744 186.912,387.744 "/>
<polyline clip-path="url(#clip930)" style="stroke:#000000; stroke-linecap:round; stroke-linejoin:round; stroke-width:4; stroke-opacity:1; fill:none" points="168.015,258.338 186.912,258.338 "/>
<polyline clip-path="url(#clip930)" style="stroke:#000000; stroke-linecap:round; stroke-linejoin:round; stroke-width:4; stroke-opacity:1; fill:none" points="168.015,128.932 186.912,128.932 "/>
<path clip-path="url(#clip930)" d="M126.07 632.355 Q122.459 632.355 120.631 635.92 Q118.825 639.461 118.825 646.591 Q118.825 653.697 120.631 657.262 Q122.459 660.804 126.07 660.804 Q129.705 660.804 131.51 657.262 Q133.339 653.697 133.339 646.591 Q133.339 639.461 131.51 635.92 Q129.705 632.355 126.07 632.355 M126.07 628.651 Q131.881 628.651 134.936 633.258 Q138.015 637.841 138.015 646.591 Q138.015 655.318 134.936 659.924 Q131.881 664.507 126.07 664.507 Q120.26 664.507 117.182 659.924 Q114.126 655.318 114.126 646.591 Q114.126 637.841 117.182 633.258 Q120.26 628.651 126.07 628.651 Z" fill="#000000" fill-rule="nonzero" fill-opacity="1" /><path clip-path="url(#clip930)" d="M56.5569 530.495 L64.1958 530.495 L64.1958 504.129 L55.8856 505.796 L55.8856 501.537 L64.1495 499.87 L68.8254 499.87 L68.8254 530.495 L76.4642 530.495 L76.4642 534.43 L56.5569 534.43 L56.5569 530.495 Z" fill="#000000" fill-rule="nonzero" fill-opacity="1" /><path clip-path="url(#clip930)" d="M95.9086 502.949 Q92.2975 502.949 90.4688 506.514 Q88.6632 510.055 88.6632 517.185 Q88.6632 524.291 90.4688 527.856 Q92.2975 531.398 95.9086 531.398 Q99.5428 531.398 101.348 527.856 Q103.177 524.291 103.177 517.185 Q103.177 510.055 101.348 506.514 Q99.5428 502.949 95.9086 502.949 M95.9086 499.245 Q101.719 499.245 104.774 503.852 Q107.853 508.435 107.853 517.185 Q107.853 525.912 104.774 530.518 Q101.719 535.101 95.9086 535.101 Q90.0984 535.101 87.0197 530.518 Q83.9642 525.912 83.9642 517.185 Q83.9642 508.435 87.0197 503.852 Q90.0984 499.245 95.9086 499.245 Z" fill="#000000" fill-rule="nonzero" fill-opacity="1" /><path clip-path="url(#clip930)" d="M126.07 502.949 Q122.459 502.949 120.631 506.514 Q118.825 510.055 118.825 517.185 Q118.825 524.291 120.631 527.856 Q122.459 531.398 126.07 531.398 Q129.705 531.398 131.51 527.856 Q133.339 524.291 133.339 517.185 Q133.339 510.055 131.51 506.514 Q129.705 502.949 126.07 502.949 M126.07 499.245 Q131.881 499.245 134.936 503.852 Q138.015 508.435 138.015 517.185 Q138.015 525.912 134.936 530.518 Q131.881 535.101 126.07 535.101 Q120.26 535.101 117.182 530.518 Q114.126 525.912 114.126 517.185 Q114.126 508.435 117.182 503.852 Q120.26 499.245 126.07 499.245 Z" fill="#000000" fill-rule="nonzero" fill-opacity="1" /><path clip-path="url(#clip930)" d="M59.7745 401.089 L76.0939 401.089 L76.0939 405.024 L54.1495 405.024 L54.1495 401.089 Q56.8115 398.334 61.3949 393.705 Q66.0013 389.052 67.1819 387.709 Q69.4272 385.186 70.3068 383.45 Q71.2096 381.691 71.2096 380.001 Q71.2096 377.246 69.2652 375.51 Q67.3439 373.774 64.2421 373.774 Q62.043 373.774 59.5893 374.538 Q57.1588 375.302 54.381 376.853 L54.381 372.131 Q57.2051 370.996 59.6588 370.418 Q62.1124 369.839 64.1495 369.839 Q69.5198 369.839 72.7142 372.524 Q75.9087 375.209 75.9087 379.7 Q75.9087 381.83 75.0985 383.751 Q74.3115 385.649 72.205 388.242 Q71.6263 388.913 68.5245 392.131 Q65.4226 395.325 59.7745 401.089 Z" fill="#000000" fill-rule="nonzero" fill-opacity="1" /><path clip-path="url(#clip930)" d="M95.9086 373.543 Q92.2975 373.543 90.4688 377.108 Q88.6632 380.649 88.6632 387.779 Q88.6632 394.885 90.4688 398.45 Q92.2975 401.992 95.9086 401.992 Q99.5428 401.992 101.348 398.45 Q103.177 394.885 103.177 387.779 Q103.177 380.649 101.348 377.108 Q99.5428 373.543 95.9086 373.543 M95.9086 369.839 Q101.719 369.839 104.774 374.446 Q107.853 379.029 107.853 387.779 Q107.853 396.506 104.774 401.112 Q101.719 405.695 95.9086 405.695 Q90.0984 405.695 87.0197 401.112 Q83.9642 396.506 83.9642 387.779 Q83.9642 379.029 87.0197 374.446 Q90.0984 369.839 95.9086 369.839 Z" fill="#000000" fill-rule="nonzero" fill-opacity="1" /><path clip-path="url(#clip930)" d="M126.07 373.543 Q122.459 373.543 120.631 377.108 Q118.825 380.649 118.825 387.779 Q118.825 394.885 120.631 398.45 Q122.459 401.992 126.07 401.992 Q129.705 401.992 131.51 398.45 Q133.339 394.885 133.339 387.779 Q133.339 380.649 131.51 377.108 Q129.705 373.543 126.07 373.543 M126.07 369.839 Q131.881 369.839 134.936 374.446 Q138.015 379.029 138.015 387.779 Q138.015 396.506 134.936 401.112 Q131.881 405.695 126.07 405.695 Q120.26 405.695 117.182 401.112 Q114.126 396.506 114.126 387.779 Q114.126 379.029 117.182 374.446 Q120.26 369.839 126.07 369.839 Z" fill="#000000" fill-rule="nonzero" fill-opacity="1" /><path clip-path="url(#clip930)" d="M69.9133 256.984 Q73.2698 257.701 75.1448 259.97 Q77.0429 262.238 77.0429 265.572 Q77.0429 270.687 73.5244 273.488 Q70.0059 276.289 63.5245 276.289 Q61.3486 276.289 59.0338 275.849 Q56.7421 275.433 54.2884 274.576 L54.2884 270.062 Q56.2328 271.197 58.5477 271.775 Q60.8625 272.354 63.3856 272.354 Q67.7837 272.354 70.0754 270.618 Q72.3902 268.882 72.3902 265.572 Q72.3902 262.516 70.2374 260.803 Q68.1078 259.067 64.2884 259.067 L60.2606 259.067 L60.2606 255.225 L64.4735 255.225 Q67.9226 255.225 69.7513 253.859 Q71.58 252.47 71.58 249.877 Q71.58 247.215 69.6819 245.803 Q67.8069 244.368 64.2884 244.368 Q62.3671 244.368 60.168 244.785 Q57.969 245.201 55.3301 246.081 L55.3301 241.914 Q57.9921 241.174 60.3069 240.803 Q62.6449 240.433 64.705 240.433 Q70.0291 240.433 73.1309 242.864 Q76.2327 245.271 76.2327 249.391 Q76.2327 252.262 74.5892 254.252 Q72.9457 256.22 69.9133 256.984 Z" fill="#000000" fill-rule="nonzero" fill-opacity="1" /><path clip-path="url(#clip930)" d="M95.9086 244.137 Q92.2975 244.137 90.4688 247.701 Q88.6632 251.243 88.6632 258.373 Q88.6632 265.479 90.4688 269.044 Q92.2975 272.586 95.9086 272.586 Q99.5428 272.586 101.348 269.044 Q103.177 265.479 103.177 258.373 Q103.177 251.243 101.348 247.701 Q99.5428 244.137 95.9086 244.137 M95.9086 240.433 Q101.719 240.433 104.774 245.039 Q107.853 249.623 107.853 258.373 Q107.853 267.1 104.774 271.706 Q101.719 276.289 95.9086 276.289 Q90.0984 276.289 87.0197 271.706 Q83.9642 267.1 83.9642 258.373 Q83.9642 249.623 87.0197 245.039 Q90.0984 240.433 95.9086 240.433 Z" fill="#000000" fill-rule="nonzero" fill-opacity="1" /><path clip-path="url(#clip930)" d="M126.07 244.137 Q122.459 244.137 120.631 247.701 Q118.825 251.243 118.825 258.373 Q118.825 265.479 120.631 269.044 Q122.459 272.586 126.07 272.586 Q129.705 272.586 131.51 269.044 Q133.339 265.479 133.339 258.373 Q133.339 251.243 131.51 247.701 Q129.705 244.137 126.07 244.137 M126.07 240.433 Q131.881 240.433 134.936 245.039 Q138.015 249.623 138.015 258.373 Q138.015 267.1 134.936 271.706 Q131.881 276.289 126.07 276.289 Q120.26 276.289 117.182 271.706 Q114.126 267.1 114.126 258.373 Q114.126 249.623 117.182 245.039 Q120.26 240.433 126.07 240.433 Z" fill="#000000" fill-rule="nonzero" fill-opacity="1" /><path clip-path="url(#clip930)" d="M68.5939 115.726 L56.7884 134.175 L68.5939 134.175 L68.5939 115.726 M67.367 111.652 L73.2466 111.652 L73.2466 134.175 L78.1772 134.175 L78.1772 138.064 L73.2466 138.064 L73.2466 146.212 L68.5939 146.212 L68.5939 138.064 L52.9921 138.064 L52.9921 133.55 L67.367 111.652 Z" fill="#000000" fill-rule="nonzero" fill-opacity="1" /><path clip-path="url(#clip930)" d="M95.9086 114.731 Q92.2975 114.731 90.4688 118.295 Q88.6632 121.837 88.6632 128.967 Q88.6632 136.073 90.4688 139.638 Q92.2975 143.18 95.9086 143.18 Q99.5428 143.18 101.348 139.638 Q103.177 136.073 103.177 128.967 Q103.177 121.837 101.348 118.295 Q99.5428 114.731 95.9086 114.731 M95.9086 111.027 Q101.719 111.027 104.774 115.633 Q107.853 120.217 107.853 128.967 Q107.853 137.693 104.774 142.3 Q101.719 146.883 95.9086 146.883 Q90.0984 146.883 87.0197 142.3 Q83.9642 137.693 83.9642 128.967 Q83.9642 120.217 87.0197 115.633 Q90.0984 111.027 95.9086 111.027 Z" fill="#000000" fill-rule="nonzero" fill-opacity="1" /><path clip-path="url(#clip930)" d="M126.07 114.731 Q122.459 114.731 120.631 118.295 Q118.825 121.837 118.825 128.967 Q118.825 136.073 120.631 139.638 Q122.459 143.18 126.07 143.18 Q129.705 143.18 131.51 139.638 Q133.339 136.073 133.339 128.967 Q133.339 121.837 131.51 118.295 Q129.705 114.731 126.07 114.731 M126.07 111.027 Q131.881 111.027 134.936 115.633 Q138.015 120.217 138.015 128.967 Q138.015 137.693 134.936 142.3 Q131.881 146.883 126.07 146.883 Q120.26 146.883 117.182 142.3 Q114.126 137.693 114.126 128.967 Q114.126 120.217 117.182 115.633 Q120.26 111.027 126.07 111.027 Z" fill="#000000" fill-rule="nonzero" fill-opacity="1" /><polyline clip-path="url(#clip932)" style="stroke:#009af9; stroke-linecap:round; stroke-linejoin:round; stroke-width:4; stroke-opacity:1; fill:none" points="181.36,646.556 183.656,644.535 185.952,642.497 199.4,630.214 212.848,617.342 219.104,611.153 225.36,604.837 233.746,594.014 242.131,583.184 255.99,565.284 268.876,548.64 285.053,527.745 299.564,509.003 316.174,487.55 328.59,471.513 344.47,451.003 358.964,432.282 375.459,410.976 388.536,394.087 396.659,383.595 404.782,374.675 411.002,368.145 417.223,361.49 434.764,342.045 447.872,326.86 462.779,308.911 477.542,290.422 493.784,269.26 506.19,252.517 521.845,230.674 536.325,209.76 551.258,187.476 566.395,164.148 582.2,138.992 594.651,118.602 623.004,70.2843 626.186,64.6998 "/>
<path clip-path="url(#clip930)" d="M183.732 171.483 L283.36 171.483 L283.36 67.803 L183.732 67.803  Z" fill="#ffffff" fill-rule="evenodd" fill-opacity="1"/>
<polyline clip-path="url(#clip930)" style="stroke:#000000; stroke-linecap:round; stroke-linejoin:round; stroke-width:4; stroke-opacity:1; fill:none" points="183.732,171.483 283.36,171.483 283.36,67.803 183.732,67.803 183.732,171.483 "/>
<polyline clip-path="url(#clip930)" style="stroke:#009af9; stroke-linecap:round; stroke-linejoin:round; stroke-width:4; stroke-opacity:1; fill:none" points="188.971,119.643 220.405,119.643 "/>
<path clip-path="url(#clip930)" d="M250.297 110.997 L240.922 123.613 L250.783 136.923 L245.76 136.923 L238.214 126.738 L230.668 136.923 L225.645 136.923 L235.714 123.358 L226.501 110.997 L231.524 110.997 L238.399 120.233 L245.274 110.997 L250.297 110.997 Z" fill="#000000" fill-rule="nonzero" fill-opacity="1" /><path clip-path="url(#clip930)" d="M258.214 132.988 L265.853 132.988 L265.853 106.622 L257.542 108.289 L257.542 104.03 L265.806 102.363 L270.482 102.363 L270.482 132.988 L278.121 132.988 L278.121 136.923 L258.214 136.923 L258.214 132.988 Z" fill="#000000" fill-rule="nonzero" fill-opacity="1" /><path clip-path="url(#clip930)" d="M824.628 664.012 L1296.14 664.012 L1296.14 47.2441 L824.628 47.2441  Z" fill="#ffffff" fill-rule="evenodd" fill-opacity="1"/>
<defs>
  <clipPath id="clip933">
    <rect x="824" y="47" width="473" height="618"/>
  </clipPath>
</defs>
<polyline clip-path="url(#clip933)" style="stroke:#000000; stroke-linecap:round; stroke-linejoin:round; stroke-width:2; stroke-opacity:0.1; fill:none" points="837.972,664.012 837.972,47.2441 "/>
<polyline clip-path="url(#clip933)" style="stroke:#000000; stroke-linecap:round; stroke-linejoin:round; stroke-width:2; stroke-opacity:0.1; fill:none" points="917.699,664.012 917.699,47.2441 "/>
<polyline clip-path="url(#clip933)" style="stroke:#000000; stroke-linecap:round; stroke-linejoin:round; stroke-width:2; stroke-opacity:0.1; fill:none" points="997.426,664.012 997.426,47.2441 "/>
<polyline clip-path="url(#clip933)" style="stroke:#000000; stroke-linecap:round; stroke-linejoin:round; stroke-width:2; stroke-opacity:0.1; fill:none" points="1077.15,664.012 1077.15,47.2441 "/>
<polyline clip-path="url(#clip933)" style="stroke:#000000; stroke-linecap:round; stroke-linejoin:round; stroke-width:2; stroke-opacity:0.1; fill:none" points="1156.88,664.012 1156.88,47.2441 "/>
<polyline clip-path="url(#clip933)" style="stroke:#000000; stroke-linecap:round; stroke-linejoin:round; stroke-width:2; stroke-opacity:0.1; fill:none" points="1236.61,664.012 1236.61,47.2441 "/>
<polyline clip-path="url(#clip933)" style="stroke:#000000; stroke-linecap:round; stroke-linejoin:round; stroke-width:2; stroke-opacity:0.1; fill:none" points="824.628,561.103 1296.14,561.103 "/>
<polyline clip-path="url(#clip933)" style="stroke:#000000; stroke-linecap:round; stroke-linejoin:round; stroke-width:2; stroke-opacity:0.1; fill:none" points="824.628,390.197 1296.14,390.197 "/>
<polyline clip-path="url(#clip933)" style="stroke:#000000; stroke-linecap:round; stroke-linejoin:round; stroke-width:2; stroke-opacity:0.1; fill:none" points="824.628,219.291 1296.14,219.291 "/>
<polyline clip-path="url(#clip933)" style="stroke:#000000; stroke-linecap:round; stroke-linejoin:round; stroke-width:2; stroke-opacity:0.1; fill:none" points="824.628,48.3855 1296.14,48.3855 "/>
<polyline clip-path="url(#clip930)" style="stroke:#000000; stroke-linecap:round; stroke-linejoin:round; stroke-width:4; stroke-opacity:1; fill:none" points="824.628,664.012 1296.14,664.012 "/>
<polyline clip-path="url(#clip930)" style="stroke:#000000; stroke-linecap:round; stroke-linejoin:round; stroke-width:4; stroke-opacity:1; fill:none" points="837.972,664.012 837.972,645.114 "/>
<polyline clip-path="url(#clip930)" style="stroke:#000000; stroke-linecap:round; stroke-linejoin:round; stroke-width:4; stroke-opacity:1; fill:none" points="917.699,664.012 917.699,645.114 "/>
<polyline clip-path="url(#clip930)" style="stroke:#000000; stroke-linecap:round; stroke-linejoin:round; stroke-width:4; stroke-opacity:1; fill:none" points="997.426,664.012 997.426,645.114 "/>
<polyline clip-path="url(#clip930)" style="stroke:#000000; stroke-linecap:round; stroke-linejoin:round; stroke-width:4; stroke-opacity:1; fill:none" points="1077.15,664.012 1077.15,645.114 "/>
<polyline clip-path="url(#clip930)" style="stroke:#000000; stroke-linecap:round; stroke-linejoin:round; stroke-width:4; stroke-opacity:1; fill:none" points="1156.88,664.012 1156.88,645.114 "/>
<polyline clip-path="url(#clip930)" style="stroke:#000000; stroke-linecap:round; stroke-linejoin:round; stroke-width:4; stroke-opacity:1; fill:none" points="1236.61,664.012 1236.61,645.114 "/>
<path clip-path="url(#clip930)" d="M837.972 691.731 Q834.361 691.731 832.533 695.295 Q830.727 698.837 830.727 705.967 Q830.727 713.073 832.533 716.638 Q834.361 720.179 837.972 720.179 Q841.607 720.179 843.412 716.638 Q845.241 713.073 845.241 705.967 Q845.241 698.837 843.412 695.295 Q841.607 691.731 837.972 691.731 M837.972 688.027 Q843.782 688.027 846.838 692.633 Q849.917 697.217 849.917 705.967 Q849.917 714.693 846.838 719.3 Q843.782 723.883 837.972 723.883 Q832.162 723.883 829.083 719.3 Q826.028 714.693 826.028 705.967 Q826.028 697.217 829.083 692.633 Q832.162 688.027 837.972 688.027 Z" fill="#000000" fill-rule="nonzero" fill-opacity="1" /><path clip-path="url(#clip930)" d="M892.387 719.277 L900.026 719.277 L900.026 692.911 L891.716 694.578 L891.716 690.319 L899.979 688.652 L904.655 688.652 L904.655 719.277 L912.294 719.277 L912.294 723.212 L892.387 723.212 L892.387 719.277 Z" fill="#000000" fill-rule="nonzero" fill-opacity="1" /><path clip-path="url(#clip930)" d="M931.739 691.731 Q928.127 691.731 926.299 695.295 Q924.493 698.837 924.493 705.967 Q924.493 713.073 926.299 716.638 Q928.127 720.179 931.739 720.179 Q935.373 720.179 937.178 716.638 Q939.007 713.073 939.007 705.967 Q939.007 698.837 937.178 695.295 Q935.373 691.731 931.739 691.731 M931.739 688.027 Q937.549 688.027 940.604 692.633 Q943.683 697.217 943.683 705.967 Q943.683 714.693 940.604 719.3 Q937.549 723.883 931.739 723.883 Q925.928 723.883 922.85 719.3 Q919.794 714.693 919.794 705.967 Q919.794 697.217 922.85 692.633 Q925.928 688.027 931.739 688.027 Z" fill="#000000" fill-rule="nonzero" fill-opacity="1" /><path clip-path="url(#clip930)" d="M976.199 719.277 L992.519 719.277 L992.519 723.212 L970.575 723.212 L970.575 719.277 Q973.237 716.522 977.82 711.892 Q982.426 707.24 983.607 705.897 Q985.852 703.374 986.732 701.638 Q987.635 699.879 987.635 698.189 Q987.635 695.434 985.69 693.698 Q983.769 691.962 980.667 691.962 Q978.468 691.962 976.014 692.726 Q973.584 693.49 970.806 695.041 L970.806 690.319 Q973.63 689.184 976.084 688.606 Q978.537 688.027 980.574 688.027 Q985.945 688.027 989.139 690.712 Q992.334 693.397 992.334 697.888 Q992.334 700.018 991.523 701.939 Q990.736 703.837 988.63 706.43 Q988.051 707.101 984.949 710.318 Q981.848 713.513 976.199 719.277 Z" fill="#000000" fill-rule="nonzero" fill-opacity="1" /><path clip-path="url(#clip930)" d="M1012.33 691.731 Q1008.72 691.731 1006.89 695.295 Q1005.09 698.837 1005.09 705.967 Q1005.09 713.073 1006.89 716.638 Q1008.72 720.179 1012.33 720.179 Q1015.97 720.179 1017.77 716.638 Q1019.6 713.073 1019.6 705.967 Q1019.6 698.837 1017.77 695.295 Q1015.97 691.731 1012.33 691.731 M1012.33 688.027 Q1018.14 688.027 1021.2 692.633 Q1024.28 697.217 1024.28 705.967 Q1024.28 714.693 1021.2 719.3 Q1018.14 723.883 1012.33 723.883 Q1006.52 723.883 1003.44 719.3 Q1000.39 714.693 1000.39 705.967 Q1000.39 697.217 1003.44 692.633 Q1006.52 688.027 1012.33 688.027 Z" fill="#000000" fill-rule="nonzero" fill-opacity="1" /><path clip-path="url(#clip930)" d="M1066 704.578 Q1069.35 705.295 1071.23 707.564 Q1073.13 709.832 1073.13 713.166 Q1073.13 718.281 1069.61 721.082 Q1066.09 723.883 1059.61 723.883 Q1057.43 723.883 1055.12 723.443 Q1052.82 723.027 1050.37 722.17 L1050.37 717.656 Q1052.32 718.791 1054.63 719.369 Q1056.94 719.948 1059.47 719.948 Q1063.87 719.948 1066.16 718.212 Q1068.47 716.476 1068.47 713.166 Q1068.47 710.11 1066.32 708.397 Q1064.19 706.661 1060.37 706.661 L1056.34 706.661 L1056.34 702.818 L1060.56 702.818 Q1064.01 702.818 1065.83 701.453 Q1067.66 700.064 1067.66 697.471 Q1067.66 694.809 1065.76 693.397 Q1063.89 691.962 1060.37 691.962 Q1058.45 691.962 1056.25 692.379 Q1054.05 692.795 1051.41 693.675 L1051.41 689.508 Q1054.07 688.768 1056.39 688.397 Q1058.73 688.027 1060.79 688.027 Q1066.11 688.027 1069.21 690.457 Q1072.32 692.865 1072.32 696.985 Q1072.32 699.855 1070.67 701.846 Q1069.03 703.814 1066 704.578 Z" fill="#000000" fill-rule="nonzero" fill-opacity="1" /><path clip-path="url(#clip930)" d="M1091.99 691.731 Q1088.38 691.731 1086.55 695.295 Q1084.75 698.837 1084.75 705.967 Q1084.75 713.073 1086.55 716.638 Q1088.38 720.179 1091.99 720.179 Q1095.63 720.179 1097.43 716.638 Q1099.26 713.073 1099.26 705.967 Q1099.26 698.837 1097.43 695.295 Q1095.63 691.731 1091.99 691.731 M1091.99 688.027 Q1097.8 688.027 1100.86 692.633 Q1103.94 697.217 1103.94 705.967 Q1103.94 714.693 1100.86 719.3 Q1097.8 723.883 1091.99 723.883 Q1086.18 723.883 1083.1 719.3 Q1080.05 714.693 1080.05 705.967 Q1080.05 697.217 1083.1 692.633 Q1086.18 688.027 1091.99 688.027 Z" fill="#000000" fill-rule="nonzero" fill-opacity="1" /><path clip-path="url(#clip930)" d="M1145.05 692.726 L1133.25 711.175 L1145.05 711.175 L1145.05 692.726 M1143.82 688.652 L1149.7 688.652 L1149.7 711.175 L1154.63 711.175 L1154.63 715.064 L1149.7 715.064 L1149.7 723.212 L1145.05 723.212 L1145.05 715.064 L1129.45 715.064 L1129.45 710.55 L1143.82 688.652 Z" fill="#000000" fill-rule="nonzero" fill-opacity="1" /><path clip-path="url(#clip930)" d="M1172.37 691.731 Q1168.76 691.731 1166.93 695.295 Q1165.12 698.837 1165.12 705.967 Q1165.12 713.073 1166.93 716.638 Q1168.76 720.179 1172.37 720.179 Q1176 720.179 1177.81 716.638 Q1179.63 713.073 1179.63 705.967 Q1179.63 698.837 1177.81 695.295 Q1176 691.731 1172.37 691.731 M1172.37 688.027 Q1178.18 688.027 1181.23 692.633 Q1184.31 697.217 1184.31 705.967 Q1184.31 714.693 1181.23 719.3 Q1178.18 723.883 1172.37 723.883 Q1166.56 723.883 1163.48 719.3 Q1160.42 714.693 1160.42 705.967 Q1160.42 697.217 1163.48 692.633 Q1166.56 688.027 1172.37 688.027 Z" fill="#000000" fill-rule="nonzero" fill-opacity="1" /><path clip-path="url(#clip930)" d="M1211.31 688.652 L1229.66 688.652 L1229.66 692.587 L1215.59 692.587 L1215.59 701.059 Q1216.61 700.712 1217.63 700.55 Q1218.64 700.365 1219.66 700.365 Q1225.45 700.365 1228.83 703.536 Q1232.21 706.707 1232.21 712.124 Q1232.21 717.703 1228.74 720.804 Q1225.26 723.883 1218.95 723.883 Q1216.77 723.883 1214.5 723.513 Q1212.26 723.142 1209.85 722.402 L1209.85 717.703 Q1211.93 718.837 1214.15 719.392 Q1216.38 719.948 1218.85 719.948 Q1222.86 719.948 1225.2 717.842 Q1227.53 715.735 1227.53 712.124 Q1227.53 708.513 1225.2 706.406 Q1222.86 704.3 1218.85 704.3 Q1216.98 704.3 1215.1 704.717 Q1213.25 705.133 1211.31 706.013 L1211.31 688.652 Z" fill="#000000" fill-rule="nonzero" fill-opacity="1" /><path clip-path="url(#clip930)" d="M1251.42 691.731 Q1247.81 691.731 1245.98 695.295 Q1244.18 698.837 1244.18 705.967 Q1244.18 713.073 1245.98 716.638 Q1247.81 720.179 1251.42 720.179 Q1255.06 720.179 1256.86 716.638 Q1258.69 713.073 1258.69 705.967 Q1258.69 698.837 1256.86 695.295 Q1255.06 691.731 1251.42 691.731 M1251.42 688.027 Q1257.23 688.027 1260.29 692.633 Q1263.37 697.217 1263.37 705.967 Q1263.37 714.693 1260.29 719.3 Q1257.23 723.883 1251.42 723.883 Q1245.61 723.883 1242.53 719.3 Q1239.48 714.693 1239.48 705.967 Q1239.48 697.217 1242.53 692.633 Q1245.61 688.027 1251.42 688.027 Z" fill="#000000" fill-rule="nonzero" fill-opacity="1" /><path clip-path="url(#clip930)" d="M1059.45 757.106 L1059.45 767.228 L1071.51 767.228 L1071.51 771.779 L1059.45 771.779 L1059.45 791.131 Q1059.45 795.492 1060.62 796.733 Q1061.83 797.974 1065.49 797.974 L1071.51 797.974 L1071.51 802.876 L1065.49 802.876 Q1058.71 802.876 1056.14 800.361 Q1053.56 797.815 1053.56 791.131 L1053.56 771.779 L1049.26 771.779 L1049.26 767.228 L1053.56 767.228 L1053.56 757.106 L1059.45 757.106 Z" fill="#000000" fill-rule="nonzero" fill-opacity="1" /><polyline clip-path="url(#clip930)" style="stroke:#000000; stroke-linecap:round; stroke-linejoin:round; stroke-width:4; stroke-opacity:1; fill:none" points="824.628,664.012 824.628,47.2441 "/>
<polyline clip-path="url(#clip930)" style="stroke:#000000; stroke-linecap:round; stroke-linejoin:round; stroke-width:4; stroke-opacity:1; fill:none" points="824.628,561.103 843.525,561.103 "/>
<polyline clip-path="url(#clip930)" style="stroke:#000000; stroke-linecap:round; stroke-linejoin:round; stroke-width:4; stroke-opacity:1; fill:none" points="824.628,390.197 843.525,390.197 "/>
<polyline clip-path="url(#clip930)" style="stroke:#000000; stroke-linecap:round; stroke-linejoin:round; stroke-width:4; stroke-opacity:1; fill:none" points="824.628,219.291 843.525,219.291 "/>
<polyline clip-path="url(#clip930)" style="stroke:#000000; stroke-linecap:round; stroke-linejoin:round; stroke-width:4; stroke-opacity:1; fill:none" points="824.628,48.3855 843.525,48.3855 "/>
<path clip-path="url(#clip930)" d="M746.549 574.448 L762.868 574.448 L762.868 578.383 L740.924 578.383 L740.924 574.448 Q743.586 571.693 748.169 567.064 Q752.776 562.411 753.956 561.068 Q756.202 558.545 757.081 556.809 Q757.984 555.05 757.984 553.36 Q757.984 550.606 756.04 548.869 Q754.118 547.133 751.017 547.133 Q748.818 547.133 746.364 547.897 Q743.933 548.661 741.156 550.212 L741.156 545.49 Q743.98 544.356 746.433 543.777 Q748.887 543.198 750.924 543.198 Q756.294 543.198 759.489 545.883 Q762.683 548.569 762.683 553.059 Q762.683 555.189 761.873 557.11 Q761.086 559.008 758.98 561.601 Q758.401 562.272 755.299 565.49 Q752.197 568.684 746.549 574.448 Z" fill="#000000" fill-rule="nonzero" fill-opacity="1" /><path clip-path="url(#clip930)" d="M782.683 546.902 Q779.072 546.902 777.243 550.467 Q775.438 554.008 775.438 561.138 Q775.438 568.244 777.243 571.809 Q779.072 575.351 782.683 575.351 Q786.317 575.351 788.123 571.809 Q789.952 568.244 789.952 561.138 Q789.952 554.008 788.123 550.467 Q786.317 546.902 782.683 546.902 M782.683 543.198 Q788.493 543.198 791.549 547.805 Q794.628 552.388 794.628 561.138 Q794.628 569.865 791.549 574.471 Q788.493 579.054 782.683 579.054 Q776.873 579.054 773.794 574.471 Q770.739 569.865 770.739 561.138 Q770.739 552.388 773.794 547.805 Q776.873 543.198 782.683 543.198 Z" fill="#000000" fill-rule="nonzero" fill-opacity="1" /><path clip-path="url(#clip930)" d="M756.688 388.843 Q760.044 389.561 761.919 391.829 Q763.818 394.098 763.818 397.431 Q763.818 402.547 760.299 405.348 Q756.781 408.149 750.299 408.149 Q748.123 408.149 745.808 407.709 Q743.517 407.292 741.063 406.436 L741.063 401.922 Q743.007 403.056 745.322 403.635 Q747.637 404.213 750.16 404.213 Q754.558 404.213 756.85 402.477 Q759.165 400.741 759.165 397.431 Q759.165 394.376 757.012 392.663 Q754.882 390.926 751.063 390.926 L747.035 390.926 L747.035 387.084 L751.248 387.084 Q754.697 387.084 756.526 385.718 Q758.355 384.329 758.355 381.737 Q758.355 379.075 756.456 377.663 Q754.581 376.227 751.063 376.227 Q749.142 376.227 746.943 376.644 Q744.744 377.061 742.105 377.94 L742.105 373.774 Q744.767 373.033 747.081 372.663 Q749.419 372.292 751.48 372.292 Q756.804 372.292 759.905 374.723 Q763.007 377.13 763.007 381.251 Q763.007 384.121 761.364 386.112 Q759.72 388.079 756.688 388.843 Z" fill="#000000" fill-rule="nonzero" fill-opacity="1" /><path clip-path="url(#clip930)" d="M782.683 375.996 Q779.072 375.996 777.243 379.561 Q775.438 383.102 775.438 390.232 Q775.438 397.338 777.243 400.903 Q779.072 404.445 782.683 404.445 Q786.317 404.445 788.123 400.903 Q789.952 397.338 789.952 390.232 Q789.952 383.102 788.123 379.561 Q786.317 375.996 782.683 375.996 M782.683 372.292 Q788.493 372.292 791.549 376.899 Q794.628 381.482 794.628 390.232 Q794.628 398.959 791.549 403.565 Q788.493 408.149 782.683 408.149 Q776.873 408.149 773.794 403.565 Q770.739 398.959 770.739 390.232 Q770.739 381.482 773.794 376.899 Q776.873 372.292 782.683 372.292 Z" fill="#000000" fill-rule="nonzero" fill-opacity="1" /><path clip-path="url(#clip930)" d="M755.368 206.085 L743.563 224.534 L755.368 224.534 L755.368 206.085 M754.142 202.011 L760.021 202.011 L760.021 224.534 L764.952 224.534 L764.952 228.423 L760.021 228.423 L760.021 236.571 L755.368 236.571 L755.368 228.423 L739.767 228.423 L739.767 223.909 L754.142 202.011 Z" fill="#000000" fill-rule="nonzero" fill-opacity="1" /><path clip-path="url(#clip930)" d="M782.683 205.09 Q779.072 205.09 777.243 208.655 Q775.438 212.197 775.438 219.326 Q775.438 226.433 777.243 229.997 Q779.072 233.539 782.683 233.539 Q786.317 233.539 788.123 229.997 Q789.952 226.433 789.952 219.326 Q789.952 212.197 788.123 208.655 Q786.317 205.09 782.683 205.09 M782.683 201.386 Q788.493 201.386 791.549 205.993 Q794.628 210.576 794.628 219.326 Q794.628 228.053 791.549 232.659 Q788.493 237.243 782.683 237.243 Q776.873 237.243 773.794 232.659 Q770.739 228.053 770.739 219.326 Q770.739 210.576 773.794 205.993 Q776.873 201.386 782.683 201.386 Z" fill="#000000" fill-rule="nonzero" fill-opacity="1" /><path clip-path="url(#clip930)" d="M742.568 31.1055 L760.924 31.1055 L760.924 35.0407 L746.85 35.0407 L746.85 43.5128 Q747.869 43.1656 748.887 43.0036 Q749.906 42.8184 750.924 42.8184 Q756.711 42.8184 760.091 45.9897 Q763.47 49.161 763.47 54.5776 Q763.47 60.1563 759.998 63.2581 Q756.526 66.3368 750.206 66.3368 Q748.031 66.3368 745.762 65.9664 Q743.517 65.5961 741.109 64.8553 L741.109 60.1563 Q743.193 61.2905 745.415 61.8461 Q747.637 62.4016 750.114 62.4016 Q754.118 62.4016 756.456 60.2952 Q758.794 58.1887 758.794 54.5776 Q758.794 50.9665 756.456 48.86 Q754.118 46.7536 750.114 46.7536 Q748.239 46.7536 746.364 47.1702 Q744.512 47.5869 742.568 48.4665 L742.568 31.1055 Z" fill="#000000" fill-rule="nonzero" fill-opacity="1" /><path clip-path="url(#clip930)" d="M782.683 34.1842 Q779.072 34.1842 777.243 37.749 Q775.438 41.2906 775.438 48.4202 Q775.438 55.5267 777.243 59.0915 Q779.072 62.6331 782.683 62.6331 Q786.317 62.6331 788.123 59.0915 Q789.952 55.5267 789.952 48.4202 Q789.952 41.2906 788.123 37.749 Q786.317 34.1842 782.683 34.1842 M782.683 30.4805 Q788.493 30.4805 791.549 35.087 Q794.628 39.6703 794.628 48.4202 Q794.628 57.147 791.549 61.7535 Q788.493 66.3368 782.683 66.3368 Q776.873 66.3368 773.794 61.7535 Q770.739 57.147 770.739 48.4202 Q770.739 39.6703 773.794 35.087 Q776.873 30.4805 782.683 30.4805 Z" fill="#000000" fill-rule="nonzero" fill-opacity="1" /><polyline clip-path="url(#clip933)" style="stroke:#009af9; stroke-linecap:round; stroke-linejoin:round; stroke-width:4; stroke-opacity:1; fill:none" points="837.972,646.556 840.268,641.634 842.565,636.712 856.013,607.884 869.461,579.056 872.589,572.35 875.717,565.645 877.281,562.292 878.845,558.94 880.409,555.587 881.973,552.234 884.07,552.17 886.166,552.17 888.262,552.17 890.359,552.17 894.551,552.17 898.744,552.17 912.602,552.17 925.489,552.17 941.666,552.17 956.177,552.17 972.787,552.17 985.202,552.17 1001.08,552.17 1015.58,552.17 1023.82,552.17 1032.07,552.17 1038.61,552.17 1045.15,552.17 1049.21,552.17 1053.27,552.17 1054.29,552.17 1055.3,552.17 1056.32,550.193 1057.33,548.017 1059.36,543.664 1061.39,539.31 1067.62,525.975 1073.84,512.64 1091.38,475.038 1104.49,446.939 1119.39,414.984 1134.15,383.338 1150.4,348.521 1162.8,321.927 1178.46,288.368 1192.94,257.329 1207.87,225.317 1223.01,192.87 1238.81,158.989 1251.26,132.3 1279.62,71.5192 1282.8,64.6998 "/>
<path clip-path="url(#clip930)" d="M840.345 171.483 L939.602 171.483 L939.602 67.803 L840.345 67.803  Z" fill="#ffffff" fill-rule="evenodd" fill-opacity="1"/>
<polyline clip-path="url(#clip930)" style="stroke:#000000; stroke-linecap:round; stroke-linejoin:round; stroke-width:4; stroke-opacity:1; fill:none" points="840.345,171.483 939.602,171.483 939.602,67.803 840.345,67.803 840.345,171.483 "/>
<polyline clip-path="url(#clip930)" style="stroke:#009af9; stroke-linecap:round; stroke-linejoin:round; stroke-width:4; stroke-opacity:1; fill:none" points="845.584,119.643 877.018,119.643 "/>
<path clip-path="url(#clip930)" d="M906.91 110.997 L897.535 123.613 L907.396 136.923 L902.373 136.923 L894.827 126.738 L887.28 136.923 L882.257 136.923 L892.327 123.358 L883.114 110.997 L888.137 110.997 L895.012 120.233 L901.887 110.997 L906.91 110.997 Z" fill="#000000" fill-rule="nonzero" fill-opacity="1" /><path clip-path="url(#clip930)" d="M918.044 132.988 L934.363 132.988 L934.363 136.923 L912.419 136.923 L912.419 132.988 Q915.081 130.233 919.664 125.604 Q924.271 120.951 925.451 119.608 Q927.697 117.085 928.576 115.349 Q929.479 113.59 929.479 111.9 Q929.479 109.145 927.535 107.409 Q925.613 105.673 922.512 105.673 Q920.313 105.673 917.859 106.437 Q915.428 107.201 912.651 108.752 L912.651 104.03 Q915.475 102.895 917.928 102.317 Q920.382 101.738 922.419 101.738 Q927.789 101.738 930.984 104.423 Q934.178 107.108 934.178 111.599 Q934.178 113.729 933.368 115.65 Q932.581 117.548 930.475 120.141 Q929.896 120.812 926.794 124.03 Q923.692 127.224 918.044 132.988 Z" fill="#000000" fill-rule="nonzero" fill-opacity="1" /><path clip-path="url(#clip930)" d="M1481.24 664.012 L1952.76 664.012 L1952.76 47.2441 L1481.24 47.2441  Z" fill="#ffffff" fill-rule="evenodd" fill-opacity="1"/>
<defs>
  <clipPath id="clip934">
    <rect x="1481" y="47" width="473" height="618"/>
  </clipPath>
</defs>
<polyline clip-path="url(#clip934)" style="stroke:#000000; stroke-linecap:round; stroke-linejoin:round; stroke-width:2; stroke-opacity:0.1; fill:none" points="1494.59,664.012 1494.59,47.2441 "/>
<polyline clip-path="url(#clip934)" style="stroke:#000000; stroke-linecap:round; stroke-linejoin:round; stroke-width:2; stroke-opacity:0.1; fill:none" points="1574.31,664.012 1574.31,47.2441 "/>
<polyline clip-path="url(#clip934)" style="stroke:#000000; stroke-linecap:round; stroke-linejoin:round; stroke-width:2; stroke-opacity:0.1; fill:none" points="1654.04,664.012 1654.04,47.2441 "/>
<polyline clip-path="url(#clip934)" style="stroke:#000000; stroke-linecap:round; stroke-linejoin:round; stroke-width:2; stroke-opacity:0.1; fill:none" points="1733.77,664.012 1733.77,47.2441 "/>
<polyline clip-path="url(#clip934)" style="stroke:#000000; stroke-linecap:round; stroke-linejoin:round; stroke-width:2; stroke-opacity:0.1; fill:none" points="1813.49,664.012 1813.49,47.2441 "/>
<polyline clip-path="url(#clip934)" style="stroke:#000000; stroke-linecap:round; stroke-linejoin:round; stroke-width:2; stroke-opacity:0.1; fill:none" points="1893.22,664.012 1893.22,47.2441 "/>
<polyline clip-path="url(#clip934)" style="stroke:#000000; stroke-linecap:round; stroke-linejoin:round; stroke-width:2; stroke-opacity:0.1; fill:none" points="1481.24,646.556 1952.76,646.556 "/>
<polyline clip-path="url(#clip934)" style="stroke:#000000; stroke-linecap:round; stroke-linejoin:round; stroke-width:2; stroke-opacity:0.1; fill:none" points="1481.24,530.185 1952.76,530.185 "/>
<polyline clip-path="url(#clip934)" style="stroke:#000000; stroke-linecap:round; stroke-linejoin:round; stroke-width:2; stroke-opacity:0.1; fill:none" points="1481.24,413.814 1952.76,413.814 "/>
<polyline clip-path="url(#clip934)" style="stroke:#000000; stroke-linecap:round; stroke-linejoin:round; stroke-width:2; stroke-opacity:0.1; fill:none" points="1481.24,297.442 1952.76,297.442 "/>
<polyline clip-path="url(#clip934)" style="stroke:#000000; stroke-linecap:round; stroke-linejoin:round; stroke-width:2; stroke-opacity:0.1; fill:none" points="1481.24,181.071 1952.76,181.071 "/>
<polyline clip-path="url(#clip934)" style="stroke:#000000; stroke-linecap:round; stroke-linejoin:round; stroke-width:2; stroke-opacity:0.1; fill:none" points="1481.24,64.6998 1952.76,64.6998 "/>
<polyline clip-path="url(#clip930)" style="stroke:#000000; stroke-linecap:round; stroke-linejoin:round; stroke-width:4; stroke-opacity:1; fill:none" points="1481.24,664.012 1952.76,664.012 "/>
<polyline clip-path="url(#clip930)" style="stroke:#000000; stroke-linecap:round; stroke-linejoin:round; stroke-width:4; stroke-opacity:1; fill:none" points="1494.59,664.012 1494.59,645.114 "/>
<polyline clip-path="url(#clip930)" style="stroke:#000000; stroke-linecap:round; stroke-linejoin:round; stroke-width:4; stroke-opacity:1; fill:none" points="1574.31,664.012 1574.31,645.114 "/>
<polyline clip-path="url(#clip930)" style="stroke:#000000; stroke-linecap:round; stroke-linejoin:round; stroke-width:4; stroke-opacity:1; fill:none" points="1654.04,664.012 1654.04,645.114 "/>
<polyline clip-path="url(#clip930)" style="stroke:#000000; stroke-linecap:round; stroke-linejoin:round; stroke-width:4; stroke-opacity:1; fill:none" points="1733.77,664.012 1733.77,645.114 "/>
<polyline clip-path="url(#clip930)" style="stroke:#000000; stroke-linecap:round; stroke-linejoin:round; stroke-width:4; stroke-opacity:1; fill:none" points="1813.49,664.012 1813.49,645.114 "/>
<polyline clip-path="url(#clip930)" style="stroke:#000000; stroke-linecap:round; stroke-linejoin:round; stroke-width:4; stroke-opacity:1; fill:none" points="1893.22,664.012 1893.22,645.114 "/>
<path clip-path="url(#clip930)" d="M1494.59 691.731 Q1490.97 691.731 1489.15 695.295 Q1487.34 698.837 1487.34 705.967 Q1487.34 713.073 1489.15 716.638 Q1490.97 720.179 1494.59 720.179 Q1498.22 720.179 1500.02 716.638 Q1501.85 713.073 1501.85 705.967 Q1501.85 698.837 1500.02 695.295 Q1498.22 691.731 1494.59 691.731 M1494.59 688.027 Q1500.4 688.027 1503.45 692.633 Q1506.53 697.217 1506.53 705.967 Q1506.53 714.693 1503.45 719.3 Q1500.4 723.883 1494.59 723.883 Q1488.77 723.883 1485.7 719.3 Q1482.64 714.693 1482.64 705.967 Q1482.64 697.217 1485.7 692.633 Q1488.77 688.027 1494.59 688.027 Z" fill="#000000" fill-rule="nonzero" fill-opacity="1" /><path clip-path="url(#clip930)" d="M1549 719.277 L1556.64 719.277 L1556.64 692.911 L1548.33 694.578 L1548.33 690.319 L1556.59 688.652 L1561.27 688.652 L1561.27 719.277 L1568.91 719.277 L1568.91 723.212 L1549 723.212 L1549 719.277 Z" fill="#000000" fill-rule="nonzero" fill-opacity="1" /><path clip-path="url(#clip930)" d="M1588.35 691.731 Q1584.74 691.731 1582.91 695.295 Q1581.11 698.837 1581.11 705.967 Q1581.11 713.073 1582.91 716.638 Q1584.74 720.179 1588.35 720.179 Q1591.99 720.179 1593.79 716.638 Q1595.62 713.073 1595.62 705.967 Q1595.62 698.837 1593.79 695.295 Q1591.99 691.731 1588.35 691.731 M1588.35 688.027 Q1594.16 688.027 1597.22 692.633 Q1600.3 697.217 1600.3 705.967 Q1600.3 714.693 1597.22 719.3 Q1594.16 723.883 1588.35 723.883 Q1582.54 723.883 1579.46 719.3 Q1576.41 714.693 1576.41 705.967 Q1576.41 697.217 1579.46 692.633 Q1582.54 688.027 1588.35 688.027 Z" fill="#000000" fill-rule="nonzero" fill-opacity="1" /><path clip-path="url(#clip930)" d="M1632.81 719.277 L1649.13 719.277 L1649.13 723.212 L1627.19 723.212 L1627.19 719.277 Q1629.85 716.522 1634.43 711.892 Q1639.04 707.24 1640.22 705.897 Q1642.46 703.374 1643.34 701.638 Q1644.25 699.879 1644.25 698.189 Q1644.25 695.434 1642.3 693.698 Q1640.38 691.962 1637.28 691.962 Q1635.08 691.962 1632.63 692.726 Q1630.2 693.49 1627.42 695.041 L1627.42 690.319 Q1630.24 689.184 1632.7 688.606 Q1635.15 688.027 1637.19 688.027 Q1642.56 688.027 1645.75 690.712 Q1648.95 693.397 1648.95 697.888 Q1648.95 700.018 1648.14 701.939 Q1647.35 703.837 1645.24 706.43 Q1644.66 707.101 1641.56 710.318 Q1638.46 713.513 1632.81 719.277 Z" fill="#000000" fill-rule="nonzero" fill-opacity="1" /><path clip-path="url(#clip930)" d="M1668.95 691.731 Q1665.34 691.731 1663.51 695.295 Q1661.7 698.837 1661.7 705.967 Q1661.7 713.073 1663.51 716.638 Q1665.34 720.179 1668.95 720.179 Q1672.58 720.179 1674.39 716.638 Q1676.21 713.073 1676.21 705.967 Q1676.21 698.837 1674.39 695.295 Q1672.58 691.731 1668.95 691.731 M1668.95 688.027 Q1674.76 688.027 1677.81 692.633 Q1680.89 697.217 1680.89 705.967 Q1680.89 714.693 1677.81 719.3 Q1674.76 723.883 1668.95 723.883 Q1663.14 723.883 1660.06 719.3 Q1657 714.693 1657 705.967 Q1657 697.217 1660.06 692.633 Q1663.14 688.027 1668.95 688.027 Z" fill="#000000" fill-rule="nonzero" fill-opacity="1" /><path clip-path="url(#clip930)" d="M1722.61 704.578 Q1725.97 705.295 1727.84 707.564 Q1729.74 709.832 1729.74 713.166 Q1729.74 718.281 1726.22 721.082 Q1722.7 723.883 1716.22 723.883 Q1714.04 723.883 1711.73 723.443 Q1709.44 723.027 1706.98 722.17 L1706.98 717.656 Q1708.93 718.791 1711.24 719.369 Q1713.56 719.948 1716.08 719.948 Q1720.48 719.948 1722.77 718.212 Q1725.09 716.476 1725.09 713.166 Q1725.09 710.11 1722.93 708.397 Q1720.8 706.661 1716.98 706.661 L1712.96 706.661 L1712.96 702.818 L1717.17 702.818 Q1720.62 702.818 1722.45 701.453 Q1724.28 700.064 1724.28 697.471 Q1724.28 694.809 1722.38 693.397 Q1720.5 691.962 1716.98 691.962 Q1715.06 691.962 1712.86 692.379 Q1710.66 692.795 1708.03 693.675 L1708.03 689.508 Q1710.69 688.768 1713 688.397 Q1715.34 688.027 1717.4 688.027 Q1722.72 688.027 1725.83 690.457 Q1728.93 692.865 1728.93 696.985 Q1728.93 699.855 1727.28 701.846 Q1725.64 703.814 1722.61 704.578 Z" fill="#000000" fill-rule="nonzero" fill-opacity="1" /><path clip-path="url(#clip930)" d="M1748.6 691.731 Q1744.99 691.731 1743.16 695.295 Q1741.36 698.837 1741.36 705.967 Q1741.36 713.073 1743.16 716.638 Q1744.99 720.179 1748.6 720.179 Q1752.24 720.179 1754.04 716.638 Q1755.87 713.073 1755.87 705.967 Q1755.87 698.837 1754.04 695.295 Q1752.24 691.731 1748.6 691.731 M1748.6 688.027 Q1754.41 688.027 1757.47 692.633 Q1760.55 697.217 1760.55 705.967 Q1760.55 714.693 1757.47 719.3 Q1754.41 723.883 1748.6 723.883 Q1742.79 723.883 1739.71 719.3 Q1736.66 714.693 1736.66 705.967 Q1736.66 697.217 1739.71 692.633 Q1742.79 688.027 1748.6 688.027 Z" fill="#000000" fill-rule="nonzero" fill-opacity="1" /><path clip-path="url(#clip930)" d="M1801.66 692.726 L1789.86 711.175 L1801.66 711.175 L1801.66 692.726 M1800.44 688.652 L1806.32 688.652 L1806.32 711.175 L1811.25 711.175 L1811.25 715.064 L1806.32 715.064 L1806.32 723.212 L1801.66 723.212 L1801.66 715.064 L1786.06 715.064 L1786.06 710.55 L1800.44 688.652 Z" fill="#000000" fill-rule="nonzero" fill-opacity="1" /><path clip-path="url(#clip930)" d="M1828.98 691.731 Q1825.37 691.731 1823.54 695.295 Q1821.73 698.837 1821.73 705.967 Q1821.73 713.073 1823.54 716.638 Q1825.37 720.179 1828.98 720.179 Q1832.61 720.179 1834.42 716.638 Q1836.25 713.073 1836.25 705.967 Q1836.25 698.837 1834.42 695.295 Q1832.61 691.731 1828.98 691.731 M1828.98 688.027 Q1834.79 688.027 1837.84 692.633 Q1840.92 697.217 1840.92 705.967 Q1840.92 714.693 1837.84 719.3 Q1834.79 723.883 1828.98 723.883 Q1823.17 723.883 1820.09 719.3 Q1817.03 714.693 1817.03 705.967 Q1817.03 697.217 1820.09 692.633 Q1823.17 688.027 1828.98 688.027 Z" fill="#000000" fill-rule="nonzero" fill-opacity="1" /><path clip-path="url(#clip930)" d="M1867.92 688.652 L1886.28 688.652 L1886.28 692.587 L1872.2 692.587 L1872.2 701.059 Q1873.22 700.712 1874.24 700.55 Q1875.26 700.365 1876.28 700.365 Q1882.06 700.365 1885.44 703.536 Q1888.82 706.707 1888.82 712.124 Q1888.82 717.703 1885.35 720.804 Q1881.88 723.883 1875.56 723.883 Q1873.38 723.883 1871.11 723.513 Q1868.87 723.142 1866.46 722.402 L1866.46 717.703 Q1868.54 718.837 1870.77 719.392 Q1872.99 719.948 1875.47 719.948 Q1879.47 719.948 1881.81 717.842 Q1884.15 715.735 1884.15 712.124 Q1884.15 708.513 1881.81 706.406 Q1879.47 704.3 1875.47 704.3 Q1873.59 704.3 1871.72 704.717 Q1869.86 705.133 1867.92 706.013 L1867.92 688.652 Z" fill="#000000" fill-rule="nonzero" fill-opacity="1" /><path clip-path="url(#clip930)" d="M1908.03 691.731 Q1904.42 691.731 1902.59 695.295 Q1900.79 698.837 1900.79 705.967 Q1900.79 713.073 1902.59 716.638 Q1904.42 720.179 1908.03 720.179 Q1911.67 720.179 1913.47 716.638 Q1915.3 713.073 1915.3 705.967 Q1915.3 698.837 1913.47 695.295 Q1911.67 691.731 1908.03 691.731 M1908.03 688.027 Q1913.84 688.027 1916.9 692.633 Q1919.98 697.217 1919.98 705.967 Q1919.98 714.693 1916.9 719.3 Q1913.84 723.883 1908.03 723.883 Q1902.22 723.883 1899.15 719.3 Q1896.09 714.693 1896.09 705.967 Q1896.09 697.217 1899.15 692.633 Q1902.22 688.027 1908.03 688.027 Z" fill="#000000" fill-rule="nonzero" fill-opacity="1" /><path clip-path="url(#clip930)" d="M1716.06 757.106 L1716.06 767.228 L1728.12 767.228 L1728.12 771.779 L1716.06 771.779 L1716.06 791.131 Q1716.06 795.492 1717.24 796.733 Q1718.45 797.974 1722.11 797.974 L1728.12 797.974 L1728.12 802.876 L1722.11 802.876 Q1715.33 802.876 1712.75 800.361 Q1710.17 797.815 1710.17 791.131 L1710.17 771.779 L1705.87 771.779 L1705.87 767.228 L1710.17 767.228 L1710.17 757.106 L1716.06 757.106 Z" fill="#000000" fill-rule="nonzero" fill-opacity="1" /><polyline clip-path="url(#clip930)" style="stroke:#000000; stroke-linecap:round; stroke-linejoin:round; stroke-width:4; stroke-opacity:1; fill:none" points="1481.24,664.012 1481.24,47.2441 "/>
<polyline clip-path="url(#clip930)" style="stroke:#000000; stroke-linecap:round; stroke-linejoin:round; stroke-width:4; stroke-opacity:1; fill:none" points="1481.24,646.556 1500.14,646.556 "/>
<polyline clip-path="url(#clip930)" style="stroke:#000000; stroke-linecap:round; stroke-linejoin:round; stroke-width:4; stroke-opacity:1; fill:none" points="1481.24,530.185 1500.14,530.185 "/>
<polyline clip-path="url(#clip930)" style="stroke:#000000; stroke-linecap:round; stroke-linejoin:round; stroke-width:4; stroke-opacity:1; fill:none" points="1481.24,413.814 1500.14,413.814 "/>
<polyline clip-path="url(#clip930)" style="stroke:#000000; stroke-linecap:round; stroke-linejoin:round; stroke-width:4; stroke-opacity:1; fill:none" points="1481.24,297.442 1500.14,297.442 "/>
<polyline clip-path="url(#clip930)" style="stroke:#000000; stroke-linecap:round; stroke-linejoin:round; stroke-width:4; stroke-opacity:1; fill:none" points="1481.24,181.071 1500.14,181.071 "/>
<polyline clip-path="url(#clip930)" style="stroke:#000000; stroke-linecap:round; stroke-linejoin:round; stroke-width:4; stroke-opacity:1; fill:none" points="1481.24,64.6998 1500.14,64.6998 "/>
<path clip-path="url(#clip930)" d="M1439.3 632.355 Q1435.68 632.355 1433.86 635.92 Q1432.05 639.461 1432.05 646.591 Q1432.05 653.697 1433.86 657.262 Q1435.68 660.804 1439.3 660.804 Q1442.93 660.804 1444.74 657.262 Q1446.56 653.697 1446.56 646.591 Q1446.56 639.461 1444.74 635.92 Q1442.93 632.355 1439.3 632.355 M1439.3 628.651 Q1445.11 628.651 1448.16 633.258 Q1451.24 637.841 1451.24 646.591 Q1451.24 655.318 1448.16 659.924 Q1445.11 664.507 1439.3 664.507 Q1433.49 664.507 1430.41 659.924 Q1427.35 655.318 1427.35 646.591 Q1427.35 637.841 1430.41 633.258 Q1433.49 628.651 1439.3 628.651 Z" fill="#000000" fill-rule="nonzero" fill-opacity="1" /><path clip-path="url(#clip930)" d="M1399.94 543.53 L1407.58 543.53 L1407.58 517.164 L1399.27 518.831 L1399.27 514.572 L1407.54 512.905 L1412.21 512.905 L1412.21 543.53 L1419.85 543.53 L1419.85 547.465 L1399.94 547.465 L1399.94 543.53 Z" fill="#000000" fill-rule="nonzero" fill-opacity="1" /><path clip-path="url(#clip930)" d="M1439.3 515.984 Q1435.68 515.984 1433.86 519.548 Q1432.05 523.09 1432.05 530.22 Q1432.05 537.326 1433.86 540.891 Q1435.68 544.432 1439.3 544.432 Q1442.93 544.432 1444.74 540.891 Q1446.56 537.326 1446.56 530.22 Q1446.56 523.09 1444.74 519.548 Q1442.93 515.984 1439.3 515.984 M1439.3 512.28 Q1445.11 512.28 1448.16 516.886 Q1451.24 521.47 1451.24 530.22 Q1451.24 538.946 1448.16 543.553 Q1445.11 548.136 1439.3 548.136 Q1433.49 548.136 1430.41 543.553 Q1427.35 538.946 1427.35 530.22 Q1427.35 521.47 1430.41 516.886 Q1433.49 512.28 1439.3 512.28 Z" fill="#000000" fill-rule="nonzero" fill-opacity="1" /><path clip-path="url(#clip930)" d="M1403.16 427.158 L1419.48 427.158 L1419.48 431.094 L1397.54 431.094 L1397.54 427.158 Q1400.2 424.404 1404.78 419.774 Q1409.39 415.121 1410.57 413.779 Q1412.81 411.256 1413.69 409.52 Q1414.6 407.76 1414.6 406.071 Q1414.6 403.316 1412.65 401.58 Q1410.73 399.844 1407.63 399.844 Q1405.43 399.844 1402.98 400.608 Q1400.55 401.372 1397.77 402.922 L1397.77 398.2 Q1400.59 397.066 1403.05 396.487 Q1405.5 395.909 1407.54 395.909 Q1412.91 395.909 1416.1 398.594 Q1419.3 401.279 1419.3 405.77 Q1419.3 407.899 1418.49 409.821 Q1417.7 411.719 1415.59 414.311 Q1415.01 414.983 1411.91 418.2 Q1408.81 421.395 1403.16 427.158 Z" fill="#000000" fill-rule="nonzero" fill-opacity="1" /><path clip-path="url(#clip930)" d="M1439.3 399.612 Q1435.68 399.612 1433.86 403.177 Q1432.05 406.719 1432.05 413.848 Q1432.05 420.955 1433.86 424.52 Q1435.68 428.061 1439.3 428.061 Q1442.93 428.061 1444.74 424.52 Q1446.56 420.955 1446.56 413.848 Q1446.56 406.719 1444.74 403.177 Q1442.93 399.612 1439.3 399.612 M1439.3 395.909 Q1445.11 395.909 1448.16 400.515 Q1451.24 405.098 1451.24 413.848 Q1451.24 422.575 1448.16 427.182 Q1445.11 431.765 1439.3 431.765 Q1433.49 431.765 1430.41 427.182 Q1427.35 422.575 1427.35 413.848 Q1427.35 405.098 1430.41 400.515 Q1433.49 395.909 1439.3 395.909 Z" fill="#000000" fill-rule="nonzero" fill-opacity="1" /><path clip-path="url(#clip930)" d="M1413.3 296.088 Q1416.66 296.806 1418.53 299.074 Q1420.43 301.343 1420.43 304.676 Q1420.43 309.792 1416.91 312.593 Q1413.39 315.394 1406.91 315.394 Q1404.74 315.394 1402.42 314.954 Q1400.13 314.537 1397.68 313.681 L1397.68 309.167 Q1399.62 310.301 1401.93 310.88 Q1404.25 311.458 1406.77 311.458 Q1411.17 311.458 1413.46 309.722 Q1415.78 307.986 1415.78 304.676 Q1415.78 301.621 1413.62 299.908 Q1411.5 298.171 1407.68 298.171 L1403.65 298.171 L1403.65 294.329 L1407.86 294.329 Q1411.31 294.329 1413.14 292.963 Q1414.97 291.574 1414.97 288.982 Q1414.97 286.32 1413.07 284.908 Q1411.19 283.472 1407.68 283.472 Q1405.75 283.472 1403.56 283.889 Q1401.36 284.306 1398.72 285.185 L1398.72 281.019 Q1401.38 280.278 1403.69 279.908 Q1406.03 279.537 1408.09 279.537 Q1413.42 279.537 1416.52 281.968 Q1419.62 284.375 1419.62 288.496 Q1419.62 291.366 1417.98 293.357 Q1416.33 295.324 1413.3 296.088 Z" fill="#000000" fill-rule="nonzero" fill-opacity="1" /><path clip-path="url(#clip930)" d="M1439.3 283.241 Q1435.68 283.241 1433.86 286.806 Q1432.05 290.347 1432.05 297.477 Q1432.05 304.583 1433.86 308.148 Q1435.68 311.69 1439.3 311.69 Q1442.93 311.69 1444.74 308.148 Q1446.56 304.583 1446.56 297.477 Q1446.56 290.347 1444.74 286.806 Q1442.93 283.241 1439.3 283.241 M1439.3 279.537 Q1445.11 279.537 1448.16 284.144 Q1451.24 288.727 1451.24 297.477 Q1451.24 306.204 1448.16 310.81 Q1445.11 315.394 1439.3 315.394 Q1433.49 315.394 1430.41 310.81 Q1427.35 306.204 1427.35 297.477 Q1427.35 288.727 1430.41 284.144 Q1433.49 279.537 1439.3 279.537 Z" fill="#000000" fill-rule="nonzero" fill-opacity="1" /><path clip-path="url(#clip930)" d="M1411.98 167.865 L1400.18 186.314 L1411.98 186.314 L1411.98 167.865 M1410.75 163.791 L1416.63 163.791 L1416.63 186.314 L1421.56 186.314 L1421.56 190.203 L1416.63 190.203 L1416.63 198.351 L1411.98 198.351 L1411.98 190.203 L1396.38 190.203 L1396.38 185.689 L1410.75 163.791 Z" fill="#000000" fill-rule="nonzero" fill-opacity="1" /><path clip-path="url(#clip930)" d="M1439.3 166.87 Q1435.68 166.87 1433.86 170.435 Q1432.05 173.976 1432.05 181.106 Q1432.05 188.212 1433.86 191.777 Q1435.68 195.319 1439.3 195.319 Q1442.93 195.319 1444.74 191.777 Q1446.56 188.212 1446.56 181.106 Q1446.56 173.976 1444.74 170.435 Q1442.93 166.87 1439.3 166.87 M1439.3 163.166 Q1445.11 163.166 1448.16 167.773 Q1451.24 172.356 1451.24 181.106 Q1451.24 189.833 1448.16 194.439 Q1445.11 199.022 1439.3 199.022 Q1433.49 199.022 1430.41 194.439 Q1427.35 189.833 1427.35 181.106 Q1427.35 172.356 1430.41 167.773 Q1433.49 163.166 1439.3 163.166 Z" fill="#000000" fill-rule="nonzero" fill-opacity="1" /><path clip-path="url(#clip930)" d="M1399.18 47.4198 L1417.54 47.4198 L1417.54 51.3549 L1403.46 51.3549 L1403.46 59.8271 Q1404.48 59.4799 1405.5 59.3179 Q1406.52 59.1327 1407.54 59.1327 Q1413.32 59.1327 1416.7 62.304 Q1420.08 65.4752 1420.08 70.8919 Q1420.08 76.4706 1416.61 79.5724 Q1413.14 82.6511 1406.82 82.6511 Q1404.64 82.6511 1402.37 82.2807 Q1400.13 81.9103 1397.72 81.1696 L1397.72 76.4706 Q1399.81 77.6048 1402.03 78.1604 Q1404.25 78.7159 1406.73 78.7159 Q1410.73 78.7159 1413.07 76.6094 Q1415.41 74.503 1415.41 70.8919 Q1415.41 67.2808 1413.07 65.1743 Q1410.73 63.0678 1406.73 63.0678 Q1404.85 63.0678 1402.98 63.4845 Q1401.12 63.9012 1399.18 64.7808 L1399.18 47.4198 Z" fill="#000000" fill-rule="nonzero" fill-opacity="1" /><path clip-path="url(#clip930)" d="M1439.3 50.4985 Q1435.68 50.4985 1433.86 54.0633 Q1432.05 57.6049 1432.05 64.7345 Q1432.05 71.841 1433.86 75.4057 Q1435.68 78.9474 1439.3 78.9474 Q1442.93 78.9474 1444.74 75.4057 Q1446.56 71.841 1446.56 64.7345 Q1446.56 57.6049 1444.74 54.0633 Q1442.93 50.4985 1439.3 50.4985 M1439.3 46.7948 Q1445.11 46.7948 1448.16 51.4012 Q1451.24 55.9846 1451.24 64.7345 Q1451.24 73.4613 1448.16 78.0678 Q1445.11 82.6511 1439.3 82.6511 Q1433.49 82.6511 1430.41 78.0678 Q1427.35 73.4613 1427.35 64.7345 Q1427.35 55.9846 1430.41 51.4012 Q1433.49 46.7948 1439.3 46.7948 Z" fill="#000000" fill-rule="nonzero" fill-opacity="1" /><polyline clip-path="url(#clip934)" style="stroke:#009af9; stroke-linecap:round; stroke-linejoin:round; stroke-width:4; stroke-opacity:1; fill:none" points="1494.59,646.556 1496.88,643.205 1499.18,639.853 1512.63,620.224 1526.07,600.595 1532.33,591.463 1538.59,582.331 1546.97,573.341 1555.36,564.362 1569.21,549.523 1582.1,535.724 1598.28,518.402 1612.79,502.864 1629.4,485.078 1641.82,471.784 1657.7,454.78 1672.19,439.26 1688.68,421.597 1701.76,407.595 1709.88,398.897 1718.01,387.866 1724.23,378.786 1730.45,369.706 1747.99,344.103 1761.1,324.97 1776,303.211 1790.77,281.663 1807.01,257.956 1819.42,239.848 1835.07,216.997 1849.55,195.862 1864.48,174.066 1879.62,151.972 1895.43,128.902 1907.88,110.729 1936.23,69.3431 1939.41,64.6998 "/>
<path clip-path="url(#clip930)" d="M1496.96 171.483 L1597.16 171.483 L1597.16 67.803 L1496.96 67.803  Z" fill="#ffffff" fill-rule="evenodd" fill-opacity="1"/>
<polyline clip-path="url(#clip930)" style="stroke:#000000; stroke-linecap:round; stroke-linejoin:round; stroke-width:4; stroke-opacity:1; fill:none" points="1496.96,171.483 1597.16,171.483 1597.16,67.803 1496.96,67.803 1496.96,171.483 "/>
<polyline clip-path="url(#clip930)" style="stroke:#009af9; stroke-linecap:round; stroke-linejoin:round; stroke-width:4; stroke-opacity:1; fill:none" points="1502.2,119.643 1533.63,119.643 "/>
<path clip-path="url(#clip930)" d="M1563.52 110.997 L1554.15 123.613 L1564.01 136.923 L1558.99 136.923 L1551.44 126.738 L1543.89 136.923 L1538.87 136.923 L1548.94 123.358 L1539.73 110.997 L1544.75 110.997 L1551.62 120.233 L1558.5 110.997 L1563.52 110.997 Z" fill="#000000" fill-rule="nonzero" fill-opacity="1" /><path clip-path="url(#clip930)" d="M1584.8 118.289 Q1588.15 119.006 1590.03 121.275 Q1591.93 123.543 1591.93 126.877 Q1591.93 131.992 1588.41 134.793 Q1584.89 137.594 1578.41 137.594 Q1576.23 137.594 1573.92 137.154 Q1571.62 136.738 1569.17 135.881 L1569.17 131.367 Q1571.12 132.502 1573.43 133.08 Q1575.74 133.659 1578.27 133.659 Q1582.67 133.659 1584.96 131.923 Q1587.27 130.187 1587.27 126.877 Q1587.27 123.821 1585.12 122.108 Q1582.99 120.372 1579.17 120.372 L1575.14 120.372 L1575.14 116.53 L1579.36 116.53 Q1582.8 116.53 1584.63 115.164 Q1586.46 113.775 1586.46 111.182 Q1586.46 108.52 1584.56 107.108 Q1582.69 105.673 1579.17 105.673 Q1577.25 105.673 1575.05 106.09 Q1572.85 106.507 1570.21 107.386 L1570.21 103.219 Q1572.87 102.479 1575.19 102.108 Q1577.53 101.738 1579.59 101.738 Q1584.91 101.738 1588.01 104.169 Q1591.12 106.576 1591.12 110.696 Q1591.12 113.567 1589.47 115.557 Q1587.83 117.525 1584.8 118.289 Z" fill="#000000" fill-rule="nonzero" fill-opacity="1" /></svg>
