<?xml version="1.0" encoding="utf-8"?>
<svg xmlns="http://www.w3.org/2000/svg" xmlns:xlink="http://www.w3.org/1999/xlink" width="500" height="200" viewBox="0 0 2000 800">
<defs>
  <clipPath id="clip990">
    <rect x="0" y="0" width="2000" height="800"/>
  </clipPath>
</defs>
<path clip-path="url(#clip990)" d="M0 800 L2000 800 L2000 0 L0 0  Z" fill="#ffffff" fill-rule="evenodd" fill-opacity="1"/>
<defs>
  <clipPath id="clip991">
    <rect x="400" y="0" width="1401" height="800"/>
  </clipPath>
</defs>
<path clip-path="url(#clip990)" d="M220.098 664.012 L657.532 664.012 L657.532 47.2441 L220.098 47.2441  Z" fill="#ffffff" fill-rule="evenodd" fill-opacity="1"/>
<defs>
  <clipPath id="clip992">
    <rect x="220" y="47" width="438" height="618"/>
  </clipPath>
</defs>
<polyline clip-path="url(#clip992)" style="stroke:#000000; stroke-linecap:round; stroke-linejoin:round; stroke-width:2; stroke-opacity:0.1; fill:none" points="232.478,664.012 232.478,47.2441 "/>
<polyline clip-path="url(#clip992)" style="stroke:#000000; stroke-linecap:round; stroke-linejoin:round; stroke-width:2; stroke-opacity:0.1; fill:none" points="306.442,664.012 306.442,47.2441 "/>
<polyline clip-path="url(#clip992)" style="stroke:#000000; stroke-linecap:round; stroke-linejoin:round; stroke-width:2; stroke-opacity:0.1; fill:none" points="380.407,664.012 380.407,47.2441 "/>
<polyline clip-path="url(#clip992)" style="stroke:#000000; stroke-linecap:round; stroke-linejoin:round; stroke-width:2; stroke-opacity:0.1; fill:none" points="454.371,664.012 454.371,47.2441 "/>
<polyline clip-path="url(#clip992)" style="stroke:#000000; stroke-linecap:round; stroke-linejoin:round; stroke-width:2; stroke-opacity:0.1; fill:none" points="528.335,664.012 528.335,47.2441 "/>
<polyline clip-path="url(#clip992)" style="stroke:#000000; stroke-linecap:round; stroke-linejoin:round; stroke-width:2; stroke-opacity:0.1; fill:none" points="602.299,664.012 602.299,47.2441 "/>
<polyline clip-path="url(#clip992)" style="stroke:#000000; stroke-linecap:round; stroke-linejoin:round; stroke-width:2; stroke-opacity:0.1; fill:none" points="220.098,646.556 657.532,646.556 "/>
<polyline clip-path="url(#clip992)" style="stroke:#000000; stroke-linecap:round; stroke-linejoin:round; stroke-width:2; stroke-opacity:0.1; fill:none" points="220.098,501.092 657.532,501.092 "/>
<polyline clip-path="url(#clip992)" style="stroke:#000000; stroke-linecap:round; stroke-linejoin:round; stroke-width:2; stroke-opacity:0.1; fill:none" points="220.098,355.628 657.532,355.628 "/>
<polyline clip-path="url(#clip992)" style="stroke:#000000; stroke-linecap:round; stroke-linejoin:round; stroke-width:2; stroke-opacity:0.1; fill:none" points="220.098,210.164 657.532,210.164 "/>
<polyline clip-path="url(#clip992)" style="stroke:#000000; stroke-linecap:round; stroke-linejoin:round; stroke-width:2; stroke-opacity:0.1; fill:none" points="220.098,64.6998 657.532,64.6998 "/>
<polyline clip-path="url(#clip990)" style="stroke:#000000; stroke-linecap:round; stroke-linejoin:round; stroke-width:4; stroke-opacity:1; fill:none" points="220.098,664.012 657.532,664.012 "/>
<polyline clip-path="url(#clip990)" style="stroke:#000000; stroke-linecap:round; stroke-linejoin:round; stroke-width:4; stroke-opacity:1; fill:none" points="232.478,664.012 232.478,645.114 "/>
<polyline clip-path="url(#clip990)" style="stroke:#000000; stroke-linecap:round; stroke-linejoin:round; stroke-width:4; stroke-opacity:1; fill:none" points="306.442,664.012 306.442,645.114 "/>
<polyline clip-path="url(#clip990)" style="stroke:#000000; stroke-linecap:round; stroke-linejoin:round; stroke-width:4; stroke-opacity:1; fill:none" points="380.407,664.012 380.407,645.114 "/>
<polyline clip-path="url(#clip990)" style="stroke:#000000; stroke-linecap:round; stroke-linejoin:round; stroke-width:4; stroke-opacity:1; fill:none" points="454.371,664.012 454.371,645.114 "/>
<polyline clip-path="url(#clip990)" style="stroke:#000000; stroke-linecap:round; stroke-linejoin:round; stroke-width:4; stroke-opacity:1; fill:none" points="528.335,664.012 528.335,645.114 "/>
<polyline clip-path="url(#clip990)" style="stroke:#000000; stroke-linecap:round; stroke-linejoin:round; stroke-width:4; stroke-opacity:1; fill:none" points="602.299,664.012 602.299,645.114 "/>
<path clip-path="url(#clip990)" d="M232.478 691.731 Q228.867 691.731 227.038 695.295 Q225.233 698.837 225.233 705.967 Q225.233 713.073 227.038 716.638 Q228.867 720.179 232.478 720.179 Q236.112 720.179 237.918 716.638 Q239.747 713.073 239.747 705.967 Q239.747 698.837 237.918 695.295 Q236.112 691.731 232.478 691.731 M232.478 688.027 Q238.288 688.027 241.344 692.633 Q244.422 697.217 244.422 705.967 Q244.422 714.693 241.344 719.3 Q238.288 723.883 232.478 723.883 Q226.668 723.883 223.589 719.3 Q220.534 714.693 220.534 705.967 Q220.534 697.217 223.589 692.633 Q226.668 688.027 232.478 688.027 Z" fill="#000000" fill-rule="nonzero" fill-opacity="1" /><path clip-path="url(#clip990)" d="M281.13 719.277 L288.769 719.277 L288.769 692.911 L280.459 694.578 L280.459 690.319 L288.722 688.652 L293.398 688.652 L293.398 719.277 L301.037 719.277 L301.037 723.212 L281.13 723.212 L281.13 719.277 Z" fill="#000000" fill-rule="nonzero" fill-opacity="1" /><path clip-path="url(#clip990)" d="M320.482 691.731 Q316.87 691.731 315.042 695.295 Q313.236 698.837 313.236 705.967 Q313.236 713.073 315.042 716.638 Q316.87 720.179 320.482 720.179 Q324.116 720.179 325.921 716.638 Q327.75 713.073 327.75 705.967 Q327.75 698.837 325.921 695.295 Q324.116 691.731 320.482 691.731 M320.482 688.027 Q326.292 688.027 329.347 692.633 Q332.426 697.217 332.426 705.967 Q332.426 714.693 329.347 719.3 Q326.292 723.883 320.482 723.883 Q314.671 723.883 311.593 719.3 Q308.537 714.693 308.537 705.967 Q308.537 697.217 311.593 692.633 Q314.671 688.027 320.482 688.027 Z" fill="#000000" fill-rule="nonzero" fill-opacity="1" /><path clip-path="url(#clip990)" d="M359.18 719.277 L375.499 719.277 L375.499 723.212 L353.555 723.212 L353.555 719.277 Q356.217 716.522 360.8 711.892 Q365.407 707.24 366.587 705.897 Q368.833 703.374 369.712 701.638 Q370.615 699.879 370.615 698.189 Q370.615 695.434 368.67 693.698 Q366.749 691.962 363.647 691.962 Q361.448 691.962 358.995 692.726 Q356.564 693.49 353.786 695.041 L353.786 690.319 Q356.61 689.184 359.064 688.606 Q361.518 688.027 363.555 688.027 Q368.925 688.027 372.12 690.712 Q375.314 693.397 375.314 697.888 Q375.314 700.018 374.504 701.939 Q373.717 703.837 371.61 706.43 Q371.032 707.101 367.93 710.318 Q364.828 713.513 359.18 719.277 Z" fill="#000000" fill-rule="nonzero" fill-opacity="1" /><path clip-path="url(#clip990)" d="M395.314 691.731 Q391.703 691.731 389.874 695.295 Q388.069 698.837 388.069 705.967 Q388.069 713.073 389.874 716.638 Q391.703 720.179 395.314 720.179 Q398.948 720.179 400.754 716.638 Q402.582 713.073 402.582 705.967 Q402.582 698.837 400.754 695.295 Q398.948 691.731 395.314 691.731 M395.314 688.027 Q401.124 688.027 404.18 692.633 Q407.258 697.217 407.258 705.967 Q407.258 714.693 404.18 719.3 Q401.124 723.883 395.314 723.883 Q389.504 723.883 386.425 719.3 Q383.369 714.693 383.369 705.967 Q383.369 697.217 386.425 692.633 Q389.504 688.027 395.314 688.027 Z" fill="#000000" fill-rule="nonzero" fill-opacity="1" /><path clip-path="url(#clip990)" d="M443.213 704.578 Q446.57 705.295 448.445 707.564 Q450.343 709.832 450.343 713.166 Q450.343 718.281 446.824 721.082 Q443.306 723.883 436.825 723.883 Q434.649 723.883 432.334 723.443 Q430.042 723.027 427.588 722.17 L427.588 717.656 Q429.533 718.791 431.848 719.369 Q434.163 719.948 436.686 719.948 Q441.084 719.948 443.375 718.212 Q445.69 716.476 445.69 713.166 Q445.69 710.11 443.537 708.397 Q441.408 706.661 437.588 706.661 L433.561 706.661 L433.561 702.818 L437.774 702.818 Q441.223 702.818 443.051 701.453 Q444.88 700.064 444.88 697.471 Q444.88 694.809 442.982 693.397 Q441.107 691.962 437.588 691.962 Q435.667 691.962 433.468 692.379 Q431.269 692.795 428.63 693.675 L428.63 689.508 Q431.292 688.768 433.607 688.397 Q435.945 688.027 438.005 688.027 Q443.329 688.027 446.431 690.457 Q449.533 692.865 449.533 696.985 Q449.533 699.855 447.889 701.846 Q446.246 703.814 443.213 704.578 Z" fill="#000000" fill-rule="nonzero" fill-opacity="1" /><path clip-path="url(#clip990)" d="M469.209 691.731 Q465.598 691.731 463.769 695.295 Q461.963 698.837 461.963 705.967 Q461.963 713.073 463.769 716.638 Q465.598 720.179 469.209 720.179 Q472.843 720.179 474.648 716.638 Q476.477 713.073 476.477 705.967 Q476.477 698.837 474.648 695.295 Q472.843 691.731 469.209 691.731 M469.209 688.027 Q475.019 688.027 478.074 692.633 Q481.153 697.217 481.153 705.967 Q481.153 714.693 478.074 719.3 Q475.019 723.883 469.209 723.883 Q463.398 723.883 460.32 719.3 Q457.264 714.693 457.264 705.967 Q457.264 697.217 460.32 692.633 Q463.398 688.027 469.209 688.027 Z" fill="#000000" fill-rule="nonzero" fill-opacity="1" /><path clip-path="url(#clip990)" d="M516.506 692.726 L504.701 711.175 L516.506 711.175 L516.506 692.726 M515.279 688.652 L521.159 688.652 L521.159 711.175 L526.09 711.175 L526.09 715.064 L521.159 715.064 L521.159 723.212 L516.506 723.212 L516.506 715.064 L500.905 715.064 L500.905 710.55 L515.279 688.652 Z" fill="#000000" fill-rule="nonzero" fill-opacity="1" /><path clip-path="url(#clip990)" d="M543.821 691.731 Q540.21 691.731 538.381 695.295 Q536.576 698.837 536.576 705.967 Q536.576 713.073 538.381 716.638 Q540.21 720.179 543.821 720.179 Q547.455 720.179 549.261 716.638 Q551.089 713.073 551.089 705.967 Q551.089 698.837 549.261 695.295 Q547.455 691.731 543.821 691.731 M543.821 688.027 Q549.631 688.027 552.687 692.633 Q555.765 697.217 555.765 705.967 Q555.765 714.693 552.687 719.3 Q549.631 723.883 543.821 723.883 Q538.011 723.883 534.932 719.3 Q531.877 714.693 531.877 705.967 Q531.877 697.217 534.932 692.633 Q538.011 688.027 543.821 688.027 Z" fill="#000000" fill-rule="nonzero" fill-opacity="1" /><path clip-path="url(#clip990)" d="M576.998 688.652 L595.355 688.652 L595.355 692.587 L581.281 692.587 L581.281 701.059 Q582.299 700.712 583.318 700.55 Q584.336 700.365 585.355 700.365 Q591.142 700.365 594.521 703.536 Q597.901 706.707 597.901 712.124 Q597.901 717.703 594.429 720.804 Q590.957 723.883 584.637 723.883 Q582.461 723.883 580.193 723.513 Q577.947 723.142 575.54 722.402 L575.54 717.703 Q577.623 718.837 579.846 719.392 Q582.068 719.948 584.545 719.948 Q588.549 719.948 590.887 717.842 Q593.225 715.735 593.225 712.124 Q593.225 708.513 590.887 706.406 Q588.549 704.3 584.545 704.3 Q582.67 704.3 580.795 704.717 Q578.943 705.133 576.998 706.013 L576.998 688.652 Z" fill="#000000" fill-rule="nonzero" fill-opacity="1" /><path clip-path="url(#clip990)" d="M617.114 691.731 Q613.503 691.731 611.674 695.295 Q609.869 698.837 609.869 705.967 Q609.869 713.073 611.674 716.638 Q613.503 720.179 617.114 720.179 Q620.748 720.179 622.554 716.638 Q624.382 713.073 624.382 705.967 Q624.382 698.837 622.554 695.295 Q620.748 691.731 617.114 691.731 M617.114 688.027 Q622.924 688.027 625.98 692.633 Q629.058 697.217 629.058 705.967 Q629.058 714.693 625.98 719.3 Q622.924 723.883 617.114 723.883 Q611.304 723.883 608.225 719.3 Q605.17 714.693 605.17 705.967 Q605.17 697.217 608.225 692.633 Q611.304 688.027 617.114 688.027 Z" fill="#000000" fill-rule="nonzero" fill-opacity="1" /><path clip-path="url(#clip990)" d="M437.876 757.106 L437.876 767.228 L449.939 767.228 L449.939 771.779 L437.876 771.779 L437.876 791.131 Q437.876 795.492 439.054 796.733 Q440.263 797.974 443.923 797.974 L449.939 797.974 L449.939 802.876 L443.923 802.876 Q437.144 802.876 434.566 800.361 Q431.988 797.815 431.988 791.131 L431.988 771.779 L427.691 771.779 L427.691 767.228 L431.988 767.228 L431.988 757.106 L437.876 757.106 Z" fill="#000000" fill-rule="nonzero" fill-opacity="1" /><polyline clip-path="url(#clip990)" style="stroke:#000000; stroke-linecap:round; stroke-linejoin:round; stroke-width:4; stroke-opacity:1; fill:none" points="220.098,664.012 220.098,47.2441 "/>
<polyline clip-path="url(#clip990)" style="stroke:#000000; stroke-linecap:round; stroke-linejoin:round; stroke-width:4; stroke-opacity:1; fill:none" points="220.098,646.556 238.996,646.556 "/>
<polyline clip-path="url(#clip990)" style="stroke:#000000; stroke-linecap:round; stroke-linejoin:round; stroke-width:4; stroke-opacity:1; fill:none" points="220.098,501.092 238.996,501.092 "/>
<polyline clip-path="url(#clip990)" style="stroke:#000000; stroke-linecap:round; stroke-linejoin:round; stroke-width:4; stroke-opacity:1; fill:none" points="220.098,355.628 238.996,355.628 "/>
<polyline clip-path="url(#clip990)" style="stroke:#000000; stroke-linecap:round; stroke-linejoin:round; stroke-width:4; stroke-opacity:1; fill:none" points="220.098,210.164 238.996,210.164 "/>
<polyline clip-path="url(#clip990)" style="stroke:#000000; stroke-linecap:round; stroke-linejoin:round; stroke-width:4; stroke-opacity:1; fill:none" points="220.098,64.6998 238.996,64.6998 "/>
<path clip-path="url(#clip990)" d="M52.9921 647.008 L82.6679 647.008 L82.6679 650.943 L52.9921 650.943 L52.9921 647.008 Z" fill="#000000" fill-rule="nonzero" fill-opacity="1" /><path clip-path="url(#clip990)" d="M93.5706 659.901 L101.209 659.901 L101.209 633.535 L92.8993 635.202 L92.8993 630.943 L101.163 629.276 L105.839 629.276 L105.839 659.901 L113.478 659.901 L113.478 663.836 L93.5706 663.836 L93.5706 659.901 Z" fill="#000000" fill-rule="nonzero" fill-opacity="1" /><path clip-path="url(#clip990)" d="M122.922 657.957 L127.807 657.957 L127.807 663.836 L122.922 663.836 L122.922 657.957 Z" fill="#000000" fill-rule="nonzero" fill-opacity="1" /><path clip-path="url(#clip990)" d="M147.992 632.355 Q144.381 632.355 142.552 635.92 Q140.746 639.461 140.746 646.591 Q140.746 653.697 142.552 657.262 Q144.381 660.804 147.992 660.804 Q151.626 660.804 153.431 657.262 Q155.26 653.697 155.26 646.591 Q155.26 639.461 153.431 635.92 Q151.626 632.355 147.992 632.355 M147.992 628.651 Q153.802 628.651 156.857 633.258 Q159.936 637.841 159.936 646.591 Q159.936 655.318 156.857 659.924 Q153.802 664.507 147.992 664.507 Q142.181 664.507 139.103 659.924 Q136.047 655.318 136.047 646.591 Q136.047 637.841 139.103 633.258 Q142.181 628.651 147.992 628.651 Z" fill="#000000" fill-rule="nonzero" fill-opacity="1" /><path clip-path="url(#clip990)" d="M178.153 632.355 Q174.542 632.355 172.714 635.92 Q170.908 639.461 170.908 646.591 Q170.908 653.697 172.714 657.262 Q174.542 660.804 178.153 660.804 Q181.788 660.804 183.593 657.262 Q185.422 653.697 185.422 646.591 Q185.422 639.461 183.593 635.92 Q181.788 632.355 178.153 632.355 M178.153 628.651 Q183.964 628.651 187.019 633.258 Q190.098 637.841 190.098 646.591 Q190.098 655.318 187.019 659.924 Q183.964 664.507 178.153 664.507 Q172.343 664.507 169.265 659.924 Q166.209 655.318 166.209 646.591 Q166.209 637.841 169.265 633.258 Q172.343 628.651 178.153 628.651 Z" fill="#000000" fill-rule="nonzero" fill-opacity="1" /><path clip-path="url(#clip990)" d="M53.9875 501.543 L83.6633 501.543 L83.6633 505.479 L53.9875 505.479 L53.9875 501.543 Z" fill="#000000" fill-rule="nonzero" fill-opacity="1" /><path clip-path="url(#clip990)" d="M103.756 486.891 Q100.145 486.891 98.316 490.456 Q96.5104 493.997 96.5104 501.127 Q96.5104 508.233 98.316 511.798 Q100.145 515.34 103.756 515.34 Q107.39 515.34 109.196 511.798 Q111.024 508.233 111.024 501.127 Q111.024 493.997 109.196 490.456 Q107.39 486.891 103.756 486.891 M103.756 483.187 Q109.566 483.187 112.621 487.794 Q115.7 492.377 115.7 501.127 Q115.7 509.854 112.621 514.46 Q109.566 519.043 103.756 519.043 Q97.9456 519.043 94.8669 514.46 Q91.8114 509.854 91.8114 501.127 Q91.8114 492.377 94.8669 487.794 Q97.9456 483.187 103.756 483.187 Z" fill="#000000" fill-rule="nonzero" fill-opacity="1" /><path clip-path="url(#clip990)" d="M123.918 512.492 L128.802 512.492 L128.802 518.372 L123.918 518.372 L123.918 512.492 Z" fill="#000000" fill-rule="nonzero" fill-opacity="1" /><path clip-path="url(#clip990)" d="M137.806 483.812 L160.029 483.812 L160.029 485.803 L147.482 518.372 L142.598 518.372 L154.404 487.747 L137.806 487.747 L137.806 483.812 Z" fill="#000000" fill-rule="nonzero" fill-opacity="1" /><path clip-path="url(#clip990)" d="M169.195 483.812 L187.552 483.812 L187.552 487.747 L173.478 487.747 L173.478 496.219 Q174.496 495.872 175.515 495.71 Q176.533 495.525 177.552 495.525 Q183.339 495.525 186.718 498.696 Q190.098 501.868 190.098 507.284 Q190.098 512.863 186.626 515.965 Q183.153 519.043 176.834 519.043 Q174.658 519.043 172.39 518.673 Q170.144 518.303 167.737 517.562 L167.737 512.863 Q169.82 513.997 172.042 514.553 Q174.265 515.108 176.741 515.108 Q180.746 515.108 183.084 513.002 Q185.422 510.895 185.422 507.284 Q185.422 503.673 183.084 501.567 Q180.746 499.46 176.741 499.46 Q174.866 499.46 172.991 499.877 Q171.14 500.293 169.195 501.173 L169.195 483.812 Z" fill="#000000" fill-rule="nonzero" fill-opacity="1" /><path clip-path="url(#clip990)" d="M52.9921 356.079 L82.6679 356.079 L82.6679 360.015 L52.9921 360.015 L52.9921 356.079 Z" fill="#000000" fill-rule="nonzero" fill-opacity="1" /><path clip-path="url(#clip990)" d="M102.76 341.427 Q99.1493 341.427 97.3206 344.991 Q95.515 348.533 95.515 355.663 Q95.515 362.769 97.3206 366.334 Q99.1493 369.876 102.76 369.876 Q106.395 369.876 108.2 366.334 Q110.029 362.769 110.029 355.663 Q110.029 348.533 108.2 344.991 Q106.395 341.427 102.76 341.427 M102.76 337.723 Q108.571 337.723 111.626 342.329 Q114.705 346.913 114.705 355.663 Q114.705 364.389 111.626 368.996 Q108.571 373.579 102.76 373.579 Q96.9502 373.579 93.8715 368.996 Q90.816 364.389 90.816 355.663 Q90.816 346.913 93.8715 342.329 Q96.9502 337.723 102.76 337.723 Z" fill="#000000" fill-rule="nonzero" fill-opacity="1" /><path clip-path="url(#clip990)" d="M122.922 367.028 L127.807 367.028 L127.807 372.908 L122.922 372.908 L122.922 367.028 Z" fill="#000000" fill-rule="nonzero" fill-opacity="1" /><path clip-path="url(#clip990)" d="M138.038 338.348 L156.394 338.348 L156.394 342.283 L142.32 342.283 L142.32 350.755 Q143.339 350.408 144.357 350.246 Q145.376 350.061 146.394 350.061 Q152.181 350.061 155.561 353.232 Q158.941 356.403 158.941 361.82 Q158.941 367.399 155.468 370.501 Q151.996 373.579 145.677 373.579 Q143.501 373.579 141.232 373.209 Q138.987 372.839 136.58 372.098 L136.58 367.399 Q138.663 368.533 140.885 369.089 Q143.107 369.644 145.584 369.644 Q149.589 369.644 151.927 367.538 Q154.265 365.431 154.265 361.82 Q154.265 358.209 151.927 356.103 Q149.589 353.996 145.584 353.996 Q143.709 353.996 141.834 354.413 Q139.982 354.829 138.038 355.709 L138.038 338.348 Z" fill="#000000" fill-rule="nonzero" fill-opacity="1" /><path clip-path="url(#clip990)" d="M178.153 341.427 Q174.542 341.427 172.714 344.991 Q170.908 348.533 170.908 355.663 Q170.908 362.769 172.714 366.334 Q174.542 369.876 178.153 369.876 Q181.788 369.876 183.593 366.334 Q185.422 362.769 185.422 355.663 Q185.422 348.533 183.593 344.991 Q181.788 341.427 178.153 341.427 M178.153 337.723 Q183.964 337.723 187.019 342.329 Q190.098 346.913 190.098 355.663 Q190.098 364.389 187.019 368.996 Q183.964 373.579 178.153 373.579 Q172.343 373.579 169.265 368.996 Q166.209 364.389 166.209 355.663 Q166.209 346.913 169.265 342.329 Q172.343 337.723 178.153 337.723 Z" fill="#000000" fill-rule="nonzero" fill-opacity="1" /><path clip-path="url(#clip990)" d="M53.9875 210.615 L83.6633 210.615 L83.6633 214.55 L53.9875 214.55 L53.9875 210.615 Z" fill="#000000" fill-rule="nonzero" fill-opacity="1" /><path clip-path="url(#clip990)" d="M103.756 195.963 Q100.145 195.963 98.316 199.527 Q96.5104 203.069 96.5104 210.199 Q96.5104 217.305 98.316 220.87 Q100.145 224.411 103.756 224.411 Q107.39 224.411 109.196 220.87 Q111.024 217.305 111.024 210.199 Q111.024 203.069 109.196 199.527 Q107.39 195.963 103.756 195.963 M103.756 192.259 Q109.566 192.259 112.621 196.865 Q115.7 201.449 115.7 210.199 Q115.7 218.925 112.621 223.532 Q109.566 228.115 103.756 228.115 Q97.9456 228.115 94.8669 223.532 Q91.8114 218.925 91.8114 210.199 Q91.8114 201.449 94.8669 196.865 Q97.9456 192.259 103.756 192.259 Z" fill="#000000" fill-rule="nonzero" fill-opacity="1" /><path clip-path="url(#clip990)" d="M123.918 221.564 L128.802 221.564 L128.802 227.444 L123.918 227.444 L123.918 221.564 Z" fill="#000000" fill-rule="nonzero" fill-opacity="1" /><path clip-path="url(#clip990)" d="M143.015 223.509 L159.334 223.509 L159.334 227.444 L137.39 227.444 L137.39 223.509 Q140.052 220.754 144.635 216.124 Q149.242 211.472 150.422 210.129 Q152.668 207.606 153.547 205.87 Q154.45 204.111 154.45 202.421 Q154.45 199.666 152.505 197.93 Q150.584 196.194 147.482 196.194 Q145.283 196.194 142.83 196.958 Q140.399 197.722 137.621 199.273 L137.621 194.551 Q140.445 193.416 142.899 192.838 Q145.353 192.259 147.39 192.259 Q152.76 192.259 155.955 194.944 Q159.149 197.629 159.149 202.12 Q159.149 204.25 158.339 206.171 Q157.552 208.069 155.445 210.662 Q154.867 211.333 151.765 214.55 Q148.663 217.745 143.015 223.509 Z" fill="#000000" fill-rule="nonzero" fill-opacity="1" /><path clip-path="url(#clip990)" d="M169.195 192.884 L187.552 192.884 L187.552 196.819 L173.478 196.819 L173.478 205.291 Q174.496 204.944 175.515 204.782 Q176.533 204.597 177.552 204.597 Q183.339 204.597 186.718 207.768 Q190.098 210.939 190.098 216.356 Q190.098 221.935 186.626 225.036 Q183.153 228.115 176.834 228.115 Q174.658 228.115 172.39 227.745 Q170.144 227.374 167.737 226.634 L167.737 221.935 Q169.82 223.069 172.042 223.624 Q174.265 224.18 176.741 224.18 Q180.746 224.18 183.084 222.074 Q185.422 219.967 185.422 216.356 Q185.422 212.745 183.084 210.638 Q180.746 208.532 176.741 208.532 Q174.866 208.532 172.991 208.949 Q171.14 209.365 169.195 210.245 L169.195 192.884 Z" fill="#000000" fill-rule="nonzero" fill-opacity="1" /><path clip-path="url(#clip990)" d="M102.76 50.4985 Q99.1493 50.4985 97.3206 54.0633 Q95.515 57.6049 95.515 64.7345 Q95.515 71.841 97.3206 75.4057 Q99.1493 78.9474 102.76 78.9474 Q106.395 78.9474 108.2 75.4057 Q110.029 71.841 110.029 64.7345 Q110.029 57.6049 108.2 54.0633 Q106.395 50.4985 102.76 50.4985 M102.76 46.7948 Q108.571 46.7948 111.626 51.4012 Q114.705 55.9846 114.705 64.7345 Q114.705 73.4613 111.626 78.0678 Q108.571 82.6511 102.76 82.6511 Q96.9502 82.6511 93.8715 78.0678 Q90.816 73.4613 90.816 64.7345 Q90.816 55.9846 93.8715 51.4012 Q96.9502 46.7948 102.76 46.7948 Z" fill="#000000" fill-rule="nonzero" fill-opacity="1" /><path clip-path="url(#clip990)" d="M122.922 76.1002 L127.807 76.1002 L127.807 81.9798 L122.922 81.9798 L122.922 76.1002 Z" fill="#000000" fill-rule="nonzero" fill-opacity="1" /><path clip-path="url(#clip990)" d="M147.992 50.4985 Q144.381 50.4985 142.552 54.0633 Q140.746 57.6049 140.746 64.7345 Q140.746 71.841 142.552 75.4057 Q144.381 78.9474 147.992 78.9474 Q151.626 78.9474 153.431 75.4057 Q155.26 71.841 155.26 64.7345 Q155.26 57.6049 153.431 54.0633 Q151.626 50.4985 147.992 50.4985 M147.992 46.7948 Q153.802 46.7948 156.857 51.4012 Q159.936 55.9846 159.936 64.7345 Q159.936 73.4613 156.857 78.0678 Q153.802 82.6511 147.992 82.6511 Q142.181 82.6511 139.103 78.0678 Q136.047 73.4613 136.047 64.7345 Q136.047 55.9846 139.103 51.4012 Q142.181 46.7948 147.992 46.7948 Z" fill="#000000" fill-rule="nonzero" fill-opacity="1" /><path clip-path="url(#clip990)" d="M178.153 50.4985 Q174.542 50.4985 172.714 54.0633 Q170.908 57.6049 170.908 64.7345 Q170.908 71.841 172.714 75.4057 Q174.542 78.9474 178.153 78.9474 Q181.788 78.9474 183.593 75.4057 Q185.422 71.841 185.422 64.7345 Q185.422 57.6049 183.593 54.0633 Q181.788 50.4985 178.153 50.4985 M178.153 46.7948 Q183.964 46.7948 187.019 51.4012 Q190.098 55.9846 190.098 64.7345 Q190.098 73.4613 187.019 78.0678 Q183.964 82.6511 178.153 82.6511 Q172.343 82.6511 169.265 78.0678 Q166.209 73.4613 166.209 64.7345 Q166.209 55.9846 169.265 51.4012 Q172.343 46.7948 178.153 46.7948 Z" fill="#000000" fill-rule="nonzero" fill-opacity="1" /><polyline clip-path="url(#clip992)" style="stroke:#009af9; stroke-linecap:round; stroke-linejoin:round; stroke-width:4; stroke-opacity:1; fill:none" points="232.478,646.556 236.738,646.556 261.691,646.556 273.299,646.556 288.857,646.556 301.714,646.556 313.669,646.556 328.677,646.556 342.139,646.556 357.548,646.556 369.066,646.556 383.798,646.556 397.245,646.556 412.548,646.556 424.679,646.556 439.751,646.556 451.293,646.556 467.567,646.556 479.727,646.556 493.557,646.556 507.252,646.556 522.32,646.556 533.83,646.556 548.353,646.556 561.786,646.556 575.64,646.556 589.682,646.556 604.345,646.556 615.896,646.556 642.2,646.556 645.152,646.556 "/>
<path clip-path="url(#clip990)" d="M546.777 171.483 L642.951 171.483 L642.951 67.803 L546.777 67.803  Z" fill="#ffffff" fill-rule="evenodd" fill-opacity="1"/>
<polyline clip-path="url(#clip990)" style="stroke:#000000; stroke-linecap:round; stroke-linejoin:round; stroke-width:4; stroke-opacity:1; fill:none" points="546.777,171.483 642.951,171.483 642.951,67.803 546.777,67.803 546.777,171.483 "/>
<polyline clip-path="url(#clip990)" style="stroke:#009af9; stroke-linecap:round; stroke-linejoin:round; stroke-width:4; stroke-opacity:1; fill:none" points="551.637,119.643 580.8,119.643 "/>
<path clip-path="url(#clip990)" d="M598.924 104.956 L610.891 136.923 L606.378 136.923 L599.109 117.756 L590.174 136.923 L585.66 136.923 L597.026 112.062 L595.313 107.479 Q594.225 104.562 591.748 104.562 L589.526 104.562 L589.526 100.905 L592.234 100.951 Q597.466 101.02 598.924 104.956 Z" fill="#000000" fill-rule="nonzero" fill-opacity="1" /><path clip-path="url(#clip990)" d="M618.183 132.988 L625.822 132.988 L625.822 106.622 L617.512 108.289 L617.512 104.03 L625.776 102.363 L630.452 102.363 L630.452 132.988 L638.09 132.988 L638.09 136.923 L618.183 136.923 L618.183 132.988 Z" fill="#000000" fill-rule="nonzero" fill-opacity="1" /><path clip-path="url(#clip990)" d="M849.967 664.012 L1287.4 664.012 L1287.4 47.2441 L849.967 47.2441  Z" fill="#ffffff" fill-rule="evenodd" fill-opacity="1"/>
<defs>
  <clipPath id="clip993">
    <rect x="849" y="47" width="438" height="618"/>
  </clipPath>
</defs>
<polyline clip-path="url(#clip993)" style="stroke:#000000; stroke-linecap:round; stroke-linejoin:round; stroke-width:2; stroke-opacity:0.1; fill:none" points="862.347,664.012 862.347,47.2441 "/>
<polyline clip-path="url(#clip993)" style="stroke:#000000; stroke-linecap:round; stroke-linejoin:round; stroke-width:2; stroke-opacity:0.1; fill:none" points="936.311,664.012 936.311,47.2441 "/>
<polyline clip-path="url(#clip993)" style="stroke:#000000; stroke-linecap:round; stroke-linejoin:round; stroke-width:2; stroke-opacity:0.1; fill:none" points="1010.28,664.012 1010.28,47.2441 "/>
<polyline clip-path="url(#clip993)" style="stroke:#000000; stroke-linecap:round; stroke-linejoin:round; stroke-width:2; stroke-opacity:0.1; fill:none" points="1084.24,664.012 1084.24,47.2441 "/>
<polyline clip-path="url(#clip993)" style="stroke:#000000; stroke-linecap:round; stroke-linejoin:round; stroke-width:2; stroke-opacity:0.1; fill:none" points="1158.2,664.012 1158.2,47.2441 "/>
<polyline clip-path="url(#clip993)" style="stroke:#000000; stroke-linecap:round; stroke-linejoin:round; stroke-width:2; stroke-opacity:0.1; fill:none" points="1232.17,664.012 1232.17,47.2441 "/>
<polyline clip-path="url(#clip993)" style="stroke:#000000; stroke-linecap:round; stroke-linejoin:round; stroke-width:2; stroke-opacity:0.1; fill:none" points="849.967,598.781 1287.4,598.781 "/>
<polyline clip-path="url(#clip993)" style="stroke:#000000; stroke-linecap:round; stroke-linejoin:round; stroke-width:2; stroke-opacity:0.1; fill:none" points="849.967,491.965 1287.4,491.965 "/>
<polyline clip-path="url(#clip993)" style="stroke:#000000; stroke-linecap:round; stroke-linejoin:round; stroke-width:2; stroke-opacity:0.1; fill:none" points="849.967,385.148 1287.4,385.148 "/>
<polyline clip-path="url(#clip993)" style="stroke:#000000; stroke-linecap:round; stroke-linejoin:round; stroke-width:2; stroke-opacity:0.1; fill:none" points="849.967,278.332 1287.4,278.332 "/>
<polyline clip-path="url(#clip993)" style="stroke:#000000; stroke-linecap:round; stroke-linejoin:round; stroke-width:2; stroke-opacity:0.1; fill:none" points="849.967,171.516 1287.4,171.516 "/>
<polyline clip-path="url(#clip993)" style="stroke:#000000; stroke-linecap:round; stroke-linejoin:round; stroke-width:2; stroke-opacity:0.1; fill:none" points="849.967,64.6998 1287.4,64.6998 "/>
<polyline clip-path="url(#clip990)" style="stroke:#000000; stroke-linecap:round; stroke-linejoin:round; stroke-width:4; stroke-opacity:1; fill:none" points="849.967,664.012 1287.4,664.012 "/>
<polyline clip-path="url(#clip990)" style="stroke:#000000; stroke-linecap:round; stroke-linejoin:round; stroke-width:4; stroke-opacity:1; fill:none" points="862.347,664.012 862.347,645.114 "/>
<polyline clip-path="url(#clip990)" style="stroke:#000000; stroke-linecap:round; stroke-linejoin:round; stroke-width:4; stroke-opacity:1; fill:none" points="936.311,664.012 936.311,645.114 "/>
<polyline clip-path="url(#clip990)" style="stroke:#000000; stroke-linecap:round; stroke-linejoin:round; stroke-width:4; stroke-opacity:1; fill:none" points="1010.28,664.012 1010.28,645.114 "/>
<polyline clip-path="url(#clip990)" style="stroke:#000000; stroke-linecap:round; stroke-linejoin:round; stroke-width:4; stroke-opacity:1; fill:none" points="1084.24,664.012 1084.24,645.114 "/>
<polyline clip-path="url(#clip990)" style="stroke:#000000; stroke-linecap:round; stroke-linejoin:round; stroke-width:4; stroke-opacity:1; fill:none" points="1158.2,664.012 1158.2,645.114 "/>
<polyline clip-path="url(#clip990)" style="stroke:#000000; stroke-linecap:round; stroke-linejoin:round; stroke-width:4; stroke-opacity:1; fill:none" points="1232.17,664.012 1232.17,645.114 "/>
<path clip-path="url(#clip990)" d="M862.347 691.731 Q858.736 691.731 856.907 695.295 Q855.102 698.837 855.102 705.967 Q855.102 713.073 856.907 716.638 Q858.736 720.179 862.347 720.179 Q865.981 720.179 867.787 716.638 Q869.616 713.073 869.616 705.967 Q869.616 698.837 867.787 695.295 Q865.981 691.731 862.347 691.731 M862.347 688.027 Q868.157 688.027 871.213 692.633 Q874.291 697.217 874.291 705.967 Q874.291 714.693 871.213 719.3 Q868.157 723.883 862.347 723.883 Q856.537 723.883 853.458 719.3 Q850.403 714.693 850.403 705.967 Q850.403 697.217 853.458 692.633 Q856.537 688.027 862.347 688.027 Z" fill="#000000" fill-rule="nonzero" fill-opacity="1" /><path clip-path="url(#clip990)" d="M910.999 719.277 L918.638 719.277 L918.638 692.911 L910.328 694.578 L910.328 690.319 L918.592 688.652 L923.267 688.652 L923.267 719.277 L930.906 719.277 L930.906 723.212 L910.999 723.212 L910.999 719.277 Z" fill="#000000" fill-rule="nonzero" fill-opacity="1" /><path clip-path="url(#clip990)" d="M950.351 691.731 Q946.74 691.731 944.911 695.295 Q943.105 698.837 943.105 705.967 Q943.105 713.073 944.911 716.638 Q946.74 720.179 950.351 720.179 Q953.985 720.179 955.79 716.638 Q957.619 713.073 957.619 705.967 Q957.619 698.837 955.79 695.295 Q953.985 691.731 950.351 691.731 M950.351 688.027 Q956.161 688.027 959.216 692.633 Q962.295 697.217 962.295 705.967 Q962.295 714.693 959.216 719.3 Q956.161 723.883 950.351 723.883 Q944.54 723.883 941.462 719.3 Q938.406 714.693 938.406 705.967 Q938.406 697.217 941.462 692.633 Q944.54 688.027 950.351 688.027 Z" fill="#000000" fill-rule="nonzero" fill-opacity="1" /><path clip-path="url(#clip990)" d="M989.049 719.277 L1005.37 719.277 L1005.37 723.212 L983.424 723.212 L983.424 719.277 Q986.086 716.522 990.669 711.892 Q995.276 707.24 996.456 705.897 Q998.702 703.374 999.581 701.638 Q1000.48 699.879 1000.48 698.189 Q1000.48 695.434 998.539 693.698 Q996.618 691.962 993.516 691.962 Q991.317 691.962 988.864 692.726 Q986.433 693.49 983.655 695.041 L983.655 690.319 Q986.479 689.184 988.933 688.606 Q991.387 688.027 993.424 688.027 Q998.794 688.027 1001.99 690.712 Q1005.18 693.397 1005.18 697.888 Q1005.18 700.018 1004.37 701.939 Q1003.59 703.837 1001.48 706.43 Q1000.9 707.101 997.799 710.318 Q994.697 713.513 989.049 719.277 Z" fill="#000000" fill-rule="nonzero" fill-opacity="1" /><path clip-path="url(#clip990)" d="M1025.18 691.731 Q1021.57 691.731 1019.74 695.295 Q1017.94 698.837 1017.94 705.967 Q1017.94 713.073 1019.74 716.638 Q1021.57 720.179 1025.18 720.179 Q1028.82 720.179 1030.62 716.638 Q1032.45 713.073 1032.45 705.967 Q1032.45 698.837 1030.62 695.295 Q1028.82 691.731 1025.18 691.731 M1025.18 688.027 Q1030.99 688.027 1034.05 692.633 Q1037.13 697.217 1037.13 705.967 Q1037.13 714.693 1034.05 719.3 Q1030.99 723.883 1025.18 723.883 Q1019.37 723.883 1016.29 719.3 Q1013.24 714.693 1013.24 705.967 Q1013.24 697.217 1016.29 692.633 Q1019.37 688.027 1025.18 688.027 Z" fill="#000000" fill-rule="nonzero" fill-opacity="1" /><path clip-path="url(#clip990)" d="M1073.08 704.578 Q1076.44 705.295 1078.31 707.564 Q1080.21 709.832 1080.21 713.166 Q1080.21 718.281 1076.69 721.082 Q1073.17 723.883 1066.69 723.883 Q1064.52 723.883 1062.2 723.443 Q1059.91 723.027 1057.46 722.17 L1057.46 717.656 Q1059.4 718.791 1061.72 719.369 Q1064.03 719.948 1066.55 719.948 Q1070.95 719.948 1073.24 718.212 Q1075.56 716.476 1075.56 713.166 Q1075.56 710.11 1073.41 708.397 Q1071.28 706.661 1067.46 706.661 L1063.43 706.661 L1063.43 702.818 L1067.64 702.818 Q1071.09 702.818 1072.92 701.453 Q1074.75 700.064 1074.75 697.471 Q1074.75 694.809 1072.85 693.397 Q1070.98 691.962 1067.46 691.962 Q1065.54 691.962 1063.34 692.379 Q1061.14 692.795 1058.5 693.675 L1058.5 689.508 Q1061.16 688.768 1063.48 688.397 Q1065.81 688.027 1067.87 688.027 Q1073.2 688.027 1076.3 690.457 Q1079.4 692.865 1079.4 696.985 Q1079.4 699.855 1077.76 701.846 Q1076.11 703.814 1073.08 704.578 Z" fill="#000000" fill-rule="nonzero" fill-opacity="1" /><path clip-path="url(#clip990)" d="M1099.08 691.731 Q1095.47 691.731 1093.64 695.295 Q1091.83 698.837 1091.83 705.967 Q1091.83 713.073 1093.64 716.638 Q1095.47 720.179 1099.08 720.179 Q1102.71 720.179 1104.52 716.638 Q1106.35 713.073 1106.35 705.967 Q1106.35 698.837 1104.52 695.295 Q1102.71 691.731 1099.08 691.731 M1099.08 688.027 Q1104.89 688.027 1107.94 692.633 Q1111.02 697.217 1111.02 705.967 Q1111.02 714.693 1107.94 719.3 Q1104.89 723.883 1099.08 723.883 Q1093.27 723.883 1090.19 719.3 Q1087.13 714.693 1087.13 705.967 Q1087.13 697.217 1090.19 692.633 Q1093.27 688.027 1099.08 688.027 Z" fill="#000000" fill-rule="nonzero" fill-opacity="1" /><path clip-path="url(#clip990)" d="M1146.38 692.726 L1134.57 711.175 L1146.38 711.175 L1146.38 692.726 M1145.15 688.652 L1151.03 688.652 L1151.03 711.175 L1155.96 711.175 L1155.96 715.064 L1151.03 715.064 L1151.03 723.212 L1146.38 723.212 L1146.38 715.064 L1130.77 715.064 L1130.77 710.55 L1145.15 688.652 Z" fill="#000000" fill-rule="nonzero" fill-opacity="1" /><path clip-path="url(#clip990)" d="M1173.69 691.731 Q1170.08 691.731 1168.25 695.295 Q1166.44 698.837 1166.44 705.967 Q1166.44 713.073 1168.25 716.638 Q1170.08 720.179 1173.69 720.179 Q1177.32 720.179 1179.13 716.638 Q1180.96 713.073 1180.96 705.967 Q1180.96 698.837 1179.13 695.295 Q1177.32 691.731 1173.69 691.731 M1173.69 688.027 Q1179.5 688.027 1182.56 692.633 Q1185.63 697.217 1185.63 705.967 Q1185.63 714.693 1182.56 719.3 Q1179.5 723.883 1173.69 723.883 Q1167.88 723.883 1164.8 719.3 Q1161.75 714.693 1161.75 705.967 Q1161.75 697.217 1164.8 692.633 Q1167.88 688.027 1173.69 688.027 Z" fill="#000000" fill-rule="nonzero" fill-opacity="1" /><path clip-path="url(#clip990)" d="M1206.87 688.652 L1225.22 688.652 L1225.22 692.587 L1211.15 692.587 L1211.15 701.059 Q1212.17 700.712 1213.19 700.55 Q1214.21 700.365 1215.22 700.365 Q1221.01 700.365 1224.39 703.536 Q1227.77 706.707 1227.77 712.124 Q1227.77 717.703 1224.3 720.804 Q1220.83 723.883 1214.51 723.883 Q1212.33 723.883 1210.06 723.513 Q1207.82 723.142 1205.41 722.402 L1205.41 717.703 Q1207.49 718.837 1209.71 719.392 Q1211.94 719.948 1214.41 719.948 Q1218.42 719.948 1220.76 717.842 Q1223.09 715.735 1223.09 712.124 Q1223.09 708.513 1220.76 706.406 Q1218.42 704.3 1214.41 704.3 Q1212.54 704.3 1210.66 704.717 Q1208.81 705.133 1206.87 706.013 L1206.87 688.652 Z" fill="#000000" fill-rule="nonzero" fill-opacity="1" /><path clip-path="url(#clip990)" d="M1246.98 691.731 Q1243.37 691.731 1241.54 695.295 Q1239.74 698.837 1239.74 705.967 Q1239.74 713.073 1241.54 716.638 Q1243.37 720.179 1246.98 720.179 Q1250.62 720.179 1252.42 716.638 Q1254.25 713.073 1254.25 705.967 Q1254.25 698.837 1252.42 695.295 Q1250.62 691.731 1246.98 691.731 M1246.98 688.027 Q1252.79 688.027 1255.85 692.633 Q1258.93 697.217 1258.93 705.967 Q1258.93 714.693 1255.85 719.3 Q1252.79 723.883 1246.98 723.883 Q1241.17 723.883 1238.09 719.3 Q1235.04 714.693 1235.04 705.967 Q1235.04 697.217 1238.09 692.633 Q1241.17 688.027 1246.98 688.027 Z" fill="#000000" fill-rule="nonzero" fill-opacity="1" /><path clip-path="url(#clip990)" d="M1067.74 757.106 L1067.74 767.228 L1079.81 767.228 L1079.81 771.779 L1067.74 771.779 L1067.74 791.131 Q1067.74 795.492 1068.92 796.733 Q1070.13 797.974 1073.79 797.974 L1079.81 797.974 L1079.81 802.876 L1073.79 802.876 Q1067.01 802.876 1064.43 800.361 Q1061.86 797.815 1061.86 791.131 L1061.86 771.779 L1057.56 771.779 L1057.56 767.228 L1061.86 767.228 L1061.86 757.106 L1067.74 757.106 Z" fill="#000000" fill-rule="nonzero" fill-opacity="1" /><polyline clip-path="url(#clip990)" style="stroke:#000000; stroke-linecap:round; stroke-linejoin:round; stroke-width:4; stroke-opacity:1; fill:none" points="849.967,664.012 849.967,47.2441 "/>
<polyline clip-path="url(#clip990)" style="stroke:#000000; stroke-linecap:round; stroke-linejoin:round; stroke-width:4; stroke-opacity:1; fill:none" points="849.967,598.781 868.865,598.781 "/>
<polyline clip-path="url(#clip990)" style="stroke:#000000; stroke-linecap:round; stroke-linejoin:round; stroke-width:4; stroke-opacity:1; fill:none" points="849.967,491.965 868.865,491.965 "/>
<polyline clip-path="url(#clip990)" style="stroke:#000000; stroke-linecap:round; stroke-linejoin:round; stroke-width:4; stroke-opacity:1; fill:none" points="849.967,385.148 868.865,385.148 "/>
<polyline clip-path="url(#clip990)" style="stroke:#000000; stroke-linecap:round; stroke-linejoin:round; stroke-width:4; stroke-opacity:1; fill:none" points="849.967,278.332 868.865,278.332 "/>
<polyline clip-path="url(#clip990)" style="stroke:#000000; stroke-linecap:round; stroke-linejoin:round; stroke-width:4; stroke-opacity:1; fill:none" points="849.967,171.516 868.865,171.516 "/>
<polyline clip-path="url(#clip990)" style="stroke:#000000; stroke-linecap:round; stroke-linejoin:round; stroke-width:4; stroke-opacity:1; fill:none" points="849.967,64.6998 868.865,64.6998 "/>
<path clip-path="url(#clip990)" d="M759.25 599.232 L788.925 599.232 L788.925 603.167 L759.25 603.167 L759.25 599.232 Z" fill="#000000" fill-rule="nonzero" fill-opacity="1" /><path clip-path="url(#clip990)" d="M799.064 581.501 L817.421 581.501 L817.421 585.436 L803.347 585.436 L803.347 593.908 Q804.365 593.561 805.384 593.399 Q806.402 593.214 807.421 593.214 Q813.208 593.214 816.587 596.385 Q819.967 599.556 819.967 604.973 Q819.967 610.551 816.495 613.653 Q813.022 616.732 806.703 616.732 Q804.527 616.732 802.259 616.362 Q800.013 615.991 797.606 615.251 L797.606 610.551 Q799.689 611.686 801.911 612.241 Q804.134 612.797 806.61 612.797 Q810.615 612.797 812.953 610.69 Q815.291 608.584 815.291 604.973 Q815.291 601.362 812.953 599.255 Q810.615 597.149 806.61 597.149 Q804.735 597.149 802.861 597.565 Q801.009 597.982 799.064 598.862 L799.064 581.501 Z" fill="#000000" fill-rule="nonzero" fill-opacity="1" /><path clip-path="url(#clip990)" d="M757.768 492.416 L787.444 492.416 L787.444 496.351 L757.768 496.351 L757.768 492.416 Z" fill="#000000" fill-rule="nonzero" fill-opacity="1" /><path clip-path="url(#clip990)" d="M810.384 478.759 L798.578 497.208 L810.384 497.208 L810.384 478.759 M809.157 474.685 L815.036 474.685 L815.036 497.208 L819.967 497.208 L819.967 501.096 L815.036 501.096 L815.036 509.245 L810.384 509.245 L810.384 501.096 L794.782 501.096 L794.782 496.583 L809.157 474.685 Z" fill="#000000" fill-rule="nonzero" fill-opacity="1" /><path clip-path="url(#clip990)" d="M758.902 385.6 L788.578 385.6 L788.578 389.535 L758.902 389.535 L758.902 385.6 Z" fill="#000000" fill-rule="nonzero" fill-opacity="1" /><path clip-path="url(#clip990)" d="M812.837 383.794 Q816.194 384.512 818.069 386.78 Q819.967 389.049 819.967 392.382 Q819.967 397.498 816.448 400.299 Q812.93 403.1 806.448 403.1 Q804.273 403.1 801.958 402.66 Q799.666 402.243 797.212 401.387 L797.212 396.873 Q799.157 398.007 801.472 398.586 Q803.786 399.164 806.31 399.164 Q810.708 399.164 812.999 397.428 Q815.314 395.692 815.314 392.382 Q815.314 389.327 813.161 387.614 Q811.032 385.878 807.212 385.878 L803.185 385.878 L803.185 382.035 L807.398 382.035 Q810.847 382.035 812.675 380.669 Q814.504 379.28 814.504 376.688 Q814.504 374.026 812.606 372.614 Q810.731 371.179 807.212 371.179 Q805.291 371.179 803.092 371.595 Q800.893 372.012 798.254 372.891 L798.254 368.725 Q800.916 367.984 803.231 367.614 Q805.569 367.243 807.629 367.243 Q812.953 367.243 816.055 369.674 Q819.157 372.081 819.157 376.202 Q819.157 379.072 817.513 381.063 Q815.87 383.03 812.837 383.794 Z" fill="#000000" fill-rule="nonzero" fill-opacity="1" /><path clip-path="url(#clip990)" d="M759.851 278.784 L789.527 278.784 L789.527 282.719 L759.851 282.719 L759.851 278.784 Z" fill="#000000" fill-rule="nonzero" fill-opacity="1" /><path clip-path="url(#clip990)" d="M803.648 291.677 L819.967 291.677 L819.967 295.612 L798.023 295.612 L798.023 291.677 Q800.685 288.922 805.268 284.293 Q809.874 279.64 811.055 278.297 Q813.3 275.774 814.18 274.038 Q815.083 272.279 815.083 270.589 Q815.083 267.835 813.138 266.098 Q811.217 264.362 808.115 264.362 Q805.916 264.362 803.462 265.126 Q801.032 265.89 798.254 267.441 L798.254 262.719 Q801.078 261.585 803.532 261.006 Q805.985 260.427 808.023 260.427 Q813.393 260.427 816.587 263.112 Q819.782 265.798 819.782 270.288 Q819.782 272.418 818.972 274.339 Q818.184 276.237 816.078 278.83 Q815.499 279.501 812.397 282.719 Q809.296 285.913 803.648 291.677 Z" fill="#000000" fill-rule="nonzero" fill-opacity="1" /><path clip-path="url(#clip990)" d="M759.481 171.967 L789.157 171.967 L789.157 175.903 L759.481 175.903 L759.481 171.967 Z" fill="#000000" fill-rule="nonzero" fill-opacity="1" /><path clip-path="url(#clip990)" d="M800.06 184.861 L807.698 184.861 L807.698 158.495 L799.388 160.162 L799.388 155.903 L807.652 154.236 L812.328 154.236 L812.328 184.861 L819.967 184.861 L819.967 188.796 L800.06 188.796 L800.06 184.861 Z" fill="#000000" fill-rule="nonzero" fill-opacity="1" /><path clip-path="url(#clip990)" d="M808.023 50.4985 Q804.411 50.4985 802.583 54.0633 Q800.777 57.6049 800.777 64.7345 Q800.777 71.841 802.583 75.4057 Q804.411 78.9474 808.023 78.9474 Q811.657 78.9474 813.462 75.4057 Q815.291 71.841 815.291 64.7345 Q815.291 57.6049 813.462 54.0633 Q811.657 50.4985 808.023 50.4985 M808.023 46.7948 Q813.833 46.7948 816.888 51.4012 Q819.967 55.9846 819.967 64.7345 Q819.967 73.4613 816.888 78.0678 Q813.833 82.6511 808.023 82.6511 Q802.212 82.6511 799.134 78.0678 Q796.078 73.4613 796.078 64.7345 Q796.078 55.9846 799.134 51.4012 Q802.212 46.7948 808.023 46.7948 Z" fill="#000000" fill-rule="nonzero" fill-opacity="1" /><polyline clip-path="url(#clip993)" style="stroke:#009af9; stroke-linecap:round; stroke-linejoin:round; stroke-width:4; stroke-opacity:1; fill:none" points="862.347,646.556 864.477,641.634 866.607,636.712 879.084,607.884 891.56,579.056 894.462,572.35 897.364,565.645 898.815,562.292 900.266,558.94 901.717,555.587 903.168,552.234 905.112,552.17 907.057,552.17 909.002,552.17 910.947,552.17 914.837,552.17 918.726,552.17 931.583,552.17 943.538,552.17 958.546,552.17 972.008,552.17 987.417,552.17 998.935,552.17 1013.67,552.17 1027.11,552.17 1034.77,552.17 1042.42,552.17 1048.48,552.17 1054.55,552.17 1058.32,552.17 1062.08,552.17 1063.03,552.17 1063.97,552.17 1064.91,550.193 1065.85,548.017 1067.74,543.664 1069.62,539.31 1075.39,525.975 1081.16,512.64 1097.44,475.038 1109.6,446.939 1123.43,414.984 1137.12,383.338 1152.19,348.521 1163.7,321.927 1178.22,288.368 1191.66,257.329 1205.51,225.317 1219.55,192.87 1234.21,158.989 1245.76,132.3 1272.07,71.5192 1275.02,64.6998 "/>
<path clip-path="url(#clip990)" d="M864.548 171.483 L960.351 171.483 L960.351 67.803 L864.548 67.803  Z" fill="#ffffff" fill-rule="evenodd" fill-opacity="1"/>
<polyline clip-path="url(#clip990)" style="stroke:#000000; stroke-linecap:round; stroke-linejoin:round; stroke-width:4; stroke-opacity:1; fill:none" points="864.548,171.483 960.351,171.483 960.351,67.803 864.548,67.803 864.548,171.483 "/>
<polyline clip-path="url(#clip990)" style="stroke:#009af9; stroke-linecap:round; stroke-linejoin:round; stroke-width:4; stroke-opacity:1; fill:none" points="869.408,119.643 898.571,119.643 "/>
<path clip-path="url(#clip990)" d="M916.695 104.956 L928.662 136.923 L924.149 136.923 L916.88 117.756 L907.945 136.923 L903.431 136.923 L914.797 112.062 L913.084 107.479 Q911.996 104.562 909.519 104.562 L907.297 104.562 L907.297 100.905 L910.005 100.951 Q915.237 101.02 916.695 104.956 Z" fill="#000000" fill-rule="nonzero" fill-opacity="1" /><path clip-path="url(#clip990)" d="M939.172 132.988 L955.491 132.988 L955.491 136.923 L933.547 136.923 L933.547 132.988 Q936.209 130.233 940.792 125.604 Q945.398 120.951 946.579 119.608 Q948.824 117.085 949.704 115.349 Q950.607 113.59 950.607 111.9 Q950.607 109.145 948.662 107.409 Q946.741 105.673 943.639 105.673 Q941.44 105.673 938.986 106.437 Q936.556 107.201 933.778 108.752 L933.778 104.03 Q936.602 102.895 939.056 102.317 Q941.51 101.738 943.547 101.738 Q948.917 101.738 952.111 104.423 Q955.306 107.108 955.306 111.599 Q955.306 113.729 954.496 115.65 Q953.709 117.548 951.602 120.141 Q951.023 120.812 947.922 124.03 Q944.82 127.224 939.172 132.988 Z" fill="#000000" fill-rule="nonzero" fill-opacity="1" /><path clip-path="url(#clip990)" d="M1515.32 664.012 L1952.76 664.012 L1952.76 47.2441 L1515.32 47.2441  Z" fill="#ffffff" fill-rule="evenodd" fill-opacity="1"/>
<defs>
  <clipPath id="clip994">
    <rect x="1515" y="47" width="438" height="618"/>
  </clipPath>
</defs>
<polyline clip-path="url(#clip994)" style="stroke:#000000; stroke-linecap:round; stroke-linejoin:round; stroke-width:2; stroke-opacity:0.1; fill:none" points="1527.7,664.012 1527.7,47.2441 "/>
<polyline clip-path="url(#clip994)" style="stroke:#000000; stroke-linecap:round; stroke-linejoin:round; stroke-width:2; stroke-opacity:0.1; fill:none" points="1601.67,664.012 1601.67,47.2441 "/>
<polyline clip-path="url(#clip994)" style="stroke:#000000; stroke-linecap:round; stroke-linejoin:round; stroke-width:2; stroke-opacity:0.1; fill:none" points="1675.63,664.012 1675.63,47.2441 "/>
<polyline clip-path="url(#clip994)" style="stroke:#000000; stroke-linecap:round; stroke-linejoin:round; stroke-width:2; stroke-opacity:0.1; fill:none" points="1749.59,664.012 1749.59,47.2441 "/>
<polyline clip-path="url(#clip994)" style="stroke:#000000; stroke-linecap:round; stroke-linejoin:round; stroke-width:2; stroke-opacity:0.1; fill:none" points="1823.56,664.012 1823.56,47.2441 "/>
<polyline clip-path="url(#clip994)" style="stroke:#000000; stroke-linecap:round; stroke-linejoin:round; stroke-width:2; stroke-opacity:0.1; fill:none" points="1897.52,664.012 1897.52,47.2441 "/>
<polyline clip-path="url(#clip994)" style="stroke:#000000; stroke-linecap:round; stroke-linejoin:round; stroke-width:2; stroke-opacity:0.1; fill:none" points="1515.32,557.688 1952.76,557.688 "/>
<polyline clip-path="url(#clip994)" style="stroke:#000000; stroke-linecap:round; stroke-linejoin:round; stroke-width:2; stroke-opacity:0.1; fill:none" points="1515.32,441.317 1952.76,441.317 "/>
<polyline clip-path="url(#clip994)" style="stroke:#000000; stroke-linecap:round; stroke-linejoin:round; stroke-width:2; stroke-opacity:0.1; fill:none" points="1515.32,324.945 1952.76,324.945 "/>
<polyline clip-path="url(#clip994)" style="stroke:#000000; stroke-linecap:round; stroke-linejoin:round; stroke-width:2; stroke-opacity:0.1; fill:none" points="1515.32,208.574 1952.76,208.574 "/>
<polyline clip-path="url(#clip994)" style="stroke:#000000; stroke-linecap:round; stroke-linejoin:round; stroke-width:2; stroke-opacity:0.1; fill:none" points="1515.32,92.2028 1952.76,92.2028 "/>
<polyline clip-path="url(#clip990)" style="stroke:#000000; stroke-linecap:round; stroke-linejoin:round; stroke-width:4; stroke-opacity:1; fill:none" points="1515.32,664.012 1952.76,664.012 "/>
<polyline clip-path="url(#clip990)" style="stroke:#000000; stroke-linecap:round; stroke-linejoin:round; stroke-width:4; stroke-opacity:1; fill:none" points="1527.7,664.012 1527.7,645.114 "/>
<polyline clip-path="url(#clip990)" style="stroke:#000000; stroke-linecap:round; stroke-linejoin:round; stroke-width:4; stroke-opacity:1; fill:none" points="1601.67,664.012 1601.67,645.114 "/>
<polyline clip-path="url(#clip990)" style="stroke:#000000; stroke-linecap:round; stroke-linejoin:round; stroke-width:4; stroke-opacity:1; fill:none" points="1675.63,664.012 1675.63,645.114 "/>
<polyline clip-path="url(#clip990)" style="stroke:#000000; stroke-linecap:round; stroke-linejoin:round; stroke-width:4; stroke-opacity:1; fill:none" points="1749.59,664.012 1749.59,645.114 "/>
<polyline clip-path="url(#clip990)" style="stroke:#000000; stroke-linecap:round; stroke-linejoin:round; stroke-width:4; stroke-opacity:1; fill:none" points="1823.56,664.012 1823.56,645.114 "/>
<polyline clip-path="url(#clip990)" style="stroke:#000000; stroke-linecap:round; stroke-linejoin:round; stroke-width:4; stroke-opacity:1; fill:none" points="1897.52,664.012 1897.52,645.114 "/>
<path clip-path="url(#clip990)" d="M1527.7 691.731 Q1524.09 691.731 1522.26 695.295 Q1520.46 698.837 1520.46 705.967 Q1520.46 713.073 1522.26 716.638 Q1524.09 720.179 1527.7 720.179 Q1531.34 720.179 1533.14 716.638 Q1534.97 713.073 1534.97 705.967 Q1534.97 698.837 1533.14 695.295 Q1531.34 691.731 1527.7 691.731 M1527.7 688.027 Q1533.51 688.027 1536.57 692.633 Q1539.65 697.217 1539.65 705.967 Q1539.65 714.693 1536.57 719.3 Q1533.51 723.883 1527.7 723.883 Q1521.89 723.883 1518.81 719.3 Q1515.76 714.693 1515.76 705.967 Q1515.76 697.217 1518.81 692.633 Q1521.89 688.027 1527.7 688.027 Z" fill="#000000" fill-rule="nonzero" fill-opacity="1" /><path clip-path="url(#clip990)" d="M1576.35 719.277 L1583.99 719.277 L1583.99 692.911 L1575.68 694.578 L1575.68 690.319 L1583.95 688.652 L1588.62 688.652 L1588.62 719.277 L1596.26 719.277 L1596.26 723.212 L1576.35 723.212 L1576.35 719.277 Z" fill="#000000" fill-rule="nonzero" fill-opacity="1" /><path clip-path="url(#clip990)" d="M1615.71 691.731 Q1612.09 691.731 1610.27 695.295 Q1608.46 698.837 1608.46 705.967 Q1608.46 713.073 1610.27 716.638 Q1612.09 720.179 1615.71 720.179 Q1619.34 720.179 1621.15 716.638 Q1622.97 713.073 1622.97 705.967 Q1622.97 698.837 1621.15 695.295 Q1619.34 691.731 1615.71 691.731 M1615.71 688.027 Q1621.52 688.027 1624.57 692.633 Q1627.65 697.217 1627.65 705.967 Q1627.65 714.693 1624.57 719.3 Q1621.52 723.883 1615.71 723.883 Q1609.9 723.883 1606.82 719.3 Q1603.76 714.693 1603.76 705.967 Q1603.76 697.217 1606.82 692.633 Q1609.9 688.027 1615.71 688.027 Z" fill="#000000" fill-rule="nonzero" fill-opacity="1" /><path clip-path="url(#clip990)" d="M1654.4 719.277 L1670.72 719.277 L1670.72 723.212 L1648.78 723.212 L1648.78 719.277 Q1651.44 716.522 1656.02 711.892 Q1660.63 707.24 1661.81 705.897 Q1664.06 703.374 1664.94 701.638 Q1665.84 699.879 1665.84 698.189 Q1665.84 695.434 1663.89 693.698 Q1661.97 691.962 1658.87 691.962 Q1656.67 691.962 1654.22 692.726 Q1651.79 693.49 1649.01 695.041 L1649.01 690.319 Q1651.83 689.184 1654.29 688.606 Q1656.74 688.027 1658.78 688.027 Q1664.15 688.027 1667.34 690.712 Q1670.54 693.397 1670.54 697.888 Q1670.54 700.018 1669.73 701.939 Q1668.94 703.837 1666.83 706.43 Q1666.26 707.101 1663.15 710.318 Q1660.05 713.513 1654.4 719.277 Z" fill="#000000" fill-rule="nonzero" fill-opacity="1" /><path clip-path="url(#clip990)" d="M1690.54 691.731 Q1686.93 691.731 1685.1 695.295 Q1683.29 698.837 1683.29 705.967 Q1683.29 713.073 1685.1 716.638 Q1686.93 720.179 1690.54 720.179 Q1694.17 720.179 1695.98 716.638 Q1697.81 713.073 1697.81 705.967 Q1697.81 698.837 1695.98 695.295 Q1694.17 691.731 1690.54 691.731 M1690.54 688.027 Q1696.35 688.027 1699.4 692.633 Q1702.48 697.217 1702.48 705.967 Q1702.48 714.693 1699.4 719.3 Q1696.35 723.883 1690.54 723.883 Q1684.73 723.883 1681.65 719.3 Q1678.59 714.693 1678.59 705.967 Q1678.59 697.217 1681.65 692.633 Q1684.73 688.027 1690.54 688.027 Z" fill="#000000" fill-rule="nonzero" fill-opacity="1" /><path clip-path="url(#clip990)" d="M1738.44 704.578 Q1741.79 705.295 1743.67 707.564 Q1745.57 709.832 1745.57 713.166 Q1745.57 718.281 1742.05 721.082 Q1738.53 723.883 1732.05 723.883 Q1729.87 723.883 1727.56 723.443 Q1725.27 723.027 1722.81 722.17 L1722.81 717.656 Q1724.76 718.791 1727.07 719.369 Q1729.39 719.948 1731.91 719.948 Q1736.31 719.948 1738.6 718.212 Q1740.91 716.476 1740.91 713.166 Q1740.91 710.11 1738.76 708.397 Q1736.63 706.661 1732.81 706.661 L1728.78 706.661 L1728.78 702.818 L1733 702.818 Q1736.45 702.818 1738.28 701.453 Q1740.1 700.064 1740.1 697.471 Q1740.1 694.809 1738.21 693.397 Q1736.33 691.962 1732.81 691.962 Q1730.89 691.962 1728.69 692.379 Q1726.49 692.795 1723.85 693.675 L1723.85 689.508 Q1726.52 688.768 1728.83 688.397 Q1731.17 688.027 1733.23 688.027 Q1738.55 688.027 1741.65 690.457 Q1744.76 692.865 1744.76 696.985 Q1744.76 699.855 1743.11 701.846 Q1741.47 703.814 1738.44 704.578 Z" fill="#000000" fill-rule="nonzero" fill-opacity="1" /><path clip-path="url(#clip990)" d="M1764.43 691.731 Q1760.82 691.731 1758.99 695.295 Q1757.19 698.837 1757.19 705.967 Q1757.19 713.073 1758.99 716.638 Q1760.82 720.179 1764.43 720.179 Q1768.07 720.179 1769.87 716.638 Q1771.7 713.073 1771.7 705.967 Q1771.7 698.837 1769.87 695.295 Q1768.07 691.731 1764.43 691.731 M1764.43 688.027 Q1770.24 688.027 1773.3 692.633 Q1776.38 697.217 1776.38 705.967 Q1776.38 714.693 1773.3 719.3 Q1770.24 723.883 1764.43 723.883 Q1758.62 723.883 1755.54 719.3 Q1752.49 714.693 1752.49 705.967 Q1752.49 697.217 1755.54 692.633 Q1758.62 688.027 1764.43 688.027 Z" fill="#000000" fill-rule="nonzero" fill-opacity="1" /><path clip-path="url(#clip990)" d="M1811.73 692.726 L1799.92 711.175 L1811.73 711.175 L1811.73 692.726 M1810.5 688.652 L1816.38 688.652 L1816.38 711.175 L1821.31 711.175 L1821.31 715.064 L1816.38 715.064 L1816.38 723.212 L1811.73 723.212 L1811.73 715.064 L1796.13 715.064 L1796.13 710.55 L1810.5 688.652 Z" fill="#000000" fill-rule="nonzero" fill-opacity="1" /><path clip-path="url(#clip990)" d="M1839.04 691.731 Q1835.43 691.731 1833.61 695.295 Q1831.8 698.837 1831.8 705.967 Q1831.8 713.073 1833.61 716.638 Q1835.43 720.179 1839.04 720.179 Q1842.68 720.179 1844.48 716.638 Q1846.31 713.073 1846.31 705.967 Q1846.31 698.837 1844.48 695.295 Q1842.68 691.731 1839.04 691.731 M1839.04 688.027 Q1844.86 688.027 1847.91 692.633 Q1850.99 697.217 1850.99 705.967 Q1850.99 714.693 1847.91 719.3 Q1844.86 723.883 1839.04 723.883 Q1833.23 723.883 1830.16 719.3 Q1827.1 714.693 1827.1 705.967 Q1827.1 697.217 1830.16 692.633 Q1833.23 688.027 1839.04 688.027 Z" fill="#000000" fill-rule="nonzero" fill-opacity="1" /><path clip-path="url(#clip990)" d="M1872.22 688.652 L1890.58 688.652 L1890.58 692.587 L1876.5 692.587 L1876.5 701.059 Q1877.52 700.712 1878.54 700.55 Q1879.56 700.365 1880.58 700.365 Q1886.37 700.365 1889.75 703.536 Q1893.13 706.707 1893.13 712.124 Q1893.13 717.703 1889.65 720.804 Q1886.18 723.883 1879.86 723.883 Q1877.69 723.883 1875.42 723.513 Q1873.17 723.142 1870.76 722.402 L1870.76 717.703 Q1872.85 718.837 1875.07 719.392 Q1877.29 719.948 1879.77 719.948 Q1883.77 719.948 1886.11 717.842 Q1888.45 715.735 1888.45 712.124 Q1888.45 708.513 1886.11 706.406 Q1883.77 704.3 1879.77 704.3 Q1877.89 704.3 1876.02 704.717 Q1874.17 705.133 1872.22 706.013 L1872.22 688.652 Z" fill="#000000" fill-rule="nonzero" fill-opacity="1" /><path clip-path="url(#clip990)" d="M1912.34 691.731 Q1908.73 691.731 1906.9 695.295 Q1905.09 698.837 1905.09 705.967 Q1905.09 713.073 1906.9 716.638 Q1908.73 720.179 1912.34 720.179 Q1915.97 720.179 1917.78 716.638 Q1919.61 713.073 1919.61 705.967 Q1919.61 698.837 1917.78 695.295 Q1915.97 691.731 1912.34 691.731 M1912.34 688.027 Q1918.15 688.027 1921.2 692.633 Q1924.28 697.217 1924.28 705.967 Q1924.28 714.693 1921.2 719.3 Q1918.15 723.883 1912.34 723.883 Q1906.53 723.883 1903.45 719.3 Q1900.39 714.693 1900.39 705.967 Q1900.39 697.217 1903.45 692.633 Q1906.53 688.027 1912.34 688.027 Z" fill="#000000" fill-rule="nonzero" fill-opacity="1" /><path clip-path="url(#clip990)" d="M1733.1 757.106 L1733.1 767.228 L1745.16 767.228 L1745.16 771.779 L1733.1 771.779 L1733.1 791.131 Q1733.1 795.492 1734.28 796.733 Q1735.49 797.974 1739.15 797.974 L1745.16 797.974 L1745.16 802.876 L1739.15 802.876 Q1732.37 802.876 1729.79 800.361 Q1727.21 797.815 1727.21 791.131 L1727.21 771.779 L1722.91 771.779 L1722.91 767.228 L1727.21 767.228 L1727.21 757.106 L1733.1 757.106 Z" fill="#000000" fill-rule="nonzero" fill-opacity="1" /><polyline clip-path="url(#clip990)" style="stroke:#000000; stroke-linecap:round; stroke-linejoin:round; stroke-width:4; stroke-opacity:1; fill:none" points="1515.32,664.012 1515.32,47.2441 "/>
<polyline clip-path="url(#clip990)" style="stroke:#000000; stroke-linecap:round; stroke-linejoin:round; stroke-width:4; stroke-opacity:1; fill:none" points="1515.32,557.688 1534.22,557.688 "/>
<polyline clip-path="url(#clip990)" style="stroke:#000000; stroke-linecap:round; stroke-linejoin:round; stroke-width:4; stroke-opacity:1; fill:none" points="1515.32,441.317 1534.22,441.317 "/>
<polyline clip-path="url(#clip990)" style="stroke:#000000; stroke-linecap:round; stroke-linejoin:round; stroke-width:4; stroke-opacity:1; fill:none" points="1515.32,324.945 1534.22,324.945 "/>
<polyline clip-path="url(#clip990)" style="stroke:#000000; stroke-linecap:round; stroke-linejoin:round; stroke-width:4; stroke-opacity:1; fill:none" points="1515.32,208.574 1534.22,208.574 "/>
<polyline clip-path="url(#clip990)" style="stroke:#000000; stroke-linecap:round; stroke-linejoin:round; stroke-width:4; stroke-opacity:1; fill:none" points="1515.32,92.2028 1534.22,92.2028 "/>
<path clip-path="url(#clip990)" d="M1388.79 571.033 L1396.43 571.033 L1396.43 544.667 L1388.12 546.334 L1388.12 542.075 L1396.39 540.408 L1401.06 540.408 L1401.06 571.033 L1408.7 571.033 L1408.7 574.968 L1388.79 574.968 L1388.79 571.033 Z" fill="#000000" fill-rule="nonzero" fill-opacity="1" /><path clip-path="url(#clip990)" d="M1418.96 571.033 L1426.6 571.033 L1426.6 544.667 L1418.29 546.334 L1418.29 542.075 L1426.55 540.408 L1431.22 540.408 L1431.22 571.033 L1438.86 571.033 L1438.86 574.968 L1418.96 574.968 L1418.96 571.033 Z" fill="#000000" fill-rule="nonzero" fill-opacity="1" /><path clip-path="url(#clip990)" d="M1448.31 569.088 L1453.19 569.088 L1453.19 574.968 L1448.31 574.968 L1448.31 569.088 Z" fill="#000000" fill-rule="nonzero" fill-opacity="1" /><path clip-path="url(#clip990)" d="M1473.38 543.487 Q1469.77 543.487 1467.94 547.051 Q1466.13 550.593 1466.13 557.723 Q1466.13 564.829 1467.94 568.394 Q1469.77 571.936 1473.38 571.936 Q1477.01 571.936 1478.82 568.394 Q1480.65 564.829 1480.65 557.723 Q1480.65 550.593 1478.82 547.051 Q1477.01 543.487 1473.38 543.487 M1473.38 539.783 Q1479.19 539.783 1482.24 544.389 Q1485.32 548.973 1485.32 557.723 Q1485.32 566.449 1482.24 571.056 Q1479.19 575.639 1473.38 575.639 Q1467.57 575.639 1464.49 571.056 Q1461.43 566.449 1461.43 557.723 Q1461.43 548.973 1464.49 544.389 Q1467.57 539.783 1473.38 539.783 Z" fill="#000000" fill-rule="nonzero" fill-opacity="1" /><path clip-path="url(#clip990)" d="M1390.39 454.661 L1398.03 454.661 L1398.03 428.296 L1389.72 429.963 L1389.72 425.703 L1397.98 424.037 L1402.66 424.037 L1402.66 454.661 L1410.3 454.661 L1410.3 458.597 L1390.39 458.597 L1390.39 454.661 Z" fill="#000000" fill-rule="nonzero" fill-opacity="1" /><path clip-path="url(#clip990)" d="M1420.55 454.661 L1428.19 454.661 L1428.19 428.296 L1419.88 429.963 L1419.88 425.703 L1428.15 424.037 L1432.82 424.037 L1432.82 454.661 L1440.46 454.661 L1440.46 458.597 L1420.55 458.597 L1420.55 454.661 Z" fill="#000000" fill-rule="nonzero" fill-opacity="1" /><path clip-path="url(#clip990)" d="M1449.91 452.717 L1454.79 452.717 L1454.79 458.597 L1449.91 458.597 L1449.91 452.717 Z" fill="#000000" fill-rule="nonzero" fill-opacity="1" /><path clip-path="url(#clip990)" d="M1469 454.661 L1485.32 454.661 L1485.32 458.597 L1463.38 458.597 L1463.38 454.661 Q1466.04 451.907 1470.62 447.277 Q1475.23 442.624 1476.41 441.282 Q1478.66 438.759 1479.53 437.023 Q1480.44 435.263 1480.44 433.574 Q1480.44 430.819 1478.49 429.083 Q1476.57 427.347 1473.47 427.347 Q1471.27 427.347 1468.82 428.111 Q1466.39 428.875 1463.61 430.425 L1463.61 425.703 Q1466.43 424.569 1468.89 423.99 Q1471.34 423.412 1473.38 423.412 Q1478.75 423.412 1481.94 426.097 Q1485.14 428.782 1485.14 433.273 Q1485.14 435.402 1484.33 437.324 Q1483.54 439.222 1481.43 441.814 Q1480.85 442.486 1477.75 445.703 Q1474.65 448.898 1469 454.661 Z" fill="#000000" fill-rule="nonzero" fill-opacity="1" /><path clip-path="url(#clip990)" d="M1388.31 338.29 L1395.95 338.29 L1395.95 311.925 L1387.64 313.591 L1387.64 309.332 L1395.9 307.665 L1400.58 307.665 L1400.58 338.29 L1408.22 338.29 L1408.22 342.225 L1388.31 342.225 L1388.31 338.29 Z" fill="#000000" fill-rule="nonzero" fill-opacity="1" /><path clip-path="url(#clip990)" d="M1418.47 338.29 L1426.11 338.29 L1426.11 311.925 L1417.8 313.591 L1417.8 309.332 L1426.06 307.665 L1430.74 307.665 L1430.74 338.29 L1438.38 338.29 L1438.38 342.225 L1418.47 342.225 L1418.47 338.29 Z" fill="#000000" fill-rule="nonzero" fill-opacity="1" /><path clip-path="url(#clip990)" d="M1447.82 336.346 L1452.71 336.346 L1452.71 342.225 L1447.82 342.225 L1447.82 336.346 Z" fill="#000000" fill-rule="nonzero" fill-opacity="1" /><path clip-path="url(#clip990)" d="M1475.74 311.739 L1463.93 330.188 L1475.74 330.188 L1475.74 311.739 M1474.51 307.665 L1480.39 307.665 L1480.39 330.188 L1485.32 330.188 L1485.32 334.077 L1480.39 334.077 L1480.39 342.225 L1475.74 342.225 L1475.74 334.077 L1460.14 334.077 L1460.14 329.563 L1474.51 307.665 Z" fill="#000000" fill-rule="nonzero" fill-opacity="1" /><path clip-path="url(#clip990)" d="M1388.63 221.919 L1396.27 221.919 L1396.27 195.553 L1387.96 197.22 L1387.96 192.961 L1396.23 191.294 L1400.9 191.294 L1400.9 221.919 L1408.54 221.919 L1408.54 225.854 L1388.63 225.854 L1388.63 221.919 Z" fill="#000000" fill-rule="nonzero" fill-opacity="1" /><path clip-path="url(#clip990)" d="M1418.79 221.919 L1426.43 221.919 L1426.43 195.553 L1418.12 197.22 L1418.12 192.961 L1426.39 191.294 L1431.06 191.294 L1431.06 221.919 L1438.7 221.919 L1438.7 225.854 L1418.79 225.854 L1418.79 221.919 Z" fill="#000000" fill-rule="nonzero" fill-opacity="1" /><path clip-path="url(#clip990)" d="M1448.15 219.974 L1453.03 219.974 L1453.03 225.854 L1448.15 225.854 L1448.15 219.974 Z" fill="#000000" fill-rule="nonzero" fill-opacity="1" /><path clip-path="url(#clip990)" d="M1473.79 206.711 Q1470.65 206.711 1468.79 208.863 Q1466.97 211.016 1466.97 214.766 Q1466.97 218.493 1468.79 220.669 Q1470.65 222.822 1473.79 222.822 Q1476.94 222.822 1478.77 220.669 Q1480.62 218.493 1480.62 214.766 Q1480.62 211.016 1478.77 208.863 Q1476.94 206.711 1473.79 206.711 M1483.08 192.058 L1483.08 196.317 Q1481.32 195.484 1479.51 195.044 Q1477.73 194.604 1475.97 194.604 Q1471.34 194.604 1468.89 197.729 Q1466.46 200.854 1466.11 207.174 Q1467.47 205.16 1469.53 204.095 Q1471.6 203.007 1474.07 203.007 Q1479.28 203.007 1482.29 206.178 Q1485.32 209.326 1485.32 214.766 Q1485.32 220.09 1482.17 223.308 Q1479.03 226.525 1473.79 226.525 Q1467.8 226.525 1464.63 221.942 Q1461.46 217.336 1461.46 208.609 Q1461.46 200.414 1465.35 195.553 Q1469.23 190.669 1475.78 190.669 Q1477.54 190.669 1479.33 191.016 Q1481.13 191.364 1483.08 192.058 Z" fill="#000000" fill-rule="nonzero" fill-opacity="1" /><path clip-path="url(#clip990)" d="M1388.89 105.548 L1396.53 105.548 L1396.53 79.182 L1388.22 80.8487 L1388.22 76.5895 L1396.48 74.9228 L1401.16 74.9228 L1401.16 105.548 L1408.79 105.548 L1408.79 109.483 L1388.89 109.483 L1388.89 105.548 Z" fill="#000000" fill-rule="nonzero" fill-opacity="1" /><path clip-path="url(#clip990)" d="M1419.05 105.548 L1426.69 105.548 L1426.69 79.182 L1418.38 80.8487 L1418.38 76.5895 L1426.64 74.9228 L1431.32 74.9228 L1431.32 105.548 L1438.96 105.548 L1438.96 109.483 L1419.05 109.483 L1419.05 105.548 Z" fill="#000000" fill-rule="nonzero" fill-opacity="1" /><path clip-path="url(#clip990)" d="M1448.4 103.603 L1453.28 103.603 L1453.28 109.483 L1448.4 109.483 L1448.4 103.603 Z" fill="#000000" fill-rule="nonzero" fill-opacity="1" /><path clip-path="url(#clip990)" d="M1473.47 93.0709 Q1470.14 93.0709 1468.22 94.8533 Q1466.32 96.6357 1466.32 99.7606 Q1466.32 102.886 1468.22 104.668 Q1470.14 106.45 1473.47 106.45 Q1476.8 106.45 1478.72 104.668 Q1480.65 102.862 1480.65 99.7606 Q1480.65 96.6357 1478.72 94.8533 Q1476.83 93.0709 1473.47 93.0709 M1468.79 91.0801 Q1465.78 90.3394 1464.1 88.2792 Q1462.43 86.219 1462.43 83.2561 Q1462.43 79.1126 1465.37 76.7052 Q1468.33 74.2978 1473.47 74.2978 Q1478.63 74.2978 1481.57 76.7052 Q1484.51 79.1126 1484.51 83.2561 Q1484.51 86.219 1482.82 88.2792 Q1481.16 90.3394 1478.17 91.0801 Q1481.55 91.8672 1483.42 94.1588 Q1485.32 96.4505 1485.32 99.7606 Q1485.32 104.784 1482.24 107.469 Q1479.19 110.154 1473.47 110.154 Q1467.75 110.154 1464.67 107.469 Q1461.62 104.784 1461.62 99.7606 Q1461.62 96.4505 1463.52 94.1588 Q1465.41 91.8672 1468.79 91.0801 M1467.08 83.6959 Q1467.08 86.3811 1468.75 87.8857 Q1470.44 89.3903 1473.47 89.3903 Q1476.48 89.3903 1478.17 87.8857 Q1479.88 86.3811 1479.88 83.6959 Q1479.88 81.0107 1478.17 79.5061 Q1476.48 78.0015 1473.47 78.0015 Q1470.44 78.0015 1468.75 79.5061 Q1467.08 81.0107 1467.08 83.6959 Z" fill="#000000" fill-rule="nonzero" fill-opacity="1" /><polyline clip-path="url(#clip994)" style="stroke:#009af9; stroke-linecap:round; stroke-linejoin:round; stroke-width:4; stroke-opacity:1; fill:none" points="1527.7,646.556 1531.96,646.556 1556.91,646.556 1568.52,646.556 1584.08,646.556 1596.94,646.556 1608.89,646.556 1623.9,646.556 1637.36,646.556 1652.77,646.556 1664.29,646.556 1679.02,646.556 1692.47,646.556 1707.77,646.556 1719.9,646.556 1734.97,646.556 1746.52,646.556 1762.79,646.556 1774.95,646.556 1788.78,646.556 1802.48,646.556 1817.54,646.556 1829.05,646.556 1843.58,646.556 1857.01,646.556 1870.86,646.556 1884.91,646.556 1899.57,646.556 1911.12,646.556 1937.42,646.556 1940.38,646.556 "/>
<path clip-path="url(#clip990)" d="M1841.42 171.483 L1938.17 171.483 L1938.17 67.803 L1841.42 67.803  Z" fill="#ffffff" fill-rule="evenodd" fill-opacity="1"/>
<polyline clip-path="url(#clip990)" style="stroke:#000000; stroke-linecap:round; stroke-linejoin:round; stroke-width:4; stroke-opacity:1; fill:none" points="1841.42,171.483 1938.17,171.483 1938.17,67.803 1841.42,67.803 1841.42,171.483 "/>
<polyline clip-path="url(#clip990)" style="stroke:#009af9; stroke-linecap:round; stroke-linejoin:round; stroke-width:4; stroke-opacity:1; fill:none" points="1846.28,119.643 1875.45,119.643 "/>
<path clip-path="url(#clip990)" d="M1893.57 104.956 L1905.54 136.923 L1901.02 136.923 L1893.75 117.756 L1884.82 136.923 L1880.31 136.923 L1891.67 112.062 L1889.96 107.479 Q1888.87 104.562 1886.39 104.562 L1884.17 104.562 L1884.17 100.905 L1886.88 100.951 Q1892.11 101.02 1893.57 104.956 Z" fill="#000000" fill-rule="nonzero" fill-opacity="1" /><path clip-path="url(#clip990)" d="M1926.18 118.289 Q1929.54 119.006 1931.42 121.275 Q1933.31 123.543 1933.31 126.877 Q1933.31 131.992 1929.8 134.793 Q1926.28 137.594 1919.8 137.594 Q1917.62 137.594 1915.31 137.154 Q1913.01 136.738 1910.56 135.881 L1910.56 131.367 Q1912.5 132.502 1914.82 133.08 Q1917.13 133.659 1919.66 133.659 Q1924.06 133.659 1926.35 131.923 Q1928.66 130.187 1928.66 126.877 Q1928.66 123.821 1926.51 122.108 Q1924.38 120.372 1920.56 120.372 L1916.53 120.372 L1916.53 116.53 L1920.75 116.53 Q1924.19 116.53 1926.02 115.164 Q1927.85 113.775 1927.85 111.182 Q1927.85 108.52 1925.95 107.108 Q1924.08 105.673 1920.56 105.673 Q1918.64 105.673 1916.44 106.09 Q1914.24 106.507 1911.6 107.386 L1911.6 103.219 Q1914.26 102.479 1916.58 102.108 Q1918.92 101.738 1920.98 101.738 Q1926.3 101.738 1929.4 104.169 Q1932.5 106.576 1932.5 110.696 Q1932.5 113.567 1930.86 115.557 Q1929.22 117.525 1926.18 118.289 Z" fill="#000000" fill-rule="nonzero" fill-opacity="1" /></svg>
