<?xml version="1.0" encoding="utf-8"?>
<svg xmlns="http://www.w3.org/2000/svg" xmlns:xlink="http://www.w3.org/1999/xlink" width="500" height="200" viewBox="0 0 2000 800">
<defs>
  <clipPath id="clip750">
    <rect x="0" y="0" width="2000" height="800"/>
  </clipPath>
</defs>
<path clip-path="url(#clip750)" d="M0 800 L2000 800 L2000 0 L0 0  Z" fill="#ffffff" fill-rule="evenodd" fill-opacity="1"/>
<defs>
  <clipPath id="clip751">
    <rect x="400" y="0" width="1401" height="800"/>
  </clipPath>
</defs>
<path clip-path="url(#clip750)" d="M189.936 664.012 L1952.76 664.012 L1952.76 47.2441 L189.936 47.2441  Z" fill="#ffffff" fill-rule="evenodd" fill-opacity="1"/>
<defs>
  <clipPath id="clip752">
    <rect x="189" y="47" width="1764" height="618"/>
  </clipPath>
</defs>
<polyline clip-path="url(#clip752)" style="stroke:#000000; stroke-linecap:round; stroke-linejoin:round; stroke-width:2; stroke-opacity:0.1; fill:none" points="239.827,664.012 239.827,47.2441 "/>
<polyline clip-path="url(#clip752)" style="stroke:#000000; stroke-linecap:round; stroke-linejoin:round; stroke-width:2; stroke-opacity:0.1; fill:none" points="537.896,664.012 537.896,47.2441 "/>
<polyline clip-path="url(#clip752)" style="stroke:#000000; stroke-linecap:round; stroke-linejoin:round; stroke-width:2; stroke-opacity:0.1; fill:none" points="835.965,664.012 835.965,47.2441 "/>
<polyline clip-path="url(#clip752)" style="stroke:#000000; stroke-linecap:round; stroke-linejoin:round; stroke-width:2; stroke-opacity:0.1; fill:none" points="1134.03,664.012 1134.03,47.2441 "/>
<polyline clip-path="url(#clip752)" style="stroke:#000000; stroke-linecap:round; stroke-linejoin:round; stroke-width:2; stroke-opacity:0.1; fill:none" points="1432.1,664.012 1432.1,47.2441 "/>
<polyline clip-path="url(#clip752)" style="stroke:#000000; stroke-linecap:round; stroke-linejoin:round; stroke-width:2; stroke-opacity:0.1; fill:none" points="1730.17,664.012 1730.17,47.2441 "/>
<polyline clip-path="url(#clip752)" style="stroke:#000000; stroke-linecap:round; stroke-linejoin:round; stroke-width:2; stroke-opacity:0.1; fill:none" points="189.936,635.977 1952.76,635.977 "/>
<polyline clip-path="url(#clip752)" style="stroke:#000000; stroke-linecap:round; stroke-linejoin:round; stroke-width:2; stroke-opacity:0.1; fill:none" points="189.936,495.802 1952.76,495.802 "/>
<polyline clip-path="url(#clip752)" style="stroke:#000000; stroke-linecap:round; stroke-linejoin:round; stroke-width:2; stroke-opacity:0.1; fill:none" points="189.936,355.628 1952.76,355.628 "/>
<polyline clip-path="url(#clip752)" style="stroke:#000000; stroke-linecap:round; stroke-linejoin:round; stroke-width:2; stroke-opacity:0.1; fill:none" points="189.936,215.453 1952.76,215.453 "/>
<polyline clip-path="url(#clip752)" style="stroke:#000000; stroke-linecap:round; stroke-linejoin:round; stroke-width:2; stroke-opacity:0.1; fill:none" points="189.936,75.279 1952.76,75.279 "/>
<polyline clip-path="url(#clip750)" style="stroke:#000000; stroke-linecap:round; stroke-linejoin:round; stroke-width:4; stroke-opacity:1; fill:none" points="189.936,664.012 1952.76,664.012 "/>
<polyline clip-path="url(#clip750)" style="stroke:#000000; stroke-linecap:round; stroke-linejoin:round; stroke-width:4; stroke-opacity:1; fill:none" points="239.827,664.012 239.827,645.114 "/>
<polyline clip-path="url(#clip750)" style="stroke:#000000; stroke-linecap:round; stroke-linejoin:round; stroke-width:4; stroke-opacity:1; fill:none" points="537.896,664.012 537.896,645.114 "/>
<polyline clip-path="url(#clip750)" style="stroke:#000000; stroke-linecap:round; stroke-linejoin:round; stroke-width:4; stroke-opacity:1; fill:none" points="835.965,664.012 835.965,645.114 "/>
<polyline clip-path="url(#clip750)" style="stroke:#000000; stroke-linecap:round; stroke-linejoin:round; stroke-width:4; stroke-opacity:1; fill:none" points="1134.03,664.012 1134.03,645.114 "/>
<polyline clip-path="url(#clip750)" style="stroke:#000000; stroke-linecap:round; stroke-linejoin:round; stroke-width:4; stroke-opacity:1; fill:none" points="1432.1,664.012 1432.1,645.114 "/>
<polyline clip-path="url(#clip750)" style="stroke:#000000; stroke-linecap:round; stroke-linejoin:round; stroke-width:4; stroke-opacity:1; fill:none" points="1730.17,664.012 1730.17,645.114 "/>
<path clip-path="url(#clip750)" d="M239.827 691.731 Q236.216 691.731 234.387 695.295 Q232.582 698.837 232.582 705.967 Q232.582 713.073 234.387 716.638 Q236.216 720.179 239.827 720.179 Q243.461 720.179 245.267 716.638 Q247.096 713.073 247.096 705.967 Q247.096 698.837 245.267 695.295 Q243.461 691.731 239.827 691.731 M239.827 688.027 Q245.637 688.027 248.693 692.633 Q251.772 697.217 251.772 705.967 Q251.772 714.693 248.693 719.3 Q245.637 723.883 239.827 723.883 Q234.017 723.883 230.938 719.3 Q227.883 714.693 227.883 705.967 Q227.883 697.217 230.938 692.633 Q234.017 688.027 239.827 688.027 Z" fill="#000000" fill-rule="nonzero" fill-opacity="1" /><path clip-path="url(#clip750)" d="M512.584 719.277 L520.223 719.277 L520.223 692.911 L511.913 694.578 L511.913 690.319 L520.176 688.652 L524.852 688.652 L524.852 719.277 L532.491 719.277 L532.491 723.212 L512.584 723.212 L512.584 719.277 Z" fill="#000000" fill-rule="nonzero" fill-opacity="1" /><path clip-path="url(#clip750)" d="M551.936 691.731 Q548.324 691.731 546.496 695.295 Q544.69 698.837 544.69 705.967 Q544.69 713.073 546.496 716.638 Q548.324 720.179 551.936 720.179 Q555.57 720.179 557.375 716.638 Q559.204 713.073 559.204 705.967 Q559.204 698.837 557.375 695.295 Q555.57 691.731 551.936 691.731 M551.936 688.027 Q557.746 688.027 560.801 692.633 Q563.88 697.217 563.88 705.967 Q563.88 714.693 560.801 719.3 Q557.746 723.883 551.936 723.883 Q546.125 723.883 543.047 719.3 Q539.991 714.693 539.991 705.967 Q539.991 697.217 543.047 692.633 Q546.125 688.027 551.936 688.027 Z" fill="#000000" fill-rule="nonzero" fill-opacity="1" /><path clip-path="url(#clip750)" d="M814.739 719.277 L831.058 719.277 L831.058 723.212 L809.114 723.212 L809.114 719.277 Q811.776 716.522 816.359 711.892 Q820.965 707.24 822.146 705.897 Q824.391 703.374 825.271 701.638 Q826.174 699.879 826.174 698.189 Q826.174 695.434 824.229 693.698 Q822.308 691.962 819.206 691.962 Q817.007 691.962 814.553 692.726 Q812.123 693.49 809.345 695.041 L809.345 690.319 Q812.169 689.184 814.623 688.606 Q817.077 688.027 819.114 688.027 Q824.484 688.027 827.678 690.712 Q830.873 693.397 830.873 697.888 Q830.873 700.018 830.063 701.939 Q829.276 703.837 827.169 706.43 Q826.59 707.101 823.489 710.318 Q820.387 713.513 814.739 719.277 Z" fill="#000000" fill-rule="nonzero" fill-opacity="1" /><path clip-path="url(#clip750)" d="M850.873 691.731 Q847.262 691.731 845.433 695.295 Q843.627 698.837 843.627 705.967 Q843.627 713.073 845.433 716.638 Q847.262 720.179 850.873 720.179 Q854.507 720.179 856.313 716.638 Q858.141 713.073 858.141 705.967 Q858.141 698.837 856.313 695.295 Q854.507 691.731 850.873 691.731 M850.873 688.027 Q856.683 688.027 859.738 692.633 Q862.817 697.217 862.817 705.967 Q862.817 714.693 859.738 719.3 Q856.683 723.883 850.873 723.883 Q845.063 723.883 841.984 719.3 Q838.928 714.693 838.928 705.967 Q838.928 697.217 841.984 692.633 Q845.063 688.027 850.873 688.027 Z" fill="#000000" fill-rule="nonzero" fill-opacity="1" /><path clip-path="url(#clip750)" d="M1122.88 704.578 Q1126.23 705.295 1128.11 707.564 Q1130.01 709.832 1130.01 713.166 Q1130.01 718.281 1126.49 721.082 Q1122.97 723.883 1116.49 723.883 Q1114.31 723.883 1112 723.443 Q1109.71 723.027 1107.25 722.17 L1107.25 717.656 Q1109.2 718.791 1111.51 719.369 Q1113.83 719.948 1116.35 719.948 Q1120.75 719.948 1123.04 718.212 Q1125.35 716.476 1125.35 713.166 Q1125.35 710.11 1123.2 708.397 Q1121.07 706.661 1117.25 706.661 L1113.22 706.661 L1113.22 702.818 L1117.44 702.818 Q1120.89 702.818 1122.72 701.453 Q1124.54 700.064 1124.54 697.471 Q1124.54 694.809 1122.65 693.397 Q1120.77 691.962 1117.25 691.962 Q1115.33 691.962 1113.13 692.379 Q1110.93 692.795 1108.29 693.675 L1108.29 689.508 Q1110.96 688.768 1113.27 688.397 Q1115.61 688.027 1117.67 688.027 Q1122.99 688.027 1126.09 690.457 Q1129.2 692.865 1129.2 696.985 Q1129.2 699.855 1127.55 701.846 Q1125.91 703.814 1122.88 704.578 Z" fill="#000000" fill-rule="nonzero" fill-opacity="1" /><path clip-path="url(#clip750)" d="M1148.87 691.731 Q1145.26 691.731 1143.43 695.295 Q1141.63 698.837 1141.63 705.967 Q1141.63 713.073 1143.43 716.638 Q1145.26 720.179 1148.87 720.179 Q1152.51 720.179 1154.31 716.638 Q1156.14 713.073 1156.14 705.967 Q1156.14 698.837 1154.31 695.295 Q1152.51 691.731 1148.87 691.731 M1148.87 688.027 Q1154.68 688.027 1157.74 692.633 Q1160.82 697.217 1160.82 705.967 Q1160.82 714.693 1157.74 719.3 Q1154.68 723.883 1148.87 723.883 Q1143.06 723.883 1139.98 719.3 Q1136.93 714.693 1136.93 705.967 Q1136.93 697.217 1139.98 692.633 Q1143.06 688.027 1148.87 688.027 Z" fill="#000000" fill-rule="nonzero" fill-opacity="1" /><path clip-path="url(#clip750)" d="M1420.28 692.726 L1408.47 711.175 L1420.28 711.175 L1420.28 692.726 M1419.05 688.652 L1424.93 688.652 L1424.93 711.175 L1429.86 711.175 L1429.86 715.064 L1424.93 715.064 L1424.93 723.212 L1420.28 723.212 L1420.28 715.064 L1404.67 715.064 L1404.67 710.55 L1419.05 688.652 Z" fill="#000000" fill-rule="nonzero" fill-opacity="1" /><path clip-path="url(#clip750)" d="M1447.59 691.731 Q1443.98 691.731 1442.15 695.295 Q1440.34 698.837 1440.34 705.967 Q1440.34 713.073 1442.15 716.638 Q1443.98 720.179 1447.59 720.179 Q1451.22 720.179 1453.03 716.638 Q1454.86 713.073 1454.86 705.967 Q1454.86 698.837 1453.03 695.295 Q1451.22 691.731 1447.59 691.731 M1447.59 688.027 Q1453.4 688.027 1456.46 692.633 Q1459.53 697.217 1459.53 705.967 Q1459.53 714.693 1456.46 719.3 Q1453.4 723.883 1447.59 723.883 Q1441.78 723.883 1438.7 719.3 Q1435.65 714.693 1435.65 705.967 Q1435.65 697.217 1438.7 692.633 Q1441.78 688.027 1447.59 688.027 Z" fill="#000000" fill-rule="nonzero" fill-opacity="1" /><path clip-path="url(#clip750)" d="M1704.87 688.652 L1723.23 688.652 L1723.23 692.587 L1709.15 692.587 L1709.15 701.059 Q1710.17 700.712 1711.19 700.55 Q1712.21 700.365 1713.23 700.365 Q1719.02 700.365 1722.4 703.536 Q1725.77 706.707 1725.77 712.124 Q1725.77 717.703 1722.3 720.804 Q1718.83 723.883 1712.51 723.883 Q1710.33 723.883 1708.07 723.513 Q1705.82 723.142 1703.41 722.402 L1703.41 717.703 Q1705.5 718.837 1707.72 719.392 Q1709.94 719.948 1712.42 719.948 Q1716.42 719.948 1718.76 717.842 Q1721.1 715.735 1721.1 712.124 Q1721.1 708.513 1718.76 706.406 Q1716.42 704.3 1712.42 704.3 Q1710.54 704.3 1708.67 704.717 Q1706.82 705.133 1704.87 706.013 L1704.87 688.652 Z" fill="#000000" fill-rule="nonzero" fill-opacity="1" /><path clip-path="url(#clip750)" d="M1744.99 691.731 Q1741.38 691.731 1739.55 695.295 Q1737.74 698.837 1737.74 705.967 Q1737.74 713.073 1739.55 716.638 Q1741.38 720.179 1744.99 720.179 Q1748.62 720.179 1750.43 716.638 Q1752.26 713.073 1752.26 705.967 Q1752.26 698.837 1750.43 695.295 Q1748.62 691.731 1744.99 691.731 M1744.99 688.027 Q1750.8 688.027 1753.85 692.633 Q1756.93 697.217 1756.93 705.967 Q1756.93 714.693 1753.85 719.3 Q1750.8 723.883 1744.99 723.883 Q1739.18 723.883 1736.1 719.3 Q1733.04 714.693 1733.04 705.967 Q1733.04 697.217 1736.1 692.633 Q1739.18 688.027 1744.99 688.027 Z" fill="#000000" fill-rule="nonzero" fill-opacity="1" /><path clip-path="url(#clip750)" d="M1070.41 757.106 L1070.41 767.228 L1082.47 767.228 L1082.47 771.779 L1070.41 771.779 L1070.41 791.131 Q1070.41 795.492 1071.58 796.733 Q1072.79 797.974 1076.45 797.974 L1082.47 797.974 L1082.47 802.876 L1076.45 802.876 Q1069.67 802.876 1067.1 800.361 Q1064.52 797.815 1064.52 791.131 L1064.52 771.779 L1060.22 771.779 L1060.22 767.228 L1064.52 767.228 L1064.52 757.106 L1070.41 757.106 Z" fill="#000000" fill-rule="nonzero" fill-opacity="1" /><polyline clip-path="url(#clip750)" style="stroke:#000000; stroke-linecap:round; stroke-linejoin:round; stroke-width:4; stroke-opacity:1; fill:none" points="189.936,664.012 189.936,47.2441 "/>
<polyline clip-path="url(#clip750)" style="stroke:#000000; stroke-linecap:round; stroke-linejoin:round; stroke-width:4; stroke-opacity:1; fill:none" points="189.936,635.977 208.834,635.977 "/>
<polyline clip-path="url(#clip750)" style="stroke:#000000; stroke-linecap:round; stroke-linejoin:round; stroke-width:4; stroke-opacity:1; fill:none" points="189.936,495.802 208.834,495.802 "/>
<polyline clip-path="url(#clip750)" style="stroke:#000000; stroke-linecap:round; stroke-linejoin:round; stroke-width:4; stroke-opacity:1; fill:none" points="189.936,355.628 208.834,355.628 "/>
<polyline clip-path="url(#clip750)" style="stroke:#000000; stroke-linecap:round; stroke-linejoin:round; stroke-width:4; stroke-opacity:1; fill:none" points="189.936,215.453 208.834,215.453 "/>
<polyline clip-path="url(#clip750)" style="stroke:#000000; stroke-linecap:round; stroke-linejoin:round; stroke-width:4; stroke-opacity:1; fill:none" points="189.936,75.279 208.834,75.279 "/>
<path clip-path="url(#clip750)" d="M52.9921 636.428 L82.6679 636.428 L82.6679 640.363 L52.9921 640.363 L52.9921 636.428 Z" fill="#000000" fill-rule="nonzero" fill-opacity="1" /><path clip-path="url(#clip750)" d="M93.5706 649.322 L101.209 649.322 L101.209 622.956 L92.8993 624.623 L92.8993 620.364 L101.163 618.697 L105.839 618.697 L105.839 649.322 L113.478 649.322 L113.478 653.257 L93.5706 653.257 L93.5706 649.322 Z" fill="#000000" fill-rule="nonzero" fill-opacity="1" /><path clip-path="url(#clip750)" d="M122.922 647.377 L127.807 647.377 L127.807 653.257 L122.922 653.257 L122.922 647.377 Z" fill="#000000" fill-rule="nonzero" fill-opacity="1" /><path clip-path="url(#clip750)" d="M147.992 621.776 Q144.381 621.776 142.552 625.34 Q140.746 628.882 140.746 636.012 Q140.746 643.118 142.552 646.683 Q144.381 650.225 147.992 650.225 Q151.626 650.225 153.431 646.683 Q155.26 643.118 155.26 636.012 Q155.26 628.882 153.431 625.34 Q151.626 621.776 147.992 621.776 M147.992 618.072 Q153.802 618.072 156.857 622.678 Q159.936 627.262 159.936 636.012 Q159.936 644.738 156.857 649.345 Q153.802 653.928 147.992 653.928 Q142.181 653.928 139.103 649.345 Q136.047 644.738 136.047 636.012 Q136.047 627.262 139.103 622.678 Q142.181 618.072 147.992 618.072 Z" fill="#000000" fill-rule="nonzero" fill-opacity="1" /><path clip-path="url(#clip750)" d="M53.9875 496.254 L83.6633 496.254 L83.6633 500.189 L53.9875 500.189 L53.9875 496.254 Z" fill="#000000" fill-rule="nonzero" fill-opacity="1" /><path clip-path="url(#clip750)" d="M103.756 481.601 Q100.145 481.601 98.316 485.166 Q96.5104 488.708 96.5104 495.837 Q96.5104 502.944 98.316 506.508 Q100.145 510.05 103.756 510.05 Q107.39 510.05 109.196 506.508 Q111.024 502.944 111.024 495.837 Q111.024 488.708 109.196 485.166 Q107.39 481.601 103.756 481.601 M103.756 477.897 Q109.566 477.897 112.621 482.504 Q115.7 487.087 115.7 495.837 Q115.7 504.564 112.621 509.17 Q109.566 513.754 103.756 513.754 Q97.9456 513.754 94.8669 509.17 Q91.8114 504.564 91.8114 495.837 Q91.8114 487.087 94.8669 482.504 Q97.9456 477.897 103.756 477.897 Z" fill="#000000" fill-rule="nonzero" fill-opacity="1" /><path clip-path="url(#clip750)" d="M123.918 507.203 L128.802 507.203 L128.802 513.082 L123.918 513.082 L123.918 507.203 Z" fill="#000000" fill-rule="nonzero" fill-opacity="1" /><path clip-path="url(#clip750)" d="M139.033 478.522 L157.39 478.522 L157.39 482.458 L143.316 482.458 L143.316 490.93 Q144.334 490.583 145.353 490.421 Q146.371 490.235 147.39 490.235 Q153.177 490.235 156.556 493.407 Q159.936 496.578 159.936 501.995 Q159.936 507.573 156.464 510.675 Q152.992 513.754 146.672 513.754 Q144.496 513.754 142.228 513.383 Q139.982 513.013 137.575 512.272 L137.575 507.573 Q139.658 508.707 141.881 509.263 Q144.103 509.819 146.58 509.819 Q150.584 509.819 152.922 507.712 Q155.26 505.606 155.26 501.995 Q155.26 498.383 152.922 496.277 Q150.584 494.171 146.58 494.171 Q144.705 494.171 142.83 494.587 Q140.978 495.004 139.033 495.883 L139.033 478.522 Z" fill="#000000" fill-rule="nonzero" fill-opacity="1" /><path clip-path="url(#clip750)" d="M102.76 341.427 Q99.1493 341.427 97.3206 344.991 Q95.515 348.533 95.515 355.663 Q95.515 362.769 97.3206 366.334 Q99.1493 369.876 102.76 369.876 Q106.395 369.876 108.2 366.334 Q110.029 362.769 110.029 355.663 Q110.029 348.533 108.2 344.991 Q106.395 341.427 102.76 341.427 M102.76 337.723 Q108.571 337.723 111.626 342.329 Q114.705 346.913 114.705 355.663 Q114.705 364.389 111.626 368.996 Q108.571 373.579 102.76 373.579 Q96.9502 373.579 93.8715 368.996 Q90.816 364.389 90.816 355.663 Q90.816 346.913 93.8715 342.329 Q96.9502 337.723 102.76 337.723 Z" fill="#000000" fill-rule="nonzero" fill-opacity="1" /><path clip-path="url(#clip750)" d="M122.922 367.028 L127.807 367.028 L127.807 372.908 L122.922 372.908 L122.922 367.028 Z" fill="#000000" fill-rule="nonzero" fill-opacity="1" /><path clip-path="url(#clip750)" d="M147.992 341.427 Q144.381 341.427 142.552 344.991 Q140.746 348.533 140.746 355.663 Q140.746 362.769 142.552 366.334 Q144.381 369.876 147.992 369.876 Q151.626 369.876 153.431 366.334 Q155.26 362.769 155.26 355.663 Q155.26 348.533 153.431 344.991 Q151.626 341.427 147.992 341.427 M147.992 337.723 Q153.802 337.723 156.857 342.329 Q159.936 346.913 159.936 355.663 Q159.936 364.389 156.857 368.996 Q153.802 373.579 147.992 373.579 Q142.181 373.579 139.103 368.996 Q136.047 364.389 136.047 355.663 Q136.047 346.913 139.103 342.329 Q142.181 337.723 147.992 337.723 Z" fill="#000000" fill-rule="nonzero" fill-opacity="1" /><path clip-path="url(#clip750)" d="M103.756 201.252 Q100.145 201.252 98.316 204.817 Q96.5104 208.359 96.5104 215.488 Q96.5104 222.595 98.316 226.159 Q100.145 229.701 103.756 229.701 Q107.39 229.701 109.196 226.159 Q111.024 222.595 111.024 215.488 Q111.024 208.359 109.196 204.817 Q107.39 201.252 103.756 201.252 M103.756 197.548 Q109.566 197.548 112.621 202.155 Q115.7 206.738 115.7 215.488 Q115.7 224.215 112.621 228.821 Q109.566 233.405 103.756 233.405 Q97.9456 233.405 94.8669 228.821 Q91.8114 224.215 91.8114 215.488 Q91.8114 206.738 94.8669 202.155 Q97.9456 197.548 103.756 197.548 Z" fill="#000000" fill-rule="nonzero" fill-opacity="1" /><path clip-path="url(#clip750)" d="M123.918 226.854 L128.802 226.854 L128.802 232.733 L123.918 232.733 L123.918 226.854 Z" fill="#000000" fill-rule="nonzero" fill-opacity="1" /><path clip-path="url(#clip750)" d="M139.033 198.173 L157.39 198.173 L157.39 202.109 L143.316 202.109 L143.316 210.581 Q144.334 210.234 145.353 210.072 Q146.371 209.886 147.39 209.886 Q153.177 209.886 156.556 213.058 Q159.936 216.229 159.936 221.646 Q159.936 227.224 156.464 230.326 Q152.992 233.405 146.672 233.405 Q144.496 233.405 142.228 233.034 Q139.982 232.664 137.575 231.923 L137.575 227.224 Q139.658 228.359 141.881 228.914 Q144.103 229.47 146.58 229.47 Q150.584 229.47 152.922 227.363 Q155.26 225.257 155.26 221.646 Q155.26 218.034 152.922 215.928 Q150.584 213.822 146.58 213.822 Q144.705 213.822 142.83 214.238 Q140.978 214.655 139.033 215.534 L139.033 198.173 Z" fill="#000000" fill-rule="nonzero" fill-opacity="1" /><path clip-path="url(#clip750)" d="M93.5706 88.6238 L101.209 88.6238 L101.209 62.2582 L92.8993 63.9249 L92.8993 59.6656 L101.163 57.999 L105.839 57.999 L105.839 88.6238 L113.478 88.6238 L113.478 92.559 L93.5706 92.559 L93.5706 88.6238 Z" fill="#000000" fill-rule="nonzero" fill-opacity="1" /><path clip-path="url(#clip750)" d="M122.922 86.6794 L127.807 86.6794 L127.807 92.559 L122.922 92.559 L122.922 86.6794 Z" fill="#000000" fill-rule="nonzero" fill-opacity="1" /><path clip-path="url(#clip750)" d="M147.992 61.0777 Q144.381 61.0777 142.552 64.6425 Q140.746 68.1841 140.746 75.3137 Q140.746 82.4202 142.552 85.985 Q144.381 89.5266 147.992 89.5266 Q151.626 89.5266 153.431 85.985 Q155.26 82.4202 155.26 75.3137 Q155.26 68.1841 153.431 64.6425 Q151.626 61.0777 147.992 61.0777 M147.992 57.374 Q153.802 57.374 156.857 61.9805 Q159.936 66.5638 159.936 75.3137 Q159.936 84.0405 156.857 88.647 Q153.802 93.2303 147.992 93.2303 Q142.181 93.2303 139.103 88.647 Q136.047 84.0405 136.047 75.3137 Q136.047 66.5638 139.103 61.9805 Q142.181 57.374 147.992 57.374 Z" fill="#000000" fill-rule="nonzero" fill-opacity="1" /><polyline clip-path="url(#clip752)" style="stroke:#009af9; stroke-linecap:round; stroke-linejoin:round; stroke-width:4; stroke-opacity:1; fill:none" points="239.827,75.279 241.527,75.279 251.48,75.279 256.11,75.279 262.317,75.279 267.445,75.279 272.214,75.279 278.201,75.279 283.571,75.279 289.717,75.279 294.312,75.279 300.189,75.279 305.552,75.279 311.657,75.279 316.496,75.279 322.508,75.279 327.112,75.279 333.604,75.279 338.454,75.279 343.971,75.279 349.434,75.279 355.445,75.279 360.036,75.279 365.829,75.279 371.188,75.279 376.714,75.279 382.315,75.279 388.164,75.279 392.772,75.279 403.265,75.279 404.442,75.279 "/>
<polyline clip-path="url(#clip752)" style="stroke:#009af9; stroke-linecap:round; stroke-linejoin:round; stroke-width:4; stroke-opacity:1; fill:none" points="404.442,125.069 411.134,125.069 450.331,125.069 468.565,125.069 493.005,125.069 513.201,125.069 531.981,125.069 555.556,125.069 576.703,125.069 600.908,125.069 619.002,125.069 642.144,125.069 663.266,125.069 687.305,125.069 706.362,125.069 730.037,125.069 748.168,125.069 773.731,125.069 792.834,125.069 814.557,125.069 836.071,125.069 859.741,125.069 877.82,125.069 900.635,125.069 921.736,125.069 943.498,125.069 965.557,125.069 988.59,125.069 1006.73,125.069 1048.05,125.069 1052.69,125.069 "/>
<polyline clip-path="url(#clip752)" style="stroke:#009af9; stroke-linecap:round; stroke-linejoin:round; stroke-width:4; stroke-opacity:1; fill:none" points="1052.69,75.279 1061.47,75.279 1112.87,75.279 1136.79,75.279 1168.84,75.279 1195.33,75.279 1219.96,75.279 1250.88,75.279 1278.61,75.279 1310.35,75.279 1334.08,75.279 1364.44,75.279 1392.14,75.279 1423.66,75.279 1448.66,75.279 1479.71,75.279 1503.49,75.279 1537.01,75.279 1562.06,75.279 1590.55,75.279 1618.77,75.279 1649.81,75.279 1673.52,75.279 1703.44,75.279 1731.12,75.279 1759.66,75.279 1788.59,75.279 1818.8,75.279 1842.59,75.279 1896.78,75.279 1902.86,75.279 "/>
<path clip-path="url(#clip750)" d="M1696 643.453 L1894 643.453 L1894 539.773 L1696 539.773  Z" fill="#ffffff" fill-rule="evenodd" fill-opacity="1"/>
<polyline clip-path="url(#clip750)" style="stroke:#000000; stroke-linecap:round; stroke-linejoin:round; stroke-width:4; stroke-opacity:1; fill:none" points="1696,643.453 1894,643.453 1894,539.773 1696,539.773 1696,643.453 "/>
<polyline clip-path="url(#clip750)" style="stroke:#009af9; stroke-linecap:round; stroke-linejoin:round; stroke-width:4; stroke-opacity:1; fill:none" points="1715.59,591.613 1833.11,591.613 "/>
<path clip-path="url(#clip750)" d="M1852.7 598.661 L1852.7 582.967 L1856.95 582.967 L1856.95 598.499 Q1856.95 602.18 1858.39 604.032 Q1859.83 605.861 1862.7 605.861 Q1866.14 605.861 1868.14 603.661 Q1870.15 601.462 1870.15 597.666 L1870.15 582.967 L1874.41 582.967 L1874.41 608.893 L1870.15 608.893 L1870.15 604.911 Q1868.6 607.273 1866.54 608.43 Q1864.5 609.564 1861.79 609.564 Q1857.33 609.564 1855.01 606.786 Q1852.7 604.009 1852.7 598.661 M1863.41 582.342 L1863.41 582.342 Z" fill="#000000" fill-rule="nonzero" fill-opacity="1" /></svg>
