<?xml version="1.0" encoding="utf-8"?>
<svg xmlns="http://www.w3.org/2000/svg" xmlns:xlink="http://www.w3.org/1999/xlink" width="600" height="400" viewBox="0 0 2400 1600">
<defs>
  <clipPath id="clip200">
    <rect x="0" y="0" width="2400" height="1600"/>
  </clipPath>
</defs>
<path clip-path="url(#clip200)" d="M0 1600 L2400 1600 L2400 0 L0 0  Z" fill="#ffffff" fill-rule="evenodd" fill-opacity="1"/>
<defs>
  <clipPath id="clip201">
    <rect x="480" y="0" width="1681" height="1600"/>
  </clipPath>
</defs>
<path clip-path="url(#clip200)" d="M235.283 435.111 L2352.76 435.111 L2352.76 101.872 L235.283 101.872  Z" fill="#ffffff" fill-rule="evenodd" fill-opacity="1"/>
<defs>
  <clipPath id="clip202">
    <rect x="235" y="101" width="2118" height="334"/>
  </clipPath>
</defs>
<polyline clip-path="url(#clip202)" style="stroke:#000000; stroke-linecap:round; stroke-linejoin:round; stroke-width:2; stroke-opacity:0.1; fill:none" points="295.211,435.111 295.211,101.872 "/>
<polyline clip-path="url(#clip202)" style="stroke:#000000; stroke-linecap:round; stroke-linejoin:round; stroke-width:2; stroke-opacity:0.1; fill:none" points="653.248,435.111 653.248,101.872 "/>
<polyline clip-path="url(#clip202)" style="stroke:#000000; stroke-linecap:round; stroke-linejoin:round; stroke-width:2; stroke-opacity:0.1; fill:none" points="1011.28,435.111 1011.28,101.872 "/>
<polyline clip-path="url(#clip202)" style="stroke:#000000; stroke-linecap:round; stroke-linejoin:round; stroke-width:2; stroke-opacity:0.1; fill:none" points="1369.32,435.111 1369.32,101.872 "/>
<polyline clip-path="url(#clip202)" style="stroke:#000000; stroke-linecap:round; stroke-linejoin:round; stroke-width:2; stroke-opacity:0.1; fill:none" points="1727.36,435.111 1727.36,101.872 "/>
<polyline clip-path="url(#clip202)" style="stroke:#000000; stroke-linecap:round; stroke-linejoin:round; stroke-width:2; stroke-opacity:0.1; fill:none" points="2085.39,435.111 2085.39,101.872 "/>
<polyline clip-path="url(#clip202)" style="stroke:#000000; stroke-linecap:round; stroke-linejoin:round; stroke-width:2; stroke-opacity:0.1; fill:none" points="235.283,425.679 2352.76,425.679 "/>
<polyline clip-path="url(#clip202)" style="stroke:#000000; stroke-linecap:round; stroke-linejoin:round; stroke-width:2; stroke-opacity:0.1; fill:none" points="235.283,355.761 2352.76,355.761 "/>
<polyline clip-path="url(#clip202)" style="stroke:#000000; stroke-linecap:round; stroke-linejoin:round; stroke-width:2; stroke-opacity:0.1; fill:none" points="235.283,285.844 2352.76,285.844 "/>
<polyline clip-path="url(#clip202)" style="stroke:#000000; stroke-linecap:round; stroke-linejoin:round; stroke-width:2; stroke-opacity:0.1; fill:none" points="235.283,215.926 2352.76,215.926 "/>
<polyline clip-path="url(#clip202)" style="stroke:#000000; stroke-linecap:round; stroke-linejoin:round; stroke-width:2; stroke-opacity:0.1; fill:none" points="235.283,146.008 2352.76,146.008 "/>
<polyline clip-path="url(#clip200)" style="stroke:#000000; stroke-linecap:round; stroke-linejoin:round; stroke-width:4; stroke-opacity:1; fill:none" points="235.283,435.111 2352.76,435.111 "/>
<polyline clip-path="url(#clip200)" style="stroke:#000000; stroke-linecap:round; stroke-linejoin:round; stroke-width:4; stroke-opacity:1; fill:none" points="295.211,435.111 295.211,416.213 "/>
<polyline clip-path="url(#clip200)" style="stroke:#000000; stroke-linecap:round; stroke-linejoin:round; stroke-width:4; stroke-opacity:1; fill:none" points="653.248,435.111 653.248,416.213 "/>
<polyline clip-path="url(#clip200)" style="stroke:#000000; stroke-linecap:round; stroke-linejoin:round; stroke-width:4; stroke-opacity:1; fill:none" points="1011.28,435.111 1011.28,416.213 "/>
<polyline clip-path="url(#clip200)" style="stroke:#000000; stroke-linecap:round; stroke-linejoin:round; stroke-width:4; stroke-opacity:1; fill:none" points="1369.32,435.111 1369.32,416.213 "/>
<polyline clip-path="url(#clip200)" style="stroke:#000000; stroke-linecap:round; stroke-linejoin:round; stroke-width:4; stroke-opacity:1; fill:none" points="1727.36,435.111 1727.36,416.213 "/>
<polyline clip-path="url(#clip200)" style="stroke:#000000; stroke-linecap:round; stroke-linejoin:round; stroke-width:4; stroke-opacity:1; fill:none" points="2085.39,435.111 2085.39,416.213 "/>
<path clip-path="url(#clip200)" d="M295.211 466.029 Q291.6 466.029 289.772 469.594 Q287.966 473.136 287.966 480.265 Q287.966 487.372 289.772 490.937 Q291.6 494.478 295.211 494.478 Q298.846 494.478 300.651 490.937 Q302.48 487.372 302.48 480.265 Q302.48 473.136 300.651 469.594 Q298.846 466.029 295.211 466.029 M295.211 462.326 Q301.021 462.326 304.077 466.932 Q307.156 471.515 307.156 480.265 Q307.156 488.992 304.077 493.599 Q301.021 498.182 295.211 498.182 Q289.401 498.182 286.322 493.599 Q283.267 488.992 283.267 480.265 Q283.267 471.515 286.322 466.932 Q289.401 462.326 295.211 462.326 Z" fill="#000000" fill-rule="nonzero" fill-opacity="1" /><path clip-path="url(#clip200)" d="M627.935 493.575 L635.574 493.575 L635.574 467.21 L627.264 468.876 L627.264 464.617 L635.528 462.951 L640.204 462.951 L640.204 493.575 L647.842 493.575 L647.842 497.511 L627.935 497.511 L627.935 493.575 Z" fill="#000000" fill-rule="nonzero" fill-opacity="1" /><path clip-path="url(#clip200)" d="M667.287 466.029 Q663.676 466.029 661.847 469.594 Q660.041 473.136 660.041 480.265 Q660.041 487.372 661.847 490.937 Q663.676 494.478 667.287 494.478 Q670.921 494.478 672.727 490.937 Q674.555 487.372 674.555 480.265 Q674.555 473.136 672.727 469.594 Q670.921 466.029 667.287 466.029 M667.287 462.326 Q673.097 462.326 676.153 466.932 Q679.231 471.515 679.231 480.265 Q679.231 488.992 676.153 493.599 Q673.097 498.182 667.287 498.182 Q661.477 498.182 658.398 493.599 Q655.342 488.992 655.342 480.265 Q655.342 471.515 658.398 466.932 Q661.477 462.326 667.287 462.326 Z" fill="#000000" fill-rule="nonzero" fill-opacity="1" /><path clip-path="url(#clip200)" d="M990.057 493.575 L1006.38 493.575 L1006.38 497.511 L984.432 497.511 L984.432 493.575 Q987.094 490.821 991.677 486.191 Q996.284 481.538 997.464 480.196 Q999.71 477.673 1000.59 475.937 Q1001.49 474.177 1001.49 472.488 Q1001.49 469.733 999.548 467.997 Q997.626 466.261 994.525 466.261 Q992.326 466.261 989.872 467.025 Q987.441 467.788 984.664 469.339 L984.664 464.617 Q987.488 463.483 989.941 462.904 Q992.395 462.326 994.432 462.326 Q999.802 462.326 1003 465.011 Q1006.19 467.696 1006.19 472.187 Q1006.19 474.316 1005.38 476.238 Q1004.59 478.136 1002.49 480.728 Q1001.91 481.4 998.807 484.617 Q995.705 487.812 990.057 493.575 Z" fill="#000000" fill-rule="nonzero" fill-opacity="1" /><path clip-path="url(#clip200)" d="M1026.19 466.029 Q1022.58 466.029 1020.75 469.594 Q1018.95 473.136 1018.95 480.265 Q1018.95 487.372 1020.75 490.937 Q1022.58 494.478 1026.19 494.478 Q1029.83 494.478 1031.63 490.937 Q1033.46 487.372 1033.46 480.265 Q1033.46 473.136 1031.63 469.594 Q1029.83 466.029 1026.19 466.029 M1026.19 462.326 Q1032 462.326 1035.06 466.932 Q1038.14 471.515 1038.14 480.265 Q1038.14 488.992 1035.06 493.599 Q1032 498.182 1026.19 498.182 Q1020.38 498.182 1017.3 493.599 Q1014.25 488.992 1014.25 480.265 Q1014.25 471.515 1017.3 466.932 Q1020.38 462.326 1026.19 462.326 Z" fill="#000000" fill-rule="nonzero" fill-opacity="1" /><path clip-path="url(#clip200)" d="M1358.16 478.876 Q1361.52 479.594 1363.39 481.862 Q1365.29 484.131 1365.29 487.464 Q1365.29 492.58 1361.77 495.381 Q1358.26 498.182 1351.77 498.182 Q1349.6 498.182 1347.28 497.742 Q1344.99 497.325 1342.54 496.469 L1342.54 491.955 Q1344.48 493.089 1346.8 493.668 Q1349.11 494.247 1351.63 494.247 Q1356.03 494.247 1358.32 492.511 Q1360.64 490.774 1360.64 487.464 Q1360.64 484.409 1358.49 482.696 Q1356.36 480.96 1352.54 480.96 L1348.51 480.96 L1348.51 477.117 L1352.72 477.117 Q1356.17 477.117 1358 475.751 Q1359.83 474.363 1359.83 471.77 Q1359.83 469.108 1357.93 467.696 Q1356.06 466.261 1352.54 466.261 Q1350.62 466.261 1348.42 466.677 Q1346.22 467.094 1343.58 467.974 L1343.58 463.807 Q1346.24 463.066 1348.56 462.696 Q1350.89 462.326 1352.95 462.326 Q1358.28 462.326 1361.38 464.756 Q1364.48 467.163 1364.48 471.284 Q1364.48 474.154 1362.84 476.145 Q1361.19 478.113 1358.16 478.876 Z" fill="#000000" fill-rule="nonzero" fill-opacity="1" /><path clip-path="url(#clip200)" d="M1384.16 466.029 Q1380.55 466.029 1378.72 469.594 Q1376.91 473.136 1376.91 480.265 Q1376.91 487.372 1378.72 490.937 Q1380.55 494.478 1384.16 494.478 Q1387.79 494.478 1389.6 490.937 Q1391.43 487.372 1391.43 480.265 Q1391.43 473.136 1389.6 469.594 Q1387.79 466.029 1384.16 466.029 M1384.16 462.326 Q1389.97 462.326 1393.02 466.932 Q1396.1 471.515 1396.1 480.265 Q1396.1 488.992 1393.02 493.599 Q1389.97 498.182 1384.16 498.182 Q1378.35 498.182 1375.27 493.599 Q1372.21 488.992 1372.21 480.265 Q1372.21 471.515 1375.27 466.932 Q1378.35 462.326 1384.16 462.326 Z" fill="#000000" fill-rule="nonzero" fill-opacity="1" /><path clip-path="url(#clip200)" d="M1715.53 467.025 L1703.72 485.474 L1715.53 485.474 L1715.53 467.025 M1714.3 462.951 L1720.18 462.951 L1720.18 485.474 L1725.11 485.474 L1725.11 489.362 L1720.18 489.362 L1720.18 497.511 L1715.53 497.511 L1715.53 489.362 L1699.93 489.362 L1699.93 484.849 L1714.3 462.951 Z" fill="#000000" fill-rule="nonzero" fill-opacity="1" /><path clip-path="url(#clip200)" d="M1742.84 466.029 Q1739.23 466.029 1737.4 469.594 Q1735.6 473.136 1735.6 480.265 Q1735.6 487.372 1737.4 490.937 Q1739.23 494.478 1742.84 494.478 Q1746.48 494.478 1748.28 490.937 Q1750.11 487.372 1750.11 480.265 Q1750.11 473.136 1748.28 469.594 Q1746.48 466.029 1742.84 466.029 M1742.84 462.326 Q1748.65 462.326 1751.71 466.932 Q1754.79 471.515 1754.79 480.265 Q1754.79 488.992 1751.71 493.599 Q1748.65 498.182 1742.84 498.182 Q1737.03 498.182 1733.95 493.599 Q1730.9 488.992 1730.9 480.265 Q1730.9 471.515 1733.95 466.932 Q1737.03 462.326 1742.84 462.326 Z" fill="#000000" fill-rule="nonzero" fill-opacity="1" /><path clip-path="url(#clip200)" d="M2060.09 462.951 L2078.45 462.951 L2078.45 466.886 L2064.37 466.886 L2064.37 475.358 Q2065.39 475.011 2066.41 474.849 Q2067.43 474.663 2068.45 474.663 Q2074.24 474.663 2077.61 477.835 Q2080.99 481.006 2080.99 486.423 Q2080.99 492.001 2077.52 495.103 Q2074.05 498.182 2067.73 498.182 Q2065.55 498.182 2063.29 497.811 Q2061.04 497.441 2058.63 496.7 L2058.63 492.001 Q2060.72 493.136 2062.94 493.691 Q2065.16 494.247 2067.64 494.247 Q2071.64 494.247 2073.98 492.14 Q2076.32 490.034 2076.32 486.423 Q2076.32 482.812 2073.98 480.705 Q2071.64 478.599 2067.64 478.599 Q2065.76 478.599 2063.89 479.015 Q2062.04 479.432 2060.09 480.312 L2060.09 462.951 Z" fill="#000000" fill-rule="nonzero" fill-opacity="1" /><path clip-path="url(#clip200)" d="M2100.21 466.029 Q2096.6 466.029 2094.77 469.594 Q2092.96 473.136 2092.96 480.265 Q2092.96 487.372 2094.77 490.937 Q2096.6 494.478 2100.21 494.478 Q2103.84 494.478 2105.65 490.937 Q2107.48 487.372 2107.48 480.265 Q2107.48 473.136 2105.65 469.594 Q2103.84 466.029 2100.21 466.029 M2100.21 462.326 Q2106.02 462.326 2109.07 466.932 Q2112.15 471.515 2112.15 480.265 Q2112.15 488.992 2109.07 493.599 Q2106.02 498.182 2100.21 498.182 Q2094.4 498.182 2091.32 493.599 Q2088.26 488.992 2088.26 480.265 Q2088.26 471.515 2091.32 466.932 Q2094.4 462.326 2100.21 462.326 Z" fill="#000000" fill-rule="nonzero" fill-opacity="1" /><polyline clip-path="url(#clip200)" style="stroke:#000000; stroke-linecap:round; stroke-linejoin:round; stroke-width:4; stroke-opacity:1; fill:none" points="235.283,435.111 235.283,101.872 "/>
<polyline clip-path="url(#clip200)" style="stroke:#000000; stroke-linecap:round; stroke-linejoin:round; stroke-width:4; stroke-opacity:1; fill:none" points="235.283,425.679 254.18,425.679 "/>
<polyline clip-path="url(#clip200)" style="stroke:#000000; stroke-linecap:round; stroke-linejoin:round; stroke-width:4; stroke-opacity:1; fill:none" points="235.283,355.761 254.18,355.761 "/>
<polyline clip-path="url(#clip200)" style="stroke:#000000; stroke-linecap:round; stroke-linejoin:round; stroke-width:4; stroke-opacity:1; fill:none" points="235.283,285.844 254.18,285.844 "/>
<polyline clip-path="url(#clip200)" style="stroke:#000000; stroke-linecap:round; stroke-linejoin:round; stroke-width:4; stroke-opacity:1; fill:none" points="235.283,215.926 254.18,215.926 "/>
<polyline clip-path="url(#clip200)" style="stroke:#000000; stroke-linecap:round; stroke-linejoin:round; stroke-width:4; stroke-opacity:1; fill:none" points="235.283,146.008 254.18,146.008 "/>
<path clip-path="url(#clip200)" d="M187.338 411.478 Q183.727 411.478 181.899 415.043 Q180.093 418.584 180.093 425.714 Q180.093 432.82 181.899 436.385 Q183.727 439.927 187.338 439.927 Q190.973 439.927 192.778 436.385 Q194.607 432.82 194.607 425.714 Q194.607 418.584 192.778 415.043 Q190.973 411.478 187.338 411.478 M187.338 407.774 Q193.149 407.774 196.204 412.381 Q199.283 416.964 199.283 425.714 Q199.283 434.441 196.204 439.047 Q193.149 443.631 187.338 443.631 Q181.528 443.631 178.45 439.047 Q175.394 434.441 175.394 425.714 Q175.394 416.964 178.45 412.381 Q181.528 407.774 187.338 407.774 Z" fill="#000000" fill-rule="nonzero" fill-opacity="1" /><path clip-path="url(#clip200)" d="M117.825 369.106 L125.464 369.106 L125.464 342.741 L117.154 344.407 L117.154 340.148 L125.418 338.481 L130.093 338.481 L130.093 369.106 L137.732 369.106 L137.732 373.041 L117.825 373.041 L117.825 369.106 Z" fill="#000000" fill-rule="nonzero" fill-opacity="1" /><path clip-path="url(#clip200)" d="M157.177 341.56 Q153.566 341.56 151.737 345.125 Q149.931 348.667 149.931 355.796 Q149.931 362.903 151.737 366.467 Q153.566 370.009 157.177 370.009 Q160.811 370.009 162.616 366.467 Q164.445 362.903 164.445 355.796 Q164.445 348.667 162.616 345.125 Q160.811 341.56 157.177 341.56 M157.177 337.856 Q162.987 337.856 166.042 342.463 Q169.121 347.046 169.121 355.796 Q169.121 364.523 166.042 369.129 Q162.987 373.713 157.177 373.713 Q151.366 373.713 148.288 369.129 Q145.232 364.523 145.232 355.796 Q145.232 347.046 148.288 342.463 Q151.366 337.856 157.177 337.856 Z" fill="#000000" fill-rule="nonzero" fill-opacity="1" /><path clip-path="url(#clip200)" d="M187.338 341.56 Q183.727 341.56 181.899 345.125 Q180.093 348.667 180.093 355.796 Q180.093 362.903 181.899 366.467 Q183.727 370.009 187.338 370.009 Q190.973 370.009 192.778 366.467 Q194.607 362.903 194.607 355.796 Q194.607 348.667 192.778 345.125 Q190.973 341.56 187.338 341.56 M187.338 337.856 Q193.149 337.856 196.204 342.463 Q199.283 347.046 199.283 355.796 Q199.283 364.523 196.204 369.129 Q193.149 373.713 187.338 373.713 Q181.528 373.713 178.45 369.129 Q175.394 364.523 175.394 355.796 Q175.394 347.046 178.45 342.463 Q181.528 337.856 187.338 337.856 Z" fill="#000000" fill-rule="nonzero" fill-opacity="1" /><path clip-path="url(#clip200)" d="M121.043 299.188 L137.362 299.188 L137.362 303.124 L115.418 303.124 L115.418 299.188 Q118.08 296.434 122.663 291.804 Q127.269 287.151 128.45 285.809 Q130.695 283.286 131.575 281.55 Q132.478 279.79 132.478 278.101 Q132.478 275.346 130.533 273.61 Q128.612 271.874 125.51 271.874 Q123.311 271.874 120.857 272.638 Q118.427 273.402 115.649 274.952 L115.649 270.23 Q118.473 269.096 120.927 268.517 Q123.38 267.939 125.418 267.939 Q130.788 267.939 133.982 270.624 Q137.177 273.309 137.177 277.8 Q137.177 279.929 136.367 281.851 Q135.579 283.749 133.473 286.341 Q132.894 287.013 129.792 290.23 Q126.691 293.425 121.043 299.188 Z" fill="#000000" fill-rule="nonzero" fill-opacity="1" /><path clip-path="url(#clip200)" d="M157.177 271.642 Q153.566 271.642 151.737 275.207 Q149.931 278.749 149.931 285.878 Q149.931 292.985 151.737 296.55 Q153.566 300.091 157.177 300.091 Q160.811 300.091 162.616 296.55 Q164.445 292.985 164.445 285.878 Q164.445 278.749 162.616 275.207 Q160.811 271.642 157.177 271.642 M157.177 267.939 Q162.987 267.939 166.042 272.545 Q169.121 277.128 169.121 285.878 Q169.121 294.605 166.042 299.212 Q162.987 303.795 157.177 303.795 Q151.366 303.795 148.288 299.212 Q145.232 294.605 145.232 285.878 Q145.232 277.128 148.288 272.545 Q151.366 267.939 157.177 267.939 Z" fill="#000000" fill-rule="nonzero" fill-opacity="1" /><path clip-path="url(#clip200)" d="M187.338 271.642 Q183.727 271.642 181.899 275.207 Q180.093 278.749 180.093 285.878 Q180.093 292.985 181.899 296.55 Q183.727 300.091 187.338 300.091 Q190.973 300.091 192.778 296.55 Q194.607 292.985 194.607 285.878 Q194.607 278.749 192.778 275.207 Q190.973 271.642 187.338 271.642 M187.338 267.939 Q193.149 267.939 196.204 272.545 Q199.283 277.128 199.283 285.878 Q199.283 294.605 196.204 299.212 Q193.149 303.795 187.338 303.795 Q181.528 303.795 178.45 299.212 Q175.394 294.605 175.394 285.878 Q175.394 277.128 178.45 272.545 Q181.528 267.939 187.338 267.939 Z" fill="#000000" fill-rule="nonzero" fill-opacity="1" /><path clip-path="url(#clip200)" d="M131.181 214.572 Q134.538 215.289 136.413 217.558 Q138.311 219.826 138.311 223.16 Q138.311 228.275 134.792 231.076 Q131.274 233.877 124.793 233.877 Q122.617 233.877 120.302 233.437 Q118.01 233.021 115.556 232.164 L115.556 227.65 Q117.501 228.784 119.816 229.363 Q122.13 229.942 124.654 229.942 Q129.052 229.942 131.343 228.206 Q133.658 226.47 133.658 223.16 Q133.658 220.104 131.505 218.391 Q129.376 216.655 125.556 216.655 L121.529 216.655 L121.529 212.812 L125.742 212.812 Q129.191 212.812 131.019 211.447 Q132.848 210.058 132.848 207.465 Q132.848 204.803 130.95 203.391 Q129.075 201.956 125.556 201.956 Q123.635 201.956 121.436 202.373 Q119.237 202.789 116.598 203.669 L116.598 199.502 Q119.26 198.761 121.575 198.391 Q123.913 198.021 125.973 198.021 Q131.297 198.021 134.399 200.451 Q137.501 202.859 137.501 206.979 Q137.501 209.849 135.857 211.84 Q134.214 213.808 131.181 214.572 Z" fill="#000000" fill-rule="nonzero" fill-opacity="1" /><path clip-path="url(#clip200)" d="M157.177 201.724 Q153.566 201.724 151.737 205.289 Q149.931 208.831 149.931 215.96 Q149.931 223.067 151.737 226.632 Q153.566 230.173 157.177 230.173 Q160.811 230.173 162.616 226.632 Q164.445 223.067 164.445 215.96 Q164.445 208.831 162.616 205.289 Q160.811 201.724 157.177 201.724 M157.177 198.021 Q162.987 198.021 166.042 202.627 Q169.121 207.211 169.121 215.96 Q169.121 224.687 166.042 229.294 Q162.987 233.877 157.177 233.877 Q151.366 233.877 148.288 229.294 Q145.232 224.687 145.232 215.96 Q145.232 207.211 148.288 202.627 Q151.366 198.021 157.177 198.021 Z" fill="#000000" fill-rule="nonzero" fill-opacity="1" /><path clip-path="url(#clip200)" d="M187.338 201.724 Q183.727 201.724 181.899 205.289 Q180.093 208.831 180.093 215.96 Q180.093 223.067 181.899 226.632 Q183.727 230.173 187.338 230.173 Q190.973 230.173 192.778 226.632 Q194.607 223.067 194.607 215.96 Q194.607 208.831 192.778 205.289 Q190.973 201.724 187.338 201.724 M187.338 198.021 Q193.149 198.021 196.204 202.627 Q199.283 207.211 199.283 215.96 Q199.283 224.687 196.204 229.294 Q193.149 233.877 187.338 233.877 Q181.528 233.877 178.45 229.294 Q175.394 224.687 175.394 215.96 Q175.394 207.211 178.45 202.627 Q181.528 198.021 187.338 198.021 Z" fill="#000000" fill-rule="nonzero" fill-opacity="1" /><path clip-path="url(#clip200)" d="M129.862 132.802 L118.056 151.251 L129.862 151.251 L129.862 132.802 M128.635 128.728 L134.515 128.728 L134.515 151.251 L139.445 151.251 L139.445 155.14 L134.515 155.14 L134.515 163.288 L129.862 163.288 L129.862 155.14 L114.26 155.14 L114.26 150.626 L128.635 128.728 Z" fill="#000000" fill-rule="nonzero" fill-opacity="1" /><path clip-path="url(#clip200)" d="M157.177 131.807 Q153.566 131.807 151.737 135.371 Q149.931 138.913 149.931 146.043 Q149.931 153.149 151.737 156.714 Q153.566 160.256 157.177 160.256 Q160.811 160.256 162.616 156.714 Q164.445 153.149 164.445 146.043 Q164.445 138.913 162.616 135.371 Q160.811 131.807 157.177 131.807 M157.177 128.103 Q162.987 128.103 166.042 132.709 Q169.121 137.293 169.121 146.043 Q169.121 154.769 166.042 159.376 Q162.987 163.959 157.177 163.959 Q151.366 163.959 148.288 159.376 Q145.232 154.769 145.232 146.043 Q145.232 137.293 148.288 132.709 Q151.366 128.103 157.177 128.103 Z" fill="#000000" fill-rule="nonzero" fill-opacity="1" /><path clip-path="url(#clip200)" d="M187.338 131.807 Q183.727 131.807 181.899 135.371 Q180.093 138.913 180.093 146.043 Q180.093 153.149 181.899 156.714 Q183.727 160.256 187.338 160.256 Q190.973 160.256 192.778 156.714 Q194.607 153.149 194.607 146.043 Q194.607 138.913 192.778 135.371 Q190.973 131.807 187.338 131.807 M187.338 128.103 Q193.149 128.103 196.204 132.709 Q199.283 137.293 199.283 146.043 Q199.283 154.769 196.204 159.376 Q193.149 163.959 187.338 163.959 Q181.528 163.959 178.45 159.376 Q175.394 154.769 175.394 146.043 Q175.394 137.293 178.45 132.709 Q181.528 128.103 187.338 128.103 Z" fill="#000000" fill-rule="nonzero" fill-opacity="1" /><path clip-path="url(#clip200)" d="M28.3562 264.879 L45.7028 277.769 L64.0042 264.21 L64.0042 271.117 L49.9996 281.493 L64.0042 291.869 L64.0042 298.776 L45.3526 284.931 L28.3562 297.599 L28.3562 290.692 L41.0558 281.239 L28.3562 271.786 L28.3562 264.879 Z" fill="#000000" fill-rule="nonzero" fill-opacity="1" /><path clip-path="url(#clip200)" d="M42.4562 243.936 Q39.719 245.527 39.719 248.742 Q39.719 251.956 42.4562 253.548 Q45.1935 255.171 50.668 255.171 Q56.1743 255.171 58.9116 253.548 Q61.6488 251.956 61.6488 248.742 Q61.6488 245.527 58.9116 243.936 Q56.1743 242.312 50.668 242.312 Q45.1935 242.312 42.4562 243.936 M36.8862 248.742 Q36.8862 243.617 40.4192 240.912 Q43.9522 238.206 50.668 238.206 Q57.4157 238.206 60.9486 240.912 Q64.4816 243.617 64.4816 248.742 Q64.4816 253.898 60.9486 256.603 Q57.4157 259.309 50.668 259.309 Q43.9522 259.309 40.4192 256.603 Q36.8862 253.898 36.8862 248.742 Z" fill="#000000" fill-rule="nonzero" fill-opacity="1" /><path clip-path="url(#clip200)" d="M1250.06 18.3489 L1250.06 22.8801 Q1248.03 21.8384 1245.84 21.3176 Q1243.66 20.7968 1241.31 20.7968 Q1237.74 20.7968 1235.95 21.8905 Q1234.18 22.9843 1234.18 25.1717 Q1234.18 26.8384 1235.45 27.8019 Q1236.73 28.7394 1240.58 29.5988 L1242.22 29.9634 Q1247.33 31.0571 1249.46 33.0623 Q1251.62 35.0415 1251.62 38.6092 Q1251.62 42.6716 1248.39 45.0414 Q1245.19 47.4112 1239.57 47.4112 Q1237.22 47.4112 1234.67 46.9425 Q1232.14 46.4998 1229.33 45.5883 L1229.33 40.6404 Q1231.99 42.0206 1234.57 42.7237 Q1237.14 43.4008 1239.67 43.4008 Q1243.06 43.4008 1244.88 42.255 Q1246.7 41.0831 1246.7 38.9737 Q1246.7 37.0206 1245.37 35.979 Q1244.07 34.9373 1239.62 33.9738 L1237.95 33.5832 Q1233.5 32.6457 1231.52 30.7186 Q1229.54 28.7655 1229.54 25.3801 Q1229.54 21.2655 1232.46 19.0259 Q1235.37 16.7864 1240.74 16.7864 Q1243.39 16.7864 1245.74 17.177 Q1248.08 17.5676 1250.06 18.3489 Z" fill="#000000" fill-rule="nonzero" fill-opacity="1" /><path clip-path="url(#clip200)" d="M1263.99 9.20828 L1263.99 17.4895 L1273.86 17.4895 L1273.86 21.2134 L1263.99 21.2134 L1263.99 37.0467 Q1263.99 40.6144 1264.96 41.63 Q1265.95 42.6456 1268.94 42.6456 L1273.86 42.6456 L1273.86 46.656 L1268.94 46.656 Q1263.39 46.656 1261.29 44.5987 Q1259.18 42.5154 1259.18 37.0467 L1259.18 21.2134 L1255.66 21.2134 L1255.66 17.4895 L1259.18 17.4895 L1259.18 9.20828 L1263.99 9.20828 Z" fill="#000000" fill-rule="nonzero" fill-opacity="1" /><path clip-path="url(#clip200)" d="M1293.42 31.9946 Q1287.61 31.9946 1285.37 33.3227 Q1283.13 34.6509 1283.13 37.854 Q1283.13 40.406 1284.8 41.9164 Q1286.49 43.4008 1289.38 43.4008 Q1293.37 43.4008 1295.76 40.5883 Q1298.19 37.7498 1298.19 33.0623 L1298.19 31.9946 L1293.42 31.9946 M1302.98 30.0155 L1302.98 46.656 L1298.19 46.656 L1298.19 42.2289 Q1296.55 44.8852 1294.1 46.1612 Q1291.65 47.4112 1288.11 47.4112 Q1283.63 47.4112 1280.97 44.9112 Q1278.34 42.3852 1278.34 38.1665 Q1278.34 33.2446 1281.62 30.7446 Q1284.93 28.2446 1291.47 28.2446 L1298.19 28.2446 L1298.19 27.7759 Q1298.19 24.4686 1296 22.6718 Q1293.84 20.8488 1289.9 20.8488 Q1287.4 20.8488 1285.04 21.4478 Q1282.67 22.0468 1280.48 23.2447 L1280.48 18.8176 Q1283.11 17.802 1285.58 17.3072 Q1288.06 16.7864 1290.4 16.7864 Q1296.73 16.7864 1299.85 20.0676 Q1302.98 23.3488 1302.98 30.0155 Z" fill="#000000" fill-rule="nonzero" fill-opacity="1" /><path clip-path="url(#clip200)" d="M1317.59 9.20828 L1317.59 17.4895 L1327.46 17.4895 L1327.46 21.2134 L1317.59 21.2134 L1317.59 37.0467 Q1317.59 40.6144 1318.55 41.63 Q1319.54 42.6456 1322.53 42.6456 L1327.46 42.6456 L1327.46 46.656 L1322.53 46.656 Q1316.99 46.656 1314.88 44.5987 Q1312.77 42.5154 1312.77 37.0467 L1312.77 21.2134 L1309.25 21.2134 L1309.25 17.4895 L1312.77 17.4895 L1312.77 9.20828 L1317.59 9.20828 Z" fill="#000000" fill-rule="nonzero" fill-opacity="1" /><path clip-path="url(#clip200)" d="M1358.71 30.8748 L1358.71 33.2186 L1336.68 33.2186 Q1336.99 38.1665 1339.64 40.7706 Q1342.33 43.3487 1347.09 43.3487 Q1349.85 43.3487 1352.43 42.6716 Q1355.03 41.9946 1357.59 40.6404 L1357.59 45.1716 Q1355.01 46.2654 1352.3 46.8383 Q1349.59 47.4112 1346.81 47.4112 Q1339.83 47.4112 1335.74 43.3487 Q1331.68 39.2862 1331.68 32.3592 Q1331.68 25.1978 1335.53 21.0051 Q1339.41 16.7864 1345.97 16.7864 Q1351.86 16.7864 1355.27 20.5884 Q1358.71 24.3645 1358.71 30.8748 M1353.91 29.4686 Q1353.86 25.5363 1351.7 23.1926 Q1349.57 20.8488 1346.02 20.8488 Q1342.01 20.8488 1339.59 23.1145 Q1337.2 25.3801 1336.83 29.4946 L1353.91 29.4686 Z" fill="#000000" fill-rule="nonzero" fill-opacity="1" /><polyline clip-path="url(#clip202)" style="stroke:#009af9; stroke-linecap:round; stroke-linejoin:round; stroke-width:4; stroke-opacity:1; fill:none" points="295.211,425.679 305.523,424.587 315.834,423.486 376.227,416.85 436.62,409.895 464.715,406.551 492.81,403.138 530.467,397.291 568.125,391.439 630.358,381.768 688.229,372.775 760.877,361.486 826.042,351.36 900.633,339.768 956.389,331.104 1027.7,320.022 1092.79,309.908 1166.87,298.396 1225.59,289.271 1262.07,283.602 1298.55,278.782 1326.49,275.255 1354.42,271.659 1433.2,261.153 1492.06,252.948 1559.01,243.25 1625.3,233.26 1698.24,221.827 1753.95,212.781 1824.26,200.979 1889.28,189.679 1956.34,177.639 2024.32,165.035 2095.3,151.443 2151.21,140.427 2278.54,114.321 2292.83,111.303 "/>
<path clip-path="url(#clip200)" d="M235.283 929.145 L2352.76 929.145 L2352.76 595.907 L235.283 595.907  Z" fill="#ffffff" fill-rule="evenodd" fill-opacity="1"/>
<defs>
  <clipPath id="clip203">
    <rect x="235" y="595" width="2118" height="334"/>
  </clipPath>
</defs>
<polyline clip-path="url(#clip203)" style="stroke:#000000; stroke-linecap:round; stroke-linejoin:round; stroke-width:2; stroke-opacity:0.1; fill:none" points="295.211,929.145 295.211,595.907 "/>
<polyline clip-path="url(#clip203)" style="stroke:#000000; stroke-linecap:round; stroke-linejoin:round; stroke-width:2; stroke-opacity:0.1; fill:none" points="653.248,929.145 653.248,595.907 "/>
<polyline clip-path="url(#clip203)" style="stroke:#000000; stroke-linecap:round; stroke-linejoin:round; stroke-width:2; stroke-opacity:0.1; fill:none" points="1011.28,929.145 1011.28,595.907 "/>
<polyline clip-path="url(#clip203)" style="stroke:#000000; stroke-linecap:round; stroke-linejoin:round; stroke-width:2; stroke-opacity:0.1; fill:none" points="1369.32,929.145 1369.32,595.907 "/>
<polyline clip-path="url(#clip203)" style="stroke:#000000; stroke-linecap:round; stroke-linejoin:round; stroke-width:2; stroke-opacity:0.1; fill:none" points="1727.36,929.145 1727.36,595.907 "/>
<polyline clip-path="url(#clip203)" style="stroke:#000000; stroke-linecap:round; stroke-linejoin:round; stroke-width:2; stroke-opacity:0.1; fill:none" points="2085.39,929.145 2085.39,595.907 "/>
<polyline clip-path="url(#clip203)" style="stroke:#000000; stroke-linecap:round; stroke-linejoin:round; stroke-width:2; stroke-opacity:0.1; fill:none" points="235.283,873.544 2352.76,873.544 "/>
<polyline clip-path="url(#clip203)" style="stroke:#000000; stroke-linecap:round; stroke-linejoin:round; stroke-width:2; stroke-opacity:0.1; fill:none" points="235.283,781.204 2352.76,781.204 "/>
<polyline clip-path="url(#clip203)" style="stroke:#000000; stroke-linecap:round; stroke-linejoin:round; stroke-width:2; stroke-opacity:0.1; fill:none" points="235.283,688.864 2352.76,688.864 "/>
<polyline clip-path="url(#clip203)" style="stroke:#000000; stroke-linecap:round; stroke-linejoin:round; stroke-width:2; stroke-opacity:0.1; fill:none" points="235.283,596.523 2352.76,596.523 "/>
<polyline clip-path="url(#clip200)" style="stroke:#000000; stroke-linecap:round; stroke-linejoin:round; stroke-width:4; stroke-opacity:1; fill:none" points="235.283,929.145 2352.76,929.145 "/>
<polyline clip-path="url(#clip200)" style="stroke:#000000; stroke-linecap:round; stroke-linejoin:round; stroke-width:4; stroke-opacity:1; fill:none" points="295.211,929.145 295.211,910.248 "/>
<polyline clip-path="url(#clip200)" style="stroke:#000000; stroke-linecap:round; stroke-linejoin:round; stroke-width:4; stroke-opacity:1; fill:none" points="653.248,929.145 653.248,910.248 "/>
<polyline clip-path="url(#clip200)" style="stroke:#000000; stroke-linecap:round; stroke-linejoin:round; stroke-width:4; stroke-opacity:1; fill:none" points="1011.28,929.145 1011.28,910.248 "/>
<polyline clip-path="url(#clip200)" style="stroke:#000000; stroke-linecap:round; stroke-linejoin:round; stroke-width:4; stroke-opacity:1; fill:none" points="1369.32,929.145 1369.32,910.248 "/>
<polyline clip-path="url(#clip200)" style="stroke:#000000; stroke-linecap:round; stroke-linejoin:round; stroke-width:4; stroke-opacity:1; fill:none" points="1727.36,929.145 1727.36,910.248 "/>
<polyline clip-path="url(#clip200)" style="stroke:#000000; stroke-linecap:round; stroke-linejoin:round; stroke-width:4; stroke-opacity:1; fill:none" points="2085.39,929.145 2085.39,910.248 "/>
<path clip-path="url(#clip200)" d="M295.211 960.064 Q291.6 960.064 289.772 963.629 Q287.966 967.17 287.966 974.3 Q287.966 981.406 289.772 984.971 Q291.6 988.513 295.211 988.513 Q298.846 988.513 300.651 984.971 Q302.48 981.406 302.48 974.3 Q302.48 967.17 300.651 963.629 Q298.846 960.064 295.211 960.064 M295.211 956.36 Q301.021 956.36 304.077 960.967 Q307.156 965.55 307.156 974.3 Q307.156 983.027 304.077 987.633 Q301.021 992.216 295.211 992.216 Q289.401 992.216 286.322 987.633 Q283.267 983.027 283.267 974.3 Q283.267 965.55 286.322 960.967 Q289.401 956.36 295.211 956.36 Z" fill="#000000" fill-rule="nonzero" fill-opacity="1" /><path clip-path="url(#clip200)" d="M627.935 987.61 L635.574 987.61 L635.574 961.244 L627.264 962.911 L627.264 958.652 L635.528 956.985 L640.204 956.985 L640.204 987.61 L647.842 987.61 L647.842 991.545 L627.935 991.545 L627.935 987.61 Z" fill="#000000" fill-rule="nonzero" fill-opacity="1" /><path clip-path="url(#clip200)" d="M667.287 960.064 Q663.676 960.064 661.847 963.629 Q660.041 967.17 660.041 974.3 Q660.041 981.406 661.847 984.971 Q663.676 988.513 667.287 988.513 Q670.921 988.513 672.727 984.971 Q674.555 981.406 674.555 974.3 Q674.555 967.17 672.727 963.629 Q670.921 960.064 667.287 960.064 M667.287 956.36 Q673.097 956.36 676.153 960.967 Q679.231 965.55 679.231 974.3 Q679.231 983.027 676.153 987.633 Q673.097 992.216 667.287 992.216 Q661.477 992.216 658.398 987.633 Q655.342 983.027 655.342 974.3 Q655.342 965.55 658.398 960.967 Q661.477 956.36 667.287 956.36 Z" fill="#000000" fill-rule="nonzero" fill-opacity="1" /><path clip-path="url(#clip200)" d="M990.057 987.61 L1006.38 987.61 L1006.38 991.545 L984.432 991.545 L984.432 987.61 Q987.094 984.855 991.677 980.226 Q996.284 975.573 997.464 974.23 Q999.71 971.707 1000.59 969.971 Q1001.49 968.212 1001.49 966.522 Q1001.49 963.768 999.548 962.031 Q997.626 960.295 994.525 960.295 Q992.326 960.295 989.872 961.059 Q987.441 961.823 984.664 963.374 L984.664 958.652 Q987.488 957.518 989.941 956.939 Q992.395 956.36 994.432 956.36 Q999.802 956.36 1003 959.045 Q1006.19 961.731 1006.19 966.221 Q1006.19 968.351 1005.38 970.272 Q1004.59 972.17 1002.49 974.763 Q1001.91 975.434 998.807 978.652 Q995.705 981.846 990.057 987.61 Z" fill="#000000" fill-rule="nonzero" fill-opacity="1" /><path clip-path="url(#clip200)" d="M1026.19 960.064 Q1022.58 960.064 1020.75 963.629 Q1018.95 967.17 1018.95 974.3 Q1018.95 981.406 1020.75 984.971 Q1022.58 988.513 1026.19 988.513 Q1029.83 988.513 1031.63 984.971 Q1033.46 981.406 1033.46 974.3 Q1033.46 967.17 1031.63 963.629 Q1029.83 960.064 1026.19 960.064 M1026.19 956.36 Q1032 956.36 1035.06 960.967 Q1038.14 965.55 1038.14 974.3 Q1038.14 983.027 1035.06 987.633 Q1032 992.216 1026.19 992.216 Q1020.38 992.216 1017.3 987.633 Q1014.25 983.027 1014.25 974.3 Q1014.25 965.55 1017.3 960.967 Q1020.38 956.36 1026.19 956.36 Z" fill="#000000" fill-rule="nonzero" fill-opacity="1" /><path clip-path="url(#clip200)" d="M1358.16 972.911 Q1361.52 973.629 1363.39 975.897 Q1365.29 978.166 1365.29 981.499 Q1365.29 986.615 1361.77 989.416 Q1358.26 992.216 1351.77 992.216 Q1349.6 992.216 1347.28 991.777 Q1344.99 991.36 1342.54 990.504 L1342.54 985.99 Q1344.48 987.124 1346.8 987.703 Q1349.11 988.281 1351.63 988.281 Q1356.03 988.281 1358.32 986.545 Q1360.64 984.809 1360.64 981.499 Q1360.64 978.443 1358.49 976.73 Q1356.36 974.994 1352.54 974.994 L1348.51 974.994 L1348.51 971.152 L1352.72 971.152 Q1356.17 971.152 1358 969.786 Q1359.83 968.397 1359.83 965.805 Q1359.83 963.143 1357.93 961.731 Q1356.06 960.295 1352.54 960.295 Q1350.62 960.295 1348.42 960.712 Q1346.22 961.129 1343.58 962.008 L1343.58 957.842 Q1346.24 957.101 1348.56 956.731 Q1350.89 956.36 1352.95 956.36 Q1358.28 956.36 1361.38 958.791 Q1364.48 961.198 1364.48 965.318 Q1364.48 968.189 1362.84 970.18 Q1361.19 972.147 1358.16 972.911 Z" fill="#000000" fill-rule="nonzero" fill-opacity="1" /><path clip-path="url(#clip200)" d="M1384.16 960.064 Q1380.55 960.064 1378.72 963.629 Q1376.91 967.17 1376.91 974.3 Q1376.91 981.406 1378.72 984.971 Q1380.55 988.513 1384.16 988.513 Q1387.79 988.513 1389.6 984.971 Q1391.43 981.406 1391.43 974.3 Q1391.43 967.17 1389.6 963.629 Q1387.79 960.064 1384.16 960.064 M1384.16 956.36 Q1389.97 956.36 1393.02 960.967 Q1396.1 965.55 1396.1 974.3 Q1396.1 983.027 1393.02 987.633 Q1389.97 992.216 1384.16 992.216 Q1378.35 992.216 1375.27 987.633 Q1372.21 983.027 1372.21 974.3 Q1372.21 965.55 1375.27 960.967 Q1378.35 956.36 1384.16 956.36 Z" fill="#000000" fill-rule="nonzero" fill-opacity="1" /><path clip-path="url(#clip200)" d="M1715.53 961.059 L1703.72 979.508 L1715.53 979.508 L1715.53 961.059 M1714.3 956.985 L1720.18 956.985 L1720.18 979.508 L1725.11 979.508 L1725.11 983.397 L1720.18 983.397 L1720.18 991.545 L1715.53 991.545 L1715.53 983.397 L1699.93 983.397 L1699.93 978.883 L1714.3 956.985 Z" fill="#000000" fill-rule="nonzero" fill-opacity="1" /><path clip-path="url(#clip200)" d="M1742.84 960.064 Q1739.23 960.064 1737.4 963.629 Q1735.6 967.17 1735.6 974.3 Q1735.6 981.406 1737.4 984.971 Q1739.23 988.513 1742.84 988.513 Q1746.48 988.513 1748.28 984.971 Q1750.11 981.406 1750.11 974.3 Q1750.11 967.17 1748.28 963.629 Q1746.48 960.064 1742.84 960.064 M1742.84 956.36 Q1748.65 956.36 1751.71 960.967 Q1754.79 965.55 1754.79 974.3 Q1754.79 983.027 1751.71 987.633 Q1748.65 992.216 1742.84 992.216 Q1737.03 992.216 1733.95 987.633 Q1730.9 983.027 1730.9 974.3 Q1730.9 965.55 1733.95 960.967 Q1737.03 956.36 1742.84 956.36 Z" fill="#000000" fill-rule="nonzero" fill-opacity="1" /><path clip-path="url(#clip200)" d="M2060.09 956.985 L2078.45 956.985 L2078.45 960.92 L2064.37 960.92 L2064.37 969.393 Q2065.39 969.045 2066.41 968.883 Q2067.43 968.698 2068.45 968.698 Q2074.24 968.698 2077.61 971.869 Q2080.99 975.041 2080.99 980.457 Q2080.99 986.036 2077.52 989.138 Q2074.05 992.216 2067.73 992.216 Q2065.55 992.216 2063.29 991.846 Q2061.04 991.476 2058.63 990.735 L2058.63 986.036 Q2060.72 987.17 2062.94 987.726 Q2065.16 988.281 2067.64 988.281 Q2071.64 988.281 2073.98 986.175 Q2076.32 984.068 2076.32 980.457 Q2076.32 976.846 2073.98 974.74 Q2071.64 972.633 2067.64 972.633 Q2065.76 972.633 2063.89 973.05 Q2062.04 973.467 2060.09 974.346 L2060.09 956.985 Z" fill="#000000" fill-rule="nonzero" fill-opacity="1" /><path clip-path="url(#clip200)" d="M2100.21 960.064 Q2096.6 960.064 2094.77 963.629 Q2092.96 967.17 2092.96 974.3 Q2092.96 981.406 2094.77 984.971 Q2096.6 988.513 2100.21 988.513 Q2103.84 988.513 2105.65 984.971 Q2107.48 981.406 2107.48 974.3 Q2107.48 967.17 2105.65 963.629 Q2103.84 960.064 2100.21 960.064 M2100.21 956.36 Q2106.02 956.36 2109.07 960.967 Q2112.15 965.55 2112.15 974.3 Q2112.15 983.027 2109.07 987.633 Q2106.02 992.216 2100.21 992.216 Q2094.4 992.216 2091.32 987.633 Q2088.26 983.027 2088.26 974.3 Q2088.26 965.55 2091.32 960.967 Q2094.4 956.36 2100.21 956.36 Z" fill="#000000" fill-rule="nonzero" fill-opacity="1" /><polyline clip-path="url(#clip200)" style="stroke:#000000; stroke-linecap:round; stroke-linejoin:round; stroke-width:4; stroke-opacity:1; fill:none" points="235.283,929.145 235.283,595.907 "/>
<polyline clip-path="url(#clip200)" style="stroke:#000000; stroke-linecap:round; stroke-linejoin:round; stroke-width:4; stroke-opacity:1; fill:none" points="235.283,873.544 254.18,873.544 "/>
<polyline clip-path="url(#clip200)" style="stroke:#000000; stroke-linecap:round; stroke-linejoin:round; stroke-width:4; stroke-opacity:1; fill:none" points="235.283,781.204 254.18,781.204 "/>
<polyline clip-path="url(#clip200)" style="stroke:#000000; stroke-linecap:round; stroke-linejoin:round; stroke-width:4; stroke-opacity:1; fill:none" points="235.283,688.864 254.18,688.864 "/>
<polyline clip-path="url(#clip200)" style="stroke:#000000; stroke-linecap:round; stroke-linejoin:round; stroke-width:4; stroke-opacity:1; fill:none" points="235.283,596.523 254.18,596.523 "/>
<path clip-path="url(#clip200)" d="M151.204 886.889 L167.524 886.889 L167.524 890.824 L145.579 890.824 L145.579 886.889 Q148.241 884.134 152.825 879.504 Q157.431 874.852 158.612 873.509 Q160.857 870.986 161.737 869.25 Q162.64 867.491 162.64 865.801 Q162.64 863.046 160.695 861.31 Q158.774 859.574 155.672 859.574 Q153.473 859.574 151.019 860.338 Q148.589 861.102 145.811 862.653 L145.811 857.931 Q148.635 856.796 151.089 856.218 Q153.542 855.639 155.579 855.639 Q160.95 855.639 164.144 858.324 Q167.339 861.009 167.339 865.5 Q167.339 867.63 166.528 869.551 Q165.741 871.449 163.635 874.042 Q163.056 874.713 159.954 877.93 Q156.853 881.125 151.204 886.889 Z" fill="#000000" fill-rule="nonzero" fill-opacity="1" /><path clip-path="url(#clip200)" d="M187.338 859.343 Q183.727 859.343 181.899 862.907 Q180.093 866.449 180.093 873.579 Q180.093 880.685 181.899 884.25 Q183.727 887.791 187.338 887.791 Q190.973 887.791 192.778 884.25 Q194.607 880.685 194.607 873.579 Q194.607 866.449 192.778 862.907 Q190.973 859.343 187.338 859.343 M187.338 855.639 Q193.149 855.639 196.204 860.245 Q199.283 864.829 199.283 873.579 Q199.283 882.305 196.204 886.912 Q193.149 891.495 187.338 891.495 Q181.528 891.495 178.45 886.912 Q175.394 882.305 175.394 873.579 Q175.394 864.829 178.45 860.245 Q181.528 855.639 187.338 855.639 Z" fill="#000000" fill-rule="nonzero" fill-opacity="1" /><path clip-path="url(#clip200)" d="M161.343 779.85 Q164.7 780.567 166.575 782.836 Q168.473 785.104 168.473 788.437 Q168.473 793.553 164.954 796.354 Q161.436 799.155 154.954 799.155 Q152.778 799.155 150.464 798.715 Q148.172 798.299 145.718 797.442 L145.718 792.928 Q147.663 794.062 149.978 794.641 Q152.292 795.22 154.815 795.22 Q159.214 795.22 161.505 793.484 Q163.82 791.748 163.82 788.437 Q163.82 785.382 161.667 783.669 Q159.538 781.933 155.718 781.933 L151.691 781.933 L151.691 778.09 L155.903 778.09 Q159.353 778.09 161.181 776.725 Q163.01 775.336 163.01 772.743 Q163.01 770.081 161.112 768.669 Q159.237 767.234 155.718 767.234 Q153.797 767.234 151.598 767.651 Q149.399 768.067 146.76 768.947 L146.76 764.78 Q149.422 764.039 151.737 763.669 Q154.075 763.299 156.135 763.299 Q161.459 763.299 164.561 765.729 Q167.663 768.137 167.663 772.257 Q167.663 775.127 166.019 777.118 Q164.376 779.086 161.343 779.85 Z" fill="#000000" fill-rule="nonzero" fill-opacity="1" /><path clip-path="url(#clip200)" d="M187.338 767.002 Q183.727 767.002 181.899 770.567 Q180.093 774.109 180.093 781.238 Q180.093 788.345 181.899 791.91 Q183.727 795.451 187.338 795.451 Q190.973 795.451 192.778 791.91 Q194.607 788.345 194.607 781.238 Q194.607 774.109 192.778 770.567 Q190.973 767.002 187.338 767.002 M187.338 763.299 Q193.149 763.299 196.204 767.905 Q199.283 772.488 199.283 781.238 Q199.283 789.965 196.204 794.572 Q193.149 799.155 187.338 799.155 Q181.528 799.155 178.45 794.572 Q175.394 789.965 175.394 781.238 Q175.394 772.488 178.45 767.905 Q181.528 763.299 187.338 763.299 Z" fill="#000000" fill-rule="nonzero" fill-opacity="1" /><path clip-path="url(#clip200)" d="M160.024 675.658 L148.218 694.107 L160.024 694.107 L160.024 675.658 M158.797 671.584 L164.677 671.584 L164.677 694.107 L169.607 694.107 L169.607 697.995 L164.677 697.995 L164.677 706.144 L160.024 706.144 L160.024 697.995 L144.422 697.995 L144.422 693.482 L158.797 671.584 Z" fill="#000000" fill-rule="nonzero" fill-opacity="1" /><path clip-path="url(#clip200)" d="M187.338 674.662 Q183.727 674.662 181.899 678.227 Q180.093 681.769 180.093 688.898 Q180.093 696.005 181.899 699.57 Q183.727 703.111 187.338 703.111 Q190.973 703.111 192.778 699.57 Q194.607 696.005 194.607 688.898 Q194.607 681.769 192.778 678.227 Q190.973 674.662 187.338 674.662 M187.338 670.959 Q193.149 670.959 196.204 675.565 Q199.283 680.148 199.283 688.898 Q199.283 697.625 196.204 702.232 Q193.149 706.815 187.338 706.815 Q181.528 706.815 178.45 702.232 Q175.394 697.625 175.394 688.898 Q175.394 680.148 178.45 675.565 Q181.528 670.959 187.338 670.959 Z" fill="#000000" fill-rule="nonzero" fill-opacity="1" /><path clip-path="url(#clip200)" d="M147.223 579.243 L165.579 579.243 L165.579 583.179 L151.505 583.179 L151.505 591.651 Q152.524 591.304 153.542 591.142 Q154.561 590.956 155.579 590.956 Q161.366 590.956 164.746 594.128 Q168.126 597.299 168.126 602.716 Q168.126 608.294 164.653 611.396 Q161.181 614.475 154.862 614.475 Q152.686 614.475 150.417 614.104 Q148.172 613.734 145.765 612.993 L145.765 608.294 Q147.848 609.428 150.07 609.984 Q152.292 610.54 154.769 610.54 Q158.774 610.54 161.112 608.433 Q163.45 606.327 163.45 602.716 Q163.45 599.104 161.112 596.998 Q158.774 594.892 154.769 594.892 Q152.894 594.892 151.019 595.308 Q149.167 595.725 147.223 596.604 L147.223 579.243 Z" fill="#000000" fill-rule="nonzero" fill-opacity="1" /><path clip-path="url(#clip200)" d="M187.338 582.322 Q183.727 582.322 181.899 585.887 Q180.093 589.429 180.093 596.558 Q180.093 603.665 181.899 607.229 Q183.727 610.771 187.338 610.771 Q190.973 610.771 192.778 607.229 Q194.607 603.665 194.607 596.558 Q194.607 589.429 192.778 585.887 Q190.973 582.322 187.338 582.322 M187.338 578.618 Q193.149 578.618 196.204 583.225 Q199.283 587.808 199.283 596.558 Q199.283 605.285 196.204 609.891 Q193.149 614.475 187.338 614.475 Q181.528 614.475 178.45 609.891 Q175.394 605.285 175.394 596.558 Q175.394 587.808 178.45 583.225 Q181.528 578.618 187.338 578.618 Z" fill="#000000" fill-rule="nonzero" fill-opacity="1" /><path clip-path="url(#clip200)" d="M58.5181 758.261 L75.8646 771.152 L94.166 757.593 L94.166 764.499 L80.1615 774.875 L94.166 785.252 L94.166 792.158 L75.5145 778.313 L58.5181 790.981 L58.5181 784.074 L71.2177 774.621 L58.5181 765.168 L58.5181 758.261 Z" fill="#000000" fill-rule="nonzero" fill-opacity="1" /><path clip-path="url(#clip200)" d="M90.6649 750.495 L90.6649 744.002 L71.2177 744.002 L72.5226 751.1 L68.8305 751.1 L67.5892 743.779 L67.5892 739.418 L90.6649 739.418 L90.6649 732.894 L94.166 732.894 L94.166 750.495 L90.6649 750.495 Z" fill="#000000" fill-rule="nonzero" fill-opacity="1" /><polyline clip-path="url(#clip203)" style="stroke:#009af9; stroke-linecap:round; stroke-linejoin:round; stroke-width:4; stroke-opacity:1; fill:none" points="295.211,919.714 305.523,917.055 315.834,914.395 376.227,898.819 436.62,883.244 450.667,879.621 464.715,875.998 471.738,874.186 478.762,872.375 485.786,870.563 492.81,868.752 502.224,868.717 511.638,868.717 521.053,868.717 530.467,868.717 549.296,868.717 568.125,868.717 630.358,868.717 688.229,868.717 760.877,868.717 826.042,868.717 900.633,868.717 956.389,868.717 1027.7,868.717 1092.79,868.717 1129.83,868.717 1166.87,868.717 1196.23,868.717 1225.59,868.717 1243.83,868.717 1262.07,868.717 1266.63,868.717 1271.19,868.717 1275.75,867.649 1280.31,866.473 1289.43,864.121 1298.55,861.769 1326.49,854.564 1354.42,847.359 1433.2,827.043 1492.06,811.861 1559.01,794.596 1625.3,777.498 1698.24,758.686 1753.95,744.317 1824.26,726.185 1889.28,709.415 1956.34,692.119 2024.32,674.588 2095.3,656.283 2151.21,641.862 2278.54,609.023 2292.83,605.338 "/>
<path clip-path="url(#clip200)" d="M235.283 1423.18 L2352.76 1423.18 L2352.76 1089.94 L235.283 1089.94  Z" fill="#ffffff" fill-rule="evenodd" fill-opacity="1"/>
<defs>
  <clipPath id="clip204">
    <rect x="235" y="1089" width="2118" height="334"/>
  </clipPath>
</defs>
<polyline clip-path="url(#clip204)" style="stroke:#000000; stroke-linecap:round; stroke-linejoin:round; stroke-width:2; stroke-opacity:0.1; fill:none" points="295.211,1423.18 295.211,1089.94 "/>
<polyline clip-path="url(#clip204)" style="stroke:#000000; stroke-linecap:round; stroke-linejoin:round; stroke-width:2; stroke-opacity:0.1; fill:none" points="653.248,1423.18 653.248,1089.94 "/>
<polyline clip-path="url(#clip204)" style="stroke:#000000; stroke-linecap:round; stroke-linejoin:round; stroke-width:2; stroke-opacity:0.1; fill:none" points="1011.28,1423.18 1011.28,1089.94 "/>
<polyline clip-path="url(#clip204)" style="stroke:#000000; stroke-linecap:round; stroke-linejoin:round; stroke-width:2; stroke-opacity:0.1; fill:none" points="1369.32,1423.18 1369.32,1089.94 "/>
<polyline clip-path="url(#clip204)" style="stroke:#000000; stroke-linecap:round; stroke-linejoin:round; stroke-width:2; stroke-opacity:0.1; fill:none" points="1727.36,1423.18 1727.36,1089.94 "/>
<polyline clip-path="url(#clip204)" style="stroke:#000000; stroke-linecap:round; stroke-linejoin:round; stroke-width:2; stroke-opacity:0.1; fill:none" points="2085.39,1423.18 2085.39,1089.94 "/>
<polyline clip-path="url(#clip204)" style="stroke:#000000; stroke-linecap:round; stroke-linejoin:round; stroke-width:2; stroke-opacity:0.1; fill:none" points="235.283,1413.75 2352.76,1413.75 "/>
<polyline clip-path="url(#clip204)" style="stroke:#000000; stroke-linecap:round; stroke-linejoin:round; stroke-width:2; stroke-opacity:0.1; fill:none" points="235.283,1350.87 2352.76,1350.87 "/>
<polyline clip-path="url(#clip204)" style="stroke:#000000; stroke-linecap:round; stroke-linejoin:round; stroke-width:2; stroke-opacity:0.1; fill:none" points="235.283,1288 2352.76,1288 "/>
<polyline clip-path="url(#clip204)" style="stroke:#000000; stroke-linecap:round; stroke-linejoin:round; stroke-width:2; stroke-opacity:0.1; fill:none" points="235.283,1225.12 2352.76,1225.12 "/>
<polyline clip-path="url(#clip204)" style="stroke:#000000; stroke-linecap:round; stroke-linejoin:round; stroke-width:2; stroke-opacity:0.1; fill:none" points="235.283,1162.25 2352.76,1162.25 "/>
<polyline clip-path="url(#clip204)" style="stroke:#000000; stroke-linecap:round; stroke-linejoin:round; stroke-width:2; stroke-opacity:0.1; fill:none" points="235.283,1099.37 2352.76,1099.37 "/>
<polyline clip-path="url(#clip200)" style="stroke:#000000; stroke-linecap:round; stroke-linejoin:round; stroke-width:4; stroke-opacity:1; fill:none" points="235.283,1423.18 2352.76,1423.18 "/>
<polyline clip-path="url(#clip200)" style="stroke:#000000; stroke-linecap:round; stroke-linejoin:round; stroke-width:4; stroke-opacity:1; fill:none" points="295.211,1423.18 295.211,1404.28 "/>
<polyline clip-path="url(#clip200)" style="stroke:#000000; stroke-linecap:round; stroke-linejoin:round; stroke-width:4; stroke-opacity:1; fill:none" points="653.248,1423.18 653.248,1404.28 "/>
<polyline clip-path="url(#clip200)" style="stroke:#000000; stroke-linecap:round; stroke-linejoin:round; stroke-width:4; stroke-opacity:1; fill:none" points="1011.28,1423.18 1011.28,1404.28 "/>
<polyline clip-path="url(#clip200)" style="stroke:#000000; stroke-linecap:round; stroke-linejoin:round; stroke-width:4; stroke-opacity:1; fill:none" points="1369.32,1423.18 1369.32,1404.28 "/>
<polyline clip-path="url(#clip200)" style="stroke:#000000; stroke-linecap:round; stroke-linejoin:round; stroke-width:4; stroke-opacity:1; fill:none" points="1727.36,1423.18 1727.36,1404.28 "/>
<polyline clip-path="url(#clip200)" style="stroke:#000000; stroke-linecap:round; stroke-linejoin:round; stroke-width:4; stroke-opacity:1; fill:none" points="2085.39,1423.18 2085.39,1404.28 "/>
<path clip-path="url(#clip200)" d="M295.211 1454.1 Q291.6 1454.1 289.772 1457.66 Q287.966 1461.2 287.966 1468.33 Q287.966 1475.44 289.772 1479.01 Q291.6 1482.55 295.211 1482.55 Q298.846 1482.55 300.651 1479.01 Q302.48 1475.44 302.48 1468.33 Q302.48 1461.2 300.651 1457.66 Q298.846 1454.1 295.211 1454.1 M295.211 1450.39 Q301.021 1450.39 304.077 1455 Q307.156 1459.58 307.156 1468.33 Q307.156 1477.06 304.077 1481.67 Q301.021 1486.25 295.211 1486.25 Q289.401 1486.25 286.322 1481.67 Q283.267 1477.06 283.267 1468.33 Q283.267 1459.58 286.322 1455 Q289.401 1450.39 295.211 1450.39 Z" fill="#000000" fill-rule="nonzero" fill-opacity="1" /><path clip-path="url(#clip200)" d="M627.935 1481.64 L635.574 1481.64 L635.574 1455.28 L627.264 1456.95 L627.264 1452.69 L635.528 1451.02 L640.204 1451.02 L640.204 1481.64 L647.842 1481.64 L647.842 1485.58 L627.935 1485.58 L627.935 1481.64 Z" fill="#000000" fill-rule="nonzero" fill-opacity="1" /><path clip-path="url(#clip200)" d="M667.287 1454.1 Q663.676 1454.1 661.847 1457.66 Q660.041 1461.2 660.041 1468.33 Q660.041 1475.44 661.847 1479.01 Q663.676 1482.55 667.287 1482.55 Q670.921 1482.55 672.727 1479.01 Q674.555 1475.44 674.555 1468.33 Q674.555 1461.2 672.727 1457.66 Q670.921 1454.1 667.287 1454.1 M667.287 1450.39 Q673.097 1450.39 676.153 1455 Q679.231 1459.58 679.231 1468.33 Q679.231 1477.06 676.153 1481.67 Q673.097 1486.25 667.287 1486.25 Q661.477 1486.25 658.398 1481.67 Q655.342 1477.06 655.342 1468.33 Q655.342 1459.58 658.398 1455 Q661.477 1450.39 667.287 1450.39 Z" fill="#000000" fill-rule="nonzero" fill-opacity="1" /><path clip-path="url(#clip200)" d="M990.057 1481.64 L1006.38 1481.64 L1006.38 1485.58 L984.432 1485.58 L984.432 1481.64 Q987.094 1478.89 991.677 1474.26 Q996.284 1469.61 997.464 1468.27 Q999.71 1465.74 1000.59 1464.01 Q1001.49 1462.25 1001.49 1460.56 Q1001.49 1457.8 999.548 1456.07 Q997.626 1454.33 994.525 1454.33 Q992.326 1454.33 989.872 1455.09 Q987.441 1455.86 984.664 1457.41 L984.664 1452.69 Q987.488 1451.55 989.941 1450.97 Q992.395 1450.39 994.432 1450.39 Q999.802 1450.39 1003 1453.08 Q1006.19 1455.77 1006.19 1460.26 Q1006.19 1462.39 1005.38 1464.31 Q1004.59 1466.2 1002.49 1468.8 Q1001.91 1469.47 998.807 1472.69 Q995.705 1475.88 990.057 1481.64 Z" fill="#000000" fill-rule="nonzero" fill-opacity="1" /><path clip-path="url(#clip200)" d="M1026.19 1454.1 Q1022.58 1454.1 1020.75 1457.66 Q1018.95 1461.2 1018.95 1468.33 Q1018.95 1475.44 1020.75 1479.01 Q1022.58 1482.55 1026.19 1482.55 Q1029.83 1482.55 1031.63 1479.01 Q1033.46 1475.44 1033.46 1468.33 Q1033.46 1461.2 1031.63 1457.66 Q1029.83 1454.1 1026.19 1454.1 M1026.19 1450.39 Q1032 1450.39 1035.06 1455 Q1038.14 1459.58 1038.14 1468.33 Q1038.14 1477.06 1035.06 1481.67 Q1032 1486.25 1026.19 1486.25 Q1020.38 1486.25 1017.3 1481.67 Q1014.25 1477.06 1014.25 1468.33 Q1014.25 1459.58 1017.3 1455 Q1020.38 1450.39 1026.19 1450.39 Z" fill="#000000" fill-rule="nonzero" fill-opacity="1" /><path clip-path="url(#clip200)" d="M1358.16 1466.95 Q1361.52 1467.66 1363.39 1469.93 Q1365.29 1472.2 1365.29 1475.53 Q1365.29 1480.65 1361.77 1483.45 Q1358.26 1486.25 1351.77 1486.25 Q1349.6 1486.25 1347.28 1485.81 Q1344.99 1485.39 1342.54 1484.54 L1342.54 1480.02 Q1344.48 1481.16 1346.8 1481.74 Q1349.11 1482.32 1351.63 1482.32 Q1356.03 1482.32 1358.32 1480.58 Q1360.64 1478.84 1360.64 1475.53 Q1360.64 1472.48 1358.49 1470.77 Q1356.36 1469.03 1352.54 1469.03 L1348.51 1469.03 L1348.51 1465.19 L1352.72 1465.19 Q1356.17 1465.19 1358 1463.82 Q1359.83 1462.43 1359.83 1459.84 Q1359.83 1457.18 1357.93 1455.77 Q1356.06 1454.33 1352.54 1454.33 Q1350.62 1454.33 1348.42 1454.75 Q1346.22 1455.16 1343.58 1456.04 L1343.58 1451.88 Q1346.24 1451.14 1348.56 1450.77 Q1350.89 1450.39 1352.95 1450.39 Q1358.28 1450.39 1361.38 1452.83 Q1364.48 1455.23 1364.48 1459.35 Q1364.48 1462.22 1362.84 1464.21 Q1361.19 1466.18 1358.16 1466.95 Z" fill="#000000" fill-rule="nonzero" fill-opacity="1" /><path clip-path="url(#clip200)" d="M1384.16 1454.1 Q1380.55 1454.1 1378.72 1457.66 Q1376.91 1461.2 1376.91 1468.33 Q1376.91 1475.44 1378.72 1479.01 Q1380.55 1482.55 1384.16 1482.55 Q1387.79 1482.55 1389.6 1479.01 Q1391.43 1475.44 1391.43 1468.33 Q1391.43 1461.2 1389.6 1457.66 Q1387.79 1454.1 1384.16 1454.1 M1384.16 1450.39 Q1389.97 1450.39 1393.02 1455 Q1396.1 1459.58 1396.1 1468.33 Q1396.1 1477.06 1393.02 1481.67 Q1389.97 1486.25 1384.16 1486.25 Q1378.35 1486.25 1375.27 1481.67 Q1372.21 1477.06 1372.21 1468.33 Q1372.21 1459.58 1375.27 1455 Q1378.35 1450.39 1384.16 1450.39 Z" fill="#000000" fill-rule="nonzero" fill-opacity="1" /><path clip-path="url(#clip200)" d="M1715.53 1455.09 L1703.72 1473.54 L1715.53 1473.54 L1715.53 1455.09 M1714.3 1451.02 L1720.18 1451.02 L1720.18 1473.54 L1725.11 1473.54 L1725.11 1477.43 L1720.18 1477.43 L1720.18 1485.58 L1715.53 1485.58 L1715.53 1477.43 L1699.93 1477.43 L1699.93 1472.92 L1714.3 1451.02 Z" fill="#000000" fill-rule="nonzero" fill-opacity="1" /><path clip-path="url(#clip200)" d="M1742.84 1454.1 Q1739.23 1454.1 1737.4 1457.66 Q1735.6 1461.2 1735.6 1468.33 Q1735.6 1475.44 1737.4 1479.01 Q1739.23 1482.55 1742.84 1482.55 Q1746.48 1482.55 1748.28 1479.01 Q1750.11 1475.44 1750.11 1468.33 Q1750.11 1461.2 1748.28 1457.66 Q1746.48 1454.1 1742.84 1454.1 M1742.84 1450.39 Q1748.65 1450.39 1751.71 1455 Q1754.79 1459.58 1754.79 1468.33 Q1754.79 1477.06 1751.71 1481.67 Q1748.65 1486.25 1742.84 1486.25 Q1737.03 1486.25 1733.95 1481.67 Q1730.9 1477.06 1730.9 1468.33 Q1730.9 1459.58 1733.95 1455 Q1737.03 1450.39 1742.84 1450.39 Z" fill="#000000" fill-rule="nonzero" fill-opacity="1" /><path clip-path="url(#clip200)" d="M2060.09 1451.02 L2078.45 1451.02 L2078.45 1454.96 L2064.37 1454.96 L2064.37 1463.43 Q2065.39 1463.08 2066.41 1462.92 Q2067.43 1462.73 2068.45 1462.73 Q2074.24 1462.73 2077.61 1465.9 Q2080.99 1469.08 2080.99 1474.49 Q2080.99 1480.07 2077.52 1483.17 Q2074.05 1486.25 2067.73 1486.25 Q2065.55 1486.25 2063.29 1485.88 Q2061.04 1485.51 2058.63 1484.77 L2058.63 1480.07 Q2060.72 1481.2 2062.94 1481.76 Q2065.16 1482.32 2067.64 1482.32 Q2071.64 1482.32 2073.98 1480.21 Q2076.32 1478.1 2076.32 1474.49 Q2076.32 1470.88 2073.98 1468.77 Q2071.64 1466.67 2067.64 1466.67 Q2065.76 1466.67 2063.89 1467.08 Q2062.04 1467.5 2060.09 1468.38 L2060.09 1451.02 Z" fill="#000000" fill-rule="nonzero" fill-opacity="1" /><path clip-path="url(#clip200)" d="M2100.21 1454.1 Q2096.6 1454.1 2094.77 1457.66 Q2092.96 1461.2 2092.96 1468.33 Q2092.96 1475.44 2094.77 1479.01 Q2096.6 1482.55 2100.21 1482.55 Q2103.84 1482.55 2105.65 1479.01 Q2107.48 1475.44 2107.48 1468.33 Q2107.48 1461.2 2105.65 1457.66 Q2103.84 1454.1 2100.21 1454.1 M2100.21 1450.39 Q2106.02 1450.39 2109.07 1455 Q2112.15 1459.58 2112.15 1468.33 Q2112.15 1477.06 2109.07 1481.67 Q2106.02 1486.25 2100.21 1486.25 Q2094.4 1486.25 2091.32 1481.67 Q2088.26 1477.06 2088.26 1468.33 Q2088.26 1459.58 2091.32 1455 Q2094.4 1450.39 2100.21 1450.39 Z" fill="#000000" fill-rule="nonzero" fill-opacity="1" /><path clip-path="url(#clip200)" d="M1293.08 1522.27 L1293.08 1532.4 L1305.14 1532.4 L1305.14 1536.95 L1293.08 1536.95 L1293.08 1556.3 Q1293.08 1560.66 1294.26 1561.9 Q1295.47 1563.14 1299.13 1563.14 L1305.14 1563.14 L1305.14 1568.04 L1299.13 1568.04 Q1292.35 1568.04 1289.77 1565.53 Q1287.19 1562.98 1287.19 1556.3 L1287.19 1536.95 L1282.9 1536.95 L1282.9 1532.4 L1287.19 1532.4 L1287.19 1522.27 L1293.08 1522.27 Z" fill="#000000" fill-rule="nonzero" fill-opacity="1" /><polyline clip-path="url(#clip200)" style="stroke:#000000; stroke-linecap:round; stroke-linejoin:round; stroke-width:4; stroke-opacity:1; fill:none" points="235.283,1423.18 235.283,1089.94 "/>
<polyline clip-path="url(#clip200)" style="stroke:#000000; stroke-linecap:round; stroke-linejoin:round; stroke-width:4; stroke-opacity:1; fill:none" points="235.283,1413.75 254.18,1413.75 "/>
<polyline clip-path="url(#clip200)" style="stroke:#000000; stroke-linecap:round; stroke-linejoin:round; stroke-width:4; stroke-opacity:1; fill:none" points="235.283,1350.87 254.18,1350.87 "/>
<polyline clip-path="url(#clip200)" style="stroke:#000000; stroke-linecap:round; stroke-linejoin:round; stroke-width:4; stroke-opacity:1; fill:none" points="235.283,1288 254.18,1288 "/>
<polyline clip-path="url(#clip200)" style="stroke:#000000; stroke-linecap:round; stroke-linejoin:round; stroke-width:4; stroke-opacity:1; fill:none" points="235.283,1225.12 254.18,1225.12 "/>
<polyline clip-path="url(#clip200)" style="stroke:#000000; stroke-linecap:round; stroke-linejoin:round; stroke-width:4; stroke-opacity:1; fill:none" points="235.283,1162.25 254.18,1162.25 "/>
<polyline clip-path="url(#clip200)" style="stroke:#000000; stroke-linecap:round; stroke-linejoin:round; stroke-width:4; stroke-opacity:1; fill:none" points="235.283,1099.37 254.18,1099.37 "/>
<path clip-path="url(#clip200)" d="M187.338 1399.55 Q183.727 1399.55 181.899 1403.11 Q180.093 1406.65 180.093 1413.78 Q180.093 1420.89 181.899 1424.45 Q183.727 1428 187.338 1428 Q190.973 1428 192.778 1424.45 Q194.607 1420.89 194.607 1413.78 Q194.607 1406.65 192.778 1403.11 Q190.973 1399.55 187.338 1399.55 M187.338 1395.84 Q193.149 1395.84 196.204 1400.45 Q199.283 1405.03 199.283 1413.78 Q199.283 1422.51 196.204 1427.12 Q193.149 1431.7 187.338 1431.7 Q181.528 1431.7 178.45 1427.12 Q175.394 1422.51 175.394 1413.78 Q175.394 1405.03 178.45 1400.45 Q181.528 1395.84 187.338 1395.84 Z" fill="#000000" fill-rule="nonzero" fill-opacity="1" /><path clip-path="url(#clip200)" d="M147.987 1364.22 L155.626 1364.22 L155.626 1337.85 L147.316 1339.52 L147.316 1335.26 L155.579 1333.59 L160.255 1333.59 L160.255 1364.22 L167.894 1364.22 L167.894 1368.15 L147.987 1368.15 L147.987 1364.22 Z" fill="#000000" fill-rule="nonzero" fill-opacity="1" /><path clip-path="url(#clip200)" d="M187.338 1336.67 Q183.727 1336.67 181.899 1340.24 Q180.093 1343.78 180.093 1350.91 Q180.093 1358.01 181.899 1361.58 Q183.727 1365.12 187.338 1365.12 Q190.973 1365.12 192.778 1361.58 Q194.607 1358.01 194.607 1350.91 Q194.607 1343.78 192.778 1340.24 Q190.973 1336.67 187.338 1336.67 M187.338 1332.97 Q193.149 1332.97 196.204 1337.57 Q199.283 1342.16 199.283 1350.91 Q199.283 1359.63 196.204 1364.24 Q193.149 1368.82 187.338 1368.82 Q181.528 1368.82 178.45 1364.24 Q175.394 1359.63 175.394 1350.91 Q175.394 1342.16 178.45 1337.57 Q181.528 1332.97 187.338 1332.97 Z" fill="#000000" fill-rule="nonzero" fill-opacity="1" /><path clip-path="url(#clip200)" d="M151.204 1301.34 L167.524 1301.34 L167.524 1305.28 L145.579 1305.28 L145.579 1301.34 Q148.241 1298.59 152.825 1293.96 Q157.431 1289.31 158.612 1287.96 Q160.857 1285.44 161.737 1283.7 Q162.64 1281.95 162.64 1280.26 Q162.64 1277.5 160.695 1275.76 Q158.774 1274.03 155.672 1274.03 Q153.473 1274.03 151.019 1274.79 Q148.589 1275.56 145.811 1277.11 L145.811 1272.38 Q148.635 1271.25 151.089 1270.67 Q153.542 1270.09 155.579 1270.09 Q160.95 1270.09 164.144 1272.78 Q167.339 1275.46 167.339 1279.95 Q167.339 1282.08 166.528 1284.01 Q165.741 1285.9 163.635 1288.5 Q163.056 1289.17 159.954 1292.38 Q156.853 1295.58 151.204 1301.34 Z" fill="#000000" fill-rule="nonzero" fill-opacity="1" /><path clip-path="url(#clip200)" d="M187.338 1273.8 Q183.727 1273.8 181.899 1277.36 Q180.093 1280.9 180.093 1288.03 Q180.093 1295.14 181.899 1298.7 Q183.727 1302.25 187.338 1302.25 Q190.973 1302.25 192.778 1298.7 Q194.607 1295.14 194.607 1288.03 Q194.607 1280.9 192.778 1277.36 Q190.973 1273.8 187.338 1273.8 M187.338 1270.09 Q193.149 1270.09 196.204 1274.7 Q199.283 1279.28 199.283 1288.03 Q199.283 1296.76 196.204 1301.37 Q193.149 1305.95 187.338 1305.95 Q181.528 1305.95 178.45 1301.37 Q175.394 1296.76 175.394 1288.03 Q175.394 1279.28 178.45 1274.7 Q181.528 1270.09 187.338 1270.09 Z" fill="#000000" fill-rule="nonzero" fill-opacity="1" /><path clip-path="url(#clip200)" d="M161.343 1223.77 Q164.7 1224.49 166.575 1226.75 Q168.473 1229.02 168.473 1232.36 Q168.473 1237.47 164.954 1240.27 Q161.436 1243.07 154.954 1243.07 Q152.778 1243.07 150.464 1242.63 Q148.172 1242.22 145.718 1241.36 L145.718 1236.85 Q147.663 1237.98 149.978 1238.56 Q152.292 1239.14 154.815 1239.14 Q159.214 1239.14 161.505 1237.4 Q163.82 1235.67 163.82 1232.36 Q163.82 1229.3 161.667 1227.59 Q159.538 1225.85 155.718 1225.85 L151.691 1225.85 L151.691 1222.01 L155.903 1222.01 Q159.353 1222.01 161.181 1220.64 Q163.01 1219.26 163.01 1216.66 Q163.01 1214 161.112 1212.59 Q159.237 1211.15 155.718 1211.15 Q153.797 1211.15 151.598 1211.57 Q149.399 1211.99 146.76 1212.87 L146.76 1208.7 Q149.422 1207.96 151.737 1207.59 Q154.075 1207.22 156.135 1207.22 Q161.459 1207.22 164.561 1209.65 Q167.663 1212.06 167.663 1216.18 Q167.663 1219.05 166.019 1221.04 Q164.376 1223 161.343 1223.77 Z" fill="#000000" fill-rule="nonzero" fill-opacity="1" /><path clip-path="url(#clip200)" d="M187.338 1210.92 Q183.727 1210.92 181.899 1214.49 Q180.093 1218.03 180.093 1225.16 Q180.093 1232.26 181.899 1235.83 Q183.727 1239.37 187.338 1239.37 Q190.973 1239.37 192.778 1235.83 Q194.607 1232.26 194.607 1225.16 Q194.607 1218.03 192.778 1214.49 Q190.973 1210.92 187.338 1210.92 M187.338 1207.22 Q193.149 1207.22 196.204 1211.82 Q199.283 1216.41 199.283 1225.16 Q199.283 1233.88 196.204 1238.49 Q193.149 1243.07 187.338 1243.07 Q181.528 1243.07 178.45 1238.49 Q175.394 1233.88 175.394 1225.16 Q175.394 1216.41 178.45 1211.82 Q181.528 1207.22 187.338 1207.22 Z" fill="#000000" fill-rule="nonzero" fill-opacity="1" /><path clip-path="url(#clip200)" d="M160.024 1149.04 L148.218 1167.49 L160.024 1167.49 L160.024 1149.04 M158.797 1144.97 L164.677 1144.97 L164.677 1167.49 L169.607 1167.49 L169.607 1171.38 L164.677 1171.38 L164.677 1179.53 L160.024 1179.53 L160.024 1171.38 L144.422 1171.38 L144.422 1166.87 L158.797 1144.97 Z" fill="#000000" fill-rule="nonzero" fill-opacity="1" /><path clip-path="url(#clip200)" d="M187.338 1148.05 Q183.727 1148.05 181.899 1151.61 Q180.093 1155.15 180.093 1162.28 Q180.093 1169.39 181.899 1172.95 Q183.727 1176.5 187.338 1176.5 Q190.973 1176.5 192.778 1172.95 Q194.607 1169.39 194.607 1162.28 Q194.607 1155.15 192.778 1151.61 Q190.973 1148.05 187.338 1148.05 M187.338 1144.34 Q193.149 1144.34 196.204 1148.95 Q199.283 1153.53 199.283 1162.28 Q199.283 1171.01 196.204 1175.62 Q193.149 1180.2 187.338 1180.2 Q181.528 1180.2 178.45 1175.62 Q175.394 1171.01 175.394 1162.28 Q175.394 1153.53 178.45 1148.95 Q181.528 1144.34 187.338 1144.34 Z" fill="#000000" fill-rule="nonzero" fill-opacity="1" /><path clip-path="url(#clip200)" d="M147.223 1082.09 L165.579 1082.09 L165.579 1086.03 L151.505 1086.03 L151.505 1094.5 Q152.524 1094.15 153.542 1093.99 Q154.561 1093.81 155.579 1093.81 Q161.366 1093.81 164.746 1096.98 Q168.126 1100.15 168.126 1105.56 Q168.126 1111.14 164.653 1114.25 Q161.181 1117.32 154.862 1117.32 Q152.686 1117.32 150.417 1116.95 Q148.172 1116.58 145.765 1115.84 L145.765 1111.14 Q147.848 1112.28 150.07 1112.83 Q152.292 1113.39 154.769 1113.39 Q158.774 1113.39 161.112 1111.28 Q163.45 1109.18 163.45 1105.56 Q163.45 1101.95 161.112 1099.85 Q158.774 1097.74 154.769 1097.74 Q152.894 1097.74 151.019 1098.16 Q149.167 1098.57 147.223 1099.45 L147.223 1082.09 Z" fill="#000000" fill-rule="nonzero" fill-opacity="1" /><path clip-path="url(#clip200)" d="M187.338 1085.17 Q183.727 1085.17 181.899 1088.74 Q180.093 1092.28 180.093 1099.41 Q180.093 1106.51 181.899 1110.08 Q183.727 1113.62 187.338 1113.62 Q190.973 1113.62 192.778 1110.08 Q194.607 1106.51 194.607 1099.41 Q194.607 1092.28 192.778 1088.74 Q190.973 1085.17 187.338 1085.17 M187.338 1081.47 Q193.149 1081.47 196.204 1086.07 Q199.283 1090.66 199.283 1099.41 Q199.283 1108.13 196.204 1112.74 Q193.149 1117.32 187.338 1117.32 Q181.528 1117.32 178.45 1112.74 Q175.394 1108.13 175.394 1099.41 Q175.394 1090.66 178.45 1086.07 Q181.528 1081.47 187.338 1081.47 Z" fill="#000000" fill-rule="nonzero" fill-opacity="1" /><path clip-path="url(#clip200)" d="M58.5181 1252.03 L75.8646 1264.92 L94.166 1251.36 L94.166 1258.26 L80.1615 1268.64 L94.166 1279.02 L94.166 1285.92 L75.5145 1272.08 L58.5181 1284.74 L58.5181 1277.84 L71.2177 1268.38 L58.5181 1258.93 L58.5181 1252.03 Z" fill="#000000" fill-rule="nonzero" fill-opacity="1" /><path clip-path="url(#clip200)" d="M90.5376 1240.69 L90.5376 1227.2 L94.166 1227.2 L94.166 1246.23 L90.6649 1246.23 Q89.6782 1245.15 87.8958 1243.14 Q78.1881 1232.2 75.1962 1232.2 Q73.0955 1232.2 71.8224 1233.85 Q70.5174 1235.51 70.5174 1238.21 Q70.5174 1239.87 71.0903 1241.81 Q71.6314 1243.75 72.7454 1246.04 L68.8305 1246.04 Q67.9393 1243.59 67.4937 1241.49 Q67.0481 1239.36 67.0481 1237.54 Q67.0481 1232.93 69.1488 1230.16 Q71.2495 1227.39 74.687 1227.39 Q79.1111 1227.39 88.1504 1237.93 Q89.6782 1239.71 90.5376 1240.69 Z" fill="#000000" fill-rule="nonzero" fill-opacity="1" /><polyline clip-path="url(#clip204)" style="stroke:#009af9; stroke-linecap:round; stroke-linejoin:round; stroke-width:4; stroke-opacity:1; fill:none" points="295.211,1413.75 305.523,1411.94 315.834,1410.13 376.227,1399.52 436.62,1388.92 464.715,1383.98 492.81,1379.05 530.467,1374.19 568.125,1369.34 630.358,1361.32 688.229,1353.87 760.877,1344.51 826.042,1336.11 900.633,1326.5 956.389,1319.32 1027.7,1310.13 1092.79,1301.75 1166.87,1292.2 1225.59,1284.64 1262.07,1279.94 1298.55,1273.98 1326.49,1269.07 1354.42,1264.17 1433.2,1250.33 1492.06,1240 1559.01,1228.24 1625.3,1216.6 1698.24,1203.79 1753.95,1194 1824.26,1181.66 1889.28,1170.24 1956.34,1158.46 2024.32,1146.53 2095.3,1134.06 2151.21,1124.24 2278.54,1101.88 2292.83,1099.37 "/>
</svg>
