<?xml version="1.0" encoding="utf-8"?>
<svg xmlns="http://www.w3.org/2000/svg" xmlns:xlink="http://www.w3.org/1999/xlink" width="600" height="350" viewBox="0 0 2400 1400">
<defs>
  <clipPath id="clip770">
    <rect x="0" y="0" width="2400" height="1400"/>
  </clipPath>
</defs>
<path clip-path="url(#clip770)" d="M0 1400 L2400 1400 L2400 0 L0 0  Z" fill="#ffffff" fill-rule="evenodd" fill-opacity="1"/>
<defs>
  <clipPath id="clip771">
    <rect x="480" y="0" width="1681" height="1400"/>
  </clipPath>
</defs>
<path clip-path="url(#clip770)" d="M608.396 535.44 L2063.07 535.44 L2063.07 47.2441 L608.396 47.2441  Z" fill="#ffffff" fill-rule="evenodd" fill-opacity="1"/>
<defs>
  <clipPath id="clip772">
    <rect x="608" y="47" width="1456" height="489"/>
  </clipPath>
</defs>
<polyline clip-path="url(#clip772)" style="stroke:#000000; stroke-linecap:round; stroke-linejoin:round; stroke-width:2; stroke-opacity:0.1; fill:none" points="649.566,535.44 649.566,47.2441 "/>
<polyline clip-path="url(#clip772)" style="stroke:#000000; stroke-linecap:round; stroke-linejoin:round; stroke-width:2; stroke-opacity:0.1; fill:none" points="895.531,535.44 895.531,47.2441 "/>
<polyline clip-path="url(#clip772)" style="stroke:#000000; stroke-linecap:round; stroke-linejoin:round; stroke-width:2; stroke-opacity:0.1; fill:none" points="1141.5,535.44 1141.5,47.2441 "/>
<polyline clip-path="url(#clip772)" style="stroke:#000000; stroke-linecap:round; stroke-linejoin:round; stroke-width:2; stroke-opacity:0.1; fill:none" points="1387.46,535.44 1387.46,47.2441 "/>
<polyline clip-path="url(#clip772)" style="stroke:#000000; stroke-linecap:round; stroke-linejoin:round; stroke-width:2; stroke-opacity:0.1; fill:none" points="1633.43,535.44 1633.43,47.2441 "/>
<polyline clip-path="url(#clip772)" style="stroke:#000000; stroke-linecap:round; stroke-linejoin:round; stroke-width:2; stroke-opacity:0.1; fill:none" points="1879.39,535.44 1879.39,47.2441 "/>
<polyline clip-path="url(#clip772)" style="stroke:#000000; stroke-linecap:round; stroke-linejoin:round; stroke-width:2; stroke-opacity:0.1; fill:none" points="608.396,513.249 2063.07,513.249 "/>
<polyline clip-path="url(#clip772)" style="stroke:#000000; stroke-linecap:round; stroke-linejoin:round; stroke-width:2; stroke-opacity:0.1; fill:none" points="608.396,402.296 2063.07,402.296 "/>
<polyline clip-path="url(#clip772)" style="stroke:#000000; stroke-linecap:round; stroke-linejoin:round; stroke-width:2; stroke-opacity:0.1; fill:none" points="608.396,291.342 2063.07,291.342 "/>
<polyline clip-path="url(#clip772)" style="stroke:#000000; stroke-linecap:round; stroke-linejoin:round; stroke-width:2; stroke-opacity:0.1; fill:none" points="608.396,180.388 2063.07,180.388 "/>
<polyline clip-path="url(#clip772)" style="stroke:#000000; stroke-linecap:round; stroke-linejoin:round; stroke-width:2; stroke-opacity:0.1; fill:none" points="608.396,69.4348 2063.07,69.4348 "/>
<polyline clip-path="url(#clip770)" style="stroke:#000000; stroke-linecap:round; stroke-linejoin:round; stroke-width:4; stroke-opacity:1; fill:none" points="608.396,535.44 2063.07,535.44 "/>
<polyline clip-path="url(#clip770)" style="stroke:#000000; stroke-linecap:round; stroke-linejoin:round; stroke-width:4; stroke-opacity:1; fill:none" points="649.566,535.44 649.566,516.542 "/>
<polyline clip-path="url(#clip770)" style="stroke:#000000; stroke-linecap:round; stroke-linejoin:round; stroke-width:4; stroke-opacity:1; fill:none" points="895.531,535.44 895.531,516.542 "/>
<polyline clip-path="url(#clip770)" style="stroke:#000000; stroke-linecap:round; stroke-linejoin:round; stroke-width:4; stroke-opacity:1; fill:none" points="1141.5,535.44 1141.5,516.542 "/>
<polyline clip-path="url(#clip770)" style="stroke:#000000; stroke-linecap:round; stroke-linejoin:round; stroke-width:4; stroke-opacity:1; fill:none" points="1387.46,535.44 1387.46,516.542 "/>
<polyline clip-path="url(#clip770)" style="stroke:#000000; stroke-linecap:round; stroke-linejoin:round; stroke-width:4; stroke-opacity:1; fill:none" points="1633.43,535.44 1633.43,516.542 "/>
<polyline clip-path="url(#clip770)" style="stroke:#000000; stroke-linecap:round; stroke-linejoin:round; stroke-width:4; stroke-opacity:1; fill:none" points="1879.39,535.44 1879.39,516.542 "/>
<path clip-path="url(#clip770)" d="M649.566 566.359 Q645.955 566.359 644.126 569.923 Q642.321 573.465 642.321 580.595 Q642.321 587.701 644.126 591.266 Q645.955 594.807 649.566 594.807 Q653.2 594.807 655.006 591.266 Q656.834 587.701 656.834 580.595 Q656.834 573.465 655.006 569.923 Q653.2 566.359 649.566 566.359 M649.566 562.655 Q655.376 562.655 658.432 567.261 Q661.51 571.845 661.51 580.595 Q661.51 589.321 658.432 593.928 Q655.376 598.511 649.566 598.511 Q643.756 598.511 640.677 593.928 Q637.621 589.321 637.621 580.595 Q637.621 571.845 640.677 567.261 Q643.756 562.655 649.566 562.655 Z" fill="#000000" fill-rule="nonzero" fill-opacity="1" /><path clip-path="url(#clip770)" d="M870.219 593.905 L877.858 593.905 L877.858 567.539 L869.547 569.206 L869.547 564.947 L877.811 563.28 L882.487 563.28 L882.487 593.905 L890.126 593.905 L890.126 597.84 L870.219 597.84 L870.219 593.905 Z" fill="#000000" fill-rule="nonzero" fill-opacity="1" /><path clip-path="url(#clip770)" d="M909.57 566.359 Q905.959 566.359 904.131 569.923 Q902.325 573.465 902.325 580.595 Q902.325 587.701 904.131 591.266 Q905.959 594.807 909.57 594.807 Q913.205 594.807 915.01 591.266 Q916.839 587.701 916.839 580.595 Q916.839 573.465 915.01 569.923 Q913.205 566.359 909.57 566.359 M909.57 562.655 Q915.381 562.655 918.436 567.261 Q921.515 571.845 921.515 580.595 Q921.515 589.321 918.436 593.928 Q915.381 598.511 909.57 598.511 Q903.76 598.511 900.682 593.928 Q897.626 589.321 897.626 580.595 Q897.626 571.845 900.682 567.261 Q903.76 562.655 909.57 562.655 Z" fill="#000000" fill-rule="nonzero" fill-opacity="1" /><path clip-path="url(#clip770)" d="M1120.27 593.905 L1136.59 593.905 L1136.59 597.84 L1114.64 597.84 L1114.64 593.905 Q1117.31 591.15 1121.89 586.52 Q1126.5 581.868 1127.68 580.525 Q1129.92 578.002 1130.8 576.266 Q1131.7 574.507 1131.7 572.817 Q1131.7 570.062 1129.76 568.326 Q1127.84 566.59 1124.74 566.59 Q1122.54 566.59 1120.08 567.354 Q1117.65 568.118 1114.88 569.669 L1114.88 564.947 Q1117.7 563.812 1120.15 563.234 Q1122.61 562.655 1124.64 562.655 Q1130.01 562.655 1133.21 565.34 Q1136.4 568.025 1136.4 572.516 Q1136.4 574.646 1135.59 576.567 Q1134.81 578.465 1132.7 581.058 Q1132.12 581.729 1129.02 584.946 Q1125.92 588.141 1120.27 593.905 Z" fill="#000000" fill-rule="nonzero" fill-opacity="1" /><path clip-path="url(#clip770)" d="M1156.4 566.359 Q1152.79 566.359 1150.96 569.923 Q1149.16 573.465 1149.16 580.595 Q1149.16 587.701 1150.96 591.266 Q1152.79 594.807 1156.4 594.807 Q1160.04 594.807 1161.84 591.266 Q1163.67 587.701 1163.67 580.595 Q1163.67 573.465 1161.84 569.923 Q1160.04 566.359 1156.4 566.359 M1156.4 562.655 Q1162.21 562.655 1165.27 567.261 Q1168.35 571.845 1168.35 580.595 Q1168.35 589.321 1165.27 593.928 Q1162.21 598.511 1156.4 598.511 Q1150.59 598.511 1147.51 593.928 Q1144.46 589.321 1144.46 580.595 Q1144.46 571.845 1147.51 567.261 Q1150.59 562.655 1156.4 562.655 Z" fill="#000000" fill-rule="nonzero" fill-opacity="1" /><path clip-path="url(#clip770)" d="M1376.3 579.206 Q1379.66 579.923 1381.54 582.192 Q1383.43 584.46 1383.43 587.794 Q1383.43 592.909 1379.92 595.71 Q1376.4 598.511 1369.92 598.511 Q1367.74 598.511 1365.42 598.071 Q1363.13 597.655 1360.68 596.798 L1360.68 592.284 Q1362.62 593.419 1364.94 593.997 Q1367.25 594.576 1369.78 594.576 Q1374.17 594.576 1376.47 592.84 Q1378.78 591.104 1378.78 587.794 Q1378.78 584.738 1376.63 583.025 Q1374.5 581.289 1370.68 581.289 L1366.65 581.289 L1366.65 577.446 L1370.86 577.446 Q1374.31 577.446 1376.14 576.081 Q1377.97 574.692 1377.97 572.099 Q1377.97 569.437 1376.07 568.025 Q1374.2 566.59 1370.68 566.59 Q1368.76 566.59 1366.56 567.007 Q1364.36 567.423 1361.72 568.303 L1361.72 564.136 Q1364.38 563.396 1366.7 563.025 Q1369.04 562.655 1371.1 562.655 Q1376.42 562.655 1379.52 565.085 Q1382.62 567.493 1382.62 571.613 Q1382.62 574.483 1380.98 576.474 Q1379.34 578.442 1376.3 579.206 Z" fill="#000000" fill-rule="nonzero" fill-opacity="1" /><path clip-path="url(#clip770)" d="M1402.3 566.359 Q1398.69 566.359 1396.86 569.923 Q1395.05 573.465 1395.05 580.595 Q1395.05 587.701 1396.86 591.266 Q1398.69 594.807 1402.3 594.807 Q1405.93 594.807 1407.74 591.266 Q1409.57 587.701 1409.57 580.595 Q1409.57 573.465 1407.74 569.923 Q1405.93 566.359 1402.3 566.359 M1402.3 562.655 Q1408.11 562.655 1411.17 567.261 Q1414.24 571.845 1414.24 580.595 Q1414.24 589.321 1411.17 593.928 Q1408.11 598.511 1402.3 598.511 Q1396.49 598.511 1393.41 593.928 Q1390.36 589.321 1390.36 580.595 Q1390.36 571.845 1393.41 567.261 Q1396.49 562.655 1402.3 562.655 Z" fill="#000000" fill-rule="nonzero" fill-opacity="1" /><path clip-path="url(#clip770)" d="M1621.6 567.354 L1609.79 585.803 L1621.6 585.803 L1621.6 567.354 M1620.37 563.28 L1626.25 563.28 L1626.25 585.803 L1631.18 585.803 L1631.18 589.692 L1626.25 589.692 L1626.25 597.84 L1621.6 597.84 L1621.6 589.692 L1606 589.692 L1606 585.178 L1620.37 563.28 Z" fill="#000000" fill-rule="nonzero" fill-opacity="1" /><path clip-path="url(#clip770)" d="M1648.91 566.359 Q1645.3 566.359 1643.47 569.923 Q1641.67 573.465 1641.67 580.595 Q1641.67 587.701 1643.47 591.266 Q1645.3 594.807 1648.91 594.807 Q1652.55 594.807 1654.35 591.266 Q1656.18 587.701 1656.18 580.595 Q1656.18 573.465 1654.35 569.923 Q1652.55 566.359 1648.91 566.359 M1648.91 562.655 Q1654.72 562.655 1657.78 567.261 Q1660.86 571.845 1660.86 580.595 Q1660.86 589.321 1657.78 593.928 Q1654.72 598.511 1648.91 598.511 Q1643.1 598.511 1640.02 593.928 Q1636.97 589.321 1636.97 580.595 Q1636.97 571.845 1640.02 567.261 Q1643.1 562.655 1648.91 562.655 Z" fill="#000000" fill-rule="nonzero" fill-opacity="1" /><path clip-path="url(#clip770)" d="M1854.09 563.28 L1872.45 563.28 L1872.45 567.215 L1858.37 567.215 L1858.37 575.687 Q1859.39 575.34 1860.41 575.178 Q1861.43 574.993 1862.45 574.993 Q1868.23 574.993 1871.61 578.164 Q1874.99 581.335 1874.99 586.752 Q1874.99 592.331 1871.52 595.432 Q1868.05 598.511 1861.73 598.511 Q1859.55 598.511 1857.29 598.141 Q1855.04 597.77 1852.63 597.03 L1852.63 592.331 Q1854.72 593.465 1856.94 594.02 Q1859.16 594.576 1861.64 594.576 Q1865.64 594.576 1867.98 592.47 Q1870.32 590.363 1870.32 586.752 Q1870.32 583.141 1867.98 581.034 Q1865.64 578.928 1861.64 578.928 Q1859.76 578.928 1857.89 579.345 Q1856.04 579.761 1854.09 580.641 L1854.09 563.28 Z" fill="#000000" fill-rule="nonzero" fill-opacity="1" /><path clip-path="url(#clip770)" d="M1894.21 566.359 Q1890.6 566.359 1888.77 569.923 Q1886.96 573.465 1886.96 580.595 Q1886.96 587.701 1888.77 591.266 Q1890.6 594.807 1894.21 594.807 Q1897.84 594.807 1899.65 591.266 Q1901.48 587.701 1901.48 580.595 Q1901.48 573.465 1899.65 569.923 Q1897.84 566.359 1894.21 566.359 M1894.21 562.655 Q1900.02 562.655 1903.07 567.261 Q1906.15 571.845 1906.15 580.595 Q1906.15 589.321 1903.07 593.928 Q1900.02 598.511 1894.21 598.511 Q1888.4 598.511 1885.32 593.928 Q1882.26 589.321 1882.26 580.595 Q1882.26 571.845 1885.32 567.261 Q1888.4 562.655 1894.21 562.655 Z" fill="#000000" fill-rule="nonzero" fill-opacity="1" /><path clip-path="url(#clip770)" d="M1334.79 634.534 L1334.79 644.656 L1346.86 644.656 L1346.86 649.207 L1334.79 649.207 L1334.79 668.559 Q1334.79 672.92 1335.97 674.161 Q1337.18 675.402 1340.84 675.402 L1346.86 675.402 L1346.86 680.304 L1340.84 680.304 Q1334.06 680.304 1331.48 677.789 Q1328.9 675.243 1328.9 668.559 L1328.9 649.207 L1324.61 649.207 L1324.61 644.656 L1328.9 644.656 L1328.9 634.534 L1334.79 634.534 Z" fill="#000000" fill-rule="nonzero" fill-opacity="1" /><polyline clip-path="url(#clip770)" style="stroke:#000000; stroke-linecap:round; stroke-linejoin:round; stroke-width:4; stroke-opacity:1; fill:none" points="608.396,535.44 608.396,47.2441 "/>
<polyline clip-path="url(#clip770)" style="stroke:#000000; stroke-linecap:round; stroke-linejoin:round; stroke-width:4; stroke-opacity:1; fill:none" points="608.396,513.249 627.294,513.249 "/>
<polyline clip-path="url(#clip770)" style="stroke:#000000; stroke-linecap:round; stroke-linejoin:round; stroke-width:4; stroke-opacity:1; fill:none" points="608.396,402.296 627.294,402.296 "/>
<polyline clip-path="url(#clip770)" style="stroke:#000000; stroke-linecap:round; stroke-linejoin:round; stroke-width:4; stroke-opacity:1; fill:none" points="608.396,291.342 627.294,291.342 "/>
<polyline clip-path="url(#clip770)" style="stroke:#000000; stroke-linecap:round; stroke-linejoin:round; stroke-width:4; stroke-opacity:1; fill:none" points="608.396,180.388 627.294,180.388 "/>
<polyline clip-path="url(#clip770)" style="stroke:#000000; stroke-linecap:round; stroke-linejoin:round; stroke-width:4; stroke-opacity:1; fill:none" points="608.396,69.4348 627.294,69.4348 "/>
<path clip-path="url(#clip770)" d="M465.452 513.701 L495.128 513.701 L495.128 517.636 L465.452 517.636 L465.452 513.701 Z" fill="#000000" fill-rule="nonzero" fill-opacity="1" /><path clip-path="url(#clip770)" d="M506.031 526.594 L513.669 526.594 L513.669 500.228 L505.359 501.895 L505.359 497.636 L513.623 495.969 L518.299 495.969 L518.299 526.594 L525.938 526.594 L525.938 530.529 L506.031 530.529 L506.031 526.594 Z" fill="#000000" fill-rule="nonzero" fill-opacity="1" /><path clip-path="url(#clip770)" d="M535.382 524.65 L540.266 524.65 L540.266 530.529 L535.382 530.529 L535.382 524.65 Z" fill="#000000" fill-rule="nonzero" fill-opacity="1" /><path clip-path="url(#clip770)" d="M560.452 499.048 Q556.84 499.048 555.012 502.613 Q553.206 506.154 553.206 513.284 Q553.206 520.39 555.012 523.955 Q556.84 527.497 560.452 527.497 Q564.086 527.497 565.891 523.955 Q567.72 520.39 567.72 513.284 Q567.72 506.154 565.891 502.613 Q564.086 499.048 560.452 499.048 M560.452 495.344 Q566.262 495.344 569.317 499.951 Q572.396 504.534 572.396 513.284 Q572.396 522.011 569.317 526.617 Q566.262 531.2 560.452 531.2 Q554.641 531.2 551.563 526.617 Q548.507 522.011 548.507 513.284 Q548.507 504.534 551.563 499.951 Q554.641 495.344 560.452 495.344 Z" fill="#000000" fill-rule="nonzero" fill-opacity="1" /><path clip-path="url(#clip770)" d="M466.447 402.747 L496.123 402.747 L496.123 406.682 L466.447 406.682 L466.447 402.747 Z" fill="#000000" fill-rule="nonzero" fill-opacity="1" /><path clip-path="url(#clip770)" d="M516.216 388.094 Q512.605 388.094 510.776 391.659 Q508.97 395.201 508.97 402.33 Q508.97 409.437 510.776 413.002 Q512.605 416.543 516.216 416.543 Q519.85 416.543 521.655 413.002 Q523.484 409.437 523.484 402.33 Q523.484 395.201 521.655 391.659 Q519.85 388.094 516.216 388.094 M516.216 384.391 Q522.026 384.391 525.081 388.997 Q528.16 393.58 528.16 402.33 Q528.16 411.057 525.081 415.664 Q522.026 420.247 516.216 420.247 Q510.406 420.247 507.327 415.664 Q504.271 411.057 504.271 402.33 Q504.271 393.58 507.327 388.997 Q510.406 384.391 516.216 384.391 Z" fill="#000000" fill-rule="nonzero" fill-opacity="1" /><path clip-path="url(#clip770)" d="M536.378 413.696 L541.262 413.696 L541.262 419.576 L536.378 419.576 L536.378 413.696 Z" fill="#000000" fill-rule="nonzero" fill-opacity="1" /><path clip-path="url(#clip770)" d="M551.493 385.016 L569.85 385.016 L569.85 388.951 L555.776 388.951 L555.776 397.423 Q556.794 397.076 557.813 396.914 Q558.831 396.728 559.85 396.728 Q565.637 396.728 569.016 399.9 Q572.396 403.071 572.396 408.488 Q572.396 414.066 568.924 417.168 Q565.452 420.247 559.132 420.247 Q556.956 420.247 554.688 419.876 Q552.442 419.506 550.035 418.765 L550.035 414.066 Q552.118 415.201 554.34 415.756 Q556.563 416.312 559.04 416.312 Q563.044 416.312 565.382 414.205 Q567.72 412.099 567.72 408.488 Q567.72 404.877 565.382 402.77 Q563.044 400.664 559.04 400.664 Q557.165 400.664 555.29 401.08 Q553.438 401.497 551.493 402.377 L551.493 385.016 Z" fill="#000000" fill-rule="nonzero" fill-opacity="1" /><path clip-path="url(#clip770)" d="M515.22 277.141 Q511.609 277.141 509.781 280.705 Q507.975 284.247 507.975 291.377 Q507.975 298.483 509.781 302.048 Q511.609 305.59 515.22 305.59 Q518.855 305.59 520.66 302.048 Q522.489 298.483 522.489 291.377 Q522.489 284.247 520.66 280.705 Q518.855 277.141 515.22 277.141 M515.22 273.437 Q521.03 273.437 524.086 278.043 Q527.165 282.627 527.165 291.377 Q527.165 300.103 524.086 304.71 Q521.03 309.293 515.22 309.293 Q509.41 309.293 506.331 304.71 Q503.276 300.103 503.276 291.377 Q503.276 282.627 506.331 278.043 Q509.41 273.437 515.22 273.437 Z" fill="#000000" fill-rule="nonzero" fill-opacity="1" /><path clip-path="url(#clip770)" d="M535.382 302.742 L540.266 302.742 L540.266 308.622 L535.382 308.622 L535.382 302.742 Z" fill="#000000" fill-rule="nonzero" fill-opacity="1" /><path clip-path="url(#clip770)" d="M560.452 277.141 Q556.84 277.141 555.012 280.705 Q553.206 284.247 553.206 291.377 Q553.206 298.483 555.012 302.048 Q556.84 305.59 560.452 305.59 Q564.086 305.59 565.891 302.048 Q567.72 298.483 567.72 291.377 Q567.72 284.247 565.891 280.705 Q564.086 277.141 560.452 277.141 M560.452 273.437 Q566.262 273.437 569.317 278.043 Q572.396 282.627 572.396 291.377 Q572.396 300.103 569.317 304.71 Q566.262 309.293 560.452 309.293 Q554.641 309.293 551.563 304.71 Q548.507 300.103 548.507 291.377 Q548.507 282.627 551.563 278.043 Q554.641 273.437 560.452 273.437 Z" fill="#000000" fill-rule="nonzero" fill-opacity="1" /><path clip-path="url(#clip770)" d="M516.216 166.187 Q512.605 166.187 510.776 169.752 Q508.97 173.294 508.97 180.423 Q508.97 187.53 510.776 191.094 Q512.605 194.636 516.216 194.636 Q519.85 194.636 521.655 191.094 Q523.484 187.53 523.484 180.423 Q523.484 173.294 521.655 169.752 Q519.85 166.187 516.216 166.187 M516.216 162.483 Q522.026 162.483 525.081 167.09 Q528.16 171.673 528.16 180.423 Q528.16 189.15 525.081 193.756 Q522.026 198.34 516.216 198.34 Q510.406 198.34 507.327 193.756 Q504.271 189.15 504.271 180.423 Q504.271 171.673 507.327 167.09 Q510.406 162.483 516.216 162.483 Z" fill="#000000" fill-rule="nonzero" fill-opacity="1" /><path clip-path="url(#clip770)" d="M536.378 191.789 L541.262 191.789 L541.262 197.668 L536.378 197.668 L536.378 191.789 Z" fill="#000000" fill-rule="nonzero" fill-opacity="1" /><path clip-path="url(#clip770)" d="M551.493 163.108 L569.85 163.108 L569.85 167.044 L555.776 167.044 L555.776 175.516 Q556.794 175.169 557.813 175.006 Q558.831 174.821 559.85 174.821 Q565.637 174.821 569.016 177.993 Q572.396 181.164 572.396 186.58 Q572.396 192.159 568.924 195.261 Q565.452 198.34 559.132 198.34 Q556.956 198.34 554.688 197.969 Q552.442 197.599 550.035 196.858 L550.035 192.159 Q552.118 193.293 554.34 193.849 Q556.563 194.405 559.04 194.405 Q563.044 194.405 565.382 192.298 Q567.72 190.192 567.72 186.58 Q567.72 182.969 565.382 180.863 Q563.044 178.756 559.04 178.756 Q557.165 178.756 555.29 179.173 Q553.438 179.59 551.493 180.469 L551.493 163.108 Z" fill="#000000" fill-rule="nonzero" fill-opacity="1" /><path clip-path="url(#clip770)" d="M506.031 82.7796 L513.669 82.7796 L513.669 56.414 L505.359 58.0807 L505.359 53.8215 L513.623 52.1548 L518.299 52.1548 L518.299 82.7796 L525.938 82.7796 L525.938 86.7148 L506.031 86.7148 L506.031 82.7796 Z" fill="#000000" fill-rule="nonzero" fill-opacity="1" /><path clip-path="url(#clip770)" d="M535.382 80.8352 L540.266 80.8352 L540.266 86.7148 L535.382 86.7148 L535.382 80.8352 Z" fill="#000000" fill-rule="nonzero" fill-opacity="1" /><path clip-path="url(#clip770)" d="M560.452 55.2335 Q556.84 55.2335 555.012 58.7983 Q553.206 62.3399 553.206 69.4695 Q553.206 76.576 555.012 80.1408 Q556.84 83.6824 560.452 83.6824 Q564.086 83.6824 565.891 80.1408 Q567.72 76.576 567.72 69.4695 Q567.72 62.3399 565.891 58.7983 Q564.086 55.2335 560.452 55.2335 M560.452 51.5298 Q566.262 51.5298 569.317 56.1363 Q572.396 60.7196 572.396 69.4695 Q572.396 78.1963 569.317 82.8028 Q566.262 87.3861 560.452 87.3861 Q554.641 87.3861 551.563 82.8028 Q548.507 78.1963 548.507 69.4695 Q548.507 60.7196 551.563 56.1363 Q554.641 51.5298 560.452 51.5298 Z" fill="#000000" fill-rule="nonzero" fill-opacity="1" /><polyline clip-path="url(#clip772)" style="stroke:#009af9; stroke-linecap:round; stroke-linejoin:round; stroke-width:4; stroke-opacity:1; fill:none" points="649.566,69.4348 650.968,69.4348 659.182,69.4348 663.003,69.4348 668.124,69.4348 672.356,69.4348 676.291,69.4348 681.231,69.4348 685.663,69.4348 690.735,69.4348 694.527,69.4348 699.376,69.4348 703.802,69.4348 708.839,69.4348 712.833,69.4348 717.794,69.4348 721.593,69.4348 726.95,69.4348 730.953,69.4348 735.505,69.4348 740.013,69.4348 744.973,69.4348 748.762,69.4348 753.542,69.4348 757.964,69.4348 762.524,69.4348 767.147,69.4348 771.973,69.4348 775.775,69.4348 784.434,69.4348 785.405,69.4348 "/>
<polyline clip-path="url(#clip772)" style="stroke:#009af9; stroke-linecap:round; stroke-linejoin:round; stroke-width:4; stroke-opacity:1; fill:none" points="785.405,108.845 790.928,108.845 823.273,108.845 838.319,108.845 858.487,108.845 875.153,108.845 890.65,108.845 910.104,108.845 927.554,108.845 947.528,108.845 962.459,108.845 981.556,108.845 998.985,108.845 1018.82,108.845 1034.55,108.845 1054.08,108.845 1069.05,108.845 1090.14,108.845 1105.9,108.845 1123.83,108.845 1141.58,108.845 1161.12,108.845 1176.03,108.845 1194.86,108.845 1212.27,108.845 1230.23,108.845 1248.43,108.845 1267.44,108.845 1282.41,108.845 1316.51,108.845 1320.34,108.845 "/>
<polyline clip-path="url(#clip772)" style="stroke:#009af9; stroke-linecap:round; stroke-linejoin:round; stroke-width:4; stroke-opacity:1; fill:none" points="1320.34,69.4348 1327.58,69.4348 1370,69.4348 1389.73,69.4348 1416.18,69.4348 1438.04,69.4348 1458.36,69.4348 1483.88,69.4348 1506.76,69.4348 1532.96,69.4348 1552.54,69.4348 1577.59,69.4348 1600.45,69.4348 1626.46,69.4348 1647.09,69.4348 1672.71,69.4348 1692.33,69.4348 1720,69.4348 1740.67,69.4348 1764.18,69.4348 1787.46,69.4348 1813.08,69.4348 1832.65,69.4348 1857.34,69.4348 1880.17,69.4348 1903.72,69.4348 1927.6,69.4348 1952.52,69.4348 1972.16,69.4348 2016.88,69.4348 2021.9,69.4348 "/>
<path clip-path="url(#clip770)" d="M1744.99 519.167 L2014.58 519.167 L2014.58 415.487 L1744.99 415.487  Z" fill="#ffffff" fill-rule="evenodd" fill-opacity="1"/>
<polyline clip-path="url(#clip770)" style="stroke:#000000; stroke-linecap:round; stroke-linejoin:round; stroke-width:4; stroke-opacity:1; fill:none" points="1744.99,519.167 2014.58,519.167 2014.58,415.487 1744.99,415.487 1744.99,519.167 "/>
<polyline clip-path="url(#clip770)" style="stroke:#009af9; stroke-linecap:round; stroke-linejoin:round; stroke-width:4; stroke-opacity:1; fill:none" points="1761.15,467.327 1858.13,467.327 "/>
<path clip-path="url(#clip770)" d="M1892.72 459.445 L1892.72 463.473 Q1890.92 462.547 1888.97 462.084 Q1887.03 461.621 1884.94 461.621 Q1881.77 461.621 1880.17 462.593 Q1878.6 463.565 1878.6 465.51 Q1878.6 466.991 1879.73 467.847 Q1880.87 468.681 1884.29 469.445 L1885.75 469.769 Q1890.29 470.741 1892.19 472.523 Q1894.11 474.283 1894.11 477.454 Q1894.11 481.065 1891.24 483.171 Q1888.39 485.278 1883.39 485.278 Q1881.31 485.278 1879.04 484.861 Q1876.79 484.468 1874.29 483.658 L1874.29 479.259 Q1876.66 480.486 1878.95 481.111 Q1881.24 481.713 1883.48 481.713 Q1886.49 481.713 1888.11 480.695 Q1889.73 479.653 1889.73 477.778 Q1889.73 476.042 1888.55 475.116 Q1887.4 474.19 1883.44 473.334 L1881.96 472.986 Q1878 472.153 1876.24 470.44 Q1874.48 468.704 1874.48 465.695 Q1874.48 462.037 1877.07 460.047 Q1879.67 458.056 1884.43 458.056 Q1886.79 458.056 1888.88 458.403 Q1890.96 458.75 1892.72 459.445 Z" fill="#000000" fill-rule="nonzero" fill-opacity="1" /><path clip-path="url(#clip770)" d="M1910.94 461.667 Q1907.51 461.667 1905.52 464.352 Q1903.53 467.014 1903.53 471.667 Q1903.53 476.32 1905.5 479.005 Q1907.49 481.667 1910.94 481.667 Q1914.34 481.667 1916.33 478.982 Q1918.32 476.297 1918.32 471.667 Q1918.32 467.06 1916.33 464.375 Q1914.34 461.667 1910.94 461.667 M1910.94 458.056 Q1916.49 458.056 1919.67 461.667 Q1922.84 465.278 1922.84 471.667 Q1922.84 478.033 1919.67 481.667 Q1916.49 485.278 1910.94 485.278 Q1905.36 485.278 1902.19 481.667 Q1899.04 478.033 1899.04 471.667 Q1899.04 465.278 1902.19 461.667 Q1905.36 458.056 1910.94 458.056 Z" fill="#000000" fill-rule="nonzero" fill-opacity="1" /><path clip-path="url(#clip770)" d="M1929.9 448.588 L1934.16 448.588 L1934.16 484.607 L1929.9 484.607 L1929.9 448.588 Z" fill="#000000" fill-rule="nonzero" fill-opacity="1" /><path clip-path="url(#clip770)" d="M1942.21 482.06 L1946.93 482.06 L1946.93 467.917 L1941.77 468.866 L1941.77 466.181 L1947.1 465.278 L1950.27 465.278 L1950.27 482.06 L1955.01 482.06 L1955.01 484.607 L1942.21 484.607 L1942.21 482.06 Z" fill="#000000" fill-rule="nonzero" fill-opacity="1" /><path clip-path="url(#clip770)" d="M1976.7 474.375 L1976.7 458.681 L1980.96 458.681 L1980.96 474.213 Q1980.96 477.894 1982.4 479.746 Q1983.83 481.574 1986.7 481.574 Q1990.15 481.574 1992.14 479.375 Q1994.16 477.176 1994.16 473.38 L1994.16 458.681 L1998.41 458.681 L1998.41 484.607 L1994.16 484.607 L1994.16 480.625 Q1992.6 482.986 1990.54 484.144 Q1988.51 485.278 1985.8 485.278 Q1981.33 485.278 1979.02 482.5 Q1976.7 479.722 1976.7 474.375 M1987.42 458.056 L1987.42 458.056 Z" fill="#000000" fill-rule="nonzero" fill-opacity="1" /><path clip-path="url(#clip770)" d="M172.015 1235.44 L772.864 1235.44 L772.864 747.244 L172.015 747.244  Z" fill="#ffffff" fill-rule="evenodd" fill-opacity="1"/>
<defs>
  <clipPath id="clip773">
    <rect x="172" y="747" width="602" height="489"/>
  </clipPath>
</defs>
<polyline clip-path="url(#clip773)" style="stroke:#000000; stroke-linecap:round; stroke-linejoin:round; stroke-width:2; stroke-opacity:0.1; fill:none" points="189.02,1235.44 189.02,747.244 "/>
<polyline clip-path="url(#clip773)" style="stroke:#000000; stroke-linecap:round; stroke-linejoin:round; stroke-width:2; stroke-opacity:0.1; fill:none" points="290.615,1235.44 290.615,747.244 "/>
<polyline clip-path="url(#clip773)" style="stroke:#000000; stroke-linecap:round; stroke-linejoin:round; stroke-width:2; stroke-opacity:0.1; fill:none" points="392.211,1235.44 392.211,747.244 "/>
<polyline clip-path="url(#clip773)" style="stroke:#000000; stroke-linecap:round; stroke-linejoin:round; stroke-width:2; stroke-opacity:0.1; fill:none" points="493.806,1235.44 493.806,747.244 "/>
<polyline clip-path="url(#clip773)" style="stroke:#000000; stroke-linecap:round; stroke-linejoin:round; stroke-width:2; stroke-opacity:0.1; fill:none" points="595.402,1235.44 595.402,747.244 "/>
<polyline clip-path="url(#clip773)" style="stroke:#000000; stroke-linecap:round; stroke-linejoin:round; stroke-width:2; stroke-opacity:0.1; fill:none" points="696.997,1235.44 696.997,747.244 "/>
<polyline clip-path="url(#clip773)" style="stroke:#000000; stroke-linecap:round; stroke-linejoin:round; stroke-width:2; stroke-opacity:0.1; fill:none" points="172.015,1221.62 772.864,1221.62 "/>
<polyline clip-path="url(#clip773)" style="stroke:#000000; stroke-linecap:round; stroke-linejoin:round; stroke-width:2; stroke-opacity:0.1; fill:none" points="172.015,1119.19 772.864,1119.19 "/>
<polyline clip-path="url(#clip773)" style="stroke:#000000; stroke-linecap:round; stroke-linejoin:round; stroke-width:2; stroke-opacity:0.1; fill:none" points="172.015,1016.76 772.864,1016.76 "/>
<polyline clip-path="url(#clip773)" style="stroke:#000000; stroke-linecap:round; stroke-linejoin:round; stroke-width:2; stroke-opacity:0.1; fill:none" points="172.015,914.333 772.864,914.333 "/>
<polyline clip-path="url(#clip773)" style="stroke:#000000; stroke-linecap:round; stroke-linejoin:round; stroke-width:2; stroke-opacity:0.1; fill:none" points="172.015,811.903 772.864,811.903 "/>
<polyline clip-path="url(#clip770)" style="stroke:#000000; stroke-linecap:round; stroke-linejoin:round; stroke-width:4; stroke-opacity:1; fill:none" points="172.015,1235.44 772.864,1235.44 "/>
<polyline clip-path="url(#clip770)" style="stroke:#000000; stroke-linecap:round; stroke-linejoin:round; stroke-width:4; stroke-opacity:1; fill:none" points="189.02,1235.44 189.02,1216.54 "/>
<polyline clip-path="url(#clip770)" style="stroke:#000000; stroke-linecap:round; stroke-linejoin:round; stroke-width:4; stroke-opacity:1; fill:none" points="290.615,1235.44 290.615,1216.54 "/>
<polyline clip-path="url(#clip770)" style="stroke:#000000; stroke-linecap:round; stroke-linejoin:round; stroke-width:4; stroke-opacity:1; fill:none" points="392.211,1235.44 392.211,1216.54 "/>
<polyline clip-path="url(#clip770)" style="stroke:#000000; stroke-linecap:round; stroke-linejoin:round; stroke-width:4; stroke-opacity:1; fill:none" points="493.806,1235.44 493.806,1216.54 "/>
<polyline clip-path="url(#clip770)" style="stroke:#000000; stroke-linecap:round; stroke-linejoin:round; stroke-width:4; stroke-opacity:1; fill:none" points="595.402,1235.44 595.402,1216.54 "/>
<polyline clip-path="url(#clip770)" style="stroke:#000000; stroke-linecap:round; stroke-linejoin:round; stroke-width:4; stroke-opacity:1; fill:none" points="696.997,1235.44 696.997,1216.54 "/>
<path clip-path="url(#clip770)" d="M189.02 1266.36 Q185.409 1266.36 183.58 1269.92 Q181.775 1273.46 181.775 1280.59 Q181.775 1287.7 183.58 1291.27 Q185.409 1294.81 189.02 1294.81 Q192.654 1294.81 194.46 1291.27 Q196.288 1287.7 196.288 1280.59 Q196.288 1273.46 194.46 1269.92 Q192.654 1266.36 189.02 1266.36 M189.02 1262.65 Q194.83 1262.65 197.886 1267.26 Q200.964 1271.84 200.964 1280.59 Q200.964 1289.32 197.886 1293.93 Q194.83 1298.51 189.02 1298.51 Q183.21 1298.51 180.131 1293.93 Q177.076 1289.32 177.076 1280.59 Q177.076 1271.84 180.131 1267.26 Q183.21 1262.65 189.02 1262.65 Z" fill="#000000" fill-rule="nonzero" fill-opacity="1" /><path clip-path="url(#clip770)" d="M265.303 1293.9 L272.942 1293.9 L272.942 1267.54 L264.632 1269.21 L264.632 1264.95 L272.896 1263.28 L277.572 1263.28 L277.572 1293.9 L285.21 1293.9 L285.21 1297.84 L265.303 1297.84 L265.303 1293.9 Z" fill="#000000" fill-rule="nonzero" fill-opacity="1" /><path clip-path="url(#clip770)" d="M304.655 1266.36 Q301.044 1266.36 299.215 1269.92 Q297.409 1273.46 297.409 1280.59 Q297.409 1287.7 299.215 1291.27 Q301.044 1294.81 304.655 1294.81 Q308.289 1294.81 310.095 1291.27 Q311.923 1287.7 311.923 1280.59 Q311.923 1273.46 310.095 1269.92 Q308.289 1266.36 304.655 1266.36 M304.655 1262.65 Q310.465 1262.65 313.52 1267.26 Q316.599 1271.84 316.599 1280.59 Q316.599 1289.32 313.52 1293.93 Q310.465 1298.51 304.655 1298.51 Q298.845 1298.51 295.766 1293.93 Q292.71 1289.32 292.71 1280.59 Q292.71 1271.84 295.766 1267.26 Q298.845 1262.65 304.655 1262.65 Z" fill="#000000" fill-rule="nonzero" fill-opacity="1" /><path clip-path="url(#clip770)" d="M370.984 1293.9 L387.304 1293.9 L387.304 1297.84 L365.359 1297.84 L365.359 1293.9 Q368.021 1291.15 372.605 1286.52 Q377.211 1281.87 378.392 1280.53 Q380.637 1278 381.517 1276.27 Q382.419 1274.51 382.419 1272.82 Q382.419 1270.06 380.475 1268.33 Q378.554 1266.59 375.452 1266.59 Q373.253 1266.59 370.799 1267.35 Q368.368 1268.12 365.591 1269.67 L365.591 1264.95 Q368.415 1263.81 370.868 1263.23 Q373.322 1262.65 375.359 1262.65 Q380.73 1262.65 383.924 1265.34 Q387.118 1268.03 387.118 1272.52 Q387.118 1274.65 386.308 1276.57 Q385.521 1278.46 383.415 1281.06 Q382.836 1281.73 379.734 1284.95 Q376.632 1288.14 370.984 1293.9 Z" fill="#000000" fill-rule="nonzero" fill-opacity="1" /><path clip-path="url(#clip770)" d="M407.118 1266.36 Q403.507 1266.36 401.678 1269.92 Q399.873 1273.46 399.873 1280.59 Q399.873 1287.7 401.678 1291.27 Q403.507 1294.81 407.118 1294.81 Q410.753 1294.81 412.558 1291.27 Q414.387 1287.7 414.387 1280.59 Q414.387 1273.46 412.558 1269.92 Q410.753 1266.36 407.118 1266.36 M407.118 1262.65 Q412.928 1262.65 415.984 1267.26 Q419.063 1271.84 419.063 1280.59 Q419.063 1289.32 415.984 1293.93 Q412.928 1298.51 407.118 1298.51 Q401.308 1298.51 398.229 1293.93 Q395.174 1289.32 395.174 1280.59 Q395.174 1271.84 398.229 1267.26 Q401.308 1262.65 407.118 1262.65 Z" fill="#000000" fill-rule="nonzero" fill-opacity="1" /><path clip-path="url(#clip770)" d="M482.649 1279.21 Q486.006 1279.92 487.881 1282.19 Q489.779 1284.46 489.779 1287.79 Q489.779 1292.91 486.26 1295.71 Q482.742 1298.51 476.26 1298.51 Q474.084 1298.51 471.77 1298.07 Q469.478 1297.65 467.024 1296.8 L467.024 1292.28 Q468.969 1293.42 471.283 1294 Q473.598 1294.58 476.121 1294.58 Q480.519 1294.58 482.811 1292.84 Q485.126 1291.1 485.126 1287.79 Q485.126 1284.74 482.973 1283.03 Q480.844 1281.29 477.024 1281.29 L472.996 1281.29 L472.996 1277.45 L477.209 1277.45 Q480.658 1277.45 482.487 1276.08 Q484.316 1274.69 484.316 1272.1 Q484.316 1269.44 482.418 1268.03 Q480.543 1266.59 477.024 1266.59 Q475.103 1266.59 472.904 1267.01 Q470.705 1267.42 468.066 1268.3 L468.066 1264.14 Q470.728 1263.4 473.043 1263.03 Q475.381 1262.65 477.441 1262.65 Q482.765 1262.65 485.867 1265.09 Q488.968 1267.49 488.968 1271.61 Q488.968 1274.48 487.325 1276.47 Q485.681 1278.44 482.649 1279.21 Z" fill="#000000" fill-rule="nonzero" fill-opacity="1" /><path clip-path="url(#clip770)" d="M508.644 1266.36 Q505.033 1266.36 503.205 1269.92 Q501.399 1273.46 501.399 1280.59 Q501.399 1287.7 503.205 1291.27 Q505.033 1294.81 508.644 1294.81 Q512.279 1294.81 514.084 1291.27 Q515.913 1287.7 515.913 1280.59 Q515.913 1273.46 514.084 1269.92 Q512.279 1266.36 508.644 1266.36 M508.644 1262.65 Q514.454 1262.65 517.51 1267.26 Q520.589 1271.84 520.589 1280.59 Q520.589 1289.32 517.51 1293.93 Q514.454 1298.51 508.644 1298.51 Q502.834 1298.51 499.755 1293.93 Q496.7 1289.32 496.7 1280.59 Q496.7 1271.84 499.755 1267.26 Q502.834 1262.65 508.644 1262.65 Z" fill="#000000" fill-rule="nonzero" fill-opacity="1" /><path clip-path="url(#clip770)" d="M583.573 1267.35 L571.768 1285.8 L583.573 1285.8 L583.573 1267.35 M582.346 1263.28 L588.226 1263.28 L588.226 1285.8 L593.157 1285.8 L593.157 1289.69 L588.226 1289.69 L588.226 1297.84 L583.573 1297.84 L583.573 1289.69 L567.972 1289.69 L567.972 1285.18 L582.346 1263.28 Z" fill="#000000" fill-rule="nonzero" fill-opacity="1" /><path clip-path="url(#clip770)" d="M610.888 1266.36 Q607.277 1266.36 605.448 1269.92 Q603.643 1273.46 603.643 1280.59 Q603.643 1287.7 605.448 1291.27 Q607.277 1294.81 610.888 1294.81 Q614.522 1294.81 616.328 1291.27 Q618.156 1287.7 618.156 1280.59 Q618.156 1273.46 616.328 1269.92 Q614.522 1266.36 610.888 1266.36 M610.888 1262.65 Q616.698 1262.65 619.754 1267.26 Q622.832 1271.84 622.832 1280.59 Q622.832 1289.32 619.754 1293.93 Q616.698 1298.51 610.888 1298.51 Q605.078 1298.51 601.999 1293.93 Q598.944 1289.32 598.944 1280.59 Q598.944 1271.84 601.999 1267.26 Q605.078 1262.65 610.888 1262.65 Z" fill="#000000" fill-rule="nonzero" fill-opacity="1" /><path clip-path="url(#clip770)" d="M671.697 1263.28 L690.053 1263.28 L690.053 1267.22 L675.979 1267.22 L675.979 1275.69 Q676.998 1275.34 678.016 1275.18 Q679.035 1274.99 680.053 1274.99 Q685.84 1274.99 689.22 1278.16 Q692.599 1281.34 692.599 1286.75 Q692.599 1292.33 689.127 1295.43 Q685.655 1298.51 679.335 1298.51 Q677.16 1298.51 674.891 1298.14 Q672.646 1297.77 670.238 1297.03 L670.238 1292.33 Q672.322 1293.46 674.544 1294.02 Q676.766 1294.58 679.243 1294.58 Q683.247 1294.58 685.585 1292.47 Q687.923 1290.36 687.923 1286.75 Q687.923 1283.14 685.585 1281.03 Q683.247 1278.93 679.243 1278.93 Q677.368 1278.93 675.493 1279.34 Q673.641 1279.76 671.697 1280.64 L671.697 1263.28 Z" fill="#000000" fill-rule="nonzero" fill-opacity="1" /><path clip-path="url(#clip770)" d="M711.812 1266.36 Q708.201 1266.36 706.372 1269.92 Q704.567 1273.46 704.567 1280.59 Q704.567 1287.7 706.372 1291.27 Q708.201 1294.81 711.812 1294.81 Q715.446 1294.81 717.252 1291.27 Q719.081 1287.7 719.081 1280.59 Q719.081 1273.46 717.252 1269.92 Q715.446 1266.36 711.812 1266.36 M711.812 1262.65 Q717.622 1262.65 720.678 1267.26 Q723.757 1271.84 723.757 1280.59 Q723.757 1289.32 720.678 1293.93 Q717.622 1298.51 711.812 1298.51 Q706.002 1298.51 702.923 1293.93 Q699.868 1289.32 699.868 1280.59 Q699.868 1271.84 702.923 1267.26 Q706.002 1262.65 711.812 1262.65 Z" fill="#000000" fill-rule="nonzero" fill-opacity="1" /><path clip-path="url(#clip770)" d="M471.5 1334.53 L471.5 1344.66 L483.563 1344.66 L483.563 1349.21 L471.5 1349.21 L471.5 1368.56 Q471.5 1372.92 472.678 1374.16 Q473.888 1375.4 477.548 1375.4 L483.563 1375.4 L483.563 1380.3 L477.548 1380.3 Q470.768 1380.3 468.19 1377.79 Q465.612 1375.24 465.612 1368.56 L465.612 1349.21 L461.315 1349.21 L461.315 1344.66 L465.612 1344.66 L465.612 1334.53 L471.5 1334.53 Z" fill="#000000" fill-rule="nonzero" fill-opacity="1" /><polyline clip-path="url(#clip770)" style="stroke:#000000; stroke-linecap:round; stroke-linejoin:round; stroke-width:4; stroke-opacity:1; fill:none" points="172.015,1235.44 172.015,747.244 "/>
<polyline clip-path="url(#clip770)" style="stroke:#000000; stroke-linecap:round; stroke-linejoin:round; stroke-width:4; stroke-opacity:1; fill:none" points="172.015,1221.62 190.912,1221.62 "/>
<polyline clip-path="url(#clip770)" style="stroke:#000000; stroke-linecap:round; stroke-linejoin:round; stroke-width:4; stroke-opacity:1; fill:none" points="172.015,1119.19 190.912,1119.19 "/>
<polyline clip-path="url(#clip770)" style="stroke:#000000; stroke-linecap:round; stroke-linejoin:round; stroke-width:4; stroke-opacity:1; fill:none" points="172.015,1016.76 190.912,1016.76 "/>
<polyline clip-path="url(#clip770)" style="stroke:#000000; stroke-linecap:round; stroke-linejoin:round; stroke-width:4; stroke-opacity:1; fill:none" points="172.015,914.333 190.912,914.333 "/>
<polyline clip-path="url(#clip770)" style="stroke:#000000; stroke-linecap:round; stroke-linejoin:round; stroke-width:4; stroke-opacity:1; fill:none" points="172.015,811.903 190.912,811.903 "/>
<path clip-path="url(#clip770)" d="M124.07 1207.42 Q120.459 1207.42 118.631 1210.99 Q116.825 1214.53 116.825 1221.66 Q116.825 1228.76 118.631 1232.33 Q120.459 1235.87 124.07 1235.87 Q127.705 1235.87 129.51 1232.33 Q131.339 1228.76 131.339 1221.66 Q131.339 1214.53 129.51 1210.99 Q127.705 1207.42 124.07 1207.42 M124.07 1203.72 Q129.881 1203.72 132.936 1208.32 Q136.015 1212.91 136.015 1221.66 Q136.015 1230.38 132.936 1234.99 Q129.881 1239.57 124.07 1239.57 Q118.26 1239.57 115.182 1234.99 Q112.126 1230.38 112.126 1221.66 Q112.126 1212.91 115.182 1208.32 Q118.26 1203.72 124.07 1203.72 Z" fill="#000000" fill-rule="nonzero" fill-opacity="1" /><path clip-path="url(#clip770)" d="M54.5569 1132.54 L62.1958 1132.54 L62.1958 1106.17 L53.8856 1107.84 L53.8856 1103.58 L62.1495 1101.91 L66.8254 1101.91 L66.8254 1132.54 L74.4642 1132.54 L74.4642 1136.47 L54.5569 1136.47 L54.5569 1132.54 Z" fill="#000000" fill-rule="nonzero" fill-opacity="1" /><path clip-path="url(#clip770)" d="M93.9086 1104.99 Q90.2975 1104.99 88.4688 1108.56 Q86.6632 1112.1 86.6632 1119.23 Q86.6632 1126.33 88.4688 1129.9 Q90.2975 1133.44 93.9086 1133.44 Q97.5428 1133.44 99.3483 1129.9 Q101.177 1126.33 101.177 1119.23 Q101.177 1112.1 99.3483 1108.56 Q97.5428 1104.99 93.9086 1104.99 M93.9086 1101.29 Q99.7187 1101.29 102.774 1105.89 Q105.853 1110.48 105.853 1119.23 Q105.853 1127.95 102.774 1132.56 Q99.7187 1137.14 93.9086 1137.14 Q88.0984 1137.14 85.0197 1132.56 Q81.9642 1127.95 81.9642 1119.23 Q81.9642 1110.48 85.0197 1105.89 Q88.0984 1101.29 93.9086 1101.29 Z" fill="#000000" fill-rule="nonzero" fill-opacity="1" /><path clip-path="url(#clip770)" d="M124.07 1104.99 Q120.459 1104.99 118.631 1108.56 Q116.825 1112.1 116.825 1119.23 Q116.825 1126.33 118.631 1129.9 Q120.459 1133.44 124.07 1133.44 Q127.705 1133.44 129.51 1129.9 Q131.339 1126.33 131.339 1119.23 Q131.339 1112.1 129.51 1108.56 Q127.705 1104.99 124.07 1104.99 M124.07 1101.29 Q129.881 1101.29 132.936 1105.89 Q136.015 1110.48 136.015 1119.23 Q136.015 1127.95 132.936 1132.56 Q129.881 1137.14 124.07 1137.14 Q118.26 1137.14 115.182 1132.56 Q112.126 1127.95 112.126 1119.23 Q112.126 1110.48 115.182 1105.89 Q118.26 1101.29 124.07 1101.29 Z" fill="#000000" fill-rule="nonzero" fill-opacity="1" /><path clip-path="url(#clip770)" d="M57.7745 1030.11 L74.0939 1030.11 L74.0939 1034.04 L52.1495 1034.04 L52.1495 1030.11 Q54.8115 1027.35 59.3949 1022.72 Q64.0013 1018.07 65.1819 1016.73 Q67.4272 1014.21 68.3068 1012.47 Q69.2096 1010.71 69.2096 1009.02 Q69.2096 1006.27 67.2652 1004.53 Q65.3439 1002.79 62.2421 1002.79 Q60.043 1002.79 57.5893 1003.56 Q55.1588 1004.32 52.381 1005.87 L52.381 1001.15 Q55.2051 1000.02 57.6588 999.437 Q60.1124 998.858 62.1495 998.858 Q67.5198 998.858 70.7142 1001.54 Q73.9087 1004.23 73.9087 1008.72 Q73.9087 1010.85 73.0985 1012.77 Q72.3115 1014.67 70.205 1017.26 Q69.6263 1017.93 66.5245 1021.15 Q63.4226 1024.34 57.7745 1030.11 Z" fill="#000000" fill-rule="nonzero" fill-opacity="1" /><path clip-path="url(#clip770)" d="M93.9086 1002.56 Q90.2975 1002.56 88.4688 1006.13 Q86.6632 1009.67 86.6632 1016.8 Q86.6632 1023.9 88.4688 1027.47 Q90.2975 1031.01 93.9086 1031.01 Q97.5428 1031.01 99.3483 1027.47 Q101.177 1023.9 101.177 1016.8 Q101.177 1009.67 99.3483 1006.13 Q97.5428 1002.56 93.9086 1002.56 M93.9086 998.858 Q99.7187 998.858 102.774 1003.46 Q105.853 1008.05 105.853 1016.8 Q105.853 1025.52 102.774 1030.13 Q99.7187 1034.71 93.9086 1034.71 Q88.0984 1034.71 85.0197 1030.13 Q81.9642 1025.52 81.9642 1016.8 Q81.9642 1008.05 85.0197 1003.46 Q88.0984 998.858 93.9086 998.858 Z" fill="#000000" fill-rule="nonzero" fill-opacity="1" /><path clip-path="url(#clip770)" d="M124.07 1002.56 Q120.459 1002.56 118.631 1006.13 Q116.825 1009.67 116.825 1016.8 Q116.825 1023.9 118.631 1027.47 Q120.459 1031.01 124.07 1031.01 Q127.705 1031.01 129.51 1027.47 Q131.339 1023.9 131.339 1016.8 Q131.339 1009.67 129.51 1006.13 Q127.705 1002.56 124.07 1002.56 M124.07 998.858 Q129.881 998.858 132.936 1003.46 Q136.015 1008.05 136.015 1016.8 Q136.015 1025.52 132.936 1030.13 Q129.881 1034.71 124.07 1034.71 Q118.26 1034.71 115.182 1030.13 Q112.126 1025.52 112.126 1016.8 Q112.126 1008.05 115.182 1003.46 Q118.26 998.858 124.07 998.858 Z" fill="#000000" fill-rule="nonzero" fill-opacity="1" /><path clip-path="url(#clip770)" d="M67.9133 912.979 Q71.2698 913.697 73.1448 915.965 Q75.0429 918.234 75.0429 921.567 Q75.0429 926.683 71.5244 929.484 Q68.0059 932.284 61.5245 932.284 Q59.3486 932.284 57.0338 931.845 Q54.7421 931.428 52.2884 930.571 L52.2884 926.058 Q54.2328 927.192 56.5477 927.771 Q58.8625 928.349 61.3856 928.349 Q65.7837 928.349 68.0754 926.613 Q70.3902 924.877 70.3902 921.567 Q70.3902 918.511 68.2374 916.798 Q66.1078 915.062 62.2884 915.062 L58.2606 915.062 L58.2606 911.22 L62.4735 911.22 Q65.9226 911.22 67.7513 909.854 Q69.58 908.465 69.58 905.873 Q69.58 903.211 67.6819 901.798 Q65.8069 900.363 62.2884 900.363 Q60.3671 900.363 58.168 900.78 Q55.969 901.197 53.3301 902.076 L53.3301 897.91 Q55.9921 897.169 58.3069 896.799 Q60.6449 896.428 62.705 896.428 Q68.0291 896.428 71.1309 898.859 Q74.2327 901.266 74.2327 905.386 Q74.2327 908.257 72.5892 910.248 Q70.9457 912.215 67.9133 912.979 Z" fill="#000000" fill-rule="nonzero" fill-opacity="1" /><path clip-path="url(#clip770)" d="M93.9086 900.132 Q90.2975 900.132 88.4688 903.697 Q86.6632 907.238 86.6632 914.368 Q86.6632 921.474 88.4688 925.039 Q90.2975 928.581 93.9086 928.581 Q97.5428 928.581 99.3483 925.039 Q101.177 921.474 101.177 914.368 Q101.177 907.238 99.3483 903.697 Q97.5428 900.132 93.9086 900.132 M93.9086 896.428 Q99.7187 896.428 102.774 901.035 Q105.853 905.618 105.853 914.368 Q105.853 923.095 102.774 927.701 Q99.7187 932.284 93.9086 932.284 Q88.0984 932.284 85.0197 927.701 Q81.9642 923.095 81.9642 914.368 Q81.9642 905.618 85.0197 901.035 Q88.0984 896.428 93.9086 896.428 Z" fill="#000000" fill-rule="nonzero" fill-opacity="1" /><path clip-path="url(#clip770)" d="M124.07 900.132 Q120.459 900.132 118.631 903.697 Q116.825 907.238 116.825 914.368 Q116.825 921.474 118.631 925.039 Q120.459 928.581 124.07 928.581 Q127.705 928.581 129.51 925.039 Q131.339 921.474 131.339 914.368 Q131.339 907.238 129.51 903.697 Q127.705 900.132 124.07 900.132 M124.07 896.428 Q129.881 896.428 132.936 901.035 Q136.015 905.618 136.015 914.368 Q136.015 923.095 132.936 927.701 Q129.881 932.284 124.07 932.284 Q118.26 932.284 115.182 927.701 Q112.126 923.095 112.126 914.368 Q112.126 905.618 115.182 901.035 Q118.26 896.428 124.07 896.428 Z" fill="#000000" fill-rule="nonzero" fill-opacity="1" /><path clip-path="url(#clip770)" d="M66.5939 798.697 L54.7884 817.146 L66.5939 817.146 L66.5939 798.697 M65.367 794.623 L71.2466 794.623 L71.2466 817.146 L76.1772 817.146 L76.1772 821.035 L71.2466 821.035 L71.2466 829.183 L66.5939 829.183 L66.5939 821.035 L50.9921 821.035 L50.9921 816.521 L65.367 794.623 Z" fill="#000000" fill-rule="nonzero" fill-opacity="1" /><path clip-path="url(#clip770)" d="M93.9086 797.702 Q90.2975 797.702 88.4688 801.267 Q86.6632 804.808 86.6632 811.938 Q86.6632 819.044 88.4688 822.609 Q90.2975 826.151 93.9086 826.151 Q97.5428 826.151 99.3483 822.609 Q101.177 819.044 101.177 811.938 Q101.177 804.808 99.3483 801.267 Q97.5428 797.702 93.9086 797.702 M93.9086 793.998 Q99.7187 793.998 102.774 798.605 Q105.853 803.188 105.853 811.938 Q105.853 820.665 102.774 825.271 Q99.7187 829.854 93.9086 829.854 Q88.0984 829.854 85.0197 825.271 Q81.9642 820.665 81.9642 811.938 Q81.9642 803.188 85.0197 798.605 Q88.0984 793.998 93.9086 793.998 Z" fill="#000000" fill-rule="nonzero" fill-opacity="1" /><path clip-path="url(#clip770)" d="M124.07 797.702 Q120.459 797.702 118.631 801.267 Q116.825 804.808 116.825 811.938 Q116.825 819.044 118.631 822.609 Q120.459 826.151 124.07 826.151 Q127.705 826.151 129.51 822.609 Q131.339 819.044 131.339 811.938 Q131.339 804.808 129.51 801.267 Q127.705 797.702 124.07 797.702 M124.07 793.998 Q129.881 793.998 132.936 798.605 Q136.015 803.188 136.015 811.938 Q136.015 820.665 132.936 825.271 Q129.881 829.854 124.07 829.854 Q118.26 829.854 115.182 825.271 Q112.126 820.665 112.126 811.938 Q112.126 803.188 115.182 798.605 Q118.26 793.998 124.07 793.998 Z" fill="#000000" fill-rule="nonzero" fill-opacity="1" /><polyline clip-path="url(#clip773)" style="stroke:#009af9; stroke-linecap:round; stroke-linejoin:round; stroke-width:4; stroke-opacity:1; fill:none" points="189.02,1221.62 189.022,1221.62 189.04,1221.61 189.225,1221.51 191.075,1220.5 209.573,1210.1 245.128,1188.58 "/>
<polyline clip-path="url(#clip773)" style="stroke:#009af9; stroke-linecap:round; stroke-linejoin:round; stroke-width:4; stroke-opacity:1; fill:none" points="245.128,1188.58 307.94,1138.18 466.081,1011.31 "/>
<polyline clip-path="url(#clip773)" style="stroke:#009af9; stroke-linecap:round; stroke-linejoin:round; stroke-width:4; stroke-opacity:1; fill:none" points="466.081,1011.31 467.989,1010.1 487.076,997.657 677.939,841.457 755.859,761.061 "/>
<path clip-path="url(#clip770)" d="M192.043 867.197 L395.924 867.197 L395.924 763.517 L192.043 763.517  Z" fill="#ffffff" fill-rule="evenodd" fill-opacity="1"/>
<polyline clip-path="url(#clip770)" style="stroke:#000000; stroke-linecap:round; stroke-linejoin:round; stroke-width:4; stroke-opacity:1; fill:none" points="192.043,867.197 395.924,867.197 395.924,763.517 192.043,763.517 192.043,867.197 "/>
<polyline clip-path="url(#clip770)" style="stroke:#009af9; stroke-linecap:round; stroke-linejoin:round; stroke-width:4; stroke-opacity:1; fill:none" points="198.719,815.357 238.776,815.357 "/>
<path clip-path="url(#clip770)" d="M263.878 807.475 L263.878 811.503 Q262.072 810.577 260.128 810.114 Q258.183 809.651 256.1 809.651 Q252.929 809.651 251.332 810.624 Q249.757 811.596 249.757 813.54 Q249.757 815.022 250.892 815.878 Q252.026 816.711 255.452 817.475 L256.91 817.799 Q261.447 818.772 263.345 820.554 Q265.267 822.313 265.267 825.485 Q265.267 829.096 262.396 831.202 Q259.549 833.309 254.549 833.309 Q252.466 833.309 250.197 832.892 Q247.952 832.498 245.452 831.688 L245.452 827.29 Q247.813 828.517 250.105 829.142 Q252.396 829.744 254.642 829.744 Q257.651 829.744 259.271 828.725 Q260.892 827.684 260.892 825.809 Q260.892 824.073 259.711 823.147 Q258.554 822.221 254.595 821.364 L253.114 821.017 Q249.156 820.184 247.396 818.471 Q245.637 816.735 245.637 813.725 Q245.637 810.068 248.23 808.077 Q250.822 806.087 255.591 806.087 Q257.952 806.087 260.035 806.434 Q262.118 806.781 263.878 807.475 Z" fill="#000000" fill-rule="nonzero" fill-opacity="1" /><path clip-path="url(#clip770)" d="M282.095 809.698 Q278.669 809.698 276.679 812.383 Q274.688 815.045 274.688 819.698 Q274.688 824.35 276.655 827.035 Q278.646 829.697 282.095 829.697 Q285.498 829.697 287.489 827.012 Q289.479 824.327 289.479 819.698 Q289.479 815.091 287.489 812.406 Q285.498 809.698 282.095 809.698 M282.095 806.087 Q287.651 806.087 290.822 809.698 Q293.993 813.309 293.993 819.698 Q293.993 826.063 290.822 829.697 Q287.651 833.309 282.095 833.309 Q276.517 833.309 273.345 829.697 Q270.197 826.063 270.197 819.698 Q270.197 813.309 273.345 809.698 Q276.517 806.087 282.095 806.087 Z" fill="#000000" fill-rule="nonzero" fill-opacity="1" /><path clip-path="url(#clip770)" d="M301.053 796.619 L305.313 796.619 L305.313 832.637 L301.053 832.637 L301.053 796.619 Z" fill="#000000" fill-rule="nonzero" fill-opacity="1" /><path clip-path="url(#clip770)" d="M313.368 830.091 L318.09 830.091 L318.09 815.948 L312.928 816.897 L312.928 814.211 L318.252 813.309 L321.424 813.309 L321.424 830.091 L326.169 830.091 L326.169 832.637 L313.368 832.637 L313.368 830.091 Z" fill="#000000" fill-rule="nonzero" fill-opacity="1" /><path clip-path="url(#clip770)" d="M369.849 806.711 L360.474 819.327 L370.336 832.637 L365.312 832.637 L357.766 822.452 L350.22 832.637 L345.197 832.637 L355.266 819.073 L346.053 806.711 L351.076 806.711 L357.951 815.948 L364.826 806.711 L369.849 806.711 Z" fill="#000000" fill-rule="nonzero" fill-opacity="1" /><path clip-path="url(#clip770)" d="M385.081 816.966 Q383.923 814.975 381.585 814.975 Q379.247 814.975 378.09 816.966 Q376.91 818.957 376.91 822.938 Q376.91 826.943 378.09 828.934 Q379.247 830.924 381.585 830.924 Q383.923 830.924 385.081 828.934 Q386.261 826.943 386.261 822.938 Q386.261 818.957 385.081 816.966 M381.585 812.915 Q385.312 812.915 387.28 815.485 Q389.247 818.054 389.247 822.938 Q389.247 827.846 387.28 830.415 Q385.312 832.985 381.585 832.985 Q377.835 832.985 375.868 830.415 Q373.9 827.846 373.9 822.938 Q373.9 818.054 375.868 815.485 Q377.835 812.915 381.585 812.915 Z" fill="#000000" fill-rule="nonzero" fill-opacity="1" /><path clip-path="url(#clip770)" d="M961.961 1235.44 L1562.81 1235.44 L1562.81 747.244 L961.961 747.244  Z" fill="#ffffff" fill-rule="evenodd" fill-opacity="1"/>
<defs>
  <clipPath id="clip774">
    <rect x="961" y="747" width="602" height="489"/>
  </clipPath>
</defs>
<polyline clip-path="url(#clip774)" style="stroke:#000000; stroke-linecap:round; stroke-linejoin:round; stroke-width:2; stroke-opacity:0.1; fill:none" points="978.966,1235.44 978.966,747.244 "/>
<polyline clip-path="url(#clip774)" style="stroke:#000000; stroke-linecap:round; stroke-linejoin:round; stroke-width:2; stroke-opacity:0.1; fill:none" points="1080.56,1235.44 1080.56,747.244 "/>
<polyline clip-path="url(#clip774)" style="stroke:#000000; stroke-linecap:round; stroke-linejoin:round; stroke-width:2; stroke-opacity:0.1; fill:none" points="1182.16,1235.44 1182.16,747.244 "/>
<polyline clip-path="url(#clip774)" style="stroke:#000000; stroke-linecap:round; stroke-linejoin:round; stroke-width:2; stroke-opacity:0.1; fill:none" points="1283.75,1235.44 1283.75,747.244 "/>
<polyline clip-path="url(#clip774)" style="stroke:#000000; stroke-linecap:round; stroke-linejoin:round; stroke-width:2; stroke-opacity:0.1; fill:none" points="1385.35,1235.44 1385.35,747.244 "/>
<polyline clip-path="url(#clip774)" style="stroke:#000000; stroke-linecap:round; stroke-linejoin:round; stroke-width:2; stroke-opacity:0.1; fill:none" points="1486.94,1235.44 1486.94,747.244 "/>
<polyline clip-path="url(#clip774)" style="stroke:#000000; stroke-linecap:round; stroke-linejoin:round; stroke-width:2; stroke-opacity:0.1; fill:none" points="961.961,1153.98 1562.81,1153.98 "/>
<polyline clip-path="url(#clip774)" style="stroke:#000000; stroke-linecap:round; stroke-linejoin:round; stroke-width:2; stroke-opacity:0.1; fill:none" points="961.961,1018.7 1562.81,1018.7 "/>
<polyline clip-path="url(#clip774)" style="stroke:#000000; stroke-linecap:round; stroke-linejoin:round; stroke-width:2; stroke-opacity:0.1; fill:none" points="961.961,883.426 1562.81,883.426 "/>
<polyline clip-path="url(#clip774)" style="stroke:#000000; stroke-linecap:round; stroke-linejoin:round; stroke-width:2; stroke-opacity:0.1; fill:none" points="961.961,748.148 1562.81,748.148 "/>
<polyline clip-path="url(#clip770)" style="stroke:#000000; stroke-linecap:round; stroke-linejoin:round; stroke-width:4; stroke-opacity:1; fill:none" points="961.961,1235.44 1562.81,1235.44 "/>
<polyline clip-path="url(#clip770)" style="stroke:#000000; stroke-linecap:round; stroke-linejoin:round; stroke-width:4; stroke-opacity:1; fill:none" points="978.966,1235.44 978.966,1216.54 "/>
<polyline clip-path="url(#clip770)" style="stroke:#000000; stroke-linecap:round; stroke-linejoin:round; stroke-width:4; stroke-opacity:1; fill:none" points="1080.56,1235.44 1080.56,1216.54 "/>
<polyline clip-path="url(#clip770)" style="stroke:#000000; stroke-linecap:round; stroke-linejoin:round; stroke-width:4; stroke-opacity:1; fill:none" points="1182.16,1235.44 1182.16,1216.54 "/>
<polyline clip-path="url(#clip770)" style="stroke:#000000; stroke-linecap:round; stroke-linejoin:round; stroke-width:4; stroke-opacity:1; fill:none" points="1283.75,1235.44 1283.75,1216.54 "/>
<polyline clip-path="url(#clip770)" style="stroke:#000000; stroke-linecap:round; stroke-linejoin:round; stroke-width:4; stroke-opacity:1; fill:none" points="1385.35,1235.44 1385.35,1216.54 "/>
<polyline clip-path="url(#clip770)" style="stroke:#000000; stroke-linecap:round; stroke-linejoin:round; stroke-width:4; stroke-opacity:1; fill:none" points="1486.94,1235.44 1486.94,1216.54 "/>
<path clip-path="url(#clip770)" d="M978.966 1266.36 Q975.355 1266.36 973.526 1269.92 Q971.721 1273.46 971.721 1280.59 Q971.721 1287.7 973.526 1291.27 Q975.355 1294.81 978.966 1294.81 Q982.6 1294.81 984.406 1291.27 Q986.235 1287.7 986.235 1280.59 Q986.235 1273.46 984.406 1269.92 Q982.6 1266.36 978.966 1266.36 M978.966 1262.65 Q984.776 1262.65 987.832 1267.26 Q990.91 1271.84 990.91 1280.59 Q990.91 1289.32 987.832 1293.93 Q984.776 1298.51 978.966 1298.51 Q973.156 1298.51 970.077 1293.93 Q967.022 1289.32 967.022 1280.59 Q967.022 1271.84 970.077 1267.26 Q973.156 1262.65 978.966 1262.65 Z" fill="#000000" fill-rule="nonzero" fill-opacity="1" /><path clip-path="url(#clip770)" d="M1055.25 1293.9 L1062.89 1293.9 L1062.89 1267.54 L1054.58 1269.21 L1054.58 1264.95 L1062.84 1263.28 L1067.52 1263.28 L1067.52 1293.9 L1075.16 1293.9 L1075.16 1297.84 L1055.25 1297.84 L1055.25 1293.9 Z" fill="#000000" fill-rule="nonzero" fill-opacity="1" /><path clip-path="url(#clip770)" d="M1094.6 1266.36 Q1090.99 1266.36 1089.16 1269.92 Q1087.36 1273.46 1087.36 1280.59 Q1087.36 1287.7 1089.16 1291.27 Q1090.99 1294.81 1094.6 1294.81 Q1098.24 1294.81 1100.04 1291.27 Q1101.87 1287.7 1101.87 1280.59 Q1101.87 1273.46 1100.04 1269.92 Q1098.24 1266.36 1094.6 1266.36 M1094.6 1262.65 Q1100.41 1262.65 1103.47 1267.26 Q1106.55 1271.84 1106.55 1280.59 Q1106.55 1289.32 1103.47 1293.93 Q1100.41 1298.51 1094.6 1298.51 Q1088.79 1298.51 1085.71 1293.93 Q1082.66 1289.32 1082.66 1280.59 Q1082.66 1271.84 1085.71 1267.26 Q1088.79 1262.65 1094.6 1262.65 Z" fill="#000000" fill-rule="nonzero" fill-opacity="1" /><path clip-path="url(#clip770)" d="M1160.93 1293.9 L1177.25 1293.9 L1177.25 1297.84 L1155.31 1297.84 L1155.31 1293.9 Q1157.97 1291.15 1162.55 1286.52 Q1167.16 1281.87 1168.34 1280.53 Q1170.58 1278 1171.46 1276.27 Q1172.37 1274.51 1172.37 1272.82 Q1172.37 1270.06 1170.42 1268.33 Q1168.5 1266.59 1165.4 1266.59 Q1163.2 1266.59 1160.75 1267.35 Q1158.31 1268.12 1155.54 1269.67 L1155.54 1264.95 Q1158.36 1263.81 1160.81 1263.23 Q1163.27 1262.65 1165.31 1262.65 Q1170.68 1262.65 1173.87 1265.34 Q1177.06 1268.03 1177.06 1272.52 Q1177.06 1274.65 1176.25 1276.57 Q1175.47 1278.46 1173.36 1281.06 Q1172.78 1281.73 1169.68 1284.95 Q1166.58 1288.14 1160.93 1293.9 Z" fill="#000000" fill-rule="nonzero" fill-opacity="1" /><path clip-path="url(#clip770)" d="M1197.06 1266.36 Q1193.45 1266.36 1191.62 1269.92 Q1189.82 1273.46 1189.82 1280.59 Q1189.82 1287.7 1191.62 1291.27 Q1193.45 1294.81 1197.06 1294.81 Q1200.7 1294.81 1202.5 1291.27 Q1204.33 1287.7 1204.33 1280.59 Q1204.33 1273.46 1202.5 1269.92 Q1200.7 1266.36 1197.06 1266.36 M1197.06 1262.65 Q1202.87 1262.65 1205.93 1267.26 Q1209.01 1271.84 1209.01 1280.59 Q1209.01 1289.32 1205.93 1293.93 Q1202.87 1298.51 1197.06 1298.51 Q1191.25 1298.51 1188.18 1293.93 Q1185.12 1289.32 1185.12 1280.59 Q1185.12 1271.84 1188.18 1267.26 Q1191.25 1262.65 1197.06 1262.65 Z" fill="#000000" fill-rule="nonzero" fill-opacity="1" /><path clip-path="url(#clip770)" d="M1272.6 1279.21 Q1275.95 1279.92 1277.83 1282.19 Q1279.72 1284.46 1279.72 1287.79 Q1279.72 1292.91 1276.21 1295.71 Q1272.69 1298.51 1266.21 1298.51 Q1264.03 1298.51 1261.72 1298.07 Q1259.42 1297.65 1256.97 1296.8 L1256.97 1292.28 Q1258.91 1293.42 1261.23 1294 Q1263.54 1294.58 1266.07 1294.58 Q1270.47 1294.58 1272.76 1292.84 Q1275.07 1291.1 1275.07 1287.79 Q1275.07 1284.74 1272.92 1283.03 Q1270.79 1281.29 1266.97 1281.29 L1262.94 1281.29 L1262.94 1277.45 L1267.16 1277.45 Q1270.6 1277.45 1272.43 1276.08 Q1274.26 1274.69 1274.26 1272.1 Q1274.26 1269.44 1272.36 1268.03 Q1270.49 1266.59 1266.97 1266.59 Q1265.05 1266.59 1262.85 1267.01 Q1260.65 1267.42 1258.01 1268.3 L1258.01 1264.14 Q1260.67 1263.4 1262.99 1263.03 Q1265.33 1262.65 1267.39 1262.65 Q1272.71 1262.65 1275.81 1265.09 Q1278.91 1267.49 1278.91 1271.61 Q1278.91 1274.48 1277.27 1276.47 Q1275.63 1278.44 1272.6 1279.21 Z" fill="#000000" fill-rule="nonzero" fill-opacity="1" /><path clip-path="url(#clip770)" d="M1298.59 1266.36 Q1294.98 1266.36 1293.15 1269.92 Q1291.35 1273.46 1291.35 1280.59 Q1291.35 1287.7 1293.15 1291.27 Q1294.98 1294.81 1298.59 1294.81 Q1302.22 1294.81 1304.03 1291.27 Q1305.86 1287.7 1305.86 1280.59 Q1305.86 1273.46 1304.03 1269.92 Q1302.22 1266.36 1298.59 1266.36 M1298.59 1262.65 Q1304.4 1262.65 1307.46 1267.26 Q1310.53 1271.84 1310.53 1280.59 Q1310.53 1289.32 1307.46 1293.93 Q1304.4 1298.51 1298.59 1298.51 Q1292.78 1298.51 1289.7 1293.93 Q1286.65 1289.32 1286.65 1280.59 Q1286.65 1271.84 1289.7 1267.26 Q1292.78 1262.65 1298.59 1262.65 Z" fill="#000000" fill-rule="nonzero" fill-opacity="1" /><path clip-path="url(#clip770)" d="M1373.52 1267.35 L1361.71 1285.8 L1373.52 1285.8 L1373.52 1267.35 M1372.29 1263.28 L1378.17 1263.28 L1378.17 1285.8 L1383.1 1285.8 L1383.1 1289.69 L1378.17 1289.69 L1378.17 1297.84 L1373.52 1297.84 L1373.52 1289.69 L1357.92 1289.69 L1357.92 1285.18 L1372.29 1263.28 Z" fill="#000000" fill-rule="nonzero" fill-opacity="1" /><path clip-path="url(#clip770)" d="M1400.83 1266.36 Q1397.22 1266.36 1395.39 1269.92 Q1393.59 1273.46 1393.59 1280.59 Q1393.59 1287.7 1395.39 1291.27 Q1397.22 1294.81 1400.83 1294.81 Q1404.47 1294.81 1406.27 1291.27 Q1408.1 1287.7 1408.1 1280.59 Q1408.1 1273.46 1406.27 1269.92 Q1404.47 1266.36 1400.83 1266.36 M1400.83 1262.65 Q1406.64 1262.65 1409.7 1267.26 Q1412.78 1271.84 1412.78 1280.59 Q1412.78 1289.32 1409.7 1293.93 Q1406.64 1298.51 1400.83 1298.51 Q1395.02 1298.51 1391.95 1293.93 Q1388.89 1289.32 1388.89 1280.59 Q1388.89 1271.84 1391.95 1267.26 Q1395.02 1262.65 1400.83 1262.65 Z" fill="#000000" fill-rule="nonzero" fill-opacity="1" /><path clip-path="url(#clip770)" d="M1461.64 1263.28 L1480 1263.28 L1480 1267.22 L1465.93 1267.22 L1465.93 1275.69 Q1466.94 1275.34 1467.96 1275.18 Q1468.98 1274.99 1470 1274.99 Q1475.79 1274.99 1479.17 1278.16 Q1482.55 1281.34 1482.55 1286.75 Q1482.55 1292.33 1479.07 1295.43 Q1475.6 1298.51 1469.28 1298.51 Q1467.11 1298.51 1464.84 1298.14 Q1462.59 1297.77 1460.18 1297.03 L1460.18 1292.33 Q1462.27 1293.46 1464.49 1294.02 Q1466.71 1294.58 1469.19 1294.58 Q1473.19 1294.58 1475.53 1292.47 Q1477.87 1290.36 1477.87 1286.75 Q1477.87 1283.14 1475.53 1281.03 Q1473.19 1278.93 1469.19 1278.93 Q1467.31 1278.93 1465.44 1279.34 Q1463.59 1279.76 1461.64 1280.64 L1461.64 1263.28 Z" fill="#000000" fill-rule="nonzero" fill-opacity="1" /><path clip-path="url(#clip770)" d="M1501.76 1266.36 Q1498.15 1266.36 1496.32 1269.92 Q1494.51 1273.46 1494.51 1280.59 Q1494.51 1287.7 1496.32 1291.27 Q1498.15 1294.81 1501.76 1294.81 Q1505.39 1294.81 1507.2 1291.27 Q1509.03 1287.7 1509.03 1280.59 Q1509.03 1273.46 1507.2 1269.92 Q1505.39 1266.36 1501.76 1266.36 M1501.76 1262.65 Q1507.57 1262.65 1510.62 1267.26 Q1513.7 1271.84 1513.7 1280.59 Q1513.7 1289.32 1510.62 1293.93 Q1507.57 1298.51 1501.76 1298.51 Q1495.95 1298.51 1492.87 1293.93 Q1489.81 1289.32 1489.81 1280.59 Q1489.81 1271.84 1492.87 1267.26 Q1495.95 1262.65 1501.76 1262.65 Z" fill="#000000" fill-rule="nonzero" fill-opacity="1" /><path clip-path="url(#clip770)" d="M1261.45 1334.53 L1261.45 1344.66 L1273.51 1344.66 L1273.51 1349.21 L1261.45 1349.21 L1261.45 1368.56 Q1261.45 1372.92 1262.62 1374.16 Q1263.83 1375.4 1267.49 1375.4 L1273.51 1375.4 L1273.51 1380.3 L1267.49 1380.3 Q1260.71 1380.3 1258.14 1377.79 Q1255.56 1375.24 1255.56 1368.56 L1255.56 1349.21 L1251.26 1349.21 L1251.26 1344.66 L1255.56 1344.66 L1255.56 1334.53 L1261.45 1334.53 Z" fill="#000000" fill-rule="nonzero" fill-opacity="1" /><polyline clip-path="url(#clip770)" style="stroke:#000000; stroke-linecap:round; stroke-linejoin:round; stroke-width:4; stroke-opacity:1; fill:none" points="961.961,1235.44 961.961,747.244 "/>
<polyline clip-path="url(#clip770)" style="stroke:#000000; stroke-linecap:round; stroke-linejoin:round; stroke-width:4; stroke-opacity:1; fill:none" points="961.961,1153.98 980.858,1153.98 "/>
<polyline clip-path="url(#clip770)" style="stroke:#000000; stroke-linecap:round; stroke-linejoin:round; stroke-width:4; stroke-opacity:1; fill:none" points="961.961,1018.7 980.858,1018.7 "/>
<polyline clip-path="url(#clip770)" style="stroke:#000000; stroke-linecap:round; stroke-linejoin:round; stroke-width:4; stroke-opacity:1; fill:none" points="961.961,883.426 980.858,883.426 "/>
<polyline clip-path="url(#clip770)" style="stroke:#000000; stroke-linecap:round; stroke-linejoin:round; stroke-width:4; stroke-opacity:1; fill:none" points="961.961,748.148 980.858,748.148 "/>
<path clip-path="url(#clip770)" d="M877.882 1167.33 L894.202 1167.33 L894.202 1171.26 L872.257 1171.26 L872.257 1167.33 Q874.919 1164.57 879.503 1159.94 Q884.109 1155.29 885.29 1153.95 Q887.535 1151.43 888.415 1149.69 Q889.318 1147.93 889.318 1146.24 Q889.318 1143.49 887.373 1141.75 Q885.452 1140.01 882.35 1140.01 Q880.151 1140.01 877.697 1140.78 Q875.267 1141.54 872.489 1143.09 L872.489 1138.37 Q875.313 1137.24 877.767 1136.66 Q880.22 1136.08 882.257 1136.08 Q887.628 1136.08 890.822 1138.76 Q894.017 1141.45 894.017 1145.94 Q894.017 1148.07 893.206 1149.99 Q892.419 1151.89 890.313 1154.48 Q889.734 1155.15 886.632 1158.37 Q883.531 1161.56 877.882 1167.33 Z" fill="#000000" fill-rule="nonzero" fill-opacity="1" /><path clip-path="url(#clip770)" d="M914.016 1139.78 Q910.405 1139.78 908.577 1143.35 Q906.771 1146.89 906.771 1154.02 Q906.771 1161.12 908.577 1164.69 Q910.405 1168.23 914.016 1168.23 Q917.651 1168.23 919.456 1164.69 Q921.285 1161.12 921.285 1154.02 Q921.285 1146.89 919.456 1143.35 Q917.651 1139.78 914.016 1139.78 M914.016 1136.08 Q919.827 1136.08 922.882 1140.69 Q925.961 1145.27 925.961 1154.02 Q925.961 1162.75 922.882 1167.35 Q919.827 1171.93 914.016 1171.93 Q908.206 1171.93 905.128 1167.35 Q902.072 1162.75 902.072 1154.02 Q902.072 1145.27 905.128 1140.69 Q908.206 1136.08 914.016 1136.08 Z" fill="#000000" fill-rule="nonzero" fill-opacity="1" /><path clip-path="url(#clip770)" d="M888.021 1017.35 Q891.378 1018.07 893.253 1020.34 Q895.151 1022.61 895.151 1025.94 Q895.151 1031.05 891.632 1033.86 Q888.114 1036.66 881.632 1036.66 Q879.456 1036.66 877.142 1036.22 Q874.85 1035.8 872.396 1034.94 L872.396 1030.43 Q874.341 1031.56 876.656 1032.14 Q878.97 1032.72 881.494 1032.72 Q885.892 1032.72 888.183 1030.98 Q890.498 1029.25 890.498 1025.94 Q890.498 1022.88 888.345 1021.17 Q886.216 1019.43 882.396 1019.43 L878.369 1019.43 L878.369 1015.59 L882.581 1015.59 Q886.031 1015.59 887.859 1014.23 Q889.688 1012.84 889.688 1010.24 Q889.688 1007.58 887.79 1006.17 Q885.915 1004.74 882.396 1004.74 Q880.475 1004.74 878.276 1005.15 Q876.077 1005.57 873.438 1006.45 L873.438 1002.28 Q876.1 1001.54 878.415 1001.17 Q880.753 1000.8 882.813 1000.8 Q888.137 1000.8 891.239 1003.23 Q894.341 1005.64 894.341 1009.76 Q894.341 1012.63 892.697 1014.62 Q891.054 1016.59 888.021 1017.35 Z" fill="#000000" fill-rule="nonzero" fill-opacity="1" /><path clip-path="url(#clip770)" d="M914.016 1004.5 Q910.405 1004.5 908.577 1008.07 Q906.771 1011.61 906.771 1018.74 Q906.771 1025.85 908.577 1029.41 Q910.405 1032.95 914.016 1032.95 Q917.651 1032.95 919.456 1029.41 Q921.285 1025.85 921.285 1018.74 Q921.285 1011.61 919.456 1008.07 Q917.651 1004.5 914.016 1004.5 M914.016 1000.8 Q919.827 1000.8 922.882 1005.41 Q925.961 1009.99 925.961 1018.74 Q925.961 1027.47 922.882 1032.07 Q919.827 1036.66 914.016 1036.66 Q908.206 1036.66 905.128 1032.07 Q902.072 1027.47 902.072 1018.74 Q902.072 1009.99 905.128 1005.41 Q908.206 1000.8 914.016 1000.8 Z" fill="#000000" fill-rule="nonzero" fill-opacity="1" /><path clip-path="url(#clip770)" d="M886.702 870.22 L874.896 888.669 L886.702 888.669 L886.702 870.22 M885.475 866.146 L891.355 866.146 L891.355 888.669 L896.285 888.669 L896.285 892.558 L891.355 892.558 L891.355 900.706 L886.702 900.706 L886.702 892.558 L871.1 892.558 L871.1 888.044 L885.475 866.146 Z" fill="#000000" fill-rule="nonzero" fill-opacity="1" /><path clip-path="url(#clip770)" d="M914.016 869.225 Q910.405 869.225 908.577 872.79 Q906.771 876.331 906.771 883.461 Q906.771 890.567 908.577 894.132 Q910.405 897.674 914.016 897.674 Q917.651 897.674 919.456 894.132 Q921.285 890.567 921.285 883.461 Q921.285 876.331 919.456 872.79 Q917.651 869.225 914.016 869.225 M914.016 865.521 Q919.827 865.521 922.882 870.128 Q925.961 874.711 925.961 883.461 Q925.961 892.188 922.882 896.794 Q919.827 901.378 914.016 901.378 Q908.206 901.378 905.128 896.794 Q902.072 892.188 902.072 883.461 Q902.072 874.711 905.128 870.128 Q908.206 865.521 914.016 865.521 Z" fill="#000000" fill-rule="nonzero" fill-opacity="1" /><path clip-path="url(#clip770)" d="M873.901 730.868 L892.257 730.868 L892.257 734.803 L878.183 734.803 L878.183 743.275 Q879.202 742.928 880.22 742.766 Q881.239 742.58 882.257 742.58 Q888.044 742.58 891.424 745.752 Q894.804 748.923 894.804 754.34 Q894.804 759.918 891.331 763.02 Q887.859 766.099 881.54 766.099 Q879.364 766.099 877.095 765.728 Q874.85 765.358 872.443 764.617 L872.443 759.918 Q874.526 761.053 876.748 761.608 Q878.97 762.164 881.447 762.164 Q885.452 762.164 887.79 760.057 Q890.128 757.951 890.128 754.34 Q890.128 750.729 887.79 748.622 Q885.452 746.516 881.447 746.516 Q879.572 746.516 877.697 746.932 Q875.845 747.349 873.901 748.229 L873.901 730.868 Z" fill="#000000" fill-rule="nonzero" fill-opacity="1" /><path clip-path="url(#clip770)" d="M914.016 733.946 Q910.405 733.946 908.577 737.511 Q906.771 741.053 906.771 748.182 Q906.771 755.289 908.577 758.854 Q910.405 762.395 914.016 762.395 Q917.651 762.395 919.456 758.854 Q921.285 755.289 921.285 748.182 Q921.285 741.053 919.456 737.511 Q917.651 733.946 914.016 733.946 M914.016 730.243 Q919.827 730.243 922.882 734.849 Q925.961 739.432 925.961 748.182 Q925.961 756.909 922.882 761.516 Q919.827 766.099 914.016 766.099 Q908.206 766.099 905.128 761.516 Q902.072 756.909 902.072 748.182 Q902.072 739.432 905.128 734.849 Q908.206 730.243 914.016 730.243 Z" fill="#000000" fill-rule="nonzero" fill-opacity="1" /><polyline clip-path="url(#clip774)" style="stroke:#009af9; stroke-linecap:round; stroke-linejoin:round; stroke-width:4; stroke-opacity:1; fill:none" points="978.966,1221.62 978.968,1221.62 978.986,1221.6 979.171,1221.35 981.021,1218.89 999.519,1194.26 1035.07,1146.91 "/>
<polyline clip-path="url(#clip774)" style="stroke:#009af9; stroke-linecap:round; stroke-linejoin:round; stroke-width:4; stroke-opacity:1; fill:none" points="1035.07,1146.91 1097.89,1146.91 1256.03,1146.91 "/>
<polyline clip-path="url(#clip774)" style="stroke:#009af9; stroke-linecap:round; stroke-linejoin:round; stroke-width:4; stroke-opacity:1; fill:none" points="1256.03,1146.91 1257.94,1144.37 1277.02,1118.96 1467.88,864.814 1545.8,761.061 "/>
<path clip-path="url(#clip770)" d="M981.989 867.197 L1184.92 867.197 L1184.92 763.517 L981.989 763.517  Z" fill="#ffffff" fill-rule="evenodd" fill-opacity="1"/>
<polyline clip-path="url(#clip770)" style="stroke:#000000; stroke-linecap:round; stroke-linejoin:round; stroke-width:4; stroke-opacity:1; fill:none" points="981.989,867.197 1184.92,867.197 1184.92,763.517 981.989,763.517 981.989,867.197 "/>
<polyline clip-path="url(#clip770)" style="stroke:#009af9; stroke-linecap:round; stroke-linejoin:round; stroke-width:4; stroke-opacity:1; fill:none" points="988.665,815.357 1028.72,815.357 "/>
<path clip-path="url(#clip770)" d="M1053.82 807.475 L1053.82 811.503 Q1052.02 810.577 1050.07 810.114 Q1048.13 809.651 1046.05 809.651 Q1042.87 809.651 1041.28 810.624 Q1039.7 811.596 1039.7 813.54 Q1039.7 815.022 1040.84 815.878 Q1041.97 816.711 1045.4 817.475 L1046.86 817.799 Q1051.39 818.772 1053.29 820.554 Q1055.21 822.313 1055.21 825.485 Q1055.21 829.096 1052.34 831.202 Q1049.5 833.309 1044.5 833.309 Q1042.41 833.309 1040.14 832.892 Q1037.9 832.498 1035.4 831.688 L1035.4 827.29 Q1037.76 828.517 1040.05 829.142 Q1042.34 829.744 1044.59 829.744 Q1047.6 829.744 1049.22 828.725 Q1050.84 827.684 1050.84 825.809 Q1050.84 824.073 1049.66 823.147 Q1048.5 822.221 1044.54 821.364 L1043.06 821.017 Q1039.1 820.184 1037.34 818.471 Q1035.58 816.735 1035.58 813.725 Q1035.58 810.068 1038.18 808.077 Q1040.77 806.087 1045.54 806.087 Q1047.9 806.087 1049.98 806.434 Q1052.06 806.781 1053.82 807.475 Z" fill="#000000" fill-rule="nonzero" fill-opacity="1" /><path clip-path="url(#clip770)" d="M1072.04 809.698 Q1068.62 809.698 1066.62 812.383 Q1064.63 815.045 1064.63 819.698 Q1064.63 824.35 1066.6 827.035 Q1068.59 829.697 1072.04 829.697 Q1075.44 829.697 1077.43 827.012 Q1079.43 824.327 1079.43 819.698 Q1079.43 815.091 1077.43 812.406 Q1075.44 809.698 1072.04 809.698 M1072.04 806.087 Q1077.6 806.087 1080.77 809.698 Q1083.94 813.309 1083.94 819.698 Q1083.94 826.063 1080.77 829.697 Q1077.6 833.309 1072.04 833.309 Q1066.46 833.309 1063.29 829.697 Q1060.14 826.063 1060.14 819.698 Q1060.14 813.309 1063.29 809.698 Q1066.46 806.087 1072.04 806.087 Z" fill="#000000" fill-rule="nonzero" fill-opacity="1" /><path clip-path="url(#clip770)" d="M1091 796.619 L1095.26 796.619 L1095.26 832.637 L1091 832.637 L1091 796.619 Z" fill="#000000" fill-rule="nonzero" fill-opacity="1" /><path clip-path="url(#clip770)" d="M1103.31 830.091 L1108.04 830.091 L1108.04 815.948 L1102.87 816.897 L1102.87 814.211 L1108.2 813.309 L1111.37 813.309 L1111.37 830.091 L1116.12 830.091 L1116.12 832.637 L1103.31 832.637 L1103.31 830.091 Z" fill="#000000" fill-rule="nonzero" fill-opacity="1" /><path clip-path="url(#clip770)" d="M1159.8 806.711 L1150.42 819.327 L1160.28 832.637 L1155.26 832.637 L1147.71 822.452 L1140.17 832.637 L1135.14 832.637 L1145.21 819.073 L1136 806.711 L1141.02 806.711 L1147.9 815.948 L1154.77 806.711 L1159.8 806.711 Z" fill="#000000" fill-rule="nonzero" fill-opacity="1" /><path clip-path="url(#clip770)" d="M1165.44 830.091 L1170.17 830.091 L1170.17 815.948 L1165 816.897 L1165 814.211 L1170.33 813.309 L1173.5 813.309 L1173.5 830.091 L1178.24 830.091 L1178.24 832.637 L1165.44 832.637 L1165.44 830.091 Z" fill="#000000" fill-rule="nonzero" fill-opacity="1" /><path clip-path="url(#clip770)" d="M1751.91 1235.44 L2352.76 1235.44 L2352.76 747.244 L1751.91 747.244  Z" fill="#ffffff" fill-rule="evenodd" fill-opacity="1"/>
<defs>
  <clipPath id="clip775">
    <rect x="1751" y="747" width="602" height="489"/>
  </clipPath>
</defs>
<polyline clip-path="url(#clip775)" style="stroke:#000000; stroke-linecap:round; stroke-linejoin:round; stroke-width:2; stroke-opacity:0.1; fill:none" points="1768.91,1235.44 1768.91,747.244 "/>
<polyline clip-path="url(#clip775)" style="stroke:#000000; stroke-linecap:round; stroke-linejoin:round; stroke-width:2; stroke-opacity:0.1; fill:none" points="1870.51,1235.44 1870.51,747.244 "/>
<polyline clip-path="url(#clip775)" style="stroke:#000000; stroke-linecap:round; stroke-linejoin:round; stroke-width:2; stroke-opacity:0.1; fill:none" points="1972.1,1235.44 1972.1,747.244 "/>
<polyline clip-path="url(#clip775)" style="stroke:#000000; stroke-linecap:round; stroke-linejoin:round; stroke-width:2; stroke-opacity:0.1; fill:none" points="2073.7,1235.44 2073.7,747.244 "/>
<polyline clip-path="url(#clip775)" style="stroke:#000000; stroke-linecap:round; stroke-linejoin:round; stroke-width:2; stroke-opacity:0.1; fill:none" points="2175.29,1235.44 2175.29,747.244 "/>
<polyline clip-path="url(#clip775)" style="stroke:#000000; stroke-linecap:round; stroke-linejoin:round; stroke-width:2; stroke-opacity:0.1; fill:none" points="2276.89,1235.44 2276.89,747.244 "/>
<polyline clip-path="url(#clip775)" style="stroke:#000000; stroke-linecap:round; stroke-linejoin:round; stroke-width:2; stroke-opacity:0.1; fill:none" points="1751.91,1221.62 2352.76,1221.62 "/>
<polyline clip-path="url(#clip775)" style="stroke:#000000; stroke-linecap:round; stroke-linejoin:round; stroke-width:2; stroke-opacity:0.1; fill:none" points="1751.91,1129.51 2352.76,1129.51 "/>
<polyline clip-path="url(#clip775)" style="stroke:#000000; stroke-linecap:round; stroke-linejoin:round; stroke-width:2; stroke-opacity:0.1; fill:none" points="1751.91,1037.4 2352.76,1037.4 "/>
<polyline clip-path="url(#clip775)" style="stroke:#000000; stroke-linecap:round; stroke-linejoin:round; stroke-width:2; stroke-opacity:0.1; fill:none" points="1751.91,945.286 2352.76,945.286 "/>
<polyline clip-path="url(#clip775)" style="stroke:#000000; stroke-linecap:round; stroke-linejoin:round; stroke-width:2; stroke-opacity:0.1; fill:none" points="1751.91,853.173 2352.76,853.173 "/>
<polyline clip-path="url(#clip775)" style="stroke:#000000; stroke-linecap:round; stroke-linejoin:round; stroke-width:2; stroke-opacity:0.1; fill:none" points="1751.91,761.061 2352.76,761.061 "/>
<polyline clip-path="url(#clip770)" style="stroke:#000000; stroke-linecap:round; stroke-linejoin:round; stroke-width:4; stroke-opacity:1; fill:none" points="1751.91,1235.44 2352.76,1235.44 "/>
<polyline clip-path="url(#clip770)" style="stroke:#000000; stroke-linecap:round; stroke-linejoin:round; stroke-width:4; stroke-opacity:1; fill:none" points="1768.91,1235.44 1768.91,1216.54 "/>
<polyline clip-path="url(#clip770)" style="stroke:#000000; stroke-linecap:round; stroke-linejoin:round; stroke-width:4; stroke-opacity:1; fill:none" points="1870.51,1235.44 1870.51,1216.54 "/>
<polyline clip-path="url(#clip770)" style="stroke:#000000; stroke-linecap:round; stroke-linejoin:round; stroke-width:4; stroke-opacity:1; fill:none" points="1972.1,1235.44 1972.1,1216.54 "/>
<polyline clip-path="url(#clip770)" style="stroke:#000000; stroke-linecap:round; stroke-linejoin:round; stroke-width:4; stroke-opacity:1; fill:none" points="2073.7,1235.44 2073.7,1216.54 "/>
<polyline clip-path="url(#clip770)" style="stroke:#000000; stroke-linecap:round; stroke-linejoin:round; stroke-width:4; stroke-opacity:1; fill:none" points="2175.29,1235.44 2175.29,1216.54 "/>
<polyline clip-path="url(#clip770)" style="stroke:#000000; stroke-linecap:round; stroke-linejoin:round; stroke-width:4; stroke-opacity:1; fill:none" points="2276.89,1235.44 2276.89,1216.54 "/>
<path clip-path="url(#clip770)" d="M1768.91 1266.36 Q1765.3 1266.36 1763.47 1269.92 Q1761.67 1273.46 1761.67 1280.59 Q1761.67 1287.7 1763.47 1291.27 Q1765.3 1294.81 1768.91 1294.81 Q1772.55 1294.81 1774.35 1291.27 Q1776.18 1287.7 1776.18 1280.59 Q1776.18 1273.46 1774.35 1269.92 Q1772.55 1266.36 1768.91 1266.36 M1768.91 1262.65 Q1774.72 1262.65 1777.78 1267.26 Q1780.86 1271.84 1780.86 1280.59 Q1780.86 1289.32 1777.78 1293.93 Q1774.72 1298.51 1768.91 1298.51 Q1763.1 1298.51 1760.02 1293.93 Q1756.97 1289.32 1756.97 1280.59 Q1756.97 1271.84 1760.02 1267.26 Q1763.1 1262.65 1768.91 1262.65 Z" fill="#000000" fill-rule="nonzero" fill-opacity="1" /><path clip-path="url(#clip770)" d="M1845.2 1293.9 L1852.83 1293.9 L1852.83 1267.54 L1844.52 1269.21 L1844.52 1264.95 L1852.79 1263.28 L1857.46 1263.28 L1857.46 1293.9 L1865.1 1293.9 L1865.1 1297.84 L1845.2 1297.84 L1845.2 1293.9 Z" fill="#000000" fill-rule="nonzero" fill-opacity="1" /><path clip-path="url(#clip770)" d="M1884.55 1266.36 Q1880.94 1266.36 1879.11 1269.92 Q1877.3 1273.46 1877.3 1280.59 Q1877.3 1287.7 1879.11 1291.27 Q1880.94 1294.81 1884.55 1294.81 Q1888.18 1294.81 1889.99 1291.27 Q1891.82 1287.7 1891.82 1280.59 Q1891.82 1273.46 1889.99 1269.92 Q1888.18 1266.36 1884.55 1266.36 M1884.55 1262.65 Q1890.36 1262.65 1893.41 1267.26 Q1896.49 1271.84 1896.49 1280.59 Q1896.49 1289.32 1893.41 1293.93 Q1890.36 1298.51 1884.55 1298.51 Q1878.74 1298.51 1875.66 1293.93 Q1872.6 1289.32 1872.6 1280.59 Q1872.6 1271.84 1875.66 1267.26 Q1878.74 1262.65 1884.55 1262.65 Z" fill="#000000" fill-rule="nonzero" fill-opacity="1" /><path clip-path="url(#clip770)" d="M1950.88 1293.9 L1967.2 1293.9 L1967.2 1297.84 L1945.25 1297.84 L1945.25 1293.9 Q1947.91 1291.15 1952.5 1286.52 Q1957.1 1281.87 1958.28 1280.53 Q1960.53 1278 1961.41 1276.27 Q1962.31 1274.51 1962.31 1272.82 Q1962.31 1270.06 1960.37 1268.33 Q1958.45 1266.59 1955.34 1266.59 Q1953.14 1266.59 1950.69 1267.35 Q1948.26 1268.12 1945.48 1269.67 L1945.48 1264.95 Q1948.31 1263.81 1950.76 1263.23 Q1953.21 1262.65 1955.25 1262.65 Q1960.62 1262.65 1963.82 1265.34 Q1967.01 1268.03 1967.01 1272.52 Q1967.01 1274.65 1966.2 1276.57 Q1965.41 1278.46 1963.31 1281.06 Q1962.73 1281.73 1959.63 1284.95 Q1956.52 1288.14 1950.88 1293.9 Z" fill="#000000" fill-rule="nonzero" fill-opacity="1" /><path clip-path="url(#clip770)" d="M1987.01 1266.36 Q1983.4 1266.36 1981.57 1269.92 Q1979.77 1273.46 1979.77 1280.59 Q1979.77 1287.7 1981.57 1291.27 Q1983.4 1294.81 1987.01 1294.81 Q1990.64 1294.81 1992.45 1291.27 Q1994.28 1287.7 1994.28 1280.59 Q1994.28 1273.46 1992.45 1269.92 Q1990.64 1266.36 1987.01 1266.36 M1987.01 1262.65 Q1992.82 1262.65 1995.88 1267.26 Q1998.95 1271.84 1998.95 1280.59 Q1998.95 1289.32 1995.88 1293.93 Q1992.82 1298.51 1987.01 1298.51 Q1981.2 1298.51 1978.12 1293.93 Q1975.07 1289.32 1975.07 1280.59 Q1975.07 1271.84 1978.12 1267.26 Q1981.2 1262.65 1987.01 1262.65 Z" fill="#000000" fill-rule="nonzero" fill-opacity="1" /><path clip-path="url(#clip770)" d="M2062.54 1279.21 Q2065.9 1279.92 2067.77 1282.19 Q2069.67 1284.46 2069.67 1287.79 Q2069.67 1292.91 2066.15 1295.71 Q2062.63 1298.51 2056.15 1298.51 Q2053.98 1298.51 2051.66 1298.07 Q2049.37 1297.65 2046.92 1296.8 L2046.92 1292.28 Q2048.86 1293.42 2051.18 1294 Q2053.49 1294.58 2056.01 1294.58 Q2060.41 1294.58 2062.7 1292.84 Q2065.02 1291.1 2065.02 1287.79 Q2065.02 1284.74 2062.87 1283.03 Q2060.74 1281.29 2056.92 1281.29 L2052.89 1281.29 L2052.89 1277.45 L2057.1 1277.45 Q2060.55 1277.45 2062.38 1276.08 Q2064.21 1274.69 2064.21 1272.1 Q2064.21 1269.44 2062.31 1268.03 Q2060.43 1266.59 2056.92 1266.59 Q2054.99 1266.59 2052.8 1267.01 Q2050.6 1267.42 2047.96 1268.3 L2047.96 1264.14 Q2050.62 1263.4 2052.93 1263.03 Q2055.27 1262.65 2057.33 1262.65 Q2062.66 1262.65 2065.76 1265.09 Q2068.86 1267.49 2068.86 1271.61 Q2068.86 1274.48 2067.22 1276.47 Q2065.57 1278.44 2062.54 1279.21 Z" fill="#000000" fill-rule="nonzero" fill-opacity="1" /><path clip-path="url(#clip770)" d="M2088.54 1266.36 Q2084.93 1266.36 2083.1 1269.92 Q2081.29 1273.46 2081.29 1280.59 Q2081.29 1287.7 2083.1 1291.27 Q2084.93 1294.81 2088.54 1294.81 Q2092.17 1294.81 2093.98 1291.27 Q2095.8 1287.7 2095.8 1280.59 Q2095.8 1273.46 2093.98 1269.92 Q2092.17 1266.36 2088.54 1266.36 M2088.54 1262.65 Q2094.35 1262.65 2097.4 1267.26 Q2100.48 1271.84 2100.48 1280.59 Q2100.48 1289.32 2097.4 1293.93 Q2094.35 1298.51 2088.54 1298.51 Q2082.73 1298.51 2079.65 1293.93 Q2076.59 1289.32 2076.59 1280.59 Q2076.59 1271.84 2079.65 1267.26 Q2082.73 1262.65 2088.54 1262.65 Z" fill="#000000" fill-rule="nonzero" fill-opacity="1" /><path clip-path="url(#clip770)" d="M2163.47 1267.35 L2151.66 1285.8 L2163.47 1285.8 L2163.47 1267.35 M2162.24 1263.28 L2168.12 1263.28 L2168.12 1285.8 L2173.05 1285.8 L2173.05 1289.69 L2168.12 1289.69 L2168.12 1297.84 L2163.47 1297.84 L2163.47 1289.69 L2147.86 1289.69 L2147.86 1285.18 L2162.24 1263.28 Z" fill="#000000" fill-rule="nonzero" fill-opacity="1" /><path clip-path="url(#clip770)" d="M2190.78 1266.36 Q2187.17 1266.36 2185.34 1269.92 Q2183.53 1273.46 2183.53 1280.59 Q2183.53 1287.7 2185.34 1291.27 Q2187.17 1294.81 2190.78 1294.81 Q2194.41 1294.81 2196.22 1291.27 Q2198.05 1287.7 2198.05 1280.59 Q2198.05 1273.46 2196.22 1269.92 Q2194.41 1266.36 2190.78 1266.36 M2190.78 1262.65 Q2196.59 1262.65 2199.65 1267.26 Q2202.72 1271.84 2202.72 1280.59 Q2202.72 1289.32 2199.65 1293.93 Q2196.59 1298.51 2190.78 1298.51 Q2184.97 1298.51 2181.89 1293.93 Q2178.84 1289.32 2178.84 1280.59 Q2178.84 1271.84 2181.89 1267.26 Q2184.97 1262.65 2190.78 1262.65 Z" fill="#000000" fill-rule="nonzero" fill-opacity="1" /><path clip-path="url(#clip770)" d="M2251.59 1263.28 L2269.95 1263.28 L2269.95 1267.22 L2255.87 1267.22 L2255.87 1275.69 Q2256.89 1275.34 2257.91 1275.18 Q2258.93 1274.99 2259.95 1274.99 Q2265.73 1274.99 2269.11 1278.16 Q2272.49 1281.34 2272.49 1286.75 Q2272.49 1292.33 2269.02 1295.43 Q2265.55 1298.51 2259.23 1298.51 Q2257.05 1298.51 2254.78 1298.14 Q2252.54 1297.77 2250.13 1297.03 L2250.13 1292.33 Q2252.21 1293.46 2254.44 1294.02 Q2256.66 1294.58 2259.13 1294.58 Q2263.14 1294.58 2265.48 1292.47 Q2267.82 1290.36 2267.82 1286.75 Q2267.82 1283.14 2265.48 1281.03 Q2263.14 1278.93 2259.13 1278.93 Q2257.26 1278.93 2255.38 1279.34 Q2253.53 1279.76 2251.59 1280.64 L2251.59 1263.28 Z" fill="#000000" fill-rule="nonzero" fill-opacity="1" /><path clip-path="url(#clip770)" d="M2291.7 1266.36 Q2288.09 1266.36 2286.26 1269.92 Q2284.46 1273.46 2284.46 1280.59 Q2284.46 1287.7 2286.26 1291.27 Q2288.09 1294.81 2291.7 1294.81 Q2295.34 1294.81 2297.14 1291.27 Q2298.97 1287.7 2298.97 1280.59 Q2298.97 1273.46 2297.14 1269.92 Q2295.34 1266.36 2291.7 1266.36 M2291.7 1262.65 Q2297.51 1262.65 2300.57 1267.26 Q2303.65 1271.84 2303.65 1280.59 Q2303.65 1289.32 2300.57 1293.93 Q2297.51 1298.51 2291.7 1298.51 Q2285.89 1298.51 2282.82 1293.93 Q2279.76 1289.32 2279.76 1280.59 Q2279.76 1271.84 2282.82 1267.26 Q2285.89 1262.65 2291.7 1262.65 Z" fill="#000000" fill-rule="nonzero" fill-opacity="1" /><path clip-path="url(#clip770)" d="M2051.39 1334.53 L2051.39 1344.66 L2063.46 1344.66 L2063.46 1349.21 L2051.39 1349.21 L2051.39 1368.56 Q2051.39 1372.92 2052.57 1374.16 Q2053.78 1375.4 2057.44 1375.4 L2063.46 1375.4 L2063.46 1380.3 L2057.44 1380.3 Q2050.66 1380.3 2048.08 1377.79 Q2045.5 1375.24 2045.5 1368.56 L2045.5 1349.21 L2041.21 1349.21 L2041.21 1344.66 L2045.5 1344.66 L2045.5 1334.53 L2051.39 1334.53 Z" fill="#000000" fill-rule="nonzero" fill-opacity="1" /><polyline clip-path="url(#clip770)" style="stroke:#000000; stroke-linecap:round; stroke-linejoin:round; stroke-width:4; stroke-opacity:1; fill:none" points="1751.91,1235.44 1751.91,747.244 "/>
<polyline clip-path="url(#clip770)" style="stroke:#000000; stroke-linecap:round; stroke-linejoin:round; stroke-width:4; stroke-opacity:1; fill:none" points="1751.91,1221.62 1770.8,1221.62 "/>
<polyline clip-path="url(#clip770)" style="stroke:#000000; stroke-linecap:round; stroke-linejoin:round; stroke-width:4; stroke-opacity:1; fill:none" points="1751.91,1129.51 1770.8,1129.51 "/>
<polyline clip-path="url(#clip770)" style="stroke:#000000; stroke-linecap:round; stroke-linejoin:round; stroke-width:4; stroke-opacity:1; fill:none" points="1751.91,1037.4 1770.8,1037.4 "/>
<polyline clip-path="url(#clip770)" style="stroke:#000000; stroke-linecap:round; stroke-linejoin:round; stroke-width:4; stroke-opacity:1; fill:none" points="1751.91,945.286 1770.8,945.286 "/>
<polyline clip-path="url(#clip770)" style="stroke:#000000; stroke-linecap:round; stroke-linejoin:round; stroke-width:4; stroke-opacity:1; fill:none" points="1751.91,853.173 1770.8,853.173 "/>
<polyline clip-path="url(#clip770)" style="stroke:#000000; stroke-linecap:round; stroke-linejoin:round; stroke-width:4; stroke-opacity:1; fill:none" points="1751.91,761.061 1770.8,761.061 "/>
<path clip-path="url(#clip770)" d="M1703.96 1207.42 Q1700.35 1207.42 1698.52 1210.99 Q1696.72 1214.53 1696.72 1221.66 Q1696.72 1228.76 1698.52 1232.33 Q1700.35 1235.87 1703.96 1235.87 Q1707.6 1235.87 1709.4 1232.33 Q1711.23 1228.76 1711.23 1221.66 Q1711.23 1214.53 1709.4 1210.99 Q1707.6 1207.42 1703.96 1207.42 M1703.96 1203.72 Q1709.77 1203.72 1712.83 1208.32 Q1715.91 1212.91 1715.91 1221.66 Q1715.91 1230.38 1712.83 1234.99 Q1709.77 1239.57 1703.96 1239.57 Q1698.15 1239.57 1695.07 1234.99 Q1692.02 1230.38 1692.02 1221.66 Q1692.02 1212.91 1695.07 1208.32 Q1698.15 1203.72 1703.96 1203.72 Z" fill="#000000" fill-rule="nonzero" fill-opacity="1" /><path clip-path="url(#clip770)" d="M1664.61 1142.86 L1672.25 1142.86 L1672.25 1116.49 L1663.94 1118.16 L1663.94 1113.9 L1672.2 1112.23 L1676.88 1112.23 L1676.88 1142.86 L1684.52 1142.86 L1684.52 1146.79 L1664.61 1146.79 L1664.61 1142.86 Z" fill="#000000" fill-rule="nonzero" fill-opacity="1" /><path clip-path="url(#clip770)" d="M1703.96 1115.31 Q1700.35 1115.31 1698.52 1118.87 Q1696.72 1122.42 1696.72 1129.55 Q1696.72 1136.65 1698.52 1140.22 Q1700.35 1143.76 1703.96 1143.76 Q1707.6 1143.76 1709.4 1140.22 Q1711.23 1136.65 1711.23 1129.55 Q1711.23 1122.42 1709.4 1118.87 Q1707.6 1115.31 1703.96 1115.31 M1703.96 1111.61 Q1709.77 1111.61 1712.83 1116.21 Q1715.91 1120.8 1715.91 1129.55 Q1715.91 1138.27 1712.83 1142.88 Q1709.77 1147.46 1703.96 1147.46 Q1698.15 1147.46 1695.07 1142.88 Q1692.02 1138.27 1692.02 1129.55 Q1692.02 1120.8 1695.07 1116.21 Q1698.15 1111.61 1703.96 1111.61 Z" fill="#000000" fill-rule="nonzero" fill-opacity="1" /><path clip-path="url(#clip770)" d="M1667.83 1050.74 L1684.15 1050.74 L1684.15 1054.68 L1662.2 1054.68 L1662.2 1050.74 Q1664.87 1047.99 1669.45 1043.36 Q1674.06 1038.71 1675.24 1037.36 Q1677.48 1034.84 1678.36 1033.1 Q1679.26 1031.34 1679.26 1029.66 Q1679.26 1026.9 1677.32 1025.16 Q1675.4 1023.43 1672.3 1023.43 Q1670.1 1023.43 1667.64 1024.19 Q1665.21 1024.96 1662.43 1026.51 L1662.43 1021.78 Q1665.26 1020.65 1667.71 1020.07 Q1670.17 1019.49 1672.2 1019.49 Q1677.57 1019.49 1680.77 1022.18 Q1683.96 1024.86 1683.96 1029.35 Q1683.96 1031.48 1683.15 1033.41 Q1682.37 1035.3 1680.26 1037.9 Q1679.68 1038.57 1676.58 1041.78 Q1673.48 1044.98 1667.83 1050.74 Z" fill="#000000" fill-rule="nonzero" fill-opacity="1" /><path clip-path="url(#clip770)" d="M1703.96 1023.2 Q1700.35 1023.2 1698.52 1026.76 Q1696.72 1030.3 1696.72 1037.43 Q1696.72 1044.54 1698.52 1048.1 Q1700.35 1051.65 1703.96 1051.65 Q1707.6 1051.65 1709.4 1048.1 Q1711.23 1044.54 1711.23 1037.43 Q1711.23 1030.3 1709.4 1026.76 Q1707.6 1023.2 1703.96 1023.2 M1703.96 1019.49 Q1709.77 1019.49 1712.83 1024.1 Q1715.91 1028.68 1715.91 1037.43 Q1715.91 1046.16 1712.83 1050.77 Q1709.77 1055.35 1703.96 1055.35 Q1698.15 1055.35 1695.07 1050.77 Q1692.02 1046.16 1692.02 1037.43 Q1692.02 1028.68 1695.07 1024.1 Q1698.15 1019.49 1703.96 1019.49 Z" fill="#000000" fill-rule="nonzero" fill-opacity="1" /><path clip-path="url(#clip770)" d="M1677.97 943.932 Q1681.32 944.649 1683.2 946.918 Q1685.1 949.186 1685.1 952.52 Q1685.1 957.635 1681.58 960.436 Q1678.06 963.237 1671.58 963.237 Q1669.4 963.237 1667.09 962.797 Q1664.8 962.381 1662.34 961.524 L1662.34 957.01 Q1664.29 958.144 1666.6 958.723 Q1668.92 959.302 1671.44 959.302 Q1675.84 959.302 1678.13 957.566 Q1680.44 955.83 1680.44 952.52 Q1680.44 949.464 1678.29 947.751 Q1676.16 946.015 1672.34 946.015 L1668.31 946.015 L1668.31 942.172 L1672.53 942.172 Q1675.98 942.172 1677.81 940.807 Q1679.63 939.418 1679.63 936.825 Q1679.63 934.163 1677.74 932.751 Q1675.86 931.316 1672.34 931.316 Q1670.42 931.316 1668.22 931.733 Q1666.02 932.149 1663.38 933.029 L1663.38 928.862 Q1666.05 928.122 1668.36 927.751 Q1670.7 927.381 1672.76 927.381 Q1678.08 927.381 1681.18 929.811 Q1684.29 932.219 1684.29 936.339 Q1684.29 939.209 1682.64 941.2 Q1681 943.168 1677.97 943.932 Z" fill="#000000" fill-rule="nonzero" fill-opacity="1" /><path clip-path="url(#clip770)" d="M1703.96 931.084 Q1700.35 931.084 1698.52 934.649 Q1696.72 938.191 1696.72 945.32 Q1696.72 952.427 1698.52 955.992 Q1700.35 959.533 1703.96 959.533 Q1707.6 959.533 1709.4 955.992 Q1711.23 952.427 1711.23 945.32 Q1711.23 938.191 1709.4 934.649 Q1707.6 931.084 1703.96 931.084 M1703.96 927.381 Q1709.77 927.381 1712.83 931.987 Q1715.91 936.571 1715.91 945.32 Q1715.91 954.047 1712.83 958.654 Q1709.77 963.237 1703.96 963.237 Q1698.15 963.237 1695.07 958.654 Q1692.02 954.047 1692.02 945.32 Q1692.02 936.571 1695.07 931.987 Q1698.15 927.381 1703.96 927.381 Z" fill="#000000" fill-rule="nonzero" fill-opacity="1" /><path clip-path="url(#clip770)" d="M1676.65 839.967 L1664.84 858.416 L1676.65 858.416 L1676.65 839.967 M1675.42 835.893 L1681.3 835.893 L1681.3 858.416 L1686.23 858.416 L1686.23 862.305 L1681.3 862.305 L1681.3 870.453 L1676.65 870.453 L1676.65 862.305 L1661.05 862.305 L1661.05 857.791 L1675.42 835.893 Z" fill="#000000" fill-rule="nonzero" fill-opacity="1" /><path clip-path="url(#clip770)" d="M1703.96 838.972 Q1700.35 838.972 1698.52 842.537 Q1696.72 846.078 1696.72 853.208 Q1696.72 860.315 1698.52 863.879 Q1700.35 867.421 1703.96 867.421 Q1707.6 867.421 1709.4 863.879 Q1711.23 860.315 1711.23 853.208 Q1711.23 846.078 1709.4 842.537 Q1707.6 838.972 1703.96 838.972 M1703.96 835.268 Q1709.77 835.268 1712.83 839.875 Q1715.91 844.458 1715.91 853.208 Q1715.91 861.935 1712.83 866.541 Q1709.77 871.125 1703.96 871.125 Q1698.15 871.125 1695.07 866.541 Q1692.02 861.935 1692.02 853.208 Q1692.02 844.458 1695.07 839.875 Q1698.15 835.268 1703.96 835.268 Z" fill="#000000" fill-rule="nonzero" fill-opacity="1" /><path clip-path="url(#clip770)" d="M1663.85 743.781 L1682.2 743.781 L1682.2 747.716 L1668.13 747.716 L1668.13 756.188 Q1669.15 755.841 1670.17 755.679 Q1671.18 755.494 1672.2 755.494 Q1677.99 755.494 1681.37 758.665 Q1684.75 761.836 1684.75 767.253 Q1684.75 772.832 1681.28 775.934 Q1677.81 779.012 1671.49 779.012 Q1669.31 779.012 1667.04 778.642 Q1664.8 778.272 1662.39 777.531 L1662.39 772.832 Q1664.47 773.966 1666.69 774.522 Q1668.92 775.077 1671.39 775.077 Q1675.4 775.077 1677.74 772.971 Q1680.07 770.864 1680.07 767.253 Q1680.07 763.642 1677.74 761.535 Q1675.4 759.429 1671.39 759.429 Q1669.52 759.429 1667.64 759.846 Q1665.79 760.262 1663.85 761.142 L1663.85 743.781 Z" fill="#000000" fill-rule="nonzero" fill-opacity="1" /><path clip-path="url(#clip770)" d="M1703.96 746.86 Q1700.35 746.86 1698.52 750.424 Q1696.72 753.966 1696.72 761.096 Q1696.72 768.202 1698.52 771.767 Q1700.35 775.309 1703.96 775.309 Q1707.6 775.309 1709.4 771.767 Q1711.23 768.202 1711.23 761.096 Q1711.23 753.966 1709.4 750.424 Q1707.6 746.86 1703.96 746.86 M1703.96 743.156 Q1709.77 743.156 1712.83 747.762 Q1715.91 752.346 1715.91 761.096 Q1715.91 769.822 1712.83 774.429 Q1709.77 779.012 1703.96 779.012 Q1698.15 779.012 1695.07 774.429 Q1692.02 769.822 1692.02 761.096 Q1692.02 752.346 1695.07 747.762 Q1698.15 743.156 1703.96 743.156 Z" fill="#000000" fill-rule="nonzero" fill-opacity="1" /><polyline clip-path="url(#clip775)" style="stroke:#009af9; stroke-linecap:round; stroke-linejoin:round; stroke-width:4; stroke-opacity:1; fill:none" points="1768.91,1221.62 1768.91,1221.62 1768.93,1221.6 1769.12,1221.44 1770.97,1219.76 1789.47,1202.99 1825.02,1170.75 "/>
<polyline clip-path="url(#clip775)" style="stroke:#009af9; stroke-linecap:round; stroke-linejoin:round; stroke-width:4; stroke-opacity:1; fill:none" points="1825.02,1170.75 1887.83,1128.97 2045.97,1023.79 "/>
<polyline clip-path="url(#clip775)" style="stroke:#009af9; stroke-linecap:round; stroke-linejoin:round; stroke-width:4; stroke-opacity:1; fill:none" points="2045.97,1023.79 2047.88,1022.06 2066.97,1004.76 2257.83,831.708 2335.75,761.061 "/>
<path clip-path="url(#clip770)" d="M1771.94 867.197 L1974.47 867.197 L1974.47 763.517 L1771.94 763.517  Z" fill="#ffffff" fill-rule="evenodd" fill-opacity="1"/>
<polyline clip-path="url(#clip770)" style="stroke:#000000; stroke-linecap:round; stroke-linejoin:round; stroke-width:4; stroke-opacity:1; fill:none" points="1771.94,867.197 1974.47,867.197 1974.47,763.517 1771.94,763.517 1771.94,867.197 "/>
<polyline clip-path="url(#clip770)" style="stroke:#009af9; stroke-linecap:round; stroke-linejoin:round; stroke-width:4; stroke-opacity:1; fill:none" points="1778.61,815.357 1818.67,815.357 "/>
<path clip-path="url(#clip770)" d="M1843.77 807.475 L1843.77 811.503 Q1841.96 810.577 1840.02 810.114 Q1838.08 809.651 1835.99 809.651 Q1832.82 809.651 1831.22 810.624 Q1829.65 811.596 1829.65 813.54 Q1829.65 815.022 1830.78 815.878 Q1831.92 816.711 1835.34 817.475 L1836.8 817.799 Q1841.34 818.772 1843.24 820.554 Q1845.16 822.313 1845.16 825.485 Q1845.16 829.096 1842.29 831.202 Q1839.44 833.309 1834.44 833.309 Q1832.36 833.309 1830.09 832.892 Q1827.84 832.498 1825.34 831.688 L1825.34 827.29 Q1827.71 828.517 1830 829.142 Q1832.29 829.744 1834.53 829.744 Q1837.54 829.744 1839.16 828.725 Q1840.78 827.684 1840.78 825.809 Q1840.78 824.073 1839.6 823.147 Q1838.45 822.221 1834.49 821.364 L1833.01 821.017 Q1829.05 820.184 1827.29 818.471 Q1825.53 816.735 1825.53 813.725 Q1825.53 810.068 1828.12 808.077 Q1830.71 806.087 1835.48 806.087 Q1837.84 806.087 1839.93 806.434 Q1842.01 806.781 1843.77 807.475 Z" fill="#000000" fill-rule="nonzero" fill-opacity="1" /><path clip-path="url(#clip770)" d="M1861.99 809.698 Q1858.56 809.698 1856.57 812.383 Q1854.58 815.045 1854.58 819.698 Q1854.58 824.35 1856.55 827.035 Q1858.54 829.697 1861.99 829.697 Q1865.39 829.697 1867.38 827.012 Q1869.37 824.327 1869.37 819.698 Q1869.37 815.091 1867.38 812.406 Q1865.39 809.698 1861.99 809.698 M1861.99 806.087 Q1867.54 806.087 1870.71 809.698 Q1873.89 813.309 1873.89 819.698 Q1873.89 826.063 1870.71 829.697 Q1867.54 833.309 1861.99 833.309 Q1856.41 833.309 1853.24 829.697 Q1850.09 826.063 1850.09 819.698 Q1850.09 813.309 1853.24 809.698 Q1856.41 806.087 1861.99 806.087 Z" fill="#000000" fill-rule="nonzero" fill-opacity="1" /><path clip-path="url(#clip770)" d="M1880.95 796.619 L1885.2 796.619 L1885.2 832.637 L1880.95 832.637 L1880.95 796.619 Z" fill="#000000" fill-rule="nonzero" fill-opacity="1" /><path clip-path="url(#clip770)" d="M1893.26 830.091 L1897.98 830.091 L1897.98 815.948 L1892.82 816.897 L1892.82 814.211 L1898.14 813.309 L1901.32 813.309 L1901.32 830.091 L1906.06 830.091 L1906.06 832.637 L1893.26 832.637 L1893.26 830.091 Z" fill="#000000" fill-rule="nonzero" fill-opacity="1" /><path clip-path="url(#clip770)" d="M1949.74 806.711 L1940.37 819.327 L1950.23 832.637 L1945.2 832.637 L1937.66 822.452 L1930.11 832.637 L1925.09 832.637 L1935.16 819.073 L1925.95 806.711 L1930.97 806.711 L1937.84 815.948 L1944.72 806.711 L1949.74 806.711 Z" fill="#000000" fill-rule="nonzero" fill-opacity="1" /><path clip-path="url(#clip770)" d="M1957.98 829.998 L1967.8 829.998 L1967.8 832.637 L1953.95 832.637 L1953.95 830.091 Q1954.74 829.373 1956.2 828.077 Q1964.16 821.017 1964.16 818.841 Q1964.16 817.313 1962.96 816.387 Q1961.76 815.438 1959.79 815.438 Q1958.58 815.438 1957.17 815.855 Q1955.76 816.248 1954.09 817.059 L1954.09 814.211 Q1955.88 813.563 1957.4 813.239 Q1958.95 812.915 1960.27 812.915 Q1963.63 812.915 1965.64 814.443 Q1967.66 815.971 1967.66 818.471 Q1967.66 821.688 1960 828.262 Q1958.7 829.373 1957.98 829.998 Z" fill="#000000" fill-rule="nonzero" fill-opacity="1" /></svg>
